<?xml version="1.0" encoding="UTF-8" standalone="no"?>
<!DOCTYPE svg PUBLIC "-//W3C//DTD SVG 1.1//EN"
 "http://www.w3.org/Graphics/SVG/1.1/DTD/svg11.dtd">
<!-- Generated by graphviz version 2.43.0 (0)
 -->
<!-- Title: /__w/qugar/qugar/cpp/include/qugar/primitive_funcs_lib.hpp Pages: 1 -->
<svg width="1564pt" height="456pt"
 viewBox="0.00 0.00 1563.61 456.00" xmlns="http://www.w3.org/2000/svg" xmlns:xlink="http://www.w3.org/1999/xlink">
<g id="graph0" class="graph" transform="scale(1 1) rotate(0) translate(4 452)">
<title>/__w/qugar/qugar/cpp/include/qugar/primitive_funcs_lib.hpp</title>
<!-- Node1 -->
<g id="Node000001" class="node">
<title>Node1</title>
<g id="a_Node000001"><a xlink:title="Declaration of a primitive implicit functions ready to be consumed by Algoim.">
<polygon fill="#999999" stroke="#666666" points="1222.11,-448 1089.11,-448 1089.11,-407 1222.11,-407 1222.11,-448"/>
<text text-anchor="start" x="1097.11" y="-436" font-family="Helvetica,sans-Serif" font-size="10.00">/__w/qugar/qugar/cpp</text>
<text text-anchor="start" x="1097.11" y="-425" font-family="Helvetica,sans-Serif" font-size="10.00">/include/qugar/primitive</text>
<text text-anchor="middle" x="1155.61" y="-414" font-family="Helvetica,sans-Serif" font-size="10.00">_funcs_lib.hpp</text>
</a>
</g>
</g>
<!-- Node2 -->
<g id="Node000002" class="node">
<title>Node2</title>
<g id="a_Node000002"><a xlink:href="../../d2/d6e/bezier__tp_8hpp.html" target="_top" xlink:title="Declaration of tensor&#45;product Bezier class.">
<polygon fill="white" stroke="#666666" points="1038.11,-365.5 925.11,-365.5 925.11,-346.5 1038.11,-346.5 1038.11,-365.5"/>
<text text-anchor="middle" x="981.61" y="-353.5" font-family="Helvetica,sans-Serif" font-size="10.00">qugar/bezier_tp.hpp</text>
</a>
</g>
</g>
<!-- Node1&#45;&gt;Node2 -->
<g id="edge1_Node000001_Node000002" class="edge">
<title>Node1&#45;&gt;Node2</title>
<g id="a_edge1_Node000001_Node000002"><a xlink:title=" ">
<path fill="none" stroke="#63b8ff" d="M1106.68,-406.96C1076.37,-394.85 1038.39,-379.68 1012.28,-369.25"/>
<polygon fill="#63b8ff" stroke="#63b8ff" points="1013.48,-365.96 1002.9,-365.5 1010.89,-372.46 1013.48,-365.96"/>
</a>
</g>
</g>
<!-- Node5 -->
<g id="Node000005" class="node">
<title>Node5</title>
<g id="a_Node000005"><a xlink:href="../../d0/de4/point_8hpp.html" target="_top" xlink:title="Definition and implementation of Point class.">
<polygon fill="white" stroke="#666666" points="211.11,-129 118.11,-129 118.11,-110 211.11,-110 211.11,-129"/>
<text text-anchor="middle" x="164.61" y="-117" font-family="Helvetica,sans-Serif" font-size="10.00">qugar/point.hpp</text>
</a>
</g>
</g>
<!-- Node1&#45;&gt;Node5 -->
<g id="edge57_Node000001_Node000005" class="edge">
<title>Node1&#45;&gt;Node5</title>
<g id="a_edge57_Node000001_Node000005"><a xlink:title=" ">
<path fill="none" stroke="#63b8ff" d="M1089.09,-424.6C855.68,-417.26 84.23,-386.93 13.61,-305 -40.55,-242.17 82.62,-164.64 138.67,-133.93"/>
<polygon fill="#63b8ff" stroke="#63b8ff" points="140.53,-136.91 147.68,-129.09 137.22,-130.74 140.53,-136.91"/>
</a>
</g>
</g>
<!-- Node6 -->
<g id="Node000006" class="node">
<title>Node6</title>
<g id="a_Node000006"><a xlink:href="../../dd/de3/types_8hpp.html" target="_top" xlink:title="Declaration of types.">
<polygon fill="white" stroke="#666666" points="1068.11,-74 973.11,-74 973.11,-55 1068.11,-55 1068.11,-74"/>
<text text-anchor="middle" x="1020.61" y="-62" font-family="Helvetica,sans-Serif" font-size="10.00">qugar/types.hpp</text>
</a>
</g>
</g>
<!-- Node1&#45;&gt;Node6 -->
<g id="edge60_Node000001_Node000006" class="edge">
<title>Node1&#45;&gt;Node6</title>
<g id="a_edge60_Node000001_Node000006"><a xlink:title=" ">
<path fill="none" stroke="#63b8ff" d="M1222.28,-422.09C1263.22,-416.12 1314.23,-402.38 1348.61,-371 1374.85,-347.05 1377.61,-332.03 1377.61,-296.5 1377.61,-296.5 1377.61,-296.5 1377.61,-179 1377.61,-138.07 1352.57,-129.55 1316.61,-110 1276.6,-88.25 1152.64,-75.42 1078.43,-69.5"/>
<polygon fill="#63b8ff" stroke="#63b8ff" points="1078.55,-65.99 1068.3,-68.71 1078,-72.97 1078.55,-65.99"/>
</a>
</g>
</g>
<!-- Node13 -->
<g id="Node000013" class="node">
<title>Node13</title>
<g id="a_Node000013"><a xlink:href="../../dc/d7c/domain__function_8hpp.html" target="_top" xlink:title="Declaration of a few implicit functions template class ready to be consumed by Algoim.">
<polygon fill="white" stroke="#666666" points="1128.61,-189.5 978.61,-189.5 978.61,-170.5 1128.61,-170.5 1128.61,-189.5"/>
<text text-anchor="middle" x="1053.61" y="-177.5" font-family="Helvetica,sans-Serif" font-size="10.00">qugar/domain_function.hpp</text>
</a>
</g>
</g>
<!-- Node1&#45;&gt;Node13 -->
<g id="edge50_Node000001_Node000013" class="edge">
<title>Node1&#45;&gt;Node13</title>
<g id="a_edge50_Node000001_Node000013"><a xlink:title=" ">
<path fill="none" stroke="#63b8ff" d="M1159.12,-406.91C1164.73,-369.49 1171.8,-286.62 1136.61,-231 1125.68,-213.73 1106.43,-201.59 1089.22,-193.6"/>
<polygon fill="#63b8ff" stroke="#63b8ff" points="1090.5,-190.34 1079.93,-189.58 1087.72,-196.76 1090.5,-190.34"/>
</a>
</g>
</g>
<!-- Node17 -->
<g id="Node000017" class="node">
<title>Node17</title>
<g id="a_Node000017"><a xlink:href="../../d6/d82/monomials__tp_8hpp.html" target="_top" xlink:title="Declaration of tensor&#45;product monomials class.">
<polygon fill="white" stroke="#666666" points="877.61,-305 739.61,-305 739.61,-286 877.61,-286 877.61,-305"/>
<text text-anchor="middle" x="808.61" y="-293" font-family="Helvetica,sans-Serif" font-size="10.00">qugar/monomials_tp.hpp</text>
</a>
</g>
</g>
<!-- Node1&#45;&gt;Node17 -->
<g id="edge52_Node000001_Node000017" class="edge">
<title>Node1&#45;&gt;Node17</title>
<g id="a_edge52_Node000001_Node000017"><a xlink:title=" ">
<path fill="none" stroke="#63b8ff" d="M1089.07,-417.91C1039.9,-409.95 972.13,-395.53 916.61,-371 881.79,-355.62 846.4,-328.57 826.03,-311.64"/>
<polygon fill="#63b8ff" stroke="#63b8ff" points="828.16,-308.86 818.26,-305.07 823.64,-314.2 828.16,-308.86"/>
</a>
</g>
</g>
<!-- Node23 -->
<g id="Node000023" class="node">
<title>Node23</title>
<g id="a_Node000023"><a xlink:title=" ">
<polygon fill="#e0e0e0" stroke="#999999" points="1127.61,-250 1069.61,-250 1069.61,-231 1127.61,-231 1127.61,-250"/>
<text text-anchor="middle" x="1098.61" y="-238" font-family="Helvetica,sans-Serif" font-size="10.00">memory</text>
</a>
</g>
</g>
<!-- Node1&#45;&gt;Node23 -->
<g id="edge61_Node000001_Node000023" class="edge">
<title>Node1&#45;&gt;Node23</title>
<g id="a_edge61_Node000001_Node000023"><a xlink:title=" ">
<path fill="none" stroke="#63b8ff" d="M1149.51,-406.7C1138.42,-370.7 1115.1,-295.02 1104.31,-260"/>
<polygon fill="#63b8ff" stroke="#63b8ff" points="1107.57,-258.69 1101.28,-250.16 1100.88,-260.75 1107.57,-258.69"/>
</a>
</g>
</g>
<!-- Node24 -->
<g id="Node000024" class="node">
<title>Node24</title>
<g id="a_Node000024"><a xlink:href="../../d5/da2/impl__funcs__lib__macros_8hpp.html" target="_top" xlink:title="Declaration of macros to ease the definition/implementation of implicit functions.">
<polygon fill="white" stroke="#666666" points="1339.61,-371 1221.61,-371 1221.61,-341 1339.61,-341 1339.61,-371"/>
<text text-anchor="start" x="1229.61" y="-359" font-family="Helvetica,sans-Serif" font-size="10.00">qugar/impl_funcs_lib</text>
<text text-anchor="middle" x="1280.61" y="-348" font-family="Helvetica,sans-Serif" font-size="10.00">_macros.hpp</text>
</a>
</g>
</g>
<!-- Node1&#45;&gt;Node24 -->
<g id="edge51_Node000001_Node000024" class="edge">
<title>Node1&#45;&gt;Node24</title>
<g id="a_edge51_Node000001_Node000024"><a xlink:title=" ">
<path fill="none" stroke="#63b8ff" d="M1190.76,-406.96C1208.06,-397.33 1228.85,-385.78 1246.07,-376.2"/>
<polygon fill="#63b8ff" stroke="#63b8ff" points="1248.19,-379.03 1255.23,-371.11 1244.78,-372.91 1248.19,-379.03"/>
</a>
</g>
</g>
<!-- Node25 -->
<g id="Node000025" class="node">
<title>Node25</title>
<g id="a_Node000025"><a xlink:href="../../db/d83/numbers_8hpp.html" target="_top" xlink:title="Declaration of constant values.">
<polygon fill="white" stroke="#666666" points="1539.11,-365.5 1428.11,-365.5 1428.11,-346.5 1539.11,-346.5 1539.11,-365.5"/>
<text text-anchor="middle" x="1483.61" y="-353.5" font-family="Helvetica,sans-Serif" font-size="10.00">qugar/numbers.hpp</text>
</a>
</g>
</g>
<!-- Node1&#45;&gt;Node25 -->
<g id="edge53_Node000001_Node000025" class="edge">
<title>Node1&#45;&gt;Node25</title>
<g id="a_edge53_Node000001_Node000025"><a xlink:title=" ">
<path fill="none" stroke="#63b8ff" d="M1222.38,-412.35C1284.8,-399.13 1376.64,-379.67 1433.15,-367.69"/>
<polygon fill="#63b8ff" stroke="#63b8ff" points="1434.22,-371.04 1443.27,-365.55 1432.77,-364.2 1434.22,-371.04"/>
</a>
</g>
</g>
<!-- Node28 -->
<g id="Node000028" class="node">
<title>Node28</title>
<g id="a_Node000028"><a xlink:href="../../d3/d41/ref__system_8hpp.html" target="_top" xlink:title="Declaration of reference system class.">
<polygon fill="white" stroke="#666666" points="146.11,-305 23.11,-305 23.11,-286 146.11,-286 146.11,-305"/>
<text text-anchor="middle" x="84.61" y="-293" font-family="Helvetica,sans-Serif" font-size="10.00">qugar/ref_system.hpp</text>
</a>
</g>
</g>
<!-- Node1&#45;&gt;Node28 -->
<g id="edge58_Node000001_Node000028" class="edge">
<title>Node1&#45;&gt;Node28</title>
<g id="a_edge58_Node000001_Node000028"><a xlink:title=" ">
<path fill="none" stroke="#63b8ff" d="M1089.02,-418.42C898.56,-395.3 352.68,-329.04 156.18,-305.19"/>
<polygon fill="#63b8ff" stroke="#63b8ff" points="156.6,-301.71 146.25,-303.98 155.75,-308.66 156.6,-301.71"/>
</a>
</g>
</g>
<!-- Node3 -->
<g id="Node000003" class="node">
<title>Node3</title>
<g id="a_Node000003"><a xlink:href="../../d5/d90/bbox_8hpp.html" target="_top" xlink:title="Definition of Cartesian bounding box class.">
<polygon fill="white" stroke="#666666" points="581.61,-189.5 489.61,-189.5 489.61,-170.5 581.61,-170.5 581.61,-189.5"/>
<text text-anchor="middle" x="535.61" y="-177.5" font-family="Helvetica,sans-Serif" font-size="10.00">qugar/bbox.hpp</text>
</a>
</g>
</g>
<!-- Node2&#45;&gt;Node3 -->
<g id="edge2_Node000002_Node000003" class="edge">
<title>Node2&#45;&gt;Node3</title>
<g id="a_edge2_Node000002_Node000003"><a xlink:title=" ">
<path fill="none" stroke="#63b8ff" d="M924.87,-347.01C824.77,-331.9 622.42,-296.42 569.61,-250 554.43,-236.66 545.32,-214.99 540.4,-199.5"/>
<polygon fill="#63b8ff" stroke="#63b8ff" points="543.66,-198.16 537.54,-189.51 536.93,-200.09 543.66,-198.16"/>
</a>
</g>
</g>
<!-- Node2&#45;&gt;Node6 -->
<g id="edge46_Node000002_Node000006" class="edge">
<title>Node2&#45;&gt;Node6</title>
<g id="a_edge46_Node000002_Node000006"><a xlink:title=" ">
<path fill="none" stroke="#63b8ff" d="M1007.85,-346.42C1072.89,-323.52 1240.67,-254.03 1301.61,-129 1305.31,-121.41 1307.09,-116.42 1301.61,-110 1273.5,-77.09 1152.18,-68.38 1078.45,-66.17"/>
<polygon fill="#63b8ff" stroke="#63b8ff" points="1078.46,-62.67 1068.37,-65.89 1078.27,-69.66 1078.46,-62.67"/>
</a>
</g>
</g>
<!-- Node10 -->
<g id="Node000010" class="node">
<title>Node10</title>
<g id="a_Node000010"><a xlink:title=" ">
<polygon fill="#e0e0e0" stroke="#999999" points="94.11,-74 47.11,-74 47.11,-55 94.11,-55 94.11,-74"/>
<text text-anchor="middle" x="70.61" y="-62" font-family="Helvetica,sans-Serif" font-size="10.00">vector</text>
</a>
</g>
</g>
<!-- Node2&#45;&gt;Node10 -->
<g id="edge49_Node000002_Node000010" class="edge">
<title>Node2&#45;&gt;Node10</title>
<g id="a_edge49_Node000002_Node000010"><a xlink:title=" ">
<path fill="none" stroke="#63b8ff" d="M924.86,-350.91C754.14,-337.62 249.12,-290.9 119.61,-195 91.28,-174.02 87.14,-162.31 75.61,-129 70.63,-114.61 69.56,-97.34 69.63,-84.44"/>
<polygon fill="#63b8ff" stroke="#63b8ff" points="73.13,-84.51 69.92,-74.41 66.13,-84.31 73.13,-84.51"/>
</a>
</g>
</g>
<!-- Node2&#45;&gt;Node13 -->
<g id="edge15_Node000002_Node000013" class="edge">
<title>Node2&#45;&gt;Node13</title>
<g id="a_edge15_Node000002_Node000013"><a xlink:title=" ">
<path fill="none" stroke="#63b8ff" d="M989.24,-346.38C997.31,-336.86 1009.93,-320.77 1017.61,-305 1034.8,-269.7 1045.32,-224.65 1050.25,-199.72"/>
<polygon fill="#63b8ff" stroke="#63b8ff" points="1053.71,-200.27 1052.13,-189.79 1046.83,-198.97 1053.71,-200.27"/>
</a>
</g>
</g>
<!-- Node2&#45;&gt;Node17 -->
<g id="edge22_Node000002_Node000017" class="edge">
<title>Node2&#45;&gt;Node17</title>
<g id="a_edge22_Node000002_Node000017"><a xlink:title=" ">
<path fill="none" stroke="#63b8ff" d="M956.45,-346.49C926.73,-336.44 877.09,-319.66 843.62,-308.34"/>
<polygon fill="#63b8ff" stroke="#63b8ff" points="844.39,-304.9 833.79,-305.02 842.15,-311.54 844.39,-304.9"/>
</a>
</g>
</g>
<!-- Node18 -->
<g id="Node000018" class="node">
<title>Node18</title>
<g id="a_Node000018"><a xlink:href="../../d2/dee/polynomial__tp_8hpp.html" target="_top" xlink:title="Declaration of tensor&#45;product polynomial class.">
<polygon fill="white" stroke="#666666" points="777.61,-250 639.61,-250 639.61,-231 777.61,-231 777.61,-250"/>
<text text-anchor="middle" x="708.61" y="-238" font-family="Helvetica,sans-Serif" font-size="10.00">qugar/polynomial_tp.hpp</text>
</a>
</g>
</g>
<!-- Node2&#45;&gt;Node18 -->
<g id="edge44_Node000002_Node000018" class="edge">
<title>Node2&#45;&gt;Node18</title>
<g id="a_edge44_Node000002_Node000018"><a xlink:title=" ">
<path fill="none" stroke="#63b8ff" d="M972.41,-346.41C956.29,-331.82 921.34,-302.2 886.61,-286 851.67,-269.7 809.97,-258.86 775.72,-251.97"/>
<polygon fill="#63b8ff" stroke="#63b8ff" points="776.29,-248.51 765.81,-250.04 774.96,-255.39 776.29,-248.51"/>
</a>
</g>
</g>
<!-- Node19 -->
<g id="Node000019" class="node">
<title>Node19</title>
<g id="a_Node000019"><a xlink:href="../../d9/d43/tensor__index__tp_8hpp.html" target="_top" xlink:title="Declaration of tensor&#45;product index and size related classes.">
<polygon fill="white" stroke="#666666" points="872.61,-195 762.61,-195 762.61,-165 872.61,-165 872.61,-195"/>
<text text-anchor="start" x="770.61" y="-183" font-family="Helvetica,sans-Serif" font-size="10.00">qugar/tensor_index</text>
<text text-anchor="middle" x="817.61" y="-172" font-family="Helvetica,sans-Serif" font-size="10.00">_tp.hpp</text>
</a>
</g>
</g>
<!-- Node2&#45;&gt;Node19 -->
<g id="edge45_Node000002_Node000019" class="edge">
<title>Node2&#45;&gt;Node19</title>
<g id="a_edge45_Node000002_Node000019"><a xlink:title=" ">
<path fill="none" stroke="#63b8ff" d="M985.06,-346.41C993.19,-324.62 1010.97,-266.41 984.61,-231 961.32,-199.71 919.15,-187.25 883.01,-182.6"/>
<polygon fill="#63b8ff" stroke="#63b8ff" points="883.33,-179.11 873,-181.48 882.55,-186.07 883.33,-179.11"/>
</a>
</g>
</g>
<!-- Node22 -->
<g id="Node000022" class="node">
<title>Node22</title>
<g id="a_Node000022"><a xlink:title=" ">
<polygon fill="#e0e0e0" stroke="#999999" points="975.61,-250 871.61,-250 871.61,-231 975.61,-231 975.61,-250"/>
<text text-anchor="middle" x="923.61" y="-238" font-family="Helvetica,sans-Serif" font-size="10.00">algoim/xarray.hpp</text>
</a>
</g>
</g>
<!-- Node2&#45;&gt;Node22 -->
<g id="edge47_Node000002_Node000022" class="edge">
<title>Node2&#45;&gt;Node22</title>
<g id="a_edge47_Node000002_Node000022"><a xlink:title=" ">
<path fill="none" stroke="#63b8ff" d="M977.25,-346.47C967.8,-327.98 945.27,-283.9 932.62,-259.14"/>
<polygon fill="#63b8ff" stroke="#63b8ff" points="935.68,-257.44 928.02,-250.13 929.45,-260.63 935.68,-257.44"/>
</a>
</g>
</g>
<!-- Node2&#45;&gt;Node23 -->
<g id="edge48_Node000002_Node000023" class="edge">
<title>Node2&#45;&gt;Node23</title>
<g id="a_edge48_Node000002_Node000023"><a xlink:title=" ">
<path fill="none" stroke="#63b8ff" d="M997.92,-346.41C1013.84,-337.49 1038.17,-322.42 1055.61,-305 1069.4,-291.22 1081.49,-272.42 1089.3,-258.86"/>
<polygon fill="#63b8ff" stroke="#63b8ff" points="1092.4,-260.5 1094.2,-250.06 1086.28,-257.09 1092.4,-260.5"/>
</a>
</g>
</g>
<!-- Node4 -->
<g id="Node000004" class="node">
<title>Node4</title>
<g id="a_Node000004"><a xlink:href="../../d7/dd8/concepts_8hpp.html" target="_top" xlink:title="Declaration of concepts.">
<polygon fill="white" stroke="#666666" points="545.61,-129 433.61,-129 433.61,-110 545.61,-110 545.61,-129"/>
<text text-anchor="middle" x="489.61" y="-117" font-family="Helvetica,sans-Serif" font-size="10.00">qugar/concepts.hpp</text>
</a>
</g>
</g>
<!-- Node3&#45;&gt;Node4 -->
<g id="edge3_Node000003_Node000004" class="edge">
<title>Node3&#45;&gt;Node4</title>
<g id="a_edge3_Node000003_Node000004"><a xlink:title=" ">
<path fill="none" stroke="#63b8ff" d="M528.82,-170.37C521.96,-161.64 511.18,-147.93 502.66,-137.09"/>
<polygon fill="#63b8ff" stroke="#63b8ff" points="505.36,-134.86 496.42,-129.17 499.85,-139.19 505.36,-134.86"/>
</a>
</g>
</g>
<!-- Node3&#45;&gt;Node5 -->
<g id="edge4_Node000003_Node000005" class="edge">
<title>Node3&#45;&gt;Node5</title>
<g id="a_edge4_Node000003_Node000005"><a xlink:title=" ">
<path fill="none" stroke="#63b8ff" d="M489.37,-171.71C421.38,-160.99 294.56,-140.99 221.13,-129.41"/>
<polygon fill="#63b8ff" stroke="#63b8ff" points="221.56,-125.94 211.14,-127.84 220.47,-132.85 221.56,-125.94"/>
</a>
</g>
</g>
<!-- Node3&#45;&gt;Node6 -->
<g id="edge11_Node000003_Node000006" class="edge">
<title>Node3&#45;&gt;Node6</title>
<g id="a_edge11_Node000003_Node000006"><a xlink:title=" ">
<path fill="none" stroke="#63b8ff" d="M540.4,-170.36C549.38,-155.13 570.3,-123.81 597.61,-110 667.97,-74.4 867.77,-83.32 963.06,-73.88"/>
<polygon fill="#63b8ff" stroke="#63b8ff" points="963.49,-77.36 973.05,-72.77 962.72,-70.4 963.49,-77.36"/>
</a>
</g>
</g>
<!-- Node7 -->
<g id="Node000007" class="node">
<title>Node7</title>
<g id="a_Node000007"><a xlink:title=" ">
<polygon fill="#e0e0e0" stroke="#999999" points="549.11,-19 496.11,-19 496.11,0 549.11,0 549.11,-19"/>
<text text-anchor="middle" x="522.61" y="-7" font-family="Helvetica,sans-Serif" font-size="10.00">cstddef</text>
</a>
</g>
</g>
<!-- Node3&#45;&gt;Node7 -->
<g id="edge14_Node000003_Node000007" class="edge">
<title>Node3&#45;&gt;Node7</title>
<g id="a_edge14_Node000003_Node000007"><a xlink:title=" ">
<path fill="none" stroke="#63b8ff" d="M489.53,-172.25C412.68,-160.77 265.99,-137.84 258.61,-129 192.98,-50.47 398.98,-21.88 485.86,-13.48"/>
<polygon fill="#63b8ff" stroke="#63b8ff" points="486.21,-16.97 495.84,-12.56 485.56,-10 486.21,-16.97"/>
</a>
</g>
</g>
<!-- Node11 -->
<g id="Node000011" class="node">
<title>Node11</title>
<g id="a_Node000011"><a xlink:title=" ">
<polygon fill="#e0e0e0" stroke="#999999" points="415.61,-129 267.61,-129 267.61,-110 415.61,-110 415.61,-129"/>
<text text-anchor="middle" x="341.61" y="-117" font-family="Helvetica,sans-Serif" font-size="10.00">algoim/hyperrectangle.hpp</text>
</a>
</g>
</g>
<!-- Node3&#45;&gt;Node11 -->
<g id="edge12_Node000003_Node000011" class="edge">
<title>Node3&#45;&gt;Node11</title>
<g id="a_edge12_Node000003_Node000011"><a xlink:title=" ">
<path fill="none" stroke="#63b8ff" d="M507.4,-170.49C473.63,-160.31 416.96,-143.22 379.43,-131.9"/>
<polygon fill="#63b8ff" stroke="#63b8ff" points="380.44,-128.55 369.85,-129.02 378.41,-135.25 380.44,-128.55"/>
</a>
</g>
</g>
<!-- Node12 -->
<g id="Node000012" class="node">
<title>Node12</title>
<g id="a_Node000012"><a xlink:title=" ">
<polygon fill="#e0e0e0" stroke="#999999" points="719.61,-129 677.61,-129 677.61,-110 719.61,-110 719.61,-129"/>
<text text-anchor="middle" x="698.61" y="-117" font-family="Helvetica,sans-Serif" font-size="10.00">array</text>
</a>
</g>
</g>
<!-- Node3&#45;&gt;Node12 -->
<g id="edge13_Node000003_Node000012" class="edge">
<title>Node3&#45;&gt;Node12</title>
<g id="a_edge13_Node000003_Node000012"><a xlink:title=" ">
<path fill="none" stroke="#63b8ff" d="M559.31,-170.49C587.99,-160.2 636.35,-142.84 667.87,-131.53"/>
<polygon fill="#63b8ff" stroke="#63b8ff" points="669.24,-134.76 677.47,-128.09 666.88,-128.17 669.24,-134.76"/>
</a>
</g>
</g>
<!-- Node5&#45;&gt;Node6 -->
<g id="edge5_Node000005_Node000006" class="edge">
<title>Node5&#45;&gt;Node6</title>
<g id="a_edge5_Node000005_Node000006"><a xlink:title=" ">
<path fill="none" stroke="#63b8ff" d="M211.44,-113.9C226.49,-112.52 243.24,-111.09 258.61,-110 568.21,-88.11 649.68,-104.81 962.78,-73.96"/>
<polygon fill="#63b8ff" stroke="#63b8ff" points="963.46,-77.41 973.07,-72.94 962.77,-70.45 963.46,-77.41"/>
</a>
</g>
</g>
<!-- Node5&#45;&gt;Node7 -->
<g id="edge9_Node000005_Node000007" class="edge">
<title>Node5&#45;&gt;Node7</title>
<g id="a_edge9_Node000005_Node000007"><a xlink:title=" ">
<path fill="none" stroke="#63b8ff" d="M170.13,-109.78C179.59,-95.66 200.35,-68.06 225.61,-55 270.32,-31.89 416.55,-18.32 485.71,-13.05"/>
<polygon fill="#63b8ff" stroke="#63b8ff" points="486.02,-16.54 495.73,-12.31 485.5,-9.56 486.02,-16.54"/>
</a>
</g>
</g>
<!-- Node8 -->
<g id="Node000008" class="node">
<title>Node8</title>
<g id="a_Node000008"><a xlink:href="../../da/d16/vector_8hpp.html" target="_top" xlink:title=" ">
<polygon fill="white" stroke="#666666" points="954.61,-74 856.61,-74 856.61,-55 954.61,-55 954.61,-74"/>
<text text-anchor="middle" x="905.61" y="-62" font-family="Helvetica,sans-Serif" font-size="10.00">qugar/vector.hpp</text>
</a>
</g>
</g>
<!-- Node5&#45;&gt;Node8 -->
<g id="edge7_Node000005_Node000008" class="edge">
<title>Node5&#45;&gt;Node8</title>
<g id="a_edge7_Node000005_Node000008"><a xlink:title=" ">
<path fill="none" stroke="#63b8ff" d="M211.45,-114.06C226.5,-112.69 243.25,-111.22 258.61,-110 474.93,-92.78 732.25,-76.27 846.23,-69.16"/>
<polygon fill="#63b8ff" stroke="#63b8ff" points="846.71,-72.63 856.48,-68.52 846.28,-65.65 846.71,-72.63"/>
</a>
</g>
</g>
<!-- Node5&#45;&gt;Node10 -->
<g id="edge10_Node000005_Node000010" class="edge">
<title>Node5&#45;&gt;Node10</title>
<g id="a_edge10_Node000005_Node000010"><a xlink:title=" ">
<path fill="none" stroke="#63b8ff" d="M149.51,-109.98C134.79,-101.69 112.18,-88.94 94.93,-79.22"/>
<polygon fill="#63b8ff" stroke="#63b8ff" points="96.42,-76.03 85.99,-74.17 92.98,-82.13 96.42,-76.03"/>
</a>
</g>
</g>
<!-- Node6&#45;&gt;Node7 -->
<g id="edge6_Node000006_Node000007" class="edge">
<title>Node6&#45;&gt;Node7</title>
<g id="a_edge6_Node000006_Node000007"><a xlink:title=" ">
<path fill="none" stroke="#63b8ff" d="M973.05,-56.23C969.85,-55.8 966.69,-55.38 963.61,-55 813.92,-36.3 634.89,-20.14 559.23,-13.6"/>
<polygon fill="#63b8ff" stroke="#63b8ff" points="559.52,-10.11 549.25,-12.74 558.92,-17.09 559.52,-10.11"/>
</a>
</g>
</g>
<!-- Node9 -->
<g id="Node000009" class="node">
<title>Node9</title>
<g id="a_Node000009"><a xlink:title=" ">
<polygon fill="#e0e0e0" stroke="#999999" points="960.61,-19 850.61,-19 850.61,0 960.61,0 960.61,-19"/>
<text text-anchor="middle" x="905.61" y="-7" font-family="Helvetica,sans-Serif" font-size="10.00">algoim/uvector.hpp</text>
</a>
</g>
</g>
<!-- Node8&#45;&gt;Node9 -->
<g id="edge8_Node000008_Node000009" class="edge">
<title>Node8&#45;&gt;Node9</title>
<g id="a_edge8_Node000008_Node000009"><a xlink:title=" ">
<path fill="none" stroke="#63b8ff" d="M905.61,-54.75C905.61,-47.8 905.61,-37.85 905.61,-29.13"/>
<polygon fill="#63b8ff" stroke="#63b8ff" points="909.11,-29.09 905.61,-19.09 902.11,-29.09 909.11,-29.09"/>
</a>
</g>
</g>
<!-- Node13&#45;&gt;Node5 -->
<g id="edge17_Node000013_Node000005" class="edge">
<title>Node13&#45;&gt;Node5</title>
<g id="a_edge17_Node000013_Node000005"><a xlink:title=" ">
<path fill="none" stroke="#63b8ff" d="M978.28,-172.48C948.22,-169.98 913.29,-167.2 881.61,-165 604.93,-145.75 535.2,-149.49 258.61,-129 246.61,-128.11 233.76,-127.03 221.53,-125.95"/>
<polygon fill="#63b8ff" stroke="#63b8ff" points="221.71,-122.45 211.44,-125.04 221.09,-129.42 221.71,-122.45"/>
</a>
</g>
</g>
<!-- Node13&#45;&gt;Node6 -->
<g id="edge16_Node000013_Node000006" class="edge">
<title>Node13&#45;&gt;Node6</title>
<g id="a_edge16_Node000013_Node000006"><a xlink:title=" ">
<path fill="none" stroke="#63b8ff" d="M1053.89,-170.26C1054.07,-156.92 1053.4,-130.84 1046.61,-110 1043.46,-100.34 1037.99,-90.49 1032.87,-82.53"/>
<polygon fill="#63b8ff" stroke="#63b8ff" points="1035.71,-80.47 1027.2,-74.16 1029.92,-84.4 1035.71,-80.47"/>
</a>
</g>
</g>
<!-- Node13&#45;&gt;Node8 -->
<g id="edge18_Node000013_Node000008" class="edge">
<title>Node13&#45;&gt;Node8</title>
<g id="a_edge18_Node000013_Node000008"><a xlink:title=" ">
<path fill="none" stroke="#63b8ff" d="M1128.96,-178.72C1212.53,-175.88 1329.77,-162.8 1282.61,-110 1237.13,-59.08 1050.92,-81.11 965.05,-73.78"/>
<polygon fill="#63b8ff" stroke="#63b8ff" points="965.16,-70.28 954.85,-72.71 964.43,-77.24 965.16,-70.28"/>
</a>
</g>
</g>
<!-- Node14 -->
<g id="Node000014" class="node">
<title>Node14</title>
<g id="a_Node000014"><a xlink:title=" ">
<polygon fill="#e0e0e0" stroke="#999999" points="1205.61,-129 1093.61,-129 1093.61,-110 1205.61,-110 1205.61,-129"/>
<text text-anchor="middle" x="1149.61" y="-117" font-family="Helvetica,sans-Serif" font-size="10.00">algoim/interval.hpp</text>
</a>
</g>
</g>
<!-- Node13&#45;&gt;Node14 -->
<g id="edge19_Node000013_Node000014" class="edge">
<title>Node13&#45;&gt;Node14</title>
<g id="a_edge19_Node000013_Node000014"><a xlink:title=" ">
<path fill="none" stroke="#63b8ff" d="M1067.77,-170.37C1083.3,-160.91 1108.44,-145.59 1126.76,-134.42"/>
<polygon fill="#63b8ff" stroke="#63b8ff" points="1128.67,-137.36 1135.38,-129.17 1125.02,-131.38 1128.67,-137.36"/>
</a>
</g>
</g>
<!-- Node15 -->
<g id="Node000015" class="node">
<title>Node15</title>
<g id="a_Node000015"><a xlink:title=" ">
<polygon fill="#e0e0e0" stroke="#999999" points="1273.61,-129 1223.61,-129 1223.61,-110 1273.61,-110 1273.61,-129"/>
<text text-anchor="middle" x="1248.61" y="-117" font-family="Helvetica,sans-Serif" font-size="10.00">cstdint</text>
</a>
</g>
</g>
<!-- Node13&#45;&gt;Node15 -->
<g id="edge20_Node000013_Node000015" class="edge">
<title>Node13&#45;&gt;Node15</title>
<g id="a_edge20_Node000013_Node000015"><a xlink:title=" ">
<path fill="none" stroke="#63b8ff" d="M1081.96,-170.49C1116.72,-160.07 1175.64,-142.39 1213.3,-131.09"/>
<polygon fill="#63b8ff" stroke="#63b8ff" points="1214.75,-134.31 1223.32,-128.09 1212.74,-127.61 1214.75,-134.31"/>
</a>
</g>
</g>
<!-- Node16 -->
<g id="Node000016" class="node">
<title>Node16</title>
<g id="a_Node000016"><a xlink:title=" ">
<polygon fill="#e0e0e0" stroke="#999999" points="1037.11,-129 968.11,-129 968.11,-110 1037.11,-110 1037.11,-129"/>
<text text-anchor="middle" x="1002.61" y="-117" font-family="Helvetica,sans-Serif" font-size="10.00">type_traits</text>
</a>
</g>
</g>
<!-- Node13&#45;&gt;Node16 -->
<g id="edge21_Node000013_Node000016" class="edge">
<title>Node13&#45;&gt;Node16</title>
<g id="a_edge21_Node000013_Node000016"><a xlink:title=" ">
<path fill="none" stroke="#63b8ff" d="M1046.08,-170.37C1038.4,-161.55 1026.28,-147.66 1016.79,-136.77"/>
<polygon fill="#63b8ff" stroke="#63b8ff" points="1019.37,-134.41 1010.16,-129.17 1014.1,-139.01 1019.37,-134.41"/>
</a>
</g>
</g>
<!-- Node17&#45;&gt;Node3 -->
<g id="edge23_Node000017_Node000003" class="edge">
<title>Node17&#45;&gt;Node3</title>
<g id="a_edge23_Node000017_Node000003"><a xlink:title=" ">
<path fill="none" stroke="#63b8ff" d="M739.15,-290.79C696,-285.92 640.74,-274.88 597.61,-250 575.69,-237.35 557.31,-214.23 546.39,-198.26"/>
<polygon fill="#63b8ff" stroke="#63b8ff" points="549.27,-196.26 540.86,-189.82 543.41,-200.1 549.27,-196.26"/>
</a>
</g>
</g>
<!-- Node17&#45;&gt;Node6 -->
<g id="edge40_Node000017_Node000006" class="edge">
<title>Node17&#45;&gt;Node6</title>
<g id="a_edge40_Node000017_Node000006"><a xlink:title=" ">
<path fill="none" stroke="#63b8ff" d="M739.59,-286.05C695.54,-279.07 644.23,-267.45 630.61,-250 617.26,-232.91 584.8,-174.45 654.61,-110 703.32,-65.03 879.75,-81.57 962.9,-73.84"/>
<polygon fill="#63b8ff" stroke="#63b8ff" points="963.49,-77.3 973.04,-72.71 962.71,-70.34 963.49,-77.3"/>
</a>
</g>
</g>
<!-- Node17&#45;&gt;Node10 -->
<g id="edge43_Node000017_Node000010" class="edge">
<title>Node17&#45;&gt;Node10</title>
<g id="a_edge43_Node000017_Node000010"><a xlink:title=" ">
<path fill="none" stroke="#63b8ff" d="M739.32,-292.72C622.23,-287.68 379.44,-268.43 189.61,-195 139.6,-175.65 120.38,-172.2 88.61,-129 78.96,-115.87 74.47,-97.74 72.39,-84.21"/>
<polygon fill="#63b8ff" stroke="#63b8ff" points="75.85,-83.64 71.15,-74.14 68.9,-84.49 75.85,-83.64"/>
</a>
</g>
</g>
<!-- Node17&#45;&gt;Node13 -->
<g id="edge24_Node000017_Node000013" class="edge">
<title>Node17&#45;&gt;Node13</title>
<g id="a_edge24_Node000017_Node000013"><a xlink:title=" ">
<path fill="none" stroke="#63b8ff" d="M813.67,-285.62C822.03,-271.77 840.06,-245.17 862.61,-231 894.7,-210.83 934.71,-198.76 969.8,-191.55"/>
<polygon fill="#63b8ff" stroke="#63b8ff" points="970.89,-194.9 980.04,-189.55 969.56,-188.03 970.89,-194.9"/>
</a>
</g>
</g>
<!-- Node17&#45;&gt;Node18 -->
<g id="edge25_Node000017_Node000018" class="edge">
<title>Node17&#45;&gt;Node18</title>
<g id="a_edge25_Node000017_Node000018"><a xlink:title=" ">
<path fill="none" stroke="#63b8ff" d="M792.54,-285.98C776.74,-277.61 752.39,-264.7 733.98,-254.95"/>
<polygon fill="#63b8ff" stroke="#63b8ff" points="735.44,-251.76 724.97,-250.17 732.16,-257.95 735.44,-251.76"/>
</a>
</g>
</g>
<!-- Node17&#45;&gt;Node19 -->
<g id="edge39_Node000017_Node000019" class="edge">
<title>Node17&#45;&gt;Node19</title>
<g id="a_edge39_Node000017_Node000019"><a xlink:title=" ">
<path fill="none" stroke="#63b8ff" d="M809.28,-285.97C810.62,-269.08 813.66,-230.85 815.67,-205.48"/>
<polygon fill="#63b8ff" stroke="#63b8ff" points="819.18,-205.43 816.48,-195.18 812.2,-204.87 819.18,-205.43"/>
</a>
</g>
</g>
<!-- Node17&#45;&gt;Node22 -->
<g id="edge41_Node000017_Node000022" class="edge">
<title>Node17&#45;&gt;Node22</title>
<g id="a_edge41_Node000017_Node000022"><a xlink:title=" ">
<path fill="none" stroke="#63b8ff" d="M827.08,-285.98C845.58,-277.46 874.29,-264.23 895.59,-254.41"/>
<polygon fill="#63b8ff" stroke="#63b8ff" points="897.18,-257.53 904.79,-250.17 894.25,-251.18 897.18,-257.53"/>
</a>
</g>
</g>
<!-- Node17&#45;&gt;Node23 -->
<g id="edge42_Node000017_Node000023" class="edge">
<title>Node17&#45;&gt;Node23</title>
<g id="a_edge42_Node000017_Node000023"><a xlink:title=" ">
<path fill="none" stroke="#63b8ff" d="M855.2,-285.98C911.79,-275.64 1006.24,-258.38 1059.31,-248.68"/>
<polygon fill="#63b8ff" stroke="#63b8ff" points="1060.15,-252.09 1069.35,-246.85 1058.89,-245.2 1060.15,-252.09"/>
</a>
</g>
</g>
<!-- Node18&#45;&gt;Node3 -->
<g id="edge26_Node000018_Node000003" class="edge">
<title>Node18&#45;&gt;Node3</title>
<g id="a_edge26_Node000018_Node000003"><a xlink:title=" ">
<path fill="none" stroke="#63b8ff" d="M683.45,-230.99C653.73,-220.94 604.09,-204.16 570.62,-192.84"/>
<polygon fill="#63b8ff" stroke="#63b8ff" points="571.39,-189.4 560.79,-189.52 569.15,-196.04 571.39,-189.4"/>
</a>
</g>
</g>
<!-- Node18&#45;&gt;Node5 -->
<g id="edge28_Node000018_Node000005" class="edge">
<title>Node18&#45;&gt;Node5</title>
<g id="a_edge28_Node000018_Node000005"><a xlink:title=" ">
<path fill="none" stroke="#63b8ff" d="M662.21,-230.99C616.07,-222.4 543.3,-208.5 480.61,-195 383.46,-174.08 270.25,-146.64 209.17,-131.58"/>
<polygon fill="#63b8ff" stroke="#63b8ff" points="209.66,-128.1 199.11,-129.1 207.98,-134.89 209.66,-128.1"/>
</a>
</g>
</g>
<!-- Node18&#45;&gt;Node6 -->
<g id="edge36_Node000018_Node000006" class="edge">
<title>Node18&#45;&gt;Node6</title>
<g id="a_edge36_Node000018_Node000006"><a xlink:title=" ">
<path fill="none" stroke="#63b8ff" d="M700.95,-230.76C681.96,-208.03 636.47,-146.29 668.61,-110 710.51,-62.68 882.46,-81.09 962.79,-73.83"/>
<polygon fill="#63b8ff" stroke="#63b8ff" points="963.48,-77.28 973.04,-72.69 962.71,-70.32 963.48,-77.28"/>
</a>
</g>
</g>
<!-- Node18&#45;&gt;Node10 -->
<g id="edge38_Node000018_Node000010" class="edge">
<title>Node18&#45;&gt;Node10</title>
<g id="a_edge38_Node000018_Node000010"><a xlink:title=" ">
<path fill="none" stroke="#63b8ff" d="M639.49,-234.46C500.29,-223.11 192.44,-191.5 109.61,-129 94.32,-117.46 83.67,-98.03 77.41,-83.69"/>
<polygon fill="#63b8ff" stroke="#63b8ff" points="80.62,-82.3 73.62,-74.34 74.13,-84.92 80.62,-82.3"/>
</a>
</g>
</g>
<!-- Node18&#45;&gt;Node13 -->
<g id="edge27_Node000018_Node000013" class="edge">
<title>Node18&#45;&gt;Node13</title>
<g id="a_edge27_Node000018_Node000013"><a xlink:title=" ">
<path fill="none" stroke="#63b8ff" d="M758.77,-230.99C820.99,-220.44 926.95,-202.48 993.46,-191.2"/>
<polygon fill="#63b8ff" stroke="#63b8ff" points="994.11,-194.64 1003.38,-189.52 992.94,-187.74 994.11,-194.64"/>
</a>
</g>
</g>
<!-- Node18&#45;&gt;Node19 -->
<g id="edge29_Node000018_Node000019" class="edge">
<title>Node18&#45;&gt;Node19</title>
<g id="a_edge29_Node000018_Node000019"><a xlink:title=" ">
<path fill="none" stroke="#63b8ff" d="M724.69,-230.87C739.82,-222.75 763,-210.31 782.41,-199.89"/>
<polygon fill="#63b8ff" stroke="#63b8ff" points="784.15,-202.93 791.31,-195.11 780.84,-196.76 784.15,-202.93"/>
</a>
</g>
</g>
<!-- Node20 -->
<g id="Node000020" class="node">
<title>Node20</title>
<g id="a_Node000020"><a xlink:title=" ">
<polygon fill="#e0e0e0" stroke="#999999" points="789.61,-129 737.61,-129 737.61,-110 789.61,-110 789.61,-129"/>
<text text-anchor="middle" x="763.61" y="-117" font-family="Helvetica,sans-Serif" font-size="10.00">cassert</text>
</a>
</g>
</g>
<!-- Node18&#45;&gt;Node20 -->
<g id="edge37_Node000018_Node000020" class="edge">
<title>Node18&#45;&gt;Node20</title>
<g id="a_edge37_Node000018_Node000020"><a xlink:title=" ">
<path fill="none" stroke="#63b8ff" d="M712.56,-230.94C721.48,-211.65 743.3,-164.44 755.32,-138.43"/>
<polygon fill="#63b8ff" stroke="#63b8ff" points="758.52,-139.85 759.54,-129.3 752.17,-136.91 758.52,-139.85"/>
</a>
</g>
</g>
<!-- Node19&#45;&gt;Node7 -->
<g id="edge33_Node000019_Node000007" class="edge">
<title>Node19&#45;&gt;Node7</title>
<g id="a_edge33_Node000019_Node000007"><a xlink:title=" ">
<path fill="none" stroke="#63b8ff" d="M817.39,-164.75C816.4,-149.36 812.53,-125.05 798.61,-110 734.47,-40.71 618.51,-19.59 559.4,-13.22"/>
<polygon fill="#63b8ff" stroke="#63b8ff" points="559.69,-9.73 549.39,-12.22 558.99,-16.7 559.69,-9.73"/>
</a>
</g>
</g>
<!-- Node19&#45;&gt;Node8 -->
<g id="edge30_Node000019_Node000008" class="edge">
<title>Node19&#45;&gt;Node8</title>
<g id="a_edge30_Node000019_Node000008"><a xlink:title=" ">
<path fill="none" stroke="#63b8ff" d="M872.63,-165.25C891.13,-157.72 909.79,-146.27 920.61,-129 929.32,-115.09 923.37,-96.6 916.56,-83.15"/>
<polygon fill="#63b8ff" stroke="#63b8ff" points="919.59,-81.41 911.65,-74.4 913.49,-84.83 919.59,-81.41"/>
</a>
</g>
</g>
<!-- Node19&#45;&gt;Node12 -->
<g id="edge31_Node000019_Node000012" class="edge">
<title>Node19&#45;&gt;Node12</title>
<g id="a_edge31_Node000019_Node000012"><a xlink:title=" ">
<path fill="none" stroke="#63b8ff" d="M789.1,-164.99C769.69,-155.45 744.18,-142.9 725.19,-133.57"/>
<polygon fill="#63b8ff" stroke="#63b8ff" points="726.7,-130.41 716.18,-129.14 723.61,-136.69 726.7,-130.41"/>
</a>
</g>
</g>
<!-- Node19&#45;&gt;Node16 -->
<g id="edge35_Node000019_Node000016" class="edge">
<title>Node19&#45;&gt;Node16</title>
<g id="a_edge35_Node000019_Node000016"><a xlink:title=" ">
<path fill="none" stroke="#63b8ff" d="M861.92,-164.99C893.71,-154.94 936.03,-141.55 965.93,-132.1"/>
<polygon fill="#63b8ff" stroke="#63b8ff" points="967.08,-135.41 975.56,-129.05 964.97,-128.73 967.08,-135.41"/>
</a>
</g>
</g>
<!-- Node19&#45;&gt;Node20 -->
<g id="edge32_Node000019_Node000020" class="edge">
<title>Node19&#45;&gt;Node20</title>
<g id="a_edge32_Node000019_Node000020"><a xlink:title=" ">
<path fill="none" stroke="#63b8ff" d="M804.54,-164.84C796.7,-156.35 786.7,-145.52 778.55,-136.69"/>
<polygon fill="#63b8ff" stroke="#63b8ff" points="781.05,-134.24 771.7,-129.27 775.91,-138.99 781.05,-134.24"/>
</a>
</g>
</g>
<!-- Node21 -->
<g id="Node000021" class="node">
<title>Node21</title>
<g id="a_Node000021"><a xlink:title=" ">
<polygon fill="#e0e0e0" stroke="#999999" points="911.11,-129 846.11,-129 846.11,-110 911.11,-110 911.11,-129"/>
<text text-anchor="middle" x="878.61" y="-117" font-family="Helvetica,sans-Serif" font-size="10.00">functional</text>
</a>
</g>
</g>
<!-- Node19&#45;&gt;Node21 -->
<g id="edge34_Node000019_Node000021" class="edge">
<title>Node19&#45;&gt;Node21</title>
<g id="a_edge34_Node000019_Node000021"><a xlink:title=" ">
<path fill="none" stroke="#63b8ff" d="M832.37,-164.84C841.32,-156.26 852.75,-145.3 862.01,-136.42"/>
<polygon fill="#63b8ff" stroke="#63b8ff" points="864.67,-138.71 869.47,-129.27 859.83,-133.66 864.67,-138.71"/>
</a>
</g>
</g>
<!-- Node25&#45;&gt;Node6 -->
<g id="edge54_Node000025_Node000006" class="edge">
<title>Node25&#45;&gt;Node6</title>
<g id="a_edge54_Node000025_Node000006"><a xlink:title=" ">
<path fill="none" stroke="#63b8ff" d="M1495.9,-346.45C1507.94,-337.45 1525.98,-322.23 1536.61,-305 1552.07,-279.93 1555.61,-270.96 1555.61,-241.5 1555.61,-241.5 1555.61,-241.5 1555.61,-179 1555.61,-82.32 1217.03,-67.63 1078.57,-65.67"/>
<polygon fill="#63b8ff" stroke="#63b8ff" points="1078.6,-62.17 1068.56,-65.54 1078.51,-69.17 1078.6,-62.17"/>
</a>
</g>
</g>
<!-- Node26 -->
<g id="Node000026" class="node">
<title>Node26</title>
<g id="a_Node000026"><a xlink:title=" ">
<polygon fill="#e0e0e0" stroke="#999999" points="1527.61,-305 1483.61,-305 1483.61,-286 1527.61,-286 1527.61,-305"/>
<text text-anchor="middle" x="1505.61" y="-293" font-family="Helvetica,sans-Serif" font-size="10.00">limits</text>
</a>
</g>
</g>
<!-- Node25&#45;&gt;Node26 -->
<g id="edge55_Node000025_Node000026" class="edge">
<title>Node25&#45;&gt;Node26</title>
<g id="a_edge55_Node000025_Node000026"><a xlink:title=" ">
<path fill="none" stroke="#63b8ff" d="M1486.85,-346.37C1489.97,-338.07 1494.79,-325.28 1498.75,-314.72"/>
<polygon fill="#63b8ff" stroke="#63b8ff" points="1502.1,-315.76 1502.35,-305.17 1495.55,-313.3 1502.1,-315.76"/>
</a>
</g>
</g>
<!-- Node27 -->
<g id="Node000027" class="node">
<title>Node27</title>
<g id="a_Node000027"><a xlink:title=" ">
<polygon fill="#e0e0e0" stroke="#999999" points="1465.11,-305 1406.11,-305 1406.11,-286 1465.11,-286 1465.11,-305"/>
<text text-anchor="middle" x="1435.61" y="-293" font-family="Helvetica,sans-Serif" font-size="10.00">numbers</text>
</a>
</g>
</g>
<!-- Node25&#45;&gt;Node27 -->
<g id="edge56_Node000025_Node000027" class="edge">
<title>Node25&#45;&gt;Node27</title>
<g id="a_edge56_Node000025_Node000027"><a xlink:title=" ">
<path fill="none" stroke="#63b8ff" d="M1476.53,-346.37C1469.36,-337.64 1458.12,-323.93 1449.22,-313.09"/>
<polygon fill="#63b8ff" stroke="#63b8ff" points="1451.77,-310.68 1442.72,-305.17 1446.36,-315.12 1451.77,-310.68"/>
</a>
</g>
</g>
<!-- Node28&#45;&gt;Node5 -->
<g id="edge59_Node000028_Node000005" class="edge">
<title>Node28&#45;&gt;Node5</title>
<g id="a_edge59_Node000028_Node000005"><a xlink:title=" ">
<path fill="none" stroke="#63b8ff" d="M88.68,-285.63C101.2,-258.4 139.27,-175.61 156.26,-138.65"/>
<polygon fill="#63b8ff" stroke="#63b8ff" points="159.64,-139.69 160.63,-129.14 153.28,-136.77 159.64,-139.69"/>
</a>
</g>
</g>
</g>
</svg>
