<?xml version="1.0" encoding="UTF-8" standalone="no"?>
<!DOCTYPE svg PUBLIC "-//W3C//DTD SVG 1.1//EN"
 "http://www.w3.org/Graphics/SVG/1.1/DTD/svg11.dtd">
<!-- Generated by graphviz version 2.43.0 (0)
 -->
<!-- Title: /__w/qugar/qugar/cpp/include/qugar/primitive_funcs_lib.hpp Pages: 1 -->
<svg width="1573pt" height="456pt"
 viewBox="0.00 0.00 1573.00 456.00" xmlns="http://www.w3.org/2000/svg" xmlns:xlink="http://www.w3.org/1999/xlink">
<g id="graph0" class="graph" transform="scale(1 1) rotate(0) translate(4 452)">
<title>/__w/qugar/qugar/cpp/include/qugar/primitive_funcs_lib.hpp</title>
<!-- Node1 -->
<g id="Node000001" class="node">
<title>Node1</title>
<g id="a_Node000001"><a xlink:title="Declaration of a primitive implicit functions ready to be consumed by Algoim.">
<polygon fill="#999999" stroke="#666666" points="1280,-448 1147,-448 1147,-407 1280,-407 1280,-448"/>
<text text-anchor="start" x="1155" y="-436" font-family="Helvetica,sans-Serif" font-size="10.00">/__w/qugar/qugar/cpp</text>
<text text-anchor="start" x="1155" y="-425" font-family="Helvetica,sans-Serif" font-size="10.00">/include/qugar/primitive</text>
<text text-anchor="middle" x="1213.5" y="-414" font-family="Helvetica,sans-Serif" font-size="10.00">_funcs_lib.hpp</text>
</a>
</g>
</g>
<!-- Node2 -->
<g id="Node000002" class="node">
<title>Node2</title>
<g id="a_Node000002"><a xlink:href="../../d2/d6e/bezier__tp_8hpp.html" target="_top" xlink:title="Declaration of tensor&#45;product Bezier class.">
<polygon fill="white" stroke="#666666" points="918,-365.5 805,-365.5 805,-346.5 918,-346.5 918,-365.5"/>
<text text-anchor="middle" x="861.5" y="-353.5" font-family="Helvetica,sans-Serif" font-size="10.00">qugar/bezier_tp.hpp</text>
</a>
</g>
</g>
<!-- Node1&#45;&gt;Node2 -->
<g id="edge1_Node000001_Node000002" class="edge">
<title>Node1&#45;&gt;Node2</title>
<g id="a_edge1_Node000001_Node000002"><a xlink:title=" ">
<path fill="none" stroke="#63b8ff" d="M1146.88,-413.35C1079.48,-400.04 976.61,-379.73 914.54,-367.47"/>
<polygon fill="#63b8ff" stroke="#63b8ff" points="915.05,-364.01 904.56,-365.5 913.7,-370.87 915.05,-364.01"/>
</a>
</g>
</g>
<!-- Node5 -->
<g id="Node000005" class="node">
<title>Node5</title>
<g id="a_Node000005"><a xlink:href="../../d0/de4/point_8hpp.html" target="_top" xlink:title="Definition and implementation of Point class.">
<polygon fill="white" stroke="#666666" points="197,-129 104,-129 104,-110 197,-110 197,-129"/>
<text text-anchor="middle" x="150.5" y="-117" font-family="Helvetica,sans-Serif" font-size="10.00">qugar/point.hpp</text>
</a>
</g>
</g>
<!-- Node1&#45;&gt;Node5 -->
<g id="edge59_Node000001_Node000005" class="edge">
<title>Node1&#45;&gt;Node5</title>
<g id="a_edge59_Node000001_Node000005"><a xlink:title=" ">
<path fill="none" stroke="#63b8ff" d="M1146.66,-425.38C913.69,-420.58 151.5,-397.21 151.5,-296.5 151.5,-296.5 151.5,-296.5 151.5,-239.5 151.5,-204.15 151.05,-162.9 150.76,-139.42"/>
<polygon fill="#63b8ff" stroke="#63b8ff" points="154.25,-139.11 150.62,-129.16 147.25,-139.2 154.25,-139.11"/>
</a>
</g>
</g>
<!-- Node6 -->
<g id="Node000006" class="node">
<title>Node6</title>
<g id="a_Node000006"><a xlink:href="../../dd/de3/types_8hpp.html" target="_top" xlink:title="Declaration of types.">
<polygon fill="white" stroke="#666666" points="1129,-74 1034,-74 1034,-55 1129,-55 1129,-74"/>
<text text-anchor="middle" x="1081.5" y="-62" font-family="Helvetica,sans-Serif" font-size="10.00">qugar/types.hpp</text>
</a>
</g>
</g>
<!-- Node1&#45;&gt;Node6 -->
<g id="edge62_Node000001_Node000006" class="edge">
<title>Node1&#45;&gt;Node6</title>
<g id="a_edge62_Node000001_Node000006"><a xlink:title=" ">
<path fill="none" stroke="#63b8ff" d="M1280.13,-423.67C1321.85,-418.37 1373.73,-404.78 1406.5,-371 1430.29,-346.47 1425.5,-330.67 1425.5,-296.5 1425.5,-296.5 1425.5,-296.5 1425.5,-179 1425.5,-136.87 1397.74,-129.71 1360.5,-110 1323.1,-90.21 1209.41,-76.88 1139.23,-70.3"/>
<polygon fill="#63b8ff" stroke="#63b8ff" points="1139.48,-66.81 1129.21,-69.37 1138.84,-73.78 1139.48,-66.81"/>
</a>
</g>
</g>
<!-- Node13 -->
<g id="Node000013" class="node">
<title>Node13</title>
<g id="a_Node000013"><a xlink:href="../../dc/d7c/domain__function_8hpp.html" target="_top" xlink:title="Declaration of a few implicit functions template class ready to be consumed by Algoim.">
<polygon fill="white" stroke="#666666" points="1089.5,-189.5 939.5,-189.5 939.5,-170.5 1089.5,-170.5 1089.5,-189.5"/>
<text text-anchor="middle" x="1014.5" y="-177.5" font-family="Helvetica,sans-Serif" font-size="10.00">qugar/domain_function.hpp</text>
</a>
</g>
</g>
<!-- Node1&#45;&gt;Node13 -->
<g id="edge52_Node000001_Node000013" class="edge">
<title>Node1&#45;&gt;Node13</title>
<g id="a_edge52_Node000001_Node000013"><a xlink:title=" ">
<path fill="none" stroke="#63b8ff" d="M1223.56,-406.76C1241.55,-368.34 1273.72,-282.74 1232.5,-231 1215.76,-209.99 1153.41,-197.08 1099.66,-189.66"/>
<polygon fill="#63b8ff" stroke="#63b8ff" points="1100.11,-186.19 1089.74,-188.33 1099.19,-193.12 1100.11,-186.19"/>
</a>
</g>
</g>
<!-- Node17 -->
<g id="Node000017" class="node">
<title>Node17</title>
<g id="a_Node000017"><a xlink:href="../../d6/d82/monomials__tp_8hpp.html" target="_top" xlink:title="Declaration of tensor&#45;product monomials class.">
<polygon fill="white" stroke="#666666" points="978.5,-305 840.5,-305 840.5,-286 978.5,-286 978.5,-305"/>
<text text-anchor="middle" x="909.5" y="-293" font-family="Helvetica,sans-Serif" font-size="10.00">qugar/monomials_tp.hpp</text>
</a>
</g>
</g>
<!-- Node1&#45;&gt;Node17 -->
<g id="edge54_Node000001_Node000017" class="edge">
<title>Node1&#45;&gt;Node17</title>
<g id="a_edge54_Node000001_Node000017"><a xlink:title=" ">
<path fill="none" stroke="#63b8ff" d="M1167.66,-406.9C1104.39,-379.84 992.12,-331.83 938.97,-309.1"/>
<polygon fill="#63b8ff" stroke="#63b8ff" points="940.03,-305.75 929.45,-305.03 937.27,-312.18 940.03,-305.75"/>
</a>
</g>
</g>
<!-- Node24 -->
<g id="Node000024" class="node">
<title>Node24</title>
<g id="a_Node000024"><a xlink:title=" ">
<polygon fill="#e0e0e0" stroke="#999999" points="1223.5,-250 1165.5,-250 1165.5,-231 1223.5,-231 1223.5,-250"/>
<text text-anchor="middle" x="1194.5" y="-238" font-family="Helvetica,sans-Serif" font-size="10.00">memory</text>
</a>
</g>
</g>
<!-- Node1&#45;&gt;Node24 -->
<g id="edge63_Node000001_Node000024" class="edge">
<title>Node1&#45;&gt;Node24</title>
<g id="a_edge63_Node000001_Node000024"><a xlink:title=" ">
<path fill="none" stroke="#63b8ff" d="M1211.47,-406.7C1207.79,-370.86 1200.06,-295.67 1196.45,-260.46"/>
<polygon fill="#63b8ff" stroke="#63b8ff" points="1199.89,-259.75 1195.39,-250.16 1192.93,-260.46 1199.89,-259.75"/>
</a>
</g>
</g>
<!-- Node25 -->
<g id="Node000025" class="node">
<title>Node25</title>
<g id="a_Node000025"><a xlink:href="../../d5/da2/impl__funcs__lib__macros_8hpp.html" target="_top" xlink:title="Declaration of macros to ease the definition/implementation of implicit functions.">
<polygon fill="white" stroke="#666666" points="1397.5,-371 1279.5,-371 1279.5,-341 1397.5,-341 1397.5,-371"/>
<text text-anchor="start" x="1287.5" y="-359" font-family="Helvetica,sans-Serif" font-size="10.00">qugar/impl_funcs_lib</text>
<text text-anchor="middle" x="1338.5" y="-348" font-family="Helvetica,sans-Serif" font-size="10.00">_macros.hpp</text>
</a>
</g>
</g>
<!-- Node1&#45;&gt;Node25 -->
<g id="edge53_Node000001_Node000025" class="edge">
<title>Node1&#45;&gt;Node25</title>
<g id="a_edge53_Node000001_Node000025"><a xlink:title=" ">
<path fill="none" stroke="#63b8ff" d="M1248.65,-406.96C1265.96,-397.33 1286.74,-385.78 1303.96,-376.2"/>
<polygon fill="#63b8ff" stroke="#63b8ff" points="1306.08,-379.03 1313.12,-371.11 1302.68,-372.91 1306.08,-379.03"/>
</a>
</g>
</g>
<!-- Node26 -->
<g id="Node000026" class="node">
<title>Node26</title>
<g id="a_Node000026"><a xlink:href="../../db/d83/numbers_8hpp.html" target="_top" xlink:title="Declaration of constant values.">
<polygon fill="white" stroke="#666666" points="1565,-189.5 1454,-189.5 1454,-170.5 1565,-170.5 1565,-189.5"/>
<text text-anchor="middle" x="1509.5" y="-177.5" font-family="Helvetica,sans-Serif" font-size="10.00">qugar/numbers.hpp</text>
</a>
</g>
</g>
<!-- Node1&#45;&gt;Node26 -->
<g id="edge55_Node000001_Node000026" class="edge">
<title>Node1&#45;&gt;Node26</title>
<g id="a_edge55_Node000001_Node000026"><a xlink:title=" ">
<path fill="none" stroke="#63b8ff" d="M1280.09,-417.19C1337.98,-407.86 1416.12,-391.9 1439.5,-371 1490.81,-325.15 1504.58,-238.33 1508.22,-200"/>
<polygon fill="#63b8ff" stroke="#63b8ff" points="1511.73,-200.01 1509.05,-189.76 1504.75,-199.44 1511.73,-200.01"/>
</a>
</g>
</g>
<!-- Node28 -->
<g id="Node000028" class="node">
<title>Node28</title>
<g id="a_Node000028"><a xlink:href="../../d3/d41/ref__system_8hpp.html" target="_top" xlink:title="Declaration of reference system class.">
<polygon fill="white" stroke="#666666" points="123,-305 0,-305 0,-286 123,-286 123,-305"/>
<text text-anchor="middle" x="61.5" y="-293" font-family="Helvetica,sans-Serif" font-size="10.00">qugar/ref_system.hpp</text>
</a>
</g>
</g>
<!-- Node1&#45;&gt;Node28 -->
<g id="edge60_Node000001_Node000028" class="edge">
<title>Node1&#45;&gt;Node28</title>
<g id="a_edge60_Node000001_Node000028"><a xlink:title=" ">
<path fill="none" stroke="#63b8ff" d="M1146.63,-425.79C925.93,-423.09 229.57,-411.4 137.5,-371 109.84,-358.86 86.51,-331.84 73.26,-313.9"/>
<polygon fill="#63b8ff" stroke="#63b8ff" points="75.92,-311.6 67.28,-305.47 70.21,-315.65 75.92,-311.6"/>
</a>
</g>
</g>
<!-- Node3 -->
<g id="Node000003" class="node">
<title>Node3</title>
<g id="a_Node000003"><a xlink:href="../../d5/d90/bbox_8hpp.html" target="_top" xlink:title="Definition of Cartesian bounding box class.">
<polygon fill="white" stroke="#666666" points="521.5,-189.5 429.5,-189.5 429.5,-170.5 521.5,-170.5 521.5,-189.5"/>
<text text-anchor="middle" x="475.5" y="-177.5" font-family="Helvetica,sans-Serif" font-size="10.00">qugar/bbox.hpp</text>
</a>
</g>
</g>
<!-- Node2&#45;&gt;Node3 -->
<g id="edge2_Node000002_Node000003" class="edge">
<title>Node2&#45;&gt;Node3</title>
<g id="a_edge2_Node000002_Node000003"><a xlink:title=" ">
<path fill="none" stroke="#63b8ff" d="M804.79,-349.56C699.85,-338.18 481.98,-307.99 437.5,-250 424.46,-233 441.62,-210.96 456.89,-196.42"/>
<polygon fill="#63b8ff" stroke="#63b8ff" points="459.43,-198.85 464.54,-189.57 454.76,-193.63 459.43,-198.85"/>
</a>
</g>
</g>
<!-- Node2&#45;&gt;Node6 -->
<g id="edge48_Node000002_Node000006" class="edge">
<title>Node2&#45;&gt;Node6</title>
<g id="a_edge48_Node000002_Node000006"><a xlink:title=" ">
<path fill="none" stroke="#63b8ff" d="M889.69,-346.44C919.2,-337.22 966.69,-321.61 1006.5,-305 1075.11,-276.38 1088.55,-261.14 1156.5,-231 1196.26,-213.36 1209.02,-215.27 1247.5,-195 1293.96,-170.53 1320.83,-175.36 1345.5,-129 1349.47,-121.55 1350.95,-116.45 1345.5,-110 1319.67,-79.45 1209.18,-69.86 1139.59,-66.86"/>
<polygon fill="#63b8ff" stroke="#63b8ff" points="1139.34,-63.35 1129.21,-66.45 1139.06,-70.34 1139.34,-63.35"/>
</a>
</g>
</g>
<!-- Node10 -->
<g id="Node000010" class="node">
<title>Node10</title>
<g id="a_Node000010"><a xlink:title=" ">
<polygon fill="#e0e0e0" stroke="#999999" points="80,-74 33,-74 33,-55 80,-55 80,-74"/>
<text text-anchor="middle" x="56.5" y="-62" font-family="Helvetica,sans-Serif" font-size="10.00">vector</text>
</a>
</g>
</g>
<!-- Node2&#45;&gt;Node10 -->
<g id="edge51_Node000002_Node000010" class="edge">
<title>Node2&#45;&gt;Node10</title>
<g id="a_edge51_Node000002_Node000010"><a xlink:title=" ">
<path fill="none" stroke="#63b8ff" d="M804.86,-349.77C647.25,-334.22 207.88,-283.72 97.5,-195 63.9,-167.99 57.38,-113.52 56.4,-84.58"/>
<polygon fill="#63b8ff" stroke="#63b8ff" points="59.89,-84.16 56.25,-74.21 52.89,-84.26 59.89,-84.16"/>
</a>
</g>
</g>
<!-- Node2&#45;&gt;Node13 -->
<g id="edge15_Node000002_Node000013" class="edge">
<title>Node2&#45;&gt;Node13</title>
<g id="a_edge15_Node000002_Node000013"><a xlink:title=" ">
<path fill="none" stroke="#63b8ff" d="M912.71,-346.49C938.71,-339.58 968.69,-327.16 987.5,-305 1012.96,-275 1016.04,-226.52 1015.57,-199.93"/>
<polygon fill="#63b8ff" stroke="#63b8ff" points="1019.06,-199.57 1015.19,-189.7 1012.06,-199.83 1019.06,-199.57"/>
</a>
</g>
</g>
<!-- Node2&#45;&gt;Node17 -->
<g id="edge22_Node000002_Node000017" class="edge">
<title>Node2&#45;&gt;Node17</title>
<g id="a_edge22_Node000002_Node000017"><a xlink:title=" ">
<path fill="none" stroke="#63b8ff" d="M868.58,-346.37C875.74,-337.64 886.99,-323.93 895.89,-313.09"/>
<polygon fill="#63b8ff" stroke="#63b8ff" points="898.75,-315.12 902.39,-305.17 893.34,-310.68 898.75,-315.12"/>
</a>
</g>
</g>
<!-- Node18 -->
<g id="Node000018" class="node">
<title>Node18</title>
<g id="a_Node000018"><a xlink:href="../../d2/dee/polynomial__tp_8hpp.html" target="_top" xlink:title="Declaration of tensor&#45;product polynomial class.">
<polygon fill="white" stroke="#666666" points="782.5,-250 644.5,-250 644.5,-231 782.5,-231 782.5,-250"/>
<text text-anchor="middle" x="713.5" y="-238" font-family="Helvetica,sans-Serif" font-size="10.00">qugar/polynomial_tp.hpp</text>
</a>
</g>
</g>
<!-- Node2&#45;&gt;Node18 -->
<g id="edge46_Node000002_Node000018" class="edge">
<title>Node2&#45;&gt;Node18</title>
<g id="a_edge46_Node000002_Node000018"><a xlink:title=" ">
<path fill="none" stroke="#63b8ff" d="M850.38,-346.47C825.31,-327.24 764.14,-280.33 732.76,-256.27"/>
<polygon fill="#63b8ff" stroke="#63b8ff" points="734.82,-253.44 724.75,-250.13 730.56,-258.99 734.82,-253.44"/>
</a>
</g>
</g>
<!-- Node19 -->
<g id="Node000019" class="node">
<title>Node19</title>
<g id="a_Node000019"><a xlink:href="../../d9/d43/tensor__index__tp_8hpp.html" target="_top" xlink:title="Declaration of tensor&#45;product index and size related classes.">
<polygon fill="white" stroke="#666666" points="881.5,-195 771.5,-195 771.5,-165 881.5,-165 881.5,-195"/>
<text text-anchor="start" x="779.5" y="-183" font-family="Helvetica,sans-Serif" font-size="10.00">qugar/tensor_index</text>
<text text-anchor="middle" x="826.5" y="-172" font-family="Helvetica,sans-Serif" font-size="10.00">_tp.hpp</text>
</a>
</g>
</g>
<!-- Node2&#45;&gt;Node19 -->
<g id="edge47_Node000002_Node000019" class="edge">
<title>Node2&#45;&gt;Node19</title>
<g id="a_edge47_Node000002_Node000019"><a xlink:title=" ">
<path fill="none" stroke="#63b8ff" d="M854.5,-346.43C847.23,-336.95 836.25,-320.91 831.5,-305 821.51,-271.55 822.16,-230.77 823.99,-205.34"/>
<polygon fill="#63b8ff" stroke="#63b8ff" points="827.49,-205.39 824.84,-195.13 820.52,-204.8 827.49,-205.39"/>
</a>
</g>
</g>
<!-- Node23 -->
<g id="Node000023" class="node">
<title>Node23</title>
<g id="a_Node000023"><a xlink:title=" ">
<polygon fill="#e0e0e0" stroke="#999999" points="550.5,-250 446.5,-250 446.5,-231 550.5,-231 550.5,-250"/>
<text text-anchor="middle" x="498.5" y="-238" font-family="Helvetica,sans-Serif" font-size="10.00">algoim/xarray.hpp</text>
</a>
</g>
</g>
<!-- Node2&#45;&gt;Node23 -->
<g id="edge49_Node000002_Node000023" class="edge">
<title>Node2&#45;&gt;Node23</title>
<g id="a_edge49_Node000002_Node000023"><a xlink:title=" ">
<path fill="none" stroke="#63b8ff" d="M834.22,-346.47C769.97,-326.38 609.05,-276.07 535.83,-253.17"/>
<polygon fill="#63b8ff" stroke="#63b8ff" points="536.69,-249.77 526.1,-250.13 534.6,-256.45 536.69,-249.77"/>
</a>
</g>
</g>
<!-- Node2&#45;&gt;Node24 -->
<g id="edge50_Node000002_Node000024" class="edge">
<title>Node2&#45;&gt;Node24</title>
<g id="a_edge50_Node000002_Node000024"><a xlink:title=" ">
<path fill="none" stroke="#63b8ff" d="M918.01,-350.52C991.17,-343.83 1113.78,-329.35 1151.5,-305 1168.24,-294.19 1180.11,-274.32 1187.07,-259.67"/>
<polygon fill="#63b8ff" stroke="#63b8ff" points="1190.45,-260.7 1191.28,-250.13 1184.04,-257.87 1190.45,-260.7"/>
</a>
</g>
</g>
<!-- Node4 -->
<g id="Node000004" class="node">
<title>Node4</title>
<g id="a_Node000004"><a xlink:href="../../d7/dd8/concepts_8hpp.html" target="_top" xlink:title="Declaration of concepts.">
<polygon fill="white" stroke="#666666" points="531.5,-129 419.5,-129 419.5,-110 531.5,-110 531.5,-129"/>
<text text-anchor="middle" x="475.5" y="-117" font-family="Helvetica,sans-Serif" font-size="10.00">qugar/concepts.hpp</text>
</a>
</g>
</g>
<!-- Node3&#45;&gt;Node4 -->
<g id="edge3_Node000003_Node000004" class="edge">
<title>Node3&#45;&gt;Node4</title>
<g id="a_edge3_Node000003_Node000004"><a xlink:title=" ">
<path fill="none" stroke="#63b8ff" d="M475.5,-170.37C475.5,-162.25 475.5,-149.81 475.5,-139.39"/>
<polygon fill="#63b8ff" stroke="#63b8ff" points="479,-139.17 475.5,-129.17 472,-139.17 479,-139.17"/>
</a>
</g>
</g>
<!-- Node3&#45;&gt;Node5 -->
<g id="edge4_Node000003_Node000005" class="edge">
<title>Node3&#45;&gt;Node5</title>
<g id="a_edge4_Node000003_Node000005"><a xlink:title=" ">
<path fill="none" stroke="#63b8ff" d="M429.28,-170.68C370.85,-160.16 270.29,-142.06 207.25,-130.72"/>
<polygon fill="#63b8ff" stroke="#63b8ff" points="207.55,-127.21 197.09,-128.89 206.31,-134.1 207.55,-127.21"/>
</a>
</g>
</g>
<!-- Node3&#45;&gt;Node6 -->
<g id="edge11_Node000003_Node000006" class="edge">
<title>Node3&#45;&gt;Node6</title>
<g id="a_edge11_Node000003_Node000006"><a xlink:title=" ">
<path fill="none" stroke="#63b8ff" d="M485.36,-170.33C503.38,-155.05 543.49,-123.65 583.5,-110 624.26,-96.09 901.13,-77 1023.52,-69.13"/>
<polygon fill="#63b8ff" stroke="#63b8ff" points="1024.06,-72.6 1033.82,-68.47 1023.62,-65.61 1024.06,-72.6"/>
</a>
</g>
</g>
<!-- Node7 -->
<g id="Node000007" class="node">
<title>Node7</title>
<g id="a_Node000007"><a xlink:title=" ">
<polygon fill="#e0e0e0" stroke="#999999" points="522,-19 469,-19 469,0 522,0 522,-19"/>
<text text-anchor="middle" x="495.5" y="-7" font-family="Helvetica,sans-Serif" font-size="10.00">cstddef</text>
</a>
</g>
</g>
<!-- Node3&#45;&gt;Node7 -->
<g id="edge14_Node000003_Node000007" class="edge">
<title>Node3&#45;&gt;Node7</title>
<g id="a_edge14_Node000003_Node000007"><a xlink:title=" ">
<path fill="none" stroke="#63b8ff" d="M429.31,-172.15C365.28,-162.2 256.08,-143.35 244.5,-129 239.2,-122.43 239.75,-116.99 244.5,-110 292.98,-38.64 401.48,-18.46 458.65,-12.75"/>
<polygon fill="#63b8ff" stroke="#63b8ff" points="459.05,-16.23 468.7,-11.84 458.42,-9.26 459.05,-16.23"/>
</a>
</g>
</g>
<!-- Node11 -->
<g id="Node000011" class="node">
<title>Node11</title>
<g id="a_Node000011"><a xlink:title=" ">
<polygon fill="#e0e0e0" stroke="#999999" points="401.5,-129 253.5,-129 253.5,-110 401.5,-110 401.5,-129"/>
<text text-anchor="middle" x="327.5" y="-117" font-family="Helvetica,sans-Serif" font-size="10.00">algoim/hyperrectangle.hpp</text>
</a>
</g>
</g>
<!-- Node3&#45;&gt;Node11 -->
<g id="edge12_Node000003_Node000011" class="edge">
<title>Node3&#45;&gt;Node11</title>
<g id="a_edge12_Node000003_Node000011"><a xlink:title=" ">
<path fill="none" stroke="#63b8ff" d="M453.98,-170.49C428.88,-160.57 387.18,-144.09 358.57,-132.78"/>
<polygon fill="#63b8ff" stroke="#63b8ff" points="359.63,-129.44 349.05,-129.02 357.06,-135.95 359.63,-129.44"/>
</a>
</g>
</g>
<!-- Node12 -->
<g id="Node000012" class="node">
<title>Node12</title>
<g id="a_Node000012"><a xlink:title=" ">
<polygon fill="#e0e0e0" stroke="#999999" points="667.5,-129 625.5,-129 625.5,-110 667.5,-110 667.5,-129"/>
<text text-anchor="middle" x="646.5" y="-117" font-family="Helvetica,sans-Serif" font-size="10.00">array</text>
</a>
</g>
</g>
<!-- Node3&#45;&gt;Node12 -->
<g id="edge13_Node000003_Node000012" class="edge">
<title>Node3&#45;&gt;Node12</title>
<g id="a_edge13_Node000003_Node000012"><a xlink:title=" ">
<path fill="none" stroke="#63b8ff" d="M500.36,-170.49C530.92,-160.04 582.76,-142.3 615.78,-131.01"/>
<polygon fill="#63b8ff" stroke="#63b8ff" points="617.05,-134.27 625.38,-127.73 614.78,-127.65 617.05,-134.27"/>
</a>
</g>
</g>
<!-- Node5&#45;&gt;Node6 -->
<g id="edge5_Node000005_Node000006" class="edge">
<title>Node5&#45;&gt;Node6</title>
<g id="a_edge5_Node000005_Node000006"><a xlink:title=" ">
<path fill="none" stroke="#63b8ff" d="M197.33,-113.9C212.38,-112.52 229.14,-111.09 244.5,-110 555.69,-87.95 634.04,-91.73 945.5,-74 971.23,-72.54 999.69,-70.78 1023.9,-69.24"/>
<polygon fill="#63b8ff" stroke="#63b8ff" points="1024.23,-72.73 1033.99,-68.6 1023.79,-65.74 1024.23,-72.73"/>
</a>
</g>
</g>
<!-- Node5&#45;&gt;Node7 -->
<g id="edge9_Node000005_Node000007" class="edge">
<title>Node5&#45;&gt;Node7</title>
<g id="a_edge9_Node000005_Node000007"><a xlink:title=" ">
<path fill="none" stroke="#63b8ff" d="M156.03,-109.8C165.51,-95.71 186.29,-68.14 211.5,-55 253.93,-32.89 392.12,-18.93 458.82,-13.32"/>
<polygon fill="#63b8ff" stroke="#63b8ff" points="459.21,-16.8 468.89,-12.49 458.63,-9.83 459.21,-16.8"/>
</a>
</g>
</g>
<!-- Node8 -->
<g id="Node000008" class="node">
<title>Node8</title>
<g id="a_Node000008"><a xlink:href="../../da/d16/vector_8hpp.html" target="_top" xlink:title=" ">
<polygon fill="white" stroke="#666666" points="936.5,-74 838.5,-74 838.5,-55 936.5,-55 936.5,-74"/>
<text text-anchor="middle" x="887.5" y="-62" font-family="Helvetica,sans-Serif" font-size="10.00">qugar/vector.hpp</text>
</a>
</g>
</g>
<!-- Node5&#45;&gt;Node8 -->
<g id="edge7_Node000005_Node000008" class="edge">
<title>Node5&#45;&gt;Node8</title>
<g id="a_edge7_Node000005_Node000008"><a xlink:title=" ">
<path fill="none" stroke="#63b8ff" d="M197.34,-114.07C212.39,-112.7 229.15,-111.23 244.5,-110 459.21,-92.86 714.57,-76.34 828.06,-69.19"/>
<polygon fill="#63b8ff" stroke="#63b8ff" points="828.51,-72.67 838.27,-68.55 828.07,-65.69 828.51,-72.67"/>
</a>
</g>
</g>
<!-- Node5&#45;&gt;Node10 -->
<g id="edge10_Node000005_Node000010" class="edge">
<title>Node5&#45;&gt;Node10</title>
<g id="a_edge10_Node000005_Node000010"><a xlink:title=" ">
<path fill="none" stroke="#63b8ff" d="M135.4,-109.98C120.68,-101.69 98.08,-88.94 80.83,-79.22"/>
<polygon fill="#63b8ff" stroke="#63b8ff" points="82.31,-76.03 71.88,-74.17 78.87,-82.13 82.31,-76.03"/>
</a>
</g>
</g>
<!-- Node6&#45;&gt;Node7 -->
<g id="edge6_Node000006_Node000007" class="edge">
<title>Node6&#45;&gt;Node7</title>
<g id="a_edge6_Node000006_Node000007"><a xlink:title=" ">
<path fill="none" stroke="#63b8ff" d="M1033.55,-59.16C919.5,-48.85 634.02,-23.03 532.25,-13.82"/>
<polygon fill="#63b8ff" stroke="#63b8ff" points="532.43,-10.33 522.15,-12.91 531.8,-17.3 532.43,-10.33"/>
</a>
</g>
</g>
<!-- Node9 -->
<g id="Node000009" class="node">
<title>Node9</title>
<g id="a_Node000009"><a xlink:title=" ">
<polygon fill="#e0e0e0" stroke="#999999" points="942.5,-19 832.5,-19 832.5,0 942.5,0 942.5,-19"/>
<text text-anchor="middle" x="887.5" y="-7" font-family="Helvetica,sans-Serif" font-size="10.00">algoim/uvector.hpp</text>
</a>
</g>
</g>
<!-- Node8&#45;&gt;Node9 -->
<g id="edge8_Node000008_Node000009" class="edge">
<title>Node8&#45;&gt;Node9</title>
<g id="a_edge8_Node000008_Node000009"><a xlink:title=" ">
<path fill="none" stroke="#63b8ff" d="M887.5,-54.75C887.5,-47.8 887.5,-37.85 887.5,-29.13"/>
<polygon fill="#63b8ff" stroke="#63b8ff" points="891,-29.09 887.5,-19.09 884,-29.09 891,-29.09"/>
</a>
</g>
</g>
<!-- Node13&#45;&gt;Node5 -->
<g id="edge17_Node000013_Node000005" class="edge">
<title>Node13&#45;&gt;Node5</title>
<g id="a_edge17_Node000013_Node000005"><a xlink:title=" ">
<path fill="none" stroke="#63b8ff" d="M945.38,-170.49C927.52,-168.49 908.31,-166.5 890.5,-165 603.96,-140.86 531.29,-149.95 244.5,-129 232.5,-128.12 219.65,-127.05 207.42,-125.97"/>
<polygon fill="#63b8ff" stroke="#63b8ff" points="207.6,-122.47 197.33,-125.06 206.98,-129.44 207.6,-122.47"/>
</a>
</g>
</g>
<!-- Node13&#45;&gt;Node6 -->
<g id="edge16_Node000013_Node000006" class="edge">
<title>Node13&#45;&gt;Node6</title>
<g id="a_edge16_Node000013_Node000006"><a xlink:title=" ">
<path fill="none" stroke="#63b8ff" d="M1025.6,-170.2C1036.48,-161.01 1052.8,-145.63 1062.5,-129 1070.57,-115.16 1075.48,-97.59 1078.28,-84.45"/>
<polygon fill="#63b8ff" stroke="#63b8ff" points="1081.8,-84.71 1080.23,-74.24 1074.92,-83.4 1081.8,-84.71"/>
</a>
</g>
</g>
<!-- Node13&#45;&gt;Node8 -->
<g id="edge18_Node000013_Node000008" class="edge">
<title>Node13&#45;&gt;Node8</title>
<g id="a_edge18_Node000013_Node000008"><a xlink:title=" ">
<path fill="none" stroke="#63b8ff" d="M1089.7,-177.72C1168.12,-173.79 1274.02,-159.53 1230.5,-110 1212.12,-89.08 1040.2,-75.11 946.96,-69"/>
<polygon fill="#63b8ff" stroke="#63b8ff" points="947.03,-65.5 936.82,-68.35 946.58,-72.48 947.03,-65.5"/>
</a>
</g>
</g>
<!-- Node14 -->
<g id="Node000014" class="node">
<title>Node14</title>
<g id="a_Node000014"><a xlink:title=" ">
<polygon fill="#e0e0e0" stroke="#999999" points="1221.5,-129 1109.5,-129 1109.5,-110 1221.5,-110 1221.5,-129"/>
<text text-anchor="middle" x="1165.5" y="-117" font-family="Helvetica,sans-Serif" font-size="10.00">algoim/interval.hpp</text>
</a>
</g>
</g>
<!-- Node13&#45;&gt;Node14 -->
<g id="edge19_Node000013_Node000014" class="edge">
<title>Node13&#45;&gt;Node14</title>
<g id="a_edge19_Node000013_Node000014"><a xlink:title=" ">
<path fill="none" stroke="#63b8ff" d="M1036.46,-170.49C1062.18,-160.53 1104.98,-143.95 1134.18,-132.63"/>
<polygon fill="#63b8ff" stroke="#63b8ff" points="1135.46,-135.89 1143.52,-129.02 1132.93,-129.37 1135.46,-135.89"/>
</a>
</g>
</g>
<!-- Node15 -->
<g id="Node000015" class="node">
<title>Node15</title>
<g id="a_Node000015"><a xlink:title=" ">
<polygon fill="#e0e0e0" stroke="#999999" points="965.5,-129 915.5,-129 915.5,-110 965.5,-110 965.5,-129"/>
<text text-anchor="middle" x="940.5" y="-117" font-family="Helvetica,sans-Serif" font-size="10.00">cstdint</text>
</a>
</g>
</g>
<!-- Node13&#45;&gt;Node15 -->
<g id="edge20_Node000013_Node000015" class="edge">
<title>Node13&#45;&gt;Node15</title>
<g id="a_edge20_Node000013_Node000015"><a xlink:title=" ">
<path fill="none" stroke="#63b8ff" d="M1003.58,-170.37C991.99,-161.21 973.47,-146.56 959.48,-135.51"/>
<polygon fill="#63b8ff" stroke="#63b8ff" points="961.48,-132.62 951.46,-129.17 957.14,-138.11 961.48,-132.62"/>
</a>
</g>
</g>
<!-- Node16 -->
<g id="Node000016" class="node">
<title>Node16</title>
<g id="a_Node000016"><a xlink:title=" ">
<polygon fill="#e0e0e0" stroke="#999999" points="1053,-129 984,-129 984,-110 1053,-110 1053,-129"/>
<text text-anchor="middle" x="1018.5" y="-117" font-family="Helvetica,sans-Serif" font-size="10.00">type_traits</text>
</a>
</g>
</g>
<!-- Node13&#45;&gt;Node16 -->
<g id="edge21_Node000013_Node000016" class="edge">
<title>Node13&#45;&gt;Node16</title>
<g id="a_edge21_Node000013_Node000016"><a xlink:title=" ">
<path fill="none" stroke="#63b8ff" d="M1015.09,-170.37C1015.65,-162.25 1016.5,-149.81 1017.21,-139.39"/>
<polygon fill="#63b8ff" stroke="#63b8ff" points="1020.72,-139.38 1017.91,-129.17 1013.73,-138.91 1020.72,-139.38"/>
</a>
</g>
</g>
<!-- Node17&#45;&gt;Node3 -->
<g id="edge23_Node000017_Node000003" class="edge">
<title>Node17&#45;&gt;Node3</title>
<g id="a_edge23_Node000017_Node000003"><a xlink:title=" ">
<path fill="none" stroke="#63b8ff" d="M840.29,-288.2C784.23,-281.92 703.65,-270.23 635.5,-250 615.47,-244.05 611.66,-239.33 592.5,-231 562.9,-218.13 528.97,-203.67 505.3,-193.62"/>
<polygon fill="#63b8ff" stroke="#63b8ff" points="506.4,-190.28 495.82,-189.6 503.66,-196.72 506.4,-190.28"/>
</a>
</g>
</g>
<!-- Node17&#45;&gt;Node6 -->
<g id="edge42_Node000017_Node000006" class="edge">
<title>Node17&#45;&gt;Node6</title>
<g id="a_edge42_Node000017_Node000006"><a xlink:title=" ">
<path fill="none" stroke="#63b8ff" d="M936.3,-285.91C1025.29,-257.12 1306.7,-163.92 1330.5,-129 1335.25,-122.02 1335.92,-116.48 1330.5,-110 1306.62,-81.47 1205.27,-71.21 1139.47,-67.54"/>
<polygon fill="#63b8ff" stroke="#63b8ff" points="1139.4,-64.03 1129.23,-67 1139.03,-71.02 1139.4,-64.03"/>
</a>
</g>
</g>
<!-- Node17&#45;&gt;Node10 -->
<g id="edge45_Node000017_Node000010" class="edge">
<title>Node17&#45;&gt;Node10</title>
<g id="a_edge45_Node000017_Node000010"><a xlink:title=" ">
<path fill="none" stroke="#63b8ff" d="M840.34,-292.37C774.91,-288.6 674.75,-278.26 592.5,-250 576.49,-244.5 575.64,-236.08 559.5,-231 385.02,-176.07 317.65,-267.01 149.5,-195 108.68,-177.52 98.19,-166.56 74.5,-129 65.9,-115.37 61.32,-97.55 58.93,-84.26"/>
<polygon fill="#63b8ff" stroke="#63b8ff" points="62.39,-83.7 57.41,-74.35 55.47,-84.77 62.39,-83.7"/>
</a>
</g>
</g>
<!-- Node17&#45;&gt;Node13 -->
<g id="edge24_Node000017_Node000013" class="edge">
<title>Node17&#45;&gt;Node13</title>
<g id="a_edge24_Node000017_Node000013"><a xlink:title=" ">
<path fill="none" stroke="#63b8ff" d="M917.39,-285.97C934.87,-267.07 977.1,-221.43 999.68,-197.02"/>
<polygon fill="#63b8ff" stroke="#63b8ff" points="1002.29,-199.35 1006.52,-189.63 997.16,-194.59 1002.29,-199.35"/>
</a>
</g>
</g>
<!-- Node17&#45;&gt;Node18 -->
<g id="edge25_Node000017_Node000018" class="edge">
<title>Node17&#45;&gt;Node18</title>
<g id="a_edge25_Node000017_Node000018"><a xlink:title=" ">
<path fill="none" stroke="#63b8ff" d="M878.01,-285.98C844.68,-276.97 791.9,-262.7 755.15,-252.76"/>
<polygon fill="#63b8ff" stroke="#63b8ff" points="755.8,-249.31 745.24,-250.08 753.98,-256.07 755.8,-249.31"/>
</a>
</g>
</g>
<!-- Node17&#45;&gt;Node19 -->
<g id="edge41_Node000017_Node000019" class="edge">
<title>Node17&#45;&gt;Node19</title>
<g id="a_edge41_Node000017_Node000019"><a xlink:title=" ">
<path fill="none" stroke="#63b8ff" d="M903.26,-285.97C890.58,-268.63 861.43,-228.77 842.93,-203.47"/>
<polygon fill="#63b8ff" stroke="#63b8ff" points="845.6,-201.19 836.87,-195.18 839.95,-205.32 845.6,-201.19"/>
</a>
</g>
</g>
<!-- Node17&#45;&gt;Node23 -->
<g id="edge43_Node000017_Node000023" class="edge">
<title>Node17&#45;&gt;Node23</title>
<g id="a_edge43_Node000017_Node000023"><a xlink:title=" ">
<path fill="none" stroke="#63b8ff" d="M843.47,-285.98C765.5,-275.93 636.84,-259.34 560.62,-249.51"/>
<polygon fill="#63b8ff" stroke="#63b8ff" points="561.05,-246.04 550.68,-248.23 560.15,-252.98 561.05,-246.04"/>
</a>
</g>
</g>
<!-- Node17&#45;&gt;Node24 -->
<g id="edge44_Node000017_Node000024" class="edge">
<title>Node17&#45;&gt;Node24</title>
<g id="a_edge44_Node000017_Node000024"><a xlink:title=" ">
<path fill="none" stroke="#63b8ff" d="M955.29,-285.98C1010.76,-275.67 1103.23,-258.47 1155.47,-248.76"/>
<polygon fill="#63b8ff" stroke="#63b8ff" points="1156.16,-252.19 1165.36,-246.92 1154.88,-245.31 1156.16,-252.19"/>
</a>
</g>
</g>
<!-- Node18&#45;&gt;Node3 -->
<g id="edge26_Node000018_Node000003" class="edge">
<title>Node18&#45;&gt;Node3</title>
<g id="a_edge26_Node000018_Node000003"><a xlink:title=" ">
<path fill="none" stroke="#63b8ff" d="M678.89,-230.99C636.94,-220.68 566.16,-203.28 520.14,-191.97"/>
<polygon fill="#63b8ff" stroke="#63b8ff" points="520.7,-188.5 510.15,-189.52 519.02,-195.3 520.7,-188.5"/>
</a>
</g>
</g>
<!-- Node18&#45;&gt;Node5 -->
<g id="edge28_Node000018_Node000005" class="edge">
<title>Node18&#45;&gt;Node5</title>
<g id="a_edge28_Node000018_Node000005"><a xlink:title=" ">
<path fill="none" stroke="#63b8ff" d="M644.41,-231.36C584.77,-223.77 496.49,-211.19 420.5,-195 336.01,-176.99 238.76,-148.1 187.14,-132.1"/>
<polygon fill="#63b8ff" stroke="#63b8ff" points="188.04,-128.71 177.45,-129.08 185.95,-135.4 188.04,-128.71"/>
</a>
</g>
</g>
<!-- Node18&#45;&gt;Node6 -->
<g id="edge38_Node000018_Node000006" class="edge">
<title>Node18&#45;&gt;Node6</title>
<g id="a_edge38_Node000018_Node000006"><a xlink:title=" ">
<path fill="none" stroke="#63b8ff" d="M698.35,-230.89C662.44,-209.46 577.96,-152.41 616.5,-110 630.03,-95.11 902.06,-76.56 1023.65,-68.98"/>
<polygon fill="#63b8ff" stroke="#63b8ff" points="1024.12,-72.45 1033.88,-68.34 1023.69,-65.47 1024.12,-72.45"/>
</a>
</g>
</g>
<!-- Node18&#45;&gt;Node10 -->
<g id="edge40_Node000018_Node000010" class="edge">
<title>Node18&#45;&gt;Node10</title>
<g id="a_edge40_Node000018_Node000010"><a xlink:title=" ">
<path fill="none" stroke="#63b8ff" d="M644.11,-233.87C543.21,-225.38 361.02,-208.82 296.5,-195 204.15,-175.21 168.32,-187.92 94.5,-129 79.78,-117.25 69.45,-98.13 63.32,-83.93"/>
<polygon fill="#63b8ff" stroke="#63b8ff" points="66.41,-82.23 59.44,-74.24 59.91,-84.83 66.41,-82.23"/>
</a>
</g>
</g>
<!-- Node18&#45;&gt;Node13 -->
<g id="edge27_Node000018_Node000013" class="edge">
<title>Node18&#45;&gt;Node13</title>
<g id="a_edge27_Node000018_Node000013"><a xlink:title=" ">
<path fill="none" stroke="#63b8ff" d="M757.27,-230.99C811.1,-220.53 902.48,-202.77 960.59,-191.48"/>
<polygon fill="#63b8ff" stroke="#63b8ff" points="961.53,-194.86 970.68,-189.52 960.2,-187.99 961.53,-194.86"/>
</a>
</g>
</g>
<!-- Node18&#45;&gt;Node19 -->
<g id="edge29_Node000018_Node000019" class="edge">
<title>Node18&#45;&gt;Node19</title>
<g id="a_edge29_Node000018_Node000019"><a xlink:title=" ">
<path fill="none" stroke="#63b8ff" d="M730.17,-230.87C745.93,-222.71 770.1,-210.2 790.29,-199.75"/>
<polygon fill="#63b8ff" stroke="#63b8ff" points="791.96,-202.82 799.24,-195.11 788.75,-196.6 791.96,-202.82"/>
</a>
</g>
</g>
<!-- Node21 -->
<g id="Node000021" class="node">
<title>Node21</title>
<g id="a_Node000021"><a xlink:title=" ">
<polygon fill="#e0e0e0" stroke="#999999" points="737.5,-129 685.5,-129 685.5,-110 737.5,-110 737.5,-129"/>
<text text-anchor="middle" x="711.5" y="-117" font-family="Helvetica,sans-Serif" font-size="10.00">cassert</text>
</a>
</g>
</g>
<!-- Node18&#45;&gt;Node21 -->
<g id="edge39_Node000018_Node000021" class="edge">
<title>Node18&#45;&gt;Node21</title>
<g id="a_edge39_Node000018_Node000021"><a xlink:title=" ">
<path fill="none" stroke="#63b8ff" d="M713.36,-230.94C713.04,-211.91 712.26,-165.69 711.82,-139.47"/>
<polygon fill="#63b8ff" stroke="#63b8ff" points="715.32,-139.24 711.65,-129.3 708.32,-139.36 715.32,-139.24"/>
</a>
</g>
</g>
<!-- Node19&#45;&gt;Node7 -->
<g id="edge34_Node000019_Node000007" class="edge">
<title>Node19&#45;&gt;Node7</title>
<g id="a_edge34_Node000019_Node000007"><a xlink:title=" ">
<path fill="none" stroke="#63b8ff" d="M813.17,-164.99C798.14,-149.81 772.39,-125.68 746.5,-110 675.42,-66.95 582.41,-35.81 531.94,-20.73"/>
<polygon fill="#63b8ff" stroke="#63b8ff" points="532.71,-17.31 522.13,-17.84 530.74,-24.02 532.71,-17.31"/>
</a>
</g>
</g>
<!-- Node19&#45;&gt;Node8 -->
<g id="edge31_Node000019_Node000008" class="edge">
<title>Node19&#45;&gt;Node8</title>
<g id="a_edge31_Node000019_Node000008"><a xlink:title=" ">
<path fill="none" stroke="#63b8ff" d="M841.11,-164.87C850.12,-155.44 861.29,-142.37 868.5,-129 876.11,-114.9 881.06,-97.36 883.99,-84.28"/>
<polygon fill="#63b8ff" stroke="#63b8ff" points="887.49,-84.65 886.07,-74.15 880.64,-83.24 887.49,-84.65"/>
</a>
</g>
</g>
<!-- Node19&#45;&gt;Node12 -->
<g id="edge32_Node000019_Node000012" class="edge">
<title>Node19&#45;&gt;Node12</title>
<g id="a_edge32_Node000019_Node000012"><a xlink:title=" ">
<path fill="none" stroke="#63b8ff" d="M783.39,-164.99C750.64,-154.34 706.4,-139.97 677.18,-130.47"/>
<polygon fill="#63b8ff" stroke="#63b8ff" points="678.11,-127.09 667.52,-127.33 675.95,-133.75 678.11,-127.09"/>
</a>
</g>
</g>
<!-- Node19&#45;&gt;Node15 -->
<g id="edge35_Node000019_Node000015" class="edge">
<title>Node19&#45;&gt;Node15</title>
<g id="a_edge35_Node000019_Node000015"><a xlink:title=" ">
<path fill="none" stroke="#63b8ff" d="M853.81,-164.99C872.15,-155.58 896.18,-143.24 914.29,-133.95"/>
<polygon fill="#63b8ff" stroke="#63b8ff" points="916.37,-136.82 923.66,-129.14 913.17,-130.59 916.37,-136.82"/>
</a>
</g>
</g>
<!-- Node19&#45;&gt;Node16 -->
<g id="edge37_Node000019_Node000016" class="edge">
<title>Node19&#45;&gt;Node16</title>
<g id="a_edge37_Node000019_Node000016"><a xlink:title=" ">
<path fill="none" stroke="#63b8ff" d="M872.49,-164.99C905.62,-154.89 949.79,-141.44 980.84,-131.98"/>
<polygon fill="#63b8ff" stroke="#63b8ff" points="981.88,-135.32 990.43,-129.05 979.84,-128.62 981.88,-135.32"/>
</a>
</g>
</g>
<!-- Node20 -->
<g id="Node000020" class="node">
<title>Node20</title>
<g id="a_Node000020"><a xlink:title=" ">
<polygon fill="#e0e0e0" stroke="#999999" points="1321.5,-129 1277.5,-129 1277.5,-110 1321.5,-110 1321.5,-129"/>
<text text-anchor="middle" x="1299.5" y="-117" font-family="Helvetica,sans-Serif" font-size="10.00">limits</text>
</a>
</g>
</g>
<!-- Node19&#45;&gt;Node20 -->
<g id="edge30_Node000019_Node000020" class="edge">
<title>Node19&#45;&gt;Node20</title>
<g id="a_edge30_Node000019_Node000020"><a xlink:title=" ">
<path fill="none" stroke="#63b8ff" d="M881.53,-171.44C897.34,-169.31 914.6,-167.02 930.5,-165 1063.71,-148.04 1097.19,-145.21 1230.5,-129 1242.52,-127.54 1255.71,-125.92 1267.31,-124.49"/>
<polygon fill="#63b8ff" stroke="#63b8ff" points="1267.94,-127.94 1277.44,-123.24 1267.09,-120.99 1267.94,-127.94"/>
</a>
</g>
</g>
<!-- Node19&#45;&gt;Node21 -->
<g id="edge33_Node000019_Node000021" class="edge">
<title>Node19&#45;&gt;Node21</title>
<g id="a_edge33_Node000019_Node000021"><a xlink:title=" ">
<path fill="none" stroke="#63b8ff" d="M798.95,-164.99C780.28,-155.49 755.76,-143.02 737.44,-133.69"/>
<polygon fill="#63b8ff" stroke="#63b8ff" points="738.98,-130.55 728.48,-129.14 735.81,-136.79 738.98,-130.55"/>
</a>
</g>
</g>
<!-- Node22 -->
<g id="Node000022" class="node">
<title>Node22</title>
<g id="a_Node000022"><a xlink:title=" ">
<polygon fill="#e0e0e0" stroke="#999999" points="859,-129 794,-129 794,-110 859,-110 859,-129"/>
<text text-anchor="middle" x="826.5" y="-117" font-family="Helvetica,sans-Serif" font-size="10.00">functional</text>
</a>
</g>
</g>
<!-- Node19&#45;&gt;Node22 -->
<g id="edge36_Node000019_Node000022" class="edge">
<title>Node19&#45;&gt;Node22</title>
<g id="a_edge36_Node000019_Node000022"><a xlink:title=" ">
<path fill="none" stroke="#63b8ff" d="M826.5,-164.84C826.5,-157.21 826.5,-147.7 826.5,-139.45"/>
<polygon fill="#63b8ff" stroke="#63b8ff" points="830,-139.27 826.5,-129.27 823,-139.27 830,-139.27"/>
</a>
</g>
</g>
<!-- Node26&#45;&gt;Node6 -->
<g id="edge56_Node000026_Node000006" class="edge">
<title>Node26&#45;&gt;Node6</title>
<g id="a_edge56_Node000026_Node000006"><a xlink:title=" ">
<path fill="none" stroke="#63b8ff" d="M1503.76,-170.42C1493.11,-155.29 1468.68,-124.13 1439.5,-110 1387.85,-84.99 1226.72,-72.98 1139.3,-68.18"/>
<polygon fill="#63b8ff" stroke="#63b8ff" points="1139.44,-64.68 1129.27,-67.64 1139.07,-71.67 1139.44,-64.68"/>
</a>
</g>
</g>
<!-- Node26&#45;&gt;Node20 -->
<g id="edge57_Node000026_Node000020" class="edge">
<title>Node26&#45;&gt;Node20</title>
<g id="a_edge57_Node000026_Node000020"><a xlink:title=" ">
<path fill="none" stroke="#63b8ff" d="M1478.96,-170.49C1439.62,-159.53 1371.53,-140.56 1331.49,-129.41"/>
<polygon fill="#63b8ff" stroke="#63b8ff" points="1332.28,-126 1321.71,-126.69 1330.4,-132.74 1332.28,-126"/>
</a>
</g>
</g>
<!-- Node27 -->
<g id="Node000027" class="node">
<title>Node27</title>
<g id="a_Node000027"><a xlink:title=" ">
<polygon fill="#e0e0e0" stroke="#999999" points="1551,-129 1492,-129 1492,-110 1551,-110 1551,-129"/>
<text text-anchor="middle" x="1521.5" y="-117" font-family="Helvetica,sans-Serif" font-size="10.00">numbers</text>
</a>
</g>
</g>
<!-- Node26&#45;&gt;Node27 -->
<g id="edge58_Node000026_Node000027" class="edge">
<title>Node26&#45;&gt;Node27</title>
<g id="a_edge58_Node000026_Node000027"><a xlink:title=" ">
<path fill="none" stroke="#63b8ff" d="M1511.27,-170.37C1512.95,-162.16 1515.54,-149.54 1517.69,-139.05"/>
<polygon fill="#63b8ff" stroke="#63b8ff" points="1521.14,-139.67 1519.72,-129.17 1514.28,-138.26 1521.14,-139.67"/>
</a>
</g>
</g>
<!-- Node28&#45;&gt;Node5 -->
<g id="edge61_Node000028_Node000005" class="edge">
<title>Node28&#45;&gt;Node5</title>
<g id="a_edge61_Node000028_Node000005"><a xlink:title=" ">
<path fill="none" stroke="#63b8ff" d="M66.04,-285.63C80.02,-258.29 122.68,-174.9 141.46,-138.18"/>
<polygon fill="#63b8ff" stroke="#63b8ff" points="144.64,-139.64 146.08,-129.14 138.41,-136.45 144.64,-139.64"/>
</a>
</g>
</g>
</g>
</svg>
