<?xml version="1.0" encoding="UTF-8" standalone="no"?>
<!DOCTYPE svg PUBLIC "-//W3C//DTD SVG 1.1//EN"
 "http://www.w3.org/Graphics/SVG/1.1/DTD/svg11.dtd">
<!-- Generated by graphviz version 2.43.0 (0)
 -->
<!-- Title: qugar::Tolerance::value Pages: 1 -->
<svg width="508pt" height="101pt"
 viewBox="0.00 0.00 508.00 101.00" xmlns="http://www.w3.org/2000/svg" xmlns:xlink="http://www.w3.org/1999/xlink">
<g id="graph0" class="graph" transform="scale(1 1) rotate(0) translate(4 97)">
<title>qugar::Tolerance::value</title>
<!-- Node1 -->
<g id="Node000001" class="node">
<title>Node1</title>
<g id="a_Node000001"><a xlink:title="Returns the real tolerance value.">
<polygon fill="#999999" stroke="#666666" points="500,-56 370,-56 370,-37 500,-37 500,-56"/>
<text text-anchor="middle" x="435" y="-44" font-family="Helvetica,sans-Serif" font-size="10.00">qugar::Tolerance::value</text>
</a>
</g>
</g>
<!-- Node2 -->
<g id="Node000002" class="node">
<title>Node2</title>
<g id="a_Node000002"><a xlink:href="../../db/d28/classqugar_1_1Tolerance.html#afcf43fc9baeb86b9fb3f353a9abfe121" target="_top" xlink:title="Constructor.">
<polygon fill="white" stroke="#666666" points="334,-56 185,-56 185,-37 334,-37 334,-56"/>
<text text-anchor="middle" x="259.5" y="-44" font-family="Helvetica,sans-Serif" font-size="10.00">qugar::Tolerance::Tolerance</text>
</a>
</g>
</g>
<!-- Node1&#45;&gt;Node2 -->
<g id="edge1_Node000001_Node000002" class="edge">
<title>Node1&#45;&gt;Node2</title>
<g id="a_edge1_Node000001_Node000002"><a xlink:title=" ">
<path fill="none" stroke="#63b8ff" d="M359.63,-46.5C351.14,-46.5 342.49,-46.5 334.01,-46.5"/>
<polygon fill="#63b8ff" stroke="#63b8ff" points="359.89,-50 369.89,-46.5 359.89,-43 359.89,-50"/>
</a>
</g>
</g>
<!-- Node3 -->
<g id="Node000003" class="node">
<title>Node3</title>
<g id="a_Node000003"><a xlink:href="../../db/d28/classqugar_1_1Tolerance.html#ab67b601cb39a07228b3cbe10ef77e5f8" target="_top" xlink:title="Compares if two values are equal up to the different absolute and relative tolerances.">
<polygon fill="white" stroke="#666666" points="148.5,-93 0.5,-93 0.5,-74 148.5,-74 148.5,-93"/>
<text text-anchor="middle" x="74.5" y="-81" font-family="Helvetica,sans-Serif" font-size="10.00">qugar::Tolerance::equal_rel</text>
</a>
</g>
</g>
<!-- Node2&#45;&gt;Node3 -->
<g id="edge2_Node000002_Node000003" class="edge">
<title>Node2&#45;&gt;Node3</title>
<g id="a_edge2_Node000002_Node000003"><a xlink:title=" ">
<path fill="none" stroke="#63b8ff" d="M201.54,-58.02C176.25,-63.13 146.84,-69.08 122.79,-73.94"/>
<polygon fill="#63b8ff" stroke="#63b8ff" points="202.26,-61.44 211.37,-56.03 200.88,-54.58 202.26,-61.44"/>
</a>
</g>
</g>
<!-- Node4 -->
<g id="Node000004" class="node">
<title>Node4</title>
<g id="a_Node000004"><a xlink:href="../../db/d28/classqugar_1_1Tolerance.html#a79697dacd33fe7af509da59d796724e3" target="_top" xlink:title="Constructor. Creates a new class instance using the largest of the two given tolerances.">
<polygon fill="white" stroke="#666666" points="149,-56 0,-56 0,-37 149,-37 149,-56"/>
<text text-anchor="middle" x="74.5" y="-44" font-family="Helvetica,sans-Serif" font-size="10.00">qugar::Tolerance::Tolerance</text>
</a>
</g>
</g>
<!-- Node2&#45;&gt;Node4 -->
<g id="edge3_Node000002_Node000004" class="edge">
<title>Node2&#45;&gt;Node4</title>
<g id="a_edge3_Node000002_Node000004"><a xlink:title=" ">
<path fill="none" stroke="#63b8ff" d="M174.61,-46.5C166.16,-46.5 157.62,-46.5 149.29,-46.5"/>
<polygon fill="#63b8ff" stroke="#63b8ff" points="174.86,-50 184.86,-46.5 174.86,-43 174.86,-50"/>
</a>
</g>
</g>
<!-- Node5 -->
<g id="Node000005" class="node">
<title>Node5</title>
<g id="a_Node000005"><a xlink:href="../../db/d28/classqugar_1_1Tolerance.html#ab3923ad80c4e201919fd9937c4eba440" target="_top" xlink:title="Resets the tolerance value as the maximum between the current tolerance_ and tol.">
<polygon fill="white" stroke="#666666" points="143,-19 6,-19 6,0 143,0 143,-19"/>
<text text-anchor="middle" x="74.5" y="-7" font-family="Helvetica,sans-Serif" font-size="10.00">qugar::Tolerance::update</text>
</a>
</g>
</g>
<!-- Node2&#45;&gt;Node5 -->
<g id="edge4_Node000002_Node000005" class="edge">
<title>Node2&#45;&gt;Node5</title>
<g id="a_edge4_Node000002_Node000005"><a xlink:title=" ">
<path fill="none" stroke="#63b8ff" d="M201.54,-34.98C176.25,-29.87 146.84,-23.92 122.79,-19.06"/>
<polygon fill="#63b8ff" stroke="#63b8ff" points="200.88,-38.42 211.37,-36.97 202.26,-31.56 200.88,-38.42"/>
</a>
</g>
</g>
</g>
</svg>
