<?xml version="1.0" encoding="UTF-8" standalone="no"?>
<!DOCTYPE svg PUBLIC "-//W3C//DTD SVG 1.1//EN"
 "http://www.w3.org/Graphics/SVG/1.1/DTD/svg11.dtd">
<!-- Generated by graphviz version 2.43.0 (0)
 -->
<!-- Title: qugar::Tolerance::update Pages: 1 -->
<svg width="496pt" height="27pt"
 viewBox="0.00 0.00 496.00 27.00" xmlns="http://www.w3.org/2000/svg" xmlns:xlink="http://www.w3.org/1999/xlink">
<g id="graph0" class="graph" transform="scale(1 1) rotate(0) translate(4 23)">
<title>qugar::Tolerance::update</title>
<!-- Node1 -->
<g id="Node000001" class="node">
<title>Node1</title>
<g id="a_Node000001"><a xlink:title="Resets the tolerance value as the maximum between the current tolerance_ and tol.">
<polygon fill="#999999" stroke="#666666" points="137,-19 0,-19 0,0 137,0 137,-19"/>
<text text-anchor="middle" x="68.5" y="-7" font-family="Helvetica,sans-Serif" font-size="10.00">qugar::Tolerance::update</text>
</a>
</g>
</g>
<!-- Node2 -->
<g id="Node000002" class="node">
<title>Node2</title>
<g id="a_Node000002"><a xlink:href="../../db/d28/classqugar_1_1Tolerance.html#afcf43fc9baeb86b9fb3f353a9abfe121" target="_top" xlink:title="Constructor.">
<polygon fill="white" stroke="#666666" points="322,-19 173,-19 173,0 322,0 322,-19"/>
<text text-anchor="middle" x="247.5" y="-7" font-family="Helvetica,sans-Serif" font-size="10.00">qugar::Tolerance::Tolerance</text>
</a>
</g>
</g>
<!-- Node1&#45;&gt;Node2 -->
<g id="edge1_Node000001_Node000002" class="edge">
<title>Node1&#45;&gt;Node2</title>
<g id="a_edge1_Node000001_Node000002"><a xlink:title=" ">
<path fill="none" stroke="#63b8ff" d="M137.17,-9.5C145.59,-9.5 154.28,-9.5 162.9,-9.5"/>
<polygon fill="#63b8ff" stroke="#63b8ff" points="162.97,-13 172.97,-9.5 162.97,-6 162.97,-13"/>
</a>
</g>
</g>
<!-- Node3 -->
<g id="Node000003" class="node">
<title>Node3</title>
<g id="a_Node000003"><a xlink:href="../../db/d28/classqugar_1_1Tolerance.html#ae20f63cbe47d964e1f748deaf30ef21f" target="_top" xlink:title="Returns the real tolerance value.">
<polygon fill="white" stroke="#666666" points="488,-19 358,-19 358,0 488,0 488,-19"/>
<text text-anchor="middle" x="423" y="-7" font-family="Helvetica,sans-Serif" font-size="10.00">qugar::Tolerance::value</text>
</a>
</g>
</g>
<!-- Node2&#45;&gt;Node3 -->
<g id="edge2_Node000002_Node000003" class="edge">
<title>Node2&#45;&gt;Node3</title>
<g id="a_edge2_Node000002_Node000003"><a xlink:title=" ">
<path fill="none" stroke="#63b8ff" d="M322.08,-9.5C330.55,-9.5 339.19,-9.5 347.67,-9.5"/>
<polygon fill="#63b8ff" stroke="#63b8ff" points="347.91,-13 357.91,-9.5 347.91,-6 347.91,-13"/>
</a>
</g>
</g>
</g>
</svg>
