<?xml version="1.0" encoding="UTF-8" standalone="no"?>
<!DOCTYPE svg PUBLIC "-//W3C//DTD SVG 1.1//EN"
 "http://www.w3.org/Graphics/SVG/1.1/DTD/svg11.dtd">
<!-- Generated by graphviz version 2.43.0 (0)
 -->
<!-- Title: qugar::Tolerance::Tolerance Pages: 1 -->
<svg width="508pt" height="27pt"
 viewBox="0.00 0.00 508.00 27.00" xmlns="http://www.w3.org/2000/svg" xmlns:xlink="http://www.w3.org/1999/xlink">
<g id="graph0" class="graph" transform="scale(1 1) rotate(0) translate(4 23)">
<title>qugar::Tolerance::Tolerance</title>
<!-- Node1 -->
<g id="Node000001" class="node">
<title>Node1</title>
<g id="a_Node000001"><a xlink:title="Constructor. Creates a new class instance using the largest of the two given tolerances.">
<polygon fill="#999999" stroke="#666666" points="149,-19 0,-19 0,0 149,0 149,-19"/>
<text text-anchor="middle" x="74.5" y="-7" font-family="Helvetica,sans-Serif" font-size="10.00">qugar::Tolerance::Tolerance</text>
</a>
</g>
</g>
<!-- Node2 -->
<g id="Node000002" class="node">
<title>Node2</title>
<g id="a_Node000002"><a xlink:href="../../db/d28/classqugar_1_1Tolerance.html#afcf43fc9baeb86b9fb3f353a9abfe121" target="_top" xlink:title="Constructor.">
<polygon fill="white" stroke="#666666" points="334,-19 185,-19 185,0 334,0 334,-19"/>
<text text-anchor="middle" x="259.5" y="-7" font-family="Helvetica,sans-Serif" font-size="10.00">qugar::Tolerance::Tolerance</text>
</a>
</g>
</g>
<!-- Node1&#45;&gt;Node2 -->
<g id="edge1_Node000001_Node000002" class="edge">
<title>Node1&#45;&gt;Node2</title>
<g id="a_edge1_Node000001_Node000002"><a xlink:title=" ">
<path fill="none" stroke="#63b8ff" d="M149.14,-9.5C157.47,-9.5 166.01,-9.5 174.46,-9.5"/>
<polygon fill="#63b8ff" stroke="#63b8ff" points="174.71,-13 184.71,-9.5 174.71,-6 174.71,-13"/>
</a>
</g>
</g>
<!-- Node3 -->
<g id="Node000003" class="node">
<title>Node3</title>
<g id="a_Node000003"><a xlink:href="../../db/d28/classqugar_1_1Tolerance.html#ae20f63cbe47d964e1f748deaf30ef21f" target="_top" xlink:title="Returns the real tolerance value.">
<polygon fill="white" stroke="#666666" points="500,-19 370,-19 370,0 500,0 500,-19"/>
<text text-anchor="middle" x="435" y="-7" font-family="Helvetica,sans-Serif" font-size="10.00">qugar::Tolerance::value</text>
</a>
</g>
</g>
<!-- Node2&#45;&gt;Node3 -->
<g id="edge2_Node000002_Node000003" class="edge">
<title>Node2&#45;&gt;Node3</title>
<g id="a_edge2_Node000002_Node000003"><a xlink:title=" ">
<path fill="none" stroke="#63b8ff" d="M334.08,-9.5C342.55,-9.5 351.19,-9.5 359.67,-9.5"/>
<polygon fill="#63b8ff" stroke="#63b8ff" points="359.91,-13 369.91,-9.5 359.91,-6 359.91,-13"/>
</a>
</g>
</g>
</g>
</svg>
