<?xml version="1.0" encoding="UTF-8" standalone="no"?>
<!DOCTYPE svg PUBLIC "-//W3C//DTD SVG 1.1//EN"
 "http://www.w3.org/Graphics/SVG/1.1/DTD/svg11.dtd">
<!-- Generated by graphviz version 2.43.0 (0)
 -->
<!-- Title: main Pages: 1 -->
<svg width="225pt" height="124pt"
 viewBox="0.00 0.00 225.00 123.50" xmlns="http://www.w3.org/2000/svg" xmlns:xlink="http://www.w3.org/1999/xlink">
<g id="graph0" class="graph" transform="scale(1 1) rotate(0) translate(4 119.5)">
<title>main</title>
<!-- Node1 -->
<g id="Node000001" class="node">
<title>Node1</title>
<g id="a_Node000001"><a xlink:title=" ">
<polygon fill="#999999" stroke="#666666" points="41,-72.5 0,-72.5 0,-53.5 41,-53.5 41,-72.5"/>
<text text-anchor="middle" x="20.5" y="-60.5" font-family="Helvetica,sans-Serif" font-size="10.00">main</text>
</a>
</g>
</g>
<!-- Node2 -->
<g id="Node000002" class="node">
<title>Node2</title>
<g id="a_Node000002"><a xlink:href="../../d0/d6b/namespacequgar.html#ad445be012c036b0ba21f2ea3ef1d4b2a" target="_top" xlink:title=" ">
<polygon fill="white" stroke="#666666" points="217,-115.5 77,-115.5 77,-96.5 217,-96.5 217,-115.5"/>
<text text-anchor="middle" x="147" y="-103.5" font-family="Helvetica,sans-Serif" font-size="10.00">qugar::create_quadrature</text>
</a>
</g>
</g>
<!-- Node1&#45;&gt;Node2 -->
<g id="edge1_Node000001_Node000002" class="edge">
<title>Node1&#45;&gt;Node2</title>
<g id="a_edge1_Node000001_Node000002"><a xlink:title=" ">
<path fill="none" stroke="#63b8ff" d="M41.01,-72.23C51.53,-77.01 64.82,-82.71 77,-87 83.61,-89.33 90.67,-91.55 97.64,-93.61"/>
<polygon fill="#63b8ff" stroke="#63b8ff" points="97.17,-97.11 107.74,-96.49 99.09,-90.38 97.17,-97.11"/>
</a>
</g>
</g>
<!-- Node3 -->
<g id="Node000003" class="node">
<title>Node3</title>
<g id="a_Node000003"><a xlink:href="../../d0/d6b/namespacequgar.html#a7bf54140d30528eb2a67aac55bb762cf" target="_top" xlink:title=" ">
<polygon fill="white" stroke="#666666" points="209,-78 85,-78 85,-48 209,-48 209,-78"/>
<text text-anchor="start" x="93" y="-66" font-family="Helvetica,sans-Serif" font-size="10.00">qugar::create_unfitted</text>
<text text-anchor="middle" x="147" y="-55" font-family="Helvetica,sans-Serif" font-size="10.00">_bound_quadrature</text>
</a>
</g>
</g>
<!-- Node1&#45;&gt;Node3 -->
<g id="edge2_Node000001_Node000003" class="edge">
<title>Node1&#45;&gt;Node3</title>
<g id="a_edge2_Node000001_Node000003"><a xlink:title=" ">
<path fill="none" stroke="#63b8ff" d="M41.23,-63C50.55,-63 62.3,-63 74.55,-63"/>
<polygon fill="#63b8ff" stroke="#63b8ff" points="74.9,-66.5 84.9,-63 74.9,-59.5 74.9,-66.5"/>
</a>
</g>
</g>
<!-- Node4 -->
<g id="Node000004" class="node">
<title>Node4</title>
<g id="a_Node000004"><a xlink:href="../../df/d58/classqugar_1_1UnfittedDomain.html#a067552ebee9e21562fa7d464a51c4678" target="_top" xlink:title=" ">
<polygon fill="white" stroke="#666666" points="211,-30 83,-30 83,0 211,0 211,-30"/>
<text text-anchor="start" x="91" y="-18" font-family="Helvetica,sans-Serif" font-size="10.00">qugar::UnfittedDomain</text>
<text text-anchor="middle" x="147" y="-7" font-family="Helvetica,sans-Serif" font-size="10.00">::get_cut_cells</text>
</a>
</g>
</g>
<!-- Node1&#45;&gt;Node4 -->
<g id="edge3_Node000001_Node000004" class="edge">
<title>Node1&#45;&gt;Node4</title>
<g id="a_edge3_Node000001_Node000004"><a xlink:title=" ">
<path fill="none" stroke="#63b8ff" d="M41.13,-54.09C51.69,-49.41 64.97,-43.69 77,-39 81.75,-37.15 86.72,-35.29 91.7,-33.46"/>
<polygon fill="#63b8ff" stroke="#63b8ff" points="93.06,-36.7 101.28,-30.02 90.69,-30.11 93.06,-36.7"/>
</a>
</g>
</g>
</g>
</svg>
