<?xml version="1.0" encoding="UTF-8" standalone="no"?>
<!DOCTYPE svg PUBLIC "-//W3C//DTD SVG 1.1//EN"
 "http://www.w3.org/Graphics/SVG/1.1/DTD/svg11.dtd">
<!-- Generated by graphviz version 2.43.0 (0)
 -->
<!-- Title: main Pages: 1 -->
<svg width="238pt" height="134pt"
 viewBox="0.00 0.00 238.00 134.00" xmlns="http://www.w3.org/2000/svg" xmlns:xlink="http://www.w3.org/1999/xlink">
<g id="graph0" class="graph" transform="scale(1 1) rotate(0) translate(4 130)">
<title>main</title>
<!-- Node1 -->
<g id="Node000001" class="node">
<title>Node1</title>
<g id="a_Node000001"><a xlink:title=" ">
<polygon fill="#999999" stroke="#666666" points="41,-72.5 0,-72.5 0,-53.5 41,-53.5 41,-72.5"/>
<text text-anchor="middle" x="20.5" y="-60.5" font-family="Helvetica,sans-Serif" font-size="10.00">main</text>
</a>
</g>
</g>
<!-- Node2 -->
<g id="Node000002" class="node">
<title>Node2</title>
<g id="a_Node000002"><a xlink:href="../../d2/d5e/namespacequgar_1_1impl.html#acb0d1bcc709c42fe6f5780b26b4ab3fe" target="_top" xlink:title=" ">
<polygon fill="white" stroke="#666666" points="208,-126 99,-126 99,-96 208,-96 208,-126"/>
<text text-anchor="start" x="107" y="-114" font-family="Helvetica,sans-Serif" font-size="10.00">qugar::impl::create</text>
<text text-anchor="middle" x="153.5" y="-103" font-family="Helvetica,sans-Serif" font-size="10.00">_quadrature</text>
</a>
</g>
</g>
<!-- Node1&#45;&gt;Node2 -->
<g id="edge1_Node000001_Node000002" class="edge">
<title>Node1&#45;&gt;Node2</title>
<g id="a_edge1_Node000001_Node000002"><a xlink:title=" ">
<path fill="none" stroke="#63b8ff" d="M41.08,-72.04C51.62,-76.76 64.91,-82.48 77,-87 82.15,-88.93 87.54,-90.84 92.96,-92.69"/>
<polygon fill="#63b8ff" stroke="#63b8ff" points="92.12,-96.1 102.71,-95.95 94.34,-89.46 92.12,-96.1"/>
</a>
</g>
</g>
<!-- Node3 -->
<g id="Node000003" class="node">
<title>Node3</title>
<g id="a_Node000003"><a xlink:href="../../d2/d5e/namespacequgar_1_1impl.html#a9745b5890413ee8ef0145304ba308eba" target="_top" xlink:title=" ">
<polygon fill="white" stroke="#666666" points="230,-78 77,-78 77,-48 230,-48 230,-78"/>
<text text-anchor="start" x="85" y="-66" font-family="Helvetica,sans-Serif" font-size="10.00">qugar::impl::create</text>
<text text-anchor="middle" x="153.5" y="-55" font-family="Helvetica,sans-Serif" font-size="10.00">_unfitted_bound_quadrature</text>
</a>
</g>
</g>
<!-- Node1&#45;&gt;Node3 -->
<g id="edge2_Node000001_Node000003" class="edge">
<title>Node1&#45;&gt;Node3</title>
<g id="a_edge2_Node000001_Node000003"><a xlink:title=" ">
<path fill="none" stroke="#63b8ff" d="M41.11,-63C48.42,-63 57.27,-63 66.74,-63"/>
<polygon fill="#63b8ff" stroke="#63b8ff" points="66.79,-66.5 76.79,-63 66.79,-59.5 66.79,-66.5"/>
</a>
</g>
</g>
<!-- Node4 -->
<g id="Node000004" class="node">
<title>Node4</title>
<g id="a_Node000004"><a xlink:href="../../df/d58/classqugar_1_1UnfittedDomain.html#a8a55ae8d412e4b104629b03945fa3477" target="_top" xlink:title=" ">
<polygon fill="white" stroke="#666666" points="217.5,-30 89.5,-30 89.5,0 217.5,0 217.5,-30"/>
<text text-anchor="start" x="97.5" y="-18" font-family="Helvetica,sans-Serif" font-size="10.00">qugar::UnfittedDomain</text>
<text text-anchor="middle" x="153.5" y="-7" font-family="Helvetica,sans-Serif" font-size="10.00">::get_cut_cells</text>
</a>
</g>
</g>
<!-- Node1&#45;&gt;Node4 -->
<g id="edge3_Node000001_Node000004" class="edge">
<title>Node1&#45;&gt;Node4</title>
<g id="a_edge3_Node000001_Node000004"><a xlink:title=" ">
<path fill="none" stroke="#63b8ff" d="M41.08,-53.96C51.62,-49.24 64.91,-43.52 77,-39 82.15,-37.07 87.54,-35.16 92.96,-33.31"/>
<polygon fill="#63b8ff" stroke="#63b8ff" points="94.34,-36.54 102.71,-30.05 92.12,-29.9 94.34,-36.54"/>
</a>
</g>
</g>
</g>
</svg>
