<?xml version="1.0" encoding="UTF-8" standalone="no"?>
<!DOCTYPE svg PUBLIC "-//W3C//DTD SVG 1.1//EN"
 "http://www.w3.org/Graphics/SVG/1.1/DTD/svg11.dtd">
<!-- Generated by graphviz version 2.43.0 (0)
 -->
<!-- Title: qugar::impl::funcs::PlaneBzr&lt; dim &gt; Pages: 1 -->
<svg width="274pt" height="236pt"
 viewBox="0.00 0.00 274.00 236.00" xmlns="http://www.w3.org/2000/svg" xmlns:xlink="http://www.w3.org/1999/xlink">
<g id="graph0" class="graph" transform="scale(1 1) rotate(0) translate(4 232)">
<title>qugar::impl::funcs::PlaneBzr&lt; dim &gt;</title>
<!-- Node1 -->
<g id="Node000001" class="node">
<title>Node1</title>
<g id="a_Node000001"><a xlink:title="Plane function.">
<polygon fill="#999999" stroke="#666666" points="179,-30 72,-30 72,0 179,0 179,-30"/>
<text text-anchor="start" x="80" y="-18" font-family="Helvetica,sans-Serif" font-size="10.00">qugar::impl::funcs</text>
<text text-anchor="middle" x="125.5" y="-7" font-family="Helvetica,sans-Serif" font-size="10.00">::PlaneBzr&lt; dim &gt;</text>
</a>
</g>
</g>
<!-- Node2 -->
<g id="Node000002" class="node">
<title>Node2</title>
<g id="a_Node000002"><a xlink:href="../../db/d5b/classqugar_1_1impl_1_1funcs_1_1PlaneBase.html" target="_top" xlink:title="Plane base class.">
<polygon fill="white" stroke="#666666" points="115,-96 0,-96 0,-66 115,-66 115,-96"/>
<text text-anchor="start" x="8" y="-84" font-family="Helvetica,sans-Serif" font-size="10.00">qugar::impl::funcs</text>
<text text-anchor="middle" x="57.5" y="-73" font-family="Helvetica,sans-Serif" font-size="10.00">::PlaneBase&lt; dim &gt;</text>
</a>
</g>
</g>
<!-- Node2&#45;&gt;Node1 -->
<g id="edge1_Node000001_Node000002" class="edge">
<title>Node2&#45;&gt;Node1</title>
<g id="a_edge1_Node000001_Node000002"><a xlink:title=" ">
<path fill="none" stroke="#63b8ff" d="M79.89,-58.92C89.92,-49.49 101.48,-38.61 110.45,-30.16"/>
<polygon fill="#63b8ff" stroke="#63b8ff" points="77.47,-56.39 72.59,-65.8 82.27,-61.49 77.47,-56.39"/>
</a>
</g>
</g>
<!-- Node3 -->
<g id="Node000003" class="node">
<title>Node3</title>
<g id="a_Node000003"><a xlink:href="../../de/dca/classqugar_1_1impl_1_1BezierTP.html" target="_top" xlink:title=" ">
<polygon fill="white" stroke="#666666" points="254,-96 133,-96 133,-66 254,-66 254,-96"/>
<text text-anchor="start" x="141" y="-84" font-family="Helvetica,sans-Serif" font-size="10.00">qugar::impl::BezierTP</text>
<text text-anchor="middle" x="193.5" y="-73" font-family="Helvetica,sans-Serif" font-size="10.00">&lt; dim, 1 &gt;</text>
</a>
</g>
</g>
<!-- Node3&#45;&gt;Node1 -->
<g id="edge2_Node000001_Node000003" class="edge">
<title>Node3&#45;&gt;Node1</title>
<g id="a_edge2_Node000001_Node000003"><a xlink:title=" ">
<path fill="none" stroke="#63b8ff" d="M171.11,-58.92C161.08,-49.49 149.52,-38.61 140.55,-30.16"/>
<polygon fill="#63b8ff" stroke="#63b8ff" points="168.73,-61.49 178.41,-65.8 173.53,-56.39 168.73,-61.49"/>
</a>
</g>
</g>
<!-- Node4 -->
<g id="Node000004" class="node">
<title>Node4</title>
<g id="a_Node000004"><a xlink:href="../../d2/d05/classqugar_1_1impl_1_1PolynomialTP.html" target="_top" xlink:title="Base class for tensor&#45;product polynomial functions.">
<polygon fill="white" stroke="#666666" points="266,-162 121,-162 121,-132 266,-132 266,-162"/>
<text text-anchor="start" x="129" y="-150" font-family="Helvetica,sans-Serif" font-size="10.00">qugar::impl::PolynomialTP</text>
<text text-anchor="middle" x="193.5" y="-139" font-family="Helvetica,sans-Serif" font-size="10.00">&lt; dim, range &gt;</text>
</a>
</g>
</g>
<!-- Node4&#45;&gt;Node3 -->
<g id="edge3_Node000003_Node000004" class="edge">
<title>Node4&#45;&gt;Node3</title>
<g id="a_edge3_Node000003_Node000004"><a xlink:title=" ">
<path fill="none" stroke="#63b8ff" d="M193.5,-121.54C193.5,-112.96 193.5,-103.61 193.5,-96.16"/>
<polygon fill="#63b8ff" stroke="#63b8ff" points="190,-121.8 193.5,-131.8 197,-121.8 190,-121.8"/>
</a>
</g>
</g>
<!-- Node5 -->
<g id="Node000005" class="node">
<title>Node5</title>
<g id="a_Node000005"><a xlink:href="../../dd/d80/classqugar_1_1impl_1_1DomainFunc.html" target="_top" xlink:title="Domain functions.">
<polygon fill="white" stroke="#666666" points="263,-228 124,-228 124,-198 263,-198 263,-228"/>
<text text-anchor="start" x="132" y="-216" font-family="Helvetica,sans-Serif" font-size="10.00">qugar::impl::DomainFunc</text>
<text text-anchor="middle" x="193.5" y="-205" font-family="Helvetica,sans-Serif" font-size="10.00">&lt; dim, range &gt;</text>
</a>
</g>
</g>
<!-- Node5&#45;&gt;Node4 -->
<g id="edge4_Node000004_Node000005" class="edge">
<title>Node5&#45;&gt;Node4</title>
<g id="a_edge4_Node000004_Node000005"><a xlink:title=" ">
<path fill="none" stroke="#63b8ff" d="M193.5,-187.54C193.5,-178.96 193.5,-169.61 193.5,-162.16"/>
<polygon fill="#63b8ff" stroke="#63b8ff" points="190,-187.8 193.5,-197.8 197,-187.8 190,-187.8"/>
</a>
</g>
</g>
</g>
</svg>
