<?xml version="1.0" encoding="UTF-8" standalone="no"?>
<!DOCTYPE svg PUBLIC "-//W3C//DTD SVG 1.1//EN"
 "http://www.w3.org/Graphics/SVG/1.1/DTD/svg11.dtd">
<!-- Generated by graphviz version 2.43.0 (0)
 -->
<!-- Title: /__w/qugar/qugar/cpp/include/qugar/unfitted_domain.hpp Pages: 1 -->
<svg width="1494pt" height="401pt"
 viewBox="0.00 0.00 1493.50 401.00" xmlns="http://www.w3.org/2000/svg" xmlns:xlink="http://www.w3.org/1999/xlink">
<g id="graph0" class="graph" transform="scale(1 1) rotate(0) translate(4 397)">
<title>/__w/qugar/qugar/cpp/include/qugar/unfitted_domain.hpp</title>
<!-- Node1 -->
<g id="Node000001" class="node">
<title>Node1</title>
<g id="a_Node000001"><a xlink:title="Declaration of of UnfittedDomain class.">
<polygon fill="#999999" stroke="#666666" points="1214,-393 1088,-393 1088,-352 1214,-352 1214,-393"/>
<text text-anchor="start" x="1096" y="-381" font-family="Helvetica,sans-Serif" font-size="10.00">/__w/qugar/qugar/cpp</text>
<text text-anchor="start" x="1096" y="-370" font-family="Helvetica,sans-Serif" font-size="10.00">/include/qugar/unfitted</text>
<text text-anchor="middle" x="1151" y="-359" font-family="Helvetica,sans-Serif" font-size="10.00">_domain.hpp</text>
</a>
</g>
</g>
<!-- Node2 -->
<g id="Node000002" class="node">
<title>Node2</title>
<g id="a_Node000002"><a xlink:href="../../d6/d49/cart__grid__tp_8hpp.html" target="_top" xlink:title="Definition of Cartesian grid class.">
<polygon fill="white" stroke="#666666" points="748,-250 622,-250 622,-231 748,-231 748,-250"/>
<text text-anchor="middle" x="685" y="-238" font-family="Helvetica,sans-Serif" font-size="10.00">qugar/cart_grid_tp.hpp</text>
</a>
</g>
</g>
<!-- Node1&#45;&gt;Node2 -->
<g id="edge1_Node000001_Node000002" class="edge">
<title>Node1&#45;&gt;Node2</title>
<g id="a_edge1_Node000001_Node000002"><a xlink:title=" ">
<path fill="none" stroke="#63b8ff" d="M1087.82,-367.23C992.75,-360.01 818.06,-343.45 762,-316 734.69,-302.63 710.85,-275.95 697.2,-258.41"/>
<polygon fill="#63b8ff" stroke="#63b8ff" points="699.82,-256.08 691.02,-250.2 694.23,-260.29 699.82,-256.08"/>
</a>
</g>
</g>
<!-- Node7 -->
<g id="Node000007" class="node">
<title>Node7</title>
<g id="a_Node000007"><a xlink:title=" ">
<polygon fill="#e0e0e0" stroke="#999999" points="812.5,-19 759.5,-19 759.5,0 812.5,0 812.5,-19"/>
<text text-anchor="middle" x="786" y="-7" font-family="Helvetica,sans-Serif" font-size="10.00">cstddef</text>
</a>
</g>
</g>
<!-- Node1&#45;&gt;Node7 -->
<g id="edge48_Node000001_Node000007" class="edge">
<title>Node1&#45;&gt;Node7</title>
<g id="a_edge48_Node000001_Node000007"><a xlink:title=" ">
<path fill="none" stroke="#63b8ff" d="M1214.04,-360.66C1276.85,-345.82 1364,-312.44 1364,-241.5 1364,-241.5 1364,-241.5 1364,-118.5 1364,-63.21 950,-24.15 822.75,-13.45"/>
<polygon fill="#63b8ff" stroke="#63b8ff" points="822.97,-9.96 812.72,-12.62 822.39,-16.93 822.97,-9.96"/>
</a>
</g>
</g>
<!-- Node10 -->
<g id="Node000010" class="node">
<title>Node10</title>
<g id="a_Node000010"><a xlink:title=" ">
<polygon fill="#e0e0e0" stroke="#999999" points="85.5,-74 38.5,-74 38.5,-55 85.5,-55 85.5,-74"/>
<text text-anchor="middle" x="62" y="-62" font-family="Helvetica,sans-Serif" font-size="10.00">vector</text>
</a>
</g>
</g>
<!-- Node1&#45;&gt;Node10 -->
<g id="edge53_Node000001_Node000010" class="edge">
<title>Node1&#45;&gt;Node10</title>
<g id="a_edge53_Node000001_Node000010"><a xlink:title=" ">
<path fill="none" stroke="#63b8ff" d="M1087.89,-371.06C847.15,-368.56 0,-351.91 0,-241.5 0,-241.5 0,-241.5 0,-179 0,-140.32 28.07,-102.3 46.44,-81.57"/>
<polygon fill="#63b8ff" stroke="#63b8ff" points="49.18,-83.76 53.38,-74.03 44.03,-79.02 49.18,-83.76"/>
</a>
</g>
</g>
<!-- Node12 -->
<g id="Node000012" class="node">
<title>Node12</title>
<g id="a_Node000012"><a xlink:title=" ">
<polygon fill="#e0e0e0" stroke="#999999" points="850,-129 808,-129 808,-110 850,-110 850,-129"/>
<text text-anchor="middle" x="829" y="-117" font-family="Helvetica,sans-Serif" font-size="10.00">array</text>
</a>
</g>
</g>
<!-- Node1&#45;&gt;Node12 -->
<g id="edge46_Node000001_Node000012" class="edge">
<title>Node1&#45;&gt;Node12</title>
<g id="a_edge46_Node000001_Node000012"><a xlink:title=" ">
<path fill="none" stroke="#63b8ff" d="M1087.83,-369.84C1032.06,-365.77 950.45,-353.22 890,-316 831.78,-280.15 816.9,-259.77 795,-195 790.73,-182.37 790.73,-177.63 795,-165 798.56,-154.47 805.72,-144.48 812.55,-136.63"/>
<polygon fill="#63b8ff" stroke="#63b8ff" points="815.13,-139.01 819.39,-129.31 810.01,-134.23 815.13,-139.01"/>
</a>
</g>
</g>
<!-- Node15 -->
<g id="Node000015" class="node">
<title>Node15</title>
<g id="a_Node000015"><a xlink:title=" ">
<polygon fill="#e0e0e0" stroke="#999999" points="1214,-129 1162,-129 1162,-110 1214,-110 1214,-129"/>
<text text-anchor="middle" x="1188" y="-117" font-family="Helvetica,sans-Serif" font-size="10.00">cassert</text>
</a>
</g>
</g>
<!-- Node1&#45;&gt;Node15 -->
<g id="edge47_Node000001_Node000015" class="edge">
<title>Node1&#45;&gt;Node15</title>
<g id="a_edge47_Node000001_Node000015"><a xlink:title=" ">
<path fill="none" stroke="#63b8ff" d="M1164.48,-351.89C1170.74,-341.67 1177.55,-328.68 1181,-316 1198.06,-253.29 1193.53,-175.09 1190.15,-139.6"/>
<polygon fill="#63b8ff" stroke="#63b8ff" points="1193.59,-138.87 1189.08,-129.29 1186.63,-139.59 1193.59,-138.87"/>
</a>
</g>
</g>
<!-- Node16 -->
<g id="Node000016" class="node">
<title>Node16</title>
<g id="a_Node000016"><a xlink:title=" ">
<polygon fill="#e0e0e0" stroke="#999999" points="1144,-129 1094,-129 1094,-110 1144,-110 1144,-129"/>
<text text-anchor="middle" x="1119" y="-117" font-family="Helvetica,sans-Serif" font-size="10.00">cstdint</text>
</a>
</g>
</g>
<!-- Node1&#45;&gt;Node16 -->
<g id="edge49_Node000001_Node000016" class="edge">
<title>Node1&#45;&gt;Node16</title>
<g id="a_edge49_Node000001_Node000016"><a xlink:title=" ">
<path fill="none" stroke="#63b8ff" d="M1158.16,-351.76C1161.57,-341.29 1165.29,-328.11 1167,-316 1176.39,-249.51 1144.65,-172.71 1128.23,-138.52"/>
<polygon fill="#63b8ff" stroke="#63b8ff" points="1131.26,-136.75 1123.68,-129.34 1124.98,-139.85 1131.26,-136.75"/>
</a>
</g>
</g>
<!-- Node17 -->
<g id="Node000017" class="node">
<title>Node17</title>
<g id="a_Node000017"><a xlink:title=" ">
<polygon fill="#e0e0e0" stroke="#999999" points="1335.5,-129 1270.5,-129 1270.5,-110 1335.5,-110 1335.5,-129"/>
<text text-anchor="middle" x="1303" y="-117" font-family="Helvetica,sans-Serif" font-size="10.00">functional</text>
</a>
</g>
</g>
<!-- Node1&#45;&gt;Node17 -->
<g id="edge50_Node000001_Node000017" class="edge">
<title>Node1&#45;&gt;Node17</title>
<g id="a_edge50_Node000001_Node000017"><a xlink:title=" ">
<path fill="none" stroke="#63b8ff" d="M1170.32,-351.92C1199.51,-321.18 1254.57,-258.54 1284,-195 1292.4,-176.87 1297.47,-154.48 1300.24,-139"/>
<polygon fill="#63b8ff" stroke="#63b8ff" points="1303.69,-139.55 1301.86,-129.11 1296.78,-138.41 1303.69,-139.55"/>
</a>
</g>
</g>
<!-- Node21 -->
<g id="Node000021" class="node">
<title>Node21</title>
<g id="a_Node000021"><a xlink:title=" ">
<polygon fill="#e0e0e0" stroke="#999999" points="862,-189.5 804,-189.5 804,-170.5 862,-170.5 862,-189.5"/>
<text text-anchor="middle" x="833" y="-177.5" font-family="Helvetica,sans-Serif" font-size="10.00">memory</text>
</a>
</g>
</g>
<!-- Node1&#45;&gt;Node21 -->
<g id="edge51_Node000001_Node000021" class="edge">
<title>Node1&#45;&gt;Node21</title>
<g id="a_edge51_Node000001_Node000021"><a xlink:title=" ">
<path fill="none" stroke="#63b8ff" d="M1087.88,-362.27C1020.32,-349.09 914.58,-318.41 853,-250 840.63,-236.26 835.88,-215.3 834.07,-200.09"/>
<polygon fill="#63b8ff" stroke="#63b8ff" points="837.53,-199.45 833.19,-189.79 830.56,-200.05 837.53,-199.45"/>
</a>
</g>
</g>
<!-- Node23 -->
<g id="Node000023" class="node">
<title>Node23</title>
<g id="a_Node000023"><a xlink:href="../../d8/daf/unfitted__domain__binary__part_8hpp.html" target="_top" xlink:title="Declaration of of UnfittedDomain class.">
<polygon fill="white" stroke="#666666" points="1157.5,-316 1030.5,-316 1030.5,-286 1157.5,-286 1157.5,-316"/>
<text text-anchor="start" x="1038.5" y="-304" font-family="Helvetica,sans-Serif" font-size="10.00">qugar/unfitted_domain</text>
<text text-anchor="middle" x="1094" y="-293" font-family="Helvetica,sans-Serif" font-size="10.00">_binary_part.hpp</text>
</a>
</g>
</g>
<!-- Node1&#45;&gt;Node23 -->
<g id="edge37_Node000001_Node000023" class="edge">
<title>Node1&#45;&gt;Node23</title>
<g id="a_edge37_Node000001_Node000023"><a xlink:title=" ">
<path fill="none" stroke="#63b8ff" d="M1134.82,-351.77C1127.66,-343.04 1119.22,-332.75 1111.88,-323.8"/>
<polygon fill="#63b8ff" stroke="#63b8ff" points="1114.56,-321.55 1105.51,-316.04 1109.15,-325.99 1114.56,-321.55"/>
</a>
</g>
</g>
<!-- Node24 -->
<g id="Node000024" class="node">
<title>Node24</title>
<g id="a_Node000024"><a xlink:title=" ">
<polygon fill="#e0e0e0" stroke="#999999" points="1485.5,-310.5 1392.5,-310.5 1392.5,-291.5 1485.5,-291.5 1485.5,-310.5"/>
<text text-anchor="middle" x="1439" y="-298.5" font-family="Helvetica,sans-Serif" font-size="10.00">unordered_map</text>
</a>
</g>
</g>
<!-- Node1&#45;&gt;Node24 -->
<g id="edge52_Node000001_Node000024" class="edge">
<title>Node1&#45;&gt;Node24</title>
<g id="a_edge52_Node000001_Node000024"><a xlink:title=" ">
<path fill="none" stroke="#63b8ff" d="M1214.2,-356.25C1268.46,-343.15 1345.35,-324.6 1393.68,-312.94"/>
<polygon fill="#63b8ff" stroke="#63b8ff" points="1394.64,-316.31 1403.54,-310.56 1392.99,-309.5 1394.64,-316.31"/>
</a>
</g>
</g>
<!-- Node3 -->
<g id="Node000003" class="node">
<title>Node3</title>
<g id="a_Node000003"><a xlink:href="../../d5/d90/bbox_8hpp.html" target="_top" xlink:title="Definition of Cartesian bounding box class.">
<polygon fill="white" stroke="#666666" points="672,-189.5 580,-189.5 580,-170.5 672,-170.5 672,-189.5"/>
<text text-anchor="middle" x="626" y="-177.5" font-family="Helvetica,sans-Serif" font-size="10.00">qugar/bbox.hpp</text>
</a>
</g>
</g>
<!-- Node2&#45;&gt;Node3 -->
<g id="edge2_Node000002_Node000003" class="edge">
<title>Node2&#45;&gt;Node3</title>
<g id="a_edge2_Node000002_Node000003"><a xlink:title=" ">
<path fill="none" stroke="#63b8ff" d="M676.29,-230.87C667.32,-221.97 653.12,-207.89 642.09,-196.95"/>
<polygon fill="#63b8ff" stroke="#63b8ff" points="644.31,-194.22 634.74,-189.67 639.38,-199.19 644.31,-194.22"/>
</a>
</g>
</g>
<!-- Node5 -->
<g id="Node000005" class="node">
<title>Node5</title>
<g id="a_Node000005"><a xlink:href="../../d0/de4/point_8hpp.html" target="_top" xlink:title="Definition and implementation of Point class.">
<polygon fill="white" stroke="#666666" points="379.5,-129 286.5,-129 286.5,-110 379.5,-110 379.5,-129"/>
<text text-anchor="middle" x="333" y="-117" font-family="Helvetica,sans-Serif" font-size="10.00">qugar/point.hpp</text>
</a>
</g>
</g>
<!-- Node2&#45;&gt;Node5 -->
<g id="edge15_Node000002_Node000005" class="edge">
<title>Node2&#45;&gt;Node5</title>
<g id="a_edge15_Node000002_Node000005"><a xlink:title=" ">
<path fill="none" stroke="#63b8ff" d="M656.3,-230.92C632.58,-223.23 598.47,-210.74 571,-195 552.33,-184.3 552.43,-174.24 533,-165 508.05,-153.14 439.77,-139.3 389.91,-130.24"/>
<polygon fill="#63b8ff" stroke="#63b8ff" points="390.35,-126.76 379.89,-128.43 389.11,-133.65 390.35,-126.76"/>
</a>
</g>
</g>
<!-- Node6 -->
<g id="Node000006" class="node">
<title>Node6</title>
<g id="a_Node000006"><a xlink:href="../../dd/de3/types_8hpp.html" target="_top" xlink:title="Declaration of types.">
<polygon fill="white" stroke="#666666" points="624.5,-74 529.5,-74 529.5,-55 624.5,-55 624.5,-74"/>
<text text-anchor="middle" x="577" y="-62" font-family="Helvetica,sans-Serif" font-size="10.00">qugar/types.hpp</text>
</a>
</g>
</g>
<!-- Node2&#45;&gt;Node6 -->
<g id="edge30_Node000002_Node000006" class="edge">
<title>Node2&#45;&gt;Node6</title>
<g id="a_edge30_Node000002_Node000006"><a xlink:title=" ">
<path fill="none" stroke="#63b8ff" d="M689.56,-230.98C700.75,-208.76 726.78,-148.17 700,-110 690.85,-96.96 654.78,-84.84 624.05,-76.56"/>
<polygon fill="#63b8ff" stroke="#63b8ff" points="624.86,-73.15 614.3,-74.01 623.08,-79.93 624.86,-73.15"/>
</a>
</g>
</g>
<!-- Node2&#45;&gt;Node7 -->
<g id="edge32_Node000002_Node000007" class="edge">
<title>Node2&#45;&gt;Node7</title>
<g id="a_edge32_Node000002_Node000007"><a xlink:title=" ">
<path fill="none" stroke="#63b8ff" d="M621.76,-239.55C506.09,-238.71 265.56,-232.36 192,-195 151.22,-174.29 104.53,-144.97 134,-110 221.17,-6.57 596.38,-41.61 749.16,-18.81"/>
<polygon fill="#63b8ff" stroke="#63b8ff" points="750.03,-22.21 759.33,-17.14 748.9,-15.31 750.03,-22.21"/>
</a>
</g>
</g>
<!-- Node2&#45;&gt;Node10 -->
<g id="edge36_Node000002_Node000010" class="edge">
<title>Node2&#45;&gt;Node10</title>
<g id="a_edge36_Node000002_Node000010"><a xlink:title=" ">
<path fill="none" stroke="#63b8ff" d="M621.9,-238.69C478.99,-236.31 139.85,-227.27 100,-195 66.71,-168.04 61.59,-113.55 61.38,-84.59"/>
<polygon fill="#63b8ff" stroke="#63b8ff" points="64.88,-84.26 61.51,-74.22 57.88,-84.17 64.88,-84.26"/>
</a>
</g>
</g>
<!-- Node2&#45;&gt;Node12 -->
<g id="edge31_Node000002_Node000012" class="edge">
<title>Node2&#45;&gt;Node12</title>
<g id="a_edge31_Node000002_Node000012"><a xlink:title=" ">
<path fill="none" stroke="#63b8ff" d="M693.08,-230.7C706.61,-216.19 735.05,-186.69 762,-165 775.88,-153.83 792.56,-142.75 805.81,-134.43"/>
<polygon fill="#63b8ff" stroke="#63b8ff" points="807.69,-137.39 814.35,-129.15 804.01,-131.43 807.69,-137.39"/>
</a>
</g>
</g>
<!-- Node13 -->
<g id="Node000013" class="node">
<title>Node13</title>
<g id="a_Node000013"><a xlink:href="../../d9/d43/tensor__index__tp_8hpp.html" target="_top" xlink:title="Declaration of tensor&#45;product index and size related classes.">
<polygon fill="white" stroke="#666666" points="1028,-195 918,-195 918,-165 1028,-165 1028,-195"/>
<text text-anchor="start" x="926" y="-183" font-family="Helvetica,sans-Serif" font-size="10.00">qugar/tensor_index</text>
<text text-anchor="middle" x="973" y="-172" font-family="Helvetica,sans-Serif" font-size="10.00">_tp.hpp</text>
</a>
</g>
</g>
<!-- Node2&#45;&gt;Node13 -->
<g id="edge16_Node000002_Node000013" class="edge">
<title>Node2&#45;&gt;Node13</title>
<g id="a_edge16_Node000002_Node000013"><a xlink:title=" ">
<path fill="none" stroke="#63b8ff" d="M726.88,-230.99C774.32,-221.36 852.22,-205.53 907.67,-194.27"/>
<polygon fill="#63b8ff" stroke="#63b8ff" points="908.64,-197.64 917.75,-192.22 907.25,-190.78 908.64,-197.64"/>
</a>
</g>
</g>
<!-- Node2&#45;&gt;Node16 -->
<g id="edge33_Node000002_Node000016" class="edge">
<title>Node2&#45;&gt;Node16</title>
<g id="a_edge33_Node000002_Node000016"><a xlink:title=" ">
<path fill="none" stroke="#63b8ff" d="M748.15,-236.08C835.21,-230.6 987,-218.03 1037,-195 1065.56,-181.84 1091.09,-155.1 1105.81,-137.5"/>
<polygon fill="#63b8ff" stroke="#63b8ff" points="1108.91,-139.22 1112.48,-129.24 1103.47,-134.82 1108.91,-139.22"/>
</a>
</g>
</g>
<!-- Node19 -->
<g id="Node000019" class="node">
<title>Node19</title>
<g id="a_Node000019"><a xlink:href="../../d0/d55/tolerance_8hpp.html" target="_top" xlink:title="Definition of tolerance related functionalities.">
<polygon fill="white" stroke="#666666" points="315,-189.5 201,-189.5 201,-170.5 315,-170.5 315,-189.5"/>
<text text-anchor="middle" x="258" y="-177.5" font-family="Helvetica,sans-Serif" font-size="10.00">qugar/tolerance.hpp</text>
</a>
</g>
</g>
<!-- Node2&#45;&gt;Node19 -->
<g id="edge25_Node000002_Node000019" class="edge">
<title>Node2&#45;&gt;Node19</title>
<g id="a_edge25_Node000002_Node000019"><a xlink:title=" ">
<path fill="none" stroke="#63b8ff" d="M622.91,-230.99C543.61,-220.13 406.9,-201.4 325.21,-190.21"/>
<polygon fill="#63b8ff" stroke="#63b8ff" points="325.42,-186.7 315.04,-188.81 324.47,-193.64 325.42,-186.7"/>
</a>
</g>
</g>
<!-- Node2&#45;&gt;Node21 -->
<g id="edge34_Node000002_Node000021" class="edge">
<title>Node2&#45;&gt;Node21</title>
<g id="a_edge34_Node000002_Node000021"><a xlink:title=" ">
<path fill="none" stroke="#63b8ff" d="M706.52,-230.99C731.62,-221.07 773.32,-204.59 801.93,-193.28"/>
<polygon fill="#63b8ff" stroke="#63b8ff" points="803.44,-196.45 811.45,-189.52 800.87,-189.94 803.44,-196.45"/>
</a>
</g>
</g>
<!-- Node22 -->
<g id="Node000022" class="node">
<title>Node22</title>
<g id="a_Node000022"><a xlink:title=" ">
<polygon fill="#e0e0e0" stroke="#999999" points="524,-189.5 468,-189.5 468,-170.5 524,-170.5 524,-189.5"/>
<text text-anchor="middle" x="496" y="-177.5" font-family="Helvetica,sans-Serif" font-size="10.00">optional</text>
</a>
</g>
</g>
<!-- Node2&#45;&gt;Node22 -->
<g id="edge35_Node000002_Node000022" class="edge">
<title>Node2&#45;&gt;Node22</title>
<g id="a_edge35_Node000002_Node000022"><a xlink:title=" ">
<path fill="none" stroke="#63b8ff" d="M655.92,-230.96C626.21,-222.17 578.78,-207.97 538,-195 535.71,-194.27 533.36,-193.51 530.99,-192.74"/>
<polygon fill="#63b8ff" stroke="#63b8ff" points="531.87,-189.35 521.28,-189.55 529.69,-196 531.87,-189.35"/>
</a>
</g>
</g>
<!-- Node4 -->
<g id="Node000004" class="node">
<title>Node4</title>
<g id="a_Node000004"><a xlink:href="../../d7/dd8/concepts_8hpp.html" target="_top" xlink:title="Declaration of concepts.">
<polygon fill="white" stroke="#666666" points="510,-129 398,-129 398,-110 510,-110 510,-129"/>
<text text-anchor="middle" x="454" y="-117" font-family="Helvetica,sans-Serif" font-size="10.00">qugar/concepts.hpp</text>
</a>
</g>
</g>
<!-- Node3&#45;&gt;Node4 -->
<g id="edge3_Node000003_Node000004" class="edge">
<title>Node3&#45;&gt;Node4</title>
<g id="a_edge3_Node000003_Node000004"><a xlink:title=" ">
<path fill="none" stroke="#63b8ff" d="M600.99,-170.49C571.44,-160.44 522.09,-143.66 488.81,-132.34"/>
<polygon fill="#63b8ff" stroke="#63b8ff" points="489.63,-128.92 479.04,-129.02 487.38,-135.55 489.63,-128.92"/>
</a>
</g>
</g>
<!-- Node3&#45;&gt;Node5 -->
<g id="edge4_Node000003_Node000005" class="edge">
<title>Node3&#45;&gt;Node5</title>
<g id="a_edge4_Node000003_Node000005"><a xlink:title=" ">
<path fill="none" stroke="#63b8ff" d="M590.52,-170.47C582.47,-168.61 573.95,-166.69 566,-165 505.95,-152.26 436.83,-139.27 389.57,-130.64"/>
<polygon fill="#63b8ff" stroke="#63b8ff" points="389.99,-127.16 379.53,-128.81 388.74,-134.05 389.99,-127.16"/>
</a>
</g>
</g>
<!-- Node3&#45;&gt;Node6 -->
<g id="edge11_Node000003_Node000006" class="edge">
<title>Node3&#45;&gt;Node6</title>
<g id="a_edge11_Node000003_Node000006"><a xlink:title=" ">
<path fill="none" stroke="#63b8ff" d="M643.06,-170.39C665.6,-157.84 700.7,-133.44 685,-110 673.42,-92.7 653.76,-82.12 634.36,-75.65"/>
<polygon fill="#63b8ff" stroke="#63b8ff" points="635.18,-72.24 624.59,-72.71 633.16,-78.95 635.18,-72.24"/>
</a>
</g>
</g>
<!-- Node3&#45;&gt;Node7 -->
<g id="edge14_Node000003_Node000007" class="edge">
<title>Node3&#45;&gt;Node7</title>
<g id="a_edge14_Node000003_Node000007"><a xlink:title=" ">
<path fill="none" stroke="#63b8ff" d="M640.92,-170.38C656.42,-161.1 681.01,-145.44 700,-129 724.98,-107.38 730.62,-100.76 750,-74 760.56,-59.42 770.48,-41.47 777.23,-28.38"/>
<polygon fill="#63b8ff" stroke="#63b8ff" points="780.54,-29.59 781.9,-19.08 774.28,-26.44 780.54,-29.59"/>
</a>
</g>
</g>
<!-- Node11 -->
<g id="Node000011" class="node">
<title>Node11</title>
<g id="a_Node000011"><a xlink:title=" ">
<polygon fill="#e0e0e0" stroke="#999999" points="676,-129 528,-129 528,-110 676,-110 676,-129"/>
<text text-anchor="middle" x="602" y="-117" font-family="Helvetica,sans-Serif" font-size="10.00">algoim/hyperrectangle.hpp</text>
</a>
</g>
</g>
<!-- Node3&#45;&gt;Node11 -->
<g id="edge12_Node000003_Node000011" class="edge">
<title>Node3&#45;&gt;Node11</title>
<g id="a_edge12_Node000003_Node000011"><a xlink:title=" ">
<path fill="none" stroke="#63b8ff" d="M622.46,-170.37C619.06,-162.07 613.81,-149.28 609.48,-138.72"/>
<polygon fill="#63b8ff" stroke="#63b8ff" points="612.59,-137.09 605.56,-129.17 606.11,-139.75 612.59,-137.09"/>
</a>
</g>
</g>
<!-- Node3&#45;&gt;Node12 -->
<g id="edge13_Node000003_Node000012" class="edge">
<title>Node3&#45;&gt;Node12</title>
<g id="a_edge13_Node000003_Node000012"><a xlink:title=" ">
<path fill="none" stroke="#63b8ff" d="M655.52,-170.49C693.57,-159.53 759.44,-140.54 798.14,-129.39"/>
<polygon fill="#63b8ff" stroke="#63b8ff" points="799.18,-132.73 807.82,-126.6 797.25,-126.01 799.18,-132.73"/>
</a>
</g>
</g>
<!-- Node5&#45;&gt;Node6 -->
<g id="edge5_Node000005_Node000006" class="edge">
<title>Node5&#45;&gt;Node6</title>
<g id="a_edge5_Node000005_Node000006"><a xlink:title=" ">
<path fill="none" stroke="#63b8ff" d="M372.2,-109.98C414.41,-100.82 481.65,-86.21 527.48,-76.26"/>
<polygon fill="#63b8ff" stroke="#63b8ff" points="528.46,-79.63 537.49,-74.08 526.97,-72.78 528.46,-79.63"/>
</a>
</g>
</g>
<!-- Node5&#45;&gt;Node7 -->
<g id="edge9_Node000005_Node000007" class="edge">
<title>Node5&#45;&gt;Node7</title>
<g id="a_edge9_Node000005_Node000007"><a xlink:title=" ">
<path fill="none" stroke="#63b8ff" d="M354.36,-109.95C388.87,-96.45 459.27,-70.16 521,-55 617.93,-31.19 647.09,-38.36 749.2,-19"/>
<polygon fill="#63b8ff" stroke="#63b8ff" points="750.16,-22.38 759.31,-17.04 748.83,-15.5 750.16,-22.38"/>
</a>
</g>
</g>
<!-- Node8 -->
<g id="Node000008" class="node">
<title>Node8</title>
<g id="a_Node000008"><a xlink:href="../../da/d16/vector_8hpp.html" target="_top" xlink:title=" ">
<polygon fill="white" stroke="#666666" points="741,-74 643,-74 643,-55 741,-55 741,-74"/>
<text text-anchor="middle" x="692" y="-62" font-family="Helvetica,sans-Serif" font-size="10.00">qugar/vector.hpp</text>
</a>
</g>
</g>
<!-- Node5&#45;&gt;Node8 -->
<g id="edge7_Node000005_Node000008" class="edge">
<title>Node5&#45;&gt;Node8</title>
<g id="a_edge7_Node000005_Node000008"><a xlink:title=" ">
<path fill="none" stroke="#63b8ff" d="M379.75,-111.39C382.88,-110.92 385.99,-110.45 389,-110 412.54,-106.48 551.43,-86.11 632.76,-74.18"/>
<polygon fill="#63b8ff" stroke="#63b8ff" points="633.48,-77.62 642.87,-72.7 632.47,-70.69 633.48,-77.62"/>
</a>
</g>
</g>
<!-- Node5&#45;&gt;Node10 -->
<g id="edge10_Node000005_Node000010" class="edge">
<title>Node5&#45;&gt;Node10</title>
<g id="a_edge10_Node000005_Node000010"><a xlink:title=" ">
<path fill="none" stroke="#63b8ff" d="M289.46,-109.98C235.51,-99.43 144.75,-81.68 95.77,-72.11"/>
<polygon fill="#63b8ff" stroke="#63b8ff" points="96.18,-68.62 85.7,-70.13 94.84,-75.49 96.18,-68.62"/>
</a>
</g>
</g>
<!-- Node6&#45;&gt;Node7 -->
<g id="edge6_Node000006_Node000007" class="edge">
<title>Node6&#45;&gt;Node7</title>
<g id="a_edge6_Node000006_Node000007"><a xlink:title=" ">
<path fill="none" stroke="#63b8ff" d="M610.58,-54.98C648.61,-45.34 710.36,-29.68 749.54,-19.75"/>
<polygon fill="#63b8ff" stroke="#63b8ff" points="750.63,-23.08 759.47,-17.23 748.91,-16.29 750.63,-23.08"/>
</a>
</g>
</g>
<!-- Node9 -->
<g id="Node000009" class="node">
<title>Node9</title>
<g id="a_Node000009"><a xlink:title=" ">
<polygon fill="#e0e0e0" stroke="#999999" points="741,-19 631,-19 631,0 741,0 741,-19"/>
<text text-anchor="middle" x="686" y="-7" font-family="Helvetica,sans-Serif" font-size="10.00">algoim/uvector.hpp</text>
</a>
</g>
</g>
<!-- Node8&#45;&gt;Node9 -->
<g id="edge8_Node000008_Node000009" class="edge">
<title>Node8&#45;&gt;Node9</title>
<g id="a_edge8_Node000008_Node000009"><a xlink:title=" ">
<path fill="none" stroke="#63b8ff" d="M691.01,-54.75C690.22,-47.8 689.1,-37.85 688.11,-29.13"/>
<polygon fill="#63b8ff" stroke="#63b8ff" points="691.58,-28.63 686.97,-19.09 684.62,-29.42 691.58,-28.63"/>
</a>
</g>
</g>
<!-- Node13&#45;&gt;Node7 -->
<g id="edge21_Node000013_Node000007" class="edge">
<title>Node13&#45;&gt;Node7</title>
<g id="a_edge21_Node000013_Node000007"><a xlink:title=" ">
<path fill="none" stroke="#63b8ff" d="M1007.22,-164.98C1033.22,-152.19 1062.15,-131.99 1047,-110 995.87,-35.79 881.43,-16.89 822.54,-12.1"/>
<polygon fill="#63b8ff" stroke="#63b8ff" points="822.79,-8.61 812.56,-11.38 822.29,-15.59 822.79,-8.61"/>
</a>
</g>
</g>
<!-- Node13&#45;&gt;Node8 -->
<g id="edge18_Node000013_Node000008" class="edge">
<title>Node13&#45;&gt;Node8</title>
<g id="a_edge18_Node000013_Node000008"><a xlink:title=" ">
<path fill="none" stroke="#63b8ff" d="M951.1,-164.72C923.53,-146.93 877.52,-117.88 859,-110 823.22,-94.77 780.87,-83.56 747.77,-76.2"/>
<polygon fill="#63b8ff" stroke="#63b8ff" points="748.33,-72.74 737.81,-74.04 746.84,-79.58 748.33,-72.74"/>
</a>
</g>
</g>
<!-- Node13&#45;&gt;Node12 -->
<g id="edge19_Node000013_Node000012" class="edge">
<title>Node13&#45;&gt;Node12</title>
<g id="a_edge19_Node000013_Node000012"><a xlink:title=" ">
<path fill="none" stroke="#63b8ff" d="M938.51,-164.99C914.48,-155.23 882.73,-142.33 859.6,-132.93"/>
<polygon fill="#63b8ff" stroke="#63b8ff" points="860.85,-129.66 850.27,-129.14 858.21,-136.15 860.85,-129.66"/>
</a>
</g>
</g>
<!-- Node14 -->
<g id="Node000014" class="node">
<title>Node14</title>
<g id="a_Node000014"><a xlink:title=" ">
<polygon fill="#e0e0e0" stroke="#999999" points="950,-129 906,-129 906,-110 950,-110 950,-129"/>
<text text-anchor="middle" x="928" y="-117" font-family="Helvetica,sans-Serif" font-size="10.00">limits</text>
</a>
</g>
</g>
<!-- Node13&#45;&gt;Node14 -->
<g id="edge17_Node000013_Node000014" class="edge">
<title>Node13&#45;&gt;Node14</title>
<g id="a_edge17_Node000013_Node000014"><a xlink:title=" ">
<path fill="none" stroke="#63b8ff" d="M962.11,-164.84C955.71,-156.52 947.58,-145.96 940.87,-137.23"/>
<polygon fill="#63b8ff" stroke="#63b8ff" points="943.61,-135.06 934.74,-129.27 938.07,-139.33 943.61,-135.06"/>
</a>
</g>
</g>
<!-- Node13&#45;&gt;Node15 -->
<g id="edge20_Node000013_Node000015" class="edge">
<title>Node13&#45;&gt;Node15</title>
<g id="a_edge20_Node000013_Node000015"><a xlink:title=" ">
<path fill="none" stroke="#63b8ff" d="M1024.5,-164.99C1063.85,-154.28 1117.08,-139.8 1151.96,-130.3"/>
<polygon fill="#63b8ff" stroke="#63b8ff" points="1153,-133.65 1161.73,-127.65 1151.16,-126.9 1153,-133.65"/>
</a>
</g>
</g>
<!-- Node13&#45;&gt;Node16 -->
<g id="edge22_Node000013_Node000016" class="edge">
<title>Node13&#45;&gt;Node16</title>
<g id="a_edge22_Node000013_Node000016"><a xlink:title=" ">
<path fill="none" stroke="#63b8ff" d="M1007.97,-164.99C1032.33,-155.23 1064.53,-142.33 1087.97,-132.93"/>
<polygon fill="#63b8ff" stroke="#63b8ff" points="1089.46,-136.11 1097.44,-129.14 1086.85,-129.61 1089.46,-136.11"/>
</a>
</g>
</g>
<!-- Node13&#45;&gt;Node17 -->
<g id="edge23_Node000013_Node000017" class="edge">
<title>Node13&#45;&gt;Node17</title>
<g id="a_edge23_Node000013_Node000017"><a xlink:title=" ">
<path fill="none" stroke="#63b8ff" d="M1028.23,-169.21C1093.49,-157.64 1200.66,-138.64 1260.04,-128.12"/>
<polygon fill="#63b8ff" stroke="#63b8ff" points="1260.96,-131.51 1270.19,-126.32 1259.74,-124.62 1260.96,-131.51"/>
</a>
</g>
</g>
<!-- Node18 -->
<g id="Node000018" class="node">
<title>Node18</title>
<g id="a_Node000018"><a xlink:title=" ">
<polygon fill="#e0e0e0" stroke="#999999" points="1037.5,-129 968.5,-129 968.5,-110 1037.5,-110 1037.5,-129"/>
<text text-anchor="middle" x="1003" y="-117" font-family="Helvetica,sans-Serif" font-size="10.00">type_traits</text>
</a>
</g>
</g>
<!-- Node13&#45;&gt;Node18 -->
<g id="edge24_Node000013_Node000018" class="edge">
<title>Node13&#45;&gt;Node18</title>
<g id="a_edge24_Node000013_Node000018"><a xlink:title=" ">
<path fill="none" stroke="#63b8ff" d="M980.26,-164.84C984.35,-156.87 989.49,-146.84 993.86,-138.33"/>
<polygon fill="#63b8ff" stroke="#63b8ff" points="997.06,-139.76 998.5,-129.27 990.83,-136.57 997.06,-139.76"/>
</a>
</g>
</g>
<!-- Node19&#45;&gt;Node5 -->
<g id="edge26_Node000019_Node000005" class="edge">
<title>Node19&#45;&gt;Node5</title>
<g id="a_edge26_Node000019_Node000005"><a xlink:title=" ">
<path fill="none" stroke="#63b8ff" d="M269.07,-170.37C280.81,-161.21 299.59,-146.56 313.76,-135.51"/>
<polygon fill="#63b8ff" stroke="#63b8ff" points="316.16,-138.08 321.89,-129.17 311.85,-132.56 316.16,-138.08"/>
</a>
</g>
</g>
<!-- Node19&#45;&gt;Node6 -->
<g id="edge27_Node000019_Node000006" class="edge">
<title>Node19&#45;&gt;Node6</title>
<g id="a_edge27_Node000019_Node000006"><a xlink:title=" ">
<path fill="none" stroke="#63b8ff" d="M257.75,-170.25C257.83,-155.41 260.34,-125.43 278,-110 312.96,-79.45 442.41,-69.87 519.05,-66.87"/>
<polygon fill="#63b8ff" stroke="#63b8ff" points="519.63,-70.35 529.5,-66.49 519.38,-63.36 519.63,-70.35"/>
</a>
</g>
</g>
<!-- Node19&#45;&gt;Node10 -->
<g id="edge29_Node000019_Node000010" class="edge">
<title>Node19&#45;&gt;Node10</title>
<g id="a_edge29_Node000019_Node000010"><a xlink:title=" ">
<path fill="none" stroke="#63b8ff" d="M253.19,-170.45C244.59,-155.91 225.19,-126.38 201,-110 168.81,-88.21 125.28,-76.55 95.57,-70.71"/>
<polygon fill="#63b8ff" stroke="#63b8ff" points="96.14,-67.26 85.67,-68.88 94.87,-74.14 96.14,-67.26"/>
</a>
</g>
</g>
<!-- Node20 -->
<g id="Node000020" class="node">
<title>Node20</title>
<g id="a_Node000020"><a xlink:title=" ">
<polygon fill="#e0e0e0" stroke="#999999" points="191.5,-129 142.5,-129 142.5,-110 191.5,-110 191.5,-129"/>
<text text-anchor="middle" x="167" y="-117" font-family="Helvetica,sans-Serif" font-size="10.00">cstdlib</text>
</a>
</g>
</g>
<!-- Node19&#45;&gt;Node20 -->
<g id="edge28_Node000019_Node000020" class="edge">
<title>Node19&#45;&gt;Node20</title>
<g id="a_edge28_Node000019_Node000020"><a xlink:title=" ">
<path fill="none" stroke="#63b8ff" d="M244.57,-170.37C229.92,-160.95 206.24,-145.73 188.9,-134.58"/>
<polygon fill="#63b8ff" stroke="#63b8ff" points="190.79,-131.63 180.48,-129.17 187,-137.52 190.79,-131.63"/>
</a>
</g>
</g>
<!-- Node23&#45;&gt;Node2 -->
<g id="edge38_Node000023_Node000002" class="edge">
<title>Node23&#45;&gt;Node2</title>
<g id="a_edge38_Node000023_Node000002"><a xlink:title=" ">
<path fill="none" stroke="#63b8ff" d="M1030.09,-290.86C955.27,-280.16 831.77,-262.49 754.58,-251.45"/>
<polygon fill="#63b8ff" stroke="#63b8ff" points="754.87,-247.96 744.47,-250.01 753.88,-254.89 754.87,-247.96"/>
</a>
</g>
</g>
<!-- Node23&#45;&gt;Node7 -->
<g id="edge41_Node000023_Node000007" class="edge">
<title>Node23&#45;&gt;Node7</title>
<g id="a_edge41_Node000023_Node000007"><a xlink:title=" ">
<path fill="none" stroke="#63b8ff" d="M1116.46,-285.99C1165.1,-253.95 1271.95,-173.2 1223,-110 1173.74,-46.41 919.02,-20.63 822.83,-13.07"/>
<polygon fill="#63b8ff" stroke="#63b8ff" points="822.94,-9.57 812.7,-12.3 822.4,-16.55 822.94,-9.57"/>
</a>
</g>
</g>
<!-- Node23&#45;&gt;Node10 -->
<g id="edge45_Node000023_Node000010" class="edge">
<title>Node23&#45;&gt;Node10</title>
<g id="a_edge45_Node000023_Node000010"><a xlink:title=" ">
<path fill="none" stroke="#63b8ff" d="M1030.39,-300.19C841.71,-299.64 289.07,-289.8 141,-195 100.09,-168.81 77.12,-113.14 67.48,-84.06"/>
<polygon fill="#63b8ff" stroke="#63b8ff" points="70.76,-82.83 64.42,-74.34 64.08,-84.92 70.76,-82.83"/>
</a>
</g>
</g>
<!-- Node23&#45;&gt;Node12 -->
<g id="edge39_Node000023_Node000012" class="edge">
<title>Node23&#45;&gt;Node12</title>
<g id="a_edge39_Node000023_Node000012"><a xlink:title=" ">
<path fill="none" stroke="#63b8ff" d="M1064.51,-285.96C1026.89,-267.46 960.51,-232.8 909,-195 884.5,-177.03 859.36,-152.4 843.96,-136.47"/>
<polygon fill="#63b8ff" stroke="#63b8ff" points="846.28,-133.83 836.85,-129.01 841.21,-138.66 846.28,-133.83"/>
</a>
</g>
</g>
<!-- Node23&#45;&gt;Node15 -->
<g id="edge40_Node000023_Node000015" class="edge">
<title>Node23&#45;&gt;Node15</title>
<g id="a_edge40_Node000023_Node000015"><a xlink:title=" ">
<path fill="none" stroke="#63b8ff" d="M1101.38,-285.91C1118.31,-253.57 1159.97,-174.02 1178.66,-138.33"/>
<polygon fill="#63b8ff" stroke="#63b8ff" points="1181.94,-139.62 1183.48,-129.13 1175.74,-136.37 1181.94,-139.62"/>
</a>
</g>
</g>
<!-- Node23&#45;&gt;Node16 -->
<g id="edge42_Node000023_Node000016" class="edge">
<title>Node23&#45;&gt;Node16</title>
<g id="a_edge42_Node000023_Node000016"><a xlink:title=" ">
<path fill="none" stroke="#63b8ff" d="M1095.96,-285.91C1100.43,-253.85 1111.36,-175.38 1116.39,-139.26"/>
<polygon fill="#63b8ff" stroke="#63b8ff" points="1119.88,-139.52 1117.8,-129.13 1112.95,-138.56 1119.88,-139.52"/>
</a>
</g>
</g>
<!-- Node23&#45;&gt;Node17 -->
<g id="edge43_Node000023_Node000017" class="edge">
<title>Node23&#45;&gt;Node17</title>
<g id="a_edge43_Node000023_Node000017"><a xlink:title=" ">
<path fill="none" stroke="#63b8ff" d="M1126.74,-285.93C1163.19,-268.9 1221.97,-237.16 1260,-195 1275.43,-177.9 1287.87,-154.36 1295.33,-138.36"/>
<polygon fill="#63b8ff" stroke="#63b8ff" points="1298.6,-139.62 1299.49,-129.06 1292.21,-136.76 1298.6,-139.62"/>
</a>
</g>
</g>
<!-- Node23&#45;&gt;Node21 -->
<g id="edge44_Node000023_Node000021" class="edge">
<title>Node23&#45;&gt;Node21</title>
<g id="a_edge44_Node000023_Node000021"><a xlink:title=" ">
<path fill="none" stroke="#63b8ff" d="M1030.5,-298.22C983.93,-294.06 921.21,-282.24 876,-250 858.45,-237.48 846.53,-215.34 839.78,-199.51"/>
<polygon fill="#63b8ff" stroke="#63b8ff" points="842.85,-197.77 835.92,-189.76 836.34,-200.34 842.85,-197.77"/>
</a>
</g>
</g>
</g>
</svg>
