<?xml version="1.0" encoding="UTF-8" standalone="no"?>
<!DOCTYPE svg PUBLIC "-//W3C//DTD SVG 1.1//EN"
 "http://www.w3.org/Graphics/SVG/1.1/DTD/svg11.dtd">
<!-- Generated by graphviz version 2.43.0 (0)
 -->
<!-- Title: /__w/qugar/qugar/cpp/include/qugar/lagrange_tp_utils.hpp Pages: 1 -->
<svg width="663pt" height="225pt"
 viewBox="0.00 0.00 662.50 225.00" xmlns="http://www.w3.org/2000/svg" xmlns:xlink="http://www.w3.org/1999/xlink">
<g id="graph0" class="graph" transform="scale(1 1) rotate(0) translate(4 221)">
<title>/__w/qugar/qugar/cpp/include/qugar/lagrange_tp_utils.hpp</title>
<!-- Node1 -->
<g id="Node000001" class="node">
<title>Node1</title>
<g id="a_Node000001"><a xlink:title="Declaration of tensor&#45;product Lagrange utils.">
<polygon fill="#999999" stroke="#666666" points="279,-217 148,-217 148,-176 279,-176 279,-217"/>
<text text-anchor="start" x="156" y="-205" font-family="Helvetica,sans-Serif" font-size="10.00">/__w/qugar/qugar/cpp</text>
<text text-anchor="start" x="156" y="-194" font-family="Helvetica,sans-Serif" font-size="10.00">/include/qugar/lagrange</text>
<text text-anchor="middle" x="213.5" y="-183" font-family="Helvetica,sans-Serif" font-size="10.00">_tp_utils.hpp</text>
</a>
</g>
</g>
<!-- Node2 -->
<g id="Node000002" class="node">
<title>Node2</title>
<g id="a_Node000002"><a xlink:href="../../d0/de4/point_8hpp.html" target="_top" xlink:title="Definition and implementation of Point class.">
<polygon fill="white" stroke="#666666" points="185,-134.5 92,-134.5 92,-115.5 185,-115.5 185,-134.5"/>
<text text-anchor="middle" x="138.5" y="-122.5" font-family="Helvetica,sans-Serif" font-size="10.00">qugar/point.hpp</text>
</a>
</g>
</g>
<!-- Node1&#45;&gt;Node2 -->
<g id="edge1_Node000001_Node000002" class="edge">
<title>Node1&#45;&gt;Node2</title>
<g id="a_edge1_Node000001_Node000002"><a xlink:title=" ">
<path fill="none" stroke="#63b8ff" d="M192.21,-175.77C180.61,-165.02 166.46,-151.91 155.59,-141.84"/>
<polygon fill="#63b8ff" stroke="#63b8ff" points="157.73,-139.05 148.02,-134.82 152.97,-144.18 157.73,-139.05"/>
</a>
</g>
</g>
<!-- Node3 -->
<g id="Node000003" class="node">
<title>Node3</title>
<g id="a_Node000003"><a xlink:href="../../dd/de3/types_8hpp.html" target="_top" xlink:title="Declaration of types.">
<polygon fill="white" stroke="#666666" points="199,-74 104,-74 104,-55 199,-55 199,-74"/>
<text text-anchor="middle" x="151.5" y="-62" font-family="Helvetica,sans-Serif" font-size="10.00">qugar/types.hpp</text>
</a>
</g>
</g>
<!-- Node1&#45;&gt;Node3 -->
<g id="edge15_Node000001_Node000003" class="edge">
<title>Node1&#45;&gt;Node3</title>
<g id="a_edge15_Node000001_Node000003"><a xlink:title=" ">
<path fill="none" stroke="#63b8ff" d="M211.84,-175.79C209.66,-157.77 204.69,-130.81 193.5,-110 187.63,-99.08 178.38,-88.87 170.06,-80.99"/>
<polygon fill="#63b8ff" stroke="#63b8ff" points="172.28,-78.28 162.5,-74.2 167.6,-83.49 172.28,-78.28"/>
</a>
</g>
</g>
<!-- Node5 -->
<g id="Node000005" class="node">
<title>Node5</title>
<g id="a_Node000005"><a xlink:href="../../da/d16/vector_8hpp.html" target="_top" xlink:title=" ">
<polygon fill="white" stroke="#666666" points="315.5,-74 217.5,-74 217.5,-55 315.5,-55 315.5,-74"/>
<text text-anchor="middle" x="266.5" y="-62" font-family="Helvetica,sans-Serif" font-size="10.00">qugar/vector.hpp</text>
</a>
</g>
</g>
<!-- Node1&#45;&gt;Node5 -->
<g id="edge16_Node000001_Node000005" class="edge">
<title>Node1&#45;&gt;Node5</title>
<g id="a_edge16_Node000001_Node000005"><a xlink:title=" ">
<path fill="none" stroke="#63b8ff" d="M221.55,-175.76C231.79,-150.64 249.33,-107.61 259.2,-83.4"/>
<polygon fill="#63b8ff" stroke="#63b8ff" points="262.5,-84.59 263.03,-74.01 256.01,-81.95 262.5,-84.59"/>
</a>
</g>
</g>
<!-- Node7 -->
<g id="Node000007" class="node">
<title>Node7</title>
<g id="a_Node000007"><a xlink:title=" ">
<polygon fill="#e0e0e0" stroke="#999999" points="47,-74 0,-74 0,-55 47,-55 47,-74"/>
<text text-anchor="middle" x="23.5" y="-62" font-family="Helvetica,sans-Serif" font-size="10.00">vector</text>
</a>
</g>
</g>
<!-- Node1&#45;&gt;Node7 -->
<g id="edge17_Node000001_Node000007" class="edge">
<title>Node1&#45;&gt;Node7</title>
<g id="a_edge17_Node000001_Node000007"><a xlink:title=" ">
<path fill="none" stroke="#63b8ff" d="M150.08,-175.98C127.41,-167.18 102.54,-155.26 82.5,-140 61.65,-124.12 43.96,-99.27 33.54,-82.69"/>
<polygon fill="#63b8ff" stroke="#63b8ff" points="36.45,-80.75 28.27,-74.01 30.47,-84.38 36.45,-80.75"/>
</a>
</g>
</g>
<!-- Node8 -->
<g id="Node000008" class="node">
<title>Node8</title>
<g id="a_Node000008"><a xlink:href="../../d9/d43/tensor__index__tp_8hpp.html" target="_top" xlink:title="Declaration of tensor&#45;product index and size related classes.">
<polygon fill="white" stroke="#666666" points="452.5,-140 342.5,-140 342.5,-110 452.5,-110 452.5,-140"/>
<text text-anchor="start" x="350.5" y="-128" font-family="Helvetica,sans-Serif" font-size="10.00">qugar/tensor_index</text>
<text text-anchor="middle" x="397.5" y="-117" font-family="Helvetica,sans-Serif" font-size="10.00">_tp.hpp</text>
</a>
</g>
</g>
<!-- Node1&#45;&gt;Node8 -->
<g id="edge8_Node000001_Node000008" class="edge">
<title>Node1&#45;&gt;Node8</title>
<g id="a_edge8_Node000001_Node000008"><a xlink:title=" ">
<path fill="none" stroke="#63b8ff" d="M265.24,-175.96C292.11,-165.81 324.67,-153.51 350.77,-143.65"/>
<polygon fill="#63b8ff" stroke="#63b8ff" points="352.31,-146.81 360.42,-140 349.83,-140.26 352.31,-146.81"/>
</a>
</g>
</g>
<!-- Node2&#45;&gt;Node3 -->
<g id="edge2_Node000002_Node000003" class="edge">
<title>Node2&#45;&gt;Node3</title>
<g id="a_edge2_Node000002_Node000003"><a xlink:title=" ">
<path fill="none" stroke="#63b8ff" d="M140.42,-115.37C142.24,-107.16 145.05,-94.54 147.38,-84.05"/>
<polygon fill="#63b8ff" stroke="#63b8ff" points="150.82,-84.69 149.57,-74.17 143.99,-83.17 150.82,-84.69"/>
</a>
</g>
</g>
<!-- Node4 -->
<g id="Node000004" class="node">
<title>Node4</title>
<g id="a_Node000004"><a xlink:title=" ">
<polygon fill="#e0e0e0" stroke="#999999" points="178,-19 125,-19 125,0 178,0 178,-19"/>
<text text-anchor="middle" x="151.5" y="-7" font-family="Helvetica,sans-Serif" font-size="10.00">cstddef</text>
</a>
</g>
</g>
<!-- Node2&#45;&gt;Node4 -->
<g id="edge6_Node000002_Node000004" class="edge">
<title>Node2&#45;&gt;Node4</title>
<g id="a_edge6_Node000002_Node000004"><a xlink:title=" ">
<path fill="none" stroke="#63b8ff" d="M126.2,-115.44C109.59,-102.76 83.29,-77.98 94.5,-55 100.8,-42.09 112.85,-31.83 124.26,-24.43"/>
<polygon fill="#63b8ff" stroke="#63b8ff" points="126.36,-27.25 133.15,-19.12 122.77,-21.25 126.36,-27.25"/>
</a>
</g>
</g>
<!-- Node2&#45;&gt;Node5 -->
<g id="edge4_Node000002_Node000005" class="edge">
<title>Node2&#45;&gt;Node5</title>
<g id="a_edge4_Node000002_Node000005"><a xlink:title=" ">
<path fill="none" stroke="#63b8ff" d="M157.11,-115.49C178.54,-105.7 213.94,-89.52 238.65,-78.23"/>
<polygon fill="#63b8ff" stroke="#63b8ff" points="240.22,-81.36 247.87,-74.02 237.32,-74.99 240.22,-81.36"/>
</a>
</g>
</g>
<!-- Node2&#45;&gt;Node7 -->
<g id="edge7_Node000002_Node000007" class="edge">
<title>Node2&#45;&gt;Node7</title>
<g id="a_edge7_Node000002_Node000007"><a xlink:title=" ">
<path fill="none" stroke="#63b8ff" d="M121.53,-115.37C102.59,-105.73 71.71,-90.03 49.67,-78.81"/>
<polygon fill="#63b8ff" stroke="#63b8ff" points="51.04,-75.58 40.54,-74.17 47.86,-81.82 51.04,-75.58"/>
</a>
</g>
</g>
<!-- Node3&#45;&gt;Node4 -->
<g id="edge3_Node000003_Node000004" class="edge">
<title>Node3&#45;&gt;Node4</title>
<g id="a_edge3_Node000003_Node000004"><a xlink:title=" ">
<path fill="none" stroke="#63b8ff" d="M151.5,-54.75C151.5,-47.8 151.5,-37.85 151.5,-29.13"/>
<polygon fill="#63b8ff" stroke="#63b8ff" points="155,-29.09 151.5,-19.09 148,-29.09 155,-29.09"/>
</a>
</g>
</g>
<!-- Node6 -->
<g id="Node000006" class="node">
<title>Node6</title>
<g id="a_Node000006"><a xlink:title=" ">
<polygon fill="#e0e0e0" stroke="#999999" points="321.5,-19 211.5,-19 211.5,0 321.5,0 321.5,-19"/>
<text text-anchor="middle" x="266.5" y="-7" font-family="Helvetica,sans-Serif" font-size="10.00">algoim/uvector.hpp</text>
</a>
</g>
</g>
<!-- Node5&#45;&gt;Node6 -->
<g id="edge5_Node000005_Node000006" class="edge">
<title>Node5&#45;&gt;Node6</title>
<g id="a_edge5_Node000005_Node000006"><a xlink:title=" ">
<path fill="none" stroke="#63b8ff" d="M266.5,-54.75C266.5,-47.8 266.5,-37.85 266.5,-29.13"/>
<polygon fill="#63b8ff" stroke="#63b8ff" points="270,-29.09 266.5,-19.09 263,-29.09 270,-29.09"/>
</a>
</g>
</g>
<!-- Node8&#45;&gt;Node4 -->
<g id="edge12_Node000008_Node000004" class="edge">
<title>Node8&#45;&gt;Node4</title>
<g id="a_edge12_Node000008_Node000004"><a xlink:title=" ">
<path fill="none" stroke="#63b8ff" d="M386.41,-109.88C373.29,-94.15 349.99,-69.08 324.5,-55 301.25,-42.16 231.68,-26.58 188.17,-17.68"/>
<polygon fill="#63b8ff" stroke="#63b8ff" points="188.74,-14.22 178.25,-15.67 187.35,-21.08 188.74,-14.22"/>
</a>
</g>
</g>
<!-- Node8&#45;&gt;Node5 -->
<g id="edge9_Node000008_Node000005" class="edge">
<title>Node8&#45;&gt;Node5</title>
<g id="a_edge9_Node000008_Node000005"><a xlink:title=" ">
<path fill="none" stroke="#63b8ff" d="M366.12,-109.99C344.56,-100.36 316.15,-87.67 295.19,-78.31"/>
<polygon fill="#63b8ff" stroke="#63b8ff" points="296.4,-75.02 285.85,-74.14 293.55,-81.41 296.4,-75.02"/>
</a>
</g>
</g>
<!-- Node9 -->
<g id="Node000009" class="node">
<title>Node9</title>
<g id="a_Node000009"><a xlink:title=" ">
<polygon fill="#e0e0e0" stroke="#999999" points="654.5,-74 612.5,-74 612.5,-55 654.5,-55 654.5,-74"/>
<text text-anchor="middle" x="633.5" y="-62" font-family="Helvetica,sans-Serif" font-size="10.00">array</text>
</a>
</g>
</g>
<!-- Node8&#45;&gt;Node9 -->
<g id="edge10_Node000008_Node000009" class="edge">
<title>Node8&#45;&gt;Node9</title>
<g id="a_edge10_Node000008_Node000009"><a xlink:title=" ">
<path fill="none" stroke="#63b8ff" d="M452.73,-111.2C492.02,-101.95 546.27,-88.9 602.45,-74.2"/>
<polygon fill="#63b8ff" stroke="#63b8ff" points="603.44,-77.56 612.22,-71.64 601.66,-70.79 603.44,-77.56"/>
</a>
</g>
</g>
<!-- Node10 -->
<g id="Node000010" class="node">
<title>Node10</title>
<g id="a_Node000010"><a xlink:title=" ">
<polygon fill="#e0e0e0" stroke="#999999" points="423.5,-74 371.5,-74 371.5,-55 423.5,-55 423.5,-74"/>
<text text-anchor="middle" x="397.5" y="-62" font-family="Helvetica,sans-Serif" font-size="10.00">cassert</text>
</a>
</g>
</g>
<!-- Node8&#45;&gt;Node10 -->
<g id="edge11_Node000008_Node000010" class="edge">
<title>Node8&#45;&gt;Node10</title>
<g id="a_edge11_Node000008_Node000010"><a xlink:title=" ">
<path fill="none" stroke="#63b8ff" d="M397.5,-109.84C397.5,-102.21 397.5,-92.7 397.5,-84.45"/>
<polygon fill="#63b8ff" stroke="#63b8ff" points="401,-84.27 397.5,-74.27 394,-84.27 401,-84.27"/>
</a>
</g>
</g>
<!-- Node11 -->
<g id="Node000011" class="node">
<title>Node11</title>
<g id="a_Node000011"><a xlink:title=" ">
<polygon fill="#e0e0e0" stroke="#999999" points="507,-74 442,-74 442,-55 507,-55 507,-74"/>
<text text-anchor="middle" x="474.5" y="-62" font-family="Helvetica,sans-Serif" font-size="10.00">functional</text>
</a>
</g>
</g>
<!-- Node8&#45;&gt;Node11 -->
<g id="edge13_Node000008_Node000011" class="edge">
<title>Node8&#45;&gt;Node11</title>
<g id="a_edge13_Node000008_Node000011"><a xlink:title=" ">
<path fill="none" stroke="#63b8ff" d="M416.14,-109.84C427.89,-100.91 443.03,-89.41 454.95,-80.35"/>
<polygon fill="#63b8ff" stroke="#63b8ff" points="457.12,-83.1 462.96,-74.27 452.88,-77.53 457.12,-83.1"/>
</a>
</g>
</g>
<!-- Node12 -->
<g id="Node000012" class="node">
<title>Node12</title>
<g id="a_Node000012"><a xlink:title=" ">
<polygon fill="#e0e0e0" stroke="#999999" points="594,-74 525,-74 525,-55 594,-55 594,-74"/>
<text text-anchor="middle" x="559.5" y="-62" font-family="Helvetica,sans-Serif" font-size="10.00">type_traits</text>
</a>
</g>
</g>
<!-- Node8&#45;&gt;Node12 -->
<g id="edge14_Node000008_Node000012" class="edge">
<title>Node8&#45;&gt;Node12</title>
<g id="a_edge14_Node000008_Node000012"><a xlink:title=" ">
<path fill="none" stroke="#63b8ff" d="M436.3,-109.99C463.69,-100.1 500.02,-86.98 526.11,-77.56"/>
<polygon fill="#63b8ff" stroke="#63b8ff" points="527.36,-80.83 535.58,-74.14 524.98,-74.24 527.36,-80.83"/>
</a>
</g>
</g>
</g>
</svg>
