<?xml version="1.0" encoding="UTF-8" standalone="no"?>
<!DOCTYPE svg PUBLIC "-//W3C//DTD SVG 1.1//EN"
 "http://www.w3.org/Graphics/SVG/1.1/DTD/svg11.dtd">
<!-- Generated by graphviz version 2.43.0 (0)
 -->
<!-- Title: /__w/qugar/qugar/cpp/include/qugar/affine_transf.hpp Pages: 1 -->
<svg width="469pt" height="214pt"
 viewBox="0.00 0.00 469.00 214.00" xmlns="http://www.w3.org/2000/svg" xmlns:xlink="http://www.w3.org/1999/xlink">
<g id="graph0" class="graph" transform="scale(1 1) rotate(0) translate(4 210)">
<title>/__w/qugar/qugar/cpp/include/qugar/affine_transf.hpp</title>
<!-- Node1 -->
<g id="Node000001" class="node">
<title>Node1</title>
<g id="a_Node000001"><a xlink:title="Declaration of affine transformation class.">
<polygon fill="#999999" stroke="#666666" points="323,-206 203,-206 203,-165 323,-165 323,-206"/>
<text text-anchor="start" x="211" y="-194" font-family="Helvetica,sans-Serif" font-size="10.00">/__w/qugar/qugar/cpp</text>
<text text-anchor="start" x="211" y="-183" font-family="Helvetica,sans-Serif" font-size="10.00">/include/qugar/affine</text>
<text text-anchor="middle" x="263" y="-172" font-family="Helvetica,sans-Serif" font-size="10.00">_transf.hpp</text>
</a>
</g>
</g>
<!-- Node2 -->
<g id="Node000002" class="node">
<title>Node2</title>
<g id="a_Node000002"><a xlink:href="../../db/d83/numbers_8hpp.html" target="_top" xlink:title="Declaration of constant values.">
<polygon fill="white" stroke="#666666" points="153.5,-129 42.5,-129 42.5,-110 153.5,-110 153.5,-129"/>
<text text-anchor="middle" x="98" y="-117" font-family="Helvetica,sans-Serif" font-size="10.00">qugar/numbers.hpp</text>
</a>
</g>
</g>
<!-- Node1&#45;&gt;Node2 -->
<g id="edge1_Node000001_Node000002" class="edge">
<title>Node1&#45;&gt;Node2</title>
<g id="a_edge1_Node000001_Node000002"><a xlink:title=" ">
<path fill="none" stroke="#63b8ff" d="M212.6,-164.95C185.56,-154.46 153.08,-141.87 129.61,-132.76"/>
<polygon fill="#63b8ff" stroke="#63b8ff" points="130.74,-129.45 120.15,-129.09 128.21,-135.97 130.74,-129.45"/>
</a>
</g>
</g>
<!-- Node3 -->
<g id="Node000003" class="node">
<title>Node3</title>
<g id="a_Node000003"><a xlink:href="../../dd/de3/types_8hpp.html" target="_top" xlink:title="Declaration of types.">
<polygon fill="white" stroke="#666666" points="234.5,-74 139.5,-74 139.5,-55 234.5,-55 234.5,-74"/>
<text text-anchor="middle" x="187" y="-62" font-family="Helvetica,sans-Serif" font-size="10.00">qugar/types.hpp</text>
</a>
</g>
</g>
<!-- Node1&#45;&gt;Node3 -->
<g id="edge12_Node000001_Node000003" class="edge">
<title>Node1&#45;&gt;Node3</title>
<g id="a_edge12_Node000001_Node000003"><a xlink:title=" ">
<path fill="none" stroke="#63b8ff" d="M238.21,-164.77C227.33,-155.01 215.19,-142.44 207,-129 198.54,-115.12 193.34,-97.33 190.37,-84.11"/>
<polygon fill="#63b8ff" stroke="#63b8ff" points="193.79,-83.38 188.38,-74.27 186.93,-84.77 193.79,-83.38"/>
</a>
</g>
</g>
<!-- Node7 -->
<g id="Node000007" class="node">
<title>Node7</title>
<g id="a_Node000007"><a xlink:href="../../d0/de4/point_8hpp.html" target="_top" xlink:title="Definition and implementation of Point class.">
<polygon fill="white" stroke="#666666" points="309.5,-129 216.5,-129 216.5,-110 309.5,-110 309.5,-129"/>
<text text-anchor="middle" x="263" y="-117" font-family="Helvetica,sans-Serif" font-size="10.00">qugar/point.hpp</text>
</a>
</g>
</g>
<!-- Node1&#45;&gt;Node7 -->
<g id="edge6_Node000001_Node000007" class="edge">
<title>Node1&#45;&gt;Node7</title>
<g id="a_edge6_Node000001_Node000007"><a xlink:title=" ">
<path fill="none" stroke="#63b8ff" d="M263,-164.95C263,-156.85 263,-147.5 263,-139.47"/>
<polygon fill="#63b8ff" stroke="#63b8ff" points="266.5,-139.26 263,-129.26 259.5,-139.26 266.5,-139.26"/>
</a>
</g>
</g>
<!-- Node8 -->
<g id="Node000008" class="node">
<title>Node8</title>
<g id="a_Node000008"><a xlink:href="../../da/d16/vector_8hpp.html" target="_top" xlink:title=" ">
<polygon fill="white" stroke="#666666" points="455,-74 357,-74 357,-55 455,-55 455,-74"/>
<text text-anchor="middle" x="406" y="-62" font-family="Helvetica,sans-Serif" font-size="10.00">qugar/vector.hpp</text>
</a>
</g>
</g>
<!-- Node1&#45;&gt;Node8 -->
<g id="edge13_Node000001_Node000008" class="edge">
<title>Node1&#45;&gt;Node8</title>
<g id="a_edge13_Node000001_Node000008"><a xlink:title=" ">
<path fill="none" stroke="#63b8ff" d="M286.61,-164.85C314.98,-141.24 361.96,-102.15 387.71,-80.72"/>
<polygon fill="#63b8ff" stroke="#63b8ff" points="390.13,-83.26 395.58,-74.18 385.65,-77.88 390.13,-83.26"/>
</a>
</g>
</g>
<!-- Node11 -->
<g id="Node000011" class="node">
<title>Node11</title>
<g id="a_Node000011"><a xlink:title=" ">
<polygon fill="#e0e0e0" stroke="#999999" points="411.5,-129 366.5,-129 366.5,-110 411.5,-110 411.5,-129"/>
<text text-anchor="middle" x="389" y="-117" font-family="Helvetica,sans-Serif" font-size="10.00">utility</text>
</a>
</g>
</g>
<!-- Node1&#45;&gt;Node11 -->
<g id="edge14_Node000001_Node000011" class="edge">
<title>Node1&#45;&gt;Node11</title>
<g id="a_edge14_Node000001_Node000011"><a xlink:title=" ">
<path fill="none" stroke="#63b8ff" d="M301.49,-164.95C321.4,-154.84 345.17,-142.76 362.91,-133.75"/>
<polygon fill="#63b8ff" stroke="#63b8ff" points="364.75,-136.74 372.08,-129.09 361.58,-130.5 364.75,-136.74"/>
</a>
</g>
</g>
<!-- Node2&#45;&gt;Node3 -->
<g id="edge2_Node000002_Node000003" class="edge">
<title>Node2&#45;&gt;Node3</title>
<g id="a_edge2_Node000002_Node000003"><a xlink:title=" ">
<path fill="none" stroke="#63b8ff" d="M112.3,-109.98C126.1,-101.77 147.24,-89.18 163.51,-79.49"/>
<polygon fill="#63b8ff" stroke="#63b8ff" points="165.64,-82.29 172.44,-74.17 162.06,-76.28 165.64,-82.29"/>
</a>
</g>
</g>
<!-- Node5 -->
<g id="Node000005" class="node">
<title>Node5</title>
<g id="a_Node000005"><a xlink:title=" ">
<polygon fill="#e0e0e0" stroke="#999999" points="44,-74 0,-74 0,-55 44,-55 44,-74"/>
<text text-anchor="middle" x="22" y="-62" font-family="Helvetica,sans-Serif" font-size="10.00">limits</text>
</a>
</g>
</g>
<!-- Node2&#45;&gt;Node5 -->
<g id="edge4_Node000002_Node000005" class="edge">
<title>Node2&#45;&gt;Node5</title>
<g id="a_edge4_Node000002_Node000005"><a xlink:title=" ">
<path fill="none" stroke="#63b8ff" d="M85.79,-109.98C74.22,-101.92 56.62,-89.65 42.84,-80.03"/>
<polygon fill="#63b8ff" stroke="#63b8ff" points="44.64,-77.02 34.43,-74.17 40.63,-82.76 44.64,-77.02"/>
</a>
</g>
</g>
<!-- Node6 -->
<g id="Node000006" class="node">
<title>Node6</title>
<g id="a_Node000006"><a xlink:title=" ">
<polygon fill="#e0e0e0" stroke="#999999" points="121.5,-74 62.5,-74 62.5,-55 121.5,-55 121.5,-74"/>
<text text-anchor="middle" x="92" y="-62" font-family="Helvetica,sans-Serif" font-size="10.00">numbers</text>
</a>
</g>
</g>
<!-- Node2&#45;&gt;Node6 -->
<g id="edge5_Node000002_Node000006" class="edge">
<title>Node2&#45;&gt;Node6</title>
<g id="a_edge5_Node000002_Node000006"><a xlink:title=" ">
<path fill="none" stroke="#63b8ff" d="M97.01,-109.75C96.22,-102.8 95.1,-92.85 94.11,-84.13"/>
<polygon fill="#63b8ff" stroke="#63b8ff" points="97.58,-83.63 92.97,-74.09 90.62,-84.42 97.58,-83.63"/>
</a>
</g>
</g>
<!-- Node4 -->
<g id="Node000004" class="node">
<title>Node4</title>
<g id="a_Node000004"><a xlink:title=" ">
<polygon fill="#e0e0e0" stroke="#999999" points="251.5,-19 198.5,-19 198.5,0 251.5,0 251.5,-19"/>
<text text-anchor="middle" x="225" y="-7" font-family="Helvetica,sans-Serif" font-size="10.00">cstddef</text>
</a>
</g>
</g>
<!-- Node3&#45;&gt;Node4 -->
<g id="edge3_Node000003_Node000004" class="edge">
<title>Node3&#45;&gt;Node4</title>
<g id="a_edge3_Node000003_Node000004"><a xlink:title=" ">
<path fill="none" stroke="#63b8ff" d="M193.27,-54.75C198.59,-47.34 206.36,-36.5 212.88,-27.41"/>
<polygon fill="#63b8ff" stroke="#63b8ff" points="215.86,-29.26 218.84,-19.09 210.17,-25.18 215.86,-29.26"/>
</a>
</g>
</g>
<!-- Node7&#45;&gt;Node3 -->
<g id="edge7_Node000007_Node000003" class="edge">
<title>Node7&#45;&gt;Node3</title>
<g id="a_edge7_Node000007_Node000003"><a xlink:title=" ">
<path fill="none" stroke="#63b8ff" d="M250.79,-109.98C239.22,-101.92 221.62,-89.65 207.84,-80.03"/>
<polygon fill="#63b8ff" stroke="#63b8ff" points="209.64,-77.02 199.43,-74.17 205.63,-82.76 209.64,-77.02"/>
</a>
</g>
</g>
<!-- Node7&#45;&gt;Node4 -->
<g id="edge10_Node000007_Node000004" class="edge">
<title>Node7&#45;&gt;Node4</title>
<g id="a_edge10_Node000007_Node000004"><a xlink:title=" ">
<path fill="none" stroke="#63b8ff" d="M260.5,-109.8C256.91,-97.5 249.95,-74.36 243,-55 239.87,-46.27 236.06,-36.73 232.75,-28.72"/>
<polygon fill="#63b8ff" stroke="#63b8ff" points="235.89,-27.15 228.79,-19.29 229.43,-29.86 235.89,-27.15"/>
</a>
</g>
</g>
<!-- Node7&#45;&gt;Node8 -->
<g id="edge8_Node000007_Node000008" class="edge">
<title>Node7&#45;&gt;Node8</title>
<g id="a_edge8_Node000007_Node000008"><a xlink:title=" ">
<path fill="none" stroke="#63b8ff" d="M285.98,-109.98C309.5,-101.27 346.29,-87.63 372.94,-77.75"/>
<polygon fill="#63b8ff" stroke="#63b8ff" points="374.45,-80.93 382.61,-74.17 372.01,-74.36 374.45,-80.93"/>
</a>
</g>
</g>
<!-- Node10 -->
<g id="Node000010" class="node">
<title>Node10</title>
<g id="a_Node000010"><a xlink:title=" ">
<polygon fill="#e0e0e0" stroke="#999999" points="338.5,-74 291.5,-74 291.5,-55 338.5,-55 338.5,-74"/>
<text text-anchor="middle" x="315" y="-62" font-family="Helvetica,sans-Serif" font-size="10.00">vector</text>
</a>
</g>
</g>
<!-- Node7&#45;&gt;Node10 -->
<g id="edge11_Node000007_Node000010" class="edge">
<title>Node7&#45;&gt;Node10</title>
<g id="a_edge11_Node000007_Node000010"><a xlink:title=" ">
<path fill="none" stroke="#63b8ff" d="M271.59,-109.75C279.16,-102.03 290.38,-90.6 299.51,-81.28"/>
<polygon fill="#63b8ff" stroke="#63b8ff" points="302.07,-83.68 306.57,-74.09 297.07,-78.78 302.07,-83.68"/>
</a>
</g>
</g>
<!-- Node9 -->
<g id="Node000009" class="node">
<title>Node9</title>
<g id="a_Node000009"><a xlink:title=" ">
<polygon fill="#e0e0e0" stroke="#999999" points="461,-19 351,-19 351,0 461,0 461,-19"/>
<text text-anchor="middle" x="406" y="-7" font-family="Helvetica,sans-Serif" font-size="10.00">algoim/uvector.hpp</text>
</a>
</g>
</g>
<!-- Node8&#45;&gt;Node9 -->
<g id="edge9_Node000008_Node000009" class="edge">
<title>Node8&#45;&gt;Node9</title>
<g id="a_edge9_Node000008_Node000009"><a xlink:title=" ">
<path fill="none" stroke="#63b8ff" d="M406,-54.75C406,-47.8 406,-37.85 406,-29.13"/>
<polygon fill="#63b8ff" stroke="#63b8ff" points="409.5,-29.09 406,-19.09 402.5,-29.09 409.5,-29.09"/>
</a>
</g>
</g>
</g>
</svg>
