<?xml version="1.0" encoding="UTF-8" standalone="no"?>
<!DOCTYPE svg PUBLIC "-//W3C//DTD SVG 1.1//EN"
 "http://www.w3.org/Graphics/SVG/1.1/DTD/svg11.dtd">
<!-- Generated by graphviz version 2.43.0 (0)
 -->
<!-- Title: /__w/qugar/qugar/cpp/include/qugar/unfitted_domain_kd_tree.hpp Pages: 1 -->
<svg width="1272pt" height="335pt"
 viewBox="0.00 0.00 1272.34 335.00" xmlns="http://www.w3.org/2000/svg" xmlns:xlink="http://www.w3.org/1999/xlink">
<g id="graph0" class="graph" transform="scale(1 1) rotate(0) translate(4 331)">
<title>/__w/qugar/qugar/cpp/include/qugar/unfitted_domain_kd_tree.hpp</title>
<!-- Node1 -->
<g id="Node000001" class="node">
<title>Node1</title>
<g id="a_Node000001"><a xlink:title="Declaration of of UnfittedDomain class.">
<polygon fill="#999999" stroke="#666666" points="1147.26,-327 1021.26,-327 1021.26,-286 1147.26,-286 1147.26,-327"/>
<text text-anchor="start" x="1029.26" y="-315" font-family="Helvetica,sans-Serif" font-size="10.00">/__w/qugar/qugar/cpp</text>
<text text-anchor="start" x="1029.26" y="-304" font-family="Helvetica,sans-Serif" font-size="10.00">/include/qugar/unfitted</text>
<text text-anchor="middle" x="1084.26" y="-293" font-family="Helvetica,sans-Serif" font-size="10.00">_domain_kd_tree.hpp</text>
</a>
</g>
</g>
<!-- Node2 -->
<g id="Node000002" class="node">
<title>Node2</title>
<g id="a_Node000002"><a xlink:href="../../d6/d49/cart__grid__tp_8hpp.html" target="_top" xlink:title="Definition of Cartesian grid class.">
<polygon fill="white" stroke="#666666" points="758.26,-250 632.26,-250 632.26,-231 758.26,-231 758.26,-250"/>
<text text-anchor="middle" x="695.26" y="-238" font-family="Helvetica,sans-Serif" font-size="10.00">qugar/cart_grid_tp.hpp</text>
</a>
</g>
</g>
<!-- Node1&#45;&gt;Node2 -->
<g id="edge1_Node000001_Node000002" class="edge">
<title>Node1&#45;&gt;Node2</title>
<g id="a_edge1_Node000001_Node000002"><a xlink:title=" ">
<path fill="none" stroke="#63b8ff" d="M1020.89,-295.07C948.15,-283.11 829.6,-263.6 757.38,-251.72"/>
<polygon fill="#63b8ff" stroke="#63b8ff" points="757.51,-248.2 747.08,-250.03 756.37,-255.1 757.51,-248.2"/>
</a>
</g>
</g>
<!-- Node7 -->
<g id="Node000007" class="node">
<title>Node7</title>
<g id="a_Node000007"><a xlink:title=" ">
<polygon fill="#e0e0e0" stroke="#999999" points="717.76,-19 664.76,-19 664.76,0 717.76,0 717.76,-19"/>
<text text-anchor="middle" x="691.26" y="-7" font-family="Helvetica,sans-Serif" font-size="10.00">cstddef</text>
</a>
</g>
</g>
<!-- Node1&#45;&gt;Node7 -->
<g id="edge39_Node000001_Node000007" class="edge">
<title>Node1&#45;&gt;Node7</title>
<g id="a_edge39_Node000001_Node000007"><a xlink:title=" ">
<path fill="none" stroke="#63b8ff" d="M1147.33,-287.94C1196.42,-269.98 1256.26,-236.66 1256.26,-181 1256.26,-181 1256.26,-181 1256.26,-118.5 1256.26,-111.38 1318.3,-109.49 1093.26,-55 961.48,-23.09 799.79,-14 728.28,-11.46"/>
<polygon fill="#63b8ff" stroke="#63b8ff" points="728.11,-7.95 718,-11.12 727.88,-14.95 728.11,-7.95"/>
</a>
</g>
</g>
<!-- Node10 -->
<g id="Node000010" class="node">
<title>Node10</title>
<g id="a_Node000010"><a xlink:title=" ">
<polygon fill="#e0e0e0" stroke="#999999" points="48.76,-74 1.76,-74 1.76,-55 48.76,-55 48.76,-74"/>
<text text-anchor="middle" x="25.26" y="-62" font-family="Helvetica,sans-Serif" font-size="10.00">vector</text>
</a>
</g>
</g>
<!-- Node1&#45;&gt;Node10 -->
<g id="edge44_Node000001_Node000010" class="edge">
<title>Node1&#45;&gt;Node10</title>
<g id="a_edge44_Node000001_Node000010"><a xlink:title=" ">
<path fill="none" stroke="#63b8ff" d="M1021.23,-303.6C802.64,-296.38 86.65,-267.36 16.26,-195 -12.59,-165.35 4.56,-111.64 16.57,-83.62"/>
<polygon fill="#63b8ff" stroke="#63b8ff" points="19.88,-84.8 20.82,-74.24 13.5,-81.91 19.88,-84.8"/>
</a>
</g>
</g>
<!-- Node12 -->
<g id="Node000012" class="node">
<title>Node12</title>
<g id="a_Node000012"><a xlink:title=" ">
<polygon fill="#e0e0e0" stroke="#999999" points="780.26,-129 738.26,-129 738.26,-110 780.26,-110 780.26,-129"/>
<text text-anchor="middle" x="759.26" y="-117" font-family="Helvetica,sans-Serif" font-size="10.00">array</text>
</a>
</g>
</g>
<!-- Node1&#45;&gt;Node12 -->
<g id="edge37_Node000001_Node000012" class="edge">
<title>Node1&#45;&gt;Node12</title>
<g id="a_edge37_Node000001_Node000012"><a xlink:title=" ">
<path fill="none" stroke="#63b8ff" d="M1021.22,-292.7C960.42,-277.75 868.55,-248.03 805.26,-195 786.92,-179.64 773.75,-155.02 766.32,-138.32"/>
<polygon fill="#63b8ff" stroke="#63b8ff" points="769.54,-136.96 762.44,-129.1 763.09,-139.68 769.54,-136.96"/>
</a>
</g>
</g>
<!-- Node15 -->
<g id="Node000015" class="node">
<title>Node15</title>
<g id="a_Node000015"><a xlink:title=" ">
<polygon fill="#e0e0e0" stroke="#999999" points="1144.26,-129 1092.26,-129 1092.26,-110 1144.26,-110 1144.26,-129"/>
<text text-anchor="middle" x="1118.26" y="-117" font-family="Helvetica,sans-Serif" font-size="10.00">cassert</text>
</a>
</g>
</g>
<!-- Node1&#45;&gt;Node15 -->
<g id="edge38_Node000001_Node000015" class="edge">
<title>Node1&#45;&gt;Node15</title>
<g id="a_edge38_Node000001_Node000015"><a xlink:title=" ">
<path fill="none" stroke="#63b8ff" d="M1120.82,-285.91C1133.87,-276.86 1147.1,-264.8 1154.26,-250 1170.7,-215.99 1166.86,-200.61 1154.26,-165 1150.51,-154.41 1143.05,-144.49 1135.88,-136.71"/>
<polygon fill="#63b8ff" stroke="#63b8ff" points="1137.95,-133.82 1128.42,-129.19 1132.98,-138.76 1137.95,-133.82"/>
</a>
</g>
</g>
<!-- Node16 -->
<g id="Node000016" class="node">
<title>Node16</title>
<g id="a_Node000016"><a xlink:title=" ">
<polygon fill="#e0e0e0" stroke="#999999" points="1074.26,-129 1024.26,-129 1024.26,-110 1074.26,-110 1074.26,-129"/>
<text text-anchor="middle" x="1049.26" y="-117" font-family="Helvetica,sans-Serif" font-size="10.00">cstdint</text>
</a>
</g>
</g>
<!-- Node1&#45;&gt;Node16 -->
<g id="edge40_Node000001_Node000016" class="edge">
<title>Node1&#45;&gt;Node16</title>
<g id="a_edge40_Node000001_Node000016"><a xlink:title=" ">
<path fill="none" stroke="#63b8ff" d="M1098.25,-285.72C1116.39,-257.41 1143.24,-204.44 1121.26,-165 1113.1,-150.37 1097.92,-139.94 1083.6,-132.88"/>
<polygon fill="#63b8ff" stroke="#63b8ff" points="1084.95,-129.64 1074.39,-128.71 1082.06,-136.02 1084.95,-129.64"/>
</a>
</g>
</g>
<!-- Node17 -->
<g id="Node000017" class="node">
<title>Node17</title>
<g id="a_Node000017"><a xlink:title=" ">
<polygon fill="#e0e0e0" stroke="#999999" points="1227.76,-129 1162.76,-129 1162.76,-110 1227.76,-110 1227.76,-129"/>
<text text-anchor="middle" x="1195.26" y="-117" font-family="Helvetica,sans-Serif" font-size="10.00">functional</text>
</a>
</g>
</g>
<!-- Node1&#45;&gt;Node17 -->
<g id="edge41_Node000001_Node000017" class="edge">
<title>Node1&#45;&gt;Node17</title>
<g id="a_edge41_Node000001_Node000017"><a xlink:title=" ">
<path fill="none" stroke="#63b8ff" d="M1129.74,-285.86C1145.16,-277.04 1161.04,-265.15 1171.26,-250 1194.08,-216.14 1196.74,-166.51 1196.26,-139.58"/>
<polygon fill="#63b8ff" stroke="#63b8ff" points="1199.75,-139.11 1195.9,-129.24 1192.75,-139.36 1199.75,-139.11"/>
</a>
</g>
</g>
<!-- Node21 -->
<g id="Node000021" class="node">
<title>Node21</title>
<g id="a_Node000021"><a xlink:title=" ">
<polygon fill="#e0e0e0" stroke="#999999" points="1038.26,-189.5 980.26,-189.5 980.26,-170.5 1038.26,-170.5 1038.26,-189.5"/>
<text text-anchor="middle" x="1009.26" y="-177.5" font-family="Helvetica,sans-Serif" font-size="10.00">memory</text>
</a>
</g>
</g>
<!-- Node1&#45;&gt;Node21 -->
<g id="edge42_Node000001_Node000021" class="edge">
<title>Node1&#45;&gt;Node21</title>
<g id="a_edge42_Node000001_Node000021"><a xlink:title=" ">
<path fill="none" stroke="#63b8ff" d="M1072.37,-285.77C1057.84,-261.65 1033.49,-221.22 1019.67,-198.28"/>
<polygon fill="#63b8ff" stroke="#63b8ff" points="1022.6,-196.37 1014.45,-189.61 1016.61,-199.99 1022.6,-196.37"/>
</a>
</g>
</g>
<!-- Node22 -->
<g id="Node000022" class="node">
<title>Node22</title>
<g id="a_Node000022"><a xlink:title=" ">
<polygon fill="#e0e0e0" stroke="#999999" points="1112.26,-189.5 1056.26,-189.5 1056.26,-170.5 1112.26,-170.5 1112.26,-189.5"/>
<text text-anchor="middle" x="1084.26" y="-177.5" font-family="Helvetica,sans-Serif" font-size="10.00">optional</text>
</a>
</g>
</g>
<!-- Node1&#45;&gt;Node22 -->
<g id="edge43_Node000001_Node000022" class="edge">
<title>Node1&#45;&gt;Node22</title>
<g id="a_edge43_Node000001_Node000022"><a xlink:title=" ">
<path fill="none" stroke="#63b8ff" d="M1084.26,-285.77C1084.26,-262.19 1084.26,-223.02 1084.26,-199.84"/>
<polygon fill="#63b8ff" stroke="#63b8ff" points="1087.76,-199.61 1084.26,-189.61 1080.76,-199.61 1087.76,-199.61"/>
</a>
</g>
</g>
<!-- Node3 -->
<g id="Node000003" class="node">
<title>Node3</title>
<g id="a_Node000003"><a xlink:href="../../d5/d90/bbox_8hpp.html" target="_top" xlink:title="Definition of Cartesian bounding box class.">
<polygon fill="white" stroke="#666666" points="634.26,-189.5 542.26,-189.5 542.26,-170.5 634.26,-170.5 634.26,-189.5"/>
<text text-anchor="middle" x="588.26" y="-177.5" font-family="Helvetica,sans-Serif" font-size="10.00">qugar/bbox.hpp</text>
</a>
</g>
</g>
<!-- Node2&#45;&gt;Node3 -->
<g id="edge2_Node000002_Node000003" class="edge">
<title>Node2&#45;&gt;Node3</title>
<g id="a_edge2_Node000002_Node000003"><a xlink:title=" ">
<path fill="none" stroke="#63b8ff" d="M679.47,-230.87C661.93,-221.28 633.37,-205.67 612.89,-194.47"/>
<polygon fill="#63b8ff" stroke="#63b8ff" points="614.56,-191.39 604.11,-189.67 611.2,-197.54 614.56,-191.39"/>
</a>
</g>
</g>
<!-- Node5 -->
<g id="Node000005" class="node">
<title>Node5</title>
<g id="a_Node000005"><a xlink:href="../../d0/de4/point_8hpp.html" target="_top" xlink:title="Definition and implementation of Point class.">
<polygon fill="white" stroke="#666666" points="309.76,-129 216.76,-129 216.76,-110 309.76,-110 309.76,-129"/>
<text text-anchor="middle" x="263.26" y="-117" font-family="Helvetica,sans-Serif" font-size="10.00">qugar/point.hpp</text>
</a>
</g>
</g>
<!-- Node2&#45;&gt;Node5 -->
<g id="edge15_Node000002_Node000005" class="edge">
<title>Node2&#45;&gt;Node5</title>
<g id="a_edge15_Node000002_Node000005"><a xlink:title=" ">
<path fill="none" stroke="#63b8ff" d="M664.2,-230.98C631.58,-222.03 578.81,-207.54 533.26,-195 451.78,-172.57 356.48,-146.26 303.69,-131.67"/>
<polygon fill="#63b8ff" stroke="#63b8ff" points="304.6,-128.29 294.03,-129 302.73,-135.04 304.6,-128.29"/>
</a>
</g>
</g>
<!-- Node6 -->
<g id="Node000006" class="node">
<title>Node6</title>
<g id="a_Node000006"><a xlink:href="../../dd/de3/types_8hpp.html" target="_top" xlink:title="Declaration of types.">
<polygon fill="white" stroke="#666666" points="310.76,-74 215.76,-74 215.76,-55 310.76,-55 310.76,-74"/>
<text text-anchor="middle" x="263.26" y="-62" font-family="Helvetica,sans-Serif" font-size="10.00">qugar/types.hpp</text>
</a>
</g>
</g>
<!-- Node2&#45;&gt;Node6 -->
<g id="edge30_Node000002_Node000006" class="edge">
<title>Node2&#45;&gt;Node6</title>
<g id="a_edge30_Node000002_Node000006"><a xlink:title=" ">
<path fill="none" stroke="#63b8ff" d="M632.09,-235.1C511.85,-225.22 257.51,-196.63 207.26,-129 193.82,-110.91 216.56,-91.71 236.97,-79.22"/>
<polygon fill="#63b8ff" stroke="#63b8ff" points="238.84,-82.18 245.75,-74.14 235.34,-76.12 238.84,-82.18"/>
</a>
</g>
</g>
<!-- Node2&#45;&gt;Node7 -->
<g id="edge32_Node000002_Node000007" class="edge">
<title>Node2&#45;&gt;Node7</title>
<g id="a_edge32_Node000002_Node000007"><a xlink:title=" ">
<path fill="none" stroke="#63b8ff" d="M695.54,-230.66C696.32,-204.07 698.29,-122.52 695.26,-55 694.87,-46.47 694.08,-37.04 693.3,-29.07"/>
<polygon fill="#63b8ff" stroke="#63b8ff" points="696.77,-28.6 692.25,-19.02 689.81,-29.32 696.77,-28.6"/>
</a>
</g>
</g>
<!-- Node2&#45;&gt;Node10 -->
<g id="edge36_Node000002_Node000010" class="edge">
<title>Node2&#45;&gt;Node10</title>
<g id="a_edge36_Node000002_Node000010"><a xlink:title=" ">
<path fill="none" stroke="#63b8ff" d="M632.03,-239.78C475.45,-239.86 79.24,-235.95 37.26,-195 7.72,-166.19 14.24,-112.52 20.39,-84.17"/>
<polygon fill="#63b8ff" stroke="#63b8ff" points="23.82,-84.87 22.73,-74.33 17.01,-83.25 23.82,-84.87"/>
</a>
</g>
</g>
<!-- Node2&#45;&gt;Node12 -->
<g id="edge31_Node000002_Node000012" class="edge">
<title>Node2&#45;&gt;Node12</title>
<g id="a_edge31_Node000002_Node000012"><a xlink:title=" ">
<path fill="none" stroke="#63b8ff" d="M701.4,-230.86C707.54,-222.05 717.07,-207.89 724.26,-195 734.66,-176.34 744.85,-154.07 751.52,-138.76"/>
<polygon fill="#63b8ff" stroke="#63b8ff" points="754.81,-139.98 755.55,-129.41 748.38,-137.22 754.81,-139.98"/>
</a>
</g>
</g>
<!-- Node13 -->
<g id="Node000013" class="node">
<title>Node13</title>
<g id="a_Node000013"><a xlink:href="../../d9/d43/tensor__index__tp_8hpp.html" target="_top" xlink:title="Declaration of tensor&#45;product index and size related classes.">
<polygon fill="white" stroke="#666666" points="924.26,-195 814.26,-195 814.26,-165 924.26,-165 924.26,-195"/>
<text text-anchor="start" x="822.26" y="-183" font-family="Helvetica,sans-Serif" font-size="10.00">qugar/tensor_index</text>
<text text-anchor="middle" x="869.26" y="-172" font-family="Helvetica,sans-Serif" font-size="10.00">_tp.hpp</text>
</a>
</g>
</g>
<!-- Node2&#45;&gt;Node13 -->
<g id="edge16_Node000002_Node000013" class="edge">
<title>Node2&#45;&gt;Node13</title>
<g id="a_edge16_Node000002_Node000013"><a xlink:title=" ">
<path fill="none" stroke="#63b8ff" d="M720.56,-230.99C745.93,-222.46 785.72,-209.09 817.76,-198.32"/>
<polygon fill="#63b8ff" stroke="#63b8ff" points="819.06,-201.57 827.42,-195.06 816.83,-194.93 819.06,-201.57"/>
</a>
</g>
</g>
<!-- Node2&#45;&gt;Node16 -->
<g id="edge33_Node000002_Node000016" class="edge">
<title>Node2&#45;&gt;Node16</title>
<g id="a_edge33_Node000002_Node000016"><a xlink:title=" ">
<path fill="none" stroke="#63b8ff" d="M758.37,-235.98C807.83,-231.3 877.38,-220.39 933.26,-195 952.85,-186.1 953.42,-177.03 971.26,-165 988.17,-153.59 1008.17,-142.22 1023.68,-133.83"/>
<polygon fill="#63b8ff" stroke="#63b8ff" points="1025.52,-136.81 1032.69,-129.02 1022.23,-130.64 1025.52,-136.81"/>
</a>
</g>
</g>
<!-- Node19 -->
<g id="Node000019" class="node">
<title>Node19</title>
<g id="a_Node000019"><a xlink:href="../../d0/d55/tolerance_8hpp.html" target="_top" xlink:title="Definition of tolerance related functionalities.">
<polygon fill="white" stroke="#666666" points="160.26,-189.5 46.26,-189.5 46.26,-170.5 160.26,-170.5 160.26,-189.5"/>
<text text-anchor="middle" x="103.26" y="-177.5" font-family="Helvetica,sans-Serif" font-size="10.00">qugar/tolerance.hpp</text>
</a>
</g>
</g>
<!-- Node2&#45;&gt;Node19 -->
<g id="edge25_Node000002_Node000019" class="edge">
<title>Node2&#45;&gt;Node19</title>
<g id="a_edge25_Node000002_Node000019"><a xlink:title=" ">
<path fill="none" stroke="#63b8ff" d="M632.05,-236.34C533.77,-230.92 338.54,-218.14 174.26,-195 167.16,-194 159.7,-192.75 152.39,-191.41"/>
<polygon fill="#63b8ff" stroke="#63b8ff" points="153.04,-187.97 142.56,-189.55 151.73,-194.85 153.04,-187.97"/>
</a>
</g>
</g>
<!-- Node2&#45;&gt;Node21 -->
<g id="edge34_Node000002_Node000021" class="edge">
<title>Node2&#45;&gt;Node21</title>
<g id="a_edge34_Node000002_Node000021"><a xlink:title=" ">
<path fill="none" stroke="#63b8ff" d="M758.5,-231.88C813.78,-224.57 895.96,-212.11 966.26,-195 969.29,-194.26 972.41,-193.42 975.53,-192.51"/>
<polygon fill="#63b8ff" stroke="#63b8ff" points="976.8,-195.78 985.34,-189.5 974.75,-189.09 976.8,-195.78"/>
</a>
</g>
</g>
<!-- Node2&#45;&gt;Node22 -->
<g id="edge35_Node000002_Node000022" class="edge">
<title>Node2&#45;&gt;Node22</title>
<g id="a_edge35_Node000002_Node000022"><a xlink:title=" ">
<path fill="none" stroke="#63b8ff" d="M758.39,-236.02C829.48,-231.06 948.03,-219.68 1047.26,-195 1049.71,-194.39 1052.21,-193.67 1054.72,-192.88"/>
<polygon fill="#63b8ff" stroke="#63b8ff" points="1055.88,-196.18 1064.18,-189.58 1053.58,-189.57 1055.88,-196.18"/>
</a>
</g>
</g>
<!-- Node4 -->
<g id="Node000004" class="node">
<title>Node4</title>
<g id="a_Node000004"><a xlink:href="../../d7/dd8/concepts_8hpp.html" target="_top" xlink:title="Declaration of concepts.">
<polygon fill="white" stroke="#666666" points="644.26,-129 532.26,-129 532.26,-110 644.26,-110 644.26,-129"/>
<text text-anchor="middle" x="588.26" y="-117" font-family="Helvetica,sans-Serif" font-size="10.00">qugar/concepts.hpp</text>
</a>
</g>
</g>
<!-- Node3&#45;&gt;Node4 -->
<g id="edge3_Node000003_Node000004" class="edge">
<title>Node3&#45;&gt;Node4</title>
<g id="a_edge3_Node000003_Node000004"><a xlink:title=" ">
<path fill="none" stroke="#63b8ff" d="M588.26,-170.37C588.26,-162.25 588.26,-149.81 588.26,-139.39"/>
<polygon fill="#63b8ff" stroke="#63b8ff" points="591.76,-139.17 588.26,-129.17 584.76,-139.17 591.76,-139.17"/>
</a>
</g>
</g>
<!-- Node3&#45;&gt;Node5 -->
<g id="edge4_Node000003_Node000005" class="edge">
<title>Node3&#45;&gt;Node5</title>
<g id="a_edge4_Node000003_Node000005"><a xlink:title=" ">
<path fill="none" stroke="#63b8ff" d="M542.04,-170.68C483.6,-160.16 383.04,-142.06 320.01,-130.72"/>
<polygon fill="#63b8ff" stroke="#63b8ff" points="320.3,-127.21 309.84,-128.89 319.06,-134.1 320.3,-127.21"/>
</a>
</g>
</g>
<!-- Node3&#45;&gt;Node6 -->
<g id="edge11_Node000003_Node000006" class="edge">
<title>Node3&#45;&gt;Node6</title>
<g id="a_edge11_Node000003_Node000006"><a xlink:title=" ">
<path fill="none" stroke="#63b8ff" d="M541.98,-174.23C494.18,-168.12 418.2,-155.03 357.26,-129 328.46,-116.7 299.18,-95.19 281.12,-80.65"/>
<polygon fill="#63b8ff" stroke="#63b8ff" points="283.15,-77.79 273.21,-74.14 278.71,-83.2 283.15,-77.79"/>
</a>
</g>
</g>
<!-- Node3&#45;&gt;Node7 -->
<g id="edge14_Node000003_Node000007" class="edge">
<title>Node3&#45;&gt;Node7</title>
<g id="a_edge14_Node000003_Node000007"><a xlink:title=" ">
<path fill="none" stroke="#63b8ff" d="M604.42,-170.39C619.14,-161.76 640.48,-147.17 653.26,-129 675.03,-98.03 684.8,-53.93 688.8,-29.19"/>
<polygon fill="#63b8ff" stroke="#63b8ff" points="692.3,-29.42 690.29,-19.02 685.38,-28.41 692.3,-29.42"/>
</a>
</g>
</g>
<!-- Node11 -->
<g id="Node000011" class="node">
<title>Node11</title>
<g id="a_Node000011"><a xlink:title=" ">
<polygon fill="#e0e0e0" stroke="#999999" points="514.26,-129 366.26,-129 366.26,-110 514.26,-110 514.26,-129"/>
<text text-anchor="middle" x="440.26" y="-117" font-family="Helvetica,sans-Serif" font-size="10.00">algoim/hyperrectangle.hpp</text>
</a>
</g>
</g>
<!-- Node3&#45;&gt;Node11 -->
<g id="edge12_Node000003_Node000011" class="edge">
<title>Node3&#45;&gt;Node11</title>
<g id="a_edge12_Node000003_Node000011"><a xlink:title=" ">
<path fill="none" stroke="#63b8ff" d="M566.74,-170.49C541.64,-160.57 499.94,-144.09 471.33,-132.78"/>
<polygon fill="#63b8ff" stroke="#63b8ff" points="472.39,-129.44 461.8,-129.02 469.82,-135.95 472.39,-129.44"/>
</a>
</g>
</g>
<!-- Node3&#45;&gt;Node12 -->
<g id="edge13_Node000003_Node000012" class="edge">
<title>Node3&#45;&gt;Node12</title>
<g id="a_edge13_Node000003_Node000012"><a xlink:title=" ">
<path fill="none" stroke="#63b8ff" d="M613.12,-170.49C643.68,-160.04 695.52,-142.3 728.54,-131.01"/>
<polygon fill="#63b8ff" stroke="#63b8ff" points="729.81,-134.27 738.14,-127.73 727.54,-127.65 729.81,-134.27"/>
</a>
</g>
</g>
<!-- Node5&#45;&gt;Node6 -->
<g id="edge5_Node000005_Node000006" class="edge">
<title>Node5&#45;&gt;Node6</title>
<g id="a_edge5_Node000005_Node000006"><a xlink:title=" ">
<path fill="none" stroke="#63b8ff" d="M263.26,-109.75C263.26,-102.8 263.26,-92.85 263.26,-84.13"/>
<polygon fill="#63b8ff" stroke="#63b8ff" points="266.76,-84.09 263.26,-74.09 259.76,-84.09 266.76,-84.09"/>
</a>
</g>
</g>
<!-- Node5&#45;&gt;Node7 -->
<g id="edge9_Node000005_Node000007" class="edge">
<title>Node5&#45;&gt;Node7</title>
<g id="a_edge9_Node000005_Node000007"><a xlink:title=" ">
<path fill="none" stroke="#63b8ff" d="M297.2,-109.94C376.45,-89.94 573.15,-40.3 654.82,-19.7"/>
<polygon fill="#63b8ff" stroke="#63b8ff" points="655.8,-23.06 664.64,-17.22 654.09,-16.27 655.8,-23.06"/>
</a>
</g>
</g>
<!-- Node8 -->
<g id="Node000008" class="node">
<title>Node8</title>
<g id="a_Node000008"><a xlink:href="../../da/d16/vector_8hpp.html" target="_top" xlink:title=" ">
<polygon fill="white" stroke="#666666" points="1084.26,-74 986.26,-74 986.26,-55 1084.26,-55 1084.26,-74"/>
<text text-anchor="middle" x="1035.26" y="-62" font-family="Helvetica,sans-Serif" font-size="10.00">qugar/vector.hpp</text>
</a>
</g>
</g>
<!-- Node5&#45;&gt;Node8 -->
<g id="edge7_Node000005_Node000008" class="edge">
<title>Node5&#45;&gt;Node8</title>
<g id="a_edge7_Node000005_Node000008"><a xlink:title=" ">
<path fill="none" stroke="#63b8ff" d="M310.09,-114.04C325.15,-112.66 341.9,-111.2 357.26,-110 585.57,-92.19 857.52,-75.8 975.62,-68.92"/>
<polygon fill="#63b8ff" stroke="#63b8ff" points="976.11,-72.4 985.89,-68.32 975.7,-65.41 976.11,-72.4"/>
</a>
</g>
</g>
<!-- Node5&#45;&gt;Node10 -->
<g id="edge10_Node000005_Node000010" class="edge">
<title>Node5&#45;&gt;Node10</title>
<g id="a_edge10_Node000005_Node000010"><a xlink:title=" ">
<path fill="none" stroke="#63b8ff" d="M225.02,-109.98C179.03,-99.74 102.59,-82.72 58.81,-72.97"/>
<polygon fill="#63b8ff" stroke="#63b8ff" points="59.46,-69.53 48.94,-70.77 57.94,-76.36 59.46,-69.53"/>
</a>
</g>
</g>
<!-- Node6&#45;&gt;Node7 -->
<g id="edge6_Node000006_Node000007" class="edge">
<title>Node6&#45;&gt;Node7</title>
<g id="a_edge6_Node000006_Node000007"><a xlink:title=" ">
<path fill="none" stroke="#63b8ff" d="M311.11,-57.57C397.36,-46.89 577.11,-24.63 654.51,-15.05"/>
<polygon fill="#63b8ff" stroke="#63b8ff" points="655.24,-18.49 664.73,-13.78 654.38,-11.54 655.24,-18.49"/>
</a>
</g>
</g>
<!-- Node9 -->
<g id="Node000009" class="node">
<title>Node9</title>
<g id="a_Node000009"><a xlink:title=" ">
<polygon fill="#e0e0e0" stroke="#999999" points="1090.26,-19 980.26,-19 980.26,0 1090.26,0 1090.26,-19"/>
<text text-anchor="middle" x="1035.26" y="-7" font-family="Helvetica,sans-Serif" font-size="10.00">algoim/uvector.hpp</text>
</a>
</g>
</g>
<!-- Node8&#45;&gt;Node9 -->
<g id="edge8_Node000008_Node000009" class="edge">
<title>Node8&#45;&gt;Node9</title>
<g id="a_edge8_Node000008_Node000009"><a xlink:title=" ">
<path fill="none" stroke="#63b8ff" d="M1035.26,-54.75C1035.26,-47.8 1035.26,-37.85 1035.26,-29.13"/>
<polygon fill="#63b8ff" stroke="#63b8ff" points="1038.76,-29.09 1035.26,-19.09 1031.76,-29.09 1038.76,-29.09"/>
</a>
</g>
</g>
<!-- Node13&#45;&gt;Node7 -->
<g id="edge21_Node000013_Node000007" class="edge">
<title>Node13&#45;&gt;Node7</title>
<g id="a_edge21_Node000013_Node000007"><a xlink:title=" ">
<path fill="none" stroke="#63b8ff" d="M900.82,-164.91C925.28,-151.93 952.76,-131.48 938.26,-110 890.86,-39.81 784.81,-19.12 728.33,-13.03"/>
<polygon fill="#63b8ff" stroke="#63b8ff" points="728.35,-9.52 718.05,-12.03 727.66,-16.49 728.35,-9.52"/>
</a>
</g>
</g>
<!-- Node13&#45;&gt;Node8 -->
<g id="edge18_Node000013_Node000008" class="edge">
<title>Node13&#45;&gt;Node8</title>
<g id="a_edge18_Node000013_Node000008"><a xlink:title=" ">
<path fill="none" stroke="#63b8ff" d="M905.72,-164.89C926.21,-156.1 951.72,-143.68 972.26,-129 991.3,-115.39 1009.76,-95.79 1021.72,-81.98"/>
<polygon fill="#63b8ff" stroke="#63b8ff" points="1024.49,-84.13 1028.27,-74.23 1019.14,-79.6 1024.49,-84.13"/>
</a>
</g>
</g>
<!-- Node13&#45;&gt;Node12 -->
<g id="edge19_Node000013_Node000012" class="edge">
<title>Node13&#45;&gt;Node12</title>
<g id="a_edge19_Node000013_Node000012"><a xlink:title=" ">
<path fill="none" stroke="#63b8ff" d="M842.91,-164.99C825.21,-155.58 802.02,-143.24 784.55,-133.95"/>
<polygon fill="#63b8ff" stroke="#63b8ff" points="785.97,-130.74 775.5,-129.14 782.69,-136.92 785.97,-130.74"/>
</a>
</g>
</g>
<!-- Node14 -->
<g id="Node000014" class="node">
<title>Node14</title>
<g id="a_Node000014"><a xlink:title=" ">
<polygon fill="#e0e0e0" stroke="#999999" points="842.26,-129 798.26,-129 798.26,-110 842.26,-110 842.26,-129"/>
<text text-anchor="middle" x="820.26" y="-117" font-family="Helvetica,sans-Serif" font-size="10.00">limits</text>
</a>
</g>
</g>
<!-- Node13&#45;&gt;Node14 -->
<g id="edge17_Node000013_Node000014" class="edge">
<title>Node13&#45;&gt;Node14</title>
<g id="a_edge17_Node000013_Node000014"><a xlink:title=" ">
<path fill="none" stroke="#63b8ff" d="M857.4,-164.84C850.36,-156.43 841.4,-145.74 834.04,-136.96"/>
<polygon fill="#63b8ff" stroke="#63b8ff" points="836.7,-134.68 827.6,-129.27 831.34,-139.18 836.7,-134.68"/>
</a>
</g>
</g>
<!-- Node13&#45;&gt;Node15 -->
<g id="edge20_Node000013_Node000015" class="edge">
<title>Node13&#45;&gt;Node15</title>
<g id="a_edge20_Node000013_Node000015"><a xlink:title=" ">
<path fill="none" stroke="#63b8ff" d="M924.27,-166.29C965.23,-156.79 1022.79,-143.37 1081.99,-129.29"/>
<polygon fill="#63b8ff" stroke="#63b8ff" points="1082.97,-132.65 1091.89,-126.93 1081.35,-125.84 1082.97,-132.65"/>
</a>
</g>
</g>
<!-- Node13&#45;&gt;Node16 -->
<g id="edge22_Node000013_Node000016" class="edge">
<title>Node13&#45;&gt;Node16</title>
<g id="a_edge22_Node000013_Node000016"><a xlink:title=" ">
<path fill="none" stroke="#63b8ff" d="M912.37,-164.99C943.63,-154.83 985.36,-141.27 1014.5,-131.8"/>
<polygon fill="#63b8ff" stroke="#63b8ff" points="1015.81,-135.05 1024.24,-128.63 1013.65,-128.39 1015.81,-135.05"/>
</a>
</g>
</g>
<!-- Node13&#45;&gt;Node17 -->
<g id="edge23_Node000013_Node000017" class="edge">
<title>Node13&#45;&gt;Node17</title>
<g id="a_edge23_Node000013_Node000017"><a xlink:title=" ">
<path fill="none" stroke="#63b8ff" d="M924.31,-169.73C979.45,-160.36 1067.02,-145.21 1152.8,-129.04"/>
<polygon fill="#63b8ff" stroke="#63b8ff" points="1153.54,-132.47 1162.71,-127.17 1152.24,-125.59 1153.54,-132.47"/>
</a>
</g>
</g>
<!-- Node18 -->
<g id="Node000018" class="node">
<title>Node18</title>
<g id="a_Node000018"><a xlink:title=" ">
<polygon fill="#e0e0e0" stroke="#999999" points="929.76,-129 860.76,-129 860.76,-110 929.76,-110 929.76,-129"/>
<text text-anchor="middle" x="895.26" y="-117" font-family="Helvetica,sans-Serif" font-size="10.00">type_traits</text>
</a>
</g>
</g>
<!-- Node13&#45;&gt;Node18 -->
<g id="edge24_Node000013_Node000018" class="edge">
<title>Node13&#45;&gt;Node18</title>
<g id="a_edge24_Node000013_Node000018"><a xlink:title=" ">
<path fill="none" stroke="#63b8ff" d="M875.55,-164.84C879.06,-156.95 883.46,-147.05 887.21,-138.61"/>
<polygon fill="#63b8ff" stroke="#63b8ff" points="890.5,-139.83 891.36,-129.27 884.1,-136.98 890.5,-139.83"/>
</a>
</g>
</g>
<!-- Node19&#45;&gt;Node5 -->
<g id="edge26_Node000019_Node000005" class="edge">
<title>Node19&#45;&gt;Node5</title>
<g id="a_edge26_Node000019_Node000005"><a xlink:title=" ">
<path fill="none" stroke="#63b8ff" d="M126.52,-170.49C153.89,-160.49 199.52,-143.8 230.47,-132.49"/>
<polygon fill="#63b8ff" stroke="#63b8ff" points="231.77,-135.74 239.96,-129.02 229.37,-129.16 231.77,-135.74"/>
</a>
</g>
</g>
<!-- Node19&#45;&gt;Node6 -->
<g id="edge27_Node000019_Node000006" class="edge">
<title>Node19&#45;&gt;Node6</title>
<g id="a_edge27_Node000019_Node000006"><a xlink:title=" ">
<path fill="none" stroke="#63b8ff" d="M110.43,-170.5C122.52,-156.55 148.19,-128.51 174.26,-110 192.32,-97.17 214.62,-86.03 232.38,-78.1"/>
<polygon fill="#63b8ff" stroke="#63b8ff" points="233.95,-81.24 241.73,-74.04 231.16,-74.82 233.95,-81.24"/>
</a>
</g>
</g>
<!-- Node19&#45;&gt;Node10 -->
<g id="edge29_Node000019_Node000010" class="edge">
<title>Node19&#45;&gt;Node10</title>
<g id="a_edge29_Node000019_Node000010"><a xlink:title=" ">
<path fill="none" stroke="#63b8ff" d="M95.8,-170.43C87.48,-160.68 73.78,-144.16 63.26,-129 52.86,-114.03 42.32,-96.16 34.99,-83.19"/>
<polygon fill="#63b8ff" stroke="#63b8ff" points="37.99,-81.39 30.06,-74.36 31.88,-84.8 37.99,-81.39"/>
</a>
</g>
</g>
<!-- Node20 -->
<g id="Node000020" class="node">
<title>Node20</title>
<g id="a_Node000020"><a xlink:title=" ">
<polygon fill="#e0e0e0" stroke="#999999" points="121.76,-129 72.76,-129 72.76,-110 121.76,-110 121.76,-129"/>
<text text-anchor="middle" x="97.26" y="-117" font-family="Helvetica,sans-Serif" font-size="10.00">cstdlib</text>
</a>
</g>
</g>
<!-- Node19&#45;&gt;Node20 -->
<g id="edge28_Node000019_Node000020" class="edge">
<title>Node19&#45;&gt;Node20</title>
<g id="a_edge28_Node000019_Node000020"><a xlink:title=" ">
<path fill="none" stroke="#63b8ff" d="M102.37,-170.37C101.54,-162.25 100.26,-149.81 99.19,-139.39"/>
<polygon fill="#63b8ff" stroke="#63b8ff" points="102.65,-138.76 98.15,-129.17 95.68,-139.47 102.65,-138.76"/>
</a>
</g>
</g>
</g>
</svg>
