<?xml version="1.0" encoding="UTF-8" standalone="no"?>
<!DOCTYPE svg PUBLIC "-//W3C//DTD SVG 1.1//EN"
 "http://www.w3.org/Graphics/SVG/1.1/DTD/svg11.dtd">
<!-- Generated by graphviz version 2.43.0 (0)
 -->
<!-- Title: qugar::impl::funcs::PlaneBzr::PlaneBzr Pages: 1 -->
<svg width="272pt" height="86pt"
 viewBox="0.00 0.00 272.00 86.00" xmlns="http://www.w3.org/2000/svg" xmlns:xlink="http://www.w3.org/1999/xlink">
<g id="graph0" class="graph" transform="scale(1 1) rotate(0) translate(4 82)">
<title>qugar::impl::funcs::PlaneBzr::PlaneBzr</title>
<!-- Node1 -->
<g id="Node000001" class="node">
<title>Node1</title>
<g id="a_Node000001"><a xlink:title="Constructs a new plane function. The line is defined by an origin and a normal vector.">
<polygon fill="#999999" stroke="#666666" points="114,-54 0,-54 0,-24 114,-24 114,-54"/>
<text text-anchor="start" x="8" y="-42" font-family="Helvetica,sans-Serif" font-size="10.00">qugar::impl::funcs</text>
<text text-anchor="middle" x="57" y="-31" font-family="Helvetica,sans-Serif" font-size="10.00">::PlaneBzr::PlaneBzr</text>
</a>
</g>
</g>
<!-- Node2 -->
<g id="Node000002" class="node">
<title>Node2</title>
<g id="a_Node000002"><a xlink:href="../../db/d5b/classqugar_1_1impl_1_1funcs_1_1PlaneBase.html#a4341bb67bb5aa7ddb9f5a529ad24f481" target="_top" xlink:title="Gets the normal of the plane.">
<polygon fill="white" stroke="#666666" points="264,-78 150,-78 150,-48 264,-48 264,-78"/>
<text text-anchor="start" x="158" y="-66" font-family="Helvetica,sans-Serif" font-size="10.00">qugar::impl::funcs</text>
<text text-anchor="middle" x="207" y="-55" font-family="Helvetica,sans-Serif" font-size="10.00">::PlaneBase::normal</text>
</a>
</g>
</g>
<!-- Node1&#45;&gt;Node2 -->
<g id="edge1_Node000001_Node000002" class="edge">
<title>Node1&#45;&gt;Node2</title>
<g id="a_edge1_Node000001_Node000002"><a xlink:title=" ">
<path fill="none" stroke="#63b8ff" d="M114.37,-48.14C122.71,-49.49 131.37,-50.9 139.88,-52.28"/>
<polygon fill="#63b8ff" stroke="#63b8ff" points="139.35,-55.74 149.78,-53.88 140.47,-48.83 139.35,-55.74"/>
</a>
</g>
</g>
<!-- Node3 -->
<g id="Node000003" class="node">
<title>Node3</title>
<g id="a_Node000003"><a xlink:href="../../db/d5b/classqugar_1_1impl_1_1funcs_1_1PlaneBase.html#a7f5654556a5830120386a66983a4c3e5" target="_top" xlink:title="Gets the origin of the plane.">
<polygon fill="white" stroke="#666666" points="260.5,-30 153.5,-30 153.5,0 260.5,0 260.5,-30"/>
<text text-anchor="start" x="161.5" y="-18" font-family="Helvetica,sans-Serif" font-size="10.00">qugar::impl::funcs</text>
<text text-anchor="middle" x="207" y="-7" font-family="Helvetica,sans-Serif" font-size="10.00">::PlaneBase::origin</text>
</a>
</g>
</g>
<!-- Node1&#45;&gt;Node3 -->
<g id="edge2_Node000001_Node000003" class="edge">
<title>Node1&#45;&gt;Node3</title>
<g id="a_edge2_Node000001_Node000003"><a xlink:title=" ">
<path fill="none" stroke="#63b8ff" d="M114.37,-29.86C123.83,-28.32 133.7,-26.72 143.3,-25.17"/>
<polygon fill="#63b8ff" stroke="#63b8ff" points="143.88,-28.62 153.19,-23.56 142.76,-21.71 143.88,-28.62"/>
</a>
</g>
</g>
</g>
</svg>
