<?xml version="1.0" encoding="UTF-8" standalone="no"?>
<!DOCTYPE svg PUBLIC "-//W3C//DTD SVG 1.1//EN"
 "http://www.w3.org/Graphics/SVG/1.1/DTD/svg11.dtd">
<!-- Generated by graphviz version 2.43.0 (0)
 -->
<!-- Title: qugar::impl::funcs::PlaneBzr::create_monomials Pages: 1 -->
<svg width="320pt" height="86pt"
 viewBox="0.00 0.00 320.00 86.00" xmlns="http://www.w3.org/2000/svg" xmlns:xlink="http://www.w3.org/1999/xlink">
<g id="graph0" class="graph" transform="scale(1 1) rotate(0) translate(4 82)">
<title>qugar::impl::funcs::PlaneBzr::create_monomials</title>
<!-- Node1 -->
<g id="Node000001" class="node">
<title>Node1</title>
<g id="a_Node000001"><a xlink:title="Creates a polynomial representation based on monomials for the given origin a normal.">
<polygon fill="#999999" stroke="#666666" points="162,-54 0,-54 0,-24 162,-24 162,-54"/>
<text text-anchor="start" x="8" y="-42" font-family="Helvetica,sans-Serif" font-size="10.00">qugar::impl::funcs</text>
<text text-anchor="middle" x="81" y="-31" font-family="Helvetica,sans-Serif" font-size="10.00">::PlaneBzr::create_monomials</text>
</a>
</g>
</g>
<!-- Node2 -->
<g id="Node000002" class="node">
<title>Node2</title>
<g id="a_Node000002"><a xlink:href="../../db/d5b/classqugar_1_1impl_1_1funcs_1_1PlaneBase.html#a4341bb67bb5aa7ddb9f5a529ad24f481" target="_top" xlink:title="Gets the normal of the plane.">
<polygon fill="white" stroke="#666666" points="312,-78 198,-78 198,-48 312,-48 312,-78"/>
<text text-anchor="start" x="206" y="-66" font-family="Helvetica,sans-Serif" font-size="10.00">qugar::impl::funcs</text>
<text text-anchor="middle" x="255" y="-55" font-family="Helvetica,sans-Serif" font-size="10.00">::PlaneBase::normal</text>
</a>
</g>
</g>
<!-- Node1&#45;&gt;Node2 -->
<g id="edge1_Node000001_Node000002" class="edge">
<title>Node1&#45;&gt;Node2</title>
<g id="a_edge1_Node000001_Node000002"><a xlink:title=" ">
<path fill="none" stroke="#63b8ff" d="M162.21,-50.19C170.8,-51.39 179.47,-52.6 187.87,-53.77"/>
<polygon fill="#63b8ff" stroke="#63b8ff" points="187.58,-57.27 197.97,-55.18 188.55,-50.33 187.58,-57.27"/>
</a>
</g>
</g>
<!-- Node3 -->
<g id="Node000003" class="node">
<title>Node3</title>
<g id="a_Node000003"><a xlink:href="../../db/d5b/classqugar_1_1impl_1_1funcs_1_1PlaneBase.html#a7f5654556a5830120386a66983a4c3e5" target="_top" xlink:title="Gets the origin of the plane.">
<polygon fill="white" stroke="#666666" points="308.5,-30 201.5,-30 201.5,0 308.5,0 308.5,-30"/>
<text text-anchor="start" x="209.5" y="-18" font-family="Helvetica,sans-Serif" font-size="10.00">qugar::impl::funcs</text>
<text text-anchor="middle" x="255" y="-7" font-family="Helvetica,sans-Serif" font-size="10.00">::PlaneBase::origin</text>
</a>
</g>
</g>
<!-- Node1&#45;&gt;Node3 -->
<g id="edge2_Node000001_Node000003" class="edge">
<title>Node1&#45;&gt;Node3</title>
<g id="a_edge2_Node000001_Node000003"><a xlink:title=" ">
<path fill="none" stroke="#63b8ff" d="M162.21,-27.81C171.99,-26.44 181.86,-25.07 191.33,-23.74"/>
<polygon fill="#63b8ff" stroke="#63b8ff" points="192,-27.19 201.42,-22.34 191.03,-20.25 192,-27.19"/>
</a>
</g>
</g>
</g>
</svg>
