<?xml version="1.0" encoding="UTF-8" standalone="no"?>
<!DOCTYPE svg PUBLIC "-//W3C//DTD SVG 1.1//EN"
 "http://www.w3.org/Graphics/SVG/1.1/DTD/svg11.dtd">
<!-- Generated by graphviz version 2.43.0 (0)
 -->
<!-- Title: /__w/qugar/qugar/cpp/include/qugar/cut_quadrature.hpp Pages: 1 -->
<svg width="1562pt" height="445pt"
 viewBox="0.00 0.00 1562.00 445.00" xmlns="http://www.w3.org/2000/svg" xmlns:xlink="http://www.w3.org/1999/xlink">
<g id="graph0" class="graph" transform="scale(1 1) rotate(0) translate(4 441)">
<title>/__w/qugar/qugar/cpp/include/qugar/cut_quadrature.hpp</title>
<!-- Node1 -->
<g id="Node000001" class="node">
<title>Node1</title>
<g id="a_Node000001"><a xlink:title="Definition of cut quadrature for unfitted domains.">
<polygon fill="#999999" stroke="#666666" points="1083.5,-437 900.5,-437 900.5,-407 1083.5,-407 1083.5,-437"/>
<text text-anchor="start" x="908.5" y="-425" font-family="Helvetica,sans-Serif" font-size="10.00">/__w/qugar/qugar/cpp</text>
<text text-anchor="middle" x="992" y="-414" font-family="Helvetica,sans-Serif" font-size="10.00">/include/qugar/cut_quadrature.hpp</text>
</a>
</g>
</g>
<!-- Node2 -->
<g id="Node000002" class="node">
<title>Node2</title>
<g id="a_Node000002"><a xlink:href="../../d0/de4/point_8hpp.html" target="_top" xlink:title="Definition and implementation of Point class.">
<polygon fill="white" stroke="#666666" points="417.5,-129 324.5,-129 324.5,-110 417.5,-110 417.5,-129"/>
<text text-anchor="middle" x="371" y="-117" font-family="Helvetica,sans-Serif" font-size="10.00">qugar/point.hpp</text>
</a>
</g>
</g>
<!-- Node1&#45;&gt;Node2 -->
<g id="edge1_Node000001_Node000002" class="edge">
<title>Node1&#45;&gt;Node2</title>
<g id="a_edge1_Node000001_Node000002"><a xlink:title=" ">
<path fill="none" stroke="#63b8ff" d="M900.39,-421.57C732.15,-420.14 391,-404.58 391,-302 391,-302 391,-302 391,-239.5 391,-203.49 381.98,-162.19 376.06,-138.94"/>
<polygon fill="#63b8ff" stroke="#63b8ff" points="379.39,-137.85 373.45,-129.08 372.62,-139.64 379.39,-137.85"/>
</a>
</g>
</g>
<!-- Node3 -->
<g id="Node000003" class="node">
<title>Node3</title>
<g id="a_Node000003"><a xlink:href="../../dd/de3/types_8hpp.html" target="_top" xlink:title="Declaration of types.">
<polygon fill="white" stroke="#666666" points="271.5,-74 176.5,-74 176.5,-55 271.5,-55 271.5,-74"/>
<text text-anchor="middle" x="224" y="-62" font-family="Helvetica,sans-Serif" font-size="10.00">qugar/types.hpp</text>
</a>
</g>
</g>
<!-- Node1&#45;&gt;Node3 -->
<g id="edge8_Node000001_Node000003" class="edge">
<title>Node1&#45;&gt;Node3</title>
<g id="a_edge8_Node000001_Node000003"><a xlink:title=" ">
<path fill="none" stroke="#63b8ff" d="M900.4,-418.59C668.41,-411.28 76,-384.54 76,-302 76,-302 76,-302 76,-179 76,-124.66 139.59,-92.79 183.41,-77.28"/>
<polygon fill="#63b8ff" stroke="#63b8ff" points="184.63,-80.57 192.97,-74.04 182.38,-73.94 184.63,-80.57"/>
</a>
</g>
</g>
<!-- Node4 -->
<g id="Node000004" class="node">
<title>Node4</title>
<g id="a_Node000004"><a xlink:title=" ">
<polygon fill="#e0e0e0" stroke="#999999" points="435.5,-19 382.5,-19 382.5,0 435.5,0 435.5,-19"/>
<text text-anchor="middle" x="409" y="-7" font-family="Helvetica,sans-Serif" font-size="10.00">cstddef</text>
</a>
</g>
</g>
<!-- Node1&#45;&gt;Node4 -->
<g id="edge57_Node000001_Node000004" class="edge">
<title>Node1&#45;&gt;Node4</title>
<g id="a_edge57_Node000001_Node000004"><a xlink:title=" ">
<path fill="none" stroke="#63b8ff" d="M900.22,-419.25C715.36,-415.11 304.13,-402.55 167,-371 88.74,-352.99 0,-382.31 0,-302 0,-302 0,-302 0,-118.5 0,-41.88 271.69,-18.42 372.2,-12.35"/>
<polygon fill="#63b8ff" stroke="#63b8ff" points="372.7,-15.83 382.48,-11.76 372.29,-8.84 372.7,-15.83"/>
</a>
</g>
</g>
<!-- Node7 -->
<g id="Node000007" class="node">
<title>Node7</title>
<g id="a_Node000007"><a xlink:title=" ">
<polygon fill="#e0e0e0" stroke="#999999" points="1242.5,-74 1195.5,-74 1195.5,-55 1242.5,-55 1242.5,-74"/>
<text text-anchor="middle" x="1219" y="-62" font-family="Helvetica,sans-Serif" font-size="10.00">vector</text>
</a>
</g>
</g>
<!-- Node1&#45;&gt;Node7 -->
<g id="edge60_Node000001_Node000007" class="edge">
<title>Node1&#45;&gt;Node7</title>
<g id="a_edge60_Node000001_Node000007"><a xlink:title=" ">
<path fill="none" stroke="#63b8ff" d="M1083.63,-419.63C1154.59,-415.76 1254.11,-404.13 1335,-371 1373.25,-355.33 1385.2,-349.07 1410,-316 1465.11,-242.5 1499.43,-166.51 1427,-110 1400.24,-89.12 1304.65,-75.28 1252.89,-69.14"/>
<polygon fill="#63b8ff" stroke="#63b8ff" points="1253.19,-65.65 1242.85,-67.98 1252.38,-72.6 1253.19,-65.65"/>
</a>
</g>
</g>
<!-- Node8 -->
<g id="Node000008" class="node">
<title>Node8</title>
<g id="a_Node000008"><a xlink:href="../../d2/dfd/unfitted__domain_8hpp.html" target="_top" xlink:title="Declaration of of UnfittedDomain class.">
<polygon fill="white" stroke="#666666" points="1288,-371 1140,-371 1140,-352 1288,-352 1288,-371"/>
<text text-anchor="middle" x="1214" y="-359" font-family="Helvetica,sans-Serif" font-size="10.00">qugar/unfitted_domain.hpp</text>
</a>
</g>
</g>
<!-- Node1&#45;&gt;Node8 -->
<g id="edge9_Node000001_Node000008" class="edge">
<title>Node1&#45;&gt;Node8</title>
<g id="a_edge9_Node000001_Node000008"><a xlink:title=" ">
<path fill="none" stroke="#63b8ff" d="M1045.17,-406.99C1083.98,-396.76 1135.88,-383.09 1171.84,-373.61"/>
<polygon fill="#63b8ff" stroke="#63b8ff" points="1172.76,-376.99 1181.54,-371.05 1170.98,-370.22 1172.76,-376.99"/>
</a>
</g>
</g>
<!-- Node17 -->
<g id="Node000017" class="node">
<title>Node17</title>
<g id="a_Node000017"><a xlink:title=" ">
<polygon fill="#e0e0e0" stroke="#999999" points="1398,-129 1348,-129 1348,-110 1398,-110 1398,-129"/>
<text text-anchor="middle" x="1373" y="-117" font-family="Helvetica,sans-Serif" font-size="10.00">cstdint</text>
</a>
</g>
</g>
<!-- Node1&#45;&gt;Node17 -->
<g id="edge58_Node000001_Node000017" class="edge">
<title>Node1&#45;&gt;Node17</title>
<g id="a_edge58_Node000001_Node000017"><a xlink:title=" ">
<path fill="none" stroke="#63b8ff" d="M1083.77,-415.22C1145.58,-409.11 1228.09,-396.59 1297,-371 1340.95,-354.68 1358.85,-353.48 1387,-316 1427.48,-262.11 1421.63,-229.16 1401,-165 1397.79,-155.02 1391.83,-145.05 1386.23,-137.08"/>
<polygon fill="#63b8ff" stroke="#63b8ff" points="1389.01,-134.95 1380.23,-129.03 1383.41,-139.14 1389.01,-134.95"/>
</a>
</g>
</g>
<!-- Node22 -->
<g id="Node000022" class="node">
<title>Node22</title>
<g id="a_Node000022"><a xlink:title=" ">
<polygon fill="#e0e0e0" stroke="#999999" points="1146,-189.5 1088,-189.5 1088,-170.5 1146,-170.5 1146,-189.5"/>
<text text-anchor="middle" x="1117" y="-177.5" font-family="Helvetica,sans-Serif" font-size="10.00">memory</text>
</a>
</g>
</g>
<!-- Node1&#45;&gt;Node22 -->
<g id="edge59_Node000001_Node000022" class="edge">
<title>Node1&#45;&gt;Node22</title>
<g id="a_edge59_Node000001_Node000022"><a xlink:title=" ">
<path fill="none" stroke="#63b8ff" d="M993.3,-406.81C996.98,-373.34 1009.92,-287.98 1050,-231 1060.62,-215.91 1077.22,-203.47 1091.23,-194.78"/>
<polygon fill="#63b8ff" stroke="#63b8ff" points="1093.15,-197.71 1099.99,-189.61 1089.59,-191.68 1093.15,-197.71"/>
</a>
</g>
</g>
<!-- Node2&#45;&gt;Node3 -->
<g id="edge2_Node000002_Node000003" class="edge">
<title>Node2&#45;&gt;Node3</title>
<g id="a_edge2_Node000002_Node000003"><a xlink:title=" ">
<path fill="none" stroke="#63b8ff" d="M347.38,-109.98C323.1,-101.23 285.05,-87.51 257.63,-77.62"/>
<polygon fill="#63b8ff" stroke="#63b8ff" points="258.64,-74.27 248.05,-74.17 256.27,-80.85 258.64,-74.27"/>
</a>
</g>
</g>
<!-- Node2&#45;&gt;Node4 -->
<g id="edge6_Node000002_Node000004" class="edge">
<title>Node2&#45;&gt;Node4</title>
<g id="a_edge6_Node000002_Node000004"><a xlink:title=" ">
<path fill="none" stroke="#63b8ff" d="M374.11,-109.66C380.32,-92.01 394.37,-52.09 402.62,-28.64"/>
<polygon fill="#63b8ff" stroke="#63b8ff" points="405.94,-29.75 405.95,-19.16 399.33,-27.43 405.94,-29.75"/>
</a>
</g>
</g>
<!-- Node5 -->
<g id="Node000005" class="node">
<title>Node5</title>
<g id="a_Node000005"><a xlink:href="../../da/d16/vector_8hpp.html" target="_top" xlink:title=" ">
<polygon fill="white" stroke="#666666" points="1083,-74 985,-74 985,-55 1083,-55 1083,-74"/>
<text text-anchor="middle" x="1034" y="-62" font-family="Helvetica,sans-Serif" font-size="10.00">qugar/vector.hpp</text>
</a>
</g>
</g>
<!-- Node2&#45;&gt;Node5 -->
<g id="edge4_Node000002_Node000005" class="edge">
<title>Node2&#45;&gt;Node5</title>
<g id="a_edge4_Node000002_Node000005"><a xlink:title=" ">
<path fill="none" stroke="#63b8ff" d="M417.85,-114.15C432.9,-112.78 449.65,-111.29 465,-110 650.9,-94.33 871.14,-77.64 974.65,-69.9"/>
<polygon fill="#63b8ff" stroke="#63b8ff" points="975.18,-73.37 984.89,-69.14 974.66,-66.39 975.18,-73.37"/>
</a>
</g>
</g>
<!-- Node2&#45;&gt;Node7 -->
<g id="edge7_Node000002_Node000007" class="edge">
<title>Node2&#45;&gt;Node7</title>
<g id="a_edge7_Node000002_Node000007"><a xlink:title=" ">
<path fill="none" stroke="#63b8ff" d="M417.83,-113.96C432.89,-112.58 449.64,-111.14 465,-110 743.37,-89.43 813.41,-91.32 1092,-74 1123.46,-72.04 1159.28,-69.63 1184.84,-67.87"/>
<polygon fill="#63b8ff" stroke="#63b8ff" points="1185.39,-71.34 1195.13,-67.17 1184.91,-64.36 1185.39,-71.34"/>
</a>
</g>
</g>
<!-- Node3&#45;&gt;Node4 -->
<g id="edge3_Node000003_Node000004" class="edge">
<title>Node3&#45;&gt;Node4</title>
<g id="a_edge3_Node000003_Node000004"><a xlink:title=" ">
<path fill="none" stroke="#63b8ff" d="M253.72,-54.98C286.07,-45.72 337.82,-30.89 372.59,-20.93"/>
<polygon fill="#63b8ff" stroke="#63b8ff" points="373.7,-24.25 382.35,-18.13 371.78,-17.52 373.7,-24.25"/>
</a>
</g>
</g>
<!-- Node6 -->
<g id="Node000006" class="node">
<title>Node6</title>
<g id="a_Node000006"><a xlink:title=" ">
<polygon fill="#e0e0e0" stroke="#999999" points="1089,-19 979,-19 979,0 1089,0 1089,-19"/>
<text text-anchor="middle" x="1034" y="-7" font-family="Helvetica,sans-Serif" font-size="10.00">algoim/uvector.hpp</text>
</a>
</g>
</g>
<!-- Node5&#45;&gt;Node6 -->
<g id="edge5_Node000005_Node000006" class="edge">
<title>Node5&#45;&gt;Node6</title>
<g id="a_edge5_Node000005_Node000006"><a xlink:title=" ">
<path fill="none" stroke="#63b8ff" d="M1034,-54.75C1034,-47.8 1034,-37.85 1034,-29.13"/>
<polygon fill="#63b8ff" stroke="#63b8ff" points="1037.5,-29.09 1034,-19.09 1030.5,-29.09 1037.5,-29.09"/>
</a>
</g>
</g>
<!-- Node8&#45;&gt;Node4 -->
<g id="edge51_Node000008_Node000004" class="edge">
<title>Node8&#45;&gt;Node4</title>
<g id="a_edge51_Node000008_Node000004"><a xlink:title=" ">
<path fill="none" stroke="#63b8ff" d="M1288.19,-353.92C1388.24,-340.52 1554,-300.31 1554,-181 1554,-181 1554,-181 1554,-118.5 1554,18.66 1388,-72.78 1252,-55 942.32,-14.52 564.08,-10.6 446,-10.42"/>
<polygon fill="#63b8ff" stroke="#63b8ff" points="445.71,-6.92 435.71,-10.41 445.71,-13.92 445.71,-6.92"/>
</a>
</g>
</g>
<!-- Node8&#45;&gt;Node7 -->
<g id="edge56_Node000008_Node000007" class="edge">
<title>Node8&#45;&gt;Node7</title>
<g id="a_edge56_Node000008_Node000007"><a xlink:title=" ">
<path fill="none" stroke="#63b8ff" d="M1288.33,-357.98C1322.47,-353.05 1361.05,-341.58 1387,-316 1452.51,-251.43 1464.06,-182.15 1407,-110 1388.15,-86.17 1301.79,-73.78 1252.94,-68.57"/>
<polygon fill="#63b8ff" stroke="#63b8ff" points="1253.14,-65.07 1242.83,-67.54 1252.43,-72.04 1253.14,-65.07"/>
</a>
</g>
</g>
<!-- Node9 -->
<g id="Node000009" class="node">
<title>Node9</title>
<g id="a_Node000009"><a xlink:href="../../d6/d49/cart__grid__tp_8hpp.html" target="_top" xlink:title="Definition of Cartesian grid class.">
<polygon fill="white" stroke="#666666" points="752,-250 626,-250 626,-231 752,-231 752,-250"/>
<text text-anchor="middle" x="689" y="-238" font-family="Helvetica,sans-Serif" font-size="10.00">qugar/cart_grid_tp.hpp</text>
</a>
</g>
</g>
<!-- Node8&#45;&gt;Node9 -->
<g id="edge10_Node000008_Node000009" class="edge">
<title>Node8&#45;&gt;Node9</title>
<g id="a_edge10_Node000008_Node000009"><a xlink:title=" ">
<path fill="none" stroke="#63b8ff" d="M1175.66,-351.92C1135.77,-342.98 1071.5,-328.56 1016,-316 916.48,-293.48 799.98,-266.88 736.38,-252.34"/>
<polygon fill="#63b8ff" stroke="#63b8ff" points="736.79,-248.84 726.26,-250.03 735.23,-255.67 736.79,-248.84"/>
</a>
</g>
</g>
<!-- Node13 -->
<g id="Node000013" class="node">
<title>Node13</title>
<g id="a_Node000013"><a xlink:title=" ">
<polygon fill="#e0e0e0" stroke="#999999" points="1160,-129 1118,-129 1118,-110 1160,-110 1160,-129"/>
<text text-anchor="middle" x="1139" y="-117" font-family="Helvetica,sans-Serif" font-size="10.00">array</text>
</a>
</g>
</g>
<!-- Node8&#45;&gt;Node13 -->
<g id="edge49_Node000008_Node000013" class="edge">
<title>Node8&#45;&gt;Node13</title>
<g id="a_edge49_Node000008_Node000013"><a xlink:title=" ">
<path fill="none" stroke="#63b8ff" d="M1213.16,-351.96C1210.19,-324.05 1198.69,-233.36 1169,-165 1164.74,-155.19 1158.27,-145.23 1152.42,-137.23"/>
<polygon fill="#63b8ff" stroke="#63b8ff" points="1155.1,-134.96 1146.25,-129.13 1149.53,-139.21 1155.1,-134.96"/>
</a>
</g>
</g>
<!-- Node16 -->
<g id="Node000016" class="node">
<title>Node16</title>
<g id="a_Node000016"><a xlink:title=" ">
<polygon fill="#e0e0e0" stroke="#999999" points="1330,-129 1278,-129 1278,-110 1330,-110 1330,-129"/>
<text text-anchor="middle" x="1304" y="-117" font-family="Helvetica,sans-Serif" font-size="10.00">cassert</text>
</a>
</g>
</g>
<!-- Node8&#45;&gt;Node16 -->
<g id="edge50_Node000008_Node000016" class="edge">
<title>Node8&#45;&gt;Node16</title>
<g id="a_edge50_Node000008_Node000016"><a xlink:title=" ">
<path fill="none" stroke="#63b8ff" d="M1288.16,-351.95C1310.02,-345.57 1331.64,-334.65 1345,-316 1384.86,-260.36 1338.89,-174.31 1315.74,-137.81"/>
<polygon fill="#63b8ff" stroke="#63b8ff" points="1318.56,-135.73 1310.16,-129.27 1312.7,-139.56 1318.56,-135.73"/>
</a>
</g>
</g>
<!-- Node8&#45;&gt;Node17 -->
<g id="edge52_Node000008_Node000017" class="edge">
<title>Node8&#45;&gt;Node17</title>
<g id="a_edge52_Node000008_Node000017"><a xlink:title=" ">
<path fill="none" stroke="#63b8ff" d="M1288.1,-355.81C1316.27,-350.13 1346.1,-338.67 1365,-316 1407.76,-264.71 1389.56,-176.9 1378.82,-138.91"/>
<polygon fill="#63b8ff" stroke="#63b8ff" points="1382.13,-137.78 1375.92,-129.2 1375.42,-139.78 1382.13,-137.78"/>
</a>
</g>
</g>
<!-- Node18 -->
<g id="Node000018" class="node">
<title>Node18</title>
<g id="a_Node000018"><a xlink:title=" ">
<polygon fill="#e0e0e0" stroke="#999999" points="873.5,-129 808.5,-129 808.5,-110 873.5,-110 873.5,-129"/>
<text text-anchor="middle" x="841" y="-117" font-family="Helvetica,sans-Serif" font-size="10.00">functional</text>
</a>
</g>
</g>
<!-- Node8&#45;&gt;Node18 -->
<g id="edge53_Node000008_Node000018" class="edge">
<title>Node8&#45;&gt;Node18</title>
<g id="a_edge53_Node000008_Node000018"><a xlink:title=" ">
<path fill="none" stroke="#63b8ff" d="M1139.83,-358.46C994.42,-352.71 680.51,-330.97 617,-250 595.41,-222.47 617.72,-191.45 652,-165 674.61,-147.55 750.09,-133.71 798.55,-126.34"/>
<polygon fill="#63b8ff" stroke="#63b8ff" points="799.07,-129.8 808.45,-124.86 798.04,-122.87 799.07,-129.8"/>
</a>
</g>
</g>
<!-- Node8&#45;&gt;Node22 -->
<g id="edge54_Node000008_Node000022" class="edge">
<title>Node8&#45;&gt;Node22</title>
<g id="a_edge54_Node000008_Node000022"><a xlink:title=" ">
<path fill="none" stroke="#63b8ff" d="M1153.84,-351.94C1112.49,-344.68 1062.81,-332.76 1050,-316 1020.2,-277.03 1069.99,-222.73 1098.77,-196.46"/>
<polygon fill="#63b8ff" stroke="#63b8ff" points="1101.42,-198.79 1106.58,-189.54 1096.78,-193.55 1101.42,-198.79"/>
</a>
</g>
</g>
<!-- Node24 -->
<g id="Node000024" class="node">
<title>Node24</title>
<g id="a_Node000024"><a xlink:href="../../d8/daf/unfitted__domain__binary__part_8hpp.html" target="_top" xlink:title="Declaration of of UnfittedDomain class.">
<polygon fill="white" stroke="#666666" points="1185.5,-316 1058.5,-316 1058.5,-286 1185.5,-286 1185.5,-316"/>
<text text-anchor="start" x="1066.5" y="-304" font-family="Helvetica,sans-Serif" font-size="10.00">qugar/unfitted_domain</text>
<text text-anchor="middle" x="1122" y="-293" font-family="Helvetica,sans-Serif" font-size="10.00">_binary_part.hpp</text>
</a>
</g>
</g>
<!-- Node8&#45;&gt;Node24 -->
<g id="edge40_Node000008_Node000024" class="edge">
<title>Node8&#45;&gt;Node24</title>
<g id="a_edge40_Node000008_Node000024"><a xlink:title=" ">
<path fill="none" stroke="#63b8ff" d="M1200.43,-351.87C1187.94,-343.93 1168.98,-331.87 1152.82,-321.6"/>
<polygon fill="#63b8ff" stroke="#63b8ff" points="1154.51,-318.53 1144.2,-316.11 1150.76,-324.43 1154.51,-318.53"/>
</a>
</g>
</g>
<!-- Node25 -->
<g id="Node000025" class="node">
<title>Node25</title>
<g id="a_Node000025"><a xlink:title=" ">
<polygon fill="#e0e0e0" stroke="#999999" points="1335.5,-310.5 1242.5,-310.5 1242.5,-291.5 1335.5,-291.5 1335.5,-310.5"/>
<text text-anchor="middle" x="1289" y="-298.5" font-family="Helvetica,sans-Serif" font-size="10.00">unordered_map</text>
</a>
</g>
</g>
<!-- Node8&#45;&gt;Node25 -->
<g id="edge55_Node000008_Node000025" class="edge">
<title>Node8&#45;&gt;Node25</title>
<g id="a_edge55_Node000008_Node000025"><a xlink:title=" ">
<path fill="none" stroke="#63b8ff" d="M1225.07,-351.87C1236.81,-342.71 1255.59,-328.06 1269.76,-317.01"/>
<polygon fill="#63b8ff" stroke="#63b8ff" points="1272.16,-319.58 1277.89,-310.67 1267.85,-314.06 1272.16,-319.58"/>
</a>
</g>
</g>
<!-- Node9&#45;&gt;Node2 -->
<g id="edge18_Node000009_Node000002" class="edge">
<title>Node9&#45;&gt;Node2</title>
<g id="a_edge18_Node000009_Node000002"><a xlink:title=" ">
<path fill="none" stroke="#63b8ff" d="M625.52,-234.28C580.28,-228.76 518.88,-217.56 469,-195 436.75,-180.41 405.21,-153.51 386.96,-136.34"/>
<polygon fill="#63b8ff" stroke="#63b8ff" points="389.18,-133.63 379.55,-129.22 384.33,-138.67 389.18,-133.63"/>
</a>
</g>
</g>
<!-- Node9&#45;&gt;Node3 -->
<g id="edge33_Node000009_Node000003" class="edge">
<title>Node9&#45;&gt;Node3</title>
<g id="a_edge33_Node000009_Node000003"><a xlink:title=" ">
<path fill="none" stroke="#63b8ff" d="M625.55,-237.43C499.42,-232.8 226.31,-219.99 192,-195 159.85,-171.59 146.12,-145.53 164,-110 170.69,-96.71 183.44,-86.39 195.47,-79.05"/>
<polygon fill="#63b8ff" stroke="#63b8ff" points="197.42,-81.97 204.42,-74.02 193.99,-75.87 197.42,-81.97"/>
</a>
</g>
</g>
<!-- Node9&#45;&gt;Node4 -->
<g id="edge35_Node000009_Node000004" class="edge">
<title>Node9&#45;&gt;Node4</title>
<g id="a_edge35_Node000009_Node000004"><a xlink:title=" ">
<path fill="none" stroke="#63b8ff" d="M625.97,-238.66C492.64,-236.27 191.53,-227.31 159,-195 114.76,-151.06 122.11,-97.21 168,-55 197.25,-28.1 312.11,-16.77 372.09,-12.6"/>
<polygon fill="#63b8ff" stroke="#63b8ff" points="372.52,-16.08 382.27,-11.93 372.06,-9.1 372.52,-16.08"/>
</a>
</g>
</g>
<!-- Node9&#45;&gt;Node7 -->
<g id="edge39_Node000009_Node000007" class="edge">
<title>Node9&#45;&gt;Node7</title>
<g id="a_edge39_Node000009_Node000007"><a xlink:title=" ">
<path fill="none" stroke="#63b8ff" d="M752.28,-234.55C830.02,-227.75 956.89,-214.17 1000,-195 1019.03,-186.54 1017.52,-174.61 1036,-165 1090.33,-136.75 1117.91,-162.77 1169,-129 1186.5,-117.43 1200.61,-97.72 1209.33,-83.32"/>
<polygon fill="#63b8ff" stroke="#63b8ff" points="1212.52,-84.78 1214.47,-74.37 1206.45,-81.29 1212.52,-84.78"/>
</a>
</g>
</g>
<!-- Node10 -->
<g id="Node000010" class="node">
<title>Node10</title>
<g id="a_Node000010"><a xlink:href="../../d5/d90/bbox_8hpp.html" target="_top" xlink:title="Definition of Cartesian bounding box class.">
<polygon fill="white" stroke="#666666" points="570,-189.5 478,-189.5 478,-170.5 570,-170.5 570,-189.5"/>
<text text-anchor="middle" x="524" y="-177.5" font-family="Helvetica,sans-Serif" font-size="10.00">qugar/bbox.hpp</text>
</a>
</g>
</g>
<!-- Node9&#45;&gt;Node10 -->
<g id="edge11_Node000009_Node000010" class="edge">
<title>Node9&#45;&gt;Node10</title>
<g id="a_edge11_Node000009_Node000010"><a xlink:title=" ">
<path fill="none" stroke="#63b8ff" d="M665.01,-230.99C636.78,-220.99 589.72,-204.3 557.81,-192.99"/>
<polygon fill="#63b8ff" stroke="#63b8ff" points="558.62,-189.56 548.02,-189.52 556.28,-196.16 558.62,-189.56"/>
</a>
</g>
</g>
<!-- Node9&#45;&gt;Node13 -->
<g id="edge34_Node000009_Node000013" class="edge">
<title>Node9&#45;&gt;Node13</title>
<g id="a_edge34_Node000009_Node000013"><a xlink:title=" ">
<path fill="none" stroke="#63b8ff" d="M752.25,-237.31C809.63,-233.48 895.6,-223.08 965,-195 986.6,-186.26 987.21,-175.52 1008,-165 1040.69,-148.46 1080.92,-135.84 1108.11,-128.33"/>
<polygon fill="#63b8ff" stroke="#63b8ff" points="1109.11,-131.69 1117.85,-125.71 1107.28,-124.93 1109.11,-131.69"/>
</a>
</g>
</g>
<!-- Node14 -->
<g id="Node000014" class="node">
<title>Node14</title>
<g id="a_Node000014"><a xlink:href="../../d9/d43/tensor__index__tp_8hpp.html" target="_top" xlink:title="Declaration of tensor&#45;product index and size related classes.">
<polygon fill="white" stroke="#666666" points="956,-195 846,-195 846,-165 956,-165 956,-195"/>
<text text-anchor="start" x="854" y="-183" font-family="Helvetica,sans-Serif" font-size="10.00">qugar/tensor_index</text>
<text text-anchor="middle" x="901" y="-172" font-family="Helvetica,sans-Serif" font-size="10.00">_tp.hpp</text>
</a>
</g>
</g>
<!-- Node9&#45;&gt;Node14 -->
<g id="edge19_Node000009_Node000014" class="edge">
<title>Node9&#45;&gt;Node14</title>
<g id="a_edge19_Node000009_Node000014"><a xlink:title=" ">
<path fill="none" stroke="#63b8ff" d="M719.83,-230.99C751.27,-222.32 800.89,-208.62 840.26,-197.76"/>
<polygon fill="#63b8ff" stroke="#63b8ff" points="841.32,-201.1 850.03,-195.06 839.46,-194.35 841.32,-201.1"/>
</a>
</g>
</g>
<!-- Node9&#45;&gt;Node17 -->
<g id="edge36_Node000009_Node000017" class="edge">
<title>Node9&#45;&gt;Node17</title>
<g id="a_edge36_Node000009_Node000017"><a xlink:title=" ">
<path fill="none" stroke="#63b8ff" d="M752.31,-240.33C823.61,-239.26 941.8,-231.36 1036,-195 1057.74,-186.61 1057.3,-173.5 1079,-165 1184.65,-123.61 1222.4,-149.66 1337.89,-128.97"/>
<polygon fill="#63b8ff" stroke="#63b8ff" points="1338.63,-132.4 1347.82,-127.12 1337.34,-125.52 1338.63,-132.4"/>
</a>
</g>
</g>
<!-- Node20 -->
<g id="Node000020" class="node">
<title>Node20</title>
<g id="a_Node000020"><a xlink:href="../../d0/d55/tolerance_8hpp.html" target="_top" xlink:title="Definition of tolerance related functionalities.">
<polygon fill="white" stroke="#666666" points="315,-189.5 201,-189.5 201,-170.5 315,-170.5 315,-189.5"/>
<text text-anchor="middle" x="258" y="-177.5" font-family="Helvetica,sans-Serif" font-size="10.00">qugar/tolerance.hpp</text>
</a>
</g>
</g>
<!-- Node9&#45;&gt;Node20 -->
<g id="edge28_Node000009_Node000020" class="edge">
<title>Node9&#45;&gt;Node20</title>
<g id="a_edge28_Node000009_Node000020"><a xlink:title=" ">
<path fill="none" stroke="#63b8ff" d="M626.33,-230.99C546.09,-220.1 407.62,-201.31 325.24,-190.13"/>
<polygon fill="#63b8ff" stroke="#63b8ff" points="325.62,-186.65 315.24,-188.77 324.68,-193.58 325.62,-186.65"/>
</a>
</g>
</g>
<!-- Node9&#45;&gt;Node22 -->
<g id="edge37_Node000009_Node000022" class="edge">
<title>Node9&#45;&gt;Node22</title>
<g id="a_edge37_Node000009_Node000022"><a xlink:title=" ">
<path fill="none" stroke="#63b8ff" d="M752.32,-236.07C829.14,-231.01 962.25,-219.39 1074,-195 1077.22,-194.3 1080.54,-193.45 1083.85,-192.52"/>
<polygon fill="#63b8ff" stroke="#63b8ff" points="1085.03,-195.82 1093.58,-189.56 1082.99,-189.12 1085.03,-195.82"/>
</a>
</g>
</g>
<!-- Node23 -->
<g id="Node000023" class="node">
<title>Node23</title>
<g id="a_Node000023"><a xlink:title=" ">
<polygon fill="#e0e0e0" stroke="#999999" points="717,-189.5 661,-189.5 661,-170.5 717,-170.5 717,-189.5"/>
<text text-anchor="middle" x="689" y="-177.5" font-family="Helvetica,sans-Serif" font-size="10.00">optional</text>
</a>
</g>
</g>
<!-- Node9&#45;&gt;Node23 -->
<g id="edge38_Node000009_Node000023" class="edge">
<title>Node9&#45;&gt;Node23</title>
<g id="a_edge38_Node000009_Node000023"><a xlink:title=" ">
<path fill="none" stroke="#63b8ff" d="M689,-230.87C689,-222.75 689,-210.31 689,-199.89"/>
<polygon fill="#63b8ff" stroke="#63b8ff" points="692.5,-199.67 689,-189.67 685.5,-199.67 692.5,-199.67"/>
</a>
</g>
</g>
<!-- Node10&#45;&gt;Node2 -->
<g id="edge13_Node000010_Node000002" class="edge">
<title>Node10&#45;&gt;Node2</title>
<g id="a_edge13_Node000010_Node000002"><a xlink:title=" ">
<path fill="none" stroke="#63b8ff" d="M501.75,-170.49C475.69,-160.53 432.32,-143.95 402.73,-132.63"/>
<polygon fill="#63b8ff" stroke="#63b8ff" points="403.86,-129.32 393.27,-129.02 401.36,-135.86 403.86,-129.32"/>
</a>
</g>
</g>
<!-- Node10&#45;&gt;Node3 -->
<g id="edge14_Node000010_Node000003" class="edge">
<title>Node10&#45;&gt;Node3</title>
<g id="a_edge14_Node000010_Node000003"><a xlink:title=" ">
<path fill="none" stroke="#63b8ff" d="M477.8,-172.89C434.57,-166.02 368.9,-152.63 316,-129 287.83,-116.42 259.16,-94.97 241.49,-80.53"/>
<polygon fill="#63b8ff" stroke="#63b8ff" points="243.66,-77.78 233.74,-74.07 239.18,-83.16 243.66,-77.78"/>
</a>
</g>
</g>
<!-- Node10&#45;&gt;Node4 -->
<g id="edge17_Node000010_Node000004" class="edge">
<title>Node10&#45;&gt;Node4</title>
<g id="a_edge17_Node000010_Node000004"><a xlink:title=" ">
<path fill="none" stroke="#63b8ff" d="M510.85,-170.37C497.86,-161.31 478.08,-146.04 465,-129 440.73,-97.38 423.45,-53.55 414.96,-29.02"/>
<polygon fill="#63b8ff" stroke="#63b8ff" points="418.18,-27.6 411.69,-19.23 411.54,-29.82 418.18,-27.6"/>
</a>
</g>
</g>
<!-- Node11 -->
<g id="Node000011" class="node">
<title>Node11</title>
<g id="a_Node000011"><a xlink:href="../../d7/dd8/concepts_8hpp.html" target="_top" xlink:title="Declaration of concepts.">
<polygon fill="white" stroke="#666666" points="752,-129 640,-129 640,-110 752,-110 752,-129"/>
<text text-anchor="middle" x="696" y="-117" font-family="Helvetica,sans-Serif" font-size="10.00">qugar/concepts.hpp</text>
</a>
</g>
</g>
<!-- Node10&#45;&gt;Node11 -->
<g id="edge12_Node000010_Node000011" class="edge">
<title>Node10&#45;&gt;Node11</title>
<g id="a_edge12_Node000010_Node000011"><a xlink:title=" ">
<path fill="none" stroke="#63b8ff" d="M549.01,-170.49C578.56,-160.44 627.91,-143.66 661.19,-132.34"/>
<polygon fill="#63b8ff" stroke="#63b8ff" points="662.62,-135.55 670.96,-129.02 660.37,-128.92 662.62,-135.55"/>
</a>
</g>
</g>
<!-- Node12 -->
<g id="Node000012" class="node">
<title>Node12</title>
<g id="a_Node000012"><a xlink:title=" ">
<polygon fill="#e0e0e0" stroke="#999999" points="622,-129 474,-129 474,-110 622,-110 622,-129"/>
<text text-anchor="middle" x="548" y="-117" font-family="Helvetica,sans-Serif" font-size="10.00">algoim/hyperrectangle.hpp</text>
</a>
</g>
</g>
<!-- Node10&#45;&gt;Node12 -->
<g id="edge15_Node000010_Node000012" class="edge">
<title>Node10&#45;&gt;Node12</title>
<g id="a_edge15_Node000010_Node000012"><a xlink:title=" ">
<path fill="none" stroke="#63b8ff" d="M527.54,-170.37C530.94,-162.07 536.19,-149.28 540.52,-138.72"/>
<polygon fill="#63b8ff" stroke="#63b8ff" points="543.89,-139.75 544.44,-129.17 537.41,-137.09 543.89,-139.75"/>
</a>
</g>
</g>
<!-- Node10&#45;&gt;Node13 -->
<g id="edge16_Node000010_Node000013" class="edge">
<title>Node10&#45;&gt;Node13</title>
<g id="a_edge16_Node000010_Node000013"><a xlink:title=" ">
<path fill="none" stroke="#63b8ff" d="M570.19,-173.69C594.51,-170.95 624.86,-167.65 652,-165 838.02,-146.84 885.12,-148.6 1071,-129 1083.05,-127.73 1096.27,-126.13 1107.83,-124.65"/>
<polygon fill="#63b8ff" stroke="#63b8ff" points="1108.42,-128.11 1117.89,-123.35 1107.52,-121.16 1108.42,-128.11"/>
</a>
</g>
</g>
<!-- Node14&#45;&gt;Node4 -->
<g id="edge24_Node000014_Node000004" class="edge">
<title>Node14&#45;&gt;Node4</title>
<g id="a_edge24_Node000014_Node000004"><a xlink:title=" ">
<path fill="none" stroke="#63b8ff" d="M900.37,-165C899.06,-150.06 895.06,-126.33 883,-110 855.37,-72.6 837.92,-70.26 794,-55 730.08,-32.8 528.92,-18.01 445.65,-12.7"/>
<polygon fill="#63b8ff" stroke="#63b8ff" points="445.83,-9.2 435.63,-12.07 445.39,-16.19 445.83,-9.2"/>
</a>
</g>
</g>
<!-- Node14&#45;&gt;Node5 -->
<g id="edge21_Node000014_Node000005" class="edge">
<title>Node14&#45;&gt;Node5</title>
<g id="a_edge21_Node000014_Node000005"><a xlink:title=" ">
<path fill="none" stroke="#63b8ff" d="M956.17,-166.25C1003.04,-154.86 1063.86,-138.54 1071,-129 1082.61,-113.48 1067.42,-94.03 1053.15,-80.77"/>
<polygon fill="#63b8ff" stroke="#63b8ff" points="1055.33,-78.03 1045.48,-74.1 1050.73,-83.31 1055.33,-78.03"/>
</a>
</g>
</g>
<!-- Node14&#45;&gt;Node13 -->
<g id="edge22_Node000014_Node000013" class="edge">
<title>Node14&#45;&gt;Node13</title>
<g id="a_edge22_Node000014_Node000013"><a xlink:title=" ">
<path fill="none" stroke="#63b8ff" d="M956.2,-165.43C1003.27,-153.86 1069.25,-137.65 1107.72,-128.19"/>
<polygon fill="#63b8ff" stroke="#63b8ff" points="1108.93,-131.5 1117.8,-125.71 1107.25,-124.7 1108.93,-131.5"/>
</a>
</g>
</g>
<!-- Node15 -->
<g id="Node000015" class="node">
<title>Node15</title>
<g id="a_Node000015"><a xlink:title=" ">
<polygon fill="#e0e0e0" stroke="#999999" points="974,-129 930,-129 930,-110 974,-110 974,-129"/>
<text text-anchor="middle" x="952" y="-117" font-family="Helvetica,sans-Serif" font-size="10.00">limits</text>
</a>
</g>
</g>
<!-- Node14&#45;&gt;Node15 -->
<g id="edge20_Node000014_Node000015" class="edge">
<title>Node14&#45;&gt;Node15</title>
<g id="a_edge20_Node000014_Node000015"><a xlink:title=" ">
<path fill="none" stroke="#63b8ff" d="M913.35,-164.84C920.67,-156.43 930,-145.74 937.65,-136.96"/>
<polygon fill="#63b8ff" stroke="#63b8ff" points="940.42,-139.1 944.36,-129.27 935.15,-134.5 940.42,-139.1"/>
</a>
</g>
</g>
<!-- Node14&#45;&gt;Node16 -->
<g id="edge23_Node000014_Node000016" class="edge">
<title>Node14&#45;&gt;Node16</title>
<g id="a_edge23_Node000014_Node000016"><a xlink:title=" ">
<path fill="none" stroke="#63b8ff" d="M956.19,-170.99C1039.85,-158.84 1196.51,-136.1 1267.44,-125.81"/>
<polygon fill="#63b8ff" stroke="#63b8ff" points="1268.27,-129.22 1277.66,-124.32 1267.27,-122.3 1268.27,-129.22"/>
</a>
</g>
</g>
<!-- Node14&#45;&gt;Node17 -->
<g id="edge25_Node000014_Node000017" class="edge">
<title>Node14&#45;&gt;Node17</title>
<g id="a_edge25_Node000014_Node000017"><a xlink:title=" ">
<path fill="none" stroke="#63b8ff" d="M956.28,-173.61C1053.09,-164.01 1250.58,-143.75 1337.76,-128.96"/>
<polygon fill="#63b8ff" stroke="#63b8ff" points="1338.59,-132.37 1347.83,-127.18 1337.37,-125.47 1338.59,-132.37"/>
</a>
</g>
</g>
<!-- Node14&#45;&gt;Node18 -->
<g id="edge26_Node000014_Node000018" class="edge">
<title>Node14&#45;&gt;Node18</title>
<g id="a_edge26_Node000014_Node000018"><a xlink:title=" ">
<path fill="none" stroke="#63b8ff" d="M886.48,-164.84C877.68,-156.26 866.43,-145.3 857.33,-136.42"/>
<polygon fill="#63b8ff" stroke="#63b8ff" points="859.59,-133.74 849.99,-129.27 854.71,-138.75 859.59,-133.74"/>
</a>
</g>
</g>
<!-- Node19 -->
<g id="Node000019" class="node">
<title>Node19</title>
<g id="a_Node000019"><a xlink:title=" ">
<polygon fill="#e0e0e0" stroke="#999999" points="1061.5,-129 992.5,-129 992.5,-110 1061.5,-110 1061.5,-129"/>
<text text-anchor="middle" x="1027" y="-117" font-family="Helvetica,sans-Serif" font-size="10.00">type_traits</text>
</a>
</g>
</g>
<!-- Node14&#45;&gt;Node19 -->
<g id="edge27_Node000014_Node000019" class="edge">
<title>Node14&#45;&gt;Node19</title>
<g id="a_edge27_Node000014_Node000019"><a xlink:title=" ">
<path fill="none" stroke="#63b8ff" d="M931.18,-164.99C951.83,-155.4 979,-142.79 999.13,-133.44"/>
<polygon fill="#63b8ff" stroke="#63b8ff" points="1000.8,-136.52 1008.39,-129.14 997.85,-130.18 1000.8,-136.52"/>
</a>
</g>
</g>
<!-- Node20&#45;&gt;Node2 -->
<g id="edge29_Node000020_Node000002" class="edge">
<title>Node20&#45;&gt;Node2</title>
<g id="a_edge29_Node000020_Node000002"><a xlink:title=" ">
<path fill="none" stroke="#63b8ff" d="M274.67,-170.37C293.28,-160.73 323.62,-145.03 345.28,-133.81"/>
<polygon fill="#63b8ff" stroke="#63b8ff" points="346.99,-136.87 354.26,-129.17 343.77,-130.66 346.99,-136.87"/>
</a>
</g>
</g>
<!-- Node20&#45;&gt;Node3 -->
<g id="edge30_Node000020_Node000003" class="edge">
<title>Node20&#45;&gt;Node3</title>
<g id="a_edge30_Node000020_Node000003"><a xlink:title=" ">
<path fill="none" stroke="#63b8ff" d="M228.46,-170.41C208.65,-162.95 184.06,-149.96 172,-129 161.31,-110.43 181.13,-91.76 199.3,-79.52"/>
<polygon fill="#63b8ff" stroke="#63b8ff" points="201.36,-82.36 207.94,-74.06 197.62,-76.44 201.36,-82.36"/>
</a>
</g>
</g>
<!-- Node20&#45;&gt;Node7 -->
<g id="edge32_Node000020_Node000007" class="edge">
<title>Node20&#45;&gt;Node7</title>
<g id="a_edge32_Node000020_Node000007"><a xlink:title=" ">
<path fill="none" stroke="#63b8ff" d="M262.26,-170.23C270.31,-154.8 289.35,-123.18 316,-110 393.38,-71.75 1005.82,-78.88 1092,-74 1123.47,-72.22 1159.29,-69.78 1184.85,-67.98"/>
<polygon fill="#63b8ff" stroke="#63b8ff" points="1185.41,-71.45 1195.13,-67.24 1184.91,-64.46 1185.41,-71.45"/>
</a>
</g>
</g>
<!-- Node21 -->
<g id="Node000021" class="node">
<title>Node21</title>
<g id="a_Node000021"><a xlink:title=" ">
<polygon fill="#e0e0e0" stroke="#999999" points="229.5,-129 180.5,-129 180.5,-110 229.5,-110 229.5,-129"/>
<text text-anchor="middle" x="205" y="-117" font-family="Helvetica,sans-Serif" font-size="10.00">cstdlib</text>
</a>
</g>
</g>
<!-- Node20&#45;&gt;Node21 -->
<g id="edge31_Node000020_Node000021" class="edge">
<title>Node20&#45;&gt;Node21</title>
<g id="a_edge31_Node000020_Node000021"><a xlink:title=" ">
<path fill="none" stroke="#63b8ff" d="M250.18,-170.37C242.19,-161.55 229.61,-147.66 219.74,-136.77"/>
<polygon fill="#63b8ff" stroke="#63b8ff" points="222.16,-134.23 212.85,-129.17 216.97,-138.93 222.16,-134.23"/>
</a>
</g>
</g>
<!-- Node24&#45;&gt;Node4 -->
<g id="edge44_Node000024_Node000004" class="edge">
<title>Node24&#45;&gt;Node4</title>
<g id="a_edge44_Node000024_Node000004"><a xlink:title=" ">
<path fill="none" stroke="#63b8ff" d="M1058.41,-295.77C1005.45,-290.34 929.08,-277.99 868,-250 822.82,-229.3 780,-230.7 780,-181 780,-181 780,-181 780,-118.5 780,-49.38 539.63,-21.56 445.85,-13.34"/>
<polygon fill="#63b8ff" stroke="#63b8ff" points="445.94,-9.83 435.68,-12.47 445.35,-16.81 445.94,-9.83"/>
</a>
</g>
</g>
<!-- Node24&#45;&gt;Node7 -->
<g id="edge48_Node000024_Node000007" class="edge">
<title>Node24&#45;&gt;Node7</title>
<g id="a_edge48_Node000024_Node000007"><a xlink:title=" ">
<path fill="none" stroke="#63b8ff" d="M1135.46,-285.66C1143.78,-276.15 1154.14,-263.06 1161,-250 1190.87,-193.11 1208.49,-118.18 1215.49,-83.96"/>
<polygon fill="#63b8ff" stroke="#63b8ff" points="1218.95,-84.5 1217.45,-74.01 1212.08,-83.14 1218.95,-84.5"/>
</a>
</g>
</g>
<!-- Node24&#45;&gt;Node9 -->
<g id="edge41_Node000024_Node000009" class="edge">
<title>Node24&#45;&gt;Node9</title>
<g id="a_edge41_Node000024_Node000009"><a xlink:title=" ">
<path fill="none" stroke="#63b8ff" d="M1058.11,-291.37C979.18,-280.7 845.2,-262.6 762.21,-251.39"/>
<polygon fill="#63b8ff" stroke="#63b8ff" points="762.47,-247.89 752.1,-250.02 761.54,-254.83 762.47,-247.89"/>
</a>
</g>
</g>
<!-- Node24&#45;&gt;Node13 -->
<g id="edge42_Node000024_Node000013" class="edge">
<title>Node24&#45;&gt;Node13</title>
<g id="a_edge42_Node000024_Node000013"><a xlink:title=" ">
<path fill="none" stroke="#63b8ff" d="M1129.4,-285.94C1141.34,-261.55 1162.79,-209.69 1155,-165 1153.43,-156 1150.2,-146.42 1147.06,-138.46"/>
<polygon fill="#63b8ff" stroke="#63b8ff" points="1150.23,-136.97 1143.11,-129.12 1143.78,-139.69 1150.23,-136.97"/>
</a>
</g>
</g>
<!-- Node24&#45;&gt;Node16 -->
<g id="edge43_Node000024_Node000016" class="edge">
<title>Node24&#45;&gt;Node16</title>
<g id="a_edge43_Node000024_Node000016"><a xlink:title=" ">
<path fill="none" stroke="#63b8ff" d="M1163.14,-285.99C1183.53,-277.68 1207.65,-265.68 1226,-250 1262.46,-218.84 1286.61,-166.18 1297.45,-138.59"/>
<polygon fill="#63b8ff" stroke="#63b8ff" points="1300.8,-139.63 1301.06,-129.04 1294.25,-137.15 1300.8,-139.63"/>
</a>
</g>
</g>
<!-- Node24&#45;&gt;Node17 -->
<g id="edge45_Node000024_Node000017" class="edge">
<title>Node24&#45;&gt;Node17</title>
<g id="a_edge45_Node000024_Node000017"><a xlink:title=" ">
<path fill="none" stroke="#63b8ff" d="M1171.76,-285.97C1196.25,-277.72 1225.49,-265.78 1249,-250 1296.84,-217.9 1340.32,-164.53 1360.74,-137.42"/>
<polygon fill="#63b8ff" stroke="#63b8ff" points="1363.61,-139.42 1366.75,-129.3 1357.99,-135.25 1363.61,-139.42"/>
</a>
</g>
</g>
<!-- Node24&#45;&gt;Node18 -->
<g id="edge46_Node000024_Node000018" class="edge">
<title>Node24&#45;&gt;Node18</title>
<g id="a_edge46_Node000024_Node000018"><a xlink:title=" ">
<path fill="none" stroke="#63b8ff" d="M1058.43,-296.68C990.77,-289.36 886.76,-266.37 837,-195 825.68,-178.77 829.3,-155.38 834.05,-139.16"/>
<polygon fill="#63b8ff" stroke="#63b8ff" points="837.51,-139.84 837.36,-129.25 830.87,-137.63 837.51,-139.84"/>
</a>
</g>
</g>
<!-- Node24&#45;&gt;Node22 -->
<g id="edge47_Node000024_Node000022" class="edge">
<title>Node24&#45;&gt;Node22</title>
<g id="a_edge47_Node000024_Node000022"><a xlink:title=" ">
<path fill="none" stroke="#63b8ff" d="M1121.41,-285.88C1120.51,-264.51 1118.8,-223.89 1117.8,-199.96"/>
<polygon fill="#63b8ff" stroke="#63b8ff" points="1121.28,-199.56 1117.37,-189.71 1114.29,-199.85 1121.28,-199.56"/>
</a>
</g>
</g>
</g>
</svg>
