<?xml version="1.0" encoding="UTF-8" standalone="no"?>
<!DOCTYPE svg PUBLIC "-//W3C//DTD SVG 1.1//EN"
 "http://www.w3.org/Graphics/SVG/1.1/DTD/svg11.dtd">
<!-- Generated by graphviz version 2.43.0 (0)
 -->
<!-- Title: qugar::narrow_cast Pages: 1 -->
<svg width="214pt" height="138pt"
 viewBox="0.00 0.00 214.00 138.00" xmlns="http://www.w3.org/2000/svg" xmlns:xlink="http://www.w3.org/1999/xlink">
<g id="graph0" class="graph" transform="scale(1 1) rotate(0) translate(4 134)">
<title>qugar::narrow_cast</title>
<!-- Node1 -->
<g id="Node000001" class="node">
<title>Node1</title>
<g id="a_Node000001"><a xlink:title=" ">
<polygon fill="#999999" stroke="#666666" points="206,-74 96,-74 96,-55 206,-55 206,-74"/>
<text text-anchor="middle" x="151" y="-62" font-family="Helvetica,sans-Serif" font-size="10.00">qugar::narrow_cast</text>
</a>
</g>
</g>
<!-- Node2 -->
<g id="Node000002" class="node">
<title>Node2</title>
<g id="a_Node000002"><a xlink:href="../../d0/d6b/namespacequgar.html#a1dd8a2cbe18d51833ae347d91edef6e8" target="_top" xlink:title=" ">
<polygon fill="white" stroke="#666666" points="60,-130 0,-130 0,-111 60,-111 60,-130"/>
<text text-anchor="middle" x="30" y="-118" font-family="Helvetica,sans-Serif" font-size="10.00">qugar::at</text>
</a>
</g>
</g>
<!-- Node1&#45;&gt;Node2 -->
<g id="edge1_Node000001_Node000002" class="edge">
<title>Node1&#45;&gt;Node2</title>
<g id="a_edge1_Node000001_Node000002"><a xlink:title=" ">
<path fill="none" stroke="#63b8ff" d="M120.49,-78.39C98.91,-88.54 70.2,-102.05 51.19,-111"/>
<polygon fill="#63b8ff" stroke="#63b8ff" points="121.99,-81.55 129.54,-74.13 119,-75.22 121.99,-81.55"/>
</a>
</g>
</g>
<!-- Node3 -->
<g id="Node000003" class="node">
<title>Node3</title>
<g id="a_Node000003"><a xlink:href="../../d0/d6b/namespacequgar.html#aeee71dd2d15b06381cda264b8ed738d7" target="_top" xlink:title=" ">
<polygon fill="white" stroke="#666666" points="60,-93 0,-93 0,-74 60,-74 60,-93"/>
<text text-anchor="middle" x="30" y="-81" font-family="Helvetica,sans-Serif" font-size="10.00">qugar::at</text>
</a>
</g>
</g>
<!-- Node1&#45;&gt;Node3 -->
<g id="edge2_Node000001_Node000003" class="edge">
<title>Node1&#45;&gt;Node3</title>
<g id="a_edge2_Node000001_Node000003"><a xlink:title=" ">
<path fill="none" stroke="#63b8ff" d="M85.64,-74.78C76.73,-76.2 67.97,-77.6 60.15,-78.85"/>
<polygon fill="#63b8ff" stroke="#63b8ff" points="86.4,-78.2 95.72,-73.17 85.3,-71.29 86.4,-78.2"/>
</a>
</g>
</g>
<!-- Node4 -->
<g id="Node000004" class="node">
<title>Node4</title>
<g id="a_Node000004"><a xlink:href="../../d0/d6b/namespacequgar.html#a96c529f1e791327c0ae2e45a7ee0f39f" target="_top" xlink:title=" ">
<polygon fill="white" stroke="#666666" points="60,-56 0,-56 0,-37 60,-37 60,-56"/>
<text text-anchor="middle" x="30" y="-44" font-family="Helvetica,sans-Serif" font-size="10.00">qugar::at</text>
</a>
</g>
</g>
<!-- Node1&#45;&gt;Node4 -->
<g id="edge3_Node000001_Node000004" class="edge">
<title>Node1&#45;&gt;Node4</title>
<g id="a_edge3_Node000001_Node000004"><a xlink:title=" ">
<path fill="none" stroke="#63b8ff" d="M85.64,-54.77C76.73,-53.42 67.97,-52.09 60.15,-50.91"/>
<polygon fill="#63b8ff" stroke="#63b8ff" points="85.31,-58.26 95.72,-56.29 86.36,-51.33 85.31,-58.26"/>
</a>
</g>
</g>
<!-- Node5 -->
<g id="Node000005" class="node">
<title>Node5</title>
<g id="a_Node000005"><a xlink:href="../../d0/d6b/namespacequgar.html#abc440522a502f2671b0f5a82d2901d66" target="_top" xlink:title=" ">
<polygon fill="white" stroke="#666666" points="60,-19 0,-19 0,0 60,0 60,-19"/>
<text text-anchor="middle" x="30" y="-7" font-family="Helvetica,sans-Serif" font-size="10.00">qugar::at</text>
</a>
</g>
</g>
<!-- Node1&#45;&gt;Node5 -->
<g id="edge4_Node000001_Node000005" class="edge">
<title>Node1&#45;&gt;Node5</title>
<g id="a_edge4_Node000001_Node000005"><a xlink:title=" ">
<path fill="none" stroke="#63b8ff" d="M120.03,-50.65C98.77,-40.82 70.77,-27.88 51.89,-19.16"/>
<polygon fill="#63b8ff" stroke="#63b8ff" points="118.73,-53.9 129.27,-54.92 121.66,-47.55 118.73,-53.9"/>
</a>
</g>
</g>
</g>
</svg>
