<?xml version="1.0" encoding="UTF-8" standalone="no"?>
<!DOCTYPE svg PUBLIC "-//W3C//DTD SVG 1.1//EN"
 "http://www.w3.org/Graphics/SVG/1.1/DTD/svg11.dtd">
<!-- Generated by graphviz version 2.43.0 (0)
 -->
<!-- Title: /__w/qugar/qugar/cpp/include/qugar/tensor_index_tp.hpp Pages: 1 -->
<svg width="1057pt" height="588pt"
 viewBox="0.00 0.00 1057.46 588.00" xmlns="http://www.w3.org/2000/svg" xmlns:xlink="http://www.w3.org/1999/xlink">
<g id="graph0" class="graph" transform="scale(1 1) rotate(0) translate(4 584)">
<title>/__w/qugar/qugar/cpp/include/qugar/tensor_index_tp.hpp</title>
<!-- Node1 -->
<g id="Node000001" class="node">
<title>Node1</title>
<g id="a_Node000001"><a xlink:title="Declaration of tensor&#45;product index and size related classes.">
<polygon fill="#999999" stroke="#666666" points="719.96,-580 599.96,-580 599.96,-539 719.96,-539 719.96,-580"/>
<text text-anchor="start" x="607.96" y="-568" font-family="Helvetica,sans-Serif" font-size="10.00">/__w/qugar/qugar/cpp</text>
<text text-anchor="start" x="607.96" y="-557" font-family="Helvetica,sans-Serif" font-size="10.00">/include/qugar/tensor</text>
<text text-anchor="middle" x="659.96" y="-546" font-family="Helvetica,sans-Serif" font-size="10.00">_index_tp.hpp</text>
</a>
</g>
</g>
<!-- Node2 -->
<g id="Node000002" class="node">
<title>Node2</title>
<g id="a_Node000002"><a xlink:href="../../d2/d6e/bezier__tp_8hpp.html" target="_top" xlink:title="Declaration of tensor&#45;product Bezier class.">
<polygon fill="white" stroke="#666666" points="895.96,-349 775.96,-349 775.96,-308 895.96,-308 895.96,-349"/>
<text text-anchor="start" x="783.96" y="-337" font-family="Helvetica,sans-Serif" font-size="10.00">/__w/qugar/qugar/cpp</text>
<text text-anchor="start" x="783.96" y="-326" font-family="Helvetica,sans-Serif" font-size="10.00">/include/qugar/bezier</text>
<text text-anchor="middle" x="835.96" y="-315" font-family="Helvetica,sans-Serif" font-size="10.00">_tp.hpp</text>
</a>
</g>
</g>
<!-- Node1&#45;&gt;Node2 -->
<g id="edge1_Node000001_Node000002" class="edge">
<title>Node1&#45;&gt;Node2</title>
<g id="a_edge1_Node000001_Node000002"><a xlink:title=" ">
<path fill="none" stroke="#63b8ff" d="M730.24,-549.41C760.16,-541.88 792.75,-528.12 812.96,-503 849.14,-458.01 844.28,-384.23 839.37,-349.18"/>
<polygon fill="#63b8ff" stroke="#63b8ff" points="729.17,-546.06 720.22,-551.73 730.75,-552.88 729.17,-546.06"/>
</a>
</g>
</g>
<!-- Node7 -->
<g id="Node000007" class="node">
<title>Node7</title>
<g id="a_Node000007"><a xlink:href="../../d6/d49/cart__grid__tp_8hpp.html" target="_top" xlink:title="Definition of Cartesian grid class.">
<polygon fill="white" stroke="#666666" points="478.46,-503 347.46,-503 347.46,-462 478.46,-462 478.46,-503"/>
<text text-anchor="start" x="355.46" y="-491" font-family="Helvetica,sans-Serif" font-size="10.00">/__w/qugar/qugar/cpp</text>
<text text-anchor="start" x="355.46" y="-480" font-family="Helvetica,sans-Serif" font-size="10.00">/include/qugar/cart_grid</text>
<text text-anchor="middle" x="412.96" y="-469" font-family="Helvetica,sans-Serif" font-size="10.00">_tp.hpp</text>
</a>
</g>
</g>
<!-- Node1&#45;&gt;Node7 -->
<g id="edge6_Node000001_Node000007" class="edge">
<title>Node1&#45;&gt;Node7</title>
<g id="a_edge6_Node000001_Node000007"><a xlink:title=" ">
<path fill="none" stroke="#63b8ff" d="M590.06,-537.28C554.61,-526.51 511.85,-513.53 477.23,-503.02"/>
<polygon fill="#63b8ff" stroke="#63b8ff" points="589.26,-540.69 599.85,-540.25 591.3,-533.99 589.26,-540.69"/>
</a>
</g>
</g>
<!-- Node10 -->
<g id="Node000010" class="node">
<title>Node10</title>
<g id="a_Node000010"><a xlink:href="../../d3/d42/impl__reparam__mesh_8hpp.html" target="_top" xlink:title="Declaration of reparameterization class.">
<polygon fill="white" stroke="#666666" points="239.46,-195 82.46,-195 82.46,-154 239.46,-154 239.46,-195"/>
<text text-anchor="start" x="90.46" y="-183" font-family="Helvetica,sans-Serif" font-size="10.00">/__w/qugar/qugar/cpp</text>
<text text-anchor="start" x="90.46" y="-172" font-family="Helvetica,sans-Serif" font-size="10.00">/include/qugar/impl_reparam</text>
<text text-anchor="middle" x="160.96" y="-161" font-family="Helvetica,sans-Serif" font-size="10.00">_mesh.hpp</text>
</a>
</g>
</g>
<!-- Node1&#45;&gt;Node10 -->
<g id="edge32_Node000001_Node000010" class="edge">
<title>Node1&#45;&gt;Node10</title>
<g id="a_edge32_Node000001_Node000010"><a xlink:title=" ">
<path fill="none" stroke="#63b8ff" d="M589.51,-551.4C523.68,-543.58 423.2,-528.6 338.96,-503 258.43,-478.53 223.35,-487.56 165.96,-426 105.62,-361.29 101.39,-315.99 125.96,-231 129.69,-218.09 137.42,-205.29 144.66,-195.24"/>
<polygon fill="#63b8ff" stroke="#63b8ff" points="589.43,-554.92 599.77,-552.6 590.24,-547.96 589.43,-554.92"/>
</a>
</g>
</g>
<!-- Node18 -->
<g id="Node000018" class="node">
<title>Node18</title>
<g id="a_Node000018"><a xlink:href="../../d7/d78/lagrange__tp__utils_8hpp.html" target="_top" xlink:title="Declaration of tensor&#45;product Lagrange utils.">
<polygon fill="white" stroke="#666666" points="803.46,-503 672.46,-503 672.46,-462 803.46,-462 803.46,-503"/>
<text text-anchor="start" x="680.46" y="-491" font-family="Helvetica,sans-Serif" font-size="10.00">/__w/qugar/qugar/cpp</text>
<text text-anchor="start" x="680.46" y="-480" font-family="Helvetica,sans-Serif" font-size="10.00">/include/qugar/lagrange</text>
<text text-anchor="middle" x="737.96" y="-469" font-family="Helvetica,sans-Serif" font-size="10.00">_tp_utils.hpp</text>
</a>
</g>
</g>
<!-- Node1&#45;&gt;Node18 -->
<g id="edge33_Node000001_Node000018" class="edge">
<title>Node1&#45;&gt;Node18</title>
<g id="a_edge33_Node000001_Node000018"><a xlink:title=" ">
<path fill="none" stroke="#63b8ff" d="M687.73,-531.79C697.59,-522.32 708.48,-511.84 717.6,-503.07"/>
<polygon fill="#63b8ff" stroke="#63b8ff" points="685.23,-529.34 680.45,-538.79 690.08,-534.39 685.23,-529.34"/>
</a>
</g>
</g>
<!-- Node19 -->
<g id="Node000019" class="node">
<title>Node19</title>
<g id="a_Node000019"><a xlink:href="../../d6/d82/monomials__tp_8hpp.html" target="_top" xlink:title="Declaration of tensor&#45;product monomials class.">
<polygon fill="white" stroke="#666666" points="1003.46,-426 860.46,-426 860.46,-385 1003.46,-385 1003.46,-426"/>
<text text-anchor="start" x="868.46" y="-414" font-family="Helvetica,sans-Serif" font-size="10.00">/__w/qugar/qugar/cpp</text>
<text text-anchor="start" x="868.46" y="-403" font-family="Helvetica,sans-Serif" font-size="10.00">/include/qugar/monomials</text>
<text text-anchor="middle" x="931.96" y="-392" font-family="Helvetica,sans-Serif" font-size="10.00">_tp.hpp</text>
</a>
</g>
</g>
<!-- Node1&#45;&gt;Node19 -->
<g id="edge34_Node000001_Node000019" class="edge">
<title>Node1&#45;&gt;Node19</title>
<g id="a_edge34_Node000001_Node000019"><a xlink:title=" ">
<path fill="none" stroke="#63b8ff" d="M730.13,-547.12C766.72,-538.91 811,-525.23 845.96,-503 877.58,-482.89 904.54,-447.95 919.47,-426.09"/>
<polygon fill="#63b8ff" stroke="#63b8ff" points="729.07,-543.77 720.03,-549.3 730.55,-550.61 729.07,-543.77"/>
</a>
</g>
</g>
<!-- Node20 -->
<g id="Node000020" class="node">
<title>Node20</title>
<g id="a_Node000020"><a xlink:href="../../d2/dee/polynomial__tp_8hpp.html" target="_top" xlink:title="Declaration of tensor&#45;product polynomial class.">
<polygon fill="white" stroke="#666666" points="654.46,-503 511.46,-503 511.46,-462 654.46,-462 654.46,-503"/>
<text text-anchor="start" x="519.46" y="-491" font-family="Helvetica,sans-Serif" font-size="10.00">/__w/qugar/qugar/cpp</text>
<text text-anchor="start" x="519.46" y="-480" font-family="Helvetica,sans-Serif" font-size="10.00">/include/qugar/polynomial</text>
<text text-anchor="middle" x="582.96" y="-469" font-family="Helvetica,sans-Serif" font-size="10.00">_tp.hpp</text>
</a>
</g>
</g>
<!-- Node1&#45;&gt;Node20 -->
<g id="edge37_Node000001_Node000020" class="edge">
<title>Node1&#45;&gt;Node20</title>
<g id="a_edge37_Node000001_Node000020"><a xlink:title=" ">
<path fill="none" stroke="#63b8ff" d="M632.54,-531.79C622.81,-522.32 612.05,-511.84 603.05,-503.07"/>
<polygon fill="#63b8ff" stroke="#63b8ff" points="630.12,-534.32 639.73,-538.79 635,-529.31 630.12,-534.32"/>
</a>
</g>
</g>
<!-- Node3 -->
<g id="Node000003" class="node">
<title>Node3</title>
<g id="a_Node000003"><a xlink:href="../../de/d62/bezier__tp__utils_8hpp.html" target="_top" xlink:title="Declaration of tensor&#45;product Bezier utils.">
<polygon fill="white" stroke="#666666" points="897.96,-272 777.96,-272 777.96,-231 897.96,-231 897.96,-272"/>
<text text-anchor="start" x="785.96" y="-260" font-family="Helvetica,sans-Serif" font-size="10.00">/__w/qugar/qugar/cpp</text>
<text text-anchor="start" x="785.96" y="-249" font-family="Helvetica,sans-Serif" font-size="10.00">/include/qugar/bezier</text>
<text text-anchor="middle" x="837.96" y="-238" font-family="Helvetica,sans-Serif" font-size="10.00">_tp_utils.hpp</text>
</a>
</g>
</g>
<!-- Node2&#45;&gt;Node3 -->
<g id="edge2_Node000002_Node000003" class="edge">
<title>Node2&#45;&gt;Node3</title>
<g id="a_edge2_Node000002_Node000003"><a xlink:title=" ">
<path fill="none" stroke="#63b8ff" d="M836.75,-297.69C836.98,-289.08 837.23,-279.9 837.43,-272.07"/>
<polygon fill="#63b8ff" stroke="#63b8ff" points="833.25,-297.7 836.48,-307.79 840.25,-297.89 833.25,-297.7"/>
</a>
</g>
</g>
<!-- Node4 -->
<g id="Node000004" class="node">
<title>Node4</title>
<g id="a_Node000004"><a xlink:href="../../d6/d87/impl__reparam__bezier_8hpp.html" target="_top" xlink:title="Declaration of tools for creating Bezier reparameterizations.">
<polygon fill="white" stroke="#666666" points="598.46,-118 441.46,-118 441.46,-77 598.46,-77 598.46,-118"/>
<text text-anchor="start" x="449.46" y="-106" font-family="Helvetica,sans-Serif" font-size="10.00">/__w/qugar/qugar/cpp</text>
<text text-anchor="start" x="449.46" y="-95" font-family="Helvetica,sans-Serif" font-size="10.00">/include/qugar/impl_reparam</text>
<text text-anchor="middle" x="519.96" y="-84" font-family="Helvetica,sans-Serif" font-size="10.00">_bezier.hpp</text>
</a>
</g>
</g>
<!-- Node2&#45;&gt;Node4 -->
<g id="edge3_Node000002_Node000004" class="edge">
<title>Node2&#45;&gt;Node4</title>
<g id="a_edge3_Node000002_Node000004"><a xlink:title=" ">
<path fill="none" stroke="#63b8ff" d="M797.19,-301.38C786.91,-292.98 776.57,-282.97 768.96,-272 737.3,-226.39 768.63,-191.79 727.96,-154 722.93,-149.33 655.32,-131.78 598.52,-117.65"/>
<polygon fill="#63b8ff" stroke="#63b8ff" points="795.33,-304.37 805.36,-307.77 799.64,-298.85 795.33,-304.37"/>
</a>
</g>
</g>
<!-- Node5 -->
<g id="Node000005" class="node">
<title>Node5</title>
<g id="a_Node000005"><a xlink:href="../../d7/d6f/primitive__funcs__lib_8hpp.html" target="_top" xlink:title="Declaration of a primitive implicit functions ready to be consumed by Algoim.">
<polygon fill="white" stroke="#666666" points="1049.46,-272 916.46,-272 916.46,-231 1049.46,-231 1049.46,-272"/>
<text text-anchor="start" x="924.46" y="-260" font-family="Helvetica,sans-Serif" font-size="10.00">/__w/qugar/qugar/cpp</text>
<text text-anchor="start" x="924.46" y="-249" font-family="Helvetica,sans-Serif" font-size="10.00">/include/qugar/primitive</text>
<text text-anchor="middle" x="982.96" y="-238" font-family="Helvetica,sans-Serif" font-size="10.00">_funcs_lib.hpp</text>
</a>
</g>
</g>
<!-- Node2&#45;&gt;Node5 -->
<g id="edge4_Node000002_Node000005" class="edge">
<title>Node2&#45;&gt;Node5</title>
<g id="a_edge4_Node000002_Node000005"><a xlink:title=" ">
<path fill="none" stroke="#63b8ff" d="M883.37,-303.31C903.19,-293.2 925.92,-281.6 944.65,-272.04"/>
<polygon fill="#63b8ff" stroke="#63b8ff" points="881.51,-300.33 874.2,-307.99 884.69,-306.56 881.51,-300.33"/>
</a>
</g>
</g>
<!-- Node6 -->
<g id="Node000006" class="node">
<title>Node6</title>
<g id="a_Node000006"><a xlink:href="../../d0/d6f/demo__quad__sphere_2main_8cpp.html" target="_top" xlink:title=" ">
<polygon fill="white" stroke="#666666" points="762.96,-118 616.96,-118 616.96,-77 762.96,-77 762.96,-118"/>
<text text-anchor="start" x="624.96" y="-106" font-family="Helvetica,sans-Serif" font-size="10.00">/__w/qugar/qugar/cpp</text>
<text text-anchor="start" x="624.96" y="-95" font-family="Helvetica,sans-Serif" font-size="10.00">/demo/demo_quad_sphere</text>
<text text-anchor="middle" x="689.96" y="-84" font-family="Helvetica,sans-Serif" font-size="10.00">/main.cpp</text>
</a>
</g>
</g>
<!-- Node5&#45;&gt;Node6 -->
<g id="edge5_Node000005_Node000006" class="edge">
<title>Node5&#45;&gt;Node6</title>
<g id="a_edge5_Node000005_Node000006"><a xlink:title=" ">
<path fill="none" stroke="#63b8ff" d="M936.94,-226.17C899.77,-206.56 846.07,-178.35 798.96,-154 775.66,-141.96 749.47,-128.62 728.61,-118.04"/>
<polygon fill="#63b8ff" stroke="#63b8ff" points="935.54,-229.39 946.02,-230.96 938.81,-223.2 935.54,-229.39"/>
</a>
</g>
</g>
<!-- Node7&#45;&gt;Node6 -->
<g id="edge7_Node000007_Node000006" class="edge">
<title>Node7&#45;&gt;Node6</title>
<g id="a_edge7_Node000007_Node000006"><a xlink:title=" ">
<path fill="none" stroke="#63b8ff" d="M485.45,-458.26C507.36,-449.7 530.9,-438.89 550.96,-426 592.74,-399.14 600.57,-387.5 631.96,-349 682.93,-286.49 705.77,-272.54 727.96,-195 732.97,-177.48 733.34,-171.41 727.96,-154 723.88,-140.84 715.49,-128.02 707.63,-118.02"/>
<polygon fill="#63b8ff" stroke="#63b8ff" points="483.96,-455.08 475.85,-461.91 486.44,-461.63 483.96,-455.08"/>
</a>
</g>
</g>
<!-- Node8 -->
<g id="Node000008" class="node">
<title>Node8</title>
<g id="a_Node000008"><a xlink:href="../../d2/d66/demo__reparam__gyroid_2main_8cpp.html" target="_top" xlink:title=" ">
<polygon fill="white" stroke="#666666" points="376.46,-41 215.46,-41 215.46,0 376.46,0 376.46,-41"/>
<text text-anchor="start" x="223.46" y="-29" font-family="Helvetica,sans-Serif" font-size="10.00">/__w/qugar/qugar/cpp</text>
<text text-anchor="start" x="223.46" y="-18" font-family="Helvetica,sans-Serif" font-size="10.00">/demo/demo_reparam_gyroid</text>
<text text-anchor="middle" x="295.96" y="-7" font-family="Helvetica,sans-Serif" font-size="10.00">/main.cpp</text>
</a>
</g>
</g>
<!-- Node7&#45;&gt;Node8 -->
<g id="edge8_Node000007_Node000008" class="edge">
<title>Node7&#45;&gt;Node8</title>
<g id="a_edge8_Node000007_Node000008"><a xlink:title=" ">
<path fill="none" stroke="#63b8ff" d="M336.97,-473.4C218.44,-456.09 2.96,-403.81 2.96,-252.5 2.96,-252.5 2.96,-252.5 2.96,-173.5 2.96,-129.79 -8.87,-107.99 21.96,-77 48.65,-50.16 144.56,-35.42 215.41,-28"/>
<polygon fill="#63b8ff" stroke="#63b8ff" points="336.69,-476.89 347.08,-474.83 337.67,-469.96 336.69,-476.89"/>
</a>
</g>
</g>
<!-- Node9 -->
<g id="Node000009" class="node">
<title>Node9</title>
<g id="a_Node000009"><a xlink:href="../../d6/dc8/impl__quadrature_8hpp.html" target="_top" xlink:title="Declaration of quadratures for general implicit functions on grids.">
<polygon fill="white" stroke="#666666" points="718.96,-189.5 528.96,-189.5 528.96,-159.5 718.96,-159.5 718.96,-189.5"/>
<text text-anchor="start" x="536.96" y="-177.5" font-family="Helvetica,sans-Serif" font-size="10.00">/__w/qugar/qugar/cpp</text>
<text text-anchor="middle" x="623.96" y="-166.5" font-family="Helvetica,sans-Serif" font-size="10.00">/include/qugar/impl_quadrature.hpp</text>
</a>
</g>
</g>
<!-- Node7&#45;&gt;Node9 -->
<g id="edge9_Node000007_Node000009" class="edge">
<title>Node7&#45;&gt;Node9</title>
<g id="a_edge9_Node000007_Node000009"><a xlink:title=" ">
<path fill="none" stroke="#63b8ff" d="M460.9,-456.88C519.33,-423.84 615.17,-359.08 654.96,-272 667.83,-243.83 648.35,-208.78 634.92,-189.63"/>
<polygon fill="#63b8ff" stroke="#63b8ff" points="458.9,-453.99 451.86,-461.91 462.3,-460.1 458.9,-453.99"/>
</a>
</g>
</g>
<!-- Node7&#45;&gt;Node10 -->
<g id="edge11_Node000007_Node000010" class="edge">
<title>Node7&#45;&gt;Node10</title>
<g id="a_edge11_Node000007_Node000010"><a xlink:title=" ">
<path fill="none" stroke="#63b8ff" d="M337.14,-476.08C295.37,-469.63 244.87,-455.74 208.96,-426 150.32,-377.45 151.06,-346.18 133.96,-272 129.86,-254.24 129.87,-248.76 133.96,-231 136.84,-218.47 142.96,-205.49 148.64,-195.24"/>
<polygon fill="#63b8ff" stroke="#63b8ff" points="336.88,-479.57 347.28,-477.52 337.87,-472.65 336.88,-479.57"/>
</a>
</g>
</g>
<!-- Node13 -->
<g id="Node000013" class="node">
<title>Node13</title>
<g id="a_Node000013"><a xlink:href="../../d6/d03/impl__unfitted__domain_8hpp.html" target="_top" xlink:title="Declaration of of UnfittedImplDomain class.">
<polygon fill="white" stroke="#666666" points="444.46,-272 291.46,-272 291.46,-231 444.46,-231 444.46,-272"/>
<text text-anchor="start" x="299.46" y="-260" font-family="Helvetica,sans-Serif" font-size="10.00">/__w/qugar/qugar/cpp</text>
<text text-anchor="start" x="299.46" y="-249" font-family="Helvetica,sans-Serif" font-size="10.00">/include/qugar/impl_unfitted</text>
<text text-anchor="middle" x="367.96" y="-238" font-family="Helvetica,sans-Serif" font-size="10.00">_domain.hpp</text>
</a>
</g>
</g>
<!-- Node7&#45;&gt;Node13 -->
<g id="edge16_Node000007_Node000013" class="edge">
<title>Node7&#45;&gt;Node13</title>
<g id="a_edge16_Node000007_Node000013"><a xlink:title=" ">
<path fill="none" stroke="#63b8ff" d="M427.41,-452.53C443.1,-416.75 463.01,-354.88 439.96,-308 432.64,-293.13 419.22,-281.12 405.92,-272.13"/>
<polygon fill="#63b8ff" stroke="#63b8ff" points="424.11,-451.35 423.14,-461.9 430.47,-454.25 424.11,-451.35"/>
</a>
</g>
</g>
<!-- Node14 -->
<g id="Node000014" class="node">
<title>Node14</title>
<g id="a_Node000014"><a xlink:href="../../d8/ddc/reparam__mesh_8hpp.html" target="_top" xlink:title="Declaration of reparameterization class.">
<polygon fill="white" stroke="#666666" points="272.96,-272 142.96,-272 142.96,-231 272.96,-231 272.96,-272"/>
<text text-anchor="start" x="150.96" y="-260" font-family="Helvetica,sans-Serif" font-size="10.00">/__w/qugar/qugar/cpp</text>
<text text-anchor="start" x="150.96" y="-249" font-family="Helvetica,sans-Serif" font-size="10.00">/include/qugar/reparam</text>
<text text-anchor="middle" x="207.96" y="-238" font-family="Helvetica,sans-Serif" font-size="10.00">_mesh.hpp</text>
</a>
</g>
</g>
<!-- Node7&#45;&gt;Node14 -->
<g id="edge21_Node000007_Node000014" class="edge">
<title>Node7&#45;&gt;Node14</title>
<g id="a_edge21_Node000007_Node000014"><a xlink:title=" ">
<path fill="none" stroke="#63b8ff" d="M337.35,-475.85C301.55,-469.18 261.19,-455.16 235.96,-426 197.92,-382.05 200.99,-307.44 205.05,-272.13"/>
<polygon fill="#63b8ff" stroke="#63b8ff" points="336.87,-479.32 347.32,-477.54 338.04,-472.42 336.87,-479.32"/>
</a>
</g>
</g>
<!-- Node15 -->
<g id="Node000015" class="node">
<title>Node15</title>
<g id="a_Node000015"><a xlink:href="../../d2/dfd/unfitted__domain_8hpp.html" target="_top" xlink:title="Declaration of of UnfittedDomain class.">
<polygon fill="white" stroke="#666666" points="430.96,-349 304.96,-349 304.96,-308 430.96,-308 430.96,-349"/>
<text text-anchor="start" x="312.96" y="-337" font-family="Helvetica,sans-Serif" font-size="10.00">/__w/qugar/qugar/cpp</text>
<text text-anchor="start" x="312.96" y="-326" font-family="Helvetica,sans-Serif" font-size="10.00">/include/qugar/unfitted</text>
<text text-anchor="middle" x="367.96" y="-315" font-family="Helvetica,sans-Serif" font-size="10.00">_domain.hpp</text>
</a>
</g>
</g>
<!-- Node7&#45;&gt;Node15 -->
<g id="edge23_Node000007_Node000015" class="edge">
<title>Node7&#45;&gt;Node15</title>
<g id="a_edge23_Node000007_Node000015"><a xlink:title=" ">
<path fill="none" stroke="#63b8ff" d="M409.04,-451.89C406.02,-432.55 401.13,-406.91 393.96,-385 389.92,-372.66 383.82,-359.48 378.55,-349.06"/>
<polygon fill="#63b8ff" stroke="#63b8ff" points="405.6,-452.54 410.53,-461.92 412.52,-451.52 405.6,-452.54"/>
</a>
</g>
</g>
<!-- Node17 -->
<g id="Node000017" class="node">
<title>Node17</title>
<g id="a_Node000017"><a xlink:href="../../d8/daf/unfitted__domain__binary__part_8hpp.html" target="_top" xlink:title="Declaration of of UnfittedDomain class.">
<polygon fill="white" stroke="#666666" points="384.96,-426 244.96,-426 244.96,-385 384.96,-385 384.96,-426"/>
<text text-anchor="start" x="252.96" y="-414" font-family="Helvetica,sans-Serif" font-size="10.00">/__w/qugar/qugar/cpp</text>
<text text-anchor="start" x="252.96" y="-403" font-family="Helvetica,sans-Serif" font-size="10.00">/include/qugar/unfitted</text>
<text text-anchor="middle" x="314.96" y="-392" font-family="Helvetica,sans-Serif" font-size="10.00">_domain_binary_part.hpp</text>
</a>
</g>
</g>
<!-- Node7&#45;&gt;Node17 -->
<g id="edge29_Node000007_Node000017" class="edge">
<title>Node7&#45;&gt;Node17</title>
<g id="a_edge29_Node000007_Node000017"><a xlink:title=" ">
<path fill="none" stroke="#63b8ff" d="M379.4,-455.82C366.72,-446.11 352.51,-435.24 340.66,-426.17"/>
<polygon fill="#63b8ff" stroke="#63b8ff" points="377.4,-458.69 387.46,-461.99 381.65,-453.13 377.4,-458.69"/>
</a>
</g>
</g>
<!-- Node9&#45;&gt;Node6 -->
<g id="edge10_Node000009_Node000006" class="edge">
<title>Node9&#45;&gt;Node6</title>
<g id="a_edge10_Node000009_Node000006"><a xlink:title=" ">
<path fill="none" stroke="#63b8ff" d="M643.09,-151.76C652.41,-141.17 663.54,-128.52 672.62,-118.2"/>
<polygon fill="#63b8ff" stroke="#63b8ff" points="640.35,-149.57 636.37,-159.39 645.6,-154.2 640.35,-149.57"/>
</a>
</g>
</g>
<!-- Node10&#45;&gt;Node4 -->
<g id="edge14_Node000010_Node000004" class="edge">
<title>Node10&#45;&gt;Node4</title>
<g id="a_edge14_Node000010_Node000004"><a xlink:title=" ">
<path fill="none" stroke="#63b8ff" d="M249.75,-154.95C308.49,-142.68 384.82,-126.73 441.36,-114.92"/>
<polygon fill="#63b8ff" stroke="#63b8ff" points="248.81,-151.57 239.74,-157.04 250.24,-158.42 248.81,-151.57"/>
</a>
</g>
</g>
<!-- Node11 -->
<g id="Node000011" class="node">
<title>Node11</title>
<g id="a_Node000011"><a xlink:href="../../d0/d4c/impl__reparam_8hpp.html" target="_top" xlink:title="Declaration of reparameterization generization tools implicit functions on grids.">
<polygon fill="white" stroke="#666666" points="384.96,-112.5 206.96,-112.5 206.96,-82.5 384.96,-82.5 384.96,-112.5"/>
<text text-anchor="start" x="214.96" y="-100.5" font-family="Helvetica,sans-Serif" font-size="10.00">/__w/qugar/qugar/cpp</text>
<text text-anchor="middle" x="295.96" y="-89.5" font-family="Helvetica,sans-Serif" font-size="10.00">/include/qugar/impl_reparam.hpp</text>
</a>
</g>
</g>
<!-- Node10&#45;&gt;Node11 -->
<g id="edge12_Node000010_Node000011" class="edge">
<title>Node10&#45;&gt;Node11</title>
<g id="a_edge12_Node000010_Node000011"><a xlink:title=" ">
<path fill="none" stroke="#63b8ff" d="M205.09,-148.98C226.72,-136.97 252,-122.92 270.4,-112.7"/>
<polygon fill="#63b8ff" stroke="#63b8ff" points="203.12,-146.07 196.07,-153.99 206.51,-152.19 203.12,-146.07"/>
</a>
</g>
</g>
<!-- Node12 -->
<g id="Node000012" class="node">
<title>Node12</title>
<g id="a_Node000012"><a xlink:href="../../d5/da9/impl__reparam__general_8hpp.html" target="_top" xlink:title="Declaration of tools for creating reparameterizations of general functions.">
<polygon fill="white" stroke="#666666" points="188.46,-118 31.46,-118 31.46,-77 188.46,-77 188.46,-118"/>
<text text-anchor="start" x="39.46" y="-106" font-family="Helvetica,sans-Serif" font-size="10.00">/__w/qugar/qugar/cpp</text>
<text text-anchor="start" x="39.46" y="-95" font-family="Helvetica,sans-Serif" font-size="10.00">/include/qugar/impl_reparam</text>
<text text-anchor="middle" x="109.96" y="-84" font-family="Helvetica,sans-Serif" font-size="10.00">_general.hpp</text>
</a>
</g>
</g>
<!-- Node10&#45;&gt;Node12 -->
<g id="edge15_Node000010_Node000012" class="edge">
<title>Node10&#45;&gt;Node12</title>
<g id="a_edge15_Node000010_Node000012"><a xlink:title=" ">
<path fill="none" stroke="#63b8ff" d="M141.84,-145.39C135.66,-136.3 128.94,-126.41 123.27,-118.07"/>
<polygon fill="#63b8ff" stroke="#63b8ff" points="139.04,-147.49 147.56,-153.79 144.83,-143.56 139.04,-147.49"/>
</a>
</g>
</g>
<!-- Node11&#45;&gt;Node8 -->
<g id="edge13_Node000011_Node000008" class="edge">
<title>Node11&#45;&gt;Node8</title>
<g id="a_edge13_Node000011_Node000008"><a xlink:title=" ">
<path fill="none" stroke="#63b8ff" d="M295.96,-72.23C295.96,-62.2 295.96,-50.71 295.96,-41.2"/>
<polygon fill="#63b8ff" stroke="#63b8ff" points="292.46,-72.39 295.96,-82.39 299.46,-72.39 292.46,-72.39"/>
</a>
</g>
</g>
<!-- Node13&#45;&gt;Node6 -->
<g id="edge17_Node000013_Node000006" class="edge">
<title>Node13&#45;&gt;Node6</title>
<g id="a_edge17_Node000013_Node000006"><a xlink:title=" ">
<path fill="none" stroke="#63b8ff" d="M400.1,-224.3C427.61,-202.93 468.99,-173.25 508.96,-154 528.65,-144.52 576.73,-129.91 618.39,-118.06"/>
<polygon fill="#63b8ff" stroke="#63b8ff" points="397.73,-221.71 392.02,-230.64 402.05,-227.22 397.73,-221.71"/>
</a>
</g>
</g>
<!-- Node13&#45;&gt;Node8 -->
<g id="edge18_Node000013_Node000008" class="edge">
<title>Node13&#45;&gt;Node8</title>
<g id="a_edge18_Node000013_Node000008"><a xlink:title=" ">
<path fill="none" stroke="#63b8ff" d="M382.87,-221.7C399.39,-185.44 420.43,-122.41 393.96,-77 384.75,-61.21 369.2,-49.54 353.16,-41.11"/>
<polygon fill="#63b8ff" stroke="#63b8ff" points="379.7,-220.21 378.59,-230.75 386.03,-223.21 379.7,-220.21"/>
</a>
</g>
</g>
<!-- Node13&#45;&gt;Node9 -->
<g id="edge19_Node000013_Node000009" class="edge">
<title>Node13&#45;&gt;Node9</title>
<g id="a_edge19_Node000013_Node000009"><a xlink:title=" ">
<path fill="none" stroke="#63b8ff" d="M444.34,-228.12C487.02,-215.62 538.88,-200.42 575.89,-189.58"/>
<polygon fill="#63b8ff" stroke="#63b8ff" points="443.16,-224.82 434.55,-230.99 445.13,-231.54 443.16,-224.82"/>
</a>
</g>
</g>
<!-- Node13&#45;&gt;Node11 -->
<g id="edge20_Node000013_Node000011" class="edge">
<title>Node13&#45;&gt;Node11</title>
<g id="a_edge20_Node000013_Node000011"><a xlink:title=" ">
<path fill="none" stroke="#63b8ff" d="M354.41,-221.9C338.97,-189.31 314.37,-137.37 302.62,-112.57"/>
<polygon fill="#63b8ff" stroke="#63b8ff" points="351.25,-223.4 358.69,-230.94 357.57,-220.4 351.25,-223.4"/>
</a>
</g>
</g>
<!-- Node14&#45;&gt;Node10 -->
<g id="edge22_Node000014_Node000010" class="edge">
<title>Node14&#45;&gt;Node10</title>
<g id="a_edge22_Node000014_Node000010"><a xlink:title=" ">
<path fill="none" stroke="#63b8ff" d="M190.17,-222.11C184.51,-213.09 178.39,-203.33 173.22,-195.07"/>
<polygon fill="#63b8ff" stroke="#63b8ff" points="187.33,-224.18 195.61,-230.79 193.26,-220.46 187.33,-224.18"/>
</a>
</g>
</g>
<!-- Node15&#45;&gt;Node13 -->
<g id="edge27_Node000015_Node000013" class="edge">
<title>Node15&#45;&gt;Node13</title>
<g id="a_edge27_Node000015_Node000013"><a xlink:title=" ">
<path fill="none" stroke="#63b8ff" d="M367.96,-297.69C367.96,-289.08 367.96,-279.9 367.96,-272.07"/>
<polygon fill="#63b8ff" stroke="#63b8ff" points="364.46,-297.79 367.96,-307.79 371.46,-297.79 364.46,-297.79"/>
</a>
</g>
</g>
<!-- Node15&#45;&gt;Node14 -->
<g id="edge28_Node000015_Node000014" class="edge">
<title>Node15&#45;&gt;Node14</title>
<g id="a_edge28_Node000015_Node000014"><a xlink:title=" ">
<path fill="none" stroke="#63b8ff" d="M317.23,-303.72C295.45,-293.51 270.32,-281.73 249.65,-272.04"/>
<polygon fill="#63b8ff" stroke="#63b8ff" points="315.8,-306.92 326.34,-307.99 318.77,-300.58 315.8,-306.92"/>
</a>
</g>
</g>
<!-- Node16 -->
<g id="Node000016" class="node">
<title>Node16</title>
<g id="a_Node000016"><a xlink:href="../../d1/daf/cut__quadrature_8hpp.html" target="_top" xlink:title="Definition of cut quadrature for unfitted domains.">
<polygon fill="white" stroke="#666666" points="645.46,-266.5 462.46,-266.5 462.46,-236.5 645.46,-236.5 645.46,-266.5"/>
<text text-anchor="start" x="470.46" y="-254.5" font-family="Helvetica,sans-Serif" font-size="10.00">/__w/qugar/qugar/cpp</text>
<text text-anchor="middle" x="553.96" y="-243.5" font-family="Helvetica,sans-Serif" font-size="10.00">/include/qugar/cut_quadrature.hpp</text>
</a>
</g>
</g>
<!-- Node15&#45;&gt;Node16 -->
<g id="edge24_Node000015_Node000016" class="edge">
<title>Node15&#45;&gt;Node16</title>
<g id="a_edge24_Node000015_Node000016"><a xlink:title=" ">
<path fill="none" stroke="#63b8ff" d="M425.62,-304.25C456.2,-291.92 492.77,-277.17 519.03,-266.58"/>
<polygon fill="#63b8ff" stroke="#63b8ff" points="424.31,-301 416.34,-307.99 426.92,-307.5 424.31,-301"/>
</a>
</g>
</g>
<!-- Node16&#45;&gt;Node6 -->
<g id="edge25_Node000016_Node000006" class="edge">
<title>Node16&#45;&gt;Node6</title>
<g id="a_edge25_Node000016_Node000006"><a xlink:title=" ">
<path fill="none" stroke="#63b8ff" d="M535.13,-228.27C519.96,-207.53 503.64,-176.49 519.96,-154 526.15,-145.46 573.75,-130.33 617,-118.02"/>
<polygon fill="#63b8ff" stroke="#63b8ff" points="532.36,-230.42 541.24,-236.21 537.91,-226.15 532.36,-230.42"/>
</a>
</g>
</g>
<!-- Node16&#45;&gt;Node9 -->
<g id="edge26_Node000016_Node000009" class="edge">
<title>Node16&#45;&gt;Node9</title>
<g id="a_edge26_Node000016_Node000009"><a xlink:title=" ">
<path fill="none" stroke="#63b8ff" d="M574.06,-228.96C585.89,-216.29 600.5,-200.63 610.85,-189.54"/>
<polygon fill="#63b8ff" stroke="#63b8ff" points="571.39,-226.69 567.12,-236.39 576.5,-231.47 571.39,-226.69"/>
</a>
</g>
</g>
<!-- Node17&#45;&gt;Node13 -->
<g id="edge30_Node000017_Node000013" class="edge">
<title>Node17&#45;&gt;Node13</title>
<g id="a_edge30_Node000017_Node000013"><a xlink:title=" ">
<path fill="none" stroke="#63b8ff" d="M300,-375.53C291.92,-355.67 285.53,-329.2 295.96,-308 303.27,-293.13 316.7,-281.12 329.99,-272.13"/>
<polygon fill="#63b8ff" stroke="#63b8ff" points="296.8,-376.95 304.04,-384.69 303.21,-374.12 296.8,-376.95"/>
</a>
</g>
</g>
<!-- Node17&#45;&gt;Node15 -->
<g id="edge31_Node000017_Node000015" class="edge">
<title>Node17&#45;&gt;Node15</title>
<g id="a_edge31_Node000017_Node000015"><a xlink:title=" ">
<path fill="none" stroke="#63b8ff" d="M334.82,-376.39C341.25,-367.3 348.23,-357.41 354.12,-349.07"/>
<polygon fill="#63b8ff" stroke="#63b8ff" points="331.79,-374.61 328.88,-384.79 337.51,-378.65 331.79,-374.61"/>
</a>
</g>
</g>
<!-- Node19&#45;&gt;Node2 -->
<g id="edge35_Node000019_Node000002" class="edge">
<title>Node19&#45;&gt;Node2</title>
<g id="a_edge35_Node000019_Node000002"><a xlink:title=" ">
<path fill="none" stroke="#63b8ff" d="M899.08,-378.82C886.66,-369.11 872.74,-358.24 861.14,-349.17"/>
<polygon fill="#63b8ff" stroke="#63b8ff" points="896.95,-381.59 906.98,-384.99 901.26,-376.08 896.95,-381.59"/>
</a>
</g>
</g>
<!-- Node19&#45;&gt;Node5 -->
<g id="edge36_Node000019_Node000005" class="edge">
<title>Node19&#45;&gt;Node5</title>
<g id="a_edge36_Node000019_Node000005"><a xlink:title=" ">
<path fill="none" stroke="#63b8ff" d="M941.73,-375.37C951.86,-345.16 967.44,-298.76 976.26,-272.47"/>
<polygon fill="#63b8ff" stroke="#63b8ff" points="938.38,-374.35 938.52,-384.94 945.02,-376.57 938.38,-374.35"/>
</a>
</g>
</g>
<!-- Node20&#45;&gt;Node2 -->
<g id="edge38_Node000020_Node000002" class="edge">
<title>Node20&#45;&gt;Node2</title>
<g id="a_edge38_Node000020_Node000002"><a xlink:title=" ">
<path fill="none" stroke="#63b8ff" d="M656.53,-458.56C679.56,-449.92 704.54,-438.99 725.96,-426 761.8,-404.26 797.13,-370.46 817.73,-349.17"/>
<polygon fill="#63b8ff" stroke="#63b8ff" points="655.32,-455.28 647.13,-462 657.73,-461.85 655.32,-455.28"/>
</a>
</g>
</g>
<!-- Node20&#45;&gt;Node19 -->
<g id="edge39_Node000020_Node000019" class="edge">
<title>Node20&#45;&gt;Node19</title>
<g id="a_edge39_Node000020_Node000019"><a xlink:title=" ">
<path fill="none" stroke="#63b8ff" d="M664.26,-461.96C736.87,-445.8 808.7,-431.06 860.44,-420.66"/>
<polygon fill="#63b8ff" stroke="#63b8ff" points="663.48,-458.55 654.48,-464.15 665,-465.38 663.48,-458.55"/>
</a>
</g>
</g>
</g>
</svg>
