<?xml version="1.0" encoding="UTF-8" standalone="no"?>
<!DOCTYPE svg PUBLIC "-//W3C//DTD SVG 1.1//EN"
 "http://www.w3.org/Graphics/SVG/1.1/DTD/svg11.dtd">
<!-- Generated by graphviz version 2.43.0 (0)
 -->
<!-- Title: /__w/qugar/qugar/cpp/include/qugar/bbox.hpp Pages: 1 -->
<svg width="1374pt" height="577pt"
 viewBox="0.00 0.00 1374.00 577.00" xmlns="http://www.w3.org/2000/svg" xmlns:xlink="http://www.w3.org/1999/xlink">
<g id="graph0" class="graph" transform="scale(1 1) rotate(0) translate(4 573)">
<title>/__w/qugar/qugar/cpp/include/qugar/bbox.hpp</title>
<!-- Node1 -->
<g id="Node000001" class="node">
<title>Node1</title>
<g id="a_Node000001"><a xlink:title="Definition of Cartesian bounding box class.">
<polygon fill="#999999" stroke="#666666" points="883.5,-569 749.5,-569 749.5,-539 883.5,-539 883.5,-569"/>
<text text-anchor="start" x="757.5" y="-557" font-family="Helvetica,sans-Serif" font-size="10.00">/__w/qugar/qugar/cpp</text>
<text text-anchor="middle" x="816.5" y="-546" font-family="Helvetica,sans-Serif" font-size="10.00">/include/qugar/bbox.hpp</text>
</a>
</g>
</g>
<!-- Node2 -->
<g id="Node000002" class="node">
<title>Node2</title>
<g id="a_Node000002"><a xlink:href="../../d0/d6f/demo__quad__sphere_2main_8cpp.html" target="_top" xlink:title=" ">
<polygon fill="white" stroke="#666666" points="494.5,-118 348.5,-118 348.5,-77 494.5,-77 494.5,-118"/>
<text text-anchor="start" x="356.5" y="-106" font-family="Helvetica,sans-Serif" font-size="10.00">/__w/qugar/qugar/cpp</text>
<text text-anchor="start" x="356.5" y="-95" font-family="Helvetica,sans-Serif" font-size="10.00">/demo/demo_quad_sphere</text>
<text text-anchor="middle" x="421.5" y="-84" font-family="Helvetica,sans-Serif" font-size="10.00">/main.cpp</text>
</a>
</g>
</g>
<!-- Node1&#45;&gt;Node2 -->
<g id="edge1_Node000001_Node000002" class="edge">
<title>Node1&#45;&gt;Node2</title>
<g id="a_edge1_Node000001_Node000002"><a xlink:title=" ">
<path fill="none" stroke="#63b8ff" d="M779.25,-533.39C767.23,-525.42 754.87,-515.18 746.5,-503 721.41,-466.48 721.5,-450.8 721.5,-406.5 721.5,-406.5 721.5,-406.5 721.5,-327.5 721.5,-212.51 580.51,-147.56 491.84,-118.08"/>
<polygon fill="#63b8ff" stroke="#63b8ff" points="777.54,-536.45 787.87,-538.8 781.26,-530.52 777.54,-536.45"/>
</a>
</g>
</g>
<!-- Node3 -->
<g id="Node000003" class="node">
<title>Node3</title>
<g id="a_Node000003"><a xlink:href="../../d2/d66/demo__reparam__gyroid_2main_8cpp.html" target="_top" xlink:title=" ">
<polygon fill="white" stroke="#666666" points="161,-41 0,-41 0,0 161,0 161,-41"/>
<text text-anchor="start" x="8" y="-29" font-family="Helvetica,sans-Serif" font-size="10.00">/__w/qugar/qugar/cpp</text>
<text text-anchor="start" x="8" y="-18" font-family="Helvetica,sans-Serif" font-size="10.00">/demo/demo_reparam_gyroid</text>
<text text-anchor="middle" x="80.5" y="-7" font-family="Helvetica,sans-Serif" font-size="10.00">/main.cpp</text>
</a>
</g>
</g>
<!-- Node1&#45;&gt;Node3 -->
<g id="edge2_Node000001_Node000003" class="edge">
<title>Node1&#45;&gt;Node3</title>
<g id="a_edge2_Node000001_Node000003"><a xlink:title=" ">
<path fill="none" stroke="#63b8ff" d="M738.89,-553.15C629.26,-551.78 423.44,-543.38 253.5,-503 140.44,-476.13 10.5,-522.7 10.5,-406.5 10.5,-406.5 10.5,-406.5 10.5,-173.5 10.5,-122.08 43.96,-69.1 64.62,-41.3"/>
<polygon fill="#63b8ff" stroke="#63b8ff" points="739.16,-556.65 749.2,-553.26 739.24,-549.65 739.16,-556.65"/>
</a>
</g>
</g>
<!-- Node4 -->
<g id="Node000004" class="node">
<title>Node4</title>
<g id="a_Node000004"><a xlink:href="../../d2/d6e/bezier__tp_8hpp.html" target="_top" xlink:title="Declaration of tensor&#45;product Bezier class.">
<polygon fill="white" stroke="#666666" points="1063.5,-349 943.5,-349 943.5,-308 1063.5,-308 1063.5,-349"/>
<text text-anchor="start" x="951.5" y="-337" font-family="Helvetica,sans-Serif" font-size="10.00">/__w/qugar/qugar/cpp</text>
<text text-anchor="start" x="951.5" y="-326" font-family="Helvetica,sans-Serif" font-size="10.00">/include/qugar/bezier</text>
<text text-anchor="middle" x="1003.5" y="-315" font-family="Helvetica,sans-Serif" font-size="10.00">_tp.hpp</text>
</a>
</g>
</g>
<!-- Node1&#45;&gt;Node4 -->
<g id="edge3_Node000001_Node000004" class="edge">
<title>Node1&#45;&gt;Node4</title>
<g id="a_edge3_Node000001_Node000004"><a xlink:title=" ">
<path fill="none" stroke="#63b8ff" d="M893.63,-543.57C943.22,-535.74 1001.15,-522.66 1016.5,-503 1051.82,-457.76 1027.55,-384.1 1012.69,-349.13"/>
<polygon fill="#63b8ff" stroke="#63b8ff" points="892.87,-540.14 883.51,-545.11 893.93,-547.06 892.87,-540.14"/>
</a>
</g>
</g>
<!-- Node6 -->
<g id="Node000006" class="node">
<title>Node6</title>
<g id="a_Node000006"><a xlink:href="../../d6/d87/impl__reparam__bezier_8hpp.html" target="_top" xlink:title="Declaration of tools for creating Bezier reparameterizations.">
<polygon fill="white" stroke="#666666" points="1215,-118 1058,-118 1058,-77 1215,-77 1215,-118"/>
<text text-anchor="start" x="1066" y="-106" font-family="Helvetica,sans-Serif" font-size="10.00">/__w/qugar/qugar/cpp</text>
<text text-anchor="start" x="1066" y="-95" font-family="Helvetica,sans-Serif" font-size="10.00">/include/qugar/impl_reparam</text>
<text text-anchor="middle" x="1136.5" y="-84" font-family="Helvetica,sans-Serif" font-size="10.00">_bezier.hpp</text>
</a>
</g>
</g>
<!-- Node1&#45;&gt;Node6 -->
<g id="edge34_Node000001_Node000006" class="edge">
<title>Node1&#45;&gt;Node6</title>
<g id="a_edge34_Node000001_Node000006"><a xlink:title=" ">
<path fill="none" stroke="#63b8ff" d="M893.61,-549.55C946.97,-544.49 1018.22,-532.27 1074.5,-503 1129.3,-474.51 1174.5,-468.26 1174.5,-406.5 1174.5,-406.5 1174.5,-406.5 1174.5,-250.5 1174.5,-201.81 1155.92,-146.9 1144.75,-118.27"/>
<polygon fill="#63b8ff" stroke="#63b8ff" points="893.18,-546.08 883.52,-550.44 893.79,-553.05 893.18,-546.08"/>
</a>
</g>
</g>
<!-- Node8 -->
<g id="Node000008" class="node">
<title>Node8</title>
<g id="a_Node000008"><a xlink:href="../../d6/d49/cart__grid__tp_8hpp.html" target="_top" xlink:title="Definition of Cartesian grid class.">
<polygon fill="white" stroke="#666666" points="484,-503 353,-503 353,-462 484,-462 484,-503"/>
<text text-anchor="start" x="361" y="-491" font-family="Helvetica,sans-Serif" font-size="10.00">/__w/qugar/qugar/cpp</text>
<text text-anchor="start" x="361" y="-480" font-family="Helvetica,sans-Serif" font-size="10.00">/include/qugar/cart_grid</text>
<text text-anchor="middle" x="418.5" y="-469" font-family="Helvetica,sans-Serif" font-size="10.00">_tp.hpp</text>
</a>
</g>
</g>
<!-- Node1&#45;&gt;Node8 -->
<g id="edge8_Node000001_Node000008" class="edge">
<title>Node1&#45;&gt;Node8</title>
<g id="a_edge8_Node000001_Node000008"><a xlink:title=" ">
<path fill="none" stroke="#63b8ff" d="M739.22,-539.5C665.04,-526.55 554.22,-507.2 484.18,-494.97"/>
<polygon fill="#63b8ff" stroke="#63b8ff" points="738.98,-543.02 749.43,-541.29 740.19,-536.12 738.98,-543.02"/>
</a>
</g>
</g>
<!-- Node10 -->
<g id="Node000010" class="node">
<title>Node10</title>
<g id="a_Node000010"><a xlink:href="../../d3/d42/impl__reparam__mesh_8hpp.html" target="_top" xlink:title="Declaration of reparameterization class.">
<polygon fill="white" stroke="#666666" points="849,-195 692,-195 692,-154 849,-154 849,-195"/>
<text text-anchor="start" x="700" y="-183" font-family="Helvetica,sans-Serif" font-size="10.00">/__w/qugar/qugar/cpp</text>
<text text-anchor="start" x="700" y="-172" font-family="Helvetica,sans-Serif" font-size="10.00">/include/qugar/impl_reparam</text>
<text text-anchor="middle" x="770.5" y="-161" font-family="Helvetica,sans-Serif" font-size="10.00">_mesh.hpp</text>
</a>
</g>
</g>
<!-- Node1&#45;&gt;Node10 -->
<g id="edge36_Node000001_Node000010" class="edge">
<title>Node1&#45;&gt;Node10</title>
<g id="a_edge36_Node000001_Node000010"><a xlink:title=" ">
<path fill="none" stroke="#63b8ff" d="M813.53,-528.6C805.01,-458.68 780.62,-258.54 772.88,-195.07"/>
<polygon fill="#63b8ff" stroke="#63b8ff" points="810.07,-529.16 814.75,-538.66 817.02,-528.31 810.07,-529.16"/>
</a>
</g>
</g>
<!-- Node12 -->
<g id="Node000012" class="node">
<title>Node12</title>
<g id="a_Node000012"><a xlink:href="../../d5/da9/impl__reparam__general_8hpp.html" target="_top" xlink:title="Declaration of tools for creating reparameterizations of general functions.">
<polygon fill="white" stroke="#666666" points="953,-118 796,-118 796,-77 953,-77 953,-118"/>
<text text-anchor="start" x="804" y="-106" font-family="Helvetica,sans-Serif" font-size="10.00">/__w/qugar/qugar/cpp</text>
<text text-anchor="start" x="804" y="-95" font-family="Helvetica,sans-Serif" font-size="10.00">/include/qugar/impl_reparam</text>
<text text-anchor="middle" x="874.5" y="-84" font-family="Helvetica,sans-Serif" font-size="10.00">_general.hpp</text>
</a>
</g>
</g>
<!-- Node1&#45;&gt;Node12 -->
<g id="edge35_Node000001_Node000012" class="edge">
<title>Node1&#45;&gt;Node12</title>
<g id="a_edge35_Node000001_Node000012"><a xlink:title=" ">
<path fill="none" stroke="#63b8ff" d="M893.83,-550.28C939.51,-545.31 996.44,-532.9 1038.5,-503 1079.66,-473.74 1098.5,-457 1098.5,-406.5 1098.5,-406.5 1098.5,-406.5 1098.5,-250.5 1098.5,-178.24 1017.7,-137.95 953.16,-117.29"/>
<polygon fill="#63b8ff" stroke="#63b8ff" points="893.27,-546.82 883.67,-551.29 893.96,-553.79 893.27,-546.82"/>
</a>
</g>
</g>
<!-- Node13 -->
<g id="Node000013" class="node">
<title>Node13</title>
<g id="a_Node000013"><a xlink:href="../../d6/d03/impl__unfitted__domain_8hpp.html" target="_top" xlink:title="Declaration of of UnfittedImplDomain class.">
<polygon fill="white" stroke="#666666" points="268,-272 115,-272 115,-231 268,-231 268,-272"/>
<text text-anchor="start" x="123" y="-260" font-family="Helvetica,sans-Serif" font-size="10.00">/__w/qugar/qugar/cpp</text>
<text text-anchor="start" x="123" y="-249" font-family="Helvetica,sans-Serif" font-size="10.00">/include/qugar/impl_unfitted</text>
<text text-anchor="middle" x="191.5" y="-238" font-family="Helvetica,sans-Serif" font-size="10.00">_domain.hpp</text>
</a>
</g>
</g>
<!-- Node1&#45;&gt;Node13 -->
<g id="edge37_Node000001_Node000013" class="edge">
<title>Node1&#45;&gt;Node13</title>
<g id="a_edge37_Node000001_Node000013"><a xlink:title=" ">
<path fill="none" stroke="#63b8ff" d="M739.04,-549.12C624.16,-542.64 414.54,-527.81 343.5,-503 283.32,-481.98 262.12,-475.94 222.5,-426 186.37,-380.45 186.79,-306.94 189.41,-272.07"/>
<polygon fill="#63b8ff" stroke="#63b8ff" points="738.99,-552.62 749.17,-549.68 739.38,-545.63 738.99,-552.62"/>
</a>
</g>
</g>
<!-- Node14 -->
<g id="Node000014" class="node">
<title>Node14</title>
<g id="a_Node000014"><a xlink:href="../../d8/ddc/reparam__mesh_8hpp.html" target="_top" xlink:title="Declaration of reparameterization class.">
<polygon fill="white" stroke="#666666" points="655.5,-272 525.5,-272 525.5,-231 655.5,-231 655.5,-272"/>
<text text-anchor="start" x="533.5" y="-260" font-family="Helvetica,sans-Serif" font-size="10.00">/__w/qugar/qugar/cpp</text>
<text text-anchor="start" x="533.5" y="-249" font-family="Helvetica,sans-Serif" font-size="10.00">/include/qugar/reparam</text>
<text text-anchor="middle" x="590.5" y="-238" font-family="Helvetica,sans-Serif" font-size="10.00">_mesh.hpp</text>
</a>
</g>
</g>
<!-- Node1&#45;&gt;Node14 -->
<g id="edge45_Node000001_Node000014" class="edge">
<title>Node1&#45;&gt;Node14</title>
<g id="a_edge45_Node000001_Node000014"><a xlink:title=" ">
<path fill="none" stroke="#63b8ff" d="M799.68,-530.64C757.12,-474.04 645.63,-325.8 605.31,-272.2"/>
<polygon fill="#63b8ff" stroke="#63b8ff" points="797.09,-533.02 805.9,-538.91 802.69,-528.81 797.09,-533.02"/>
</a>
</g>
</g>
<!-- Node18 -->
<g id="Node000018" class="node">
<title>Node18</title>
<g id="a_Node000018"><a xlink:href="../../d6/d82/monomials__tp_8hpp.html" target="_top" xlink:title="Declaration of tensor&#45;product monomials class.">
<polygon fill="white" stroke="#666666" points="969,-426 826,-426 826,-385 969,-385 969,-426"/>
<text text-anchor="start" x="834" y="-414" font-family="Helvetica,sans-Serif" font-size="10.00">/__w/qugar/qugar/cpp</text>
<text text-anchor="start" x="834" y="-403" font-family="Helvetica,sans-Serif" font-size="10.00">/include/qugar/monomials</text>
<text text-anchor="middle" x="897.5" y="-392" font-family="Helvetica,sans-Serif" font-size="10.00">_tp.hpp</text>
</a>
</g>
</g>
<!-- Node1&#45;&gt;Node18 -->
<g id="edge38_Node000001_Node000018" class="edge">
<title>Node1&#45;&gt;Node18</title>
<g id="a_edge38_Node000001_Node000018"><a xlink:title=" ">
<path fill="none" stroke="#63b8ff" d="M824.81,-529.37C831.86,-510.54 842.82,-483.82 855.5,-462 862.78,-449.46 872.47,-436.48 880.7,-426.23"/>
<polygon fill="#63b8ff" stroke="#63b8ff" points="821.46,-528.34 821.32,-538.93 828.04,-530.74 821.46,-528.34"/>
</a>
</g>
</g>
<!-- Node19 -->
<g id="Node000019" class="node">
<title>Node19</title>
<g id="a_Node000019"><a xlink:href="../../d2/dee/polynomial__tp_8hpp.html" target="_top" xlink:title="Declaration of tensor&#45;product polynomial class.">
<polygon fill="white" stroke="#666666" points="1007,-503 864,-503 864,-462 1007,-462 1007,-503"/>
<text text-anchor="start" x="872" y="-491" font-family="Helvetica,sans-Serif" font-size="10.00">/__w/qugar/qugar/cpp</text>
<text text-anchor="start" x="872" y="-480" font-family="Helvetica,sans-Serif" font-size="10.00">/include/qugar/polynomial</text>
<text text-anchor="middle" x="935.5" y="-469" font-family="Helvetica,sans-Serif" font-size="10.00">_tp.hpp</text>
</a>
</g>
</g>
<!-- Node1&#45;&gt;Node19 -->
<g id="edge41_Node000001_Node000019" class="edge">
<title>Node1&#45;&gt;Node19</title>
<g id="a_edge41_Node000001_Node000019"><a xlink:title=" ">
<path fill="none" stroke="#63b8ff" d="M849.3,-533.85C865.69,-524.27 885.49,-512.71 901.99,-503.07"/>
<polygon fill="#63b8ff" stroke="#63b8ff" points="847.45,-530.87 840.58,-538.94 850.98,-536.91 847.45,-530.87"/>
</a>
</g>
</g>
<!-- Node20 -->
<g id="Node000020" class="node">
<title>Node20</title>
<g id="a_Node000020"><a xlink:href="../../d6/dbe/quadrature_8hpp.html" target="_top" xlink:title="Definition of quadrature related functionalities.">
<polygon fill="white" stroke="#666666" points="1366,-497.5 1203,-497.5 1203,-467.5 1366,-467.5 1366,-497.5"/>
<text text-anchor="start" x="1211" y="-485.5" font-family="Helvetica,sans-Serif" font-size="10.00">/__w/qugar/qugar/cpp</text>
<text text-anchor="middle" x="1284.5" y="-474.5" font-family="Helvetica,sans-Serif" font-size="10.00">/include/qugar/quadrature.hpp</text>
</a>
</g>
</g>
<!-- Node1&#45;&gt;Node20 -->
<g id="edge44_Node000001_Node000020" class="edge">
<title>Node1&#45;&gt;Node20</title>
<g id="a_edge44_Node000001_Node000020"><a xlink:title=" ">
<path fill="none" stroke="#63b8ff" d="M893.92,-544.12C969.32,-535.12 1087.08,-520.1 1188.5,-503 1198.23,-501.36 1208.47,-499.46 1218.51,-497.51"/>
<polygon fill="#63b8ff" stroke="#63b8ff" points="893.08,-540.7 883.57,-545.35 893.91,-547.65 893.08,-540.7"/>
</a>
</g>
</g>
<!-- Node5 -->
<g id="Node000005" class="node">
<title>Node5</title>
<g id="a_Node000005"><a xlink:href="../../de/d62/bezier__tp__utils_8hpp.html" target="_top" xlink:title="Declaration of tensor&#45;product Bezier utils.">
<polygon fill="white" stroke="#666666" points="1070.5,-272 950.5,-272 950.5,-231 1070.5,-231 1070.5,-272"/>
<text text-anchor="start" x="958.5" y="-260" font-family="Helvetica,sans-Serif" font-size="10.00">/__w/qugar/qugar/cpp</text>
<text text-anchor="start" x="958.5" y="-249" font-family="Helvetica,sans-Serif" font-size="10.00">/include/qugar/bezier</text>
<text text-anchor="middle" x="1010.5" y="-238" font-family="Helvetica,sans-Serif" font-size="10.00">_tp_utils.hpp</text>
</a>
</g>
</g>
<!-- Node4&#45;&gt;Node5 -->
<g id="edge4_Node000004_Node000005" class="edge">
<title>Node4&#45;&gt;Node5</title>
<g id="a_edge4_Node000004_Node000005"><a xlink:title=" ">
<path fill="none" stroke="#63b8ff" d="M1006.28,-297.69C1007.09,-289.08 1007.94,-279.9 1008.67,-272.07"/>
<polygon fill="#63b8ff" stroke="#63b8ff" points="1002.78,-297.51 1005.34,-307.79 1009.75,-298.16 1002.78,-297.51"/>
</a>
</g>
</g>
<!-- Node4&#45;&gt;Node6 -->
<g id="edge5_Node000004_Node000006" class="edge">
<title>Node4&#45;&gt;Node6</title>
<g id="a_edge5_Node000004_Node000006"><a xlink:title=" ">
<path fill="none" stroke="#63b8ff" d="M1047.92,-302.11C1059.5,-293.75 1071.07,-283.59 1079.5,-272 1114.65,-223.66 1128.94,-152.44 1134.03,-118.24"/>
<polygon fill="#63b8ff" stroke="#63b8ff" points="1045.8,-299.32 1039.54,-307.86 1049.76,-305.09 1045.8,-299.32"/>
</a>
</g>
</g>
<!-- Node7 -->
<g id="Node000007" class="node">
<title>Node7</title>
<g id="a_Node000007"><a xlink:href="../../d7/d6f/primitive__funcs__lib_8hpp.html" target="_top" xlink:title="Declaration of a primitive implicit functions ready to be consumed by Algoim.">
<polygon fill="white" stroke="#666666" points="932,-272 799,-272 799,-231 932,-231 932,-272"/>
<text text-anchor="start" x="807" y="-260" font-family="Helvetica,sans-Serif" font-size="10.00">/__w/qugar/qugar/cpp</text>
<text text-anchor="start" x="807" y="-249" font-family="Helvetica,sans-Serif" font-size="10.00">/include/qugar/primitive</text>
<text text-anchor="middle" x="865.5" y="-238" font-family="Helvetica,sans-Serif" font-size="10.00">_funcs_lib.hpp</text>
</a>
</g>
</g>
<!-- Node4&#45;&gt;Node7 -->
<g id="edge6_Node000004_Node000007" class="edge">
<title>Node4&#45;&gt;Node7</title>
<g id="a_edge6_Node000004_Node000007"><a xlink:title=" ">
<path fill="none" stroke="#63b8ff" d="M958.78,-303.19C940.3,-293.15 919.17,-281.67 901.7,-272.17"/>
<polygon fill="#63b8ff" stroke="#63b8ff" points="957.14,-306.29 967.6,-307.99 960.49,-300.14 957.14,-306.29"/>
</a>
</g>
</g>
<!-- Node7&#45;&gt;Node2 -->
<g id="edge7_Node000007_Node000002" class="edge">
<title>Node7&#45;&gt;Node2</title>
<g id="a_edge7_Node000007_Node000002"><a xlink:title=" ">
<path fill="none" stroke="#63b8ff" d="M872.36,-220.99C875.46,-199.52 875.3,-171.29 858.5,-154 803.24,-97.13 581.69,-131.2 503.5,-118 500.61,-117.51 497.68,-116.98 494.72,-116.42"/>
<polygon fill="#63b8ff" stroke="#63b8ff" points="868.9,-220.46 870.64,-230.91 875.8,-221.66 868.9,-220.46"/>
</a>
</g>
</g>
<!-- Node8&#45;&gt;Node2 -->
<g id="edge9_Node000008_Node000002" class="edge">
<title>Node8&#45;&gt;Node2</title>
<g id="a_edge9_Node000008_Node000002"><a xlink:title=" ">
<path fill="none" stroke="#63b8ff" d="M443.41,-453.58C466.57,-424.67 497.5,-377.14 497.5,-329.5 497.5,-329.5 497.5,-329.5 497.5,-250.5 497.5,-198.28 461.17,-145.61 438.75,-118.07"/>
<polygon fill="#63b8ff" stroke="#63b8ff" points="440.48,-451.64 436.82,-461.58 445.88,-456.09 440.48,-451.64"/>
</a>
</g>
</g>
<!-- Node8&#45;&gt;Node3 -->
<g id="edge10_Node000008_Node000003" class="edge">
<title>Node8&#45;&gt;Node3</title>
<g id="a_edge10_Node000008_Node000003"><a xlink:title=" ">
<path fill="none" stroke="#63b8ff" d="M342.67,-479.35C289.38,-474.55 218.6,-461.27 166.5,-426 89.28,-373.72 48.5,-345.76 48.5,-252.5 48.5,-252.5 48.5,-252.5 48.5,-173.5 48.5,-125.23 64.15,-70.15 73.56,-41.38"/>
<polygon fill="#63b8ff" stroke="#63b8ff" points="342.49,-482.84 352.74,-480.17 343.06,-475.87 342.49,-482.84"/>
</a>
</g>
</g>
<!-- Node9 -->
<g id="Node000009" class="node">
<title>Node9</title>
<g id="a_Node000009"><a xlink:href="../../d6/dc8/impl__quadrature_8hpp.html" target="_top" xlink:title="Declaration of quadratures for general implicit functions on grids.">
<polygon fill="white" stroke="#666666" points="393.5,-189.5 203.5,-189.5 203.5,-159.5 393.5,-159.5 393.5,-189.5"/>
<text text-anchor="start" x="211.5" y="-177.5" font-family="Helvetica,sans-Serif" font-size="10.00">/__w/qugar/qugar/cpp</text>
<text text-anchor="middle" x="298.5" y="-166.5" font-family="Helvetica,sans-Serif" font-size="10.00">/include/qugar/impl_quadrature.hpp</text>
</a>
</g>
</g>
<!-- Node8&#45;&gt;Node9 -->
<g id="edge11_Node000008_Node000009" class="edge">
<title>Node8&#45;&gt;Node9</title>
<g id="a_edge11_Node000008_Node000009"><a xlink:title=" ">
<path fill="none" stroke="#63b8ff" d="M342.56,-471.71C304.05,-463.97 258.04,-450.24 222.5,-426 151.48,-377.57 132.93,-353.46 105.5,-272 99.68,-254.73 94.54,-245.56 105.5,-231 119.08,-212.97 168.31,-198.97 213.64,-189.55"/>
<polygon fill="#63b8ff" stroke="#63b8ff" points="342.22,-475.21 352.7,-473.65 343.53,-468.33 342.22,-475.21"/>
</a>
</g>
</g>
<!-- Node8&#45;&gt;Node10 -->
<g id="edge13_Node000008_Node000010" class="edge">
<title>Node8&#45;&gt;Node10</title>
<g id="a_edge13_Node000008_Node000010"><a xlink:title=" ">
<path fill="none" stroke="#63b8ff" d="M482.98,-457.93C502.37,-449.36 523.1,-438.62 540.5,-426 636.8,-356.15 724,-241.07 756.76,-195.23"/>
<polygon fill="#63b8ff" stroke="#63b8ff" points="481.4,-454.8 473.59,-461.97 484.16,-461.24 481.4,-454.8"/>
</a>
</g>
</g>
<!-- Node8&#45;&gt;Node13 -->
<g id="edge18_Node000008_Node000013" class="edge">
<title>Node8&#45;&gt;Node13</title>
<g id="a_edge18_Node000008_Node000013"><a xlink:title=" ">
<path fill="none" stroke="#63b8ff" d="M342.97,-470.35C312.5,-462.45 279.06,-448.98 255.5,-426 211.6,-383.19 197.58,-307.68 193.29,-272.1"/>
<polygon fill="#63b8ff" stroke="#63b8ff" points="342.19,-473.77 352.74,-472.73 343.85,-466.97 342.19,-473.77"/>
</a>
</g>
</g>
<!-- Node8&#45;&gt;Node14 -->
<g id="edge23_Node000008_Node000014" class="edge">
<title>Node8&#45;&gt;Node14</title>
<g id="a_edge23_Node000008_Node000014"><a xlink:title=" ">
<path fill="none" stroke="#63b8ff" d="M471.94,-457.03C486.1,-448.69 500.49,-438.3 511.5,-426 553.33,-379.26 576.52,-306.65 585.74,-272.08"/>
<polygon fill="#63b8ff" stroke="#63b8ff" points="470.18,-454.01 463.18,-461.96 473.61,-460.11 470.18,-454.01"/>
</a>
</g>
</g>
<!-- Node15 -->
<g id="Node000015" class="node">
<title>Node15</title>
<g id="a_Node000015"><a xlink:href="../../d2/dfd/unfitted__domain_8hpp.html" target="_top" xlink:title="Declaration of of UnfittedDomain class.">
<polygon fill="white" stroke="#666666" points="440.5,-349 314.5,-349 314.5,-308 440.5,-308 440.5,-349"/>
<text text-anchor="start" x="322.5" y="-337" font-family="Helvetica,sans-Serif" font-size="10.00">/__w/qugar/qugar/cpp</text>
<text text-anchor="start" x="322.5" y="-326" font-family="Helvetica,sans-Serif" font-size="10.00">/include/qugar/unfitted</text>
<text text-anchor="middle" x="377.5" y="-315" font-family="Helvetica,sans-Serif" font-size="10.00">_domain.hpp</text>
</a>
</g>
</g>
<!-- Node8&#45;&gt;Node15 -->
<g id="edge25_Node000008_Node000015" class="edge">
<title>Node8&#45;&gt;Node15</title>
<g id="a_edge25_Node000008_Node000015"><a xlink:title=" ">
<path fill="none" stroke="#63b8ff" d="M414.08,-451.66C410.87,-432.42 405.96,-406.98 399.5,-385 395.93,-372.87 390.77,-359.69 386.34,-349.23"/>
<polygon fill="#63b8ff" stroke="#63b8ff" points="410.64,-452.34 415.68,-461.65 417.55,-451.23 410.64,-452.34"/>
</a>
</g>
</g>
<!-- Node17 -->
<g id="Node000017" class="node">
<title>Node17</title>
<g id="a_Node000017"><a xlink:href="../../d8/d90/unfitted__domain__kd__tree_8hpp.html" target="_top" xlink:title="Declaration of of UnfittedDomain class.">
<polygon fill="white" stroke="#666666" points="390.5,-426 264.5,-426 264.5,-385 390.5,-385 390.5,-426"/>
<text text-anchor="start" x="272.5" y="-414" font-family="Helvetica,sans-Serif" font-size="10.00">/__w/qugar/qugar/cpp</text>
<text text-anchor="start" x="272.5" y="-403" font-family="Helvetica,sans-Serif" font-size="10.00">/include/qugar/unfitted</text>
<text text-anchor="middle" x="327.5" y="-392" font-family="Helvetica,sans-Serif" font-size="10.00">_domain_kd_tree.hpp</text>
</a>
</g>
</g>
<!-- Node8&#45;&gt;Node17 -->
<g id="edge31_Node000008_Node000017" class="edge">
<title>Node8&#45;&gt;Node17</title>
<g id="a_edge31_Node000008_Node000017"><a xlink:title=" ">
<path fill="none" stroke="#63b8ff" d="M386.77,-455.35C375.1,-445.73 362.1,-435.01 351.25,-426.07"/>
<polygon fill="#63b8ff" stroke="#63b8ff" points="384.65,-458.14 394.59,-461.79 389.1,-452.73 384.65,-458.14"/>
</a>
</g>
</g>
<!-- Node9&#45;&gt;Node2 -->
<g id="edge12_Node000009_Node000002" class="edge">
<title>Node9&#45;&gt;Node2</title>
<g id="a_edge12_Node000009_Node000002"><a xlink:title=" ">
<path fill="none" stroke="#63b8ff" d="M330.62,-153.91C348.66,-142.91 371.11,-129.22 389.19,-118.2"/>
<polygon fill="#63b8ff" stroke="#63b8ff" points="328.35,-151.2 321.64,-159.39 332,-157.18 328.35,-151.2"/>
</a>
</g>
</g>
<!-- Node10&#45;&gt;Node6 -->
<g id="edge16_Node000010_Node000006" class="edge">
<title>Node10&#45;&gt;Node6</title>
<g id="a_edge16_Node000010_Node000006"><a xlink:title=" ">
<path fill="none" stroke="#63b8ff" d="M858.96,-155.37C919.61,-142.94 999.36,-126.6 1057.8,-114.63"/>
<polygon fill="#63b8ff" stroke="#63b8ff" points="858.11,-151.97 849.02,-157.41 859.52,-158.83 858.11,-151.97"/>
</a>
</g>
</g>
<!-- Node11 -->
<g id="Node000011" class="node">
<title>Node11</title>
<g id="a_Node000011"><a xlink:href="../../d0/d4c/impl__reparam_8hpp.html" target="_top" xlink:title="Declaration of reparameterization generization tools implicit functions on grids.">
<polygon fill="white" stroke="#666666" points="690.5,-112.5 512.5,-112.5 512.5,-82.5 690.5,-82.5 690.5,-112.5"/>
<text text-anchor="start" x="520.5" y="-100.5" font-family="Helvetica,sans-Serif" font-size="10.00">/__w/qugar/qugar/cpp</text>
<text text-anchor="middle" x="601.5" y="-89.5" font-family="Helvetica,sans-Serif" font-size="10.00">/include/qugar/impl_reparam.hpp</text>
</a>
</g>
</g>
<!-- Node10&#45;&gt;Node11 -->
<g id="edge14_Node000010_Node000011" class="edge">
<title>Node10&#45;&gt;Node11</title>
<g id="a_edge14_Node000010_Node000011"><a xlink:title=" ">
<path fill="none" stroke="#63b8ff" d="M717.39,-149.93C689.75,-137.66 656.89,-123.08 633.23,-112.58"/>
<polygon fill="#63b8ff" stroke="#63b8ff" points="715.98,-153.13 726.54,-153.99 718.82,-146.73 715.98,-153.13"/>
</a>
</g>
</g>
<!-- Node10&#45;&gt;Node12 -->
<g id="edge17_Node000010_Node000012" class="edge">
<title>Node10&#45;&gt;Node12</title>
<g id="a_edge17_Node000010_Node000012"><a xlink:title=" ">
<path fill="none" stroke="#63b8ff" d="M805.73,-148.09C819.28,-138.32 834.53,-127.32 847.22,-118.17"/>
<polygon fill="#63b8ff" stroke="#63b8ff" points="803.62,-145.3 797.55,-153.99 807.71,-150.98 803.62,-145.3"/>
</a>
</g>
</g>
<!-- Node11&#45;&gt;Node3 -->
<g id="edge15_Node000011_Node000003" class="edge">
<title>Node11&#45;&gt;Node3</title>
<g id="a_edge15_Node000011_Node000003"><a xlink:title=" ">
<path fill="none" stroke="#63b8ff" d="M524,-80.59C517.08,-79.32 510.17,-78.1 503.5,-77 384.75,-57.42 246.32,-40.33 161.04,-30.47"/>
<polygon fill="#63b8ff" stroke="#63b8ff" points="523.65,-84.09 534.13,-82.49 524.94,-77.2 523.65,-84.09"/>
</a>
</g>
</g>
<!-- Node13&#45;&gt;Node2 -->
<g id="edge19_Node000013_Node000002" class="edge">
<title>Node13&#45;&gt;Node2</title>
<g id="a_edge19_Node000013_Node000002"><a xlink:title=" ">
<path fill="none" stroke="#63b8ff" d="M183.78,-220.76C180.22,-199.83 179.6,-172.38 194.5,-154 213.82,-130.16 289.55,-115.12 348.29,-106.8"/>
<polygon fill="#63b8ff" stroke="#63b8ff" points="180.38,-221.61 185.77,-230.73 187.24,-220.24 180.38,-221.61"/>
</a>
</g>
</g>
<!-- Node13&#45;&gt;Node3 -->
<g id="edge20_Node000013_Node000003" class="edge">
<title>Node13&#45;&gt;Node3</title>
<g id="a_edge20_Node000013_Node000003"><a xlink:title=" ">
<path fill="none" stroke="#63b8ff" d="M177.64,-221.92C154.8,-174.78 109.78,-81.91 90.1,-41.3"/>
<polygon fill="#63b8ff" stroke="#63b8ff" points="174.52,-223.5 182.04,-230.98 180.82,-220.45 174.52,-223.5"/>
</a>
</g>
</g>
<!-- Node13&#45;&gt;Node9 -->
<g id="edge21_Node000013_Node000009" class="edge">
<title>Node13&#45;&gt;Node9</title>
<g id="a_edge21_Node000013_Node000009"><a xlink:title=" ">
<path fill="none" stroke="#63b8ff" d="M227.86,-225.01C244.69,-213.22 264.05,-199.65 278.24,-189.7"/>
<polygon fill="#63b8ff" stroke="#63b8ff" points="225.51,-222.38 219.33,-230.99 229.53,-228.12 225.51,-222.38"/>
</a>
</g>
</g>
<!-- Node13&#45;&gt;Node11 -->
<g id="edge22_Node000013_Node000011" class="edge">
<title>Node13&#45;&gt;Node11</title>
<g id="a_edge22_Node000013_Node000011"><a xlink:title=" ">
<path fill="none" stroke="#63b8ff" d="M277.96,-229.56C325.52,-217.68 379.44,-203.53 402.5,-195 467.32,-171.02 539.37,-133.05 576.44,-112.62"/>
<polygon fill="#63b8ff" stroke="#63b8ff" points="277.09,-226.17 268.23,-231.98 278.78,-232.96 277.09,-226.17"/>
</a>
</g>
</g>
<!-- Node14&#45;&gt;Node10 -->
<g id="edge24_Node000014_Node000010" class="edge">
<title>Node14&#45;&gt;Node10</title>
<g id="a_edge24_Node000014_Node000010"><a xlink:title=" ">
<path fill="none" stroke="#63b8ff" d="M646.58,-227.13C671.31,-216.83 700.03,-204.86 723.6,-195.04"/>
<polygon fill="#63b8ff" stroke="#63b8ff" points="645.21,-223.91 637.32,-230.99 647.9,-230.37 645.21,-223.91"/>
</a>
</g>
</g>
<!-- Node15&#45;&gt;Node13 -->
<g id="edge29_Node000015_Node000013" class="edge">
<title>Node15&#45;&gt;Node13</title>
<g id="a_edge29_Node000015_Node000013"><a xlink:title=" ">
<path fill="none" stroke="#63b8ff" d="M319.55,-304.13C294,-293.83 264.31,-281.86 239.96,-272.04"/>
<polygon fill="#63b8ff" stroke="#63b8ff" points="318.53,-307.5 329.12,-307.99 321.15,-301 318.53,-307.5"/>
</a>
</g>
</g>
<!-- Node15&#45;&gt;Node14 -->
<g id="edge30_Node000015_Node000014" class="edge">
<title>Node15&#45;&gt;Node14</title>
<g id="a_edge30_Node000015_Node000014"><a xlink:title=" ">
<path fill="none" stroke="#63b8ff" d="M442.71,-304.54C472.22,-294.15 506.75,-281.99 535,-272.04"/>
<polygon fill="#63b8ff" stroke="#63b8ff" points="441.18,-301.37 432.91,-307.99 443.5,-307.97 441.18,-301.37"/>
</a>
</g>
</g>
<!-- Node16 -->
<g id="Node000016" class="node">
<title>Node16</title>
<g id="a_Node000016"><a xlink:href="../../d1/daf/cut__quadrature_8hpp.html" target="_top" xlink:title="Definition of cut quadrature for unfitted domains.">
<polygon fill="white" stroke="#666666" points="469,-266.5 286,-266.5 286,-236.5 469,-236.5 469,-266.5"/>
<text text-anchor="start" x="294" y="-254.5" font-family="Helvetica,sans-Serif" font-size="10.00">/__w/qugar/qugar/cpp</text>
<text text-anchor="middle" x="377.5" y="-243.5" font-family="Helvetica,sans-Serif" font-size="10.00">/include/qugar/cut_quadrature.hpp</text>
</a>
</g>
</g>
<!-- Node15&#45;&gt;Node16 -->
<g id="edge26_Node000015_Node000016" class="edge">
<title>Node15&#45;&gt;Node16</title>
<g id="a_edge26_Node000015_Node000016"><a xlink:title=" ">
<path fill="none" stroke="#63b8ff" d="M377.5,-297.61C377.5,-287.01 377.5,-275.57 377.5,-266.86"/>
<polygon fill="#63b8ff" stroke="#63b8ff" points="374,-297.79 377.5,-307.79 381,-297.79 374,-297.79"/>
</a>
</g>
</g>
<!-- Node16&#45;&gt;Node2 -->
<g id="edge27_Node000016_Node000002" class="edge">
<title>Node16&#45;&gt;Node2</title>
<g id="a_edge27_Node000016_Node000002"><a xlink:title=" ">
<path fill="none" stroke="#63b8ff" d="M389.43,-227.2C394.04,-217.45 399.03,-205.87 402.5,-195 410.8,-168.97 416.15,-137.78 418.99,-118.05"/>
<polygon fill="#63b8ff" stroke="#63b8ff" points="386.25,-225.73 385.01,-236.25 392.54,-228.8 386.25,-225.73"/>
</a>
</g>
</g>
<!-- Node16&#45;&gt;Node9 -->
<g id="edge28_Node000016_Node000009" class="edge">
<title>Node16&#45;&gt;Node9</title>
<g id="a_edge28_Node000016_Node000009"><a xlink:title=" ">
<path fill="none" stroke="#63b8ff" d="M355.19,-229.32C341.77,-216.58 325.08,-200.74 313.29,-189.54"/>
<polygon fill="#63b8ff" stroke="#63b8ff" points="352.98,-232.05 362.64,-236.39 357.8,-226.97 352.98,-232.05"/>
</a>
</g>
</g>
<!-- Node17&#45;&gt;Node13 -->
<g id="edge32_Node000017_Node000013" class="edge">
<title>Node17&#45;&gt;Node13</title>
<g id="a_edge32_Node000017_Node000013"><a xlink:title=" ">
<path fill="none" stroke="#63b8ff" d="M303.18,-377.32C276.22,-347.19 233.4,-299.33 209.37,-272.47"/>
<polygon fill="#63b8ff" stroke="#63b8ff" points="300.72,-379.82 310,-384.94 305.94,-375.15 300.72,-379.82"/>
</a>
</g>
</g>
<!-- Node17&#45;&gt;Node15 -->
<g id="edge33_Node000017_Node000015" class="edge">
<title>Node17&#45;&gt;Node15</title>
<g id="a_edge33_Node000017_Node000015"><a xlink:title=" ">
<path fill="none" stroke="#63b8ff" d="M346.24,-376.39C352.3,-367.3 358.89,-357.41 364.45,-349.07"/>
<polygon fill="#63b8ff" stroke="#63b8ff" points="343.27,-374.53 340.64,-384.79 349.1,-378.42 343.27,-374.53"/>
</a>
</g>
</g>
<!-- Node18&#45;&gt;Node4 -->
<g id="edge39_Node000018_Node000004" class="edge">
<title>Node18&#45;&gt;Node4</title>
<g id="a_edge39_Node000018_Node000004"><a xlink:title=" ">
<path fill="none" stroke="#63b8ff" d="M933.41,-379.09C947.22,-369.32 962.76,-358.32 975.7,-349.17"/>
<polygon fill="#63b8ff" stroke="#63b8ff" points="931.22,-376.36 925.07,-384.99 935.26,-382.07 931.22,-376.36"/>
</a>
</g>
</g>
<!-- Node18&#45;&gt;Node7 -->
<g id="edge40_Node000018_Node000007" class="edge">
<title>Node18&#45;&gt;Node7</title>
<g id="a_edge40_Node000018_Node000007"><a xlink:title=" ">
<path fill="none" stroke="#63b8ff" d="M891.28,-374.98C884.92,-344.76 875.21,-298.64 869.7,-272.47"/>
<polygon fill="#63b8ff" stroke="#63b8ff" points="887.9,-375.88 893.38,-384.94 894.75,-374.43 887.9,-375.88"/>
</a>
</g>
</g>
<!-- Node19&#45;&gt;Node4 -->
<g id="edge42_Node000019_Node000004" class="edge">
<title>Node19&#45;&gt;Node4</title>
<g id="a_edge42_Node000019_Node000004"><a xlink:title=" ">
<path fill="none" stroke="#63b8ff" d="M960.32,-454.01C967,-445.5 973.7,-435.78 978.5,-426 990.78,-400.99 997.5,-369.27 1000.8,-349.17"/>
<polygon fill="#63b8ff" stroke="#63b8ff" points="957.61,-451.8 953.99,-461.76 963.03,-456.23 957.61,-451.8"/>
</a>
</g>
</g>
<!-- Node19&#45;&gt;Node18 -->
<g id="edge43_Node000019_Node000018" class="edge">
<title>Node19&#45;&gt;Node18</title>
<g id="a_edge43_Node000019_Node000018"><a xlink:title=" ">
<path fill="none" stroke="#63b8ff" d="M920.97,-452.83C916.44,-443.89 911.55,-434.24 907.42,-426.07"/>
<polygon fill="#63b8ff" stroke="#63b8ff" points="917.87,-454.46 925.52,-461.79 924.12,-451.29 917.87,-454.46"/>
</a>
</g>
</g>
</g>
</svg>
