<?xml version="1.0" encoding="UTF-8" standalone="no"?>
<!DOCTYPE svg PUBLIC "-//W3C//DTD SVG 1.1//EN"
 "http://www.w3.org/Graphics/SVG/1.1/DTD/svg11.dtd">
<!-- Generated by graphviz version 2.43.0 (0)
 -->
<!-- Title: /__w/qugar/qugar/cpp/include/qugar/bbox.hpp Pages: 1 -->
<svg width="1515pt" height="500pt"
 viewBox="0.00 0.00 1514.60 500.00" xmlns="http://www.w3.org/2000/svg" xmlns:xlink="http://www.w3.org/1999/xlink">
<g id="graph0" class="graph" transform="scale(1 1) rotate(0) translate(4 496)">
<title>/__w/qugar/qugar/cpp/include/qugar/bbox.hpp</title>
<!-- Node1 -->
<g id="Node000001" class="node">
<title>Node1</title>
<g id="a_Node000001"><a xlink:title="Definition of Cartesian bounding box class.">
<polygon fill="#999999" stroke="#666666" points="755.1,-492 621.1,-492 621.1,-462 755.1,-462 755.1,-492"/>
<text text-anchor="start" x="629.1" y="-480" font-family="Helvetica,sans-Serif" font-size="10.00">/__w/qugar/qugar/cpp</text>
<text text-anchor="middle" x="688.1" y="-469" font-family="Helvetica,sans-Serif" font-size="10.00">/include/qugar/bbox.hpp</text>
</a>
</g>
</g>
<!-- Node2 -->
<g id="Node000002" class="node">
<title>Node2</title>
<g id="a_Node000002"><a xlink:href="../../d0/d6f/demo__quad__sphere_2main_8cpp.html" target="_top" xlink:title=" ">
<polygon fill="white" stroke="#666666" points="1003.1,-118 857.1,-118 857.1,-77 1003.1,-77 1003.1,-118"/>
<text text-anchor="start" x="865.1" y="-106" font-family="Helvetica,sans-Serif" font-size="10.00">/__w/qugar/qugar/cpp</text>
<text text-anchor="start" x="865.1" y="-95" font-family="Helvetica,sans-Serif" font-size="10.00">/demo/demo_quad_sphere</text>
<text text-anchor="middle" x="930.1" y="-84" font-family="Helvetica,sans-Serif" font-size="10.00">/main.cpp</text>
</a>
</g>
</g>
<!-- Node1&#45;&gt;Node2 -->
<g id="edge1_Node000001_Node000002" class="edge">
<title>Node1&#45;&gt;Node2</title>
<g id="a_edge1_Node000001_Node000002"><a xlink:title=" ">
<path fill="none" stroke="#63b8ff" d="M765.2,-474.08C932.73,-467.8 1315.1,-441.24 1315.1,-329.5 1315.1,-329.5 1315.1,-329.5 1315.1,-250.5 1315.1,-206.79 1327.68,-184.22 1296.1,-154 1255.3,-114.95 1098.02,-103.36 1003.42,-99.93"/>
<polygon fill="#63b8ff" stroke="#63b8ff" points="765.07,-470.58 755.2,-474.44 765.32,-477.57 765.07,-470.58"/>
</a>
</g>
</g>
<!-- Node3 -->
<g id="Node000003" class="node">
<title>Node3</title>
<g id="a_Node000003"><a xlink:href="../../d2/d66/demo__reparam__gyroid_2main_8cpp.html" target="_top" xlink:title=" ">
<polygon fill="white" stroke="#666666" points="443.6,-41 282.6,-41 282.6,0 443.6,0 443.6,-41"/>
<text text-anchor="start" x="290.6" y="-29" font-family="Helvetica,sans-Serif" font-size="10.00">/__w/qugar/qugar/cpp</text>
<text text-anchor="start" x="290.6" y="-18" font-family="Helvetica,sans-Serif" font-size="10.00">/demo/demo_reparam_gyroid</text>
<text text-anchor="middle" x="363.1" y="-7" font-family="Helvetica,sans-Serif" font-size="10.00">/main.cpp</text>
</a>
</g>
</g>
<!-- Node1&#45;&gt;Node3 -->
<g id="edge2_Node000001_Node000003" class="edge">
<title>Node1&#45;&gt;Node3</title>
<g id="a_edge2_Node000001_Node000003"><a xlink:title=" ">
<path fill="none" stroke="#63b8ff" d="M610.71,-475.61C431.48,-472.62 3.1,-452.6 3.1,-329.5 3.1,-329.5 3.1,-329.5 3.1,-173.5 3.1,-129.79 -9.31,-107.39 22.1,-77 58.26,-42.02 193.45,-29.05 282.36,-24.27"/>
<polygon fill="#63b8ff" stroke="#63b8ff" points="610.81,-479.11 620.86,-475.77 610.92,-472.11 610.81,-479.11"/>
</a>
</g>
</g>
<!-- Node4 -->
<g id="Node000004" class="node">
<title>Node4</title>
<g id="a_Node000004"><a xlink:href="../../d2/d6e/bezier__tp_8hpp.html" target="_top" xlink:title="Declaration of tensor&#45;product Bezier class.">
<polygon fill="white" stroke="#666666" points="1178.1,-272 1058.1,-272 1058.1,-231 1178.1,-231 1178.1,-272"/>
<text text-anchor="start" x="1066.1" y="-260" font-family="Helvetica,sans-Serif" font-size="10.00">/__w/qugar/qugar/cpp</text>
<text text-anchor="start" x="1066.1" y="-249" font-family="Helvetica,sans-Serif" font-size="10.00">/include/qugar/bezier</text>
<text text-anchor="middle" x="1118.1" y="-238" font-family="Helvetica,sans-Serif" font-size="10.00">_tp.hpp</text>
</a>
</g>
</g>
<!-- Node1&#45;&gt;Node4 -->
<g id="edge3_Node000001_Node000004" class="edge">
<title>Node1&#45;&gt;Node4</title>
<g id="a_edge3_Node000001_Node000004"><a xlink:title=" ">
<path fill="none" stroke="#63b8ff" d="M765.42,-476.64C871.11,-475.88 1053.19,-468.25 1102.1,-426 1146.17,-387.94 1133.01,-309.02 1123.77,-272.2"/>
<polygon fill="#63b8ff" stroke="#63b8ff" points="765.1,-473.14 755.12,-476.69 765.14,-480.14 765.1,-473.14"/>
</a>
</g>
</g>
<!-- Node6 -->
<g id="Node000006" class="node">
<title>Node6</title>
<g id="a_Node000006"><a xlink:href="../../d6/d87/impl__reparam__bezier_8hpp.html" target="_top" xlink:title="Declaration of tools for creating Bezier reparameterizations.">
<polygon fill="white" stroke="#666666" points="402.6,-118 245.6,-118 245.6,-77 402.6,-77 402.6,-118"/>
<text text-anchor="start" x="253.6" y="-106" font-family="Helvetica,sans-Serif" font-size="10.00">/__w/qugar/qugar/cpp</text>
<text text-anchor="start" x="253.6" y="-95" font-family="Helvetica,sans-Serif" font-size="10.00">/include/qugar/impl_reparam</text>
<text text-anchor="middle" x="324.1" y="-84" font-family="Helvetica,sans-Serif" font-size="10.00">_bezier.hpp</text>
</a>
</g>
</g>
<!-- Node1&#45;&gt;Node6 -->
<g id="edge31_Node000001_Node000006" class="edge">
<title>Node1&#45;&gt;Node6</title>
<g id="a_edge31_Node000001_Node000006"><a xlink:title=" ">
<path fill="none" stroke="#63b8ff" d="M610.65,-469.15C540.54,-461.69 443.58,-447.8 412.1,-426 313.79,-357.91 305.92,-310.28 274.1,-195 269.26,-177.43 267.57,-171.01 274.1,-154 279.4,-140.2 289.9,-127.68 299.91,-118.04"/>
<polygon fill="#63b8ff" stroke="#63b8ff" points="610.48,-472.65 620.79,-470.21 611.21,-465.69 610.48,-472.65"/>
</a>
</g>
</g>
<!-- Node8 -->
<g id="Node000008" class="node">
<title>Node8</title>
<g id="a_Node000008"><a xlink:href="../../d6/d49/cart__grid__tp_8hpp.html" target="_top" xlink:title="Definition of Cartesian grid class.">
<polygon fill="white" stroke="#666666" points="636.6,-426 505.6,-426 505.6,-385 636.6,-385 636.6,-426"/>
<text text-anchor="start" x="513.6" y="-414" font-family="Helvetica,sans-Serif" font-size="10.00">/__w/qugar/qugar/cpp</text>
<text text-anchor="start" x="513.6" y="-403" font-family="Helvetica,sans-Serif" font-size="10.00">/include/qugar/cart_grid</text>
<text text-anchor="middle" x="571.1" y="-392" font-family="Helvetica,sans-Serif" font-size="10.00">_tp.hpp</text>
</a>
</g>
</g>
<!-- Node1&#45;&gt;Node8 -->
<g id="edge8_Node000001_Node000008" class="edge">
<title>Node1&#45;&gt;Node8</title>
<g id="a_edge8_Node000001_Node000008"><a xlink:title=" ">
<path fill="none" stroke="#63b8ff" d="M655.41,-456.58C639.38,-447.06 620.12,-435.62 604.06,-426.07"/>
<polygon fill="#63b8ff" stroke="#63b8ff" points="654.04,-459.84 664.43,-461.94 657.62,-453.82 654.04,-459.84"/>
</a>
</g>
</g>
<!-- Node10 -->
<g id="Node000010" class="node">
<title>Node10</title>
<g id="a_Node000010"><a xlink:href="../../d3/d42/impl__reparam__mesh_8hpp.html" target="_top" xlink:title="Declaration of reparameterization class.">
<polygon fill="white" stroke="#666666" points="440.6,-195 283.6,-195 283.6,-154 440.6,-154 440.6,-195"/>
<text text-anchor="start" x="291.6" y="-183" font-family="Helvetica,sans-Serif" font-size="10.00">/__w/qugar/qugar/cpp</text>
<text text-anchor="start" x="291.6" y="-172" font-family="Helvetica,sans-Serif" font-size="10.00">/include/qugar/impl_reparam</text>
<text text-anchor="middle" x="362.1" y="-161" font-family="Helvetica,sans-Serif" font-size="10.00">_mesh.hpp</text>
</a>
</g>
</g>
<!-- Node1&#45;&gt;Node10 -->
<g id="edge33_Node000001_Node000010" class="edge">
<title>Node1&#45;&gt;Node10</title>
<g id="a_edge33_Node000001_Node000010"><a xlink:title=" ">
<path fill="none" stroke="#63b8ff" d="M610.83,-472.45C565.43,-467.16 508.76,-454.72 466.1,-426 396.97,-379.45 384.02,-351.53 359.1,-272 351.09,-246.41 354.26,-215.11 357.77,-195.24"/>
<polygon fill="#63b8ff" stroke="#63b8ff" points="610.61,-475.95 620.93,-473.53 611.36,-468.99 610.61,-475.95"/>
</a>
</g>
</g>
<!-- Node12 -->
<g id="Node000012" class="node">
<title>Node12</title>
<g id="a_Node000012"><a xlink:href="../../d5/da9/impl__reparam__general_8hpp.html" target="_top" xlink:title="Declaration of tools for creating reparameterizations of general functions.">
<polygon fill="white" stroke="#666666" points="188.6,-118 31.6,-118 31.6,-77 188.6,-77 188.6,-118"/>
<text text-anchor="start" x="39.6" y="-106" font-family="Helvetica,sans-Serif" font-size="10.00">/__w/qugar/qugar/cpp</text>
<text text-anchor="start" x="39.6" y="-95" font-family="Helvetica,sans-Serif" font-size="10.00">/include/qugar/impl_reparam</text>
<text text-anchor="middle" x="110.1" y="-84" font-family="Helvetica,sans-Serif" font-size="10.00">_general.hpp</text>
</a>
</g>
</g>
<!-- Node1&#45;&gt;Node12 -->
<g id="edge32_Node000001_Node000012" class="edge">
<title>Node1&#45;&gt;Node12</title>
<g id="a_edge32_Node000001_Node000012"><a xlink:title=" ">
<path fill="none" stroke="#63b8ff" d="M610.77,-471.3C460.59,-460.04 144.1,-424.99 144.1,-329.5 144.1,-329.5 144.1,-329.5 144.1,-250.5 144.1,-202.1 127.48,-147.07 117.48,-118.34"/>
<polygon fill="#63b8ff" stroke="#63b8ff" points="610.62,-474.8 620.85,-472.04 611.14,-467.82 610.62,-474.8"/>
</a>
</g>
</g>
<!-- Node13 -->
<g id="Node000013" class="node">
<title>Node13</title>
<g id="a_Node000013"><a xlink:href="../../d6/d03/impl__unfitted__domain_8hpp.html" target="_top" xlink:title="Declaration of of UnfittedImplDomain class.">
<polygon fill="white" stroke="#666666" points="686.6,-272 533.6,-272 533.6,-231 686.6,-231 686.6,-272"/>
<text text-anchor="start" x="541.6" y="-260" font-family="Helvetica,sans-Serif" font-size="10.00">/__w/qugar/qugar/cpp</text>
<text text-anchor="start" x="541.6" y="-249" font-family="Helvetica,sans-Serif" font-size="10.00">/include/qugar/impl_unfitted</text>
<text text-anchor="middle" x="610.1" y="-238" font-family="Helvetica,sans-Serif" font-size="10.00">_domain.hpp</text>
</a>
</g>
</g>
<!-- Node1&#45;&gt;Node13 -->
<g id="edge34_Node000001_Node000013" class="edge">
<title>Node1&#45;&gt;Node13</title>
<g id="a_edge34_Node000001_Node000013"><a xlink:title=" ">
<path fill="none" stroke="#63b8ff" d="M694.9,-451.93C703.13,-417.77 713.13,-354.24 689.1,-308 681.22,-292.83 667.08,-280.94 652.92,-272.12"/>
<polygon fill="#63b8ff" stroke="#63b8ff" points="691.43,-451.37 692.33,-461.93 698.21,-453.11 691.43,-451.37"/>
</a>
</g>
</g>
<!-- Node14 -->
<g id="Node000014" class="node">
<title>Node14</title>
<g id="a_Node000014"><a xlink:href="../../d8/ddc/reparam__mesh_8hpp.html" target="_top" xlink:title="Declaration of reparameterization class.">
<polygon fill="white" stroke="#666666" points="515.1,-272 385.1,-272 385.1,-231 515.1,-231 515.1,-272"/>
<text text-anchor="start" x="393.1" y="-260" font-family="Helvetica,sans-Serif" font-size="10.00">/__w/qugar/qugar/cpp</text>
<text text-anchor="start" x="393.1" y="-249" font-family="Helvetica,sans-Serif" font-size="10.00">/include/qugar/reparam</text>
<text text-anchor="middle" x="450.1" y="-238" font-family="Helvetica,sans-Serif" font-size="10.00">_mesh.hpp</text>
</a>
</g>
</g>
<!-- Node1&#45;&gt;Node14 -->
<g id="edge42_Node000001_Node000014" class="edge">
<title>Node1&#45;&gt;Node14</title>
<g id="a_edge42_Node000001_Node000014"><a xlink:title=" ">
<path fill="none" stroke="#63b8ff" d="M610.36,-473.68C571.29,-468.51 526.02,-455.78 496.1,-426 453.92,-384.01 449.08,-308.1 449.34,-272.25"/>
<polygon fill="#63b8ff" stroke="#63b8ff" points="610.33,-477.2 620.67,-474.9 611.15,-470.25 610.33,-477.2"/>
</a>
</g>
</g>
<!-- Node17 -->
<g id="Node000017" class="node">
<title>Node17</title>
<g id="a_Node000017"><a xlink:href="../../d6/d82/monomials__tp_8hpp.html" target="_top" xlink:title="Declaration of tensor&#45;product monomials class.">
<polygon fill="white" stroke="#666666" points="1092.6,-349 949.6,-349 949.6,-308 1092.6,-308 1092.6,-349"/>
<text text-anchor="start" x="957.6" y="-337" font-family="Helvetica,sans-Serif" font-size="10.00">/__w/qugar/qugar/cpp</text>
<text text-anchor="start" x="957.6" y="-326" font-family="Helvetica,sans-Serif" font-size="10.00">/include/qugar/monomials</text>
<text text-anchor="middle" x="1021.1" y="-315" font-family="Helvetica,sans-Serif" font-size="10.00">_tp.hpp</text>
</a>
</g>
</g>
<!-- Node1&#45;&gt;Node17 -->
<g id="edge35_Node000001_Node000017" class="edge">
<title>Node1&#45;&gt;Node17</title>
<g id="a_edge35_Node000001_Node000017"><a xlink:title=" ">
<path fill="none" stroke="#63b8ff" d="M729.26,-457.89C792.21,-430.2 911.89,-377.55 976.71,-349.03"/>
<polygon fill="#63b8ff" stroke="#63b8ff" points="727.78,-454.72 720.03,-461.95 730.6,-461.13 727.78,-454.72"/>
</a>
</g>
</g>
<!-- Node18 -->
<g id="Node000018" class="node">
<title>Node18</title>
<g id="a_Node000018"><a xlink:href="../../d2/dee/polynomial__tp_8hpp.html" target="_top" xlink:title="Declaration of tensor&#45;product polynomial class.">
<polygon fill="white" stroke="#666666" points="1092.6,-426 949.6,-426 949.6,-385 1092.6,-385 1092.6,-426"/>
<text text-anchor="start" x="957.6" y="-414" font-family="Helvetica,sans-Serif" font-size="10.00">/__w/qugar/qugar/cpp</text>
<text text-anchor="start" x="957.6" y="-403" font-family="Helvetica,sans-Serif" font-size="10.00">/include/qugar/polynomial</text>
<text text-anchor="middle" x="1021.1" y="-392" font-family="Helvetica,sans-Serif" font-size="10.00">_tp.hpp</text>
</a>
</g>
</g>
<!-- Node1&#45;&gt;Node18 -->
<g id="edge38_Node000001_Node000018" class="edge">
<title>Node1&#45;&gt;Node18</title>
<g id="a_edge38_Node000001_Node000018"><a xlink:title=" ">
<path fill="none" stroke="#63b8ff" d="M765.29,-459.89C820.85,-448.3 895.26,-432.77 949.5,-421.44"/>
<polygon fill="#63b8ff" stroke="#63b8ff" points="764.57,-456.47 755.49,-461.94 766,-463.32 764.57,-456.47"/>
</a>
</g>
</g>
<!-- Node19 -->
<g id="Node000019" class="node">
<title>Node19</title>
<g id="a_Node000019"><a xlink:href="../../d6/dbe/quadrature_8hpp.html" target="_top" xlink:title="Definition of quadrature related functionalities.">
<polygon fill="white" stroke="#666666" points="1506.6,-420.5 1343.6,-420.5 1343.6,-390.5 1506.6,-390.5 1506.6,-420.5"/>
<text text-anchor="start" x="1351.6" y="-408.5" font-family="Helvetica,sans-Serif" font-size="10.00">/__w/qugar/qugar/cpp</text>
<text text-anchor="middle" x="1425.1" y="-397.5" font-family="Helvetica,sans-Serif" font-size="10.00">/include/qugar/quadrature.hpp</text>
</a>
</g>
</g>
<!-- Node1&#45;&gt;Node19 -->
<g id="edge41_Node000001_Node000019" class="edge">
<title>Node1&#45;&gt;Node19</title>
<g id="a_edge41_Node000001_Node000019"><a xlink:title=" ">
<path fill="none" stroke="#63b8ff" d="M765.56,-473.02C886.39,-467.69 1126.9,-454.31 1329.1,-426 1339.71,-424.51 1350.92,-422.58 1361.78,-420.5"/>
<polygon fill="#63b8ff" stroke="#63b8ff" points="765.14,-469.54 755.3,-473.47 765.44,-476.53 765.14,-469.54"/>
</a>
</g>
</g>
<!-- Node5 -->
<g id="Node000005" class="node">
<title>Node5</title>
<g id="a_Node000005"><a xlink:href="../../de/d62/bezier__tp__utils_8hpp.html" target="_top" xlink:title="Declaration of tensor&#45;product Bezier utils.">
<polygon fill="white" stroke="#666666" points="1287.1,-195 1167.1,-195 1167.1,-154 1287.1,-154 1287.1,-195"/>
<text text-anchor="start" x="1175.1" y="-183" font-family="Helvetica,sans-Serif" font-size="10.00">/__w/qugar/qugar/cpp</text>
<text text-anchor="start" x="1175.1" y="-172" font-family="Helvetica,sans-Serif" font-size="10.00">/include/qugar/bezier</text>
<text text-anchor="middle" x="1227.1" y="-161" font-family="Helvetica,sans-Serif" font-size="10.00">_tp_utils.hpp</text>
</a>
</g>
</g>
<!-- Node4&#45;&gt;Node5 -->
<g id="edge4_Node000004_Node000005" class="edge">
<title>Node4&#45;&gt;Node5</title>
<g id="a_edge4_Node000004_Node000005"><a xlink:title=" ">
<path fill="none" stroke="#63b8ff" d="M1155.03,-225.09C1169.23,-215.32 1185.21,-204.32 1198.51,-195.17"/>
<polygon fill="#63b8ff" stroke="#63b8ff" points="1152.71,-222.44 1146.46,-230.99 1156.68,-228.21 1152.71,-222.44"/>
</a>
</g>
</g>
<!-- Node4&#45;&gt;Node6 -->
<g id="edge5_Node000004_Node000006" class="edge">
<title>Node4&#45;&gt;Node6</title>
<g id="a_edge5_Node000004_Node000006"><a xlink:title=" ">
<path fill="none" stroke="#63b8ff" d="M1067.55,-226.61C1012.19,-200.86 926.68,-162.43 892.1,-154 684.26,-103.31 623.75,-149.22 412.1,-118 409.01,-117.54 405.86,-117.04 402.68,-116.5"/>
<polygon fill="#63b8ff" stroke="#63b8ff" points="1066.3,-229.89 1076.84,-230.94 1069.25,-223.54 1066.3,-229.89"/>
</a>
</g>
</g>
<!-- Node7 -->
<g id="Node000007" class="node">
<title>Node7</title>
<g id="a_Node000007"><a xlink:href="../../d7/d6f/primitive__funcs__lib_8hpp.html" target="_top" xlink:title="Declaration of a primitive implicit functions ready to be consumed by Algoim.">
<polygon fill="white" stroke="#666666" points="1148.6,-195 1015.6,-195 1015.6,-154 1148.6,-154 1148.6,-195"/>
<text text-anchor="start" x="1023.6" y="-183" font-family="Helvetica,sans-Serif" font-size="10.00">/__w/qugar/qugar/cpp</text>
<text text-anchor="start" x="1023.6" y="-172" font-family="Helvetica,sans-Serif" font-size="10.00">/include/qugar/primitive</text>
<text text-anchor="middle" x="1082.1" y="-161" font-family="Helvetica,sans-Serif" font-size="10.00">_funcs_lib.hpp</text>
</a>
</g>
</g>
<!-- Node4&#45;&gt;Node7 -->
<g id="edge6_Node000004_Node000007" class="edge">
<title>Node4&#45;&gt;Node7</title>
<g id="a_edge6_Node000004_Node000007"><a xlink:title=" ">
<path fill="none" stroke="#63b8ff" d="M1104.21,-221.55C1099.95,-212.69 1095.38,-203.15 1091.5,-195.07"/>
<polygon fill="#63b8ff" stroke="#63b8ff" points="1101.16,-223.29 1108.65,-230.79 1107.47,-220.26 1101.16,-223.29"/>
</a>
</g>
</g>
<!-- Node7&#45;&gt;Node2 -->
<g id="edge7_Node000007_Node000002" class="edge">
<title>Node7&#45;&gt;Node2</title>
<g id="a_edge7_Node000007_Node000002"><a xlink:title=" ">
<path fill="none" stroke="#63b8ff" d="M1033.36,-149.45C1012.8,-139.3 989.17,-127.64 969.71,-118.04"/>
<polygon fill="#63b8ff" stroke="#63b8ff" points="1032.05,-152.7 1042.56,-153.99 1035.15,-146.43 1032.05,-152.7"/>
</a>
</g>
</g>
<!-- Node8&#45;&gt;Node2 -->
<g id="edge9_Node000008_Node000002" class="edge">
<title>Node8&#45;&gt;Node2</title>
<g id="a_edge9_Node000008_Node000002"><a xlink:title=" ">
<path fill="none" stroke="#63b8ff" d="M646.91,-401.26C733.29,-393.02 870.88,-365.06 936.1,-272 968.88,-225.23 949.85,-152.63 937.74,-118.07"/>
<polygon fill="#63b8ff" stroke="#63b8ff" points="646.55,-397.77 636.9,-402.15 647.17,-404.75 646.55,-397.77"/>
</a>
</g>
</g>
<!-- Node8&#45;&gt;Node3 -->
<g id="edge10_Node000008_Node000003" class="edge">
<title>Node8&#45;&gt;Node3</title>
<g id="a_edge10_Node000008_Node000003"><a xlink:title=" ">
<path fill="none" stroke="#63b8ff" d="M495.87,-386.47C468.4,-377.78 438,-365.57 413.1,-349 336.35,-297.92 325.89,-271.29 274.1,-195 243.16,-149.41 205.94,-123.1 236.1,-77 247.04,-60.29 264.23,-48.58 282.48,-40.38"/>
<polygon fill="#63b8ff" stroke="#63b8ff" points="494.86,-389.82 505.44,-389.39 496.9,-383.13 494.86,-389.82"/>
</a>
</g>
</g>
<!-- Node9 -->
<g id="Node000009" class="node">
<title>Node9</title>
<g id="a_Node000009"><a xlink:href="../../d6/dc8/impl__quadrature_8hpp.html" target="_top" xlink:title="Declaration of quadratures for general implicit functions on grids.">
<polygon fill="white" stroke="#666666" points="883.1,-189.5 693.1,-189.5 693.1,-159.5 883.1,-159.5 883.1,-189.5"/>
<text text-anchor="start" x="701.1" y="-177.5" font-family="Helvetica,sans-Serif" font-size="10.00">/__w/qugar/qugar/cpp</text>
<text text-anchor="middle" x="788.1" y="-166.5" font-family="Helvetica,sans-Serif" font-size="10.00">/include/qugar/impl_quadrature.hpp</text>
</a>
</g>
</g>
<!-- Node8&#45;&gt;Node9 -->
<g id="edge11_Node000008_Node000009" class="edge">
<title>Node8&#45;&gt;Node9</title>
<g id="a_edge11_Node000008_Node000009"><a xlink:title=" ">
<path fill="none" stroke="#63b8ff" d="M644.18,-380.75C660.58,-372.72 676.76,-362.31 689.1,-349 727.27,-307.85 703.91,-278.31 734.1,-231 744.23,-215.13 759.43,-200.02 771.13,-189.59"/>
<polygon fill="#63b8ff" stroke="#63b8ff" points="642.67,-377.59 635.06,-384.97 645.61,-383.94 642.67,-377.59"/>
</a>
</g>
</g>
<!-- Node8&#45;&gt;Node10 -->
<g id="edge13_Node000008_Node000010" class="edge">
<title>Node8&#45;&gt;Node10</title>
<g id="a_edge13_Node000008_Node000010"><a xlink:title=" ">
<path fill="none" stroke="#63b8ff" d="M526.37,-379.82C474.75,-350.4 394.59,-301.54 376.1,-272 361.47,-248.61 359.8,-215.88 360.51,-195.19"/>
<polygon fill="#63b8ff" stroke="#63b8ff" points="524.91,-383.01 535.34,-384.9 528.36,-376.92 524.91,-383.01"/>
</a>
</g>
</g>
<!-- Node8&#45;&gt;Node13 -->
<g id="edge18_Node000008_Node000013" class="edge">
<title>Node8&#45;&gt;Node13</title>
<g id="a_edge18_Node000008_Node000013"><a xlink:title=" ">
<path fill="none" stroke="#63b8ff" d="M553.31,-375.91C543.46,-356.22 535.05,-329.8 545.1,-308 551.81,-293.45 564.43,-281.3 576.78,-272.11"/>
<polygon fill="#63b8ff" stroke="#63b8ff" points="550.37,-377.83 558.19,-384.98 556.53,-374.51 550.37,-377.83"/>
</a>
</g>
</g>
<!-- Node8&#45;&gt;Node14 -->
<g id="edge23_Node000008_Node000014" class="edge">
<title>Node8&#45;&gt;Node14</title>
<g id="a_edge23_Node000008_Node000014"><a xlink:title=" ">
<path fill="none" stroke="#63b8ff" d="M549.16,-376.93C525.16,-346.78 487.29,-299.21 466,-272.47"/>
<polygon fill="#63b8ff" stroke="#63b8ff" points="546.57,-379.3 555.53,-384.94 552.04,-374.94 546.57,-379.3"/>
</a>
</g>
</g>
<!-- Node15 -->
<g id="Node000015" class="node">
<title>Node15</title>
<g id="a_Node000015"><a xlink:href="../../d2/dfd/unfitted__domain_8hpp.html" target="_top" xlink:title="Declaration of of UnfittedDomain class.">
<polygon fill="white" stroke="#666666" points="680.1,-349 554.1,-349 554.1,-308 680.1,-308 680.1,-349"/>
<text text-anchor="start" x="562.1" y="-337" font-family="Helvetica,sans-Serif" font-size="10.00">/__w/qugar/qugar/cpp</text>
<text text-anchor="start" x="562.1" y="-326" font-family="Helvetica,sans-Serif" font-size="10.00">/include/qugar/unfitted</text>
<text text-anchor="middle" x="617.1" y="-315" font-family="Helvetica,sans-Serif" font-size="10.00">_domain.hpp</text>
</a>
</g>
</g>
<!-- Node8&#45;&gt;Node15 -->
<g id="edge25_Node000008_Node000015" class="edge">
<title>Node8&#45;&gt;Node15</title>
<g id="a_edge25_Node000008_Node000015"><a xlink:title=" ">
<path fill="none" stroke="#63b8ff" d="M588.52,-376.11C594.05,-367.09 600.04,-357.33 605.1,-349.07"/>
<polygon fill="#63b8ff" stroke="#63b8ff" points="585.43,-374.44 583.19,-384.79 591.4,-378.1 585.43,-374.44"/>
</a>
</g>
</g>
<!-- Node9&#45;&gt;Node2 -->
<g id="edge12_Node000009_Node000002" class="edge">
<title>Node9&#45;&gt;Node2</title>
<g id="a_edge12_Node000009_Node000002"><a xlink:title=" ">
<path fill="none" stroke="#63b8ff" d="M823.8,-154.65C844.94,-143.48 871.69,-129.35 893.07,-118.06"/>
<polygon fill="#63b8ff" stroke="#63b8ff" points="822.02,-151.63 814.81,-159.39 825.29,-157.82 822.02,-151.63"/>
</a>
</g>
</g>
<!-- Node10&#45;&gt;Node6 -->
<g id="edge16_Node000010_Node000006" class="edge">
<title>Node10&#45;&gt;Node6</title>
<g id="a_edge16_Node000010_Node000006"><a xlink:title=" ">
<path fill="none" stroke="#63b8ff" d="M347.58,-144.83C343.05,-135.89 338.16,-126.24 334.02,-118.07"/>
<polygon fill="#63b8ff" stroke="#63b8ff" points="344.48,-146.46 352.12,-153.79 350.72,-143.29 344.48,-146.46"/>
</a>
</g>
</g>
<!-- Node11 -->
<g id="Node000011" class="node">
<title>Node11</title>
<g id="a_Node000011"><a xlink:href="../../d0/d4c/impl__reparam_8hpp.html" target="_top" xlink:title="Declaration of reparameterization generization tools implicit functions on grids.">
<polygon fill="white" stroke="#666666" points="599.1,-112.5 421.1,-112.5 421.1,-82.5 599.1,-82.5 599.1,-112.5"/>
<text text-anchor="start" x="429.1" y="-100.5" font-family="Helvetica,sans-Serif" font-size="10.00">/__w/qugar/qugar/cpp</text>
<text text-anchor="middle" x="510.1" y="-89.5" font-family="Helvetica,sans-Serif" font-size="10.00">/include/qugar/impl_reparam.hpp</text>
</a>
</g>
</g>
<!-- Node10&#45;&gt;Node11 -->
<g id="edge14_Node000010_Node000011" class="edge">
<title>Node10&#45;&gt;Node11</title>
<g id="a_edge14_Node000010_Node000011"><a xlink:title=" ">
<path fill="none" stroke="#63b8ff" d="M409.54,-149.46C433.46,-137.34 461.64,-123.06 482.08,-112.7"/>
<polygon fill="#63b8ff" stroke="#63b8ff" points="407.94,-146.35 400.6,-153.99 411.11,-152.59 407.94,-146.35"/>
</a>
</g>
</g>
<!-- Node10&#45;&gt;Node12 -->
<g id="edge17_Node000010_Node000012" class="edge">
<title>Node10&#45;&gt;Node12</title>
<g id="a_edge17_Node000010_Node000012"><a xlink:title=" ">
<path fill="none" stroke="#63b8ff" d="M286.77,-151.08C251.46,-140.57 209.77,-128.16 175.77,-118.04"/>
<polygon fill="#63b8ff" stroke="#63b8ff" points="285.97,-154.49 296.55,-153.99 287.97,-147.78 285.97,-154.49"/>
</a>
</g>
</g>
<!-- Node11&#45;&gt;Node3 -->
<g id="edge15_Node000011_Node000003" class="edge">
<title>Node11&#45;&gt;Node3</title>
<g id="a_edge15_Node000011_Node000003"><a xlink:title=" ">
<path fill="none" stroke="#63b8ff" d="M473.45,-77.8C451.51,-66.61 423.67,-52.4 401.45,-41.06"/>
<polygon fill="#63b8ff" stroke="#63b8ff" points="471.96,-80.97 482.45,-82.39 475.14,-74.73 471.96,-80.97"/>
</a>
</g>
</g>
<!-- Node13&#45;&gt;Node2 -->
<g id="edge19_Node000013_Node000002" class="edge">
<title>Node13&#45;&gt;Node2</title>
<g id="a_edge19_Node000013_Node000002"><a xlink:title=" ">
<path fill="none" stroke="#63b8ff" d="M624.71,-222.01C637.44,-200.06 657.96,-170.73 684.1,-154 736.01,-120.79 805.2,-107.32 856.98,-101.92"/>
<polygon fill="#63b8ff" stroke="#63b8ff" points="621.56,-220.47 619.73,-230.91 627.67,-223.89 621.56,-220.47"/>
</a>
</g>
</g>
<!-- Node13&#45;&gt;Node3 -->
<g id="edge20_Node000013_Node000003" class="edge">
<title>Node13&#45;&gt;Node3</title>
<g id="a_edge20_Node000013_Node000003"><a xlink:title=" ">
<path fill="none" stroke="#63b8ff" d="M619.82,-220.83C630.18,-183.02 640.99,-117.69 608.1,-77 587.54,-51.56 506.96,-36.88 443.76,-29.08"/>
<polygon fill="#63b8ff" stroke="#63b8ff" points="616.38,-220.15 616.95,-230.73 623.1,-222.1 616.38,-220.15"/>
</a>
</g>
</g>
<!-- Node13&#45;&gt;Node9 -->
<g id="edge21_Node000013_Node000009" class="edge">
<title>Node13&#45;&gt;Node9</title>
<g id="a_edge21_Node000013_Node000009"><a xlink:title=" ">
<path fill="none" stroke="#63b8ff" d="M665.67,-227.09C694.85,-214.79 729.66,-200.13 754.68,-189.58"/>
<polygon fill="#63b8ff" stroke="#63b8ff" points="664.26,-223.88 656.41,-230.99 666.98,-230.33 664.26,-223.88"/>
</a>
</g>
</g>
<!-- Node13&#45;&gt;Node11 -->
<g id="edge22_Node000013_Node000011" class="edge">
<title>Node13&#45;&gt;Node11</title>
<g id="a_edge22_Node000013_Node000011"><a xlink:title=" ">
<path fill="none" stroke="#63b8ff" d="M591.56,-222.32C570.14,-189.76 535.74,-137.47 519.36,-112.57"/>
<polygon fill="#63b8ff" stroke="#63b8ff" points="588.82,-224.51 597.24,-230.94 594.66,-220.66 588.82,-224.51"/>
</a>
</g>
</g>
<!-- Node14&#45;&gt;Node10 -->
<g id="edge24_Node000014_Node000010" class="edge">
<title>Node14&#45;&gt;Node10</title>
<g id="a_edge24_Node000014_Node000010"><a xlink:title=" ">
<path fill="none" stroke="#63b8ff" d="M419.09,-224.07C407.89,-214.52 395.46,-203.93 385.07,-195.07"/>
<polygon fill="#63b8ff" stroke="#63b8ff" points="417.1,-226.97 426.98,-230.79 421.64,-221.64 417.1,-226.97"/>
</a>
</g>
</g>
<!-- Node15&#45;&gt;Node13 -->
<g id="edge29_Node000015_Node000013" class="edge">
<title>Node15&#45;&gt;Node13</title>
<g id="a_edge29_Node000015_Node000013"><a xlink:title=" ">
<path fill="none" stroke="#63b8ff" d="M614.32,-297.69C613.52,-289.08 612.66,-279.9 611.93,-272.07"/>
<polygon fill="#63b8ff" stroke="#63b8ff" points="610.85,-298.16 615.26,-307.79 617.82,-297.51 610.85,-298.16"/>
</a>
</g>
</g>
<!-- Node15&#45;&gt;Node14 -->
<g id="edge30_Node000015_Node000014" class="edge">
<title>Node15&#45;&gt;Node14</title>
<g id="a_edge30_Node000015_Node000014"><a xlink:title=" ">
<path fill="none" stroke="#63b8ff" d="M564.46,-303.86C541.66,-293.62 515.29,-281.77 493.62,-272.04"/>
<polygon fill="#63b8ff" stroke="#63b8ff" points="563.11,-307.09 573.66,-307.99 565.97,-300.7 563.11,-307.09"/>
</a>
</g>
</g>
<!-- Node16 -->
<g id="Node000016" class="node">
<title>Node16</title>
<g id="a_Node000016"><a xlink:href="../../d1/daf/cut__quadrature_8hpp.html" target="_top" xlink:title="Definition of cut quadrature for unfitted domains.">
<polygon fill="white" stroke="#666666" points="926.6,-266.5 743.6,-266.5 743.6,-236.5 926.6,-236.5 926.6,-266.5"/>
<text text-anchor="start" x="751.6" y="-254.5" font-family="Helvetica,sans-Serif" font-size="10.00">/__w/qugar/qugar/cpp</text>
<text text-anchor="middle" x="835.1" y="-243.5" font-family="Helvetica,sans-Serif" font-size="10.00">/include/qugar/cut_quadrature.hpp</text>
</a>
</g>
</g>
<!-- Node15&#45;&gt;Node16 -->
<g id="edge26_Node000015_Node000016" class="edge">
<title>Node15&#45;&gt;Node16</title>
<g id="a_edge26_Node000015_Node000016"><a xlink:title=" ">
<path fill="none" stroke="#63b8ff" d="M683.3,-304.73C719.42,-292.3 762.99,-277.31 794.17,-266.58"/>
<polygon fill="#63b8ff" stroke="#63b8ff" points="682.13,-301.43 673.81,-307.99 684.41,-308.05 682.13,-301.43"/>
</a>
</g>
</g>
<!-- Node16&#45;&gt;Node2 -->
<g id="edge27_Node000016_Node000002" class="edge">
<title>Node16&#45;&gt;Node2</title>
<g id="a_edge27_Node000016_Node000002"><a xlink:title=" ">
<path fill="none" stroke="#63b8ff" d="M860.83,-229.76C871.59,-220.08 883.55,-207.86 892.1,-195 908.26,-170.71 919.18,-138.52 925.03,-118.15"/>
<polygon fill="#63b8ff" stroke="#63b8ff" points="858.52,-227.13 853.28,-236.34 863.12,-232.41 858.52,-227.13"/>
</a>
</g>
</g>
<!-- Node16&#45;&gt;Node9 -->
<g id="edge28_Node000016_Node000009" class="edge">
<title>Node16&#45;&gt;Node9</title>
<g id="a_edge28_Node000016_Node000009"><a xlink:title=" ">
<path fill="none" stroke="#63b8ff" d="M820.93,-227.88C813.11,-215.41 803.66,-200.32 796.9,-189.54"/>
<polygon fill="#63b8ff" stroke="#63b8ff" points="817.99,-229.78 826.26,-236.39 823.92,-226.06 817.99,-229.78"/>
</a>
</g>
</g>
<!-- Node17&#45;&gt;Node4 -->
<g id="edge36_Node000017_Node000004" class="edge">
<title>Node17&#45;&gt;Node4</title>
<g id="a_edge36_Node000017_Node000004"><a xlink:title=" ">
<path fill="none" stroke="#63b8ff" d="M1054.32,-301.82C1066.87,-292.11 1080.94,-281.24 1092.66,-272.17"/>
<polygon fill="#63b8ff" stroke="#63b8ff" points="1052.11,-299.1 1046.34,-307.99 1056.39,-304.64 1052.11,-299.1"/>
</a>
</g>
</g>
<!-- Node17&#45;&gt;Node7 -->
<g id="edge37_Node000017_Node000007" class="edge">
<title>Node17&#45;&gt;Node7</title>
<g id="a_edge37_Node000017_Node000007"><a xlink:title=" ">
<path fill="none" stroke="#63b8ff" d="M1027.61,-297.95C1032.39,-278.5 1039.69,-252.7 1049.1,-231 1054.5,-218.56 1062.17,-205.48 1068.76,-195.14"/>
<polygon fill="#63b8ff" stroke="#63b8ff" points="1024.18,-297.23 1025.28,-307.77 1030.99,-298.85 1024.18,-297.23"/>
</a>
</g>
</g>
<!-- Node18&#45;&gt;Node4 -->
<g id="edge39_Node000018_Node000004" class="edge">
<title>Node18&#45;&gt;Node4</title>
<g id="a_edge39_Node000018_Node000004"><a xlink:title=" ">
<path fill="none" stroke="#63b8ff" d="M1071.38,-379.27C1083.13,-371.13 1094.44,-361.03 1102.1,-349 1116.98,-325.65 1119.4,-292.92 1119.19,-272.21"/>
<polygon fill="#63b8ff" stroke="#63b8ff" points="1069.27,-376.47 1062.79,-384.85 1073.08,-382.34 1069.27,-376.47"/>
</a>
</g>
</g>
<!-- Node18&#45;&gt;Node17 -->
<g id="edge40_Node000018_Node000017" class="edge">
<title>Node18&#45;&gt;Node17</title>
<g id="a_edge40_Node000018_Node000017"><a xlink:title=" ">
<path fill="none" stroke="#63b8ff" d="M1021.1,-374.69C1021.1,-366.08 1021.1,-356.9 1021.1,-349.07"/>
<polygon fill="#63b8ff" stroke="#63b8ff" points="1017.6,-374.79 1021.1,-384.79 1024.6,-374.79 1017.6,-374.79"/>
</a>
</g>
</g>
</g>
</svg>
