<?xml version="1.0" encoding="UTF-8" standalone="no"?>
<!DOCTYPE svg PUBLIC "-//W3C//DTD SVG 1.1//EN"
 "http://www.w3.org/Graphics/SVG/1.1/DTD/svg11.dtd">
<!-- Generated by graphviz version 2.43.0 (0)
 -->
<!-- Title: Graphical Class Hierarchy Pages: 1 -->
<svg width="212pt" height="86pt"
 viewBox="0.00 0.00 212.00 86.00" xmlns="http://www.w3.org/2000/svg" xmlns:xlink="http://www.w3.org/1999/xlink">
<g id="graph0" class="graph" transform="scale(1 1) rotate(0) translate(4 82)">
<title>Graphical Class Hierarchy</title>
<!-- Node0 -->
<g id="Node000000" class="node">
<title>Node0</title>
<g id="a_Node000000"><a xlink:title=" ">
<polygon fill="#e0e0e0" stroke="#999999" points="47,-48.5 0,-48.5 0,-29.5 47,-29.5 47,-48.5"/>
<text text-anchor="middle" x="23.5" y="-36.5" font-family="Helvetica,sans-Serif" font-size="10.00">Vector</text>
</a>
</g>
</g>
<!-- Node1 -->
<g id="Node000001" class="node">
<title>Node1</title>
<g id="a_Node000001"><a xlink:href="de/d1b/classqugar_1_1TensorIndexTP.html" target="_top" xlink:title="Class representing a dim&#45;dimensional tensor&#45;product indices.">
<polygon fill="white" stroke="#666666" points="204,-78 83,-78 83,-48 204,-48 204,-78"/>
<text text-anchor="start" x="91" y="-66" font-family="Helvetica,sans-Serif" font-size="10.00">qugar::TensorIndexTP</text>
<text text-anchor="middle" x="143.5" y="-55" font-family="Helvetica,sans-Serif" font-size="10.00">&lt; dim &gt;</text>
</a>
</g>
</g>
<!-- Node0&#45;&gt;Node1 -->
<g id="edge47_Node000000_Node000001" class="edge">
<title>Node0&#45;&gt;Node1</title>
<g id="a_edge47_Node000000_Node000001"><a xlink:title=" ">
<path fill="none" stroke="#63b8ff" d="M57.15,-45.64C65.07,-47.25 73.8,-49.03 82.55,-50.81"/>
<polygon fill="#63b8ff" stroke="#63b8ff" points="57.75,-42.19 47.25,-43.63 56.35,-49.05 57.75,-42.19"/>
</a>
</g>
</g>
<!-- Node2 -->
<g id="Node000002" class="node">
<title>Node2</title>
<g id="a_Node000002"><a xlink:href="d3/d39/classqugar_1_1TensorSizeTP.html" target="_top" xlink:title="Class representing a dim&#45;dimensional tensor&#45;product sizes container.">
<polygon fill="white" stroke="#666666" points="200.5,-30 86.5,-30 86.5,0 200.5,0 200.5,-30"/>
<text text-anchor="start" x="94.5" y="-18" font-family="Helvetica,sans-Serif" font-size="10.00">qugar::TensorSizeTP</text>
<text text-anchor="middle" x="143.5" y="-7" font-family="Helvetica,sans-Serif" font-size="10.00">&lt; dim &gt;</text>
</a>
</g>
</g>
<!-- Node0&#45;&gt;Node2 -->
<g id="edge48_Node000000_Node000002" class="edge">
<title>Node0&#45;&gt;Node2</title>
<g id="a_edge48_Node000000_Node000002"><a xlink:title=" ">
<path fill="none" stroke="#63b8ff" d="M57.23,-32.34C66.18,-30.52 76.15,-28.49 86.03,-26.49"/>
<polygon fill="#63b8ff" stroke="#63b8ff" points="56.35,-28.95 47.25,-34.37 57.75,-35.81 56.35,-28.95"/>
</a>
</g>
</g>
</g>
</svg>
