<?xml version="1.0" encoding="UTF-8" standalone="no"?>
<!DOCTYPE svg PUBLIC "-//W3C//DTD SVG 1.1//EN"
 "http://www.w3.org/Graphics/SVG/1.1/DTD/svg11.dtd">
<!-- Generated by graphviz version 2.43.0 (0)
 -->
<!-- Title: /__w/qugar/qugar/cpp/include/qugar/tpms_lib.hpp Pages: 1 -->
<svg width="559pt" height="258pt"
 viewBox="0.00 0.00 558.51 258.00" xmlns="http://www.w3.org/2000/svg" xmlns:xlink="http://www.w3.org/1999/xlink">
<g id="graph0" class="graph" transform="scale(1 1) rotate(0) translate(4 254)">
<title>/__w/qugar/qugar/cpp/include/qugar/tpms_lib.hpp</title>
<!-- Node1 -->
<g id="Node000001" class="node">
<title>Node1</title>
<g id="a_Node000001"><a xlink:title="Declaration of TPMS functions to be consumed by Algoim.">
<polygon fill="#999999" stroke="#666666" points="362.51,-250 210.51,-250 210.51,-220 362.51,-220 362.51,-250"/>
<text text-anchor="start" x="218.51" y="-238" font-family="Helvetica,sans-Serif" font-size="10.00">/__w/qugar/qugar/cpp</text>
<text text-anchor="middle" x="286.51" y="-227" font-family="Helvetica,sans-Serif" font-size="10.00">/include/qugar/tpms_lib.hpp</text>
</a>
</g>
</g>
<!-- Node2 -->
<g id="Node000002" class="node">
<title>Node2</title>
<g id="a_Node000002"><a xlink:href="../../dc/d7c/domain__function_8hpp.html" target="_top" xlink:title="Declaration of a few implicit functions template class ready to be consumed by Algoim.">
<polygon fill="white" stroke="#666666" points="361.51,-184 211.51,-184 211.51,-165 361.51,-165 361.51,-184"/>
<text text-anchor="middle" x="286.51" y="-172" font-family="Helvetica,sans-Serif" font-size="10.00">qugar/domain_function.hpp</text>
</a>
</g>
</g>
<!-- Node1&#45;&gt;Node2 -->
<g id="edge1_Node000001_Node000002" class="edge">
<title>Node1&#45;&gt;Node2</title>
<g id="a_edge1_Node000001_Node000002"><a xlink:title=" ">
<path fill="none" stroke="#63b8ff" d="M286.51,-219.84C286.51,-212.21 286.51,-202.7 286.51,-194.45"/>
<polygon fill="#63b8ff" stroke="#63b8ff" points="290.01,-194.27 286.51,-184.27 283.01,-194.27 290.01,-194.27"/>
</a>
</g>
</g>
<!-- Node3 -->
<g id="Node000003" class="node">
<title>Node3</title>
<g id="a_Node000003"><a xlink:href="../../dd/de3/types_8hpp.html" target="_top" xlink:title="Declaration of types.">
<polygon fill="white" stroke="#666666" points="324.01,-74 229.01,-74 229.01,-55 324.01,-55 324.01,-74"/>
<text text-anchor="middle" x="276.51" y="-62" font-family="Helvetica,sans-Serif" font-size="10.00">qugar/types.hpp</text>
</a>
</g>
</g>
<!-- Node1&#45;&gt;Node3 -->
<g id="edge15_Node000001_Node000003" class="edge">
<title>Node1&#45;&gt;Node3</title>
<g id="a_edge15_Node000001_Node000003"><a xlink:title=" ">
<path fill="none" stroke="#63b8ff" d="M210.11,-226.3C109.93,-213.26 -46.46,-180.97 13.51,-110 39.24,-79.55 149.31,-69.93 218.65,-66.9"/>
<polygon fill="#63b8ff" stroke="#63b8ff" points="219.14,-70.38 228.99,-66.48 218.85,-63.38 219.14,-70.38"/>
</a>
</g>
</g>
<!-- Node6 -->
<g id="Node000006" class="node">
<title>Node6</title>
<g id="a_Node000006"><a xlink:href="../../da/d16/vector_8hpp.html" target="_top" xlink:title=" ">
<polygon fill="white" stroke="#666666" points="544.51,-74 446.51,-74 446.51,-55 544.51,-55 544.51,-74"/>
<text text-anchor="middle" x="495.51" y="-62" font-family="Helvetica,sans-Serif" font-size="10.00">qugar/vector.hpp</text>
</a>
</g>
</g>
<!-- Node1&#45;&gt;Node6 -->
<g id="edge14_Node000001_Node000006" class="edge">
<title>Node1&#45;&gt;Node6</title>
<g id="a_edge14_Node000001_Node000006"><a xlink:title=" ">
<path fill="none" stroke="#63b8ff" d="M329.2,-219.89C371.12,-203.99 434.19,-174.29 472.51,-129 483.28,-116.27 489.18,-98.09 492.3,-84.45"/>
<polygon fill="#63b8ff" stroke="#63b8ff" points="495.81,-84.76 494.31,-74.27 488.94,-83.4 495.81,-84.76"/>
</a>
</g>
</g>
<!-- Node2&#45;&gt;Node3 -->
<g id="edge2_Node000002_Node000003" class="edge">
<title>Node2&#45;&gt;Node3</title>
<g id="a_edge2_Node000002_Node000003"><a xlink:title=" ">
<path fill="none" stroke="#63b8ff" d="M290.72,-164.83C296.11,-152.56 304.25,-129.46 299.51,-110 297.21,-100.51 292.5,-90.78 287.93,-82.85"/>
<polygon fill="#63b8ff" stroke="#63b8ff" points="290.84,-80.89 282.62,-74.2 284.88,-84.55 290.84,-80.89"/>
</a>
</g>
</g>
<!-- Node5 -->
<g id="Node000005" class="node">
<title>Node5</title>
<g id="a_Node000005"><a xlink:href="../../d0/de4/point_8hpp.html" target="_top" xlink:title="Definition and implementation of Point class.">
<polygon fill="white" stroke="#666666" points="440.01,-129 347.01,-129 347.01,-110 440.01,-110 440.01,-129"/>
<text text-anchor="middle" x="393.51" y="-117" font-family="Helvetica,sans-Serif" font-size="10.00">qugar/point.hpp</text>
</a>
</g>
</g>
<!-- Node2&#45;&gt;Node5 -->
<g id="edge4_Node000002_Node000005" class="edge">
<title>Node2&#45;&gt;Node5</title>
<g id="a_edge4_Node000002_Node000005"><a xlink:title=" ">
<path fill="none" stroke="#63b8ff" d="M303.71,-164.98C320.76,-156.54 347.15,-143.47 366.91,-133.68"/>
<polygon fill="#63b8ff" stroke="#63b8ff" points="368.6,-136.75 376.01,-129.17 365.5,-130.47 368.6,-136.75"/>
</a>
</g>
</g>
<!-- Node2&#45;&gt;Node6 -->
<g id="edge10_Node000002_Node000006" class="edge">
<title>Node2&#45;&gt;Node6</title>
<g id="a_edge10_Node000002_Node000006"><a xlink:title=" ">
<path fill="none" stroke="#63b8ff" d="M357.16,-164.93C387.61,-158.64 422.37,-147.77 449.51,-129 466.25,-117.42 479.13,-97.71 486.94,-83.31"/>
<polygon fill="#63b8ff" stroke="#63b8ff" points="490.09,-84.86 491.53,-74.36 483.86,-81.66 490.09,-84.86"/>
</a>
</g>
</g>
<!-- Node9 -->
<g id="Node000009" class="node">
<title>Node9</title>
<g id="a_Node000009"><a xlink:title=" ">
<polygon fill="#e0e0e0" stroke="#999999" points="134.51,-129 22.51,-129 22.51,-110 134.51,-110 134.51,-129"/>
<text text-anchor="middle" x="78.51" y="-117" font-family="Helvetica,sans-Serif" font-size="10.00">algoim/interval.hpp</text>
</a>
</g>
</g>
<!-- Node2&#45;&gt;Node9 -->
<g id="edge11_Node000002_Node000009" class="edge">
<title>Node2&#45;&gt;Node9</title>
<g id="a_edge11_Node000002_Node000009"><a xlink:title=" ">
<path fill="none" stroke="#63b8ff" d="M253.1,-164.98C217.57,-155.93 161.24,-141.58 122.22,-131.64"/>
<polygon fill="#63b8ff" stroke="#63b8ff" points="122.75,-128.16 112.2,-129.08 121.02,-134.94 122.75,-128.16"/>
</a>
</g>
</g>
<!-- Node10 -->
<g id="Node000010" class="node">
<title>Node10</title>
<g id="a_Node000010"><a xlink:title=" ">
<polygon fill="#e0e0e0" stroke="#999999" points="202.51,-129 152.51,-129 152.51,-110 202.51,-110 202.51,-129"/>
<text text-anchor="middle" x="177.51" y="-117" font-family="Helvetica,sans-Serif" font-size="10.00">cstdint</text>
</a>
</g>
</g>
<!-- Node2&#45;&gt;Node10 -->
<g id="edge12_Node000002_Node000010" class="edge">
<title>Node2&#45;&gt;Node10</title>
<g id="a_edge12_Node000002_Node000010"><a xlink:title=" ">
<path fill="none" stroke="#63b8ff" d="M269,-164.98C251.55,-156.5 224.51,-143.35 204.34,-133.54"/>
<polygon fill="#63b8ff" stroke="#63b8ff" points="205.87,-130.4 195.35,-129.17 202.81,-136.69 205.87,-130.4"/>
</a>
</g>
</g>
<!-- Node11 -->
<g id="Node000011" class="node">
<title>Node11</title>
<g id="a_Node000011"><a xlink:title=" ">
<polygon fill="#e0e0e0" stroke="#999999" points="290.01,-129 221.01,-129 221.01,-110 290.01,-110 290.01,-129"/>
<text text-anchor="middle" x="255.51" y="-117" font-family="Helvetica,sans-Serif" font-size="10.00">type_traits</text>
</a>
</g>
</g>
<!-- Node2&#45;&gt;Node11 -->
<g id="edge13_Node000002_Node000011" class="edge">
<title>Node2&#45;&gt;Node11</title>
<g id="a_edge13_Node000002_Node000011"><a xlink:title=" ">
<path fill="none" stroke="#63b8ff" d="M281.4,-164.75C277.15,-157.49 270.99,-146.95 265.74,-137.98"/>
<polygon fill="#63b8ff" stroke="#63b8ff" points="268.61,-135.95 260.54,-129.09 262.57,-139.49 268.61,-135.95"/>
</a>
</g>
</g>
<!-- Node4 -->
<g id="Node000004" class="node">
<title>Node4</title>
<g id="a_Node000004"><a xlink:title=" ">
<polygon fill="#e0e0e0" stroke="#999999" points="341.01,-19 288.01,-19 288.01,0 341.01,0 341.01,-19"/>
<text text-anchor="middle" x="314.51" y="-7" font-family="Helvetica,sans-Serif" font-size="10.00">cstddef</text>
</a>
</g>
</g>
<!-- Node3&#45;&gt;Node4 -->
<g id="edge3_Node000003_Node000004" class="edge">
<title>Node3&#45;&gt;Node4</title>
<g id="a_edge3_Node000003_Node000004"><a xlink:title=" ">
<path fill="none" stroke="#63b8ff" d="M282.79,-54.75C288.1,-47.34 295.87,-36.5 302.39,-27.41"/>
<polygon fill="#63b8ff" stroke="#63b8ff" points="305.37,-29.26 308.36,-19.09 299.68,-25.18 305.37,-29.26"/>
</a>
</g>
</g>
<!-- Node5&#45;&gt;Node3 -->
<g id="edge5_Node000005_Node000003" class="edge">
<title>Node5&#45;&gt;Node3</title>
<g id="a_edge5_Node000005_Node000003"><a xlink:title=" ">
<path fill="none" stroke="#63b8ff" d="M374.72,-109.98C355.89,-101.46 326.69,-88.23 305.02,-78.41"/>
<polygon fill="#63b8ff" stroke="#63b8ff" points="306.21,-75.11 295.65,-74.17 303.32,-81.48 306.21,-75.11"/>
</a>
</g>
</g>
<!-- Node5&#45;&gt;Node4 -->
<g id="edge8_Node000005_Node000004" class="edge">
<title>Node5&#45;&gt;Node4</title>
<g id="a_edge8_Node000005_Node000004"><a xlink:title=" ">
<path fill="none" stroke="#63b8ff" d="M387.05,-109.66C373.91,-91.69 343.88,-50.64 326.86,-27.38"/>
<polygon fill="#63b8ff" stroke="#63b8ff" points="329.58,-25.16 320.85,-19.16 323.93,-29.3 329.58,-25.16"/>
</a>
</g>
</g>
<!-- Node5&#45;&gt;Node6 -->
<g id="edge6_Node000005_Node000006" class="edge">
<title>Node5&#45;&gt;Node6</title>
<g id="a_edge6_Node000005_Node000006"><a xlink:title=" ">
<path fill="none" stroke="#63b8ff" d="M409.9,-109.98C426.09,-101.57 451.08,-88.59 469.9,-78.81"/>
<polygon fill="#63b8ff" stroke="#63b8ff" points="471.57,-81.89 478.83,-74.17 468.34,-75.68 471.57,-81.89"/>
</a>
</g>
</g>
<!-- Node8 -->
<g id="Node000008" class="node">
<title>Node8</title>
<g id="a_Node000008"><a xlink:title=" ">
<polygon fill="#e0e0e0" stroke="#999999" points="428.01,-74 381.01,-74 381.01,-55 428.01,-55 428.01,-74"/>
<text text-anchor="middle" x="404.51" y="-62" font-family="Helvetica,sans-Serif" font-size="10.00">vector</text>
</a>
</g>
</g>
<!-- Node5&#45;&gt;Node8 -->
<g id="edge9_Node000005_Node000008" class="edge">
<title>Node5&#45;&gt;Node8</title>
<g id="a_edge9_Node000005_Node000008"><a xlink:title=" ">
<path fill="none" stroke="#63b8ff" d="M395.33,-109.75C396.77,-102.8 398.84,-92.85 400.65,-84.13"/>
<polygon fill="#63b8ff" stroke="#63b8ff" points="404.13,-84.59 402.73,-74.09 397.27,-83.17 404.13,-84.59"/>
</a>
</g>
</g>
<!-- Node7 -->
<g id="Node000007" class="node">
<title>Node7</title>
<g id="a_Node000007"><a xlink:title=" ">
<polygon fill="#e0e0e0" stroke="#999999" points="550.51,-19 440.51,-19 440.51,0 550.51,0 550.51,-19"/>
<text text-anchor="middle" x="495.51" y="-7" font-family="Helvetica,sans-Serif" font-size="10.00">algoim/uvector.hpp</text>
</a>
</g>
</g>
<!-- Node6&#45;&gt;Node7 -->
<g id="edge7_Node000006_Node000007" class="edge">
<title>Node6&#45;&gt;Node7</title>
<g id="a_edge7_Node000006_Node000007"><a xlink:title=" ">
<path fill="none" stroke="#63b8ff" d="M495.51,-54.75C495.51,-47.8 495.51,-37.85 495.51,-29.13"/>
<polygon fill="#63b8ff" stroke="#63b8ff" points="499.01,-29.09 495.51,-19.09 492.01,-29.09 499.01,-29.09"/>
</a>
</g>
</g>
</g>
</svg>
