<?xml version="1.0" encoding="UTF-8" standalone="no"?>
<!DOCTYPE svg PUBLIC "-//W3C//DTD SVG 1.1//EN"
 "http://www.w3.org/Graphics/SVG/1.1/DTD/svg11.dtd">
<!-- Generated by graphviz version 2.43.0 (0)
 -->
<!-- Title: qugar::impl::BezierTP::BezierTP Pages: 1 -->
<svg width="286pt" height="278pt"
 viewBox="0.00 0.00 286.00 278.00" xmlns="http://www.w3.org/2000/svg" xmlns:xlink="http://www.w3.org/1999/xlink">
<g id="graph0" class="graph" transform="scale(1 1) rotate(0) translate(4 274)">
<title>qugar::impl::BezierTP::BezierTP</title>
<!-- Node1 -->
<g id="Node000001" class="node">
<title>Node1</title>
<g id="a_Node000001"><a xlink:title="Constructor.">
<polygon fill="#999999" stroke="#666666" points="278,-150 157,-150 157,-120 278,-120 278,-150"/>
<text text-anchor="start" x="165" y="-138" font-family="Helvetica,sans-Serif" font-size="10.00">qugar::impl::BezierTP</text>
<text text-anchor="middle" x="217.5" y="-127" font-family="Helvetica,sans-Serif" font-size="10.00">::BezierTP</text>
</a>
</g>
</g>
<!-- Node2 -->
<g id="Node000002" class="node">
<title>Node2</title>
<g id="a_Node000002"><a xlink:href="../../de/dca/classqugar_1_1impl_1_1BezierTP.html#abc62d16a46ec8c5456d24e2d863ed5d0" target="_top" xlink:title="Copy constructor.">
<polygon fill="white" stroke="#666666" points="121,-270 0,-270 0,-240 121,-240 121,-270"/>
<text text-anchor="start" x="8" y="-258" font-family="Helvetica,sans-Serif" font-size="10.00">qugar::impl::BezierTP</text>
<text text-anchor="middle" x="60.5" y="-247" font-family="Helvetica,sans-Serif" font-size="10.00">::BezierTP</text>
</a>
</g>
</g>
<!-- Node1&#45;&gt;Node2 -->
<g id="edge1_Node000001_Node000002" class="edge">
<title>Node1&#45;&gt;Node2</title>
<g id="a_edge1_Node000001_Node000002"><a xlink:title=" ">
<path fill="none" stroke="#63b8ff" d="M198.25,-158.12C180.43,-179.41 151.61,-210.69 121,-231 115.99,-234.32 110.44,-237.31 104.81,-239.96"/>
<polygon fill="#63b8ff" stroke="#63b8ff" points="201.09,-160.16 204.74,-150.21 195.68,-155.72 201.09,-160.16"/>
</a>
</g>
</g>
<!-- Node3 -->
<g id="Node000003" class="node">
<title>Node3</title>
<g id="a_Node000003"><a xlink:href="../../de/dca/classqugar_1_1impl_1_1BezierTP.html#ae096dc789b1da08351831acf8dfeb860" target="_top" xlink:title="Composes the current Bezier with the given Bezier rhs.">
<polygon fill="white" stroke="#666666" points="121,-222 0,-222 0,-192 121,-192 121,-222"/>
<text text-anchor="start" x="8" y="-210" font-family="Helvetica,sans-Serif" font-size="10.00">qugar::impl::BezierTP</text>
<text text-anchor="middle" x="60.5" y="-199" font-family="Helvetica,sans-Serif" font-size="10.00">::compose</text>
</a>
</g>
</g>
<!-- Node1&#45;&gt;Node3 -->
<g id="edge2_Node000001_Node000003" class="edge">
<title>Node1&#45;&gt;Node3</title>
<g id="a_edge2_Node000001_Node000003"><a xlink:title=" ">
<path fill="none" stroke="#63b8ff" d="M178.7,-154.9C161.29,-163.83 140.26,-174.29 121,-183 114.3,-186.03 107.1,-189.09 100.1,-191.97"/>
<polygon fill="#63b8ff" stroke="#63b8ff" points="180.68,-157.81 187.96,-150.12 177.47,-151.59 180.68,-157.81"/>
</a>
</g>
</g>
<!-- Node4 -->
<g id="Node000004" class="node">
<title>Node4</title>
<g id="a_Node000004"><a xlink:href="../../de/dca/classqugar_1_1impl_1_1BezierTP.html#a1083c04cfb280750980c3ddf983952d4" target="_top" xlink:title=" ">
<polygon fill="white" stroke="#666666" points="121,-174 0,-174 0,-144 121,-144 121,-174"/>
<text text-anchor="start" x="8" y="-162" font-family="Helvetica,sans-Serif" font-size="10.00">qugar::impl::BezierTP</text>
<text text-anchor="middle" x="60.5" y="-151" font-family="Helvetica,sans-Serif" font-size="10.00">::extract_facet</text>
</a>
</g>
</g>
<!-- Node1&#45;&gt;Node4 -->
<g id="edge3_Node000001_Node000004" class="edge">
<title>Node1&#45;&gt;Node4</title>
<g id="a_edge3_Node000001_Node000004"><a xlink:title=" ">
<path fill="none" stroke="#63b8ff" d="M146.62,-145.82C138.07,-147.14 129.39,-148.49 121.01,-149.79"/>
<polygon fill="#63b8ff" stroke="#63b8ff" points="147.23,-149.27 156.57,-144.28 146.16,-142.35 147.23,-149.27"/>
</a>
</g>
</g>
<!-- Node5 -->
<g id="Node000005" class="node">
<title>Node5</title>
<g id="a_Node000005"><a xlink:href="../../de/dca/classqugar_1_1impl_1_1BezierTP.html#a71b6ec248f2608a8477b89cc64264add" target="_top" xlink:title="Product of two Beziers.">
<polygon fill="white" stroke="#666666" points="121,-126 0,-126 0,-96 121,-96 121,-126"/>
<text text-anchor="start" x="8" y="-114" font-family="Helvetica,sans-Serif" font-size="10.00">qugar::impl::BezierTP</text>
<text text-anchor="middle" x="60.5" y="-103" font-family="Helvetica,sans-Serif" font-size="10.00">::operator*</text>
</a>
</g>
</g>
<!-- Node1&#45;&gt;Node5 -->
<g id="edge4_Node000001_Node000005" class="edge">
<title>Node1&#45;&gt;Node5</title>
<g id="a_edge4_Node000001_Node000005"><a xlink:title=" ">
<path fill="none" stroke="#63b8ff" d="M146.62,-124.18C138.07,-122.86 129.39,-121.51 121.01,-120.21"/>
<polygon fill="#63b8ff" stroke="#63b8ff" points="146.16,-127.65 156.57,-125.72 147.23,-120.73 146.16,-127.65"/>
</a>
</g>
</g>
<!-- Node6 -->
<g id="Node000006" class="node">
<title>Node6</title>
<g id="a_Node000006"><a xlink:href="../../de/dca/classqugar_1_1impl_1_1BezierTP.html#ade5d79cdcb2204d9f1c5e949ade22e55" target="_top" xlink:title="Addition of two Beziers.">
<polygon fill="white" stroke="#666666" points="121,-78 0,-78 0,-48 121,-48 121,-78"/>
<text text-anchor="start" x="8" y="-66" font-family="Helvetica,sans-Serif" font-size="10.00">qugar::impl::BezierTP</text>
<text text-anchor="middle" x="60.5" y="-55" font-family="Helvetica,sans-Serif" font-size="10.00">::operator+</text>
</a>
</g>
</g>
<!-- Node1&#45;&gt;Node6 -->
<g id="edge5_Node000001_Node000006" class="edge">
<title>Node1&#45;&gt;Node6</title>
<g id="a_edge5_Node000001_Node000006"><a xlink:title=" ">
<path fill="none" stroke="#63b8ff" d="M178.7,-115.1C161.29,-106.17 140.26,-95.71 121,-87 114.3,-83.97 107.1,-80.91 100.1,-78.03"/>
<polygon fill="#63b8ff" stroke="#63b8ff" points="177.47,-118.41 187.96,-119.88 180.68,-112.19 177.47,-118.41"/>
</a>
</g>
</g>
<!-- Node7 -->
<g id="Node000007" class="node">
<title>Node7</title>
<g id="a_Node000007"><a xlink:href="../../de/dca/classqugar_1_1impl_1_1BezierTP.html#afccb288c2098cecf970f029bca4eea65" target="_top" xlink:title="Subtraction of two Beziers.">
<polygon fill="white" stroke="#666666" points="121,-30 0,-30 0,0 121,0 121,-30"/>
<text text-anchor="start" x="8" y="-18" font-family="Helvetica,sans-Serif" font-size="10.00">qugar::impl::BezierTP</text>
<text text-anchor="middle" x="60.5" y="-7" font-family="Helvetica,sans-Serif" font-size="10.00">::operator&#45;</text>
</a>
</g>
</g>
<!-- Node1&#45;&gt;Node7 -->
<g id="edge6_Node000001_Node000007" class="edge">
<title>Node1&#45;&gt;Node7</title>
<g id="a_edge6_Node000001_Node000007"><a xlink:title=" ">
<path fill="none" stroke="#63b8ff" d="M198.25,-111.88C180.43,-90.59 151.61,-59.31 121,-39 115.99,-35.68 110.44,-32.69 104.81,-30.04"/>
<polygon fill="#63b8ff" stroke="#63b8ff" points="195.68,-114.28 204.74,-119.79 201.09,-109.84 195.68,-114.28"/>
</a>
</g>
</g>
</g>
</svg>
