<?xml version="1.0" encoding="UTF-8" standalone="no"?>
<!DOCTYPE svg PUBLIC "-//W3C//DTD SVG 1.1//EN"
 "http://www.w3.org/Graphics/SVG/1.1/DTD/svg11.dtd">
<!-- Generated by graphviz version 2.43.0 (0)
 -->
<!-- Title: qugar::impl::funcs::Plane::Plane Pages: 1 -->
<svg width="262pt" height="86pt"
 viewBox="0.00 0.00 262.00 86.00" xmlns="http://www.w3.org/2000/svg" xmlns:xlink="http://www.w3.org/1999/xlink">
<g id="graph0" class="graph" transform="scale(1 1) rotate(0) translate(4 82)">
<title>qugar::impl::funcs::Plane::Plane</title>
<!-- Node1 -->
<g id="Node000001" class="node">
<title>Node1</title>
<g id="a_Node000001"><a xlink:title="Constructs a new plane function. The line is defined by an origin and a normal vector.">
<polygon fill="#999999" stroke="#666666" points="104,-54 0,-54 0,-24 104,-24 104,-54"/>
<text text-anchor="start" x="8" y="-42" font-family="Helvetica,sans-Serif" font-size="10.00">qugar::impl::funcs</text>
<text text-anchor="middle" x="52" y="-31" font-family="Helvetica,sans-Serif" font-size="10.00">::Plane::Plane</text>
</a>
</g>
</g>
<!-- Node2 -->
<g id="Node000002" class="node">
<title>Node2</title>
<g id="a_Node000002"><a xlink:href="../../db/d5b/classqugar_1_1impl_1_1funcs_1_1PlaneBase.html#a4341bb67bb5aa7ddb9f5a529ad24f481" target="_top" xlink:title="Gets the normal of the plane.">
<polygon fill="white" stroke="#666666" points="254,-78 140,-78 140,-48 254,-48 254,-78"/>
<text text-anchor="start" x="148" y="-66" font-family="Helvetica,sans-Serif" font-size="10.00">qugar::impl::funcs</text>
<text text-anchor="middle" x="197" y="-55" font-family="Helvetica,sans-Serif" font-size="10.00">::PlaneBase::normal</text>
</a>
</g>
</g>
<!-- Node1&#45;&gt;Node2 -->
<g id="edge1_Node000001_Node000002" class="edge">
<title>Node1&#45;&gt;Node2</title>
<g id="a_edge1_Node000001_Node000002"><a xlink:title=" ">
<path fill="none" stroke="#63b8ff" d="M104.22,-47.6C112.52,-48.99 121.21,-50.45 129.8,-51.89"/>
<polygon fill="#63b8ff" stroke="#63b8ff" points="129.36,-55.36 139.8,-53.57 130.52,-48.46 129.36,-55.36"/>
</a>
</g>
</g>
<!-- Node3 -->
<g id="Node000003" class="node">
<title>Node3</title>
<g id="a_Node000003"><a xlink:href="../../db/d5b/classqugar_1_1impl_1_1funcs_1_1PlaneBase.html#a7f5654556a5830120386a66983a4c3e5" target="_top" xlink:title="Gets the origin of the plane.">
<polygon fill="white" stroke="#666666" points="250.5,-30 143.5,-30 143.5,0 250.5,0 250.5,-30"/>
<text text-anchor="start" x="151.5" y="-18" font-family="Helvetica,sans-Serif" font-size="10.00">qugar::impl::funcs</text>
<text text-anchor="middle" x="197" y="-7" font-family="Helvetica,sans-Serif" font-size="10.00">::PlaneBase::origin</text>
</a>
</g>
</g>
<!-- Node1&#45;&gt;Node3 -->
<g id="edge2_Node000001_Node000003" class="edge">
<title>Node1&#45;&gt;Node3</title>
<g id="a_edge2_Node000001_Node000003"><a xlink:title=" ">
<path fill="none" stroke="#63b8ff" d="M104.22,-30.4C113.62,-28.83 123.53,-27.16 133.22,-25.54"/>
<polygon fill="#63b8ff" stroke="#63b8ff" points="133.92,-28.97 143.21,-23.86 132.77,-22.06 133.92,-28.97"/>
</a>
</g>
</g>
</g>
</svg>
