<?xml version="1.0" encoding="UTF-8" standalone="no"?>
<!DOCTYPE svg PUBLIC "-//W3C//DTD SVG 1.1//EN"
 "http://www.w3.org/Graphics/SVG/1.1/DTD/svg11.dtd">
<!-- Generated by graphviz version 2.43.0 (0)
 -->
<!-- Title: /__w/qugar/qugar/cpp/include/qugar/impl_reparam_general.hpp Pages: 1 -->
<svg width="1500pt" height="511pt"
 viewBox="0.00 0.00 1500.12 511.00" xmlns="http://www.w3.org/2000/svg" xmlns:xlink="http://www.w3.org/1999/xlink">
<g id="graph0" class="graph" transform="scale(1 1) rotate(0) translate(4 507)">
<title>/__w/qugar/qugar/cpp/include/qugar/impl_reparam_general.hpp</title>
<!-- Node1 -->
<g id="Node000001" class="node">
<title>Node1</title>
<g id="a_Node000001"><a xlink:title="Declaration of tools for creating reparameterizations of general functions.">
<polygon fill="#999999" stroke="#666666" points="1091.62,-503 934.62,-503 934.62,-462 1091.62,-462 1091.62,-503"/>
<text text-anchor="start" x="942.62" y="-491" font-family="Helvetica,sans-Serif" font-size="10.00">/__w/qugar/qugar/cpp</text>
<text text-anchor="start" x="942.62" y="-480" font-family="Helvetica,sans-Serif" font-size="10.00">/include/qugar/impl_reparam</text>
<text text-anchor="middle" x="1013.12" y="-469" font-family="Helvetica,sans-Serif" font-size="10.00">_general.hpp</text>
</a>
</g>
</g>
<!-- Node2 -->
<g id="Node000002" class="node">
<title>Node2</title>
<g id="a_Node000002"><a xlink:href="../../d5/d90/bbox_8hpp.html" target="_top" xlink:title="Definition of Cartesian bounding box class.">
<polygon fill="white" stroke="#666666" points="1246.12,-189.5 1154.12,-189.5 1154.12,-170.5 1246.12,-170.5 1246.12,-189.5"/>
<text text-anchor="middle" x="1200.12" y="-177.5" font-family="Helvetica,sans-Serif" font-size="10.00">qugar/bbox.hpp</text>
</a>
</g>
</g>
<!-- Node1&#45;&gt;Node2 -->
<g id="edge1_Node000001_Node000002" class="edge">
<title>Node1&#45;&gt;Node2</title>
<g id="a_edge1_Node000001_Node000002"><a xlink:title=" ">
<path fill="none" stroke="#63b8ff" d="M1091.68,-476.4C1227.57,-465.4 1492.12,-433.47 1492.12,-351.5 1492.12,-351.5 1492.12,-351.5 1492.12,-294.5 1492.12,-244.46 1341.24,-207.71 1256.39,-191"/>
<polygon fill="#63b8ff" stroke="#63b8ff" points="1256.87,-187.53 1246.39,-189.07 1255.54,-194.4 1256.87,-187.53"/>
</a>
</g>
</g>
<!-- Node12 -->
<g id="Node000012" class="node">
<title>Node12</title>
<g id="a_Node000012"><a xlink:href="../../dc/d7c/domain__function_8hpp.html" target="_top" xlink:title="Declaration of a few implicit functions template class ready to be consumed by Algoim.">
<polygon fill="white" stroke="#666666" points="265.12,-189.5 115.12,-189.5 115.12,-170.5 265.12,-170.5 265.12,-189.5"/>
<text text-anchor="middle" x="190.12" y="-177.5" font-family="Helvetica,sans-Serif" font-size="10.00">qugar/domain_function.hpp</text>
</a>
</g>
</g>
<!-- Node1&#45;&gt;Node12 -->
<g id="edge14_Node000001_Node000012" class="edge">
<title>Node1&#45;&gt;Node12</title>
<g id="a_edge14_Node000001_Node000012"><a xlink:title=" ">
<path fill="none" stroke="#63b8ff" d="M934.29,-476.95C731.97,-464.23 210.12,-424.36 210.12,-351.5 210.12,-351.5 210.12,-351.5 210.12,-294.5 210.12,-260.61 201.36,-221.88 195.44,-199.55"/>
<polygon fill="#63b8ff" stroke="#63b8ff" points="198.77,-198.45 192.73,-189.74 192.02,-200.31 198.77,-198.45"/>
</a>
</g>
</g>
<!-- Node16 -->
<g id="Node000016" class="node">
<title>Node16</title>
<g id="a_Node000016"><a xlink:href="../../d3/d42/impl__reparam__mesh_8hpp.html" target="_top" xlink:title="Declaration of reparameterization class.">
<polygon fill="white" stroke="#666666" points="732.12,-426 616.12,-426 616.12,-396 732.12,-396 732.12,-426"/>
<text text-anchor="start" x="624.12" y="-414" font-family="Helvetica,sans-Serif" font-size="10.00">qugar/impl_reparam</text>
<text text-anchor="middle" x="674.12" y="-403" font-family="Helvetica,sans-Serif" font-size="10.00">_mesh.hpp</text>
</a>
</g>
</g>
<!-- Node1&#45;&gt;Node16 -->
<g id="edge21_Node000001_Node000016" class="edge">
<title>Node1&#45;&gt;Node16</title>
<g id="a_edge21_Node000001_Node000016"><a xlink:title=" ">
<path fill="none" stroke="#63b8ff" d="M934.49,-465.38C876.31,-453.45 797.84,-437.36 742.3,-425.98"/>
<polygon fill="#63b8ff" stroke="#63b8ff" points="742.7,-422.49 732.2,-423.91 741.3,-429.35 742.7,-422.49"/>
</a>
</g>
</g>
<!-- Node23 -->
<g id="Node000023" class="node">
<title>Node23</title>
<g id="a_Node000023"><a xlink:title=" ">
<polygon fill="#e0e0e0" stroke="#999999" points="1136.12,-189.5 1078.12,-189.5 1078.12,-170.5 1136.12,-170.5 1136.12,-189.5"/>
<text text-anchor="middle" x="1107.12" y="-177.5" font-family="Helvetica,sans-Serif" font-size="10.00">memory</text>
</a>
</g>
</g>
<!-- Node1&#45;&gt;Node23 -->
<g id="edge72_Node000001_Node000023" class="edge">
<title>Node1&#45;&gt;Node23</title>
<g id="a_edge72_Node000001_Node000023"><a xlink:title=" ">
<path fill="none" stroke="#63b8ff" d="M1088.67,-461.98C1162.71,-438.38 1271.44,-390.72 1321.12,-305 1325.35,-297.69 1325.58,-293.17 1321.12,-286 1310.51,-268.98 1193.25,-217.52 1136.95,-193.55"/>
<polygon fill="#63b8ff" stroke="#63b8ff" points="1138.08,-190.22 1127.5,-189.54 1135.34,-196.67 1138.08,-190.22"/>
</a>
</g>
</g>
<!-- Node3 -->
<g id="Node000003" class="node">
<title>Node3</title>
<g id="a_Node000003"><a xlink:href="../../d7/dd8/concepts_8hpp.html" target="_top" xlink:title="Declaration of concepts.">
<polygon fill="white" stroke="#666666" points="1356.12,-129 1244.12,-129 1244.12,-110 1356.12,-110 1356.12,-129"/>
<text text-anchor="middle" x="1300.12" y="-117" font-family="Helvetica,sans-Serif" font-size="10.00">qugar/concepts.hpp</text>
</a>
</g>
</g>
<!-- Node2&#45;&gt;Node3 -->
<g id="edge2_Node000002_Node000003" class="edge">
<title>Node2&#45;&gt;Node3</title>
<g id="a_edge2_Node000002_Node000003"><a xlink:title=" ">
<path fill="none" stroke="#63b8ff" d="M1214.87,-170.37C1231.12,-160.86 1257.47,-145.45 1276.58,-134.27"/>
<polygon fill="#63b8ff" stroke="#63b8ff" points="1278.44,-137.24 1285.3,-129.17 1274.9,-131.2 1278.44,-137.24"/>
</a>
</g>
</g>
<!-- Node4 -->
<g id="Node000004" class="node">
<title>Node4</title>
<g id="a_Node000004"><a xlink:href="../../d0/de4/point_8hpp.html" target="_top" xlink:title="Definition and implementation of Point class.">
<polygon fill="white" stroke="#666666" points="809.62,-129 716.62,-129 716.62,-110 809.62,-110 809.62,-129"/>
<text text-anchor="middle" x="763.12" y="-117" font-family="Helvetica,sans-Serif" font-size="10.00">qugar/point.hpp</text>
</a>
</g>
</g>
<!-- Node2&#45;&gt;Node4 -->
<g id="edge3_Node000002_Node000004" class="edge">
<title>Node2&#45;&gt;Node4</title>
<g id="a_edge3_Node000002_Node000004"><a xlink:title=" ">
<path fill="none" stroke="#63b8ff" d="M1169.73,-170.5C1161.77,-168.48 1153.16,-166.49 1145.12,-165 1084.11,-153.73 910.37,-135.37 819.72,-126.16"/>
<polygon fill="#63b8ff" stroke="#63b8ff" points="819.93,-122.66 809.62,-125.13 819.22,-129.62 819.93,-122.66"/>
</a>
</g>
</g>
<!-- Node5 -->
<g id="Node000005" class="node">
<title>Node5</title>
<g id="a_Node000005"><a xlink:href="../../dd/de3/types_8hpp.html" target="_top" xlink:title="Declaration of types.">
<polygon fill="white" stroke="#666666" points="768.62,-74 673.62,-74 673.62,-55 768.62,-55 768.62,-74"/>
<text text-anchor="middle" x="721.12" y="-62" font-family="Helvetica,sans-Serif" font-size="10.00">qugar/types.hpp</text>
</a>
</g>
</g>
<!-- Node2&#45;&gt;Node5 -->
<g id="edge10_Node000002_Node000005" class="edge">
<title>Node2&#45;&gt;Node5</title>
<g id="a_edge10_Node000002_Node000005"><a xlink:title=" ">
<path fill="none" stroke="#63b8ff" d="M1166.98,-170.49C1159.78,-168.66 1152.2,-166.75 1145.12,-165 1043.94,-139.92 1018.61,-133.76 917.12,-110 866.8,-98.22 809.1,-85.17 769.4,-76.27"/>
<polygon fill="#63b8ff" stroke="#63b8ff" points="769.98,-72.82 759.46,-74.05 768.45,-79.65 769.98,-72.82"/>
</a>
</g>
</g>
<!-- Node6 -->
<g id="Node000006" class="node">
<title>Node6</title>
<g id="a_Node000006"><a xlink:title=" ">
<polygon fill="#e0e0e0" stroke="#999999" points="1205.62,-19 1152.62,-19 1152.62,0 1205.62,0 1205.62,-19"/>
<text text-anchor="middle" x="1179.12" y="-7" font-family="Helvetica,sans-Serif" font-size="10.00">cstddef</text>
</a>
</g>
</g>
<!-- Node2&#45;&gt;Node6 -->
<g id="edge13_Node000002_Node000006" class="edge">
<title>Node2&#45;&gt;Node6</title>
<g id="a_edge13_Node000002_Node000006"><a xlink:title=" ">
<path fill="none" stroke="#63b8ff" d="M1246.12,-176.77C1304.18,-172 1393.28,-157.01 1365.12,-110 1332.73,-55.94 1259.83,-29.6 1215.52,-18.14"/>
<polygon fill="#63b8ff" stroke="#63b8ff" points="1216.27,-14.72 1205.72,-15.72 1214.6,-21.51 1216.27,-14.72"/>
</a>
</g>
</g>
<!-- Node10 -->
<g id="Node000010" class="node">
<title>Node10</title>
<g id="a_Node000010"><a xlink:title=" ">
<polygon fill="#e0e0e0" stroke="#999999" points="1226.12,-129 1078.12,-129 1078.12,-110 1226.12,-110 1226.12,-129"/>
<text text-anchor="middle" x="1152.12" y="-117" font-family="Helvetica,sans-Serif" font-size="10.00">algoim/hyperrectangle.hpp</text>
</a>
</g>
</g>
<!-- Node2&#45;&gt;Node10 -->
<g id="edge11_Node000002_Node000010" class="edge">
<title>Node2&#45;&gt;Node10</title>
<g id="a_edge11_Node000002_Node000010"><a xlink:title=" ">
<path fill="none" stroke="#63b8ff" d="M1193.04,-170.37C1185.87,-161.64 1174.63,-147.93 1165.73,-137.09"/>
<polygon fill="#63b8ff" stroke="#63b8ff" points="1168.28,-134.68 1159.23,-129.17 1162.87,-139.12 1168.28,-134.68"/>
</a>
</g>
</g>
<!-- Node11 -->
<g id="Node000011" class="node">
<title>Node11</title>
<g id="a_Node000011"><a xlink:title=" ">
<polygon fill="#e0e0e0" stroke="#999999" points="908.12,-129 866.12,-129 866.12,-110 908.12,-110 908.12,-129"/>
<text text-anchor="middle" x="887.12" y="-117" font-family="Helvetica,sans-Serif" font-size="10.00">array</text>
</a>
</g>
</g>
<!-- Node2&#45;&gt;Node11 -->
<g id="edge12_Node000002_Node000011" class="edge">
<title>Node2&#45;&gt;Node11</title>
<g id="a_edge12_Node000002_Node000011"><a xlink:title=" ">
<path fill="none" stroke="#63b8ff" d="M1168.23,-170.43C1160.68,-168.53 1152.63,-166.6 1145.12,-165 1063.74,-147.65 966.81,-132.36 918.19,-125.05"/>
<polygon fill="#63b8ff" stroke="#63b8ff" points="918.7,-121.59 908.29,-123.58 917.67,-128.51 918.7,-121.59"/>
</a>
</g>
</g>
<!-- Node4&#45;&gt;Node5 -->
<g id="edge4_Node000004_Node000005" class="edge">
<title>Node4&#45;&gt;Node5</title>
<g id="a_edge4_Node000004_Node000005"><a xlink:title=" ">
<path fill="none" stroke="#63b8ff" d="M756.18,-109.75C750.25,-102.26 741.55,-91.28 734.29,-82.13"/>
<polygon fill="#63b8ff" stroke="#63b8ff" points="736.88,-79.75 727.92,-74.09 731.39,-84.1 736.88,-79.75"/>
</a>
</g>
</g>
<!-- Node4&#45;&gt;Node6 -->
<g id="edge8_Node000004_Node000006" class="edge">
<title>Node4&#45;&gt;Node6</title>
<g id="a_edge8_Node000004_Node000006"><a xlink:title=" ">
<path fill="none" stroke="#63b8ff" d="M781.29,-109.79C810.38,-96.18 869.49,-69.89 922.12,-55 999,-33.25 1091.99,-20.34 1142.36,-14.42"/>
<polygon fill="#63b8ff" stroke="#63b8ff" points="1142.91,-17.88 1152.44,-13.26 1142.11,-10.93 1142.91,-17.88"/>
</a>
</g>
</g>
<!-- Node7 -->
<g id="Node000007" class="node">
<title>Node7</title>
<g id="a_Node000007"><a xlink:href="../../da/d16/vector_8hpp.html" target="_top" xlink:title=" ">
<polygon fill="white" stroke="#666666" points="362.12,-74 264.12,-74 264.12,-55 362.12,-55 362.12,-74"/>
<text text-anchor="middle" x="313.12" y="-62" font-family="Helvetica,sans-Serif" font-size="10.00">qugar/vector.hpp</text>
</a>
</g>
</g>
<!-- Node4&#45;&gt;Node7 -->
<g id="edge6_Node000004_Node000007" class="edge">
<title>Node4&#45;&gt;Node7</title>
<g id="a_edge6_Node000004_Node000007"><a xlink:title=" ">
<path fill="none" stroke="#63b8ff" d="M716.23,-112.98C633.76,-103.26 462.9,-83.14 372.38,-72.48"/>
<polygon fill="#63b8ff" stroke="#63b8ff" points="372.62,-68.98 362.28,-71.29 371.8,-75.94 372.62,-68.98"/>
</a>
</g>
</g>
<!-- Node9 -->
<g id="Node000009" class="node">
<title>Node9</title>
<g id="a_Node000009"><a xlink:title=" ">
<polygon fill="#e0e0e0" stroke="#999999" points="1042.62,-74 995.62,-74 995.62,-55 1042.62,-55 1042.62,-74"/>
<text text-anchor="middle" x="1019.12" y="-62" font-family="Helvetica,sans-Serif" font-size="10.00">vector</text>
</a>
</g>
</g>
<!-- Node4&#45;&gt;Node9 -->
<g id="edge9_Node000004_Node000009" class="edge">
<title>Node4&#45;&gt;Node9</title>
<g id="a_edge9_Node000004_Node000009"><a xlink:title=" ">
<path fill="none" stroke="#63b8ff" d="M804.25,-109.98C854.58,-99.57 938.82,-82.12 985.47,-72.47"/>
<polygon fill="#63b8ff" stroke="#63b8ff" points="986.3,-75.87 995.38,-70.41 984.88,-69.01 986.3,-75.87"/>
</a>
</g>
</g>
<!-- Node5&#45;&gt;Node6 -->
<g id="edge5_Node000005_Node000006" class="edge">
<title>Node5&#45;&gt;Node6</title>
<g id="a_edge5_Node000005_Node000006"><a xlink:title=" ">
<path fill="none" stroke="#63b8ff" d="M768.84,-57.98C860.58,-47.36 1059.79,-24.31 1142.24,-14.77"/>
<polygon fill="#63b8ff" stroke="#63b8ff" points="1142.86,-18.22 1152.39,-13.59 1142.06,-11.27 1142.86,-18.22"/>
</a>
</g>
</g>
<!-- Node8 -->
<g id="Node000008" class="node">
<title>Node8</title>
<g id="a_Node000008"><a xlink:title=" ">
<polygon fill="#e0e0e0" stroke="#999999" points="368.12,-19 258.12,-19 258.12,0 368.12,0 368.12,-19"/>
<text text-anchor="middle" x="313.12" y="-7" font-family="Helvetica,sans-Serif" font-size="10.00">algoim/uvector.hpp</text>
</a>
</g>
</g>
<!-- Node7&#45;&gt;Node8 -->
<g id="edge7_Node000007_Node000008" class="edge">
<title>Node7&#45;&gt;Node8</title>
<g id="a_edge7_Node000007_Node000008"><a xlink:title=" ">
<path fill="none" stroke="#63b8ff" d="M313.12,-54.75C313.12,-47.8 313.12,-37.85 313.12,-29.13"/>
<polygon fill="#63b8ff" stroke="#63b8ff" points="316.62,-29.09 313.12,-19.09 309.62,-29.09 316.62,-29.09"/>
</a>
</g>
</g>
<!-- Node12&#45;&gt;Node4 -->
<g id="edge16_Node000012_Node000004" class="edge">
<title>Node12&#45;&gt;Node4</title>
<g id="a_edge16_Node000012_Node000004"><a xlink:title=" ">
<path fill="none" stroke="#63b8ff" d="M262.67,-170.48C278.94,-168.63 296.11,-166.71 312.12,-165 453.83,-149.88 620.79,-133.88 706.33,-125.81"/>
<polygon fill="#63b8ff" stroke="#63b8ff" points="706.72,-129.29 716.35,-124.87 706.06,-122.32 706.72,-129.29"/>
</a>
</g>
</g>
<!-- Node12&#45;&gt;Node5 -->
<g id="edge15_Node000012_Node000005" class="edge">
<title>Node12&#45;&gt;Node5</title>
<g id="a_edge15_Node000012_Node000005"><a xlink:title=" ">
<path fill="none" stroke="#63b8ff" d="M184.29,-170.08C175.58,-155.54 161.75,-126.67 177.12,-110 209.58,-74.77 530.24,-67.43 663.5,-65.9"/>
<polygon fill="#63b8ff" stroke="#63b8ff" points="663.57,-69.4 673.53,-65.79 663.49,-62.4 663.57,-69.4"/>
</a>
</g>
</g>
<!-- Node12&#45;&gt;Node7 -->
<g id="edge17_Node000012_Node000007" class="edge">
<title>Node12&#45;&gt;Node7</title>
<g id="a_edge17_Node000012_Node000007"><a xlink:title=" ">
<path fill="none" stroke="#63b8ff" d="M114.97,-174.01C50.98,-166.96 -25.52,-150.07 9.12,-110 40.08,-74.18 174.29,-66.64 253.67,-65.38"/>
<polygon fill="#63b8ff" stroke="#63b8ff" points="254.06,-68.88 264.01,-65.25 253.97,-61.88 254.06,-68.88"/>
</a>
</g>
</g>
<!-- Node13 -->
<g id="Node000013" class="node">
<title>Node13</title>
<g id="a_Node000013"><a xlink:title=" ">
<polygon fill="#e0e0e0" stroke="#999999" points="130.12,-129 18.12,-129 18.12,-110 130.12,-110 130.12,-129"/>
<text text-anchor="middle" x="74.12" y="-117" font-family="Helvetica,sans-Serif" font-size="10.00">algoim/interval.hpp</text>
</a>
</g>
</g>
<!-- Node12&#45;&gt;Node13 -->
<g id="edge18_Node000012_Node000013" class="edge">
<title>Node12&#45;&gt;Node13</title>
<g id="a_edge18_Node000012_Node000013"><a xlink:title=" ">
<path fill="none" stroke="#63b8ff" d="M173,-170.37C153.9,-160.73 122.75,-145.03 100.52,-133.81"/>
<polygon fill="#63b8ff" stroke="#63b8ff" points="101.81,-130.55 91.3,-129.17 98.66,-136.8 101.81,-130.55"/>
</a>
</g>
</g>
<!-- Node14 -->
<g id="Node000014" class="node">
<title>Node14</title>
<g id="a_Node000014"><a xlink:title=" ">
<polygon fill="#e0e0e0" stroke="#999999" points="236.12,-129 186.12,-129 186.12,-110 236.12,-110 236.12,-129"/>
<text text-anchor="middle" x="211.12" y="-117" font-family="Helvetica,sans-Serif" font-size="10.00">cstdint</text>
</a>
</g>
</g>
<!-- Node12&#45;&gt;Node14 -->
<g id="edge19_Node000012_Node000014" class="edge">
<title>Node12&#45;&gt;Node14</title>
<g id="a_edge19_Node000012_Node000014"><a xlink:title=" ">
<path fill="none" stroke="#63b8ff" d="M193.22,-170.37C196.19,-162.07 200.79,-149.28 204.58,-138.72"/>
<polygon fill="#63b8ff" stroke="#63b8ff" points="207.92,-139.76 208.01,-129.17 201.33,-137.4 207.92,-139.76"/>
</a>
</g>
</g>
<!-- Node15 -->
<g id="Node000015" class="node">
<title>Node15</title>
<g id="a_Node000015"><a xlink:title=" ">
<polygon fill="#e0e0e0" stroke="#999999" points="323.62,-129 254.62,-129 254.62,-110 323.62,-110 323.62,-129"/>
<text text-anchor="middle" x="289.12" y="-117" font-family="Helvetica,sans-Serif" font-size="10.00">type_traits</text>
</a>
</g>
</g>
<!-- Node12&#45;&gt;Node15 -->
<g id="edge20_Node000012_Node000015" class="edge">
<title>Node12&#45;&gt;Node15</title>
<g id="a_edge20_Node000012_Node000015"><a xlink:title=" ">
<path fill="none" stroke="#63b8ff" d="M204.73,-170.37C220.81,-160.86 246.9,-145.45 265.82,-134.27"/>
<polygon fill="#63b8ff" stroke="#63b8ff" points="267.62,-137.27 274.45,-129.17 264.06,-131.24 267.62,-137.27"/>
</a>
</g>
</g>
<!-- Node16&#45;&gt;Node2 -->
<g id="edge22_Node000016_Node000002" class="edge">
<title>Node16&#45;&gt;Node2</title>
<g id="a_edge22_Node000016_Node000002"><a xlink:title=" ">
<path fill="none" stroke="#63b8ff" d="M732.22,-410.2C877.56,-409.27 1250.26,-397.74 1321.12,-305 1355.05,-260.6 1276,-215.34 1230.09,-193.85"/>
<polygon fill="#63b8ff" stroke="#63b8ff" points="1231.4,-190.6 1220.85,-189.63 1228.49,-196.97 1231.4,-190.6"/>
</a>
</g>
</g>
<!-- Node16&#45;&gt;Node4 -->
<g id="edge45_Node000016_Node000004" class="edge">
<title>Node16&#45;&gt;Node4</title>
<g id="a_edge45_Node000016_Node000004"><a xlink:title=" ">
<path fill="none" stroke="#63b8ff" d="M656.84,-395.75C610.66,-356 491.99,-241.75 554.12,-165 572.96,-141.72 651.16,-130.11 706.36,-124.7"/>
<polygon fill="#63b8ff" stroke="#63b8ff" points="706.75,-128.18 716.38,-123.76 706.1,-121.21 706.75,-128.18"/>
</a>
</g>
</g>
<!-- Node16&#45;&gt;Node6 -->
<g id="edge67_Node000016_Node000006" class="edge">
<title>Node16&#45;&gt;Node6</title>
<g id="a_edge67_Node000016_Node000006"><a xlink:title=" ">
<path fill="none" stroke="#63b8ff" d="M732.31,-409.44C866.51,-407.5 1193.96,-398.8 1296.12,-360 1334.09,-345.58 1343.24,-336.31 1369.12,-305 1440.32,-218.86 1479.52,-129.39 1396.12,-55 1369.9,-31.61 1270.56,-18.94 1215.83,-13.6"/>
<polygon fill="#63b8ff" stroke="#63b8ff" points="1216.12,-10.11 1205.84,-12.66 1215.47,-17.08 1216.12,-10.11"/>
</a>
</g>
</g>
<!-- Node16&#45;&gt;Node9 -->
<g id="edge71_Node000016_Node000009" class="edge">
<title>Node16&#45;&gt;Node9</title>
<g id="a_edge71_Node000016_Node000009"><a xlink:title=" ">
<path fill="none" stroke="#63b8ff" d="M732.43,-408.99C861.21,-406.12 1166.08,-395.67 1262.12,-360 1350.42,-327.2 1372.82,-286.51 1395.12,-195 1404.14,-157.99 1412.06,-135.89 1384.12,-110 1336.51,-65.88 1134.19,-63.77 1053.02,-64.77"/>
<polygon fill="#63b8ff" stroke="#63b8ff" points="1052.79,-61.28 1042.84,-64.92 1052.89,-68.28 1052.79,-61.28"/>
</a>
</g>
</g>
<!-- Node16&#45;&gt;Node12 -->
<g id="edge44_Node000016_Node000012" class="edge">
<title>Node16&#45;&gt;Node12</title>
<g id="a_edge44_Node000016_Node000012"><a xlink:title=" ">
<path fill="none" stroke="#63b8ff" d="M616,-405.88C563.82,-400.46 486.11,-388.07 424.12,-360 330.99,-317.83 240.63,-232.39 205.5,-196.95"/>
<polygon fill="#63b8ff" stroke="#63b8ff" points="207.99,-194.5 198.49,-189.81 203,-199.4 207.99,-194.5"/>
</a>
</g>
</g>
<!-- Node17 -->
<g id="Node000017" class="node">
<title>Node17</title>
<g id="a_Node000017"><a xlink:href="../../d6/d49/cart__grid__tp_8hpp.html" target="_top" xlink:title="Definition of Cartesian grid class.">
<polygon fill="white" stroke="#666666" points="834.12,-250 708.12,-250 708.12,-231 834.12,-231 834.12,-250"/>
<text text-anchor="middle" x="771.12" y="-238" font-family="Helvetica,sans-Serif" font-size="10.00">qugar/cart_grid_tp.hpp</text>
</a>
</g>
</g>
<!-- Node16&#45;&gt;Node17 -->
<g id="edge23_Node000016_Node000017" class="edge">
<title>Node16&#45;&gt;Node17</title>
<g id="a_edge23_Node000016_Node000017"><a xlink:title=" ">
<path fill="none" stroke="#63b8ff" d="M664.24,-395.98C648.29,-371.44 620.99,-320.11 645.12,-286 657.61,-268.34 677.71,-257.64 698.23,-251.18"/>
<polygon fill="#63b8ff" stroke="#63b8ff" points="699.31,-254.51 707.98,-248.41 697.41,-247.77 699.31,-254.51"/>
</a>
</g>
</g>
<!-- Node18 -->
<g id="Node000018" class="node">
<title>Node18</title>
<g id="a_Node000018"><a xlink:href="../../d9/d43/tensor__index__tp_8hpp.html" target="_top" xlink:title="Declaration of tensor&#45;product index and size related classes.">
<polygon fill="white" stroke="#666666" points="431.12,-195 321.12,-195 321.12,-165 431.12,-165 431.12,-195"/>
<text text-anchor="start" x="329.12" y="-183" font-family="Helvetica,sans-Serif" font-size="10.00">qugar/tensor_index</text>
<text text-anchor="middle" x="376.12" y="-172" font-family="Helvetica,sans-Serif" font-size="10.00">_tp.hpp</text>
</a>
</g>
</g>
<!-- Node16&#45;&gt;Node18 -->
<g id="edge65_Node000016_Node000018" class="edge">
<title>Node16&#45;&gt;Node18</title>
<g id="a_edge65_Node000016_Node000018"><a xlink:title=" ">
<path fill="none" stroke="#63b8ff" d="M615.92,-403.62C556.78,-396.05 470.37,-381.66 445.12,-360 398.41,-319.94 383.18,-244.47 378.32,-205.56"/>
<polygon fill="#63b8ff" stroke="#63b8ff" points="381.75,-204.73 377.17,-195.18 374.8,-205.51 381.75,-204.73"/>
</a>
</g>
</g>
<!-- Node20 -->
<g id="Node000020" class="node">
<title>Node20</title>
<g id="a_Node000020"><a xlink:title=" ">
<polygon fill="#e0e0e0" stroke="#999999" points="483.62,-129 418.62,-129 418.62,-110 483.62,-110 483.62,-129"/>
<text text-anchor="middle" x="451.12" y="-117" font-family="Helvetica,sans-Serif" font-size="10.00">functional</text>
</a>
</g>
</g>
<!-- Node16&#45;&gt;Node20 -->
<g id="edge68_Node000016_Node000020" class="edge">
<title>Node16&#45;&gt;Node20</title>
<g id="a_edge68_Node000016_Node000020"><a xlink:title=" ">
<path fill="none" stroke="#63b8ff" d="M615.94,-404.21C552.26,-394.29 459.12,-367.62 459.12,-296.5 459.12,-296.5 459.12,-296.5 459.12,-239.5 459.12,-204.07 455.55,-162.85 453.17,-139.4"/>
<polygon fill="#63b8ff" stroke="#63b8ff" points="456.62,-138.73 452.1,-129.15 449.66,-139.46 456.62,-138.73"/>
</a>
</g>
</g>
<!-- Node21 -->
<g id="Node000021" class="node">
<title>Node21</title>
<g id="a_Node000021"><a xlink:href="../../d0/d55/tolerance_8hpp.html" target="_top" xlink:title="Definition of tolerance related functionalities.">
<polygon fill="white" stroke="#666666" points="677.12,-189.5 563.12,-189.5 563.12,-170.5 677.12,-170.5 677.12,-189.5"/>
<text text-anchor="middle" x="620.12" y="-177.5" font-family="Helvetica,sans-Serif" font-size="10.00">qugar/tolerance.hpp</text>
</a>
</g>
</g>
<!-- Node16&#45;&gt;Node21 -->
<g id="edge66_Node000016_Node000021" class="edge">
<title>Node16&#45;&gt;Node21</title>
<g id="a_edge66_Node000016_Node000021"><a xlink:title=" ">
<path fill="none" stroke="#63b8ff" d="M659.26,-395.7C650.62,-386.4 640.41,-373.53 635.12,-360 613.57,-304.93 615.71,-233.22 618.28,-199.75"/>
<polygon fill="#63b8ff" stroke="#63b8ff" points="621.78,-199.86 619.16,-189.59 614.81,-199.25 621.78,-199.86"/>
</a>
</g>
</g>
<!-- Node25 -->
<g id="Node000025" class="node">
<title>Node25</title>
<g id="a_Node000025"><a xlink:href="../../d8/ddc/reparam__mesh_8hpp.html" target="_top" xlink:title="Declaration of reparameterization class.">
<polygon fill="white" stroke="#666666" points="1059.12,-360 917.12,-360 917.12,-341 1059.12,-341 1059.12,-360"/>
<text text-anchor="middle" x="988.12" y="-348" font-family="Helvetica,sans-Serif" font-size="10.00">qugar/reparam_mesh.hpp</text>
</a>
</g>
</g>
<!-- Node16&#45;&gt;Node25 -->
<g id="edge46_Node000016_Node000025" class="edge">
<title>Node16&#45;&gt;Node25</title>
<g id="a_edge46_Node000016_Node000025"><a xlink:title=" ">
<path fill="none" stroke="#63b8ff" d="M732.44,-399.13C789.55,-388.5 875.93,-372.4 932.2,-361.92"/>
<polygon fill="#63b8ff" stroke="#63b8ff" points="933.15,-365.3 942.34,-360.03 931.86,-358.42 933.15,-365.3"/>
</a>
</g>
</g>
<!-- Node28 -->
<g id="Node000028" class="node">
<title>Node28</title>
<g id="a_Node000028"><a xlink:title=" ">
<polygon fill="#e0e0e0" stroke="#999999" points="694.12,-305 654.12,-305 654.12,-286 694.12,-286 694.12,-305"/>
<text text-anchor="middle" x="674.12" y="-293" font-family="Helvetica,sans-Serif" font-size="10.00">span</text>
</a>
</g>
</g>
<!-- Node16&#45;&gt;Node28 -->
<g id="edge69_Node000016_Node000028" class="edge">
<title>Node16&#45;&gt;Node28</title>
<g id="a_edge69_Node000016_Node000028"><a xlink:title=" ">
<path fill="none" stroke="#63b8ff" d="M674.12,-395.63C674.12,-375.21 674.12,-337.81 674.12,-315.24"/>
<polygon fill="#63b8ff" stroke="#63b8ff" points="677.62,-315.23 674.12,-305.23 670.62,-315.23 677.62,-315.23"/>
</a>
</g>
</g>
<!-- Node29 -->
<g id="Node000029" class="node">
<title>Node29</title>
<g id="a_Node000029"><a xlink:title=" ">
<polygon fill="#e0e0e0" stroke="#999999" points="1312.12,-305 1268.12,-305 1268.12,-286 1312.12,-286 1312.12,-305"/>
<text text-anchor="middle" x="1290.12" y="-293" font-family="Helvetica,sans-Serif" font-size="10.00">string</text>
</a>
</g>
</g>
<!-- Node16&#45;&gt;Node29 -->
<g id="edge70_Node000016_Node000029" class="edge">
<title>Node16&#45;&gt;Node29</title>
<g id="a_edge70_Node000016_Node000029"><a xlink:title=" ">
<path fill="none" stroke="#63b8ff" d="M732.32,-405.41C809.6,-398.67 950.09,-384.22 1068.12,-360 1137.01,-345.86 1215.74,-321.28 1258.47,-307.21"/>
<polygon fill="#63b8ff" stroke="#63b8ff" points="1259.64,-310.51 1268.02,-304.04 1257.43,-303.86 1259.64,-310.51"/>
</a>
</g>
</g>
<!-- Node17&#45;&gt;Node2 -->
<g id="edge24_Node000017_Node000002" class="edge">
<title>Node17&#45;&gt;Node2</title>
<g id="a_edge24_Node000017_Node000002"><a xlink:title=" ">
<path fill="none" stroke="#63b8ff" d="M834.36,-234.52C909.04,-228.05 1036.8,-215.14 1145.12,-195 1149.83,-194.12 1154.75,-193.07 1159.61,-191.95"/>
<polygon fill="#63b8ff" stroke="#63b8ff" points="1160.55,-195.32 1169.44,-189.56 1158.9,-188.52 1160.55,-195.32"/>
</a>
</g>
</g>
<!-- Node17&#45;&gt;Node4 -->
<g id="edge25_Node000017_Node000004" class="edge">
<title>Node17&#45;&gt;Node4</title>
<g id="a_edge25_Node000017_Node000004"><a xlink:title=" ">
<path fill="none" stroke="#63b8ff" d="M776.96,-230.76C782.37,-222.1 790.02,-208.26 793.12,-195 796.15,-182.02 797.02,-177.75 793.12,-165 790.03,-154.9 783.8,-145.02 777.81,-137.15"/>
<polygon fill="#63b8ff" stroke="#63b8ff" points="780.36,-134.74 771.33,-129.2 774.94,-139.16 780.36,-134.74"/>
</a>
</g>
</g>
<!-- Node17&#45;&gt;Node5 -->
<g id="edge38_Node000017_Node000005" class="edge">
<title>Node17&#45;&gt;Node5</title>
<g id="a_edge38_Node000017_Node000005"><a xlink:title=" ">
<path fill="none" stroke="#63b8ff" d="M771.97,-230.93C772.99,-216.24 773.18,-185.82 760.12,-165 744.98,-140.88 720.45,-154.16 707.12,-129 699.54,-114.69 704.85,-96.48 710.98,-83.23"/>
<polygon fill="#63b8ff" stroke="#63b8ff" points="714.16,-84.71 715.63,-74.22 707.94,-81.5 714.16,-84.71"/>
</a>
</g>
</g>
<!-- Node17&#45;&gt;Node6 -->
<g id="edge40_Node000017_Node000006" class="edge">
<title>Node17&#45;&gt;Node6</title>
<g id="a_edge40_Node000017_Node000006"><a xlink:title=" ">
<path fill="none" stroke="#63b8ff" d="M786.8,-230.87C801.74,-222.41 824.63,-208.8 843.12,-195 878.44,-168.65 885.5,-159.7 917.12,-129 949.6,-97.46 947.84,-77.51 987.12,-55 1036.17,-26.88 1101.89,-16.52 1142.32,-12.71"/>
<polygon fill="#63b8ff" stroke="#63b8ff" points="1142.86,-16.18 1152.53,-11.84 1142.27,-9.2 1142.86,-16.18"/>
</a>
</g>
</g>
<!-- Node17&#45;&gt;Node9 -->
<g id="edge43_Node000017_Node000009" class="edge">
<title>Node17&#45;&gt;Node9</title>
<g id="a_edge43_Node000017_Node000009"><a xlink:title=" ">
<path fill="none" stroke="#63b8ff" d="M834.15,-233.5C888.62,-227.04 961.86,-214.94 983.12,-195 1014.09,-165.96 1019.22,-112.79 1019.6,-84.46"/>
<polygon fill="#63b8ff" stroke="#63b8ff" points="1023.1,-84.26 1019.54,-74.29 1016.1,-84.31 1023.1,-84.26"/>
</a>
</g>
</g>
<!-- Node17&#45;&gt;Node11 -->
<g id="edge39_Node000017_Node000011" class="edge">
<title>Node17&#45;&gt;Node11</title>
<g id="a_edge39_Node000017_Node000011"><a xlink:title=" ">
<path fill="none" stroke="#63b8ff" d="M779.46,-230.94C798.68,-211.23 846.33,-162.34 871.3,-136.73"/>
<polygon fill="#63b8ff" stroke="#63b8ff" points="874.06,-138.91 878.54,-129.3 869.05,-134.02 874.06,-138.91"/>
</a>
</g>
</g>
<!-- Node17&#45;&gt;Node18 -->
<g id="edge26_Node000017_Node000018" class="edge">
<title>Node17&#45;&gt;Node18</title>
<g id="a_edge26_Node000017_Node000018"><a xlink:title=" ">
<path fill="none" stroke="#63b8ff" d="M713.68,-230.99C641.29,-220.27 517.19,-201.89 441.31,-190.66"/>
<polygon fill="#63b8ff" stroke="#63b8ff" points="441.8,-187.19 431.39,-189.19 440.77,-194.11 441.8,-187.19"/>
</a>
</g>
</g>
<!-- Node17&#45;&gt;Node21 -->
<g id="edge33_Node000017_Node000021" class="edge">
<title>Node17&#45;&gt;Node21</title>
<g id="a_edge33_Node000017_Node000021"><a xlink:title=" ">
<path fill="none" stroke="#63b8ff" d="M749.16,-230.99C723.44,-221.03 680.64,-204.45 651.44,-193.13"/>
<polygon fill="#63b8ff" stroke="#63b8ff" points="652.69,-189.87 642.1,-189.52 650.16,-196.39 652.69,-189.87"/>
</a>
</g>
</g>
<!-- Node17&#45;&gt;Node23 -->
<g id="edge41_Node000017_Node000023" class="edge">
<title>Node17&#45;&gt;Node23</title>
<g id="a_edge41_Node000017_Node000023"><a xlink:title=" ">
<path fill="none" stroke="#63b8ff" d="M819.98,-230.99C887.08,-219.31 1006.42,-198.53 1067.99,-187.81"/>
<polygon fill="#63b8ff" stroke="#63b8ff" points="1068.82,-191.22 1078.07,-186.06 1067.62,-184.32 1068.82,-191.22"/>
</a>
</g>
</g>
<!-- Node24 -->
<g id="Node000024" class="node">
<title>Node24</title>
<g id="a_Node000024"><a xlink:title=" ">
<polygon fill="#e0e0e0" stroke="#999999" points="751.12,-189.5 695.12,-189.5 695.12,-170.5 751.12,-170.5 751.12,-189.5"/>
<text text-anchor="middle" x="723.12" y="-177.5" font-family="Helvetica,sans-Serif" font-size="10.00">optional</text>
</a>
</g>
</g>
<!-- Node17&#45;&gt;Node24 -->
<g id="edge42_Node000017_Node000024" class="edge">
<title>Node17&#45;&gt;Node24</title>
<g id="a_edge42_Node000017_Node000024"><a xlink:title=" ">
<path fill="none" stroke="#63b8ff" d="M764.04,-230.87C756.87,-222.14 745.63,-208.43 736.73,-197.59"/>
<polygon fill="#63b8ff" stroke="#63b8ff" points="739.28,-195.18 730.23,-189.67 733.87,-199.62 739.28,-195.18"/>
</a>
</g>
</g>
<!-- Node18&#45;&gt;Node6 -->
<g id="edge30_Node000018_Node000006" class="edge">
<title>Node18&#45;&gt;Node6</title>
<g id="a_edge30_Node000018_Node000006"><a xlink:title=" ">
<path fill="none" stroke="#63b8ff" d="M379,-164.76C382.98,-148.92 391.72,-123.75 409.12,-110 500.1,-38.13 549.47,-72.25 664.12,-55 842.2,-28.21 1057.53,-16.08 1142.3,-12.08"/>
<polygon fill="#63b8ff" stroke="#63b8ff" points="1142.62,-15.57 1152.45,-11.62 1142.29,-8.58 1142.62,-15.57"/>
</a>
</g>
</g>
<!-- Node18&#45;&gt;Node7 -->
<g id="edge27_Node000018_Node000007" class="edge">
<title>Node18&#45;&gt;Node7</title>
<g id="a_edge27_Node000018_Node000007"><a xlink:title=" ">
<path fill="none" stroke="#63b8ff" d="M368.14,-164.63C356.6,-143.84 335.29,-105.44 322.84,-83.02"/>
<polygon fill="#63b8ff" stroke="#63b8ff" points="325.88,-81.27 317.96,-74.23 319.76,-84.67 325.88,-81.27"/>
</a>
</g>
</g>
<!-- Node18&#45;&gt;Node11 -->
<g id="edge28_Node000018_Node000011" class="edge">
<title>Node18&#45;&gt;Node11</title>
<g id="a_edge28_Node000018_Node000011"><a xlink:title=" ">
<path fill="none" stroke="#63b8ff" d="M431.26,-172.94C514.93,-163.71 678.92,-145.45 818.12,-129 830.42,-127.55 843.94,-125.89 855.73,-124.43"/>
<polygon fill="#63b8ff" stroke="#63b8ff" points="856.49,-127.87 865.99,-123.16 855.63,-120.92 856.49,-127.87"/>
</a>
</g>
</g>
<!-- Node18&#45;&gt;Node15 -->
<g id="edge32_Node000018_Node000015" class="edge">
<title>Node18&#45;&gt;Node15</title>
<g id="a_edge32_Node000018_Node000015"><a xlink:title=" ">
<path fill="none" stroke="#63b8ff" d="M355.06,-164.84C341.57,-155.77 324.13,-144.04 310.57,-134.92"/>
<polygon fill="#63b8ff" stroke="#63b8ff" points="312.15,-131.77 301.9,-129.09 308.25,-137.58 312.15,-131.77"/>
</a>
</g>
</g>
<!-- Node19 -->
<g id="Node000019" class="node">
<title>Node19</title>
<g id="a_Node000019"><a xlink:title=" ">
<polygon fill="#e0e0e0" stroke="#999999" points="554.12,-129 502.12,-129 502.12,-110 554.12,-110 554.12,-129"/>
<text text-anchor="middle" x="528.12" y="-117" font-family="Helvetica,sans-Serif" font-size="10.00">cassert</text>
</a>
</g>
</g>
<!-- Node18&#45;&gt;Node19 -->
<g id="edge29_Node000018_Node000019" class="edge">
<title>Node18&#45;&gt;Node19</title>
<g id="a_edge29_Node000018_Node000019"><a xlink:title=" ">
<path fill="none" stroke="#63b8ff" d="M412.53,-164.99C438,-155.18 471.71,-142.21 496.14,-132.81"/>
<polygon fill="#63b8ff" stroke="#63b8ff" points="497.6,-136 505.67,-129.14 495.08,-129.46 497.6,-136"/>
</a>
</g>
</g>
<!-- Node18&#45;&gt;Node20 -->
<g id="edge31_Node000018_Node000020" class="edge">
<title>Node18&#45;&gt;Node20</title>
<g id="a_edge31_Node000018_Node000020"><a xlink:title=" ">
<path fill="none" stroke="#63b8ff" d="M394.27,-164.84C405.61,-156 420.18,-144.63 431.74,-135.62"/>
<polygon fill="#63b8ff" stroke="#63b8ff" points="434.15,-138.18 439.88,-129.27 429.84,-132.66 434.15,-138.18"/>
</a>
</g>
</g>
<!-- Node21&#45;&gt;Node4 -->
<g id="edge34_Node000021_Node000004" class="edge">
<title>Node21&#45;&gt;Node4</title>
<g id="a_edge34_Node000021_Node000004"><a xlink:title=" ">
<path fill="none" stroke="#63b8ff" d="M640.91,-170.49C665.06,-160.62 705.1,-144.23 732.73,-132.93"/>
<polygon fill="#63b8ff" stroke="#63b8ff" points="734.37,-136.04 742.3,-129.02 731.72,-129.56 734.37,-136.04"/>
</a>
</g>
</g>
<!-- Node21&#45;&gt;Node5 -->
<g id="edge35_Node000021_Node000005" class="edge">
<title>Node21&#45;&gt;Node5</title>
<g id="a_edge35_Node000021_Node000005"><a xlink:title=" ">
<path fill="none" stroke="#63b8ff" d="M613.36,-170.15C603.59,-156.2 588.06,-128.77 601.12,-110 615.39,-89.49 640.27,-78.41 663.69,-72.44"/>
<polygon fill="#63b8ff" stroke="#63b8ff" points="664.63,-75.81 673.6,-70.18 663.08,-68.99 664.63,-75.81"/>
</a>
</g>
</g>
<!-- Node21&#45;&gt;Node9 -->
<g id="edge37_Node000021_Node000009" class="edge">
<title>Node21&#45;&gt;Node9</title>
<g id="a_edge37_Node000021_Node000009"><a xlink:title=" ">
<path fill="none" stroke="#63b8ff" d="M657.87,-170.44C706.69,-159.21 788.9,-139.68 818.12,-129 836.23,-122.38 839.08,-116.8 857.12,-110 900.46,-93.65 952.37,-80.46 985.54,-72.8"/>
<polygon fill="#63b8ff" stroke="#63b8ff" points="986.64,-76.14 995.62,-70.51 985.09,-69.32 986.64,-76.14"/>
</a>
</g>
</g>
<!-- Node22 -->
<g id="Node000022" class="node">
<title>Node22</title>
<g id="a_Node000022"><a xlink:title=" ">
<polygon fill="#e0e0e0" stroke="#999999" points="659.62,-129 610.62,-129 610.62,-110 659.62,-110 659.62,-129"/>
<text text-anchor="middle" x="635.12" y="-117" font-family="Helvetica,sans-Serif" font-size="10.00">cstdlib</text>
</a>
</g>
</g>
<!-- Node21&#45;&gt;Node22 -->
<g id="edge36_Node000021_Node000022" class="edge">
<title>Node21&#45;&gt;Node22</title>
<g id="a_edge36_Node000021_Node000022"><a xlink:title=" ">
<path fill="none" stroke="#63b8ff" d="M622.33,-170.37C624.44,-162.16 627.67,-149.54 630.36,-139.05"/>
<polygon fill="#63b8ff" stroke="#63b8ff" points="633.8,-139.72 632.9,-129.17 627.02,-137.98 633.8,-139.72"/>
</a>
</g>
</g>
<!-- Node25&#45;&gt;Node2 -->
<g id="edge47_Node000025_Node000002" class="edge">
<title>Node25&#45;&gt;Node2</title>
<g id="a_edge47_Node000025_Node000002"><a xlink:title=" ">
<path fill="none" stroke="#63b8ff" d="M1016.99,-340.87C1038.68,-333.52 1068.43,-321.5 1091.12,-305 1133.44,-274.22 1170.84,-224.27 1188.81,-198.15"/>
<polygon fill="#63b8ff" stroke="#63b8ff" points="1191.83,-199.94 1194.52,-189.69 1186.03,-196.02 1191.83,-199.94"/>
</a>
</g>
</g>
<!-- Node25&#45;&gt;Node4 -->
<g id="edge49_Node000025_Node000004" class="edge">
<title>Node25&#45;&gt;Node4</title>
<g id="a_edge49_Node000025_Node000004"><a xlink:title=" ">
<path fill="none" stroke="#63b8ff" d="M965.52,-340.89C947.72,-333.34 923.01,-321.04 905.12,-305 848.95,-254.64 857.81,-222.63 809.12,-165 800.44,-154.73 789.7,-144.23 780.77,-136.01"/>
<polygon fill="#63b8ff" stroke="#63b8ff" points="782.97,-133.28 773.2,-129.18 778.28,-138.47 782.97,-133.28"/>
</a>
</g>
</g>
<!-- Node25&#45;&gt;Node6 -->
<g id="edge60_Node000025_Node000006" class="edge">
<title>Node25&#45;&gt;Node6</title>
<g id="a_edge60_Node000025_Node000006"><a xlink:title=" ">
<path fill="none" stroke="#63b8ff" d="M1045.5,-340.97C1100.92,-332.2 1180.53,-318.01 1209.12,-305 1313.58,-257.44 1363.72,-238.51 1398.12,-129 1408.52,-95.88 1400.01,-76.96 1373.12,-55 1328.09,-18.23 1258.46,-10.57 1216.01,-9.64"/>
<polygon fill="#63b8ff" stroke="#63b8ff" points="1215.87,-6.14 1205.83,-9.53 1215.8,-13.14 1215.87,-6.14"/>
</a>
</g>
</g>
<!-- Node25&#45;&gt;Node9 -->
<g id="edge64_Node000025_Node000009" class="edge">
<title>Node25&#45;&gt;Node9</title>
<g id="a_edge64_Node000025_Node000009"><a xlink:title=" ">
<path fill="none" stroke="#63b8ff" d="M1030.68,-340.92C1150.08,-315.1 1472.67,-232.27 1365.12,-110 1344.66,-86.75 1136.03,-72.24 1052.97,-67.35"/>
<polygon fill="#63b8ff" stroke="#63b8ff" points="1052.98,-63.85 1042.8,-66.77 1052.58,-70.84 1052.98,-63.85"/>
</a>
</g>
</g>
<!-- Node25&#45;&gt;Node17 -->
<g id="edge48_Node000025_Node000017" class="edge">
<title>Node25&#45;&gt;Node17</title>
<g id="a_edge48_Node000025_Node000017"><a xlink:title=" ">
<path fill="none" stroke="#63b8ff" d="M947.56,-340.96C918.68,-333.87 879.59,-322.14 848.12,-305 824.49,-292.13 801.2,-271.52 786.53,-257.29"/>
<polygon fill="#63b8ff" stroke="#63b8ff" points="788.88,-254.69 779.32,-250.12 783.95,-259.65 788.88,-254.69"/>
</a>
</g>
</g>
<!-- Node25&#45;&gt;Node21 -->
<g id="edge50_Node000025_Node000021" class="edge">
<title>Node25&#45;&gt;Node21</title>
<g id="a_edge50_Node000025_Node000021"><a xlink:title=" ">
<path fill="none" stroke="#63b8ff" d="M941.95,-340.96C882.15,-328.32 776.42,-300.5 699.12,-250 675.19,-234.37 650.91,-211.97 635.7,-196.98"/>
<polygon fill="#63b8ff" stroke="#63b8ff" points="637.79,-194.11 628.25,-189.5 632.83,-199.05 637.79,-194.11"/>
</a>
</g>
</g>
<!-- Node25&#45;&gt;Node23 -->
<g id="edge61_Node000025_Node000023" class="edge">
<title>Node25&#45;&gt;Node23</title>
<g id="a_edge61_Node000025_Node000023"><a xlink:title=" ">
<path fill="none" stroke="#63b8ff" d="M1016.11,-340.88C1034.24,-333.93 1057.02,-322.41 1071.12,-305 1096.31,-273.89 1103.87,-225.84 1106.14,-199.63"/>
<polygon fill="#63b8ff" stroke="#63b8ff" points="1109.64,-199.77 1106.84,-189.55 1102.66,-199.28 1109.64,-199.77"/>
</a>
</g>
</g>
<!-- Node26 -->
<g id="Node000026" class="node">
<title>Node26</title>
<g id="a_Node000026"><a xlink:href="../../d2/dfd/unfitted__domain_8hpp.html" target="_top" xlink:title="Declaration of of UnfittedDomain class.">
<polygon fill="white" stroke="#666666" points="1062.12,-305 914.12,-305 914.12,-286 1062.12,-286 1062.12,-305"/>
<text text-anchor="middle" x="988.12" y="-293" font-family="Helvetica,sans-Serif" font-size="10.00">qugar/unfitted_domain.hpp</text>
</a>
</g>
</g>
<!-- Node25&#45;&gt;Node26 -->
<g id="edge51_Node000025_Node000026" class="edge">
<title>Node25&#45;&gt;Node26</title>
<g id="a_edge51_Node000025_Node000026"><a xlink:title=" ">
<path fill="none" stroke="#63b8ff" d="M988.12,-340.75C988.12,-333.8 988.12,-323.85 988.12,-315.13"/>
<polygon fill="#63b8ff" stroke="#63b8ff" points="991.62,-315.09 988.12,-305.09 984.62,-315.09 991.62,-315.09"/>
</a>
</g>
</g>
<!-- Node25&#45;&gt;Node28 -->
<g id="edge62_Node000025_Node000028" class="edge">
<title>Node25&#45;&gt;Node28</title>
<g id="a_edge62_Node000025_Node000028"><a xlink:title=" ">
<path fill="none" stroke="#63b8ff" d="M924.45,-341C867.51,-333.01 781.91,-320.06 708.12,-305 706.84,-304.74 705.55,-304.46 704.24,-304.18"/>
<polygon fill="#63b8ff" stroke="#63b8ff" points="704.72,-300.7 694.19,-301.83 703.13,-307.51 704.72,-300.7"/>
</a>
</g>
</g>
<!-- Node25&#45;&gt;Node29 -->
<g id="edge63_Node000025_Node000029" class="edge">
<title>Node25&#45;&gt;Node29</title>
<g id="a_edge63_Node000025_Node000029"><a xlink:title=" ">
<path fill="none" stroke="#63b8ff" d="M1045.66,-341C1099.67,-332.75 1182.63,-319.4 1254.12,-305 1255.39,-304.74 1256.69,-304.47 1258,-304.2"/>
<polygon fill="#63b8ff" stroke="#63b8ff" points="1259.09,-307.54 1268.08,-301.95 1257.56,-300.71 1259.09,-307.54"/>
</a>
</g>
</g>
<!-- Node26&#45;&gt;Node6 -->
<g id="edge55_Node000026_Node000006" class="edge">
<title>Node26&#45;&gt;Node6</title>
<g id="a_edge55_Node000026_Node000006"><a xlink:title=" ">
<path fill="none" stroke="#63b8ff" d="M1062.32,-288.41C1156.39,-276.17 1314.34,-239.37 1381.12,-129 1421.96,-61.5 1284.84,-28.25 1216.07,-16.1"/>
<polygon fill="#63b8ff" stroke="#63b8ff" points="1216.5,-12.63 1206.05,-14.4 1215.32,-19.53 1216.5,-12.63"/>
</a>
</g>
</g>
<!-- Node26&#45;&gt;Node9 -->
<g id="edge59_Node000026_Node000009" class="edge">
<title>Node26&#45;&gt;Node9</title>
<g id="a_edge59_Node000026_Node000009"><a xlink:title=" ">
<path fill="none" stroke="#63b8ff" d="M992.75,-285.88C997.29,-277.09 1004.1,-262.94 1008.12,-250 1024.33,-197.8 1025.21,-183.44 1030.12,-129 1030.88,-120.59 1031.14,-118.38 1030.12,-110 1029.06,-101.31 1026.88,-91.87 1024.74,-83.93"/>
<polygon fill="#63b8ff" stroke="#63b8ff" points="1028.08,-82.89 1021.95,-74.25 1021.35,-84.83 1028.08,-82.89"/>
</a>
</g>
</g>
<!-- Node26&#45;&gt;Node11 -->
<g id="edge53_Node000026_Node000011" class="edge">
<title>Node26&#45;&gt;Node11</title>
<g id="a_edge53_Node000026_Node000011"><a xlink:title=" ">
<path fill="none" stroke="#63b8ff" d="M991.14,-285.92C995.06,-273.36 1000.54,-249.47 993.12,-231 976.17,-188.86 934.63,-153.75 908.87,-135.05"/>
<polygon fill="#63b8ff" stroke="#63b8ff" points="910.68,-132.04 900.49,-129.14 906.64,-137.76 910.68,-132.04"/>
</a>
</g>
</g>
<!-- Node26&#45;&gt;Node14 -->
<g id="edge56_Node000026_Node000014" class="edge">
<title>Node26&#45;&gt;Node14</title>
<g id="a_edge56_Node000026_Node000014"><a xlink:title=" ">
<path fill="none" stroke="#63b8ff" d="M914,-288.56C761.75,-275.56 419.12,-241.94 312.12,-195 292.41,-186.36 291.36,-177.88 274.12,-165 260.31,-154.68 244.45,-143.49 232.1,-134.91"/>
<polygon fill="#63b8ff" stroke="#63b8ff" points="234.03,-131.98 223.81,-129.17 230.04,-137.74 234.03,-131.98"/>
</a>
</g>
</g>
<!-- Node26&#45;&gt;Node17 -->
<g id="edge52_Node000026_Node000017" class="edge">
<title>Node26&#45;&gt;Node17</title>
<g id="a_edge52_Node000026_Node000017"><a xlink:title=" ">
<path fill="none" stroke="#63b8ff" d="M953.25,-285.98C916.03,-276.89 856.92,-262.46 816.19,-252.51"/>
<polygon fill="#63b8ff" stroke="#63b8ff" points="816.8,-249.05 806.26,-250.08 815.14,-255.85 816.8,-249.05"/>
</a>
</g>
</g>
<!-- Node26&#45;&gt;Node19 -->
<g id="edge54_Node000026_Node000019" class="edge">
<title>Node26&#45;&gt;Node19</title>
<g id="a_edge54_Node000026_Node000019"><a xlink:title=" ">
<path fill="none" stroke="#63b8ff" d="M913.91,-288.49C854.83,-282.43 770.5,-270.87 699.12,-250 679.06,-244.14 675.54,-238.7 656.12,-231 611.43,-213.27 588.05,-229.05 554.12,-195 539.19,-180.02 532.81,-156.02 530.1,-139.32"/>
<polygon fill="#63b8ff" stroke="#63b8ff" points="533.53,-138.58 528.75,-129.13 526.59,-139.5 533.53,-138.58"/>
</a>
</g>
</g>
<!-- Node26&#45;&gt;Node23 -->
<g id="edge57_Node000026_Node000023" class="edge">
<title>Node26&#45;&gt;Node23</title>
<g id="a_edge57_Node000026_Node000023"><a xlink:title=" ">
<path fill="none" stroke="#63b8ff" d="M1008.62,-285.85C1025.03,-278.19 1047.9,-265.78 1064.12,-250 1079.41,-235.13 1091.63,-213.77 1099.08,-198.76"/>
<polygon fill="#63b8ff" stroke="#63b8ff" points="1102.33,-200.08 1103.45,-189.55 1096,-197.08 1102.33,-200.08"/>
</a>
</g>
</g>
<!-- Node27 -->
<g id="Node000027" class="node">
<title>Node27</title>
<g id="a_Node000027"><a xlink:title=" ">
<polygon fill="#e0e0e0" stroke="#999999" points="983.62,-250 890.62,-250 890.62,-231 983.62,-231 983.62,-250"/>
<text text-anchor="middle" x="937.12" y="-238" font-family="Helvetica,sans-Serif" font-size="10.00">unordered_map</text>
</a>
</g>
</g>
<!-- Node26&#45;&gt;Node27 -->
<g id="edge58_Node000026_Node000027" class="edge">
<title>Node26&#45;&gt;Node27</title>
<g id="a_edge58_Node000026_Node000027"><a xlink:title=" ">
<path fill="none" stroke="#63b8ff" d="M979.7,-285.75C972.34,-278.11 961.49,-266.82 952.58,-257.56"/>
<polygon fill="#63b8ff" stroke="#63b8ff" points="954.84,-254.87 945.38,-250.09 949.8,-259.72 954.84,-254.87"/>
</a>
</g>
</g>
</g>
</svg>
