<?xml version="1.0" encoding="UTF-8" standalone="no"?>
<!DOCTYPE svg PUBLIC "-//W3C//DTD SVG 1.1//EN"
 "http://www.w3.org/Graphics/SVG/1.1/DTD/svg11.dtd">
<!-- Generated by graphviz version 2.43.0 (0)
 -->
<!-- Title: qugar::BoundBox::slice Pages: 1 -->
<svg width="300pt" height="64pt"
 viewBox="0.00 0.00 300.00 64.00" xmlns="http://www.w3.org/2000/svg" xmlns:xlink="http://www.w3.org/1999/xlink">
<g id="graph0" class="graph" transform="scale(1 1) rotate(0) translate(4 60)">
<title>qugar::BoundBox::slice</title>
<!-- Node1 -->
<g id="Node000001" class="node">
<title>Node1</title>
<g id="a_Node000001"><a xlink:title="Performs a slice of the domain reduding it by one dimension.">
<polygon fill="#999999" stroke="#666666" points="128,-37 0,-37 0,-18 128,-18 128,-37"/>
<text text-anchor="middle" x="64" y="-25" font-family="Helvetica,sans-Serif" font-size="10.00">qugar::BoundBox::slice</text>
</a>
</g>
</g>
<!-- Node2 -->
<g id="Node000002" class="node">
<title>Node2</title>
<g id="a_Node000002"><a xlink:href="../../d2/dfe/classqugar_1_1BoundBox.html#a0f89ca72c5b7e7e6656d7c0f1d6675c8" target="_top" xlink:title="Gets the maxnimum value of the box for 1D boxes.">
<polygon fill="white" stroke="#666666" points="292,-56 164,-56 164,-37 292,-37 292,-56"/>
<text text-anchor="middle" x="228" y="-44" font-family="Helvetica,sans-Serif" font-size="10.00">qugar::BoundBox::max</text>
</a>
</g>
</g>
<!-- Node1&#45;&gt;Node2 -->
<g id="edge1_Node000001_Node000002" class="edge">
<title>Node1&#45;&gt;Node2</title>
<g id="a_edge1_Node000001_Node000002"><a xlink:title=" ">
<path fill="none" stroke="#63b8ff" d="M128.1,-34.9C136.53,-35.89 145.23,-36.91 153.81,-37.92"/>
<polygon fill="#63b8ff" stroke="#63b8ff" points="153.47,-41.4 163.81,-39.09 154.28,-34.45 153.47,-41.4"/>
</a>
</g>
</g>
<!-- Node3 -->
<g id="Node000003" class="node">
<title>Node3</title>
<g id="a_Node000003"><a xlink:href="../../d2/dfe/classqugar_1_1BoundBox.html#ab5395a5d21e2765a044ded1ffe2929ff" target="_top" xlink:title="Gets the minimum value of the box for 1D boxes.">
<polygon fill="white" stroke="#666666" points="290.5,-19 165.5,-19 165.5,0 290.5,0 290.5,-19"/>
<text text-anchor="middle" x="228" y="-7" font-family="Helvetica,sans-Serif" font-size="10.00">qugar::BoundBox::min</text>
</a>
</g>
</g>
<!-- Node1&#45;&gt;Node3 -->
<g id="edge2_Node000001_Node000003" class="edge">
<title>Node1&#45;&gt;Node3</title>
<g id="a_edge2_Node000001_Node000003"><a xlink:title=" ">
<path fill="none" stroke="#63b8ff" d="M128.1,-20.49C137.01,-19.5 146.22,-18.48 155.27,-17.47"/>
<polygon fill="#63b8ff" stroke="#63b8ff" points="155.85,-20.93 165.4,-16.34 155.08,-13.97 155.85,-20.93"/>
</a>
</g>
</g>
</g>
</svg>
