<?xml version="1.0" encoding="UTF-8" standalone="no"?>
<!DOCTYPE svg PUBLIC "-//W3C//DTD SVG 1.1//EN"
 "http://www.w3.org/Graphics/SVG/1.1/DTD/svg11.dtd">
<!-- Generated by graphviz version 2.43.0 (0)
 -->
<!-- Title: qugar::impl::funcs::Ellipsoid&lt; dim &gt; Pages: 1 -->
<svg width="272pt" height="104pt"
 viewBox="0.00 0.00 272.00 104.00" xmlns="http://www.w3.org/2000/svg" xmlns:xlink="http://www.w3.org/1999/xlink">
<g id="graph0" class="graph" transform="scale(1 1) rotate(0) translate(4 100)">
<title>qugar::impl::funcs::Ellipsoid&lt; dim &gt;</title>
<!-- Node1 -->
<g id="Node000001" class="node">
<title>Node1</title>
<g id="a_Node000001"><a xlink:title="Dimension independent ellipsoidal function. The function is defined by the ellipsoid&#39;s semi&#45;axes and ...">
<polygon fill="#999999" stroke="#666666" points="187,-30 82,-30 82,0 187,0 187,-30"/>
<text text-anchor="start" x="90" y="-18" font-family="Helvetica,sans-Serif" font-size="10.00">qugar::impl::funcs</text>
<text text-anchor="middle" x="134.5" y="-7" font-family="Helvetica,sans-Serif" font-size="10.00">::Ellipsoid&lt; dim &gt;</text>
</a>
</g>
</g>
<!-- Node2 -->
<g id="Node000002" class="node">
<title>Node2</title>
<g id="a_Node000002"><a xlink:href="../../d9/d7e/classqugar_1_1impl_1_1funcs_1_1EllipsoidBase.html" target="_top" xlink:title="Dimension independent ellipsoidal function (base cass). The function is defined by the ellipsoid&#39;s se...">
<polygon fill="white" stroke="#666666" points="129,-96 0,-96 0,-66 129,-66 129,-96"/>
<text text-anchor="start" x="8" y="-84" font-family="Helvetica,sans-Serif" font-size="10.00">qugar::impl::funcs</text>
<text text-anchor="middle" x="64.5" y="-73" font-family="Helvetica,sans-Serif" font-size="10.00">::EllipsoidBase&lt; dim &gt;</text>
</a>
</g>
</g>
<!-- Node2&#45;&gt;Node1 -->
<g id="edge1_Node000001_Node000002" class="edge">
<title>Node2&#45;&gt;Node1</title>
<g id="a_edge1_Node000001_Node000002"><a xlink:title=" ">
<path fill="none" stroke="#63b8ff" d="M87.55,-58.92C97.87,-49.49 109.77,-38.61 119.01,-30.16"/>
<polygon fill="#63b8ff" stroke="#63b8ff" points="85.05,-56.47 80.04,-65.8 89.78,-61.63 85.05,-56.47"/>
</a>
</g>
</g>
<!-- Node3 -->
<g id="Node000003" class="node">
<title>Node3</title>
<g id="a_Node000003"><a xlink:href="../../dd/d80/classqugar_1_1impl_1_1DomainFunc.html" target="_top" xlink:title="Domain functions.">
<polygon fill="white" stroke="#666666" points="264,-90.5 147,-90.5 147,-71.5 264,-71.5 264,-90.5"/>
<text text-anchor="middle" x="205.5" y="-78.5" font-family="Helvetica,sans-Serif" font-size="10.00">ImplicitFunc&lt; dim &gt;</text>
</a>
</g>
</g>
<!-- Node3&#45;&gt;Node1 -->
<g id="edge2_Node000001_Node000003" class="edge">
<title>Node3&#45;&gt;Node1</title>
<g id="a_edge2_Node000001_Node000003"><a xlink:title=" ">
<path fill="none" stroke="#63b8ff" d="M188.21,-64.41C176.59,-53.94 161.42,-40.26 150.16,-30.12"/>
<polygon fill="#63b8ff" stroke="#63b8ff" points="186.15,-67.27 195.92,-71.37 190.84,-62.07 186.15,-67.27"/>
</a>
</g>
</g>
</g>
</svg>
