<?xml version="1.0" encoding="UTF-8" standalone="no"?>
<!DOCTYPE svg PUBLIC "-//W3C//DTD SVG 1.1//EN"
 "http://www.w3.org/Graphics/SVG/1.1/DTD/svg11.dtd">
<!-- Generated by graphviz version 2.43.0 (0)
 -->
<!-- Title: qugar::impl::funcs::TorusBase::TorusBase Pages: 1 -->
<svg width="314pt" height="182pt"
 viewBox="0.00 0.00 314.00 182.00" xmlns="http://www.w3.org/2000/svg" xmlns:xlink="http://www.w3.org/1999/xlink">
<g id="graph0" class="graph" transform="scale(1 1) rotate(0) translate(4 178)">
<title>qugar::impl::funcs::TorusBase::TorusBase</title>
<!-- Node1 -->
<g id="Node000001" class="node">
<title>Node1</title>
<g id="a_Node000001"><a xlink:title="Constructor.">
<polygon fill="#999999" stroke="#666666" points="128,-102 0,-102 0,-72 128,-72 128,-102"/>
<text text-anchor="start" x="8" y="-90" font-family="Helvetica,sans-Serif" font-size="10.00">qugar::impl::funcs</text>
<text text-anchor="middle" x="64" y="-79" font-family="Helvetica,sans-Serif" font-size="10.00">::TorusBase::TorusBase</text>
</a>
</g>
</g>
<!-- Node2 -->
<g id="Node000002" class="node">
<title>Node2</title>
<g id="a_Node000002"><a xlink:href="../../db/dc8/classqugar_1_1impl_1_1funcs_1_1TorusBase.html#ac9b0df6ba8326fa09c214ddf82d91d3c" target="_top" xlink:title="Gets the axis of the plane.">
<polygon fill="white" stroke="#666666" points="287,-174 183,-174 183,-144 287,-144 287,-174"/>
<text text-anchor="start" x="191" y="-162" font-family="Helvetica,sans-Serif" font-size="10.00">qugar::impl::funcs</text>
<text text-anchor="middle" x="235" y="-151" font-family="Helvetica,sans-Serif" font-size="10.00">::TorusBase::axis</text>
</a>
</g>
</g>
<!-- Node1&#45;&gt;Node2 -->
<g id="edge1_Node000001_Node000002" class="edge">
<title>Node1&#45;&gt;Node2</title>
<g id="a_edge1_Node000001_Node000002"><a xlink:title=" ">
<path fill="none" stroke="#63b8ff" d="M93.6,-102.01C113.15,-111.98 139.81,-125.03 164,-135 168.44,-136.83 173.08,-138.64 177.77,-140.39"/>
<polygon fill="#63b8ff" stroke="#63b8ff" points="176.8,-143.76 187.39,-143.9 179.2,-137.19 176.8,-143.76"/>
</a>
</g>
</g>
<!-- Node3 -->
<g id="Node000003" class="node">
<title>Node3</title>
<g id="a_Node000003"><a xlink:href="../../db/dc8/classqugar_1_1impl_1_1funcs_1_1TorusBase.html#a097ef719a844f0213bfcdd876046b7f7" target="_top" xlink:title="Gets the center of the plane.">
<polygon fill="white" stroke="#666666" points="289.5,-126 180.5,-126 180.5,-96 289.5,-96 289.5,-126"/>
<text text-anchor="start" x="188.5" y="-114" font-family="Helvetica,sans-Serif" font-size="10.00">qugar::impl::funcs</text>
<text text-anchor="middle" x="235" y="-103" font-family="Helvetica,sans-Serif" font-size="10.00">::TorusBase::center</text>
</a>
</g>
</g>
<!-- Node1&#45;&gt;Node3 -->
<g id="edge2_Node000001_Node000003" class="edge">
<title>Node1&#45;&gt;Node3</title>
<g id="a_edge2_Node000001_Node000003"><a xlink:title=" ">
<path fill="none" stroke="#63b8ff" d="M128.41,-96C142.07,-97.94 156.51,-100 170.19,-101.94"/>
<polygon fill="#63b8ff" stroke="#63b8ff" points="170.07,-105.46 180.47,-103.4 171.06,-98.53 170.07,-105.46"/>
</a>
</g>
</g>
<!-- Node4 -->
<g id="Node000004" class="node">
<title>Node4</title>
<g id="a_Node000004"><a xlink:href="../../db/dc8/classqugar_1_1impl_1_1funcs_1_1TorusBase.html#a07d898d07b21b70d9d3615f49cb45dd9" target="_top" xlink:title="Gets the major radius of the torus.">
<polygon fill="white" stroke="#666666" points="306,-78 164,-78 164,-48 306,-48 306,-78"/>
<text text-anchor="start" x="172" y="-66" font-family="Helvetica,sans-Serif" font-size="10.00">qugar::impl::funcs</text>
<text text-anchor="middle" x="235" y="-55" font-family="Helvetica,sans-Serif" font-size="10.00">::TorusBase::major_radius</text>
</a>
</g>
</g>
<!-- Node1&#45;&gt;Node4 -->
<g id="edge3_Node000001_Node000004" class="edge">
<title>Node1&#45;&gt;Node4</title>
<g id="a_edge3_Node000001_Node000004"><a xlink:title=" ">
<path fill="none" stroke="#63b8ff" d="M128.41,-78C136.76,-76.81 145.4,-75.58 153.98,-74.36"/>
<polygon fill="#63b8ff" stroke="#63b8ff" points="154.59,-77.81 164,-72.94 153.61,-70.88 154.59,-77.81"/>
</a>
</g>
</g>
<!-- Node5 -->
<g id="Node000005" class="node">
<title>Node5</title>
<g id="a_Node000005"><a xlink:href="../../db/dc8/classqugar_1_1impl_1_1funcs_1_1TorusBase.html#ac3bc8990d1ef8e5336df983c33cbee12" target="_top" xlink:title="Gets the minor radius of the torus.">
<polygon fill="white" stroke="#666666" points="306,-30 164,-30 164,0 306,0 306,-30"/>
<text text-anchor="start" x="172" y="-18" font-family="Helvetica,sans-Serif" font-size="10.00">qugar::impl::funcs</text>
<text text-anchor="middle" x="235" y="-7" font-family="Helvetica,sans-Serif" font-size="10.00">::TorusBase::minor_radius</text>
</a>
</g>
</g>
<!-- Node1&#45;&gt;Node5 -->
<g id="edge4_Node000001_Node000005" class="edge">
<title>Node1&#45;&gt;Node5</title>
<g id="a_edge4_Node000001_Node000005"><a xlink:title=" ">
<path fill="none" stroke="#63b8ff" d="M93.6,-71.99C113.15,-62.02 139.81,-48.97 164,-39 168.44,-37.17 173.08,-35.36 177.77,-33.61"/>
<polygon fill="#63b8ff" stroke="#63b8ff" points="179.2,-36.81 187.39,-30.1 176.8,-30.24 179.2,-36.81"/>
</a>
</g>
</g>
</g>
</svg>
