<?xml version="1.0" encoding="UTF-8" standalone="no"?>
<!DOCTYPE svg PUBLIC "-//W3C//DTD SVG 1.1//EN"
 "http://www.w3.org/Graphics/SVG/1.1/DTD/svg11.dtd">
<!-- Generated by graphviz version 2.43.0 (0)
 -->
<!-- Title: qugar::impl::funcs::TorusBase::center Pages: 1 -->
<svg width="314pt" height="278pt"
 viewBox="0.00 0.00 314.00 278.00" xmlns="http://www.w3.org/2000/svg" xmlns:xlink="http://www.w3.org/1999/xlink">
<g id="graph0" class="graph" transform="scale(1 1) rotate(0) translate(4 274)">
<title>qugar::impl::funcs::TorusBase::center</title>
<!-- Node1 -->
<g id="Node000001" class="node">
<title>Node1</title>
<g id="a_Node000001"><a xlink:title="Gets the center of the plane.">
<polygon fill="#999999" stroke="#666666" points="306,-150 197,-150 197,-120 306,-120 306,-150"/>
<text text-anchor="start" x="205" y="-138" font-family="Helvetica,sans-Serif" font-size="10.00">qugar::impl::funcs</text>
<text text-anchor="middle" x="251.5" y="-127" font-family="Helvetica,sans-Serif" font-size="10.00">::TorusBase::center</text>
</a>
</g>
</g>
<!-- Node2 -->
<g id="Node000002" class="node">
<title>Node2</title>
<g id="a_Node000002"><a xlink:href="../../d0/dc9/classqugar_1_1impl_1_1funcs_1_1TorusBzr.html#a7df0c67d420a5c1a12adae9bbaf4071c" target="_top" xlink:title="Creates a polynomial representation based on monomials for the given radii, center,...">
<polygon fill="white" stroke="#666666" points="161,-270 0,-270 0,-240 161,-240 161,-270"/>
<text text-anchor="start" x="8" y="-258" font-family="Helvetica,sans-Serif" font-size="10.00">qugar::impl::funcs</text>
<text text-anchor="middle" x="80.5" y="-247" font-family="Helvetica,sans-Serif" font-size="10.00">::TorusBzr::create_monomials</text>
</a>
</g>
</g>
<!-- Node1&#45;&gt;Node2 -->
<g id="edge1_Node000001_Node000002" class="edge">
<title>Node1&#45;&gt;Node2</title>
<g id="a_edge1_Node000001_Node000002"><a xlink:title=" ">
<path fill="none" stroke="#63b8ff" d="M234.15,-158.72C217.96,-180.5 191.26,-212.16 161,-231 155.49,-234.43 149.46,-237.39 143.27,-239.95"/>
<polygon fill="#63b8ff" stroke="#63b8ff" points="237.19,-160.49 240.23,-150.34 231.52,-156.38 237.19,-160.49"/>
</a>
</g>
</g>
<!-- Node3 -->
<g id="Node000003" class="node">
<title>Node3</title>
<g id="a_Node000003"><a xlink:href="../../db/d99/classqugar_1_1impl_1_1funcs_1_1Torus.html#aa42295f237f9a41f3ed17ff564e103ff" target="_top" xlink:title="Constructor.">
<polygon fill="white" stroke="#666666" points="132.5,-222 28.5,-222 28.5,-192 132.5,-192 132.5,-222"/>
<text text-anchor="start" x="36.5" y="-210" font-family="Helvetica,sans-Serif" font-size="10.00">qugar::impl::funcs</text>
<text text-anchor="middle" x="80.5" y="-199" font-family="Helvetica,sans-Serif" font-size="10.00">::Torus::Torus</text>
</a>
</g>
</g>
<!-- Node1&#45;&gt;Node3 -->
<g id="edge2_Node000001_Node000003" class="edge">
<title>Node1&#45;&gt;Node3</title>
<g id="a_edge2_Node000001_Node000003"><a xlink:title=" ">
<path fill="none" stroke="#63b8ff" d="M216.97,-155.04C200.49,-164.35 180.1,-175.09 161,-183 152.08,-186.7 142.38,-190.1 132.92,-193.12"/>
<polygon fill="#63b8ff" stroke="#63b8ff" points="218.76,-158.05 225.69,-150.04 215.28,-151.97 218.76,-158.05"/>
</a>
</g>
</g>
<!-- Node4 -->
<g id="Node000004" class="node">
<title>Node4</title>
<g id="a_Node000004"><a xlink:href="../../db/d99/classqugar_1_1impl_1_1funcs_1_1Torus.html#a07b3d75e8236880e28c722af245dee54" target="_top" xlink:title="Constructor.">
<polygon fill="white" stroke="#666666" points="132.5,-174 28.5,-174 28.5,-144 132.5,-144 132.5,-174"/>
<text text-anchor="start" x="36.5" y="-162" font-family="Helvetica,sans-Serif" font-size="10.00">qugar::impl::funcs</text>
<text text-anchor="middle" x="80.5" y="-151" font-family="Helvetica,sans-Serif" font-size="10.00">::Torus::Torus</text>
</a>
</g>
</g>
<!-- Node1&#45;&gt;Node4 -->
<g id="edge3_Node000001_Node000004" class="edge">
<title>Node1&#45;&gt;Node4</title>
<g id="a_edge3_Node000001_Node000004"><a xlink:title=" ">
<path fill="none" stroke="#63b8ff" d="M186.29,-144.12C168.54,-146.64 149.52,-149.34 132.62,-151.74"/>
<polygon fill="#63b8ff" stroke="#63b8ff" points="187.15,-147.53 196.56,-142.66 186.17,-140.6 187.15,-147.53"/>
</a>
</g>
</g>
<!-- Node5 -->
<g id="Node000005" class="node">
<title>Node5</title>
<g id="a_Node000005"><a xlink:href="../../db/dc8/classqugar_1_1impl_1_1funcs_1_1TorusBase.html#a2c4cc38a701bfb4ee5404be84e102ece" target="_top" xlink:title="Constructor.">
<polygon fill="white" stroke="#666666" points="144.5,-126 16.5,-126 16.5,-96 144.5,-96 144.5,-126"/>
<text text-anchor="start" x="24.5" y="-114" font-family="Helvetica,sans-Serif" font-size="10.00">qugar::impl::funcs</text>
<text text-anchor="middle" x="80.5" y="-103" font-family="Helvetica,sans-Serif" font-size="10.00">::TorusBase::TorusBase</text>
</a>
</g>
</g>
<!-- Node1&#45;&gt;Node5 -->
<g id="edge4_Node000001_Node000005" class="edge">
<title>Node1&#45;&gt;Node5</title>
<g id="a_edge4_Node000001_Node000005"><a xlink:title=" ">
<path fill="none" stroke="#63b8ff" d="M186.3,-125.88C172.65,-123.94 158.26,-121.9 144.65,-119.97"/>
<polygon fill="#63b8ff" stroke="#63b8ff" points="186.17,-129.4 196.56,-127.34 187.15,-122.47 186.17,-129.4"/>
</a>
</g>
</g>
<!-- Node6 -->
<g id="Node000006" class="node">
<title>Node6</title>
<g id="a_Node000006"><a xlink:href="../../d0/dc9/classqugar_1_1impl_1_1funcs_1_1TorusBzr.html#abd650830f833a3e3631ffa9699d1bbff" target="_top" xlink:title="Constructor.">
<polygon fill="white" stroke="#666666" points="136,-78 25,-78 25,-48 136,-48 136,-78"/>
<text text-anchor="start" x="33" y="-66" font-family="Helvetica,sans-Serif" font-size="10.00">qugar::impl::funcs</text>
<text text-anchor="middle" x="80.5" y="-55" font-family="Helvetica,sans-Serif" font-size="10.00">::TorusBzr::TorusBzr</text>
</a>
</g>
</g>
<!-- Node1&#45;&gt;Node6 -->
<g id="edge5_Node000001_Node000006" class="edge">
<title>Node1&#45;&gt;Node6</title>
<g id="a_edge5_Node000001_Node000006"><a xlink:title=" ">
<path fill="none" stroke="#63b8ff" d="M216.97,-114.96C200.49,-105.65 180.1,-94.91 161,-87 153.14,-83.74 144.68,-80.71 136.32,-77.98"/>
<polygon fill="#63b8ff" stroke="#63b8ff" points="215.28,-118.03 225.69,-119.96 218.76,-111.95 215.28,-118.03"/>
</a>
</g>
</g>
<!-- Node7 -->
<g id="Node000007" class="node">
<title>Node7</title>
<g id="a_Node000007"><a xlink:href="../../d0/dc9/classqugar_1_1impl_1_1funcs_1_1TorusBzr.html#a84feae4b3db326df5ba7a9ee64df6080" target="_top" xlink:title="Constructor.">
<polygon fill="white" stroke="#666666" points="136,-30 25,-30 25,0 136,0 136,-30"/>
<text text-anchor="start" x="33" y="-18" font-family="Helvetica,sans-Serif" font-size="10.00">qugar::impl::funcs</text>
<text text-anchor="middle" x="80.5" y="-7" font-family="Helvetica,sans-Serif" font-size="10.00">::TorusBzr::TorusBzr</text>
</a>
</g>
</g>
<!-- Node1&#45;&gt;Node7 -->
<g id="edge6_Node000001_Node000007" class="edge">
<title>Node1&#45;&gt;Node7</title>
<g id="a_edge6_Node000001_Node000007"><a xlink:title=" ">
<path fill="none" stroke="#63b8ff" d="M234.15,-111.28C217.96,-89.5 191.26,-57.84 161,-39 153.41,-34.28 144.84,-30.43 136.2,-27.32"/>
<polygon fill="#63b8ff" stroke="#63b8ff" points="231.52,-113.62 240.23,-119.66 237.19,-109.51 231.52,-113.62"/>
</a>
</g>
</g>
</g>
</svg>
