<?xml version="1.0" encoding="UTF-8" standalone="no"?>
<!DOCTYPE svg PUBLIC "-//W3C//DTD SVG 1.1//EN"
 "http://www.w3.org/Graphics/SVG/1.1/DTD/svg11.dtd">
<!-- Generated by graphviz version 2.43.0 (0)
 -->
<!-- Title: qugar::impl::funcs::TorusBase::minor_radius Pages: 1 -->
<svg width="347pt" height="374pt"
 viewBox="0.00 0.00 347.00 374.00" xmlns="http://www.w3.org/2000/svg" xmlns:xlink="http://www.w3.org/1999/xlink">
<g id="graph0" class="graph" transform="scale(1 1) rotate(0) translate(4 370)">
<title>qugar::impl::funcs::TorusBase::minor_radius</title>
<!-- Node1 -->
<g id="Node000001" class="node">
<title>Node1</title>
<g id="a_Node000001"><a xlink:title="Gets the minor radius of the torus.">
<polygon fill="#999999" stroke="#666666" points="339,-198 197,-198 197,-168 339,-168 339,-198"/>
<text text-anchor="start" x="205" y="-186" font-family="Helvetica,sans-Serif" font-size="10.00">qugar::impl::funcs</text>
<text text-anchor="middle" x="268" y="-175" font-family="Helvetica,sans-Serif" font-size="10.00">::TorusBase::minor_radius</text>
</a>
</g>
</g>
<!-- Node2 -->
<g id="Node000002" class="node">
<title>Node2</title>
<g id="a_Node000002"><a xlink:href="../../d0/dc9/classqugar_1_1impl_1_1funcs_1_1TorusBzr.html#a7df0c67d420a5c1a12adae9bbaf4071c" target="_top" xlink:title="Creates a polynomial representation based on monomials for the given radii, center,...">
<polygon fill="white" stroke="#666666" points="161,-366 0,-366 0,-336 161,-336 161,-366"/>
<text text-anchor="start" x="8" y="-354" font-family="Helvetica,sans-Serif" font-size="10.00">qugar::impl::funcs</text>
<text text-anchor="middle" x="80.5" y="-343" font-family="Helvetica,sans-Serif" font-size="10.00">::TorusBzr::create_monomials</text>
</a>
</g>
</g>
<!-- Node1&#45;&gt;Node2 -->
<g id="edge1_Node000001_Node000002" class="edge">
<title>Node1&#45;&gt;Node2</title>
<g id="a_edge1_Node000001_Node000002"><a xlink:title=" ">
<path fill="none" stroke="#63b8ff" d="M255.44,-207.27C238.93,-239.36 205.59,-295.52 161,-327 156.17,-330.41 150.85,-333.34 145.32,-335.86"/>
<polygon fill="#63b8ff" stroke="#63b8ff" points="258.66,-208.64 260.02,-198.14 252.41,-205.51 258.66,-208.64"/>
</a>
</g>
</g>
<!-- Node3 -->
<g id="Node000003" class="node">
<title>Node3</title>
<g id="a_Node000003"><a xlink:href="../../db/d99/classqugar_1_1impl_1_1funcs_1_1Torus.html#a111614b614530434ffa6091b82a481cd" target="_top" xlink:title="Constructor.">
<polygon fill="white" stroke="#666666" points="132.5,-318 28.5,-318 28.5,-288 132.5,-288 132.5,-318"/>
<text text-anchor="start" x="36.5" y="-306" font-family="Helvetica,sans-Serif" font-size="10.00">qugar::impl::funcs</text>
<text text-anchor="middle" x="80.5" y="-295" font-family="Helvetica,sans-Serif" font-size="10.00">::Torus::Torus</text>
</a>
</g>
</g>
<!-- Node1&#45;&gt;Node3 -->
<g id="edge2_Node000001_Node000003" class="edge">
<title>Node1&#45;&gt;Node3</title>
<g id="a_edge2_Node000001_Node000003"><a xlink:title=" ">
<path fill="none" stroke="#63b8ff" d="M247.5,-205.73C227.74,-227.43 195.26,-259.63 161,-279 152.21,-283.97 142.29,-288.01 132.51,-291.27"/>
<polygon fill="#63b8ff" stroke="#63b8ff" points="250.13,-208.04 254.19,-198.25 244.92,-203.37 250.13,-208.04"/>
</a>
</g>
</g>
<!-- Node4 -->
<g id="Node000004" class="node">
<title>Node4</title>
<g id="a_Node000004"><a xlink:href="../../db/d99/classqugar_1_1impl_1_1funcs_1_1Torus.html#aa42295f237f9a41f3ed17ff564e103ff" target="_top" xlink:title="Constructor.">
<polygon fill="white" stroke="#666666" points="132.5,-270 28.5,-270 28.5,-240 132.5,-240 132.5,-270"/>
<text text-anchor="start" x="36.5" y="-258" font-family="Helvetica,sans-Serif" font-size="10.00">qugar::impl::funcs</text>
<text text-anchor="middle" x="80.5" y="-247" font-family="Helvetica,sans-Serif" font-size="10.00">::Torus::Torus</text>
</a>
</g>
</g>
<!-- Node1&#45;&gt;Node4 -->
<g id="edge3_Node000001_Node000004" class="edge">
<title>Node1&#45;&gt;Node4</title>
<g id="a_edge3_Node000001_Node000004"><a xlink:title=" ">
<path fill="none" stroke="#63b8ff" d="M227.12,-202.56C207.47,-211.82 183.27,-222.64 161,-231 151.96,-234.4 142.2,-237.66 132.73,-240.62"/>
<polygon fill="#63b8ff" stroke="#63b8ff" points="228.85,-205.62 236.38,-198.17 225.84,-199.3 228.85,-205.62"/>
</a>
</g>
</g>
<!-- Node5 -->
<g id="Node000005" class="node">
<title>Node5</title>
<g id="a_Node000005"><a xlink:href="../../db/d99/classqugar_1_1impl_1_1funcs_1_1Torus.html#a07b3d75e8236880e28c722af245dee54" target="_top" xlink:title="Constructor.">
<polygon fill="white" stroke="#666666" points="132.5,-222 28.5,-222 28.5,-192 132.5,-192 132.5,-222"/>
<text text-anchor="start" x="36.5" y="-210" font-family="Helvetica,sans-Serif" font-size="10.00">qugar::impl::funcs</text>
<text text-anchor="middle" x="80.5" y="-199" font-family="Helvetica,sans-Serif" font-size="10.00">::Torus::Torus</text>
</a>
</g>
</g>
<!-- Node1&#45;&gt;Node5 -->
<g id="edge4_Node000001_Node000005" class="edge">
<title>Node1&#45;&gt;Node5</title>
<g id="a_edge4_Node000001_Node000005"><a xlink:title=" ">
<path fill="none" stroke="#63b8ff" d="M186.76,-193.38C168.41,-195.76 149.39,-198.22 132.65,-200.38"/>
<polygon fill="#63b8ff" stroke="#63b8ff" points="187.4,-196.83 196.87,-192.07 186.5,-189.89 187.4,-196.83"/>
</a>
</g>
</g>
<!-- Node6 -->
<g id="Node000006" class="node">
<title>Node6</title>
<g id="a_Node000006"><a xlink:href="../../db/dc8/classqugar_1_1impl_1_1funcs_1_1TorusBase.html#a2c4cc38a701bfb4ee5404be84e102ece" target="_top" xlink:title="Constructor.">
<polygon fill="white" stroke="#666666" points="144.5,-174 16.5,-174 16.5,-144 144.5,-144 144.5,-174"/>
<text text-anchor="start" x="24.5" y="-162" font-family="Helvetica,sans-Serif" font-size="10.00">qugar::impl::funcs</text>
<text text-anchor="middle" x="80.5" y="-151" font-family="Helvetica,sans-Serif" font-size="10.00">::TorusBase::TorusBase</text>
</a>
</g>
</g>
<!-- Node1&#45;&gt;Node6 -->
<g id="edge5_Node000001_Node000006" class="edge">
<title>Node1&#45;&gt;Node6</title>
<g id="a_edge5_Node000001_Node000006"><a xlink:title=" ">
<path fill="none" stroke="#63b8ff" d="M186.72,-172.61C172.67,-170.8 158.23,-168.93 144.72,-167.18"/>
<polygon fill="#63b8ff" stroke="#63b8ff" points="186.5,-176.11 196.87,-173.93 187.4,-169.17 186.5,-176.11"/>
</a>
</g>
</g>
<!-- Node7 -->
<g id="Node000007" class="node">
<title>Node7</title>
<g id="a_Node000007"><a xlink:href="../../d0/dc9/classqugar_1_1impl_1_1funcs_1_1TorusBzr.html#a5b87679661c81b888dd57144f27faeb0" target="_top" xlink:title="Constructor.">
<polygon fill="white" stroke="#666666" points="136,-126 25,-126 25,-96 136,-96 136,-126"/>
<text text-anchor="start" x="33" y="-114" font-family="Helvetica,sans-Serif" font-size="10.00">qugar::impl::funcs</text>
<text text-anchor="middle" x="80.5" y="-103" font-family="Helvetica,sans-Serif" font-size="10.00">::TorusBzr::TorusBzr</text>
</a>
</g>
</g>
<!-- Node1&#45;&gt;Node7 -->
<g id="edge6_Node000001_Node000007" class="edge">
<title>Node1&#45;&gt;Node7</title>
<g id="a_edge6_Node000001_Node000007"><a xlink:title=" ">
<path fill="none" stroke="#63b8ff" d="M227.12,-163.44C207.47,-154.18 183.27,-143.36 161,-135 152.63,-131.86 143.65,-128.83 134.85,-126.05"/>
<polygon fill="#63b8ff" stroke="#63b8ff" points="225.84,-166.7 236.38,-167.83 228.85,-160.38 225.84,-166.7"/>
</a>
</g>
</g>
<!-- Node8 -->
<g id="Node000008" class="node">
<title>Node8</title>
<g id="a_Node000008"><a xlink:href="../../d0/dc9/classqugar_1_1impl_1_1funcs_1_1TorusBzr.html#abd650830f833a3e3631ffa9699d1bbff" target="_top" xlink:title="Constructor.">
<polygon fill="white" stroke="#666666" points="136,-78 25,-78 25,-48 136,-48 136,-78"/>
<text text-anchor="start" x="33" y="-66" font-family="Helvetica,sans-Serif" font-size="10.00">qugar::impl::funcs</text>
<text text-anchor="middle" x="80.5" y="-55" font-family="Helvetica,sans-Serif" font-size="10.00">::TorusBzr::TorusBzr</text>
</a>
</g>
</g>
<!-- Node1&#45;&gt;Node8 -->
<g id="edge7_Node000001_Node000008" class="edge">
<title>Node1&#45;&gt;Node8</title>
<g id="a_edge7_Node000001_Node000008"><a xlink:title=" ">
<path fill="none" stroke="#63b8ff" d="M247.5,-160.27C227.74,-138.57 195.26,-106.37 161,-87 153.34,-82.67 144.82,-79.04 136.28,-76.03"/>
<polygon fill="#63b8ff" stroke="#63b8ff" points="244.92,-162.63 254.19,-167.75 250.13,-157.96 244.92,-162.63"/>
</a>
</g>
</g>
<!-- Node9 -->
<g id="Node000009" class="node">
<title>Node9</title>
<g id="a_Node000009"><a xlink:href="../../d0/dc9/classqugar_1_1impl_1_1funcs_1_1TorusBzr.html#a84feae4b3db326df5ba7a9ee64df6080" target="_top" xlink:title="Constructor.">
<polygon fill="white" stroke="#666666" points="136,-30 25,-30 25,0 136,0 136,-30"/>
<text text-anchor="start" x="33" y="-18" font-family="Helvetica,sans-Serif" font-size="10.00">qugar::impl::funcs</text>
<text text-anchor="middle" x="80.5" y="-7" font-family="Helvetica,sans-Serif" font-size="10.00">::TorusBzr::TorusBzr</text>
</a>
</g>
</g>
<!-- Node1&#45;&gt;Node9 -->
<g id="edge8_Node000001_Node000009" class="edge">
<title>Node1&#45;&gt;Node9</title>
<g id="a_edge8_Node000001_Node000009"><a xlink:title=" ">
<path fill="none" stroke="#63b8ff" d="M255.44,-158.73C238.93,-126.64 205.59,-70.48 161,-39 153.58,-33.76 145,-29.65 136.27,-26.42"/>
<polygon fill="#63b8ff" stroke="#63b8ff" points="252.41,-160.49 260.02,-167.86 258.66,-157.36 252.41,-160.49"/>
</a>
</g>
</g>
</g>
</svg>
