<?xml version="1.0" encoding="UTF-8" standalone="no"?>
<!DOCTYPE svg PUBLIC "-//W3C//DTD SVG 1.1//EN"
 "http://www.w3.org/Graphics/SVG/1.1/DTD/svg11.dtd">
<!-- Generated by graphviz version 2.43.0 (0)
 -->
<!-- Title: qugar::impl::funcs::TorusBase::axis Pages: 1 -->
<svg width="309pt" height="182pt"
 viewBox="0.00 0.00 309.00 182.00" xmlns="http://www.w3.org/2000/svg" xmlns:xlink="http://www.w3.org/1999/xlink">
<g id="graph0" class="graph" transform="scale(1 1) rotate(0) translate(4 178)">
<title>qugar::impl::funcs::TorusBase::axis</title>
<!-- Node1 -->
<g id="Node000001" class="node">
<title>Node1</title>
<g id="a_Node000001"><a xlink:title="Gets the axis of the plane.">
<polygon fill="#999999" stroke="#666666" points="301,-102 197,-102 197,-72 301,-72 301,-102"/>
<text text-anchor="start" x="205" y="-90" font-family="Helvetica,sans-Serif" font-size="10.00">qugar::impl::funcs</text>
<text text-anchor="middle" x="249" y="-79" font-family="Helvetica,sans-Serif" font-size="10.00">::TorusBase::axis</text>
</a>
</g>
</g>
<!-- Node2 -->
<g id="Node000002" class="node">
<title>Node2</title>
<g id="a_Node000002"><a xlink:href="../../d0/dc9/classqugar_1_1impl_1_1funcs_1_1TorusBzr.html#a7df0c67d420a5c1a12adae9bbaf4071c" target="_top" xlink:title="Creates a polynomial representation based on monomials for the given radii, center,...">
<polygon fill="white" stroke="#666666" points="161,-174 0,-174 0,-144 161,-144 161,-174"/>
<text text-anchor="start" x="8" y="-162" font-family="Helvetica,sans-Serif" font-size="10.00">qugar::impl::funcs</text>
<text text-anchor="middle" x="80.5" y="-151" font-family="Helvetica,sans-Serif" font-size="10.00">::TorusBzr::create_monomials</text>
</a>
</g>
</g>
<!-- Node1&#45;&gt;Node2 -->
<g id="edge1_Node000001_Node000002" class="edge">
<title>Node1&#45;&gt;Node2</title>
<g id="a_edge1_Node000001_Node000002"><a xlink:title=" ">
<path fill="none" stroke="#63b8ff" d="M215.03,-107.35C199.1,-116.61 179.47,-127.22 161,-135 153.29,-138.25 145,-141.25 136.78,-143.96"/>
<polygon fill="#63b8ff" stroke="#63b8ff" points="217.11,-110.18 223.94,-102.08 213.55,-104.16 217.11,-110.18"/>
</a>
</g>
</g>
<!-- Node3 -->
<g id="Node000003" class="node">
<title>Node3</title>
<g id="a_Node000003"><a xlink:href="../../db/d99/classqugar_1_1impl_1_1funcs_1_1Torus.html#a07b3d75e8236880e28c722af245dee54" target="_top" xlink:title="Constructor.">
<polygon fill="white" stroke="#666666" points="132.5,-126 28.5,-126 28.5,-96 132.5,-96 132.5,-126"/>
<text text-anchor="start" x="36.5" y="-114" font-family="Helvetica,sans-Serif" font-size="10.00">qugar::impl::funcs</text>
<text text-anchor="middle" x="80.5" y="-103" font-family="Helvetica,sans-Serif" font-size="10.00">::Torus::Torus</text>
</a>
</g>
</g>
<!-- Node1&#45;&gt;Node3 -->
<g id="edge2_Node000001_Node000003" class="edge">
<title>Node1&#45;&gt;Node3</title>
<g id="a_edge2_Node000001_Node000003"><a xlink:title=" ">
<path fill="none" stroke="#63b8ff" d="M186.45,-95.87C168.75,-98.42 149.64,-101.18 132.64,-103.63"/>
<polygon fill="#63b8ff" stroke="#63b8ff" points="187.29,-99.29 196.69,-94.4 186.29,-92.36 187.29,-99.29"/>
</a>
</g>
</g>
<!-- Node4 -->
<g id="Node000004" class="node">
<title>Node4</title>
<g id="a_Node000004"><a xlink:href="../../db/dc8/classqugar_1_1impl_1_1funcs_1_1TorusBase.html#a2c4cc38a701bfb4ee5404be84e102ece" target="_top" xlink:title="Constructor.">
<polygon fill="white" stroke="#666666" points="144.5,-78 16.5,-78 16.5,-48 144.5,-48 144.5,-78"/>
<text text-anchor="start" x="24.5" y="-66" font-family="Helvetica,sans-Serif" font-size="10.00">qugar::impl::funcs</text>
<text text-anchor="middle" x="80.5" y="-55" font-family="Helvetica,sans-Serif" font-size="10.00">::TorusBase::TorusBase</text>
</a>
</g>
</g>
<!-- Node1&#45;&gt;Node4 -->
<g id="edge3_Node000001_Node000004" class="edge">
<title>Node1&#45;&gt;Node4</title>
<g id="a_edge3_Node000001_Node000004"><a xlink:title=" ">
<path fill="none" stroke="#63b8ff" d="M186.46,-78.13C172.83,-76.16 158.37,-74.08 144.68,-72.11"/>
<polygon fill="#63b8ff" stroke="#63b8ff" points="186.29,-81.64 196.69,-79.6 187.29,-74.71 186.29,-81.64"/>
</a>
</g>
</g>
<!-- Node5 -->
<g id="Node000005" class="node">
<title>Node5</title>
<g id="a_Node000005"><a xlink:href="../../d0/dc9/classqugar_1_1impl_1_1funcs_1_1TorusBzr.html#a84feae4b3db326df5ba7a9ee64df6080" target="_top" xlink:title="Constructor.">
<polygon fill="white" stroke="#666666" points="136,-30 25,-30 25,0 136,0 136,-30"/>
<text text-anchor="start" x="33" y="-18" font-family="Helvetica,sans-Serif" font-size="10.00">qugar::impl::funcs</text>
<text text-anchor="middle" x="80.5" y="-7" font-family="Helvetica,sans-Serif" font-size="10.00">::TorusBzr::TorusBzr</text>
</a>
</g>
</g>
<!-- Node1&#45;&gt;Node5 -->
<g id="edge4_Node000001_Node000005" class="edge">
<title>Node1&#45;&gt;Node5</title>
<g id="a_edge4_Node000001_Node000005"><a xlink:title=" ">
<path fill="none" stroke="#63b8ff" d="M215.03,-66.65C199.1,-57.39 179.47,-46.78 161,-39 153.16,-35.7 144.71,-32.64 136.35,-29.9"/>
<polygon fill="#63b8ff" stroke="#63b8ff" points="213.55,-69.84 223.94,-71.92 217.11,-63.82 213.55,-69.84"/>
</a>
</g>
</g>
</g>
</svg>
