<?xml version="1.0" encoding="UTF-8" standalone="no"?>
<!DOCTYPE svg PUBLIC "-//W3C//DTD SVG 1.1//EN"
 "http://www.w3.org/Graphics/SVG/1.1/DTD/svg11.dtd">
<!-- Generated by graphviz version 2.43.0 (0)
 -->
<!-- Title: /__w/qugar/qugar/cpp/include/qugar/cut_quadrature.hpp Pages: 1 -->
<svg width="1486pt" height="445pt"
 viewBox="0.00 0.00 1486.32 445.00" xmlns="http://www.w3.org/2000/svg" xmlns:xlink="http://www.w3.org/1999/xlink">
<g id="graph0" class="graph" transform="scale(1 1) rotate(0) translate(4 441)">
<title>/__w/qugar/qugar/cpp/include/qugar/cut_quadrature.hpp</title>
<!-- Node1 -->
<g id="Node000001" class="node">
<title>Node1</title>
<g id="a_Node000001"><a xlink:title="Definition of cut quadrature for unfitted domains.">
<polygon fill="#999999" stroke="#666666" points="249.5,-437 66.5,-437 66.5,-407 249.5,-407 249.5,-437"/>
<text text-anchor="start" x="74.5" y="-425" font-family="Helvetica,sans-Serif" font-size="10.00">/__w/qugar/qugar/cpp</text>
<text text-anchor="middle" x="158" y="-414" font-family="Helvetica,sans-Serif" font-size="10.00">/include/qugar/cut_quadrature.hpp</text>
</a>
</g>
</g>
<!-- Node2 -->
<g id="Node000002" class="node">
<title>Node2</title>
<g id="a_Node000002"><a xlink:href="../../d0/de4/point_8hpp.html" target="_top" xlink:title="Definition and implementation of Point class.">
<polygon fill="white" stroke="#666666" points="340.5,-129 247.5,-129 247.5,-110 340.5,-110 340.5,-129"/>
<text text-anchor="middle" x="294" y="-117" font-family="Helvetica,sans-Serif" font-size="10.00">qugar/point.hpp</text>
</a>
</g>
</g>
<!-- Node1&#45;&gt;Node2 -->
<g id="edge1_Node000001_Node000002" class="edge">
<title>Node1&#45;&gt;Node2</title>
<g id="a_edge1_Node000001_Node000002"><a xlink:title=" ">
<path fill="none" stroke="#63b8ff" d="M147.58,-406.72C118.33,-364.75 41.32,-240 101,-165 109.6,-154.19 183.41,-139.43 237.2,-129.92"/>
<polygon fill="#63b8ff" stroke="#63b8ff" points="238.08,-133.32 247.32,-128.16 236.87,-126.43 238.08,-133.32"/>
</a>
</g>
</g>
<!-- Node3 -->
<g id="Node000003" class="node">
<title>Node3</title>
<g id="a_Node000003"><a xlink:href="../../dd/de3/types_8hpp.html" target="_top" xlink:title="Declaration of types.">
<polygon fill="white" stroke="#666666" points="864.5,-74 769.5,-74 769.5,-55 864.5,-55 864.5,-74"/>
<text text-anchor="middle" x="817" y="-62" font-family="Helvetica,sans-Serif" font-size="10.00">qugar/types.hpp</text>
</a>
</g>
</g>
<!-- Node1&#45;&gt;Node3 -->
<g id="edge8_Node000001_Node000003" class="edge">
<title>Node1&#45;&gt;Node3</title>
<g id="a_edge8_Node000001_Node000003"><a xlink:title=" ">
<path fill="none" stroke="#63b8ff" d="M249.57,-420.59C530.61,-418.38 1366.79,-404.38 1447,-316 1511.52,-244.91 1467.77,-153.13 1382,-110 1337.5,-87.62 1009.96,-72.81 874.93,-67.59"/>
<polygon fill="#63b8ff" stroke="#63b8ff" points="874.91,-64.08 864.78,-67.2 874.64,-71.08 874.91,-64.08"/>
</a>
</g>
</g>
<!-- Node4 -->
<g id="Node000004" class="node">
<title>Node4</title>
<g id="a_Node000004"><a xlink:title=" ">
<polygon fill="#e0e0e0" stroke="#999999" points="986.5,-19 933.5,-19 933.5,0 986.5,0 986.5,-19"/>
<text text-anchor="middle" x="960" y="-7" font-family="Helvetica,sans-Serif" font-size="10.00">cstddef</text>
</a>
</g>
</g>
<!-- Node1&#45;&gt;Node4 -->
<g id="edge58_Node000001_Node000004" class="edge">
<title>Node1&#45;&gt;Node4</title>
<g id="a_edge58_Node000001_Node000004"><a xlink:title=" ">
<path fill="none" stroke="#63b8ff" d="M175.96,-406.8C217.21,-373.45 320.19,-286.07 385,-195 409.32,-160.83 392.68,-135.48 426,-110 504.93,-49.65 815.76,-21.23 923.22,-13.07"/>
<polygon fill="#63b8ff" stroke="#63b8ff" points="923.55,-16.56 933.26,-12.32 923.03,-9.58 923.55,-16.56"/>
</a>
</g>
</g>
<!-- Node7 -->
<g id="Node000007" class="node">
<title>Node7</title>
<g id="a_Node000007"><a xlink:title=" ">
<polygon fill="#e0e0e0" stroke="#999999" points="118.5,-74 71.5,-74 71.5,-55 118.5,-55 118.5,-74"/>
<text text-anchor="middle" x="95" y="-62" font-family="Helvetica,sans-Serif" font-size="10.00">vector</text>
</a>
</g>
</g>
<!-- Node1&#45;&gt;Node7 -->
<g id="edge61_Node000001_Node000007" class="edge">
<title>Node1&#45;&gt;Node7</title>
<g id="a_edge61_Node000001_Node000007"><a xlink:title=" ">
<path fill="none" stroke="#63b8ff" d="M109.31,-407C62.88,-390.3 0,-357.46 0,-302 0,-302 0,-302 0,-179 0,-134.71 43.06,-98.61 71.2,-79.75"/>
<polygon fill="#63b8ff" stroke="#63b8ff" points="73.23,-82.6 79.74,-74.24 69.44,-76.72 73.23,-82.6"/>
</a>
</g>
</g>
<!-- Node8 -->
<g id="Node000008" class="node">
<title>Node8</title>
<g id="a_Node000008"><a xlink:href="../../d2/dfd/unfitted__domain_8hpp.html" target="_top" xlink:title="Declaration of of UnfittedDomain class.">
<polygon fill="white" stroke="#666666" points="1005,-371 857,-371 857,-352 1005,-352 1005,-371"/>
<text text-anchor="middle" x="931" y="-359" font-family="Helvetica,sans-Serif" font-size="10.00">qugar/unfitted_domain.hpp</text>
</a>
</g>
</g>
<!-- Node1&#45;&gt;Node8 -->
<g id="edge9_Node000001_Node000008" class="edge">
<title>Node1&#45;&gt;Node8</title>
<g id="a_edge9_Node000001_Node000008"><a xlink:title=" ">
<path fill="none" stroke="#63b8ff" d="M249.71,-414.06C400.95,-402.61 700.46,-379.95 846.69,-368.88"/>
<polygon fill="#63b8ff" stroke="#63b8ff" points="847.25,-372.35 856.95,-368.1 846.72,-365.37 847.25,-372.35"/>
</a>
</g>
</g>
<!-- Node17 -->
<g id="Node000017" class="node">
<title>Node17</title>
<g id="a_Node000017"><a xlink:title=" ">
<polygon fill="#e0e0e0" stroke="#999999" points="1373,-129 1323,-129 1323,-110 1373,-110 1373,-129"/>
<text text-anchor="middle" x="1348" y="-117" font-family="Helvetica,sans-Serif" font-size="10.00">cstdint</text>
</a>
</g>
</g>
<!-- Node1&#45;&gt;Node17 -->
<g id="edge59_Node000001_Node000017" class="edge">
<title>Node1&#45;&gt;Node17</title>
<g id="a_edge59_Node000001_Node000017"><a xlink:title=" ">
<path fill="none" stroke="#63b8ff" d="M249.61,-417.29C542.8,-404.81 1439,-361.78 1439,-302 1439,-302 1439,-302 1439,-239.5 1439,-194.17 1396.82,-155.4 1369.89,-135.27"/>
<polygon fill="#63b8ff" stroke="#63b8ff" points="1371.59,-132.18 1361.43,-129.18 1367.5,-137.86 1371.59,-132.18"/>
</a>
</g>
</g>
<!-- Node22 -->
<g id="Node000022" class="node">
<title>Node22</title>
<g id="a_Node000022"><a xlink:title=" ">
<polygon fill="#e0e0e0" stroke="#999999" points="168,-189.5 110,-189.5 110,-170.5 168,-170.5 168,-189.5"/>
<text text-anchor="middle" x="139" y="-177.5" font-family="Helvetica,sans-Serif" font-size="10.00">memory</text>
</a>
</g>
</g>
<!-- Node1&#45;&gt;Node22 -->
<g id="edge60_Node000001_Node000022" class="edge">
<title>Node1&#45;&gt;Node22</title>
<g id="a_edge60_Node000001_Node000022"><a xlink:title=" ">
<path fill="none" stroke="#63b8ff" d="M153,-406.76C149.78,-396.87 145.85,-383.3 144,-371 134.67,-309.12 136.42,-234.66 137.95,-200.21"/>
<polygon fill="#63b8ff" stroke="#63b8ff" points="141.47,-199.94 138.47,-189.78 134.48,-199.59 141.47,-199.94"/>
</a>
</g>
</g>
<!-- Node2&#45;&gt;Node3 -->
<g id="edge2_Node000002_Node000003" class="edge">
<title>Node2&#45;&gt;Node3</title>
<g id="a_edge2_Node000002_Node000003"><a xlink:title=" ">
<path fill="none" stroke="#63b8ff" d="M340.6,-111.8C345.46,-111.16 350.33,-110.55 355,-110 500.3,-92.89 671.88,-77.66 759.38,-70.26"/>
<polygon fill="#63b8ff" stroke="#63b8ff" points="759.71,-73.74 769.38,-69.42 759.12,-66.77 759.71,-73.74"/>
</a>
</g>
</g>
<!-- Node2&#45;&gt;Node4 -->
<g id="edge6_Node000002_Node000004" class="edge">
<title>Node2&#45;&gt;Node4</title>
<g id="a_edge6_Node000002_Node000004"><a xlink:title=" ">
<path fill="none" stroke="#63b8ff" d="M303.81,-109.8C320.66,-95.44 356.81,-67.17 393,-55 491.84,-21.77 813.56,-13.08 923.09,-11.06"/>
<polygon fill="#63b8ff" stroke="#63b8ff" points="923.37,-14.55 933.31,-10.88 923.25,-7.55 923.37,-14.55"/>
</a>
</g>
</g>
<!-- Node5 -->
<g id="Node000005" class="node">
<title>Node5</title>
<g id="a_Node000005"><a xlink:href="../../da/d16/vector_8hpp.html" target="_top" xlink:title=" ">
<polygon fill="white" stroke="#666666" points="341,-74 243,-74 243,-55 341,-55 341,-74"/>
<text text-anchor="middle" x="292" y="-62" font-family="Helvetica,sans-Serif" font-size="10.00">qugar/vector.hpp</text>
</a>
</g>
</g>
<!-- Node2&#45;&gt;Node5 -->
<g id="edge4_Node000002_Node000005" class="edge">
<title>Node2&#45;&gt;Node5</title>
<g id="a_edge4_Node000002_Node000005"><a xlink:title=" ">
<path fill="none" stroke="#63b8ff" d="M293.67,-109.75C293.41,-102.8 293.03,-92.85 292.7,-84.13"/>
<polygon fill="#63b8ff" stroke="#63b8ff" points="296.2,-83.95 292.32,-74.09 289.2,-84.21 296.2,-83.95"/>
</a>
</g>
</g>
<!-- Node2&#45;&gt;Node7 -->
<g id="edge7_Node000002_Node000007" class="edge">
<title>Node2&#45;&gt;Node7</title>
<g id="a_edge7_Node000002_Node000007"><a xlink:title=" ">
<path fill="none" stroke="#63b8ff" d="M262.03,-109.98C225.47,-100.25 165.89,-84.38 128.65,-74.46"/>
<polygon fill="#63b8ff" stroke="#63b8ff" points="129.34,-71.02 118.78,-71.83 127.54,-77.79 129.34,-71.02"/>
</a>
</g>
</g>
<!-- Node3&#45;&gt;Node4 -->
<g id="edge3_Node000003_Node000004" class="edge">
<title>Node3&#45;&gt;Node4</title>
<g id="a_edge3_Node000003_Node000004"><a xlink:title=" ">
<path fill="none" stroke="#63b8ff" d="M839.98,-54.98C863.5,-46.27 900.29,-32.63 926.94,-22.75"/>
<polygon fill="#63b8ff" stroke="#63b8ff" points="928.45,-25.93 936.61,-19.17 926.01,-19.36 928.45,-25.93"/>
</a>
</g>
</g>
<!-- Node6 -->
<g id="Node000006" class="node">
<title>Node6</title>
<g id="a_Node000006"><a xlink:title=" ">
<polygon fill="#e0e0e0" stroke="#999999" points="347,-19 237,-19 237,0 347,0 347,-19"/>
<text text-anchor="middle" x="292" y="-7" font-family="Helvetica,sans-Serif" font-size="10.00">algoim/uvector.hpp</text>
</a>
</g>
</g>
<!-- Node5&#45;&gt;Node6 -->
<g id="edge5_Node000005_Node000006" class="edge">
<title>Node5&#45;&gt;Node6</title>
<g id="a_edge5_Node000005_Node000006"><a xlink:title=" ">
<path fill="none" stroke="#63b8ff" d="M292,-54.75C292,-47.8 292,-37.85 292,-29.13"/>
<polygon fill="#63b8ff" stroke="#63b8ff" points="295.5,-29.09 292,-19.09 288.5,-29.09 295.5,-29.09"/>
</a>
</g>
</g>
<!-- Node8&#45;&gt;Node4 -->
<g id="edge52_Node000008_Node000004" class="edge">
<title>Node8&#45;&gt;Node4</title>
<g id="a_edge52_Node000008_Node000004"><a xlink:title=" ">
<path fill="none" stroke="#63b8ff" d="M1005.25,-358.27C1130.94,-353.81 1374.87,-341.89 1404,-316 1445.12,-279.46 1424.19,-249.7 1430,-195 1438.48,-115.21 1391.17,-83.09 1316,-55 1205.46,-13.7 1063.56,-9.16 997.25,-9.58"/>
<polygon fill="#63b8ff" stroke="#63b8ff" points="996.86,-6.09 986.9,-9.7 996.94,-13.09 996.86,-6.09"/>
</a>
</g>
</g>
<!-- Node8&#45;&gt;Node7 -->
<g id="edge57_Node000008_Node000007" class="edge">
<title>Node8&#45;&gt;Node7</title>
<g id="a_edge57_Node000008_Node000007"><a xlink:title=" ">
<path fill="none" stroke="#63b8ff" d="M856.84,-357.87C722.84,-352.6 445.63,-339.23 352,-316 231.8,-286.18 166.26,-300.25 101,-195 79.73,-160.69 85.32,-110.88 90.57,-84.14"/>
<polygon fill="#63b8ff" stroke="#63b8ff" points="94.03,-84.72 92.72,-74.2 87.19,-83.23 94.03,-84.72"/>
</a>
</g>
</g>
<!-- Node9 -->
<g id="Node000009" class="node">
<title>Node9</title>
<g id="a_Node000009"><a xlink:href="../../d6/d49/cart__grid__tp_8hpp.html" target="_top" xlink:title="Definition of Cartesian grid class.">
<polygon fill="white" stroke="#666666" points="799,-250 673,-250 673,-231 799,-231 799,-250"/>
<text text-anchor="middle" x="736" y="-238" font-family="Helvetica,sans-Serif" font-size="10.00">qugar/cart_grid_tp.hpp</text>
</a>
</g>
</g>
<!-- Node8&#45;&gt;Node9 -->
<g id="edge10_Node000008_Node000009" class="edge">
<title>Node8&#45;&gt;Node9</title>
<g id="a_edge10_Node000008_Node000009"><a xlink:title=" ">
<path fill="none" stroke="#63b8ff" d="M897.78,-351.94C873.17,-344.68 839.45,-332.76 813,-316 787.58,-299.89 763.53,-274.39 749.28,-257.8"/>
<polygon fill="#63b8ff" stroke="#63b8ff" points="751.87,-255.44 742.76,-250.03 746.51,-259.94 751.87,-255.44"/>
</a>
</g>
</g>
<!-- Node13 -->
<g id="Node000013" class="node">
<title>Node13</title>
<g id="a_Node000013"><a xlink:title=" ">
<polygon fill="#e0e0e0" stroke="#999999" points="887,-129 845,-129 845,-110 887,-110 887,-129"/>
<text text-anchor="middle" x="866" y="-117" font-family="Helvetica,sans-Serif" font-size="10.00">array</text>
</a>
</g>
</g>
<!-- Node8&#45;&gt;Node13 -->
<g id="edge50_Node000008_Node000013" class="edge">
<title>Node8&#45;&gt;Node13</title>
<g id="a_edge50_Node000008_Node000013"><a xlink:title=" ">
<path fill="none" stroke="#63b8ff" d="M906.78,-351.98C890.37,-344.92 869.62,-333.23 858,-316 820.13,-259.88 819.24,-230.05 838,-165 840.87,-155.06 846.68,-145.2 852.28,-137.29"/>
<polygon fill="#63b8ff" stroke="#63b8ff" points="855.08,-139.39 858.33,-129.3 849.5,-135.16 855.08,-139.39"/>
</a>
</g>
</g>
<!-- Node16 -->
<g id="Node000016" class="node">
<title>Node16</title>
<g id="a_Node000016"><a xlink:title=" ">
<polygon fill="#e0e0e0" stroke="#999999" points="1221,-129 1169,-129 1169,-110 1221,-110 1221,-129"/>
<text text-anchor="middle" x="1195" y="-117" font-family="Helvetica,sans-Serif" font-size="10.00">cassert</text>
</a>
</g>
</g>
<!-- Node8&#45;&gt;Node16 -->
<g id="edge51_Node000008_Node000016" class="edge">
<title>Node8&#45;&gt;Node16</title>
<g id="a_edge51_Node000008_Node000016"><a xlink:title=" ">
<path fill="none" stroke="#63b8ff" d="M946.35,-351.97C961.24,-343.47 984.28,-329.74 1003,-316 1069.3,-267.34 1087.93,-256.08 1143,-195 1159.27,-176.96 1174.79,-153.65 1184.57,-137.96"/>
<polygon fill="#63b8ff" stroke="#63b8ff" points="1187.64,-139.63 1189.87,-129.28 1181.67,-135.98 1187.64,-139.63"/>
</a>
</g>
</g>
<!-- Node8&#45;&gt;Node17 -->
<g id="edge53_Node000008_Node000017" class="edge">
<title>Node8&#45;&gt;Node17</title>
<g id="a_edge53_Node000008_Node000017"><a xlink:title=" ">
<path fill="none" stroke="#63b8ff" d="M1005.11,-358.5C1126.38,-354.47 1356.29,-343.27 1381,-316 1426.82,-265.42 1381.87,-175.91 1359.26,-138.12"/>
<polygon fill="#63b8ff" stroke="#63b8ff" points="1362.05,-135.97 1353.82,-129.29 1356.09,-139.64 1362.05,-135.97"/>
</a>
</g>
</g>
<!-- Node18 -->
<g id="Node000018" class="node">
<title>Node18</title>
<g id="a_Node000018"><a xlink:title=" ">
<polygon fill="#e0e0e0" stroke="#999999" points="1304.5,-129 1239.5,-129 1239.5,-110 1304.5,-110 1304.5,-129"/>
<text text-anchor="middle" x="1272" y="-117" font-family="Helvetica,sans-Serif" font-size="10.00">functional</text>
</a>
</g>
</g>
<!-- Node8&#45;&gt;Node18 -->
<g id="edge54_Node000008_Node000018" class="edge">
<title>Node8&#45;&gt;Node18</title>
<g id="a_edge54_Node000008_Node000018"><a xlink:title=" ">
<path fill="none" stroke="#63b8ff" d="M957.31,-351.92C979.42,-344.15 1011.41,-331.54 1037,-316 1127.67,-260.94 1220.02,-172.68 1256.15,-136.63"/>
<polygon fill="#63b8ff" stroke="#63b8ff" points="1258.78,-138.94 1263.35,-129.38 1253.82,-134 1258.78,-138.94"/>
</a>
</g>
</g>
<!-- Node8&#45;&gt;Node22 -->
<g id="edge55_Node000008_Node000022" class="edge">
<title>Node8&#45;&gt;Node22</title>
<g id="a_edge55_Node000008_Node000022"><a xlink:title=" ">
<path fill="none" stroke="#63b8ff" d="M856.96,-359.32C727.17,-354.95 452.15,-335.42 239,-250 206.91,-237.14 174.92,-212.46 156.06,-196.37"/>
<polygon fill="#63b8ff" stroke="#63b8ff" points="158.2,-193.59 148.36,-189.66 153.59,-198.87 158.2,-193.59"/>
</a>
</g>
</g>
<!-- Node24 -->
<g id="Node000024" class="node">
<title>Node24</title>
<g id="a_Node000024"><a xlink:href="../../d8/d90/unfitted__domain__kd__tree_8hpp.html" target="_top" xlink:title="Declaration of of UnfittedDomain class.">
<polygon fill="white" stroke="#666666" points="994.5,-316 867.5,-316 867.5,-286 994.5,-286 994.5,-316"/>
<text text-anchor="start" x="875.5" y="-304" font-family="Helvetica,sans-Serif" font-size="10.00">qugar/unfitted_domain</text>
<text text-anchor="middle" x="931" y="-293" font-family="Helvetica,sans-Serif" font-size="10.00">_kd_tree.hpp</text>
</a>
</g>
</g>
<!-- Node8&#45;&gt;Node24 -->
<g id="edge40_Node000008_Node000024" class="edge">
<title>Node8&#45;&gt;Node24</title>
<g id="a_edge40_Node000008_Node000024"><a xlink:title=" ">
<path fill="none" stroke="#63b8ff" d="M931,-351.87C931,-345.11 931,-335.35 931,-326.26"/>
<polygon fill="#63b8ff" stroke="#63b8ff" points="934.5,-326.11 931,-316.11 927.5,-326.11 934.5,-326.11"/>
</a>
</g>
</g>
<!-- Node25 -->
<g id="Node000025" class="node">
<title>Node25</title>
<g id="a_Node000025"><a xlink:title=" ">
<polygon fill="#e0e0e0" stroke="#999999" points="1372.5,-310.5 1279.5,-310.5 1279.5,-291.5 1372.5,-291.5 1372.5,-310.5"/>
<text text-anchor="middle" x="1326" y="-298.5" font-family="Helvetica,sans-Serif" font-size="10.00">unordered_map</text>
</a>
</g>
</g>
<!-- Node8&#45;&gt;Node25 -->
<g id="edge56_Node000008_Node000025" class="edge">
<title>Node8&#45;&gt;Node25</title>
<g id="a_edge56_Node000008_Node000025"><a xlink:title=" ">
<path fill="none" stroke="#63b8ff" d="M1005.27,-352.61C1073.16,-344.93 1176.21,-332.07 1265,-316 1270.35,-315.03 1275.93,-313.91 1281.46,-312.73"/>
<polygon fill="#63b8ff" stroke="#63b8ff" points="1282.27,-316.13 1291.28,-310.56 1280.76,-309.3 1282.27,-316.13"/>
</a>
</g>
</g>
<!-- Node9&#45;&gt;Node2 -->
<g id="edge18_Node000009_Node000002" class="edge">
<title>Node9&#45;&gt;Node2</title>
<g id="a_edge18_Node000009_Node000002"><a xlink:title=" ">
<path fill="none" stroke="#63b8ff" d="M704.21,-230.94C625.86,-209.85 423.48,-155.36 335.67,-131.72"/>
<polygon fill="#63b8ff" stroke="#63b8ff" points="336.36,-128.28 325.8,-129.06 334.54,-135.04 336.36,-128.28"/>
</a>
</g>
</g>
<!-- Node9&#45;&gt;Node3 -->
<g id="edge33_Node000009_Node000003" class="edge">
<title>Node9&#45;&gt;Node3</title>
<g id="a_edge33_Node000009_Node000003"><a xlink:title=" ">
<path fill="none" stroke="#63b8ff" d="M740.13,-230.63C752.8,-203.4 791.35,-120.61 808.55,-83.65"/>
<polygon fill="#63b8ff" stroke="#63b8ff" points="811.93,-84.69 812.98,-74.14 805.58,-81.73 811.93,-84.69"/>
</a>
</g>
</g>
<!-- Node9&#45;&gt;Node4 -->
<g id="edge35_Node000009_Node000004" class="edge">
<title>Node9&#45;&gt;Node4</title>
<g id="a_edge35_Node000009_Node000004"><a xlink:title=" ">
<path fill="none" stroke="#63b8ff" d="M799.05,-239.17C886.06,-237.43 1036.88,-229.36 1078,-195 1126.06,-154.84 1110.1,-95.11 1062,-55 1042.87,-39.05 1017.14,-27.88 996.31,-20.72"/>
<polygon fill="#63b8ff" stroke="#63b8ff" points="997.13,-17.3 986.53,-17.52 994.95,-23.96 997.13,-17.3"/>
</a>
</g>
</g>
<!-- Node9&#45;&gt;Node7 -->
<g id="edge39_Node000009_Node000007" class="edge">
<title>Node9&#45;&gt;Node7</title>
<g id="a_edge39_Node000009_Node000007"><a xlink:title=" ">
<path fill="none" stroke="#63b8ff" d="M672.56,-237.68C559.61,-233.77 328.43,-222.58 253,-195 231.11,-187 229.93,-177.08 210,-165 180.42,-147.07 167.18,-151.61 141,-129 125.91,-115.97 113.03,-97.07 104.77,-83.27"/>
<polygon fill="#63b8ff" stroke="#63b8ff" points="107.63,-81.22 99.61,-74.29 101.56,-84.7 107.63,-81.22"/>
</a>
</g>
</g>
<!-- Node10 -->
<g id="Node000010" class="node">
<title>Node10</title>
<g id="a_Node000010"><a xlink:href="../../d5/d90/bbox_8hpp.html" target="_top" xlink:title="Definition of Cartesian bounding box class.">
<polygon fill="white" stroke="#666666" points="715,-189.5 623,-189.5 623,-170.5 715,-170.5 715,-189.5"/>
<text text-anchor="middle" x="669" y="-177.5" font-family="Helvetica,sans-Serif" font-size="10.00">qugar/bbox.hpp</text>
</a>
</g>
</g>
<!-- Node9&#45;&gt;Node10 -->
<g id="edge11_Node000009_Node000010" class="edge">
<title>Node9&#45;&gt;Node10</title>
<g id="a_edge11_Node000009_Node000010"><a xlink:title=" ">
<path fill="none" stroke="#63b8ff" d="M726.11,-230.87C715.72,-221.8 699.16,-207.34 686.55,-196.32"/>
<polygon fill="#63b8ff" stroke="#63b8ff" points="688.76,-193.61 678.93,-189.67 684.16,-198.88 688.76,-193.61"/>
</a>
</g>
</g>
<!-- Node9&#45;&gt;Node13 -->
<g id="edge34_Node000009_Node000013" class="edge">
<title>Node9&#45;&gt;Node13</title>
<g id="a_edge34_Node000009_Node000013"><a xlink:title=" ">
<path fill="none" stroke="#63b8ff" d="M743.16,-230.72C755.18,-216.25 780.5,-186.79 805,-165 817.33,-154.03 832.29,-143.09 844.31,-134.8"/>
<polygon fill="#63b8ff" stroke="#63b8ff" points="846.52,-137.53 852.83,-129.02 842.59,-131.73 846.52,-137.53"/>
</a>
</g>
</g>
<!-- Node14 -->
<g id="Node000014" class="node">
<title>Node14</title>
<g id="a_Node000014"><a xlink:href="../../d9/d43/tensor__index__tp_8hpp.html" target="_top" xlink:title="Declaration of tensor&#45;product index and size related classes.">
<polygon fill="white" stroke="#666666" points="1069,-195 959,-195 959,-165 1069,-165 1069,-195"/>
<text text-anchor="start" x="967" y="-183" font-family="Helvetica,sans-Serif" font-size="10.00">qugar/tensor_index</text>
<text text-anchor="middle" x="1014" y="-172" font-family="Helvetica,sans-Serif" font-size="10.00">_tp.hpp</text>
</a>
</g>
</g>
<!-- Node9&#45;&gt;Node14 -->
<g id="edge19_Node000009_Node000014" class="edge">
<title>Node9&#45;&gt;Node14</title>
<g id="a_edge19_Node000009_Node000014"><a xlink:title=" ">
<path fill="none" stroke="#63b8ff" d="M776.42,-230.99C821.62,-221.48 895.48,-205.94 948.85,-194.71"/>
<polygon fill="#63b8ff" stroke="#63b8ff" points="949.84,-198.08 958.91,-192.59 948.4,-191.23 949.84,-198.08"/>
</a>
</g>
</g>
<!-- Node9&#45;&gt;Node17 -->
<g id="edge36_Node000009_Node000017" class="edge">
<title>Node9&#45;&gt;Node17</title>
<g id="a_edge36_Node000009_Node000017"><a xlink:title=" ">
<path fill="none" stroke="#63b8ff" d="M799.29,-235.6C874.32,-230.16 1002.83,-218.21 1111,-195 1186.08,-178.89 1271.36,-149.16 1316.33,-132.54"/>
<polygon fill="#63b8ff" stroke="#63b8ff" points="1317.68,-135.77 1325.83,-129.01 1315.23,-129.21 1317.68,-135.77"/>
</a>
</g>
</g>
<!-- Node20 -->
<g id="Node000020" class="node">
<title>Node20</title>
<g id="a_Node000020"><a xlink:href="../../d0/d55/tolerance_8hpp.html" target="_top" xlink:title="Definition of tolerance related functionalities.">
<polygon fill="white" stroke="#666666" points="376,-189.5 262,-189.5 262,-170.5 376,-170.5 376,-189.5"/>
<text text-anchor="middle" x="319" y="-177.5" font-family="Helvetica,sans-Serif" font-size="10.00">qugar/tolerance.hpp</text>
</a>
</g>
</g>
<!-- Node9&#45;&gt;Node20 -->
<g id="edge28_Node000009_Node000020" class="edge">
<title>Node9&#45;&gt;Node20</title>
<g id="a_edge28_Node000009_Node000020"><a xlink:title=" ">
<path fill="none" stroke="#63b8ff" d="M675.36,-230.99C598.36,-220.19 465.9,-201.61 385.98,-190.4"/>
<polygon fill="#63b8ff" stroke="#63b8ff" points="386.41,-186.92 376.02,-189 385.44,-193.86 386.41,-186.92"/>
</a>
</g>
</g>
<!-- Node9&#45;&gt;Node22 -->
<g id="edge37_Node000009_Node000022" class="edge">
<title>Node9&#45;&gt;Node22</title>
<g id="a_edge37_Node000009_Node000022"><a xlink:title=" ">
<path fill="none" stroke="#63b8ff" d="M672.66,-235.78C575.16,-229.66 382.52,-216.01 220,-195 206.38,-193.24 191.54,-190.82 178.34,-188.49"/>
<polygon fill="#63b8ff" stroke="#63b8ff" points="178.62,-184.99 168.15,-186.66 177.37,-191.87 178.62,-184.99"/>
</a>
</g>
</g>
<!-- Node23 -->
<g id="Node000023" class="node">
<title>Node23</title>
<g id="a_Node000023"><a xlink:title=" ">
<polygon fill="#e0e0e0" stroke="#999999" points="903,-189.5 847,-189.5 847,-170.5 903,-170.5 903,-189.5"/>
<text text-anchor="middle" x="875" y="-177.5" font-family="Helvetica,sans-Serif" font-size="10.00">optional</text>
</a>
</g>
</g>
<!-- Node9&#45;&gt;Node23 -->
<g id="edge38_Node000009_Node000023" class="edge">
<title>Node9&#45;&gt;Node23</title>
<g id="a_edge38_Node000009_Node000023"><a xlink:title=" ">
<path fill="none" stroke="#63b8ff" d="M756.21,-230.99C779.68,-221.12 818.61,-204.73 845.46,-193.43"/>
<polygon fill="#63b8ff" stroke="#63b8ff" points="846.9,-196.62 854.76,-189.52 844.19,-190.17 846.9,-196.62"/>
</a>
</g>
</g>
<!-- Node10&#45;&gt;Node2 -->
<g id="edge13_Node000010_Node000002" class="edge">
<title>Node10&#45;&gt;Node2</title>
<g id="a_edge13_Node000010_Node000002"><a xlink:title=" ">
<path fill="none" stroke="#63b8ff" d="M622.64,-171.77C553.86,-161.04 424.94,-140.93 350.65,-129.34"/>
<polygon fill="#63b8ff" stroke="#63b8ff" points="350.97,-125.84 340.55,-127.76 349.89,-132.76 350.97,-125.84"/>
</a>
</g>
</g>
<!-- Node10&#45;&gt;Node3 -->
<g id="edge14_Node000010_Node000003" class="edge">
<title>Node10&#45;&gt;Node3</title>
<g id="a_edge14_Node000010_Node000003"><a xlink:title=" ">
<path fill="none" stroke="#63b8ff" d="M687.02,-170.35C705.06,-161.27 733.2,-145.99 755,-129 773.32,-114.73 791.56,-95.25 803.46,-81.64"/>
<polygon fill="#63b8ff" stroke="#63b8ff" points="806.14,-83.9 810,-74.03 800.83,-79.34 806.14,-83.9"/>
</a>
</g>
</g>
<!-- Node10&#45;&gt;Node4 -->
<g id="edge17_Node000010_Node000004" class="edge">
<title>Node10&#45;&gt;Node4</title>
<g id="a_edge17_Node000010_Node000004"><a xlink:title=" ">
<path fill="none" stroke="#63b8ff" d="M680.21,-170.35C691.73,-161.05 709.69,-145.38 722,-129 744.21,-99.44 730.74,-77.6 760,-55 807.72,-18.14 879.94,-10.58 923.29,-9.68"/>
<polygon fill="#63b8ff" stroke="#63b8ff" points="923.43,-13.18 933.39,-9.59 923.36,-6.18 923.43,-13.18"/>
</a>
</g>
</g>
<!-- Node11 -->
<g id="Node000011" class="node">
<title>Node11</title>
<g id="a_Node000011"><a xlink:href="../../d7/dd8/concepts_8hpp.html" target="_top" xlink:title="Declaration of concepts.">
<polygon fill="white" stroke="#666666" points="547,-129 435,-129 435,-110 547,-110 547,-129"/>
<text text-anchor="middle" x="491" y="-117" font-family="Helvetica,sans-Serif" font-size="10.00">qugar/concepts.hpp</text>
</a>
</g>
</g>
<!-- Node10&#45;&gt;Node11 -->
<g id="edge12_Node000010_Node000011" class="edge">
<title>Node10&#45;&gt;Node11</title>
<g id="a_edge12_Node000010_Node000011"><a xlink:title=" ">
<path fill="none" stroke="#63b8ff" d="M643.12,-170.49C612.4,-160.4 561.02,-143.51 526.58,-132.19"/>
<polygon fill="#63b8ff" stroke="#63b8ff" points="527.51,-128.81 516.91,-129.02 525.32,-135.46 527.51,-128.81"/>
</a>
</g>
</g>
<!-- Node12 -->
<g id="Node000012" class="node">
<title>Node12</title>
<g id="a_Node000012"><a xlink:title=" ">
<polygon fill="#e0e0e0" stroke="#999999" points="713,-129 565,-129 565,-110 713,-110 713,-129"/>
<text text-anchor="middle" x="639" y="-117" font-family="Helvetica,sans-Serif" font-size="10.00">algoim/hyperrectangle.hpp</text>
</a>
</g>
</g>
<!-- Node10&#45;&gt;Node12 -->
<g id="edge15_Node000010_Node000012" class="edge">
<title>Node10&#45;&gt;Node12</title>
<g id="a_edge15_Node000010_Node000012"><a xlink:title=" ">
<path fill="none" stroke="#63b8ff" d="M664.57,-170.37C660.23,-161.9 653.48,-148.74 648.01,-138.07"/>
<polygon fill="#63b8ff" stroke="#63b8ff" points="651.12,-136.47 643.44,-129.17 644.89,-139.66 651.12,-136.47"/>
</a>
</g>
</g>
<!-- Node10&#45;&gt;Node13 -->
<g id="edge16_Node000010_Node000013" class="edge">
<title>Node10&#45;&gt;Node13</title>
<g id="a_edge16_Node000010_Node000013"><a xlink:title=" ">
<path fill="none" stroke="#63b8ff" d="M697.65,-170.49C734.22,-159.63 797.28,-140.91 834.97,-129.71"/>
<polygon fill="#63b8ff" stroke="#63b8ff" points="836.29,-132.97 844.88,-126.77 834.3,-126.26 836.29,-132.97"/>
</a>
</g>
</g>
<!-- Node14&#45;&gt;Node4 -->
<g id="edge24_Node000014_Node000004" class="edge">
<title>Node14&#45;&gt;Node4</title>
<g id="a_edge24_Node000014_Node000004"><a xlink:title=" ">
<path fill="none" stroke="#63b8ff" d="M1045.78,-164.85C1068.71,-152.42 1093.87,-132.78 1083,-110 1063.46,-69.07 1017.95,-39.54 988.11,-23.74"/>
<polygon fill="#63b8ff" stroke="#63b8ff" points="989.52,-20.53 979.02,-19.09 986.33,-26.76 989.52,-20.53"/>
</a>
</g>
</g>
<!-- Node14&#45;&gt;Node5 -->
<g id="edge21_Node000014_Node000005" class="edge">
<title>Node14&#45;&gt;Node5</title>
<g id="a_edge21_Node000014_Node000005"><a xlink:title=" ">
<path fill="none" stroke="#63b8ff" d="M991.15,-164.88C959.79,-145.63 906.14,-113.15 896,-110 795.55,-78.78 483.16,-69.18 351.49,-66.47"/>
<polygon fill="#63b8ff" stroke="#63b8ff" points="351.26,-62.97 341.19,-66.27 351.12,-69.97 351.26,-62.97"/>
</a>
</g>
</g>
<!-- Node14&#45;&gt;Node13 -->
<g id="edge22_Node000014_Node000013" class="edge">
<title>Node14&#45;&gt;Node13</title>
<g id="a_edge22_Node000014_Node000013"><a xlink:title=" ">
<path fill="none" stroke="#63b8ff" d="M978.55,-164.99C953.71,-155.17 920.82,-142.17 897.02,-132.76"/>
<polygon fill="#63b8ff" stroke="#63b8ff" points="898.01,-129.39 887.42,-128.97 895.44,-135.9 898.01,-129.39"/>
</a>
</g>
</g>
<!-- Node15 -->
<g id="Node000015" class="node">
<title>Node15</title>
<g id="a_Node000015"><a xlink:title=" ">
<polygon fill="#e0e0e0" stroke="#999999" points="987,-129 943,-129 943,-110 987,-110 987,-129"/>
<text text-anchor="middle" x="965" y="-117" font-family="Helvetica,sans-Serif" font-size="10.00">limits</text>
</a>
</g>
</g>
<!-- Node14&#45;&gt;Node15 -->
<g id="edge20_Node000014_Node000015" class="edge">
<title>Node14&#45;&gt;Node15</title>
<g id="a_edge20_Node000014_Node000015"><a xlink:title=" ">
<path fill="none" stroke="#63b8ff" d="M1002.14,-164.84C995.1,-156.43 986.14,-145.74 978.79,-136.96"/>
<polygon fill="#63b8ff" stroke="#63b8ff" points="981.45,-134.68 972.34,-129.27 976.08,-139.18 981.45,-134.68"/>
</a>
</g>
</g>
<!-- Node14&#45;&gt;Node16 -->
<g id="edge23_Node000014_Node000016" class="edge">
<title>Node14&#45;&gt;Node16</title>
<g id="a_edge23_Node000014_Node000016"><a xlink:title=" ">
<path fill="none" stroke="#63b8ff" d="M1057.35,-164.99C1088.41,-154.95 1129.75,-141.59 1159,-132.14"/>
<polygon fill="#63b8ff" stroke="#63b8ff" points="1160.36,-135.37 1168.8,-128.97 1158.21,-128.71 1160.36,-135.37"/>
</a>
</g>
</g>
<!-- Node14&#45;&gt;Node17 -->
<g id="edge25_Node000014_Node000017" class="edge">
<title>Node14&#45;&gt;Node17</title>
<g id="a_edge25_Node000014_Node000017"><a xlink:title=" ">
<path fill="none" stroke="#63b8ff" d="M1069.05,-171.02C1129.21,-162.01 1228.31,-146.34 1313,-129 1313.1,-128.98 1313.2,-128.96 1313.3,-128.94"/>
<polygon fill="#63b8ff" stroke="#63b8ff" points="1313.8,-132.41 1322.81,-126.85 1312.3,-125.58 1313.8,-132.41"/>
</a>
</g>
</g>
<!-- Node14&#45;&gt;Node18 -->
<g id="edge26_Node000014_Node000018" class="edge">
<title>Node14&#45;&gt;Node18</title>
<g id="a_edge26_Node000014_Node000018"><a xlink:title=" ">
<path fill="none" stroke="#63b8ff" d="M1069.03,-166.52C1117.08,-155.63 1185.82,-140.04 1229.68,-130.1"/>
<polygon fill="#63b8ff" stroke="#63b8ff" points="1230.48,-133.5 1239.46,-127.88 1228.93,-126.68 1230.48,-133.5"/>
</a>
</g>
</g>
<!-- Node19 -->
<g id="Node000019" class="node">
<title>Node19</title>
<g id="a_Node000019"><a xlink:title=" ">
<polygon fill="#e0e0e0" stroke="#999999" points="1074.5,-129 1005.5,-129 1005.5,-110 1074.5,-110 1074.5,-129"/>
<text text-anchor="middle" x="1040" y="-117" font-family="Helvetica,sans-Serif" font-size="10.00">type_traits</text>
</a>
</g>
</g>
<!-- Node14&#45;&gt;Node19 -->
<g id="edge27_Node000014_Node000019" class="edge">
<title>Node14&#45;&gt;Node19</title>
<g id="a_edge27_Node000014_Node000019"><a xlink:title=" ">
<path fill="none" stroke="#63b8ff" d="M1020.29,-164.84C1023.8,-156.95 1028.2,-147.05 1031.95,-138.61"/>
<polygon fill="#63b8ff" stroke="#63b8ff" points="1035.24,-139.83 1036.1,-129.27 1028.84,-136.98 1035.24,-139.83"/>
</a>
</g>
</g>
<!-- Node20&#45;&gt;Node2 -->
<g id="edge29_Node000020_Node000002" class="edge">
<title>Node20&#45;&gt;Node2</title>
<g id="a_edge29_Node000020_Node000002"><a xlink:title=" ">
<path fill="none" stroke="#63b8ff" d="M315.31,-170.37C311.73,-161.99 306.18,-149.01 301.65,-138.39"/>
<polygon fill="#63b8ff" stroke="#63b8ff" points="304.85,-136.99 297.7,-129.17 298.42,-139.74 304.85,-136.99"/>
</a>
</g>
</g>
<!-- Node20&#45;&gt;Node3 -->
<g id="edge30_Node000020_Node000003" class="edge">
<title>Node20&#45;&gt;Node3</title>
<g id="a_edge30_Node000020_Node000003"><a xlink:title=" ">
<path fill="none" stroke="#63b8ff" d="M328.78,-170.42C346.67,-155.29 386.45,-124.13 426,-110 485.92,-88.6 665.64,-74.78 759.11,-68.84"/>
<polygon fill="#63b8ff" stroke="#63b8ff" points="759.48,-72.33 769.25,-68.21 759.05,-65.34 759.48,-72.33"/>
</a>
</g>
</g>
<!-- Node20&#45;&gt;Node7 -->
<g id="edge32_Node000020_Node000007" class="edge">
<title>Node20&#45;&gt;Node7</title>
<g id="a_edge32_Node000020_Node000007"><a xlink:title=" ">
<path fill="none" stroke="#63b8ff" d="M281.52,-170.45C250.6,-162.46 206.25,-148.76 171,-129 147.72,-115.95 124.72,-95.37 110.23,-81.2"/>
<polygon fill="#63b8ff" stroke="#63b8ff" points="112.65,-78.67 103.1,-74.07 107.7,-83.62 112.65,-78.67"/>
</a>
</g>
</g>
<!-- Node21 -->
<g id="Node000021" class="node">
<title>Node21</title>
<g id="a_Node000021"><a xlink:title=" ">
<polygon fill="#e0e0e0" stroke="#999999" points="229.5,-129 180.5,-129 180.5,-110 229.5,-110 229.5,-129"/>
<text text-anchor="middle" x="205" y="-117" font-family="Helvetica,sans-Serif" font-size="10.00">cstdlib</text>
</a>
</g>
</g>
<!-- Node20&#45;&gt;Node21 -->
<g id="edge31_Node000020_Node000021" class="edge">
<title>Node20&#45;&gt;Node21</title>
<g id="a_edge31_Node000020_Node000021"><a xlink:title=" ">
<path fill="none" stroke="#63b8ff" d="M302.18,-170.37C283.4,-160.73 252.8,-145.03 230.95,-133.81"/>
<polygon fill="#63b8ff" stroke="#63b8ff" points="232.39,-130.62 221.89,-129.17 229.19,-136.85 232.39,-130.62"/>
</a>
</g>
</g>
<!-- Node24&#45;&gt;Node4 -->
<g id="edge44_Node000024_Node000004" class="edge">
<title>Node24&#45;&gt;Node4</title>
<g id="a_edge44_Node000024_Node000004"><a xlink:title=" ">
<path fill="none" stroke="#63b8ff" d="M994.56,-298.43C1098.17,-291.96 1300.1,-261.97 1382,-129 1424.33,-60.27 1106.67,-24.07 996.62,-13.69"/>
<polygon fill="#63b8ff" stroke="#63b8ff" points="996.92,-10.2 986.64,-12.76 996.27,-17.17 996.92,-10.2"/>
</a>
</g>
</g>
<!-- Node24&#45;&gt;Node7 -->
<g id="edge49_Node000024_Node000007" class="edge">
<title>Node24&#45;&gt;Node7</title>
<g id="a_edge49_Node000024_Node000007"><a xlink:title=" ">
<path fill="none" stroke="#63b8ff" d="M867.44,-295.52C713.81,-283.93 326.45,-250 210,-195 192.08,-186.54 192.77,-177 177,-165 153.16,-146.85 139.1,-152.08 120,-129 109.26,-116.02 102.74,-97.87 99.06,-84.3"/>
<polygon fill="#63b8ff" stroke="#63b8ff" points="102.37,-83.08 96.61,-74.19 95.57,-84.73 102.37,-83.08"/>
</a>
</g>
</g>
<!-- Node24&#45;&gt;Node9 -->
<g id="edge41_Node000024_Node000009" class="edge">
<title>Node24&#45;&gt;Node9</title>
<g id="a_edge41_Node000024_Node000009"><a xlink:title=" ">
<path fill="none" stroke="#63b8ff" d="M884.29,-285.99C850.64,-275.89 805.79,-262.44 774.25,-252.98"/>
<polygon fill="#63b8ff" stroke="#63b8ff" points="775.1,-249.57 764.51,-250.05 773.08,-256.28 775.1,-249.57"/>
</a>
</g>
</g>
<!-- Node24&#45;&gt;Node13 -->
<g id="edge42_Node000024_Node000013" class="edge">
<title>Node24&#45;&gt;Node13</title>
<g id="a_edge42_Node000024_Node000013"><a xlink:title=" ">
<path fill="none" stroke="#63b8ff" d="M931.93,-285.7C932.99,-260.03 932.4,-205.08 912,-165 906.13,-153.48 896.09,-143.23 886.89,-135.49"/>
<polygon fill="#63b8ff" stroke="#63b8ff" points="888.83,-132.56 878.81,-129.11 884.49,-138.06 888.83,-132.56"/>
</a>
</g>
</g>
<!-- Node24&#45;&gt;Node16 -->
<g id="edge43_Node000024_Node000016" class="edge">
<title>Node24&#45;&gt;Node16</title>
<g id="a_edge43_Node000024_Node000016"><a xlink:title=" ">
<path fill="none" stroke="#63b8ff" d="M958.88,-285.95C995.18,-267.16 1060.02,-231.92 1111,-195 1136.23,-176.72 1162.71,-152.23 1179.03,-136.4"/>
<polygon fill="#63b8ff" stroke="#63b8ff" points="1181.49,-138.89 1186.18,-129.39 1176.59,-133.89 1181.49,-138.89"/>
</a>
</g>
</g>
<!-- Node24&#45;&gt;Node17 -->
<g id="edge45_Node000024_Node000017" class="edge">
<title>Node24&#45;&gt;Node17</title>
<g id="a_edge45_Node000024_Node000017"><a xlink:title=" ">
<path fill="none" stroke="#63b8ff" d="M981.56,-285.9C1012.44,-276.77 1052.48,-264.01 1087,-250 1176.93,-213.52 1278.66,-158.99 1323.99,-133.95"/>
<polygon fill="#63b8ff" stroke="#63b8ff" points="1325.74,-136.98 1332.78,-129.07 1322.34,-130.86 1325.74,-136.98"/>
</a>
</g>
</g>
<!-- Node24&#45;&gt;Node18 -->
<g id="edge46_Node000024_Node000018" class="edge">
<title>Node24&#45;&gt;Node18</title>
<g id="a_edge46_Node000024_Node000018"><a xlink:title=" ">
<path fill="none" stroke="#63b8ff" d="M970.22,-285.97C994.96,-276.68 1027.35,-263.72 1055,-250 1129.27,-213.14 1212.14,-160.13 1250.44,-134.9"/>
<polygon fill="#63b8ff" stroke="#63b8ff" points="1252.78,-137.55 1259.19,-129.11 1248.92,-131.71 1252.78,-137.55"/>
</a>
</g>
</g>
<!-- Node24&#45;&gt;Node22 -->
<g id="edge47_Node000024_Node000022" class="edge">
<title>Node24&#45;&gt;Node22</title>
<g id="a_edge47_Node000024_Node000022"><a xlink:title=" ">
<path fill="none" stroke="#63b8ff" d="M867.49,-297.7C728.86,-292.24 402.98,-276.9 296,-250 246.5,-237.55 192.88,-210.83 162.87,-194.54"/>
<polygon fill="#63b8ff" stroke="#63b8ff" points="164.43,-191.4 153.99,-189.64 161.06,-197.53 164.43,-191.4"/>
</a>
</g>
</g>
<!-- Node24&#45;&gt;Node23 -->
<g id="edge48_Node000024_Node000023" class="edge">
<title>Node24&#45;&gt;Node23</title>
<g id="a_edge48_Node000024_Node000023"><a xlink:title=" ">
<path fill="none" stroke="#63b8ff" d="M924.36,-285.88C914.16,-264.22 894.66,-222.78 883.47,-198.99"/>
<polygon fill="#63b8ff" stroke="#63b8ff" points="886.52,-197.27 879.1,-189.71 880.19,-200.25 886.52,-197.27"/>
</a>
</g>
</g>
</g>
</svg>
