<?xml version="1.0" encoding="UTF-8" standalone="no"?>
<!DOCTYPE svg PUBLIC "-//W3C//DTD SVG 1.1//EN"
 "http://www.w3.org/Graphics/SVG/1.1/DTD/svg11.dtd">
<!-- Generated by graphviz version 2.43.0 (0)
 -->
<!-- Title: /__w/qugar/qugar/cpp/include/qugar/cut_quadrature.hpp Pages: 1 -->
<svg width="1279pt" height="379pt"
 viewBox="0.00 0.00 1279.18 379.00" xmlns="http://www.w3.org/2000/svg" xmlns:xlink="http://www.w3.org/1999/xlink">
<g id="graph0" class="graph" transform="scale(1 1) rotate(0) translate(4 375)">
<title>/__w/qugar/qugar/cpp/include/qugar/cut_quadrature.hpp</title>
<!-- Node1 -->
<g id="Node000001" class="node">
<title>Node1</title>
<g id="a_Node000001"><a xlink:title="Definition of cut quadrature for unfitted domains.">
<polygon fill="#999999" stroke="#666666" points="1065.68,-371 882.68,-371 882.68,-341 1065.68,-341 1065.68,-371"/>
<text text-anchor="start" x="890.68" y="-359" font-family="Helvetica,sans-Serif" font-size="10.00">/__w/qugar/qugar/cpp</text>
<text text-anchor="middle" x="974.18" y="-348" font-family="Helvetica,sans-Serif" font-size="10.00">/include/qugar/cut_quadrature.hpp</text>
</a>
</g>
</g>
<!-- Node2 -->
<g id="Node000002" class="node">
<title>Node2</title>
<g id="a_Node000002"><a xlink:href="../../d0/de4/point_8hpp.html" target="_top" xlink:title="Definition and implementation of Point class.">
<polygon fill="white" stroke="#666666" points="947.68,-129 854.68,-129 854.68,-110 947.68,-110 947.68,-129"/>
<text text-anchor="middle" x="901.18" y="-117" font-family="Helvetica,sans-Serif" font-size="10.00">qugar/point.hpp</text>
</a>
</g>
</g>
<!-- Node1&#45;&gt;Node2 -->
<g id="edge1_Node000001_Node000002" class="edge">
<title>Node1&#45;&gt;Node2</title>
<g id="a_edge1_Node000001_Node000002"><a xlink:title=" ">
<path fill="none" stroke="#63b8ff" d="M1008.92,-340.86C1050.8,-321.34 1113.97,-282.59 1100.18,-231 1091.44,-198.3 1088.94,-185.73 1062.18,-165 1045.59,-152.15 996.29,-139.61 956.58,-131.13"/>
<polygon fill="#63b8ff" stroke="#63b8ff" points="957.22,-127.69 946.71,-129.06 955.78,-134.54 957.22,-127.69"/>
</a>
</g>
</g>
<!-- Node3 -->
<g id="Node000003" class="node">
<title>Node3</title>
<g id="a_Node000003"><a xlink:href="../../dd/de3/types_8hpp.html" target="_top" xlink:title="Declaration of types.">
<polygon fill="white" stroke="#666666" points="347.68,-74 252.68,-74 252.68,-55 347.68,-55 347.68,-74"/>
<text text-anchor="middle" x="300.18" y="-62" font-family="Helvetica,sans-Serif" font-size="10.00">qugar/types.hpp</text>
</a>
</g>
</g>
<!-- Node1&#45;&gt;Node3 -->
<g id="edge8_Node000001_Node000003" class="edge">
<title>Node1&#45;&gt;Node3</title>
<g id="a_edge8_Node000001_Node000003"><a xlink:title=" ">
<path fill="none" stroke="#63b8ff" d="M882.64,-353.82C640.42,-349.5 1.18,-329.72 1.18,-241.5 1.18,-241.5 1.18,-241.5 1.18,-179 1.18,-147.19 -3.53,-131.21 20.18,-110 52.08,-81.46 169.9,-71.16 242.15,-67.49"/>
<polygon fill="#63b8ff" stroke="#63b8ff" points="242.64,-70.97 252.47,-66.99 242.31,-63.98 242.64,-70.97"/>
</a>
</g>
</g>
<!-- Node4 -->
<g id="Node000004" class="node">
<title>Node4</title>
<g id="a_Node000004"><a xlink:title=" ">
<polygon fill="#e0e0e0" stroke="#999999" points="927.68,-19 874.68,-19 874.68,0 927.68,0 927.68,-19"/>
<text text-anchor="middle" x="901.18" y="-7" font-family="Helvetica,sans-Serif" font-size="10.00">cstddef</text>
</a>
</g>
</g>
<!-- Node1&#45;&gt;Node4 -->
<g id="edge44_Node000001_Node000004" class="edge">
<title>Node1&#45;&gt;Node4</title>
<g id="a_edge44_Node000001_Node000004"><a xlink:title=" ">
<path fill="none" stroke="#63b8ff" d="M1052.6,-340.98C1140.59,-322.97 1271.18,-288.35 1271.18,-241.5 1271.18,-241.5 1271.18,-241.5 1271.18,-118.5 1271.18,-71.34 1229.64,-73.29 1186.18,-55 1102.27,-19.7 993.82,-12.09 937.99,-10.65"/>
<polygon fill="#63b8ff" stroke="#63b8ff" points="937.94,-7.15 927.87,-10.44 937.8,-14.15 937.94,-7.15"/>
</a>
</g>
</g>
<!-- Node7 -->
<g id="Node000007" class="node">
<title>Node7</title>
<g id="a_Node000007"><a xlink:title=" ">
<polygon fill="#e0e0e0" stroke="#999999" points="1156.68,-74 1109.68,-74 1109.68,-55 1156.68,-55 1156.68,-74"/>
<text text-anchor="middle" x="1133.18" y="-62" font-family="Helvetica,sans-Serif" font-size="10.00">vector</text>
</a>
</g>
</g>
<!-- Node1&#45;&gt;Node7 -->
<g id="edge46_Node000001_Node000007" class="edge">
<title>Node1&#45;&gt;Node7</title>
<g id="a_edge46_Node000001_Node000007"><a xlink:title=" ">
<path fill="none" stroke="#63b8ff" d="M1065.98,-344.1C1126.7,-331.17 1195.18,-302.96 1195.18,-241.5 1195.18,-241.5 1195.18,-241.5 1195.18,-179 1195.18,-140.32 1167.1,-102.3 1148.74,-81.57"/>
<polygon fill="#63b8ff" stroke="#63b8ff" points="1151.14,-79.02 1141.8,-74.03 1145.99,-83.76 1151.14,-79.02"/>
</a>
</g>
</g>
<!-- Node8 -->
<g id="Node000008" class="node">
<title>Node8</title>
<g id="a_Node000008"><a xlink:href="../../d2/dfd/unfitted__domain_8hpp.html" target="_top" xlink:title="Declaration of of UnfittedDomain class.">
<polygon fill="white" stroke="#666666" points="786.18,-305 638.18,-305 638.18,-286 786.18,-286 786.18,-305"/>
<text text-anchor="middle" x="712.18" y="-293" font-family="Helvetica,sans-Serif" font-size="10.00">qugar/unfitted_domain.hpp</text>
</a>
</g>
</g>
<!-- Node1&#45;&gt;Node8 -->
<g id="edge9_Node000001_Node000008" class="edge">
<title>Node1&#45;&gt;Node8</title>
<g id="a_edge9_Node000001_Node000008"><a xlink:title=" ">
<path fill="none" stroke="#63b8ff" d="M911.42,-340.99C865.03,-330.63 802.8,-316.73 760.31,-307.25"/>
<polygon fill="#63b8ff" stroke="#63b8ff" points="761.01,-303.82 750.48,-305.05 759.48,-310.65 761.01,-303.82"/>
</a>
</g>
</g>
<!-- Node20 -->
<g id="Node000020" class="node">
<title>Node20</title>
<g id="a_Node000020"><a xlink:title=" ">
<polygon fill="#e0e0e0" stroke="#999999" points="152.18,-189.5 94.18,-189.5 94.18,-170.5 152.18,-170.5 152.18,-189.5"/>
<text text-anchor="middle" x="123.18" y="-177.5" font-family="Helvetica,sans-Serif" font-size="10.00">memory</text>
</a>
</g>
</g>
<!-- Node1&#45;&gt;Node20 -->
<g id="edge45_Node000001_Node000020" class="edge">
<title>Node1&#45;&gt;Node20</title>
<g id="a_edge45_Node000001_Node000020"><a xlink:title=" ">
<path fill="none" stroke="#63b8ff" d="M882.5,-345.65C755.78,-331.49 520.58,-300.74 325.18,-250 263.47,-233.98 193.48,-208.33 154.2,-193.23"/>
<polygon fill="#63b8ff" stroke="#63b8ff" points="155.26,-189.89 144.67,-189.54 152.73,-196.41 155.26,-189.89"/>
</a>
</g>
</g>
<!-- Node2&#45;&gt;Node3 -->
<g id="edge2_Node000002_Node000003" class="edge">
<title>Node2&#45;&gt;Node3</title>
<g id="a_edge2_Node000002_Node000003"><a xlink:title=" ">
<path fill="none" stroke="#63b8ff" d="M854.59,-111.7C849.73,-111.08 844.85,-110.5 840.18,-110 629.37,-87.48 572.81,-97.57 357.76,-73.97"/>
<polygon fill="#63b8ff" stroke="#63b8ff" points="358.05,-70.48 347.73,-72.86 357.28,-77.44 358.05,-70.48"/>
</a>
</g>
</g>
<!-- Node2&#45;&gt;Node4 -->
<g id="edge6_Node000002_Node000004" class="edge">
<title>Node2&#45;&gt;Node4</title>
<g id="a_edge6_Node000002_Node000004"><a xlink:title=" ">
<path fill="none" stroke="#63b8ff" d="M901.18,-109.66C901.18,-92.17 901.18,-52.8 901.18,-29.27"/>
<polygon fill="#63b8ff" stroke="#63b8ff" points="904.68,-29.16 901.18,-19.16 897.68,-29.16 904.68,-29.16"/>
</a>
</g>
</g>
<!-- Node5 -->
<g id="Node000005" class="node">
<title>Node5</title>
<g id="a_Node000005"><a xlink:href="../../da/d16/vector_8hpp.html" target="_top" xlink:title=" ">
<polygon fill="white" stroke="#666666" points="464.18,-74 366.18,-74 366.18,-55 464.18,-55 464.18,-74"/>
<text text-anchor="middle" x="415.18" y="-62" font-family="Helvetica,sans-Serif" font-size="10.00">qugar/vector.hpp</text>
</a>
</g>
</g>
<!-- Node2&#45;&gt;Node5 -->
<g id="edge4_Node000002_Node000005" class="edge">
<title>Node2&#45;&gt;Node5</title>
<g id="a_edge4_Node000002_Node000005"><a xlink:title=" ">
<path fill="none" stroke="#63b8ff" d="M854.57,-111.84C849.71,-111.19 844.85,-110.57 840.18,-110 709.88,-94.11 556.68,-78.92 474.47,-71.06"/>
<polygon fill="#63b8ff" stroke="#63b8ff" points="474.61,-67.56 464.32,-70.1 473.94,-74.53 474.61,-67.56"/>
</a>
</g>
</g>
<!-- Node2&#45;&gt;Node7 -->
<g id="edge7_Node000002_Node000007" class="edge">
<title>Node2&#45;&gt;Node7</title>
<g id="a_edge7_Node000002_Node000007"><a xlink:title=" ">
<path fill="none" stroke="#63b8ff" d="M938.45,-109.98C982.94,-99.82 1056.69,-82.97 1099.52,-73.19"/>
<polygon fill="#63b8ff" stroke="#63b8ff" points="1100.48,-76.56 1109.45,-70.92 1098.92,-69.73 1100.48,-76.56"/>
</a>
</g>
</g>
<!-- Node3&#45;&gt;Node4 -->
<g id="edge3_Node000003_Node000004" class="edge">
<title>Node3&#45;&gt;Node4</title>
<g id="a_edge3_Node000003_Node000004"><a xlink:title=" ">
<path fill="none" stroke="#63b8ff" d="M347.73,-56.17C350.92,-55.75 354.1,-55.36 357.18,-55 547.59,-33.04 776.73,-18 864.52,-12.66"/>
<polygon fill="#63b8ff" stroke="#63b8ff" points="864.74,-16.15 874.51,-12.05 864.32,-9.16 864.74,-16.15"/>
</a>
</g>
</g>
<!-- Node6 -->
<g id="Node000006" class="node">
<title>Node6</title>
<g id="a_Node000006"><a xlink:title=" ">
<polygon fill="#e0e0e0" stroke="#999999" points="470.18,-19 360.18,-19 360.18,0 470.18,0 470.18,-19"/>
<text text-anchor="middle" x="415.18" y="-7" font-family="Helvetica,sans-Serif" font-size="10.00">algoim/uvector.hpp</text>
</a>
</g>
</g>
<!-- Node5&#45;&gt;Node6 -->
<g id="edge5_Node000005_Node000006" class="edge">
<title>Node5&#45;&gt;Node6</title>
<g id="a_edge5_Node000005_Node000006"><a xlink:title=" ">
<path fill="none" stroke="#63b8ff" d="M415.18,-54.75C415.18,-47.8 415.18,-37.85 415.18,-29.13"/>
<polygon fill="#63b8ff" stroke="#63b8ff" points="418.68,-29.09 415.18,-19.09 411.68,-29.09 418.68,-29.09"/>
</a>
</g>
</g>
<!-- Node8&#45;&gt;Node4 -->
<g id="edge39_Node000008_Node000004" class="edge">
<title>Node8&#45;&gt;Node4</title>
<g id="a_edge39_Node000008_Node000004"><a xlink:title=" ">
<path fill="none" stroke="#63b8ff" d="M786.29,-294.96C885.04,-294.09 1052.82,-286.99 1100.18,-250 1172.28,-193.68 1225.27,-124.85 1166.18,-55 1137.42,-21.01 1004.23,-12.97 938.32,-11.08"/>
<polygon fill="#63b8ff" stroke="#63b8ff" points="938.05,-7.57 927.97,-10.81 937.87,-14.57 938.05,-7.57"/>
</a>
</g>
</g>
<!-- Node8&#45;&gt;Node7 -->
<g id="edge43_Node000008_Node000007" class="edge">
<title>Node8&#45;&gt;Node7</title>
<g id="a_edge43_Node000008_Node000007"><a xlink:title=" ">
<path fill="none" stroke="#63b8ff" d="M786.39,-291.22C868.18,-284.18 1000.07,-262.32 1090.18,-195 1117.65,-174.47 1120.17,-161.81 1130.18,-129 1134.61,-114.47 1135.14,-97.2 1134.69,-84.34"/>
<polygon fill="#63b8ff" stroke="#63b8ff" points="1138.18,-84.14 1134.11,-74.36 1131.19,-84.55 1138.18,-84.14"/>
</a>
</g>
</g>
<!-- Node9 -->
<g id="Node000009" class="node">
<title>Node9</title>
<g id="a_Node000009"><a xlink:href="../../d6/d49/cart__grid__tp_8hpp.html" target="_top" xlink:title="Definition of Cartesian grid class.">
<polygon fill="white" stroke="#666666" points="775.18,-250 649.18,-250 649.18,-231 775.18,-231 775.18,-250"/>
<text text-anchor="middle" x="712.18" y="-238" font-family="Helvetica,sans-Serif" font-size="10.00">qugar/cart_grid_tp.hpp</text>
</a>
</g>
</g>
<!-- Node8&#45;&gt;Node9 -->
<g id="edge10_Node000008_Node000009" class="edge">
<title>Node8&#45;&gt;Node9</title>
<g id="a_edge10_Node000008_Node000009"><a xlink:title=" ">
<path fill="none" stroke="#63b8ff" d="M712.18,-285.75C712.18,-278.8 712.18,-268.85 712.18,-260.13"/>
<polygon fill="#63b8ff" stroke="#63b8ff" points="715.68,-260.09 712.18,-250.09 708.68,-260.09 715.68,-260.09"/>
</a>
</g>
</g>
<!-- Node13 -->
<g id="Node000013" class="node">
<title>Node13</title>
<g id="a_Node000013"><a xlink:title=" ">
<polygon fill="#e0e0e0" stroke="#999999" points="426.18,-129 384.18,-129 384.18,-110 426.18,-110 426.18,-129"/>
<text text-anchor="middle" x="405.18" y="-117" font-family="Helvetica,sans-Serif" font-size="10.00">array</text>
</a>
</g>
</g>
<!-- Node8&#45;&gt;Node13 -->
<g id="edge37_Node000008_Node000013" class="edge">
<title>Node8&#45;&gt;Node13</title>
<g id="a_edge37_Node000008_Node000013"><a xlink:title=" ">
<path fill="none" stroke="#63b8ff" d="M696.95,-285.87C647.34,-257.75 490.04,-168.6 429.37,-134.21"/>
<polygon fill="#63b8ff" stroke="#63b8ff" points="430.92,-131.07 420.49,-129.18 427.47,-137.16 430.92,-131.07"/>
</a>
</g>
</g>
<!-- Node15 -->
<g id="Node000015" class="node">
<title>Node15</title>
<g id="a_Node000015"><a xlink:title=" ">
<polygon fill="#e0e0e0" stroke="#999999" points="81.18,-129 29.18,-129 29.18,-110 81.18,-110 81.18,-129"/>
<text text-anchor="middle" x="55.18" y="-117" font-family="Helvetica,sans-Serif" font-size="10.00">cassert</text>
</a>
</g>
</g>
<!-- Node8&#45;&gt;Node15 -->
<g id="edge38_Node000008_Node000015" class="edge">
<title>Node8&#45;&gt;Node15</title>
<g id="a_edge38_Node000008_Node000015"><a xlink:title=" ">
<path fill="none" stroke="#63b8ff" d="M637.97,-292.2C490.39,-286.14 167.22,-265.04 85.18,-195 68.56,-180.82 61.05,-156.09 57.72,-139.04"/>
<polygon fill="#63b8ff" stroke="#63b8ff" points="61.16,-138.42 56.08,-129.13 54.26,-139.56 61.16,-138.42"/>
</a>
</g>
</g>
<!-- Node8&#45;&gt;Node20 -->
<g id="edge41_Node000008_Node000020" class="edge">
<title>Node8&#45;&gt;Node20</title>
<g id="a_edge41_Node000008_Node000020"><a xlink:title=" ">
<path fill="none" stroke="#63b8ff" d="M644.53,-285.95C540.54,-271.95 335.64,-241.03 166.18,-195 163.41,-194.25 160.55,-193.42 157.69,-192.57"/>
<polygon fill="#63b8ff" stroke="#63b8ff" points="158.65,-189.2 148.06,-189.56 156.57,-195.88 158.65,-189.2"/>
</a>
</g>
</g>
<!-- Node22 -->
<g id="Node000022" class="node">
<title>Node22</title>
<g id="a_Node000022"><a xlink:title=" ">
<polygon fill="#e0e0e0" stroke="#999999" points="1091.18,-250 1041.18,-250 1041.18,-231 1091.18,-231 1091.18,-250"/>
<text text-anchor="middle" x="1066.18" y="-238" font-family="Helvetica,sans-Serif" font-size="10.00">cstdint</text>
</a>
</g>
</g>
<!-- Node8&#45;&gt;Node22 -->
<g id="edge40_Node000008_Node000022" class="edge">
<title>Node8&#45;&gt;Node22</title>
<g id="a_edge40_Node000008_Node000022"><a xlink:title=" ">
<path fill="none" stroke="#63b8ff" d="M783.41,-285.97C847.42,-277.94 943.87,-264.94 1027.18,-250 1028.44,-249.77 1029.73,-249.53 1031.03,-249.29"/>
<polygon fill="#63b8ff" stroke="#63b8ff" points="1031.95,-252.67 1041.06,-247.26 1030.56,-245.81 1031.95,-252.67"/>
</a>
</g>
</g>
<!-- Node23 -->
<g id="Node000023" class="node">
<title>Node23</title>
<g id="a_Node000023"><a xlink:title=" ">
<polygon fill="#e0e0e0" stroke="#999999" points="518.68,-250 425.68,-250 425.68,-231 518.68,-231 518.68,-250"/>
<text text-anchor="middle" x="472.18" y="-238" font-family="Helvetica,sans-Serif" font-size="10.00">unordered_map</text>
</a>
</g>
</g>
<!-- Node8&#45;&gt;Node23 -->
<g id="edge42_Node000008_Node000023" class="edge">
<title>Node8&#45;&gt;Node23</title>
<g id="a_edge42_Node000008_Node000023"><a xlink:title=" ">
<path fill="none" stroke="#63b8ff" d="M673.62,-285.98C632.1,-276.82 565.97,-262.21 520.89,-252.26"/>
<polygon fill="#63b8ff" stroke="#63b8ff" points="521.56,-248.82 511.04,-250.08 520.05,-255.66 521.56,-248.82"/>
</a>
</g>
</g>
<!-- Node9&#45;&gt;Node2 -->
<g id="edge18_Node000009_Node000002" class="edge">
<title>Node9&#45;&gt;Node2</title>
<g id="a_edge18_Node000009_Node000002"><a xlink:title=" ">
<path fill="none" stroke="#63b8ff" d="M723.32,-230.99C742.31,-216.65 782.37,-187.07 818.18,-165 836.56,-153.67 858.07,-142.18 874.58,-133.72"/>
<polygon fill="#63b8ff" stroke="#63b8ff" points="876.33,-136.76 883.67,-129.11 873.17,-130.52 876.33,-136.76"/>
</a>
</g>
</g>
<!-- Node9&#45;&gt;Node3 -->
<g id="edge31_Node000009_Node000003" class="edge">
<title>Node9&#45;&gt;Node3</title>
<g id="a_edge31_Node000009_Node000003"><a xlink:title=" ">
<path fill="none" stroke="#63b8ff" d="M648.99,-236.22C515.26,-228.99 214.55,-211.02 199.18,-195 173,-167.73 175.36,-141.55 196.18,-110 206.81,-93.89 224.61,-83.59 242.5,-77.01"/>
<polygon fill="#63b8ff" stroke="#63b8ff" points="244.02,-80.2 252.41,-73.73 241.82,-73.55 244.02,-80.2"/>
</a>
</g>
</g>
<!-- Node9&#45;&gt;Node4 -->
<g id="edge33_Node000009_Node000004" class="edge">
<title>Node9&#45;&gt;Node4</title>
<g id="a_edge33_Node000009_Node000004"><a xlink:title=" ">
<path fill="none" stroke="#63b8ff" d="M775.22,-236.94C824.95,-232.8 894.9,-222.15 950.18,-195 960.07,-190.14 1019.67,-139.05 1024.18,-129 1045.93,-80.45 976.77,-41.74 933.44,-22.93"/>
<polygon fill="#63b8ff" stroke="#63b8ff" points="934.68,-19.66 924.11,-19.01 931.97,-26.11 934.68,-19.66"/>
</a>
</g>
</g>
<!-- Node9&#45;&gt;Node7 -->
<g id="edge36_Node000009_Node000007" class="edge">
<title>Node9&#45;&gt;Node7</title>
<g id="a_edge36_Node000009_Node000007"><a xlink:title=" ">
<path fill="none" stroke="#63b8ff" d="M775.45,-238.23C863.37,-235.35 1016.8,-225.9 1062.18,-195 1101.09,-168.5 1120.71,-113.39 1128.69,-84.34"/>
<polygon fill="#63b8ff" stroke="#63b8ff" points="1132.18,-84.84 1131.27,-74.28 1125.4,-83.1 1132.18,-84.84"/>
</a>
</g>
</g>
<!-- Node10 -->
<g id="Node000010" class="node">
<title>Node10</title>
<g id="a_Node000010"><a xlink:href="../../d5/d90/bbox_8hpp.html" target="_top" xlink:title="Definition of Cartesian bounding box class.">
<polygon fill="white" stroke="#666666" points="705.18,-189.5 613.18,-189.5 613.18,-170.5 705.18,-170.5 705.18,-189.5"/>
<text text-anchor="middle" x="659.18" y="-177.5" font-family="Helvetica,sans-Serif" font-size="10.00">qugar/bbox.hpp</text>
</a>
</g>
</g>
<!-- Node9&#45;&gt;Node10 -->
<g id="edge11_Node000009_Node000010" class="edge">
<title>Node9&#45;&gt;Node10</title>
<g id="a_edge11_Node000009_Node000010"><a xlink:title=" ">
<path fill="none" stroke="#63b8ff" d="M704.36,-230.87C696.37,-222.05 683.78,-208.16 673.92,-197.27"/>
<polygon fill="#63b8ff" stroke="#63b8ff" points="676.34,-194.73 667.03,-189.67 671.15,-199.43 676.34,-194.73"/>
</a>
</g>
</g>
<!-- Node9&#45;&gt;Node13 -->
<g id="edge32_Node000009_Node000013" class="edge">
<title>Node9&#45;&gt;Node13</title>
<g id="a_edge32_Node000009_Node000013"><a xlink:title=" ">
<path fill="none" stroke="#63b8ff" d="M687.02,-230.91C664.66,-222.87 631.41,-209.88 604.18,-195 583.73,-183.83 582.22,-175 561.18,-165 539.05,-154.49 474.96,-137.71 436.16,-128.04"/>
<polygon fill="#63b8ff" stroke="#63b8ff" points="436.96,-124.64 426.41,-125.63 435.27,-131.43 436.96,-124.64"/>
</a>
</g>
</g>
<!-- Node14 -->
<g id="Node000014" class="node">
<title>Node14</title>
<g id="a_Node000014"><a xlink:href="../../d9/d43/tensor__index__tp_8hpp.html" target="_top" xlink:title="Declaration of tensor&#45;product index and size related classes.">
<polygon fill="white" stroke="#666666" points="318.18,-195 208.18,-195 208.18,-165 318.18,-165 318.18,-195"/>
<text text-anchor="start" x="216.18" y="-183" font-family="Helvetica,sans-Serif" font-size="10.00">qugar/tensor_index</text>
<text text-anchor="middle" x="263.18" y="-172" font-family="Helvetica,sans-Serif" font-size="10.00">_tp.hpp</text>
</a>
</g>
</g>
<!-- Node9&#45;&gt;Node14 -->
<g id="edge19_Node000009_Node000014" class="edge">
<title>Node9&#45;&gt;Node14</title>
<g id="a_edge19_Node000009_Node000014"><a xlink:title=" ">
<path fill="none" stroke="#63b8ff" d="M648.8,-231.24C564.01,-220.2 414.42,-200.71 328.61,-189.52"/>
<polygon fill="#63b8ff" stroke="#63b8ff" points="328.83,-186.03 318.47,-188.2 327.93,-192.97 328.83,-186.03"/>
</a>
</g>
</g>
<!-- Node18 -->
<g id="Node000018" class="node">
<title>Node18</title>
<g id="a_Node000018"><a xlink:href="../../d0/d55/tolerance_8hpp.html" target="_top" xlink:title="Definition of tolerance related functionalities.">
<polygon fill="white" stroke="#666666" points="941.18,-189.5 827.18,-189.5 827.18,-170.5 941.18,-170.5 941.18,-189.5"/>
<text text-anchor="middle" x="884.18" y="-177.5" font-family="Helvetica,sans-Serif" font-size="10.00">qugar/tolerance.hpp</text>
</a>
</g>
</g>
<!-- Node9&#45;&gt;Node18 -->
<g id="edge26_Node000009_Node000018" class="edge">
<title>Node9&#45;&gt;Node18</title>
<g id="a_edge26_Node000009_Node000018"><a xlink:title=" ">
<path fill="none" stroke="#63b8ff" d="M737.19,-230.99C766.74,-220.94 816.09,-204.16 849.36,-192.84"/>
<polygon fill="#63b8ff" stroke="#63b8ff" points="850.8,-196.05 859.14,-189.52 848.54,-189.42 850.8,-196.05"/>
</a>
</g>
</g>
<!-- Node9&#45;&gt;Node20 -->
<g id="edge34_Node000009_Node000020" class="edge">
<title>Node9&#45;&gt;Node20</title>
<g id="a_edge34_Node000009_Node000020"><a xlink:title=" ">
<path fill="none" stroke="#63b8ff" d="M648.96,-236.21C525.61,-229.47 256.98,-213.22 166.18,-195 162.76,-194.32 159.24,-193.45 155.75,-192.48"/>
<polygon fill="#63b8ff" stroke="#63b8ff" points="156.71,-189.11 146.12,-189.56 154.68,-195.81 156.71,-189.11"/>
</a>
</g>
</g>
<!-- Node21 -->
<g id="Node000021" class="node">
<title>Node21</title>
<g id="a_Node000021"><a xlink:title=" ">
<polygon fill="#e0e0e0" stroke="#999999" points="1053.18,-189.5 997.18,-189.5 997.18,-170.5 1053.18,-170.5 1053.18,-189.5"/>
<text text-anchor="middle" x="1025.18" y="-177.5" font-family="Helvetica,sans-Serif" font-size="10.00">optional</text>
</a>
</g>
</g>
<!-- Node9&#45;&gt;Node21 -->
<g id="edge35_Node000009_Node000021" class="edge">
<title>Node9&#45;&gt;Node21</title>
<g id="a_edge35_Node000009_Node000021"><a xlink:title=" ">
<path fill="none" stroke="#63b8ff" d="M775.18,-232.04C830.47,-224.81 912.82,-212.39 983.18,-195 986.14,-194.27 989.2,-193.43 992.24,-192.53"/>
<polygon fill="#63b8ff" stroke="#63b8ff" points="993.33,-195.85 1001.82,-189.52 991.23,-189.17 993.33,-195.85"/>
</a>
</g>
</g>
<!-- Node10&#45;&gt;Node2 -->
<g id="edge13_Node000010_Node000002" class="edge">
<title>Node10&#45;&gt;Node2</title>
<g id="a_edge13_Node000010_Node000002"><a xlink:title=" ">
<path fill="none" stroke="#63b8ff" d="M694.37,-170.49C737.11,-160.16 809.29,-142.71 856.08,-131.4"/>
<polygon fill="#63b8ff" stroke="#63b8ff" points="857.05,-134.77 865.95,-129.02 855.4,-127.96 857.05,-134.77"/>
</a>
</g>
</g>
<!-- Node10&#45;&gt;Node3 -->
<g id="edge14_Node000010_Node000003" class="edge">
<title>Node10&#45;&gt;Node3</title>
<g id="a_edge14_Node000010_Node000003"><a xlink:title=" ">
<path fill="none" stroke="#63b8ff" d="M622.29,-170.49C585.36,-161.59 527.15,-146.48 478.18,-129 458.5,-121.98 454.68,-117.5 435.18,-110 403.11,-97.67 366,-85.59 338.81,-77.13"/>
<polygon fill="#63b8ff" stroke="#63b8ff" points="339.49,-73.68 328.91,-74.08 337.43,-80.37 339.49,-73.68"/>
</a>
</g>
</g>
<!-- Node10&#45;&gt;Node4 -->
<g id="edge17_Node000010_Node000004" class="edge">
<title>Node10&#45;&gt;Node4</title>
<g id="a_edge17_Node000010_Node000004"><a xlink:title=" ">
<path fill="none" stroke="#63b8ff" d="M627.59,-170.44C586.25,-158.92 518.17,-138.75 511.18,-129 506.25,-122.14 506,-116.67 511.18,-110 554.84,-53.79 775.98,-24.03 864.49,-14.22"/>
<polygon fill="#63b8ff" stroke="#63b8ff" points="865.04,-17.68 874.6,-13.12 864.28,-10.72 865.04,-17.68"/>
</a>
</g>
</g>
<!-- Node11 -->
<g id="Node000011" class="node">
<title>Node11</title>
<g id="a_Node000011"><a xlink:href="../../d7/dd8/concepts_8hpp.html" target="_top" xlink:title="Declaration of concepts.">
<polygon fill="white" stroke="#666666" points="798.18,-129 686.18,-129 686.18,-110 798.18,-110 798.18,-129"/>
<text text-anchor="middle" x="742.18" y="-117" font-family="Helvetica,sans-Serif" font-size="10.00">qugar/concepts.hpp</text>
</a>
</g>
</g>
<!-- Node10&#45;&gt;Node11 -->
<g id="edge12_Node000010_Node000011" class="edge">
<title>Node10&#45;&gt;Node11</title>
<g id="a_edge12_Node000010_Node000011"><a xlink:title=" ">
<path fill="none" stroke="#63b8ff" d="M671.42,-170.37C684.54,-161.12 705.59,-146.28 721.33,-135.19"/>
<polygon fill="#63b8ff" stroke="#63b8ff" points="723.72,-137.79 729.88,-129.17 719.69,-132.07 723.72,-137.79"/>
</a>
</g>
</g>
<!-- Node12 -->
<g id="Node000012" class="node">
<title>Node12</title>
<g id="a_Node000012"><a xlink:title=" ">
<polygon fill="#e0e0e0" stroke="#999999" points="668.18,-129 520.18,-129 520.18,-110 668.18,-110 668.18,-129"/>
<text text-anchor="middle" x="594.18" y="-117" font-family="Helvetica,sans-Serif" font-size="10.00">algoim/hyperrectangle.hpp</text>
</a>
</g>
</g>
<!-- Node10&#45;&gt;Node12 -->
<g id="edge15_Node000010_Node000012" class="edge">
<title>Node10&#45;&gt;Node12</title>
<g id="a_edge15_Node000010_Node000012"><a xlink:title=" ">
<path fill="none" stroke="#63b8ff" d="M649.59,-170.37C639.6,-161.38 623.75,-147.11 611.55,-136.14"/>
<polygon fill="#63b8ff" stroke="#63b8ff" points="613.58,-133.26 603.81,-129.17 608.9,-138.46 613.58,-133.26"/>
</a>
</g>
</g>
<!-- Node10&#45;&gt;Node13 -->
<g id="edge16_Node000010_Node000013" class="edge">
<title>Node10&#45;&gt;Node13</title>
<g id="a_edge16_Node000010_Node000013"><a xlink:title=" ">
<path fill="none" stroke="#63b8ff" d="M622.7,-170.45C614.94,-168.64 606.79,-166.75 599.18,-165 528.56,-148.77 510.72,-145.55 440.18,-129 438.91,-128.7 437.62,-128.4 436.31,-128.09"/>
<polygon fill="#63b8ff" stroke="#63b8ff" points="436.8,-124.61 426.26,-125.68 435.17,-131.41 436.8,-124.61"/>
</a>
</g>
</g>
<!-- Node14&#45;&gt;Node4 -->
<g id="edge23_Node000014_Node000004" class="edge">
<title>Node14&#45;&gt;Node4</title>
<g id="a_edge23_Node000014_Node000004"><a xlink:title=" ">
<path fill="none" stroke="#63b8ff" d="M233.15,-164.84C219.19,-156.53 203.98,-144.57 196.18,-129 177.7,-92.15 242.73,-55.72 244.18,-55 299.78,-27.42 733.76,-14.61 864.21,-11.36"/>
<polygon fill="#63b8ff" stroke="#63b8ff" points="864.57,-14.85 874.48,-11.11 864.39,-7.85 864.57,-14.85"/>
</a>
</g>
</g>
<!-- Node14&#45;&gt;Node5 -->
<g id="edge20_Node000014_Node000005" class="edge">
<title>Node14&#45;&gt;Node5</title>
<g id="a_edge20_Node000014_Node000005"><a xlink:title=" ">
<path fill="none" stroke="#63b8ff" d="M237.34,-164.85C215.35,-150.99 189.61,-129.21 205.18,-110 210.05,-103.99 297.04,-87.04 357.52,-75.88"/>
<polygon fill="#63b8ff" stroke="#63b8ff" points="358.52,-79.25 367.73,-74 357.26,-72.37 358.52,-79.25"/>
</a>
</g>
</g>
<!-- Node14&#45;&gt;Node13 -->
<g id="edge21_Node000014_Node000013" class="edge">
<title>Node14&#45;&gt;Node13</title>
<g id="a_edge21_Node000014_Node000013"><a xlink:title=" ">
<path fill="none" stroke="#63b8ff" d="M297.19,-164.99C320.78,-155.27 351.92,-142.44 374.69,-133.06"/>
<polygon fill="#63b8ff" stroke="#63b8ff" points="376.29,-136.18 384.21,-129.14 373.63,-129.71 376.29,-136.18"/>
</a>
</g>
</g>
<!-- Node14&#45;&gt;Node15 -->
<g id="edge22_Node000014_Node000015" class="edge">
<title>Node14&#45;&gt;Node15</title>
<g id="a_edge22_Node000014_Node000015"><a xlink:title=" ">
<path fill="none" stroke="#63b8ff" d="M213.36,-164.99C175.78,-154.42 125.11,-140.17 91.35,-130.67"/>
<polygon fill="#63b8ff" stroke="#63b8ff" points="92.02,-127.23 81.45,-127.89 90.13,-133.97 92.02,-127.23"/>
</a>
</g>
</g>
<!-- Node16 -->
<g id="Node000016" class="node">
<title>Node16</title>
<g id="a_Node000016"><a xlink:title=" ">
<polygon fill="#e0e0e0" stroke="#999999" points="365.68,-129 300.68,-129 300.68,-110 365.68,-110 365.68,-129"/>
<text text-anchor="middle" x="333.18" y="-117" font-family="Helvetica,sans-Serif" font-size="10.00">functional</text>
</a>
</g>
</g>
<!-- Node14&#45;&gt;Node16 -->
<g id="edge24_Node000014_Node000016" class="edge">
<title>Node14&#45;&gt;Node16</title>
<g id="a_edge24_Node000014_Node000016"><a xlink:title=" ">
<path fill="none" stroke="#63b8ff" d="M280.12,-164.84C290.59,-156.09 304.04,-144.85 314.77,-135.88"/>
<polygon fill="#63b8ff" stroke="#63b8ff" points="317.26,-138.36 322.69,-129.27 312.77,-132.99 317.26,-138.36"/>
</a>
</g>
</g>
<!-- Node17 -->
<g id="Node000017" class="node">
<title>Node17</title>
<g id="a_Node000017"><a xlink:title=" ">
<polygon fill="#e0e0e0" stroke="#999999" points="282.68,-129 213.68,-129 213.68,-110 282.68,-110 282.68,-129"/>
<text text-anchor="middle" x="248.18" y="-117" font-family="Helvetica,sans-Serif" font-size="10.00">type_traits</text>
</a>
</g>
</g>
<!-- Node14&#45;&gt;Node17 -->
<g id="edge25_Node000014_Node000017" class="edge">
<title>Node14&#45;&gt;Node17</title>
<g id="a_edge25_Node000014_Node000017"><a xlink:title=" ">
<path fill="none" stroke="#63b8ff" d="M259.55,-164.84C257.57,-157.13 255.1,-147.49 252.96,-139.17"/>
<polygon fill="#63b8ff" stroke="#63b8ff" points="256.3,-138.08 250.42,-129.27 249.52,-139.82 256.3,-138.08"/>
</a>
</g>
</g>
<!-- Node18&#45;&gt;Node2 -->
<g id="edge27_Node000018_Node000002" class="edge">
<title>Node18&#45;&gt;Node2</title>
<g id="a_edge27_Node000018_Node000002"><a xlink:title=" ">
<path fill="none" stroke="#63b8ff" d="M886.68,-170.37C889.07,-162.16 892.74,-149.54 895.78,-139.05"/>
<polygon fill="#63b8ff" stroke="#63b8ff" points="899.23,-139.75 898.66,-129.17 892.51,-137.79 899.23,-139.75"/>
</a>
</g>
</g>
<!-- Node18&#45;&gt;Node3 -->
<g id="edge28_Node000018_Node000003" class="edge">
<title>Node18&#45;&gt;Node3</title>
<g id="a_edge28_Node000018_Node000003"><a xlink:title=" ">
<path fill="none" stroke="#63b8ff" d="M877.71,-170.29C865.75,-154.94 838.52,-123.45 807.18,-110 717.68,-71.61 471.83,-84.58 357.7,-73.87"/>
<polygon fill="#63b8ff" stroke="#63b8ff" points="358.04,-70.39 347.73,-72.84 357.31,-77.35 358.04,-70.39"/>
</a>
</g>
</g>
<!-- Node18&#45;&gt;Node7 -->
<g id="edge30_Node000018_Node000007" class="edge">
<title>Node18&#45;&gt;Node7</title>
<g id="a_edge30_Node000018_Node000007"><a xlink:title=" ">
<path fill="none" stroke="#63b8ff" d="M912.95,-170.44C941.69,-161.5 986.85,-146.36 1024.18,-129 1055.66,-114.36 1089.95,-93.5 1111.5,-79.74"/>
<polygon fill="#63b8ff" stroke="#63b8ff" points="1113.67,-82.5 1120.18,-74.14 1109.88,-76.62 1113.67,-82.5"/>
</a>
</g>
</g>
<!-- Node19 -->
<g id="Node000019" class="node">
<title>Node19</title>
<g id="a_Node000019"><a xlink:title=" ">
<polygon fill="#e0e0e0" stroke="#999999" points="1014.68,-129 965.68,-129 965.68,-110 1014.68,-110 1014.68,-129"/>
<text text-anchor="middle" x="990.18" y="-117" font-family="Helvetica,sans-Serif" font-size="10.00">cstdlib</text>
</a>
</g>
</g>
<!-- Node18&#45;&gt;Node19 -->
<g id="edge29_Node000018_Node000019" class="edge">
<title>Node18&#45;&gt;Node19</title>
<g id="a_edge29_Node000018_Node000019"><a xlink:title=" ">
<path fill="none" stroke="#63b8ff" d="M899.82,-170.37C917.12,-160.82 945.23,-145.31 965.5,-134.12"/>
<polygon fill="#63b8ff" stroke="#63b8ff" points="967.41,-137.06 974.47,-129.17 964.03,-130.93 967.41,-137.06"/>
</a>
</g>
</g>
</g>
</svg>
