<?xml version="1.0" encoding="UTF-8" standalone="no"?>
<!DOCTYPE svg PUBLIC "-//W3C//DTD SVG 1.1//EN"
 "http://www.w3.org/Graphics/SVG/1.1/DTD/svg11.dtd">
<!-- Generated by graphviz version 2.43.0 (0)
 -->
<!-- Title: qugar::impl::funcs::ConstantBase::value Pages: 1 -->
<svg width="331pt" height="134pt"
 viewBox="0.00 0.00 331.00 134.00" xmlns="http://www.w3.org/2000/svg" xmlns:xlink="http://www.w3.org/1999/xlink">
<g id="graph0" class="graph" transform="scale(1 1) rotate(0) translate(4 130)">
<title>qugar::impl::funcs::ConstantBase::value</title>
<!-- Node1 -->
<g id="Node000001" class="node">
<title>Node1</title>
<g id="a_Node000001"><a xlink:title="Gets the constant value.">
<polygon fill="#999999" stroke="#666666" points="323,-78 200,-78 200,-48 323,-48 323,-78"/>
<text text-anchor="start" x="208" y="-66" font-family="Helvetica,sans-Serif" font-size="10.00">qugar::impl::funcs</text>
<text text-anchor="middle" x="261.5" y="-55" font-family="Helvetica,sans-Serif" font-size="10.00">::ConstantBase::value</text>
</a>
</g>
</g>
<!-- Node2 -->
<g id="Node000002" class="node">
<title>Node2</title>
<g id="a_Node000002"><a xlink:href="../../d7/d02/classqugar_1_1impl_1_1funcs_1_1Constant.html#aa96d25746d8a39fb8e14fa8039de2603" target="_top" xlink:title="Constructor.">
<polygon fill="white" stroke="#666666" points="140,-126 24,-126 24,-96 140,-96 140,-126"/>
<text text-anchor="start" x="32" y="-114" font-family="Helvetica,sans-Serif" font-size="10.00">qugar::impl::funcs</text>
<text text-anchor="middle" x="82" y="-103" font-family="Helvetica,sans-Serif" font-size="10.00">::Constant::Constant</text>
</a>
</g>
</g>
<!-- Node1&#45;&gt;Node2 -->
<g id="edge1_Node000001_Node000002" class="edge">
<title>Node1&#45;&gt;Node2</title>
<g id="a_edge1_Node000001_Node000002"><a xlink:title=" ">
<path fill="none" stroke="#63b8ff" d="M194.98,-80.72C176.41,-85.74 156.39,-91.15 138.48,-96"/>
<polygon fill="#63b8ff" stroke="#63b8ff" points="196.09,-84.04 204.82,-78.06 194.26,-77.29 196.09,-84.04"/>
</a>
</g>
</g>
<!-- Node3 -->
<g id="Node000003" class="node">
<title>Node3</title>
<g id="a_Node000003"><a xlink:href="../../d1/d78/classqugar_1_1impl_1_1funcs_1_1ConstantBase.html#ac560c6379a889e6f276a182dfe03a969" target="_top" xlink:title="Constructor.">
<polygon fill="white" stroke="#666666" points="164,-78 0,-78 0,-48 164,-48 164,-78"/>
<text text-anchor="start" x="8" y="-66" font-family="Helvetica,sans-Serif" font-size="10.00">qugar::impl::funcs</text>
<text text-anchor="middle" x="82" y="-55" font-family="Helvetica,sans-Serif" font-size="10.00">::ConstantBase::ConstantBase</text>
</a>
</g>
</g>
<!-- Node1&#45;&gt;Node3 -->
<g id="edge2_Node000001_Node000003" class="edge">
<title>Node1&#45;&gt;Node3</title>
<g id="a_edge2_Node000001_Node000003"><a xlink:title=" ">
<path fill="none" stroke="#63b8ff" d="M189.74,-63C181.29,-63 172.61,-63 164.03,-63"/>
<polygon fill="#63b8ff" stroke="#63b8ff" points="189.91,-66.5 199.91,-63 189.91,-59.5 189.91,-66.5"/>
</a>
</g>
</g>
<!-- Node4 -->
<g id="Node000004" class="node">
<title>Node4</title>
<g id="a_Node000004"><a xlink:href="../../dd/da4/classqugar_1_1impl_1_1funcs_1_1ConstantBzr.html#ab5f9508de907d2286a10c5edc924c747" target="_top" xlink:title="Constructor.">
<polygon fill="white" stroke="#666666" points="155.5,-30 8.5,-30 8.5,0 155.5,0 155.5,-30"/>
<text text-anchor="start" x="16.5" y="-18" font-family="Helvetica,sans-Serif" font-size="10.00">qugar::impl::funcs</text>
<text text-anchor="middle" x="82" y="-7" font-family="Helvetica,sans-Serif" font-size="10.00">::ConstantBzr::ConstantBzr</text>
</a>
</g>
</g>
<!-- Node1&#45;&gt;Node4 -->
<g id="edge3_Node000001_Node000004" class="edge">
<title>Node1&#45;&gt;Node4</title>
<g id="a_edge3_Node000001_Node000004"><a xlink:title=" ">
<path fill="none" stroke="#63b8ff" d="M194.98,-45.28C176.41,-40.26 156.39,-34.85 138.48,-30"/>
<polygon fill="#63b8ff" stroke="#63b8ff" points="194.26,-48.71 204.82,-47.94 196.09,-41.96 194.26,-48.71"/>
</a>
</g>
</g>
</g>
</svg>
