<?xml version="1.0" encoding="UTF-8" standalone="no"?>
<!DOCTYPE svg PUBLIC "-//W3C//DTD SVG 1.1//EN"
 "http://www.w3.org/Graphics/SVG/1.1/DTD/svg11.dtd">
<!-- Generated by graphviz version 2.43.0 (0)
 -->
<!-- Title: /__w/qugar/qugar/cpp/include/qugar/reparam_mesh.hpp Pages: 1 -->
<svg width="1534pt" height="390pt"
 viewBox="0.00 0.00 1534.00 390.00" xmlns="http://www.w3.org/2000/svg" xmlns:xlink="http://www.w3.org/1999/xlink">
<g id="graph0" class="graph" transform="scale(1 1) rotate(0) translate(4 386)">
<title>/__w/qugar/qugar/cpp/include/qugar/reparam_mesh.hpp</title>
<!-- Node1 -->
<g id="Node000001" class="node">
<title>Node1</title>
<g id="a_Node000001"><a xlink:title="Declaration of reparameterization class.">
<polygon fill="#999999" stroke="#666666" points="916,-382 786,-382 786,-341 916,-341 916,-382"/>
<text text-anchor="start" x="794" y="-370" font-family="Helvetica,sans-Serif" font-size="10.00">/__w/qugar/qugar/cpp</text>
<text text-anchor="start" x="794" y="-359" font-family="Helvetica,sans-Serif" font-size="10.00">/include/qugar/reparam</text>
<text text-anchor="middle" x="851" y="-348" font-family="Helvetica,sans-Serif" font-size="10.00">_mesh.hpp</text>
</a>
</g>
</g>
<!-- Node2 -->
<g id="Node000002" class="node">
<title>Node2</title>
<g id="a_Node000002"><a xlink:href="../../d5/d90/bbox_8hpp.html" target="_top" xlink:title="Definition of Cartesian bounding box class.">
<polygon fill="white" stroke="#666666" points="395,-189.5 303,-189.5 303,-170.5 395,-170.5 395,-189.5"/>
<text text-anchor="middle" x="349" y="-177.5" font-family="Helvetica,sans-Serif" font-size="10.00">qugar/bbox.hpp</text>
</a>
</g>
</g>
<!-- Node1&#45;&gt;Node2 -->
<g id="edge1_Node000001_Node000002" class="edge">
<title>Node1&#45;&gt;Node2</title>
<g id="a_edge1_Node000001_Node000002"><a xlink:title=" ">
<path fill="none" stroke="#63b8ff" d="M785.65,-359.79C677.63,-357.4 467.9,-347.28 409,-305 373.65,-279.63 358.24,-227.69 352.28,-199.76"/>
<polygon fill="#63b8ff" stroke="#63b8ff" points="355.68,-198.87 350.33,-189.72 348.8,-200.2 355.68,-198.87"/>
</a>
</g>
</g>
<!-- Node4 -->
<g id="Node000004" class="node">
<title>Node4</title>
<g id="a_Node000004"><a xlink:href="../../d0/de4/point_8hpp.html" target="_top" xlink:title="Definition and implementation of Point class.">
<polygon fill="white" stroke="#666666" points="493.5,-129 400.5,-129 400.5,-110 493.5,-110 493.5,-129"/>
<text text-anchor="middle" x="447" y="-117" font-family="Helvetica,sans-Serif" font-size="10.00">qugar/point.hpp</text>
</a>
</g>
</g>
<!-- Node1&#45;&gt;Node4 -->
<g id="edge35_Node000001_Node000004" class="edge">
<title>Node1&#45;&gt;Node4</title>
<g id="a_edge35_Node000001_Node000004"><a xlink:title=" ">
<path fill="none" stroke="#63b8ff" d="M785.99,-353.75C695.32,-340.55 533.15,-302.48 454,-195 442.23,-179.02 442.02,-155.59 443.76,-139.28"/>
<polygon fill="#63b8ff" stroke="#63b8ff" points="447.23,-139.7 445.15,-129.31 440.3,-138.73 447.23,-139.7"/>
</a>
</g>
</g>
<!-- Node6 -->
<g id="Node000006" class="node">
<title>Node6</title>
<g id="a_Node000006"><a xlink:title=" ">
<polygon fill="#e0e0e0" stroke="#999999" points="548.5,-19 495.5,-19 495.5,0 548.5,0 548.5,-19"/>
<text text-anchor="middle" x="522" y="-7" font-family="Helvetica,sans-Serif" font-size="10.00">cstddef</text>
</a>
</g>
</g>
<!-- Node1&#45;&gt;Node6 -->
<g id="edge46_Node000001_Node000006" class="edge">
<title>Node1&#45;&gt;Node6</title>
<g id="a_edge46_Node000001_Node000006"><a xlink:title=" ">
<path fill="none" stroke="#63b8ff" d="M785.99,-358.24C587.05,-350.46 0,-320.8 0,-241.5 0,-241.5 0,-241.5 0,-118.5 0,-19.23 366.56,-10.5 485.34,-10.27"/>
<polygon fill="#63b8ff" stroke="#63b8ff" points="485.4,-13.77 495.4,-10.27 485.4,-6.77 485.4,-13.77"/>
</a>
</g>
</g>
<!-- Node9 -->
<g id="Node000009" class="node">
<title>Node9</title>
<g id="a_Node000009"><a xlink:title=" ">
<polygon fill="#e0e0e0" stroke="#999999" points="1072.5,-74 1025.5,-74 1025.5,-55 1072.5,-55 1072.5,-74"/>
<text text-anchor="middle" x="1049" y="-62" font-family="Helvetica,sans-Serif" font-size="10.00">vector</text>
</a>
</g>
</g>
<!-- Node1&#45;&gt;Node9 -->
<g id="edge50_Node000001_Node000009" class="edge">
<title>Node1&#45;&gt;Node9</title>
<g id="a_edge50_Node000001_Node000009"><a xlink:title=" ">
<path fill="none" stroke="#63b8ff" d="M916.05,-357.11C1044.29,-348.87 1322.1,-322.84 1377,-250 1460.19,-139.63 1181.93,-85.68 1082.77,-70.27"/>
<polygon fill="#63b8ff" stroke="#63b8ff" points="1083.08,-66.78 1072.67,-68.74 1082.03,-73.7 1083.08,-66.78"/>
</a>
</g>
</g>
<!-- Node12 -->
<g id="Node000012" class="node">
<title>Node12</title>
<g id="a_Node000012"><a xlink:href="../../d6/d49/cart__grid__tp_8hpp.html" target="_top" xlink:title="Definition of Cartesian grid class.">
<polygon fill="white" stroke="#666666" points="800,-250 674,-250 674,-231 800,-231 800,-250"/>
<text text-anchor="middle" x="737" y="-238" font-family="Helvetica,sans-Serif" font-size="10.00">qugar/cart_grid_tp.hpp</text>
</a>
</g>
</g>
<!-- Node1&#45;&gt;Node12 -->
<g id="edge14_Node000001_Node000012" class="edge">
<title>Node1&#45;&gt;Node12</title>
<g id="a_edge14_Node000001_Node000012"><a xlink:title=" ">
<path fill="none" stroke="#63b8ff" d="M832.18,-340.85C809.86,-317.55 773.09,-279.17 752.39,-257.57"/>
<polygon fill="#63b8ff" stroke="#63b8ff" points="754.76,-254.98 745.31,-250.18 749.7,-259.82 754.76,-254.98"/>
</a>
</g>
</g>
<!-- Node17 -->
<g id="Node000017" class="node">
<title>Node17</title>
<g id="a_Node000017"><a xlink:href="../../d0/d55/tolerance_8hpp.html" target="_top" xlink:title="Definition of tolerance related functionalities.">
<polygon fill="white" stroke="#666666" points="603,-189.5 489,-189.5 489,-170.5 603,-170.5 603,-189.5"/>
<text text-anchor="middle" x="546" y="-177.5" font-family="Helvetica,sans-Serif" font-size="10.00">qugar/tolerance.hpp</text>
</a>
</g>
</g>
<!-- Node1&#45;&gt;Node17 -->
<g id="edge36_Node000001_Node000017" class="edge">
<title>Node1&#45;&gt;Node17</title>
<g id="a_edge36_Node000001_Node000017"><a xlink:title=" ">
<path fill="none" stroke="#63b8ff" d="M817.78,-340.95C755.59,-304.35 623.03,-226.33 569.32,-194.73"/>
<polygon fill="#63b8ff" stroke="#63b8ff" points="570.93,-191.61 560.53,-189.55 567.38,-197.64 570.93,-191.61"/>
</a>
</g>
</g>
<!-- Node19 -->
<g id="Node000019" class="node">
<title>Node19</title>
<g id="a_Node000019"><a xlink:title=" ">
<polygon fill="#e0e0e0" stroke="#999999" points="1036,-189.5 978,-189.5 978,-170.5 1036,-170.5 1036,-189.5"/>
<text text-anchor="middle" x="1007" y="-177.5" font-family="Helvetica,sans-Serif" font-size="10.00">memory</text>
</a>
</g>
</g>
<!-- Node1&#45;&gt;Node19 -->
<g id="edge47_Node000001_Node000019" class="edge">
<title>Node1&#45;&gt;Node19</title>
<g id="a_edge47_Node000001_Node000019"><a xlink:title=" ">
<path fill="none" stroke="#63b8ff" d="M867.99,-340.95C898.87,-305.42 963.67,-230.85 992.56,-197.61"/>
<polygon fill="#63b8ff" stroke="#63b8ff" points="995.48,-199.59 999.4,-189.75 990.2,-195 995.48,-199.59"/>
</a>
</g>
</g>
<!-- Node21 -->
<g id="Node000021" class="node">
<title>Node21</title>
<g id="a_Node000021"><a xlink:href="../../d2/dfd/unfitted__domain_8hpp.html" target="_top" xlink:title="Declaration of of UnfittedDomain class.">
<polygon fill="white" stroke="#666666" points="1176,-305 1028,-305 1028,-286 1176,-286 1176,-305"/>
<text text-anchor="middle" x="1102" y="-293" font-family="Helvetica,sans-Serif" font-size="10.00">qugar/unfitted_domain.hpp</text>
</a>
</g>
</g>
<!-- Node1&#45;&gt;Node21 -->
<g id="edge37_Node000001_Node000021" class="edge">
<title>Node1&#45;&gt;Node21</title>
<g id="a_edge37_Node000001_Node000021"><a xlink:title=" ">
<path fill="none" stroke="#63b8ff" d="M916.29,-343.85C961.19,-332.4 1019.56,-317.52 1058.77,-307.52"/>
<polygon fill="#63b8ff" stroke="#63b8ff" points="1059.73,-310.89 1068.56,-305.03 1058,-304.11 1059.73,-310.89"/>
</a>
</g>
</g>
<!-- Node24 -->
<g id="Node000024" class="node">
<title>Node24</title>
<g id="a_Node000024"><a xlink:title=" ">
<polygon fill="#e0e0e0" stroke="#999999" points="1464,-305 1424,-305 1424,-286 1464,-286 1464,-305"/>
<text text-anchor="middle" x="1444" y="-293" font-family="Helvetica,sans-Serif" font-size="10.00">span</text>
</a>
</g>
</g>
<!-- Node1&#45;&gt;Node24 -->
<g id="edge48_Node000001_Node000024" class="edge">
<title>Node1&#45;&gt;Node24</title>
<g id="a_edge48_Node000001_Node000024"><a xlink:title=" ">
<path fill="none" stroke="#63b8ff" d="M916.4,-357.11C1021.19,-350.99 1232.96,-335.75 1410,-305 1411.28,-304.78 1412.59,-304.53 1413.9,-304.27"/>
<polygon fill="#63b8ff" stroke="#63b8ff" points="1414.97,-307.62 1423.97,-302.02 1413.45,-300.79 1414.97,-307.62"/>
</a>
</g>
</g>
<!-- Node25 -->
<g id="Node000025" class="node">
<title>Node25</title>
<g id="a_Node000025"><a xlink:title=" ">
<polygon fill="#e0e0e0" stroke="#999999" points="1526,-305 1482,-305 1482,-286 1526,-286 1526,-305"/>
<text text-anchor="middle" x="1504" y="-293" font-family="Helvetica,sans-Serif" font-size="10.00">string</text>
</a>
</g>
</g>
<!-- Node1&#45;&gt;Node25 -->
<g id="edge49_Node000001_Node000025" class="edge">
<title>Node1&#45;&gt;Node25</title>
<g id="a_edge49_Node000001_Node000025"><a xlink:title=" ">
<path fill="none" stroke="#63b8ff" d="M916.43,-358.5C1028.57,-354.24 1264.62,-341.6 1471.91,-304.88"/>
<polygon fill="#63b8ff" stroke="#63b8ff" points="1472.53,-308.32 1481.76,-303.11 1471.3,-301.43 1472.53,-308.32"/>
</a>
</g>
</g>
<!-- Node3 -->
<g id="Node000003" class="node">
<title>Node3</title>
<g id="a_Node000003"><a xlink:href="../../d7/dd8/concepts_8hpp.html" target="_top" xlink:title="Declaration of concepts.">
<polygon fill="white" stroke="#666666" points="140,-129 28,-129 28,-110 140,-110 140,-129"/>
<text text-anchor="middle" x="84" y="-117" font-family="Helvetica,sans-Serif" font-size="10.00">qugar/concepts.hpp</text>
</a>
</g>
</g>
<!-- Node2&#45;&gt;Node3 -->
<g id="edge2_Node000002_Node000003" class="edge">
<title>Node2&#45;&gt;Node3</title>
<g id="a_edge2_Node000002_Node000003"><a xlink:title=" ">
<path fill="none" stroke="#63b8ff" d="M310.47,-170.49C263.36,-160.1 183.62,-142.49 132.42,-131.19"/>
<polygon fill="#63b8ff" stroke="#63b8ff" points="133.1,-127.75 122.58,-129.02 131.59,-134.59 133.1,-127.75"/>
</a>
</g>
</g>
<!-- Node2&#45;&gt;Node4 -->
<g id="edge3_Node000002_Node000004" class="edge">
<title>Node2&#45;&gt;Node4</title>
<g id="a_edge3_Node000002_Node000004"><a xlink:title=" ">
<path fill="none" stroke="#63b8ff" d="M363.46,-170.37C379.31,-160.91 404.97,-145.59 423.68,-134.42"/>
<polygon fill="#63b8ff" stroke="#63b8ff" points="425.69,-137.3 432.48,-129.17 422.1,-131.29 425.69,-137.3"/>
</a>
</g>
</g>
<!-- Node5 -->
<g id="Node000005" class="node">
<title>Node5</title>
<g id="a_Node000005"><a xlink:href="../../dd/de3/types_8hpp.html" target="_top" xlink:title="Declaration of types.">
<polygon fill="white" stroke="#666666" points="569.5,-74 474.5,-74 474.5,-55 569.5,-55 569.5,-74"/>
<text text-anchor="middle" x="522" y="-62" font-family="Helvetica,sans-Serif" font-size="10.00">qugar/types.hpp</text>
</a>
</g>
</g>
<!-- Node2&#45;&gt;Node5 -->
<g id="edge10_Node000002_Node000005" class="edge">
<title>Node2&#45;&gt;Node5</title>
<g id="a_edge10_Node000002_Node000005"><a xlink:title=" ">
<path fill="none" stroke="#63b8ff" d="M302.81,-175.06C243.21,-168.25 151.2,-150.87 187,-110 204.94,-89.52 372.94,-75.35 464,-69.1"/>
<polygon fill="#63b8ff" stroke="#63b8ff" points="464.43,-72.58 474.17,-68.41 463.95,-65.59 464.43,-72.58"/>
</a>
</g>
</g>
<!-- Node2&#45;&gt;Node6 -->
<g id="edge13_Node000002_Node000006" class="edge">
<title>Node2&#45;&gt;Node6</title>
<g id="a_edge13_Node000002_Node000006"><a xlink:title=" ">
<path fill="none" stroke="#63b8ff" d="M353.33,-170.42C360.41,-156.85 375.32,-129.91 392,-110 422.82,-73.2 469.56,-41.64 497.8,-24.43"/>
<polygon fill="#63b8ff" stroke="#63b8ff" points="499.83,-27.3 506.62,-19.16 496.24,-21.29 499.83,-27.3"/>
</a>
</g>
</g>
<!-- Node10 -->
<g id="Node000010" class="node">
<title>Node10</title>
<g id="a_Node000010"><a xlink:title=" ">
<polygon fill="#e0e0e0" stroke="#999999" points="344,-129 196,-129 196,-110 344,-110 344,-129"/>
<text text-anchor="middle" x="270" y="-117" font-family="Helvetica,sans-Serif" font-size="10.00">algoim/hyperrectangle.hpp</text>
</a>
</g>
</g>
<!-- Node2&#45;&gt;Node10 -->
<g id="edge11_Node000002_Node000010" class="edge">
<title>Node2&#45;&gt;Node10</title>
<g id="a_edge11_Node000002_Node000010"><a xlink:title=" ">
<path fill="none" stroke="#63b8ff" d="M337.34,-170.37C324.86,-161.12 304.82,-146.28 289.84,-135.19"/>
<polygon fill="#63b8ff" stroke="#63b8ff" points="291.82,-132.31 281.7,-129.17 287.66,-137.93 291.82,-132.31"/>
</a>
</g>
</g>
<!-- Node11 -->
<g id="Node000011" class="node">
<title>Node11</title>
<g id="a_Node000011"><a xlink:title=" ">
<polygon fill="#e0e0e0" stroke="#999999" points="774,-129 732,-129 732,-110 774,-110 774,-129"/>
<text text-anchor="middle" x="753" y="-117" font-family="Helvetica,sans-Serif" font-size="10.00">array</text>
</a>
</g>
</g>
<!-- Node2&#45;&gt;Node11 -->
<g id="edge12_Node000002_Node000011" class="edge">
<title>Node2&#45;&gt;Node11</title>
<g id="a_edge12_Node000002_Node000011"><a xlink:title=" ">
<path fill="none" stroke="#63b8ff" d="M395.34,-172.29C478.54,-160.24 651.11,-135.25 721.79,-125.02"/>
<polygon fill="#63b8ff" stroke="#63b8ff" points="722.44,-128.46 731.84,-123.56 721.44,-121.53 722.44,-128.46"/>
</a>
</g>
</g>
<!-- Node4&#45;&gt;Node5 -->
<g id="edge4_Node000004_Node000005" class="edge">
<title>Node4&#45;&gt;Node5</title>
<g id="a_edge4_Node000004_Node000005"><a xlink:title=" ">
<path fill="none" stroke="#63b8ff" d="M459.05,-109.98C470.46,-101.92 487.83,-89.65 501.43,-80.03"/>
<polygon fill="#63b8ff" stroke="#63b8ff" points="503.58,-82.8 509.73,-74.17 499.54,-77.08 503.58,-82.8"/>
</a>
</g>
</g>
<!-- Node4&#45;&gt;Node6 -->
<g id="edge8_Node000004_Node000006" class="edge">
<title>Node4&#45;&gt;Node6</title>
<g id="a_edge8_Node000004_Node000006"><a xlink:title=" ">
<path fill="none" stroke="#63b8ff" d="M447.9,-110C449.61,-97.12 454.26,-72.34 466,-55 474.24,-42.83 486.83,-32.4 497.99,-24.7"/>
<polygon fill="#63b8ff" stroke="#63b8ff" points="500.06,-27.53 506.52,-19.14 496.23,-21.67 500.06,-27.53"/>
</a>
</g>
</g>
<!-- Node7 -->
<g id="Node000007" class="node">
<title>Node7</title>
<g id="a_Node000007"><a xlink:href="../../da/d16/vector_8hpp.html" target="_top" xlink:title=" ">
<polygon fill="white" stroke="#666666" points="967,-74 869,-74 869,-55 967,-55 967,-74"/>
<text text-anchor="middle" x="918" y="-62" font-family="Helvetica,sans-Serif" font-size="10.00">qugar/vector.hpp</text>
</a>
</g>
</g>
<!-- Node4&#45;&gt;Node7 -->
<g id="edge6_Node000004_Node000007" class="edge">
<title>Node4&#45;&gt;Node7</title>
<g id="a_edge6_Node000004_Node000007"><a xlink:title=" ">
<path fill="none" stroke="#63b8ff" d="M493.88,-113.22C580.2,-103.51 764.1,-82.82 858.85,-72.16"/>
<polygon fill="#63b8ff" stroke="#63b8ff" points="859.3,-75.63 868.84,-71.03 858.51,-68.67 859.3,-75.63"/>
</a>
</g>
</g>
<!-- Node4&#45;&gt;Node9 -->
<g id="edge9_Node000004_Node000009" class="edge">
<title>Node4&#45;&gt;Node9</title>
<g id="a_edge9_Node000004_Node000009"><a xlink:title=" ">
<path fill="none" stroke="#63b8ff" d="M493.87,-114.25C509.2,-112.87 526.33,-111.35 542,-110 734.84,-93.38 783.4,-93.2 976,-74 988.77,-72.73 1002.76,-71.14 1015.06,-69.69"/>
<polygon fill="#63b8ff" stroke="#63b8ff" points="1015.84,-73.12 1025.35,-68.45 1015,-66.17 1015.84,-73.12"/>
</a>
</g>
</g>
<!-- Node5&#45;&gt;Node6 -->
<g id="edge5_Node000005_Node000006" class="edge">
<title>Node5&#45;&gt;Node6</title>
<g id="a_edge5_Node000005_Node000006"><a xlink:title=" ">
<path fill="none" stroke="#63b8ff" d="M522,-54.75C522,-47.8 522,-37.85 522,-29.13"/>
<polygon fill="#63b8ff" stroke="#63b8ff" points="525.5,-29.09 522,-19.09 518.5,-29.09 525.5,-29.09"/>
</a>
</g>
</g>
<!-- Node8 -->
<g id="Node000008" class="node">
<title>Node8</title>
<g id="a_Node000008"><a xlink:title=" ">
<polygon fill="#e0e0e0" stroke="#999999" points="973,-19 863,-19 863,0 973,0 973,-19"/>
<text text-anchor="middle" x="918" y="-7" font-family="Helvetica,sans-Serif" font-size="10.00">algoim/uvector.hpp</text>
</a>
</g>
</g>
<!-- Node7&#45;&gt;Node8 -->
<g id="edge7_Node000007_Node000008" class="edge">
<title>Node7&#45;&gt;Node8</title>
<g id="a_edge7_Node000007_Node000008"><a xlink:title=" ">
<path fill="none" stroke="#63b8ff" d="M918,-54.75C918,-47.8 918,-37.85 918,-29.13"/>
<polygon fill="#63b8ff" stroke="#63b8ff" points="921.5,-29.09 918,-19.09 914.5,-29.09 921.5,-29.09"/>
</a>
</g>
</g>
<!-- Node12&#45;&gt;Node2 -->
<g id="edge15_Node000012_Node000002" class="edge">
<title>Node12&#45;&gt;Node2</title>
<g id="a_edge15_Node000012_Node000002"><a xlink:title=" ">
<path fill="none" stroke="#63b8ff" d="M680.58,-230.99C606.91,-219.89 478.71,-200.56 405.16,-189.47"/>
<polygon fill="#63b8ff" stroke="#63b8ff" points="405.57,-185.99 395.16,-187.96 404.53,-192.91 405.57,-185.99"/>
</a>
</g>
</g>
<!-- Node12&#45;&gt;Node4 -->
<g id="edge16_Node000012_Node000004" class="edge">
<title>Node12&#45;&gt;Node4</title>
<g id="a_edge16_Node000012_Node000004"><a xlink:title=" ">
<path fill="none" stroke="#63b8ff" d="M673.83,-235.34C607.7,-229.83 509.45,-217.98 480,-195 462.43,-181.29 453.99,-156.25 450.1,-139.01"/>
<polygon fill="#63b8ff" stroke="#63b8ff" points="453.49,-138.15 448.14,-129.01 446.62,-139.49 453.49,-138.15"/>
</a>
</g>
</g>
<!-- Node12&#45;&gt;Node5 -->
<g id="edge29_Node000012_Node000005" class="edge">
<title>Node12&#45;&gt;Node5</title>
<g id="a_edge29_Node000012_Node000005"><a xlink:title=" ">
<path fill="none" stroke="#63b8ff" d="M713.11,-230.88C695.37,-223.52 671.48,-211.5 655,-195 624.64,-164.61 639.72,-140.02 609,-110 594.6,-95.93 574.84,-85.34 557.8,-78.03"/>
<polygon fill="#63b8ff" stroke="#63b8ff" points="558.72,-74.62 548.14,-74.1 556.09,-81.11 558.72,-74.62"/>
</a>
</g>
</g>
<!-- Node12&#45;&gt;Node6 -->
<g id="edge31_Node000012_Node000006" class="edge">
<title>Node12&#45;&gt;Node6</title>
<g id="a_edge31_Node000012_Node000006"><a xlink:title=" ">
<path fill="none" stroke="#63b8ff" d="M730.72,-230.78C710.6,-203.14 645.15,-115.77 579,-55 567.47,-44.41 553.65,-33.58 542.51,-25.26"/>
<polygon fill="#63b8ff" stroke="#63b8ff" points="544.37,-22.28 534.24,-19.17 540.22,-27.92 544.37,-22.28"/>
</a>
</g>
</g>
<!-- Node12&#45;&gt;Node9 -->
<g id="edge34_Node000012_Node000009" class="edge">
<title>Node12&#45;&gt;Node9</title>
<g id="a_edge34_Node000012_Node000009"><a xlink:title=" ">
<path fill="none" stroke="#63b8ff" d="M800.02,-232.76C839.06,-226.74 889.33,-215.54 930,-195 940.06,-189.92 999.54,-137.45 1007,-129 1019.55,-114.79 1031.22,-96.57 1039.06,-83.29"/>
<polygon fill="#63b8ff" stroke="#63b8ff" points="1042.31,-84.66 1044.26,-74.25 1036.24,-81.18 1042.31,-84.66"/>
</a>
</g>
</g>
<!-- Node12&#45;&gt;Node11 -->
<g id="edge30_Node000012_Node000011" class="edge">
<title>Node12&#45;&gt;Node11</title>
<g id="a_edge30_Node000012_Node000011"><a xlink:title=" ">
<path fill="none" stroke="#63b8ff" d="M733.82,-230.64C729.24,-216.53 721.93,-188.19 728,-165 730.55,-155.26 735.75,-145.41 740.76,-137.46"/>
<polygon fill="#63b8ff" stroke="#63b8ff" points="743.69,-139.37 746.37,-129.12 737.89,-135.46 743.69,-139.37"/>
</a>
</g>
</g>
<!-- Node13 -->
<g id="Node000013" class="node">
<title>Node13</title>
<g id="a_Node000013"><a xlink:href="../../d9/d43/tensor__index__tp_8hpp.html" target="_top" xlink:title="Declaration of tensor&#45;product index and size related classes.">
<polygon fill="white" stroke="#666666" points="921,-195 811,-195 811,-165 921,-165 921,-195"/>
<text text-anchor="start" x="819" y="-183" font-family="Helvetica,sans-Serif" font-size="10.00">qugar/tensor_index</text>
<text text-anchor="middle" x="866" y="-172" font-family="Helvetica,sans-Serif" font-size="10.00">_tp.hpp</text>
</a>
</g>
</g>
<!-- Node12&#45;&gt;Node13 -->
<g id="edge17_Node000012_Node000013" class="edge">
<title>Node12&#45;&gt;Node13</title>
<g id="a_edge17_Node000012_Node000013"><a xlink:title=" ">
<path fill="none" stroke="#63b8ff" d="M755.76,-230.99C773.94,-222.75 802.1,-209.98 825.42,-199.4"/>
<polygon fill="#63b8ff" stroke="#63b8ff" points="827.07,-202.5 834.74,-195.18 824.18,-196.12 827.07,-202.5"/>
</a>
</g>
</g>
<!-- Node12&#45;&gt;Node17 -->
<g id="edge24_Node000012_Node000017" class="edge">
<title>Node12&#45;&gt;Node17</title>
<g id="a_edge24_Node000012_Node000017"><a xlink:title=" ">
<path fill="none" stroke="#63b8ff" d="M709.23,-230.99C676.13,-220.86 620.66,-203.87 583.71,-192.55"/>
<polygon fill="#63b8ff" stroke="#63b8ff" points="584.39,-189.1 573.81,-189.52 582.34,-195.79 584.39,-189.1"/>
</a>
</g>
</g>
<!-- Node12&#45;&gt;Node19 -->
<g id="edge32_Node000012_Node000019" class="edge">
<title>Node12&#45;&gt;Node19</title>
<g id="a_edge32_Node000012_Node000019"><a xlink:title=" ">
<path fill="none" stroke="#63b8ff" d="M790.16,-230.96C836.42,-223.07 905.11,-210.3 964,-195 966.94,-194.24 969.98,-193.38 973.02,-192.48"/>
<polygon fill="#63b8ff" stroke="#63b8ff" points="974.08,-195.82 982.59,-189.51 972.01,-189.13 974.08,-195.82"/>
</a>
</g>
</g>
<!-- Node20 -->
<g id="Node000020" class="node">
<title>Node20</title>
<g id="a_Node000020"><a xlink:title=" ">
<polygon fill="#e0e0e0" stroke="#999999" points="793,-189.5 737,-189.5 737,-170.5 793,-170.5 793,-189.5"/>
<text text-anchor="middle" x="765" y="-177.5" font-family="Helvetica,sans-Serif" font-size="10.00">optional</text>
</a>
</g>
</g>
<!-- Node12&#45;&gt;Node20 -->
<g id="edge33_Node000012_Node000020" class="edge">
<title>Node12&#45;&gt;Node20</title>
<g id="a_edge33_Node000012_Node000020"><a xlink:title=" ">
<path fill="none" stroke="#63b8ff" d="M741.13,-230.87C745.14,-222.49 751.35,-209.51 756.44,-198.89"/>
<polygon fill="#63b8ff" stroke="#63b8ff" points="759.69,-200.2 760.85,-189.67 753.38,-197.18 759.69,-200.2"/>
</a>
</g>
</g>
<!-- Node13&#45;&gt;Node6 -->
<g id="edge21_Node000013_Node000006" class="edge">
<title>Node13&#45;&gt;Node6</title>
<g id="a_edge21_Node000013_Node000006"><a xlink:title=" ">
<path fill="none" stroke="#63b8ff" d="M850.84,-164.77C834.74,-150.07 808.19,-126.94 783,-110 739.94,-81.04 728.15,-74.37 680,-55 639.56,-38.73 591.05,-26.02 558.54,-18.42"/>
<polygon fill="#63b8ff" stroke="#63b8ff" points="559.11,-14.96 548.58,-16.13 557.54,-21.78 559.11,-14.96"/>
</a>
</g>
</g>
<!-- Node13&#45;&gt;Node7 -->
<g id="edge18_Node000013_Node000007" class="edge">
<title>Node13&#45;&gt;Node7</title>
<g id="a_edge18_Node000013_Node000007"><a xlink:title=" ">
<path fill="none" stroke="#63b8ff" d="M917.52,-164.96C948.27,-155.43 983.04,-142.19 992,-129 1006.4,-107.8 977.88,-89.46 952.18,-78.02"/>
<polygon fill="#63b8ff" stroke="#63b8ff" points="953.49,-74.78 942.92,-74.12 950.78,-81.23 953.49,-74.78"/>
</a>
</g>
</g>
<!-- Node13&#45;&gt;Node11 -->
<g id="edge19_Node000013_Node000011" class="edge">
<title>Node13&#45;&gt;Node11</title>
<g id="a_edge19_Node000013_Node000011"><a xlink:title=" ">
<path fill="none" stroke="#63b8ff" d="M838.93,-164.99C820.75,-155.58 796.93,-143.24 778.98,-133.95"/>
<polygon fill="#63b8ff" stroke="#63b8ff" points="780.18,-130.63 769.69,-129.14 776.96,-136.84 780.18,-130.63"/>
</a>
</g>
</g>
<!-- Node14 -->
<g id="Node000014" class="node">
<title>Node14</title>
<g id="a_Node000014"><a xlink:title=" ">
<polygon fill="#e0e0e0" stroke="#999999" points="1129,-129 1077,-129 1077,-110 1129,-110 1129,-129"/>
<text text-anchor="middle" x="1103" y="-117" font-family="Helvetica,sans-Serif" font-size="10.00">cassert</text>
</a>
</g>
</g>
<!-- Node13&#45;&gt;Node14 -->
<g id="edge20_Node000013_Node000014" class="edge">
<title>Node13&#45;&gt;Node14</title>
<g id="a_edge20_Node000013_Node000014"><a xlink:title=" ">
<path fill="none" stroke="#63b8ff" d="M921.27,-165.36C966.22,-154.26 1028.34,-138.93 1067.06,-129.37"/>
<polygon fill="#63b8ff" stroke="#63b8ff" points="1067.99,-132.75 1076.86,-126.95 1066.31,-125.95 1067.99,-132.75"/>
</a>
</g>
</g>
<!-- Node15 -->
<g id="Node000015" class="node">
<title>Node15</title>
<g id="a_Node000015"><a xlink:title=" ">
<polygon fill="#e0e0e0" stroke="#999999" points="982.5,-129 917.5,-129 917.5,-110 982.5,-110 982.5,-129"/>
<text text-anchor="middle" x="950" y="-117" font-family="Helvetica,sans-Serif" font-size="10.00">functional</text>
</a>
</g>
</g>
<!-- Node13&#45;&gt;Node15 -->
<g id="edge22_Node000013_Node000015" class="edge">
<title>Node13&#45;&gt;Node15</title>
<g id="a_edge22_Node000013_Node000015"><a xlink:title=" ">
<path fill="none" stroke="#63b8ff" d="M886.33,-164.84C899.27,-155.83 915.99,-144.18 929.05,-135.09"/>
<polygon fill="#63b8ff" stroke="#63b8ff" points="931.21,-137.85 937.41,-129.27 927.21,-132.11 931.21,-137.85"/>
</a>
</g>
</g>
<!-- Node16 -->
<g id="Node000016" class="node">
<title>Node16</title>
<g id="a_Node000016"><a xlink:title=" ">
<polygon fill="#e0e0e0" stroke="#999999" points="899.5,-129 830.5,-129 830.5,-110 899.5,-110 899.5,-129"/>
<text text-anchor="middle" x="865" y="-117" font-family="Helvetica,sans-Serif" font-size="10.00">type_traits</text>
</a>
</g>
</g>
<!-- Node13&#45;&gt;Node16 -->
<g id="edge23_Node000013_Node000016" class="edge">
<title>Node13&#45;&gt;Node16</title>
<g id="a_edge23_Node000013_Node000016"><a xlink:title=" ">
<path fill="none" stroke="#63b8ff" d="M865.76,-164.84C865.63,-157.21 865.47,-147.7 865.32,-139.45"/>
<polygon fill="#63b8ff" stroke="#63b8ff" points="868.82,-139.2 865.15,-129.27 861.82,-139.32 868.82,-139.2"/>
</a>
</g>
</g>
<!-- Node17&#45;&gt;Node4 -->
<g id="edge25_Node000017_Node000004" class="edge">
<title>Node17&#45;&gt;Node4</title>
<g id="a_edge25_Node000017_Node000004"><a xlink:title=" ">
<path fill="none" stroke="#63b8ff" d="M531.39,-170.37C515.31,-160.86 489.22,-145.45 470.3,-134.27"/>
<polygon fill="#63b8ff" stroke="#63b8ff" points="472.06,-131.24 461.67,-129.17 468.5,-137.27 472.06,-131.24"/>
</a>
</g>
</g>
<!-- Node17&#45;&gt;Node5 -->
<g id="edge26_Node000017_Node000005" class="edge">
<title>Node17&#45;&gt;Node5</title>
<g id="a_edge26_Node000017_Node000005"><a xlink:title=" ">
<path fill="none" stroke="#63b8ff" d="M544.2,-170.47C540.34,-152.23 531.21,-109.07 525.94,-84.14"/>
<polygon fill="#63b8ff" stroke="#63b8ff" points="529.32,-83.19 523.82,-74.13 522.47,-84.64 529.32,-83.19"/>
</a>
</g>
</g>
<!-- Node17&#45;&gt;Node9 -->
<g id="edge28_Node000017_Node000009" class="edge">
<title>Node17&#45;&gt;Node9</title>
<g id="a_edge28_Node000017_Node000009"><a xlink:title=" ">
<path fill="none" stroke="#63b8ff" d="M564.13,-170.28C595.66,-155.48 662.98,-125.56 723,-110 750.86,-102.78 936.87,-79.35 1014.78,-69.71"/>
<polygon fill="#63b8ff" stroke="#63b8ff" points="1015.53,-73.14 1025.03,-68.44 1014.67,-66.19 1015.53,-73.14"/>
</a>
</g>
</g>
<!-- Node18 -->
<g id="Node000018" class="node">
<title>Node18</title>
<g id="a_Node000018"><a xlink:title=" ">
<polygon fill="#e0e0e0" stroke="#999999" points="599.5,-129 550.5,-129 550.5,-110 599.5,-110 599.5,-129"/>
<text text-anchor="middle" x="575" y="-117" font-family="Helvetica,sans-Serif" font-size="10.00">cstdlib</text>
</a>
</g>
</g>
<!-- Node17&#45;&gt;Node18 -->
<g id="edge27_Node000017_Node000018" class="edge">
<title>Node17&#45;&gt;Node18</title>
<g id="a_edge27_Node000017_Node000018"><a xlink:title=" ">
<path fill="none" stroke="#63b8ff" d="M550.28,-170.37C554.43,-161.99 560.87,-149.01 566.13,-138.39"/>
<polygon fill="#63b8ff" stroke="#63b8ff" points="569.4,-139.68 570.7,-129.17 563.13,-136.57 569.4,-139.68"/>
</a>
</g>
</g>
<!-- Node21&#45;&gt;Node6 -->
<g id="edge41_Node000021_Node000006" class="edge">
<title>Node21&#45;&gt;Node6</title>
<g id="a_edge41_Node000021_Node000006"><a xlink:title=" ">
<path fill="none" stroke="#63b8ff" d="M1112.97,-285.69C1122.64,-277.4 1136.46,-264.17 1145,-250 1158.27,-227.97 1158.95,-220.4 1163,-195 1168.97,-157.57 1175.13,-142.72 1156,-110 1135.32,-74.63 1120.36,-69.41 1082,-55 985.69,-18.83 667.78,-12.05 558.94,-10.79"/>
<polygon fill="#63b8ff" stroke="#63b8ff" points="558.81,-7.29 548.78,-10.68 558.74,-14.29 558.81,-7.29"/>
</a>
</g>
</g>
<!-- Node21&#45;&gt;Node9 -->
<g id="edge45_Node000021_Node000009" class="edge">
<title>Node21&#45;&gt;Node9</title>
<g id="a_edge45_Node000021_Node000009"><a xlink:title=" ">
<path fill="none" stroke="#63b8ff" d="M1107.8,-285.64C1125.35,-257.59 1174.55,-169.13 1138,-110 1125.88,-90.39 1102.21,-79.13 1082.33,-72.85"/>
<polygon fill="#63b8ff" stroke="#63b8ff" points="1083.22,-69.46 1072.65,-70.07 1081.29,-76.19 1083.22,-69.46"/>
</a>
</g>
</g>
<!-- Node21&#45;&gt;Node11 -->
<g id="edge39_Node000021_Node000011" class="edge">
<title>Node21&#45;&gt;Node11</title>
<g id="a_edge39_Node000021_Node000011"><a xlink:title=" ">
<path fill="none" stroke="#63b8ff" d="M1101.02,-285.83C1097.84,-262.14 1085.56,-196.07 1045,-165 1034.67,-157.09 857.09,-133.74 784.02,-124.41"/>
<polygon fill="#63b8ff" stroke="#63b8ff" points="784.39,-120.93 774.03,-123.14 783.51,-127.88 784.39,-120.93"/>
</a>
</g>
</g>
<!-- Node21&#45;&gt;Node12 -->
<g id="edge38_Node000021_Node000012" class="edge">
<title>Node21&#45;&gt;Node12</title>
<g id="a_edge38_Node000021_Node000012"><a xlink:title=" ">
<path fill="none" stroke="#63b8ff" d="M1043.36,-285.98C978.67,-276.59 874.66,-261.49 806.07,-251.53"/>
<polygon fill="#63b8ff" stroke="#63b8ff" points="806.2,-248.01 795.8,-250.04 805.19,-254.94 806.2,-248.01"/>
</a>
</g>
</g>
<!-- Node21&#45;&gt;Node14 -->
<g id="edge40_Node000021_Node000014" class="edge">
<title>Node21&#45;&gt;Node14</title>
<g id="a_edge40_Node000021_Node000014"><a xlink:title=" ">
<path fill="none" stroke="#63b8ff" d="M1102.05,-285.63C1102.21,-258.64 1102.68,-177.03 1102.89,-139.61"/>
<polygon fill="#63b8ff" stroke="#63b8ff" points="1106.39,-139.16 1102.95,-129.14 1099.39,-139.12 1106.39,-139.16"/>
</a>
</g>
</g>
<!-- Node21&#45;&gt;Node19 -->
<g id="edge43_Node000021_Node000019" class="edge">
<title>Node21&#45;&gt;Node19</title>
<g id="a_edge43_Node000021_Node000019"><a xlink:title=" ">
<path fill="none" stroke="#63b8ff" d="M1089.93,-285.87C1078.75,-277.51 1062.08,-264.06 1050,-250 1036.24,-234 1023.89,-213.16 1015.99,-198.58"/>
<polygon fill="#63b8ff" stroke="#63b8ff" points="1019.03,-196.84 1011.27,-189.63 1012.84,-200.11 1019.03,-196.84"/>
</a>
</g>
</g>
<!-- Node22 -->
<g id="Node000022" class="node">
<title>Node22</title>
<g id="a_Node000022"><a xlink:title=" ">
<polygon fill="#e0e0e0" stroke="#999999" points="1256,-250 1206,-250 1206,-231 1256,-231 1256,-250"/>
<text text-anchor="middle" x="1231" y="-238" font-family="Helvetica,sans-Serif" font-size="10.00">cstdint</text>
</a>
</g>
</g>
<!-- Node21&#45;&gt;Node22 -->
<g id="edge42_Node000021_Node000022" class="edge">
<title>Node21&#45;&gt;Node22</title>
<g id="a_edge42_Node000021_Node000022"><a xlink:title=" ">
<path fill="none" stroke="#63b8ff" d="M1122.73,-285.98C1143.76,-277.34 1176.55,-263.87 1200.54,-254.02"/>
<polygon fill="#63b8ff" stroke="#63b8ff" points="1201.98,-257.21 1209.9,-250.17 1199.32,-250.73 1201.98,-257.21"/>
</a>
</g>
</g>
<!-- Node23 -->
<g id="Node000023" class="node">
<title>Node23</title>
<g id="a_Node000023"><a xlink:title=" ">
<polygon fill="#e0e0e0" stroke="#999999" points="1367.5,-250 1274.5,-250 1274.5,-231 1367.5,-231 1367.5,-250"/>
<text text-anchor="middle" x="1321" y="-238" font-family="Helvetica,sans-Serif" font-size="10.00">unordered_map</text>
</a>
</g>
</g>
<!-- Node21&#45;&gt;Node23 -->
<g id="edge44_Node000021_Node000023" class="edge">
<title>Node21&#45;&gt;Node23</title>
<g id="a_edge44_Node000021_Node000023"><a xlink:title=" ">
<path fill="none" stroke="#63b8ff" d="M1137.19,-285.98C1174.83,-276.87 1234.66,-262.4 1275.77,-252.45"/>
<polygon fill="#63b8ff" stroke="#63b8ff" points="1276.64,-255.84 1285.54,-250.08 1275,-249.03 1276.64,-255.84"/>
</a>
</g>
</g>
</g>
</svg>
