<?xml version="1.0" encoding="UTF-8" standalone="no"?>
<!DOCTYPE svg PUBLIC "-//W3C//DTD SVG 1.1//EN"
 "http://www.w3.org/Graphics/SVG/1.1/DTD/svg11.dtd">
<!-- Generated by graphviz version 2.43.0 (0)
 -->
<!-- Title: /__w/qugar/qugar/cpp/include/qugar/reparam_mesh.hpp Pages: 1 -->
<svg width="1738pt" height="456pt"
 viewBox="0.00 0.00 1738.00 456.00" xmlns="http://www.w3.org/2000/svg" xmlns:xlink="http://www.w3.org/1999/xlink">
<g id="graph0" class="graph" transform="scale(1 1) rotate(0) translate(4 452)">
<title>/__w/qugar/qugar/cpp/include/qugar/reparam_mesh.hpp</title>
<!-- Node1 -->
<g id="Node000001" class="node">
<title>Node1</title>
<g id="a_Node000001"><a xlink:title="Declaration of reparameterization class.">
<polygon fill="#999999" stroke="#666666" points="917,-448 787,-448 787,-407 917,-407 917,-448"/>
<text text-anchor="start" x="795" y="-436" font-family="Helvetica,sans-Serif" font-size="10.00">/__w/qugar/qugar/cpp</text>
<text text-anchor="start" x="795" y="-425" font-family="Helvetica,sans-Serif" font-size="10.00">/include/qugar/reparam</text>
<text text-anchor="middle" x="852" y="-414" font-family="Helvetica,sans-Serif" font-size="10.00">_mesh.hpp</text>
</a>
</g>
</g>
<!-- Node2 -->
<g id="Node000002" class="node">
<title>Node2</title>
<g id="a_Node000002"><a xlink:href="../../d5/d90/bbox_8hpp.html" target="_top" xlink:title="Definition of Cartesian bounding box class.">
<polygon fill="white" stroke="#666666" points="396,-189.5 304,-189.5 304,-170.5 396,-170.5 396,-189.5"/>
<text text-anchor="middle" x="350" y="-177.5" font-family="Helvetica,sans-Serif" font-size="10.00">qugar/bbox.hpp</text>
</a>
</g>
</g>
<!-- Node1&#45;&gt;Node2 -->
<g id="edge1_Node000001_Node000002" class="edge">
<title>Node1&#45;&gt;Node2</title>
<g id="a_edge1_Node000001_Node000002"><a xlink:title=" ">
<path fill="none" stroke="#63b8ff" d="M787,-426.64C678.49,-425.54 466.82,-417.32 411,-371 358.57,-327.49 350.7,-238.71 349.86,-199.88"/>
<polygon fill="#63b8ff" stroke="#63b8ff" points="353.36,-199.52 349.79,-189.54 346.36,-199.57 353.36,-199.52"/>
</a>
</g>
</g>
<!-- Node4 -->
<g id="Node000004" class="node">
<title>Node4</title>
<g id="a_Node000004"><a xlink:href="../../d0/de4/point_8hpp.html" target="_top" xlink:title="Definition and implementation of Point class.">
<polygon fill="white" stroke="#666666" points="465.5,-129 372.5,-129 372.5,-110 465.5,-110 465.5,-129"/>
<text text-anchor="middle" x="419" y="-117" font-family="Helvetica,sans-Serif" font-size="10.00">qugar/point.hpp</text>
</a>
</g>
</g>
<!-- Node1&#45;&gt;Node4 -->
<g id="edge38_Node000001_Node000004" class="edge">
<title>Node1&#45;&gt;Node4</title>
<g id="a_edge38_Node000001_Node000004"><a xlink:title=" ">
<path fill="none" stroke="#63b8ff" d="M786.68,-421.08C667.07,-409.35 425,-376.42 425,-302 425,-302 425,-302 425,-239.5 425,-204.11 422.32,-162.87 420.54,-139.41"/>
<polygon fill="#63b8ff" stroke="#63b8ff" points="424.01,-138.85 419.74,-129.15 417.03,-139.4 424.01,-138.85"/>
</a>
</g>
</g>
<!-- Node6 -->
<g id="Node000006" class="node">
<title>Node6</title>
<g id="a_Node000006"><a xlink:title=" ">
<polygon fill="#e0e0e0" stroke="#999999" points="1042.5,-19 989.5,-19 989.5,0 1042.5,0 1042.5,-19"/>
<text text-anchor="middle" x="1016" y="-7" font-family="Helvetica,sans-Serif" font-size="10.00">cstddef</text>
</a>
</g>
</g>
<!-- Node1&#45;&gt;Node6 -->
<g id="edge60_Node000001_Node000006" class="edge">
<title>Node1&#45;&gt;Node6</title>
<g id="a_edge60_Node000001_Node000006"><a xlink:title=" ">
<path fill="none" stroke="#63b8ff" d="M917.07,-422.49C1099.06,-410.43 1600,-370.95 1600,-302 1600,-302 1600,-302 1600,-118.5 1600,-74.14 1564.05,-71.81 1523,-55 1437.7,-20.08 1154.74,-12.52 1052.91,-10.92"/>
<polygon fill="#63b8ff" stroke="#63b8ff" points="1052.85,-7.42 1042.8,-10.77 1052.74,-14.42 1052.85,-7.42"/>
</a>
</g>
</g>
<!-- Node9 -->
<g id="Node000009" class="node">
<title>Node9</title>
<g id="a_Node000009"><a xlink:title=" ">
<polygon fill="#e0e0e0" stroke="#999999" points="645.5,-74 598.5,-74 598.5,-55 645.5,-55 645.5,-74"/>
<text text-anchor="middle" x="622" y="-62" font-family="Helvetica,sans-Serif" font-size="10.00">vector</text>
</a>
</g>
</g>
<!-- Node1&#45;&gt;Node9 -->
<g id="edge64_Node000001_Node000009" class="edge">
<title>Node1&#45;&gt;Node9</title>
<g id="a_edge64_Node000001_Node000009"><a xlink:title=" ">
<path fill="none" stroke="#63b8ff" d="M834.25,-406.88C814.67,-385.05 782.42,-348.56 756,-316 732.81,-287.43 724.85,-281.61 706,-250 671.51,-192.18 641.66,-117.75 628.78,-83.82"/>
<polygon fill="#63b8ff" stroke="#63b8ff" points="631.99,-82.43 625.2,-74.3 625.44,-84.89 631.99,-82.43"/>
</a>
</g>
</g>
<!-- Node12 -->
<g id="Node000012" class="node">
<title>Node12</title>
<g id="a_Node000012"><a xlink:href="../../d6/d49/cart__grid__tp_8hpp.html" target="_top" xlink:title="Definition of Cartesian grid class.">
<polygon fill="white" stroke="#666666" points="857,-250 731,-250 731,-231 857,-231 857,-250"/>
<text text-anchor="middle" x="794" y="-238" font-family="Helvetica,sans-Serif" font-size="10.00">qugar/cart_grid_tp.hpp</text>
</a>
</g>
</g>
<!-- Node1&#45;&gt;Node12 -->
<g id="edge14_Node000001_Node000012" class="edge">
<title>Node1&#45;&gt;Node12</title>
<g id="a_edge14_Node000001_Node000012"><a xlink:title=" ">
<path fill="none" stroke="#63b8ff" d="M845.79,-406.7C834.51,-370.7 810.78,-295.02 799.8,-260"/>
<polygon fill="#63b8ff" stroke="#63b8ff" points="803.05,-258.65 796.71,-250.16 796.37,-260.75 803.05,-258.65"/>
</a>
</g>
</g>
<!-- Node19 -->
<g id="Node000019" class="node">
<title>Node19</title>
<g id="a_Node000019"><a xlink:href="../../d0/d55/tolerance_8hpp.html" target="_top" xlink:title="Definition of tolerance related functionalities.">
<polygon fill="white" stroke="#666666" points="609,-189.5 495,-189.5 495,-170.5 609,-170.5 609,-189.5"/>
<text text-anchor="middle" x="552" y="-177.5" font-family="Helvetica,sans-Serif" font-size="10.00">qugar/tolerance.hpp</text>
</a>
</g>
</g>
<!-- Node1&#45;&gt;Node19 -->
<g id="edge39_Node000001_Node000019" class="edge">
<title>Node1&#45;&gt;Node19</title>
<g id="a_edge39_Node000001_Node000019"><a xlink:title=" ">
<path fill="none" stroke="#63b8ff" d="M786.62,-421.82C744.02,-415.78 689.43,-402.07 651,-371 594.14,-325.02 566.23,-237.61 556.33,-199.52"/>
<polygon fill="#63b8ff" stroke="#63b8ff" points="559.72,-198.63 553.92,-189.77 552.92,-200.31 559.72,-198.63"/>
</a>
</g>
</g>
<!-- Node21 -->
<g id="Node000021" class="node">
<title>Node21</title>
<g id="a_Node000021"><a xlink:title=" ">
<polygon fill="#e0e0e0" stroke="#999999" points="914,-189.5 856,-189.5 856,-170.5 914,-170.5 914,-189.5"/>
<text text-anchor="middle" x="885" y="-177.5" font-family="Helvetica,sans-Serif" font-size="10.00">memory</text>
</a>
</g>
</g>
<!-- Node1&#45;&gt;Node21 -->
<g id="edge61_Node000001_Node000021" class="edge">
<title>Node1&#45;&gt;Node21</title>
<g id="a_edge61_Node000001_Node000021"><a xlink:title=" ">
<path fill="none" stroke="#63b8ff" d="M854.64,-406.82C860.86,-360.56 876.35,-245.36 882.46,-199.89"/>
<polygon fill="#63b8ff" stroke="#63b8ff" points="885.97,-200.07 883.83,-189.69 879.03,-199.13 885.97,-200.07"/>
</a>
</g>
</g>
<!-- Node23 -->
<g id="Node000023" class="node">
<title>Node23</title>
<g id="a_Node000023"><a xlink:href="../../d2/dfd/unfitted__domain_8hpp.html" target="_top" xlink:title="Declaration of of UnfittedDomain class.">
<polygon fill="white" stroke="#666666" points="1148,-371 1000,-371 1000,-352 1148,-352 1148,-371"/>
<text text-anchor="middle" x="1074" y="-359" font-family="Helvetica,sans-Serif" font-size="10.00">qugar/unfitted_domain.hpp</text>
</a>
</g>
</g>
<!-- Node1&#45;&gt;Node23 -->
<g id="edge40_Node000001_Node000023" class="edge">
<title>Node1&#45;&gt;Node23</title>
<g id="a_edge40_Node000001_Node000023"><a xlink:title=" ">
<path fill="none" stroke="#63b8ff" d="M917.11,-407.73C955.25,-396.73 1002.18,-383.21 1034.72,-373.82"/>
<polygon fill="#63b8ff" stroke="#63b8ff" points="1035.69,-377.19 1044.33,-371.05 1033.75,-370.46 1035.69,-377.19"/>
</a>
</g>
</g>
<!-- Node26 -->
<g id="Node000026" class="node">
<title>Node26</title>
<g id="a_Node000026"><a xlink:title=" ">
<polygon fill="#e0e0e0" stroke="#999999" points="1668,-371 1628,-371 1628,-352 1668,-352 1668,-371"/>
<text text-anchor="middle" x="1648" y="-359" font-family="Helvetica,sans-Serif" font-size="10.00">span</text>
</a>
</g>
</g>
<!-- Node1&#45;&gt;Node26 -->
<g id="edge62_Node000001_Node000026" class="edge">
<title>Node1&#45;&gt;Node26</title>
<g id="a_edge62_Node000001_Node000026"><a xlink:title=" ">
<path fill="none" stroke="#63b8ff" d="M917.16,-425.53C1049.37,-422.73 1358.28,-411.96 1614,-371 1615.28,-370.79 1616.59,-370.56 1617.91,-370.31"/>
<polygon fill="#63b8ff" stroke="#63b8ff" points="1618.96,-373.67 1627.98,-368.11 1617.47,-366.83 1618.96,-373.67"/>
</a>
</g>
</g>
<!-- Node27 -->
<g id="Node000027" class="node">
<title>Node27</title>
<g id="a_Node000027"><a xlink:title=" ">
<polygon fill="#e0e0e0" stroke="#999999" points="1730,-371 1686,-371 1686,-352 1730,-352 1730,-371"/>
<text text-anchor="middle" x="1708" y="-359" font-family="Helvetica,sans-Serif" font-size="10.00">string</text>
</a>
</g>
</g>
<!-- Node1&#45;&gt;Node27 -->
<g id="edge63_Node000001_Node000027" class="edge">
<title>Node1&#45;&gt;Node27</title>
<g id="a_edge63_Node000001_Node000027"><a xlink:title=" ">
<path fill="none" stroke="#63b8ff" d="M917.23,-426.53C1055.7,-425.65 1389.16,-418.47 1675.6,-370.88"/>
<polygon fill="#63b8ff" stroke="#63b8ff" points="1676.49,-374.28 1685.77,-369.17 1675.33,-367.38 1676.49,-374.28"/>
</a>
</g>
</g>
<!-- Node3 -->
<g id="Node000003" class="node">
<title>Node3</title>
<g id="a_Node000003"><a xlink:href="../../d7/dd8/concepts_8hpp.html" target="_top" xlink:title="Declaration of concepts.">
<polygon fill="white" stroke="#666666" points="278,-129 166,-129 166,-110 278,-110 278,-129"/>
<text text-anchor="middle" x="222" y="-117" font-family="Helvetica,sans-Serif" font-size="10.00">qugar/concepts.hpp</text>
</a>
</g>
</g>
<!-- Node2&#45;&gt;Node3 -->
<g id="edge2_Node000002_Node000003" class="edge">
<title>Node2&#45;&gt;Node3</title>
<g id="a_edge2_Node000002_Node000003"><a xlink:title=" ">
<path fill="none" stroke="#63b8ff" d="M331.39,-170.49C309.96,-160.7 274.56,-144.52 249.85,-133.23"/>
<polygon fill="#63b8ff" stroke="#63b8ff" points="251.18,-129.99 240.63,-129.02 248.28,-136.36 251.18,-129.99"/>
</a>
</g>
</g>
<!-- Node2&#45;&gt;Node4 -->
<g id="edge3_Node000002_Node000004" class="edge">
<title>Node2&#45;&gt;Node4</title>
<g id="a_edge3_Node000002_Node000004"><a xlink:title=" ">
<path fill="none" stroke="#63b8ff" d="M360.18,-170.37C370.88,-161.3 387.94,-146.84 400.93,-135.82"/>
<polygon fill="#63b8ff" stroke="#63b8ff" points="403.41,-138.3 408.78,-129.17 398.89,-132.96 403.41,-138.3"/>
</a>
</g>
</g>
<!-- Node5 -->
<g id="Node000005" class="node">
<title>Node5</title>
<g id="a_Node000005"><a xlink:href="../../dd/de3/types_8hpp.html" target="_top" xlink:title="Declaration of types.">
<polygon fill="white" stroke="#666666" points="542.5,-74 447.5,-74 447.5,-55 542.5,-55 542.5,-74"/>
<text text-anchor="middle" x="495" y="-62" font-family="Helvetica,sans-Serif" font-size="10.00">qugar/types.hpp</text>
</a>
</g>
</g>
<!-- Node2&#45;&gt;Node5 -->
<g id="edge10_Node000002_Node000005" class="edge">
<title>Node2&#45;&gt;Node5</title>
<g id="a_edge10_Node000002_Node000005"><a xlink:title=" ">
<path fill="none" stroke="#63b8ff" d="M349.2,-170.17C348.39,-155.76 348.98,-127.07 364,-110 382.49,-88.99 411.29,-77.89 437.19,-72.02"/>
<polygon fill="#63b8ff" stroke="#63b8ff" points="438.22,-75.39 447.31,-69.96 436.82,-68.53 438.22,-75.39"/>
</a>
</g>
</g>
<!-- Node2&#45;&gt;Node6 -->
<g id="edge13_Node000002_Node000006" class="edge">
<title>Node2&#45;&gt;Node6</title>
<g id="a_edge13_Node000002_Node000006"><a xlink:title=" ">
<path fill="none" stroke="#63b8ff" d="M347.7,-170.39C344.54,-156.78 340.3,-129.79 350,-110 367.57,-74.16 383.74,-69.32 421,-55 472.98,-35.03 857.36,-17.21 979.12,-12.02"/>
<polygon fill="#63b8ff" stroke="#63b8ff" points="979.57,-15.51 989.41,-11.59 979.27,-8.51 979.57,-15.51"/>
</a>
</g>
</g>
<!-- Node10 -->
<g id="Node000010" class="node">
<title>Node10</title>
<g id="a_Node000010"><a xlink:title=" ">
<polygon fill="#e0e0e0" stroke="#999999" points="148,-129 0,-129 0,-110 148,-110 148,-129"/>
<text text-anchor="middle" x="74" y="-117" font-family="Helvetica,sans-Serif" font-size="10.00">algoim/hyperrectangle.hpp</text>
</a>
</g>
</g>
<!-- Node2&#45;&gt;Node10 -->
<g id="edge11_Node000002_Node000010" class="edge">
<title>Node2&#45;&gt;Node10</title>
<g id="a_edge11_Node000002_Node000010"><a xlink:title=" ">
<path fill="none" stroke="#63b8ff" d="M309.87,-170.49C260.71,-160.07 177.41,-142.42 124.1,-131.12"/>
<polygon fill="#63b8ff" stroke="#63b8ff" points="124.69,-127.67 114.18,-129.02 123.24,-134.51 124.69,-127.67"/>
</a>
</g>
</g>
<!-- Node11 -->
<g id="Node000011" class="node">
<title>Node11</title>
<g id="a_Node000011"><a xlink:title=" ">
<polygon fill="#e0e0e0" stroke="#999999" points="963,-129 921,-129 921,-110 963,-110 963,-129"/>
<text text-anchor="middle" x="942" y="-117" font-family="Helvetica,sans-Serif" font-size="10.00">array</text>
</a>
</g>
</g>
<!-- Node2&#45;&gt;Node11 -->
<g id="edge12_Node000002_Node000011" class="edge">
<title>Node2&#45;&gt;Node11</title>
<g id="a_edge12_Node000002_Node000011"><a xlink:title=" ">
<path fill="none" stroke="#63b8ff" d="M396.26,-174.18C422.57,-171.45 456.12,-168 486,-165 645.55,-149 836.58,-130.61 910.58,-123.51"/>
<polygon fill="#63b8ff" stroke="#63b8ff" points="911.01,-126.98 920.63,-122.54 910.34,-120.02 911.01,-126.98"/>
</a>
</g>
</g>
<!-- Node4&#45;&gt;Node5 -->
<g id="edge4_Node000004_Node000005" class="edge">
<title>Node4&#45;&gt;Node5</title>
<g id="a_edge4_Node000004_Node000005"><a xlink:title=" ">
<path fill="none" stroke="#63b8ff" d="M431.21,-109.98C442.78,-101.92 460.38,-89.65 474.16,-80.03"/>
<polygon fill="#63b8ff" stroke="#63b8ff" points="476.37,-82.76 482.57,-74.17 472.36,-77.02 476.37,-82.76"/>
</a>
</g>
</g>
<!-- Node4&#45;&gt;Node6 -->
<g id="edge8_Node000004_Node000006" class="edge">
<title>Node4&#45;&gt;Node6</title>
<g id="a_edge8_Node000004_Node000006"><a xlink:title=" ">
<path fill="none" stroke="#63b8ff" d="M418.89,-109.85C419.24,-95.83 422.17,-68.37 439,-55 460.21,-38.15 855.36,-18.1 979.2,-12.21"/>
<polygon fill="#63b8ff" stroke="#63b8ff" points="979.5,-15.7 989.33,-11.73 979.17,-8.71 979.5,-15.7"/>
</a>
</g>
</g>
<!-- Node7 -->
<g id="Node000007" class="node">
<title>Node7</title>
<g id="a_Node000007"><a xlink:href="../../da/d16/vector_8hpp.html" target="_top" xlink:title=" ">
<polygon fill="white" stroke="#666666" points="762,-74 664,-74 664,-55 762,-55 762,-74"/>
<text text-anchor="middle" x="713" y="-62" font-family="Helvetica,sans-Serif" font-size="10.00">qugar/vector.hpp</text>
</a>
</g>
</g>
<!-- Node4&#45;&gt;Node7 -->
<g id="edge6_Node000004_Node000007" class="edge">
<title>Node4&#45;&gt;Node7</title>
<g id="a_edge6_Node000004_Node000007"><a xlink:title=" ">
<path fill="none" stroke="#63b8ff" d="M465.59,-110.1C517.11,-100.81 600.15,-85.84 655.63,-75.84"/>
<polygon fill="#63b8ff" stroke="#63b8ff" points="656.44,-79.25 665.66,-74.03 655.2,-72.36 656.44,-79.25"/>
</a>
</g>
</g>
<!-- Node4&#45;&gt;Node9 -->
<g id="edge9_Node000004_Node000009" class="edge">
<title>Node4&#45;&gt;Node9</title>
<g id="a_edge9_Node000004_Node000009"><a xlink:title=" ">
<path fill="none" stroke="#63b8ff" d="M451.62,-109.98C489.11,-100.2 550.35,-84.21 588.3,-74.3"/>
<polygon fill="#63b8ff" stroke="#63b8ff" points="589.55,-77.59 598.34,-71.68 587.78,-70.82 589.55,-77.59"/>
</a>
</g>
</g>
<!-- Node5&#45;&gt;Node6 -->
<g id="edge5_Node000005_Node000006" class="edge">
<title>Node5&#45;&gt;Node6</title>
<g id="a_edge5_Node000005_Node000006"><a xlink:title=" ">
<path fill="none" stroke="#63b8ff" d="M542.62,-58.66C645.66,-48.17 887.44,-23.58 979.51,-14.21"/>
<polygon fill="#63b8ff" stroke="#63b8ff" points="979.88,-17.69 989.48,-13.2 979.17,-10.73 979.88,-17.69"/>
</a>
</g>
</g>
<!-- Node8 -->
<g id="Node000008" class="node">
<title>Node8</title>
<g id="a_Node000008"><a xlink:title=" ">
<polygon fill="#e0e0e0" stroke="#999999" points="768,-19 658,-19 658,0 768,0 768,-19"/>
<text text-anchor="middle" x="713" y="-7" font-family="Helvetica,sans-Serif" font-size="10.00">algoim/uvector.hpp</text>
</a>
</g>
</g>
<!-- Node7&#45;&gt;Node8 -->
<g id="edge7_Node000007_Node000008" class="edge">
<title>Node7&#45;&gt;Node8</title>
<g id="a_edge7_Node000007_Node000008"><a xlink:title=" ">
<path fill="none" stroke="#63b8ff" d="M713,-54.75C713,-47.8 713,-37.85 713,-29.13"/>
<polygon fill="#63b8ff" stroke="#63b8ff" points="716.5,-29.09 713,-19.09 709.5,-29.09 716.5,-29.09"/>
</a>
</g>
</g>
<!-- Node12&#45;&gt;Node2 -->
<g id="edge15_Node000012_Node000002" class="edge">
<title>Node12&#45;&gt;Node2</title>
<g id="a_edge15_Node000012_Node000002"><a xlink:title=" ">
<path fill="none" stroke="#63b8ff" d="M730.95,-231.43C662.31,-222.61 549.33,-208.01 452,-195 437.17,-193.02 421.14,-190.84 406.27,-188.8"/>
<polygon fill="#63b8ff" stroke="#63b8ff" points="406.58,-185.31 396.2,-187.41 405.63,-192.24 406.58,-185.31"/>
</a>
</g>
</g>
<!-- Node12&#45;&gt;Node4 -->
<g id="edge16_Node000012_Node000004" class="edge">
<title>Node12&#45;&gt;Node4</title>
<g id="a_edge16_Node000012_Node000004"><a xlink:title=" ">
<path fill="none" stroke="#63b8ff" d="M730.86,-235.45C653.38,-229.61 527.21,-217.03 486,-195 461.15,-181.71 440.92,-155.41 429.41,-137.88"/>
<polygon fill="#63b8ff" stroke="#63b8ff" points="432.23,-135.79 423.95,-129.19 426.31,-139.52 432.23,-135.79"/>
</a>
</g>
</g>
<!-- Node12&#45;&gt;Node5 -->
<g id="edge31_Node000012_Node000005" class="edge">
<title>Node12&#45;&gt;Node5</title>
<g id="a_edge31_Node000012_Node000005"><a xlink:title=" ">
<path fill="none" stroke="#63b8ff" d="M780.73,-230.99C747.53,-209.8 657.97,-153.24 581,-110 561.4,-98.99 538.8,-87.33 521.69,-78.72"/>
<polygon fill="#63b8ff" stroke="#63b8ff" points="522.83,-75.37 512.32,-74.02 519.69,-81.63 522.83,-75.37"/>
</a>
</g>
</g>
<!-- Node12&#45;&gt;Node6 -->
<g id="edge33_Node000012_Node000006" class="edge">
<title>Node12&#45;&gt;Node6</title>
<g id="a_edge33_Node000012_Node000006"><a xlink:title=" ">
<path fill="none" stroke="#63b8ff" d="M794.8,-230.95C796.53,-216.29 801.68,-185.92 816,-165 862.07,-97.67 946.73,-46.64 989.61,-23.75"/>
<polygon fill="#63b8ff" stroke="#63b8ff" points="991.36,-26.79 998.59,-19.05 988.11,-20.59 991.36,-26.79"/>
</a>
</g>
</g>
<!-- Node12&#45;&gt;Node9 -->
<g id="edge37_Node000012_Node000009" class="edge">
<title>Node12&#45;&gt;Node9</title>
<g id="a_edge37_Node000012_Node000009"><a xlink:title=" ">
<path fill="none" stroke="#63b8ff" d="M790.56,-230.95C780,-205.07 747.6,-128.2 728,-110 716.98,-99.76 682.18,-86.15 655.43,-76.69"/>
<polygon fill="#63b8ff" stroke="#63b8ff" points="656.24,-73.26 645.64,-73.28 653.94,-79.88 656.24,-73.26"/>
</a>
</g>
</g>
<!-- Node12&#45;&gt;Node11 -->
<g id="edge32_Node000012_Node000011" class="edge">
<title>Node12&#45;&gt;Node11</title>
<g id="a_edge32_Node000012_Node000011"><a xlink:title=" ">
<path fill="none" stroke="#63b8ff" d="M798.38,-230.57C806.24,-215.33 824.09,-184.12 847,-165 866.02,-149.13 891.65,-137.56 911.49,-130.2"/>
<polygon fill="#63b8ff" stroke="#63b8ff" points="912.74,-133.48 921,-126.84 910.4,-126.88 912.74,-133.48"/>
</a>
</g>
</g>
<!-- Node13 -->
<g id="Node000013" class="node">
<title>Node13</title>
<g id="a_Node000013"><a xlink:href="../../d9/d43/tensor__index__tp_8hpp.html" target="_top" xlink:title="Declaration of tensor&#45;product index and size related classes.">
<polygon fill="white" stroke="#666666" points="1230,-195 1120,-195 1120,-165 1230,-165 1230,-195"/>
<text text-anchor="start" x="1128" y="-183" font-family="Helvetica,sans-Serif" font-size="10.00">qugar/tensor_index</text>
<text text-anchor="middle" x="1175" y="-172" font-family="Helvetica,sans-Serif" font-size="10.00">_tp.hpp</text>
</a>
</g>
</g>
<!-- Node12&#45;&gt;Node13 -->
<g id="edge17_Node000012_Node000013" class="edge">
<title>Node12&#45;&gt;Node13</title>
<g id="a_edge17_Node000012_Node000013"><a xlink:title=" ">
<path fill="none" stroke="#63b8ff" d="M849.4,-230.99C918.49,-220.39 1036.42,-202.28 1109.79,-191.01"/>
<polygon fill="#63b8ff" stroke="#63b8ff" points="1110.49,-194.45 1119.84,-189.47 1109.43,-187.53 1110.49,-194.45"/>
</a>
</g>
</g>
<!-- Node16 -->
<g id="Node000016" class="node">
<title>Node16</title>
<g id="a_Node000016"><a xlink:title=" ">
<polygon fill="#e0e0e0" stroke="#999999" points="1382,-129 1332,-129 1332,-110 1382,-110 1382,-129"/>
<text text-anchor="middle" x="1357" y="-117" font-family="Helvetica,sans-Serif" font-size="10.00">cstdint</text>
</a>
</g>
</g>
<!-- Node12&#45;&gt;Node16 -->
<g id="edge34_Node000012_Node000016" class="edge">
<title>Node12&#45;&gt;Node16</title>
<g id="a_edge34_Node000012_Node000016"><a xlink:title=" ">
<path fill="none" stroke="#63b8ff" d="M857.33,-236.75C962.9,-231.58 1170.08,-218.72 1239,-195 1278.03,-181.57 1317.38,-153.01 1339.33,-135.42"/>
<polygon fill="#63b8ff" stroke="#63b8ff" points="1341.59,-138.09 1347.11,-129.05 1337.16,-132.68 1341.59,-138.09"/>
</a>
</g>
</g>
<!-- Node12&#45;&gt;Node19 -->
<g id="edge26_Node000012_Node000019" class="edge">
<title>Node12&#45;&gt;Node19</title>
<g id="a_edge26_Node000012_Node000019"><a xlink:title=" ">
<path fill="none" stroke="#63b8ff" d="M758.81,-230.99C716.07,-220.66 643.88,-203.21 597.1,-191.9"/>
<polygon fill="#63b8ff" stroke="#63b8ff" points="597.77,-188.46 587.23,-189.52 596.13,-195.27 597.77,-188.46"/>
</a>
</g>
</g>
<!-- Node12&#45;&gt;Node21 -->
<g id="edge35_Node000012_Node000021" class="edge">
<title>Node12&#45;&gt;Node21</title>
<g id="a_edge35_Node000012_Node000021"><a xlink:title=" ">
<path fill="none" stroke="#63b8ff" d="M807.43,-230.87C822.08,-221.45 845.76,-206.23 863.1,-195.08"/>
<polygon fill="#63b8ff" stroke="#63b8ff" points="865,-198.02 871.52,-189.67 861.21,-192.13 865,-198.02"/>
</a>
</g>
</g>
<!-- Node22 -->
<g id="Node000022" class="node">
<title>Node22</title>
<g id="a_Node000022"><a xlink:title=" ">
<polygon fill="#e0e0e0" stroke="#999999" points="1026,-189.5 970,-189.5 970,-170.5 1026,-170.5 1026,-189.5"/>
<text text-anchor="middle" x="998" y="-177.5" font-family="Helvetica,sans-Serif" font-size="10.00">optional</text>
</a>
</g>
</g>
<!-- Node12&#45;&gt;Node22 -->
<g id="edge36_Node000012_Node000022" class="edge">
<title>Node12&#45;&gt;Node22</title>
<g id="a_edge36_Node000012_Node000022"><a xlink:title=" ">
<path fill="none" stroke="#63b8ff" d="M823.66,-230.99C859.75,-220.64 920.73,-203.16 960.16,-191.85"/>
<polygon fill="#63b8ff" stroke="#63b8ff" points="961.29,-195.17 969.94,-189.05 959.36,-188.44 961.29,-195.17"/>
</a>
</g>
</g>
<!-- Node13&#45;&gt;Node6 -->
<g id="edge22_Node000013_Node000006" class="edge">
<title>Node13&#45;&gt;Node6</title>
<g id="a_edge22_Node000013_Node000006"><a xlink:title=" ">
<path fill="none" stroke="#63b8ff" d="M1187.45,-164.86C1198.56,-150.42 1211.57,-127.69 1201,-110 1168.89,-56.27 1096.68,-29.86 1052.57,-18.29"/>
<polygon fill="#63b8ff" stroke="#63b8ff" points="1053.36,-14.88 1042.81,-15.85 1051.66,-21.67 1053.36,-14.88"/>
</a>
</g>
</g>
<!-- Node13&#45;&gt;Node7 -->
<g id="edge19_Node000013_Node000007" class="edge">
<title>Node13&#45;&gt;Node7</title>
<g id="a_edge19_Node000013_Node000007"><a xlink:title=" ">
<path fill="none" stroke="#63b8ff" d="M1139.33,-164.98C1114.48,-155.12 1080.61,-141.51 1051,-129 1031.75,-120.87 1028.06,-115.83 1008,-110 928.19,-86.8 832.53,-75.2 772.24,-69.77"/>
<polygon fill="#63b8ff" stroke="#63b8ff" points="772.41,-66.28 762.14,-68.89 771.8,-73.25 772.41,-66.28"/>
</a>
</g>
</g>
<!-- Node13&#45;&gt;Node11 -->
<g id="edge20_Node000013_Node000011" class="edge">
<title>Node13&#45;&gt;Node11</title>
<g id="a_edge20_Node000013_Node000011"><a xlink:title=" ">
<path fill="none" stroke="#63b8ff" d="M1119.78,-165.14C1073.9,-153.62 1010.29,-137.65 972.91,-128.26"/>
<polygon fill="#63b8ff" stroke="#63b8ff" points="973.65,-124.84 963.1,-125.8 971.94,-131.63 973.65,-124.84"/>
</a>
</g>
</g>
<!-- Node14 -->
<g id="Node000014" class="node">
<title>Node14</title>
<g id="a_Node000014"><a xlink:title=" ">
<polygon fill="#e0e0e0" stroke="#999999" points="1104,-129 1060,-129 1060,-110 1104,-110 1104,-129"/>
<text text-anchor="middle" x="1082" y="-117" font-family="Helvetica,sans-Serif" font-size="10.00">limits</text>
</a>
</g>
</g>
<!-- Node13&#45;&gt;Node14 -->
<g id="edge18_Node000013_Node000014" class="edge">
<title>Node13&#45;&gt;Node14</title>
<g id="a_edge18_Node000013_Node000014"><a xlink:title=" ">
<path fill="none" stroke="#63b8ff" d="M1152.49,-164.84C1137.94,-155.68 1119.07,-143.82 1104.51,-134.66"/>
<polygon fill="#63b8ff" stroke="#63b8ff" points="1105.99,-131.46 1095.66,-129.09 1102.26,-137.38 1105.99,-131.46"/>
</a>
</g>
</g>
<!-- Node15 -->
<g id="Node000015" class="node">
<title>Node15</title>
<g id="a_Node000015"><a xlink:title=" ">
<polygon fill="#e0e0e0" stroke="#999999" points="1490,-129 1438,-129 1438,-110 1490,-110 1490,-129"/>
<text text-anchor="middle" x="1464" y="-117" font-family="Helvetica,sans-Serif" font-size="10.00">cassert</text>
</a>
</g>
</g>
<!-- Node13&#45;&gt;Node15 -->
<g id="edge21_Node000013_Node000015" class="edge">
<title>Node13&#45;&gt;Node15</title>
<g id="a_edge21_Node000013_Node000015"><a xlink:title=" ">
<path fill="none" stroke="#63b8ff" d="M1230.04,-167.86C1288.14,-156.1 1378.05,-137.9 1427.8,-127.83"/>
<polygon fill="#63b8ff" stroke="#63b8ff" points="1428.67,-131.22 1437.78,-125.81 1427.28,-124.36 1428.67,-131.22"/>
</a>
</g>
</g>
<!-- Node13&#45;&gt;Node16 -->
<g id="edge23_Node000013_Node000016" class="edge">
<title>Node13&#45;&gt;Node16</title>
<g id="a_edge23_Node000013_Node000016"><a xlink:title=" ">
<path fill="none" stroke="#63b8ff" d="M1218.59,-164.99C1250.3,-154.8 1292.65,-141.18 1322.12,-131.71"/>
<polygon fill="#63b8ff" stroke="#63b8ff" points="1323.52,-134.94 1331.97,-128.55 1321.37,-128.27 1323.52,-134.94"/>
</a>
</g>
</g>
<!-- Node17 -->
<g id="Node000017" class="node">
<title>Node17</title>
<g id="a_Node000017"><a xlink:title=" ">
<polygon fill="#e0e0e0" stroke="#999999" points="1313.5,-129 1248.5,-129 1248.5,-110 1313.5,-110 1313.5,-129"/>
<text text-anchor="middle" x="1281" y="-117" font-family="Helvetica,sans-Serif" font-size="10.00">functional</text>
</a>
</g>
</g>
<!-- Node13&#45;&gt;Node17 -->
<g id="edge24_Node000013_Node000017" class="edge">
<title>Node13&#45;&gt;Node17</title>
<g id="a_edge24_Node000013_Node000017"><a xlink:title=" ">
<path fill="none" stroke="#63b8ff" d="M1200.39,-164.99C1217.29,-155.66 1239.38,-143.47 1256.16,-134.21"/>
<polygon fill="#63b8ff" stroke="#63b8ff" points="1258.28,-137.04 1265.35,-129.14 1254.9,-130.91 1258.28,-137.04"/>
</a>
</g>
</g>
<!-- Node18 -->
<g id="Node000018" class="node">
<title>Node18</title>
<g id="a_Node000018"><a xlink:title=" ">
<polygon fill="#e0e0e0" stroke="#999999" points="1191.5,-129 1122.5,-129 1122.5,-110 1191.5,-110 1191.5,-129"/>
<text text-anchor="middle" x="1157" y="-117" font-family="Helvetica,sans-Serif" font-size="10.00">type_traits</text>
</a>
</g>
</g>
<!-- Node13&#45;&gt;Node18 -->
<g id="edge25_Node000013_Node000018" class="edge">
<title>Node13&#45;&gt;Node18</title>
<g id="a_edge25_Node000013_Node000018"><a xlink:title=" ">
<path fill="none" stroke="#63b8ff" d="M1170.64,-164.84C1168.24,-157.04 1165.24,-147.27 1162.66,-138.89"/>
<polygon fill="#63b8ff" stroke="#63b8ff" points="1165.98,-137.79 1159.7,-129.27 1159.29,-139.85 1165.98,-137.79"/>
</a>
</g>
</g>
<!-- Node19&#45;&gt;Node4 -->
<g id="edge27_Node000019_Node000004" class="edge">
<title>Node19&#45;&gt;Node4</title>
<g id="a_edge27_Node000019_Node000004"><a xlink:title=" ">
<path fill="none" stroke="#63b8ff" d="M532.66,-170.49C510.3,-160.66 473.29,-144.38 447.6,-133.08"/>
<polygon fill="#63b8ff" stroke="#63b8ff" points="448.93,-129.84 438.36,-129.02 446.11,-136.25 448.93,-129.84"/>
</a>
</g>
</g>
<!-- Node19&#45;&gt;Node5 -->
<g id="edge28_Node000019_Node000005" class="edge">
<title>Node19&#45;&gt;Node5</title>
<g id="a_edge28_Node000019_Node000005"><a xlink:title=" ">
<path fill="none" stroke="#63b8ff" d="M543.94,-170.44C535.42,-160.98 522.1,-144.94 514,-129 506.74,-114.72 501.76,-97.19 498.72,-84.17"/>
<polygon fill="#63b8ff" stroke="#63b8ff" points="502.08,-83.12 496.55,-74.08 495.23,-84.6 502.08,-83.12"/>
</a>
</g>
</g>
<!-- Node19&#45;&gt;Node9 -->
<g id="edge30_Node000019_Node000009" class="edge">
<title>Node19&#45;&gt;Node9</title>
<g id="a_edge30_Node000019_Node000009"><a xlink:title=" ">
<path fill="none" stroke="#63b8ff" d="M557.26,-170.47C568.71,-151.9 596.09,-107.51 611.32,-82.82"/>
<polygon fill="#63b8ff" stroke="#63b8ff" points="614.41,-84.48 616.68,-74.13 608.45,-80.8 614.41,-84.48"/>
</a>
</g>
</g>
<!-- Node20 -->
<g id="Node000020" class="node">
<title>Node20</title>
<g id="a_Node000020"><a xlink:title=" ">
<polygon fill="#e0e0e0" stroke="#999999" points="571.5,-129 522.5,-129 522.5,-110 571.5,-110 571.5,-129"/>
<text text-anchor="middle" x="547" y="-117" font-family="Helvetica,sans-Serif" font-size="10.00">cstdlib</text>
</a>
</g>
</g>
<!-- Node19&#45;&gt;Node20 -->
<g id="edge29_Node000019_Node000020" class="edge">
<title>Node19&#45;&gt;Node20</title>
<g id="a_edge29_Node000019_Node000020"><a xlink:title=" ">
<path fill="none" stroke="#63b8ff" d="M551.26,-170.37C550.57,-162.25 549.5,-149.81 548.61,-139.39"/>
<polygon fill="#63b8ff" stroke="#63b8ff" points="552.08,-138.83 547.74,-129.17 545.11,-139.43 552.08,-138.83"/>
</a>
</g>
</g>
<!-- Node23&#45;&gt;Node6 -->
<g id="edge54_Node000023_Node000006" class="edge">
<title>Node23&#45;&gt;Node6</title>
<g id="a_edge54_Node000023_Node000006"><a xlink:title=" ">
<path fill="none" stroke="#63b8ff" d="M1148.12,-357.72C1284.63,-350.56 1562,-325.65 1562,-241.5 1562,-241.5 1562,-241.5 1562,-118.5 1562,-14.4 1175.2,-9.03 1052.72,-9.94"/>
<polygon fill="#63b8ff" stroke="#63b8ff" points="1052.67,-6.44 1042.7,-10.03 1052.74,-13.44 1052.67,-6.44"/>
</a>
</g>
</g>
<!-- Node23&#45;&gt;Node9 -->
<g id="edge59_Node000023_Node000009" class="edge">
<title>Node23&#45;&gt;Node9</title>
<g id="a_edge59_Node000023_Node000009"><a xlink:title=" ">
<path fill="none" stroke="#63b8ff" d="M999.93,-359.88C918.11,-354.84 789.06,-333.13 722,-250 681.92,-200.32 726.46,-162.39 690,-110 680.57,-96.45 665.56,-85.99 652.03,-78.63"/>
<polygon fill="#63b8ff" stroke="#63b8ff" points="653.49,-75.44 642.99,-74.02 650.32,-81.68 653.49,-75.44"/>
</a>
</g>
</g>
<!-- Node23&#45;&gt;Node11 -->
<g id="edge52_Node000023_Node000011" class="edge">
<title>Node23&#45;&gt;Node11</title>
<g id="a_edge52_Node000023_Node000011"><a xlink:title=" ">
<path fill="none" stroke="#63b8ff" d="M1059.87,-351.69C1047.79,-343.59 1030.58,-330.65 1019,-316 974.93,-260.23 953.34,-176.11 945.54,-139.09"/>
<polygon fill="#63b8ff" stroke="#63b8ff" points="948.95,-138.32 943.55,-129.2 942.09,-139.7 948.95,-138.32"/>
</a>
</g>
</g>
<!-- Node23&#45;&gt;Node12 -->
<g id="edge41_Node000023_Node000012" class="edge">
<title>Node23&#45;&gt;Node12</title>
<g id="a_edge41_Node000023_Node000012"><a xlink:title=" ">
<path fill="none" stroke="#63b8ff" d="M1038.75,-352C1008.71,-344.23 964.71,-331.59 928,-316 886.76,-298.48 841.82,-271.79 815.87,-255.57"/>
<polygon fill="#63b8ff" stroke="#63b8ff" points="817.54,-252.48 807.22,-250.1 813.8,-258.4 817.54,-252.48"/>
</a>
</g>
</g>
<!-- Node23&#45;&gt;Node15 -->
<g id="edge53_Node000023_Node000015" class="edge">
<title>Node23&#45;&gt;Node15</title>
<g id="a_edge53_Node000023_Node000015"><a xlink:title=" ">
<path fill="none" stroke="#63b8ff" d="M1148.06,-353.35C1210.33,-346.24 1293.6,-333.81 1322,-316 1392.64,-271.7 1439.19,-178.33 1456.48,-138.8"/>
<polygon fill="#63b8ff" stroke="#63b8ff" points="1459.8,-139.93 1460.49,-129.36 1453.35,-137.2 1459.8,-139.93"/>
</a>
</g>
</g>
<!-- Node23&#45;&gt;Node16 -->
<g id="edge55_Node000023_Node000016" class="edge">
<title>Node23&#45;&gt;Node16</title>
<g id="a_edge55_Node000023_Node000016"><a xlink:title=" ">
<path fill="none" stroke="#63b8ff" d="M1148.01,-353.88C1204.18,-347.4 1275.33,-335.59 1297,-316 1348.79,-269.18 1356.42,-178.93 1357.17,-139.6"/>
<polygon fill="#63b8ff" stroke="#63b8ff" points="1360.67,-139.15 1357.23,-129.13 1353.67,-139.11 1360.67,-139.15"/>
</a>
</g>
</g>
<!-- Node23&#45;&gt;Node17 -->
<g id="edge56_Node000023_Node000017" class="edge">
<title>Node23&#45;&gt;Node17</title>
<g id="a_edge56_Node000023_Node000017"><a xlink:title=" ">
<path fill="none" stroke="#63b8ff" d="M1148.18,-353.55C1198.53,-347.14 1258.78,-335.58 1275,-316 1317.59,-264.59 1298.3,-176.85 1287.06,-138.89"/>
<polygon fill="#63b8ff" stroke="#63b8ff" points="1290.35,-137.69 1284.03,-129.19 1283.67,-139.78 1290.35,-137.69"/>
</a>
</g>
</g>
<!-- Node23&#45;&gt;Node21 -->
<g id="edge57_Node000023_Node000021" class="edge">
<title>Node23&#45;&gt;Node21</title>
<g id="a_edge57_Node000023_Node000021"><a xlink:title=" ">
<path fill="none" stroke="#63b8ff" d="M1049.52,-351.9C1030.55,-344.41 1004.32,-332.22 985,-316 943.82,-281.42 910.09,-226.63 894.44,-198.68"/>
<polygon fill="#63b8ff" stroke="#63b8ff" points="897.38,-196.77 889.51,-189.68 891.24,-200.13 897.38,-196.77"/>
</a>
</g>
</g>
<!-- Node24 -->
<g id="Node000024" class="node">
<title>Node24</title>
<g id="a_Node000024"><a xlink:href="../../d8/d90/unfitted__domain__kd__tree_8hpp.html" target="_top" xlink:title="Declaration of of UnfittedDomain class.">
<polygon fill="white" stroke="#666666" points="1265.5,-316 1138.5,-316 1138.5,-286 1265.5,-286 1265.5,-316"/>
<text text-anchor="start" x="1146.5" y="-304" font-family="Helvetica,sans-Serif" font-size="10.00">qugar/unfitted_domain</text>
<text text-anchor="middle" x="1202" y="-293" font-family="Helvetica,sans-Serif" font-size="10.00">_kd_tree.hpp</text>
</a>
</g>
</g>
<!-- Node23&#45;&gt;Node24 -->
<g id="edge42_Node000023_Node000024" class="edge">
<title>Node23&#45;&gt;Node24</title>
<g id="a_edge42_Node000023_Node000024"><a xlink:title=" ">
<path fill="none" stroke="#63b8ff" d="M1092.61,-351.99C1110.65,-343.75 1138.6,-330.98 1161.73,-320.4"/>
<polygon fill="#63b8ff" stroke="#63b8ff" points="1163.34,-323.52 1170.98,-316.18 1160.43,-317.15 1163.34,-323.52"/>
</a>
</g>
</g>
<!-- Node25 -->
<g id="Node000025" class="node">
<title>Node25</title>
<g id="a_Node000025"><a xlink:title=" ">
<polygon fill="#e0e0e0" stroke="#999999" points="1120.5,-310.5 1027.5,-310.5 1027.5,-291.5 1120.5,-291.5 1120.5,-310.5"/>
<text text-anchor="middle" x="1074" y="-298.5" font-family="Helvetica,sans-Serif" font-size="10.00">unordered_map</text>
</a>
</g>
</g>
<!-- Node23&#45;&gt;Node25 -->
<g id="edge58_Node000023_Node000025" class="edge">
<title>Node23&#45;&gt;Node25</title>
<g id="a_edge58_Node000023_Node000025"><a xlink:title=" ">
<path fill="none" stroke="#63b8ff" d="M1074,-351.87C1074,-343.75 1074,-331.31 1074,-320.89"/>
<polygon fill="#63b8ff" stroke="#63b8ff" points="1077.5,-320.67 1074,-310.67 1070.5,-320.67 1077.5,-320.67"/>
</a>
</g>
</g>
<!-- Node24&#45;&gt;Node6 -->
<g id="edge46_Node000024_Node000006" class="edge">
<title>Node24&#45;&gt;Node6</title>
<g id="a_edge46_Node000024_Node000006"><a xlink:title=" ">
<path fill="none" stroke="#63b8ff" d="M1265.54,-290.91C1326.71,-278.15 1410,-248.4 1410,-181 1410,-181 1410,-181 1410,-118.5 1410,-44.85 1150.69,-19.62 1052.81,-12.72"/>
<polygon fill="#63b8ff" stroke="#63b8ff" points="1052.99,-9.22 1042.77,-12.04 1052.51,-16.21 1052.99,-9.22"/>
</a>
</g>
</g>
<!-- Node24&#45;&gt;Node9 -->
<g id="edge51_Node000024_Node000009" class="edge">
<title>Node24&#45;&gt;Node9</title>
<g id="a_edge51_Node000024_Node000009"><a xlink:title=" ">
<path fill="none" stroke="#63b8ff" d="M1189.25,-285.97C1165.48,-260.27 1112.19,-204.62 1061,-165 1051.81,-157.89 982.99,-113.8 972,-110 841.02,-64.65 796.44,-98.16 655.57,-73.8"/>
<polygon fill="#63b8ff" stroke="#63b8ff" points="656.17,-70.35 645.71,-72.03 654.93,-77.24 656.17,-70.35"/>
</a>
</g>
</g>
<!-- Node24&#45;&gt;Node11 -->
<g id="edge44_Node000024_Node000011" class="edge">
<title>Node24&#45;&gt;Node11</title>
<g id="a_edge44_Node000024_Node000011"><a xlink:title=" ">
<path fill="none" stroke="#63b8ff" d="M1162.27,-285.91C1141.99,-277.49 1117.72,-265.41 1099,-250 1062.49,-219.95 1071.6,-194.95 1035,-165 1016.48,-149.84 991.94,-138.38 972.72,-130.89"/>
<polygon fill="#63b8ff" stroke="#63b8ff" points="973.8,-127.56 963.21,-127.33 971.35,-134.11 973.8,-127.56"/>
</a>
</g>
</g>
<!-- Node24&#45;&gt;Node12 -->
<g id="edge43_Node000024_Node000012" class="edge">
<title>Node24&#45;&gt;Node12</title>
<g id="a_edge43_Node000024_Node000012"><a xlink:title=" ">
<path fill="none" stroke="#63b8ff" d="M1138.43,-287.42C1135.59,-286.93 1132.76,-286.45 1130,-286 1039.82,-271.28 935.42,-258.04 867.23,-249.91"/>
<polygon fill="#63b8ff" stroke="#63b8ff" points="867.37,-246.4 857.02,-248.69 866.54,-253.35 867.37,-246.4"/>
</a>
</g>
</g>
<!-- Node24&#45;&gt;Node15 -->
<g id="edge45_Node000024_Node000015" class="edge">
<title>Node24&#45;&gt;Node15</title>
<g id="a_edge45_Node000024_Node000015"><a xlink:title=" ">
<path fill="none" stroke="#63b8ff" d="M1265.71,-292.8C1322.89,-285.09 1401.23,-271.06 1424,-250 1455.43,-220.93 1462.39,-167.77 1463.79,-139.45"/>
<polygon fill="#63b8ff" stroke="#63b8ff" points="1467.29,-139.38 1464.09,-129.28 1460.29,-139.17 1467.29,-139.38"/>
</a>
</g>
</g>
<!-- Node24&#45;&gt;Node16 -->
<g id="edge47_Node000024_Node000016" class="edge">
<title>Node24&#45;&gt;Node16</title>
<g id="a_edge47_Node000024_Node000016"><a xlink:title=" ">
<path fill="none" stroke="#63b8ff" d="M1214.16,-285.91C1242.45,-253.15 1312.56,-171.97 1342.77,-136.98"/>
<polygon fill="#63b8ff" stroke="#63b8ff" points="1345.66,-138.99 1349.54,-129.13 1340.36,-134.42 1345.66,-138.99"/>
</a>
</g>
</g>
<!-- Node24&#45;&gt;Node17 -->
<g id="edge48_Node000024_Node000017" class="edge">
<title>Node24&#45;&gt;Node17</title>
<g id="a_edge48_Node000024_Node000017"><a xlink:title=" ">
<path fill="none" stroke="#63b8ff" d="M1208.2,-285.91C1222.43,-253.57 1257.44,-174.02 1273.15,-138.33"/>
<polygon fill="#63b8ff" stroke="#63b8ff" points="1276.37,-139.7 1277.2,-129.13 1269.97,-136.88 1276.37,-139.7"/>
</a>
</g>
</g>
<!-- Node24&#45;&gt;Node21 -->
<g id="edge49_Node000024_Node000021" class="edge">
<title>Node24&#45;&gt;Node21</title>
<g id="a_edge49_Node000024_Node000021"><a xlink:title=" ">
<path fill="none" stroke="#63b8ff" d="M1148.34,-286C1115.28,-276.87 1072.23,-264.06 1035,-250 990.43,-233.17 940.5,-209.11 910.96,-194.3"/>
<polygon fill="#63b8ff" stroke="#63b8ff" points="912.27,-191.04 901.77,-189.66 909.12,-197.29 912.27,-191.04"/>
</a>
</g>
</g>
<!-- Node24&#45;&gt;Node22 -->
<g id="edge50_Node000024_Node000022" class="edge">
<title>Node24&#45;&gt;Node22</title>
<g id="a_edge50_Node000024_Node000022"><a xlink:title=" ">
<path fill="none" stroke="#63b8ff" d="M1142.41,-285.92C1116.06,-277.97 1085.56,-266.3 1061,-250 1039.98,-236.06 1021.26,-213.6 1009.79,-198.11"/>
<polygon fill="#63b8ff" stroke="#63b8ff" points="1012.59,-196 1003.92,-189.91 1006.9,-200.08 1012.59,-196"/>
</a>
</g>
</g>
</g>
</svg>
