<?xml version="1.0" encoding="UTF-8" standalone="no"?>
<!DOCTYPE svg PUBLIC "-//W3C//DTD SVG 1.1//EN"
 "http://www.w3.org/Graphics/SVG/1.1/DTD/svg11.dtd">
<!-- Generated by graphviz version 2.43.0 (0)
 -->
<!-- Title: /__w/qugar/qugar/cpp/include/qugar/unfitted_domain_binary_part.hpp Pages: 1 -->
<svg width="1286pt" height="335pt"
 viewBox="0.00 0.00 1285.97 335.00" xmlns="http://www.w3.org/2000/svg" xmlns:xlink="http://www.w3.org/1999/xlink">
<g id="graph0" class="graph" transform="scale(1 1) rotate(0) translate(4 331)">
<title>/__w/qugar/qugar/cpp/include/qugar/unfitted_domain_binary_part.hpp</title>
<!-- Node1 -->
<g id="Node000001" class="node">
<title>Node1</title>
<g id="a_Node000001"><a xlink:title="Declaration of of UnfittedDomain class.">
<polygon fill="#999999" stroke="#666666" points="1137.97,-327 997.97,-327 997.97,-286 1137.97,-286 1137.97,-327"/>
<text text-anchor="start" x="1005.97" y="-315" font-family="Helvetica,sans-Serif" font-size="10.00">/__w/qugar/qugar/cpp</text>
<text text-anchor="start" x="1005.97" y="-304" font-family="Helvetica,sans-Serif" font-size="10.00">/include/qugar/unfitted</text>
<text text-anchor="middle" x="1067.97" y="-293" font-family="Helvetica,sans-Serif" font-size="10.00">_domain_binary_part.hpp</text>
</a>
</g>
</g>
<!-- Node2 -->
<g id="Node000002" class="node">
<title>Node2</title>
<g id="a_Node000002"><a xlink:href="../../d6/d49/cart__grid__tp_8hpp.html" target="_top" xlink:title="Definition of Cartesian grid class.">
<polygon fill="white" stroke="#666666" points="726.97,-250 600.97,-250 600.97,-231 726.97,-231 726.97,-250"/>
<text text-anchor="middle" x="663.97" y="-238" font-family="Helvetica,sans-Serif" font-size="10.00">qugar/cart_grid_tp.hpp</text>
</a>
</g>
</g>
<!-- Node1&#45;&gt;Node2 -->
<g id="edge1_Node000001_Node000002" class="edge">
<title>Node1&#45;&gt;Node2</title>
<g id="a_edge1_Node000001_Node000002"><a xlink:title=" ">
<path fill="none" stroke="#63b8ff" d="M997.6,-294.35C921.49,-282.29 801.22,-263.24 727.78,-251.61"/>
<polygon fill="#63b8ff" stroke="#63b8ff" points="728.16,-248.12 717.73,-250.02 727.06,-255.04 728.16,-248.12"/>
</a>
</g>
</g>
<!-- Node7 -->
<g id="Node000007" class="node">
<title>Node7</title>
<g id="a_Node000007"><a xlink:title=" ">
<polygon fill="#e0e0e0" stroke="#999999" points="348.47,-19 295.47,-19 295.47,0 348.47,0 348.47,-19"/>
<text text-anchor="middle" x="321.97" y="-7" font-family="Helvetica,sans-Serif" font-size="10.00">cstddef</text>
</a>
</g>
</g>
<!-- Node1&#45;&gt;Node7 -->
<g id="edge39_Node000001_Node000007" class="edge">
<title>Node1&#45;&gt;Node7</title>
<g id="a_edge39_Node000001_Node000007"><a xlink:title=" ">
<path fill="none" stroke="#63b8ff" d="M1138.19,-293.83C1199.24,-279.19 1277.97,-247.44 1277.97,-181 1277.97,-181 1277.97,-181 1277.97,-118.5 1277.97,-24.18 533.66,-12.22 358.55,-10.72"/>
<polygon fill="#63b8ff" stroke="#63b8ff" points="358.57,-7.22 348.54,-10.64 358.51,-14.22 358.57,-7.22"/>
</a>
</g>
</g>
<!-- Node10 -->
<g id="Node000010" class="node">
<title>Node10</title>
<g id="a_Node000010"><a xlink:title=" ">
<polygon fill="#e0e0e0" stroke="#999999" points="134.47,-74 87.47,-74 87.47,-55 134.47,-55 134.47,-74"/>
<text text-anchor="middle" x="110.97" y="-62" font-family="Helvetica,sans-Serif" font-size="10.00">vector</text>
</a>
</g>
</g>
<!-- Node1&#45;&gt;Node10 -->
<g id="edge43_Node000001_Node000010" class="edge">
<title>Node1&#45;&gt;Node10</title>
<g id="a_edge43_Node000001_Node000010"><a xlink:title=" ">
<path fill="none" stroke="#63b8ff" d="M997.96,-303.42C774.07,-296.07 86.39,-267.68 20.97,-195 -13.47,-156.73 51.26,-104.8 88.04,-79.93"/>
<polygon fill="#63b8ff" stroke="#63b8ff" points="90.29,-82.64 96.72,-74.22 86.44,-76.8 90.29,-82.64"/>
</a>
</g>
</g>
<!-- Node12 -->
<g id="Node000012" class="node">
<title>Node12</title>
<g id="a_Node000012"><a xlink:title=" ">
<polygon fill="#e0e0e0" stroke="#999999" points="801.97,-129 759.97,-129 759.97,-110 801.97,-110 801.97,-129"/>
<text text-anchor="middle" x="780.97" y="-117" font-family="Helvetica,sans-Serif" font-size="10.00">array</text>
</a>
</g>
</g>
<!-- Node1&#45;&gt;Node12 -->
<g id="edge37_Node000001_Node000012" class="edge">
<title>Node1&#45;&gt;Node12</title>
<g id="a_edge37_Node000001_Node000012"><a xlink:title=" ">
<path fill="none" stroke="#63b8ff" d="M999.01,-285.94C947.17,-268.57 876.81,-239.05 826.97,-195 809.41,-179.48 796.31,-155.62 788.67,-139.1"/>
<polygon fill="#63b8ff" stroke="#63b8ff" points="791.67,-137.22 784.45,-129.47 785.26,-140.04 791.67,-137.22"/>
</a>
</g>
</g>
<!-- Node15 -->
<g id="Node000015" class="node">
<title>Node15</title>
<g id="a_Node000015"><a xlink:title=" ">
<polygon fill="#e0e0e0" stroke="#999999" points="1165.97,-129 1113.97,-129 1113.97,-110 1165.97,-110 1165.97,-129"/>
<text text-anchor="middle" x="1139.97" y="-117" font-family="Helvetica,sans-Serif" font-size="10.00">cassert</text>
</a>
</g>
</g>
<!-- Node1&#45;&gt;Node15 -->
<g id="edge38_Node000001_Node000015" class="edge">
<title>Node1&#45;&gt;Node15</title>
<g id="a_edge38_Node000001_Node000015"><a xlink:title=" ">
<path fill="none" stroke="#63b8ff" d="M1075.68,-285.7C1089.75,-249.55 1119.4,-173.36 1132.95,-138.55"/>
<polygon fill="#63b8ff" stroke="#63b8ff" points="1136.24,-139.75 1136.6,-129.16 1129.71,-137.21 1136.24,-139.75"/>
</a>
</g>
</g>
<!-- Node16 -->
<g id="Node000016" class="node">
<title>Node16</title>
<g id="a_Node000016"><a xlink:title=" ">
<polygon fill="#e0e0e0" stroke="#999999" points="1095.97,-129 1045.97,-129 1045.97,-110 1095.97,-110 1095.97,-129"/>
<text text-anchor="middle" x="1070.97" y="-117" font-family="Helvetica,sans-Serif" font-size="10.00">cstdint</text>
</a>
</g>
</g>
<!-- Node1&#45;&gt;Node16 -->
<g id="edge40_Node000001_Node000016" class="edge">
<title>Node1&#45;&gt;Node16</title>
<g id="a_edge40_Node000001_Node000016"><a xlink:title=" ">
<path fill="none" stroke="#63b8ff" d="M1068.29,-285.7C1068.88,-249.86 1070.09,-174.67 1070.67,-139.46"/>
<polygon fill="#63b8ff" stroke="#63b8ff" points="1074.17,-139.21 1070.83,-129.16 1067.17,-139.1 1074.17,-139.21"/>
</a>
</g>
</g>
<!-- Node17 -->
<g id="Node000017" class="node">
<title>Node17</title>
<g id="a_Node000017"><a xlink:title=" ">
<polygon fill="#e0e0e0" stroke="#999999" points="1249.47,-129 1184.47,-129 1184.47,-110 1249.47,-110 1249.47,-129"/>
<text text-anchor="middle" x="1216.97" y="-117" font-family="Helvetica,sans-Serif" font-size="10.00">functional</text>
</a>
</g>
</g>
<!-- Node1&#45;&gt;Node17 -->
<g id="edge41_Node000001_Node000017" class="edge">
<title>Node1&#45;&gt;Node17</title>
<g id="a_edge41_Node000001_Node000017"><a xlink:title=" ">
<path fill="none" stroke="#63b8ff" d="M1083.92,-285.7C1113.41,-249.08 1175.99,-171.38 1203.51,-137.22"/>
<polygon fill="#63b8ff" stroke="#63b8ff" points="1206.45,-139.14 1210,-129.16 1201,-134.75 1206.45,-139.14"/>
</a>
</g>
</g>
<!-- Node21 -->
<g id="Node000021" class="node">
<title>Node21</title>
<g id="a_Node000021"><a xlink:title=" ">
<polygon fill="#e0e0e0" stroke="#999999" points="1059.97,-189.5 1001.97,-189.5 1001.97,-170.5 1059.97,-170.5 1059.97,-189.5"/>
<text text-anchor="middle" x="1030.97" y="-177.5" font-family="Helvetica,sans-Serif" font-size="10.00">memory</text>
</a>
</g>
</g>
<!-- Node1&#45;&gt;Node21 -->
<g id="edge42_Node000001_Node000021" class="edge">
<title>Node1&#45;&gt;Node21</title>
<g id="a_edge42_Node000001_Node000021"><a xlink:title=" ">
<path fill="none" stroke="#63b8ff" d="M1062.11,-285.77C1055.04,-261.98 1043.25,-222.3 1036.38,-199.21"/>
<polygon fill="#63b8ff" stroke="#63b8ff" points="1039.74,-198.2 1033.53,-189.61 1033.03,-200.2 1039.74,-198.2"/>
</a>
</g>
</g>
<!-- Node3 -->
<g id="Node000003" class="node">
<title>Node3</title>
<g id="a_Node000003"><a xlink:href="../../d5/d90/bbox_8hpp.html" target="_top" xlink:title="Definition of Cartesian bounding box class.">
<polygon fill="white" stroke="#666666" points="655.97,-189.5 563.97,-189.5 563.97,-170.5 655.97,-170.5 655.97,-189.5"/>
<text text-anchor="middle" x="609.97" y="-177.5" font-family="Helvetica,sans-Serif" font-size="10.00">qugar/bbox.hpp</text>
</a>
</g>
</g>
<!-- Node2&#45;&gt;Node3 -->
<g id="edge2_Node000002_Node000003" class="edge">
<title>Node2&#45;&gt;Node3</title>
<g id="a_edge2_Node000002_Node000003"><a xlink:title=" ">
<path fill="none" stroke="#63b8ff" d="M656,-230.87C647.87,-222.05 635.04,-208.16 624.99,-197.27"/>
<polygon fill="#63b8ff" stroke="#63b8ff" points="627.33,-194.64 617.97,-189.67 622.18,-199.39 627.33,-194.64"/>
</a>
</g>
</g>
<!-- Node5 -->
<g id="Node000005" class="node">
<title>Node5</title>
<g id="a_Node000005"><a xlink:href="../../d0/de4/point_8hpp.html" target="_top" xlink:title="Definition and implementation of Point class.">
<polygon fill="white" stroke="#666666" points="331.47,-129 238.47,-129 238.47,-110 331.47,-110 331.47,-129"/>
<text text-anchor="middle" x="284.97" y="-117" font-family="Helvetica,sans-Serif" font-size="10.00">qugar/point.hpp</text>
</a>
</g>
</g>
<!-- Node2&#45;&gt;Node5 -->
<g id="edge15_Node000002_Node000005" class="edge">
<title>Node2&#45;&gt;Node5</title>
<g id="a_edge15_Node000002_Node000005"><a xlink:title=" ">
<path fill="none" stroke="#63b8ff" d="M636.72,-230.94C569.87,-209.95 397.76,-155.91 321.86,-132.08"/>
<polygon fill="#63b8ff" stroke="#63b8ff" points="322.83,-128.72 312.24,-129.06 320.73,-135.4 322.83,-128.72"/>
</a>
</g>
</g>
<!-- Node6 -->
<g id="Node000006" class="node">
<title>Node6</title>
<g id="a_Node000006"><a xlink:href="../../dd/de3/types_8hpp.html" target="_top" xlink:title="Declaration of types.">
<polygon fill="white" stroke="#666666" points="331.47,-74 236.47,-74 236.47,-55 331.47,-55 331.47,-74"/>
<text text-anchor="middle" x="283.97" y="-62" font-family="Helvetica,sans-Serif" font-size="10.00">qugar/types.hpp</text>
</a>
</g>
</g>
<!-- Node2&#45;&gt;Node6 -->
<g id="edge30_Node000002_Node000006" class="edge">
<title>Node2&#45;&gt;Node6</title>
<g id="a_edge30_Node000002_Node000006"><a xlink:title=" ">
<path fill="none" stroke="#63b8ff" d="M670.15,-230.98C685.84,-208.24 723.76,-145.45 691.97,-110 669.04,-84.43 449.17,-72.13 342.05,-67.62"/>
<polygon fill="#63b8ff" stroke="#63b8ff" points="341.88,-64.11 331.74,-67.2 341.59,-71.1 341.88,-64.11"/>
</a>
</g>
</g>
<!-- Node2&#45;&gt;Node7 -->
<g id="edge32_Node000002_Node000007" class="edge">
<title>Node2&#45;&gt;Node7</title>
<g id="a_edge32_Node000002_Node000007"><a xlink:title=" ">
<path fill="none" stroke="#63b8ff" d="M600.83,-239.9C446.52,-240.22 59.98,-236.8 20.97,-195 -18.45,-152.76 -2.69,-114.62 77.97,-55 110.31,-31.1 225.36,-18.38 285.2,-13.26"/>
<polygon fill="#63b8ff" stroke="#63b8ff" points="285.68,-16.73 295.35,-12.42 285.1,-9.75 285.68,-16.73"/>
</a>
</g>
</g>
<!-- Node2&#45;&gt;Node10 -->
<g id="edge36_Node000002_Node000010" class="edge">
<title>Node2&#45;&gt;Node10</title>
<g id="a_edge36_Node000002_Node000010"><a xlink:title=" ">
<path fill="none" stroke="#63b8ff" d="M600.61,-239.85C480.02,-239.57 222.49,-234.23 143.97,-195 108.78,-177.41 99.01,-165.76 84.97,-129 78.89,-113.06 87.75,-95.08 96.74,-82.33"/>
<polygon fill="#63b8ff" stroke="#63b8ff" points="99.77,-84.13 103.1,-74.08 94.22,-79.86 99.77,-84.13"/>
</a>
</g>
</g>
<!-- Node2&#45;&gt;Node12 -->
<g id="edge31_Node000002_Node000012" class="edge">
<title>Node2&#45;&gt;Node12</title>
<g id="a_edge31_Node000002_Node000012"><a xlink:title=" ">
<path fill="none" stroke="#63b8ff" d="M688.51,-230.99C706.35,-223.76 730.08,-211.85 745.97,-195 760.95,-179.12 770.52,-155.67 775.8,-139.33"/>
<polygon fill="#63b8ff" stroke="#63b8ff" points="779.27,-139.92 778.78,-129.34 772.56,-137.92 779.27,-139.92"/>
</a>
</g>
</g>
<!-- Node13 -->
<g id="Node000013" class="node">
<title>Node13</title>
<g id="a_Node000013"><a xlink:href="../../d9/d43/tensor__index__tp_8hpp.html" target="_top" xlink:title="Declaration of tensor&#45;product index and size related classes.">
<polygon fill="white" stroke="#666666" points="945.97,-195 835.97,-195 835.97,-165 945.97,-165 945.97,-195"/>
<text text-anchor="start" x="843.97" y="-183" font-family="Helvetica,sans-Serif" font-size="10.00">qugar/tensor_index</text>
<text text-anchor="middle" x="890.97" y="-172" font-family="Helvetica,sans-Serif" font-size="10.00">_tp.hpp</text>
</a>
</g>
</g>
<!-- Node2&#45;&gt;Node13 -->
<g id="edge16_Node000002_Node000013" class="edge">
<title>Node2&#45;&gt;Node13</title>
<g id="a_edge16_Node000002_Node000013"><a xlink:title=" ">
<path fill="none" stroke="#63b8ff" d="M696.98,-230.99C730.79,-222.28 784.23,-208.51 826.47,-197.62"/>
<polygon fill="#63b8ff" stroke="#63b8ff" points="827.59,-200.95 836.4,-195.06 825.84,-194.17 827.59,-200.95"/>
</a>
</g>
</g>
<!-- Node2&#45;&gt;Node16 -->
<g id="edge33_Node000002_Node000016" class="edge">
<title>Node2&#45;&gt;Node16</title>
<g id="a_edge33_Node000002_Node000016"><a xlink:title=" ">
<path fill="none" stroke="#63b8ff" d="M726.99,-239.07C787.72,-236.57 881.03,-227.14 954.97,-195 974.71,-186.42 975.13,-177.03 992.97,-165 1009.88,-153.59 1029.89,-142.22 1045.4,-133.83"/>
<polygon fill="#63b8ff" stroke="#63b8ff" points="1047.24,-136.81 1054.41,-129.02 1043.94,-130.64 1047.24,-136.81"/>
</a>
</g>
</g>
<!-- Node19 -->
<g id="Node000019" class="node">
<title>Node19</title>
<g id="a_Node000019"><a xlink:href="../../d0/d55/tolerance_8hpp.html" target="_top" xlink:title="Definition of tolerance related functionalities.">
<polygon fill="white" stroke="#666666" points="266.97,-189.5 152.97,-189.5 152.97,-170.5 266.97,-170.5 266.97,-189.5"/>
<text text-anchor="middle" x="209.97" y="-177.5" font-family="Helvetica,sans-Serif" font-size="10.00">qugar/tolerance.hpp</text>
</a>
</g>
</g>
<!-- Node2&#45;&gt;Node19 -->
<g id="edge25_Node000002_Node000019" class="edge">
<title>Node2&#45;&gt;Node19</title>
<g id="a_edge25_Node000002_Node000019"><a xlink:title=" ">
<path fill="none" stroke="#63b8ff" d="M600.85,-231.37C515.65,-220.39 364.52,-200.91 277.25,-189.67"/>
<polygon fill="#63b8ff" stroke="#63b8ff" points="277.56,-186.18 267.19,-188.37 276.66,-193.12 277.56,-186.18"/>
</a>
</g>
</g>
<!-- Node2&#45;&gt;Node21 -->
<g id="edge34_Node000002_Node000021" class="edge">
<title>Node2&#45;&gt;Node21</title>
<g id="a_edge34_Node000002_Node000021"><a xlink:title=" ">
<path fill="none" stroke="#63b8ff" d="M726.99,-234.2C792.72,-227.89 898.46,-215.55 987.97,-195 991.01,-194.3 994.14,-193.48 997.26,-192.6"/>
<polygon fill="#63b8ff" stroke="#63b8ff" points="998.53,-195.87 1007.08,-189.61 996.49,-189.18 998.53,-195.87"/>
</a>
</g>
</g>
<!-- Node22 -->
<g id="Node000022" class="node">
<title>Node22</title>
<g id="a_Node000022"><a xlink:title=" ">
<polygon fill="#e0e0e0" stroke="#999999" points="85.97,-189.5 29.97,-189.5 29.97,-170.5 85.97,-170.5 85.97,-189.5"/>
<text text-anchor="middle" x="57.97" y="-177.5" font-family="Helvetica,sans-Serif" font-size="10.00">optional</text>
</a>
</g>
</g>
<!-- Node2&#45;&gt;Node22 -->
<g id="edge35_Node000002_Node000022" class="edge">
<title>Node2&#45;&gt;Node22</title>
<g id="a_edge35_Node000002_Node000022"><a xlink:title=" ">
<path fill="none" stroke="#63b8ff" d="M600.69,-239.49C495.62,-238.36 279.01,-231.34 99.97,-195 96.73,-194.34 93.4,-193.51 90.09,-192.58"/>
<polygon fill="#63b8ff" stroke="#63b8ff" points="90.96,-189.19 80.37,-189.58 88.89,-195.88 90.96,-189.19"/>
</a>
</g>
</g>
<!-- Node4 -->
<g id="Node000004" class="node">
<title>Node4</title>
<g id="a_Node000004"><a xlink:href="../../d7/dd8/concepts_8hpp.html" target="_top" xlink:title="Declaration of concepts.">
<polygon fill="white" stroke="#666666" points="665.97,-129 553.97,-129 553.97,-110 665.97,-110 665.97,-129"/>
<text text-anchor="middle" x="609.97" y="-117" font-family="Helvetica,sans-Serif" font-size="10.00">qugar/concepts.hpp</text>
</a>
</g>
</g>
<!-- Node3&#45;&gt;Node4 -->
<g id="edge3_Node000003_Node000004" class="edge">
<title>Node3&#45;&gt;Node4</title>
<g id="a_edge3_Node000003_Node000004"><a xlink:title=" ">
<path fill="none" stroke="#63b8ff" d="M609.97,-170.37C609.97,-162.25 609.97,-149.81 609.97,-139.39"/>
<polygon fill="#63b8ff" stroke="#63b8ff" points="613.47,-139.17 609.97,-129.17 606.47,-139.17 613.47,-139.17"/>
</a>
</g>
</g>
<!-- Node3&#45;&gt;Node5 -->
<g id="edge4_Node000003_Node000005" class="edge">
<title>Node3&#45;&gt;Node5</title>
<g id="a_edge4_Node000003_Node000005"><a xlink:title=" ">
<path fill="none" stroke="#63b8ff" d="M563.75,-170.68C505.32,-160.16 404.76,-142.06 341.72,-130.72"/>
<polygon fill="#63b8ff" stroke="#63b8ff" points="342.02,-127.21 331.56,-128.89 340.78,-134.1 342.02,-127.21"/>
</a>
</g>
</g>
<!-- Node3&#45;&gt;Node6 -->
<g id="edge11_Node000003_Node000006" class="edge">
<title>Node3&#45;&gt;Node6</title>
<g id="a_edge11_Node000003_Node000006"><a xlink:title=" ">
<path fill="none" stroke="#63b8ff" d="M628.55,-170.43C654.1,-157.51 694.81,-132.22 674.97,-110 653.2,-85.61 445.36,-72.81 341.9,-67.91"/>
<polygon fill="#63b8ff" stroke="#63b8ff" points="341.77,-64.4 331.62,-67.43 341.45,-71.39 341.77,-64.4"/>
</a>
</g>
</g>
<!-- Node3&#45;&gt;Node7 -->
<g id="edge14_Node000003_Node000007" class="edge">
<title>Node3&#45;&gt;Node7</title>
<g id="a_edge14_Node000003_Node000007"><a xlink:title=" ">
<path fill="none" stroke="#63b8ff" d="M563.95,-173.86C505.04,-166.48 407.2,-151.27 378.97,-129 370.44,-122.27 343.05,-59.96 329.59,-28.5"/>
<polygon fill="#63b8ff" stroke="#63b8ff" points="332.74,-26.97 325.6,-19.13 326.3,-29.71 332.74,-26.97"/>
</a>
</g>
</g>
<!-- Node11 -->
<g id="Node000011" class="node">
<title>Node11</title>
<g id="a_Node000011"><a xlink:title=" ">
<polygon fill="#e0e0e0" stroke="#999999" points="535.97,-129 387.97,-129 387.97,-110 535.97,-110 535.97,-129"/>
<text text-anchor="middle" x="461.97" y="-117" font-family="Helvetica,sans-Serif" font-size="10.00">algoim/hyperrectangle.hpp</text>
</a>
</g>
</g>
<!-- Node3&#45;&gt;Node11 -->
<g id="edge12_Node000003_Node000011" class="edge">
<title>Node3&#45;&gt;Node11</title>
<g id="a_edge12_Node000003_Node000011"><a xlink:title=" ">
<path fill="none" stroke="#63b8ff" d="M588.45,-170.49C563.35,-160.57 521.66,-144.09 493.04,-132.78"/>
<polygon fill="#63b8ff" stroke="#63b8ff" points="494.11,-129.44 483.52,-129.02 491.53,-135.95 494.11,-129.44"/>
</a>
</g>
</g>
<!-- Node3&#45;&gt;Node12 -->
<g id="edge13_Node000003_Node000012" class="edge">
<title>Node3&#45;&gt;Node12</title>
<g id="a_edge13_Node000003_Node000012"><a xlink:title=" ">
<path fill="none" stroke="#63b8ff" d="M634.84,-170.49C665.39,-160.04 717.24,-142.3 750.25,-131.01"/>
<polygon fill="#63b8ff" stroke="#63b8ff" points="751.52,-134.27 759.85,-127.73 749.26,-127.65 751.52,-134.27"/>
</a>
</g>
</g>
<!-- Node5&#45;&gt;Node6 -->
<g id="edge5_Node000005_Node000006" class="edge">
<title>Node5&#45;&gt;Node6</title>
<g id="a_edge5_Node000005_Node000006"><a xlink:title=" ">
<path fill="none" stroke="#63b8ff" d="M284.81,-109.75C284.68,-102.8 284.49,-92.85 284.32,-84.13"/>
<polygon fill="#63b8ff" stroke="#63b8ff" points="287.82,-84.02 284.13,-74.09 280.82,-84.15 287.82,-84.02"/>
</a>
</g>
</g>
<!-- Node5&#45;&gt;Node7 -->
<g id="edge9_Node000005_Node000007" class="edge">
<title>Node5&#45;&gt;Node7</title>
<g id="a_edge9_Node000005_Node000007"><a xlink:title=" ">
<path fill="none" stroke="#63b8ff" d="M266.64,-109.88C244.84,-98.38 213.03,-76.92 226.97,-55 239.74,-34.92 264.21,-23.75 285.12,-17.62"/>
<polygon fill="#63b8ff" stroke="#63b8ff" points="286.26,-20.94 295.03,-15 284.47,-14.17 286.26,-20.94"/>
</a>
</g>
</g>
<!-- Node8 -->
<g id="Node000008" class="node">
<title>Node8</title>
<g id="a_Node000008"><a xlink:href="../../da/d16/vector_8hpp.html" target="_top" xlink:title=" ">
<polygon fill="white" stroke="#666666" points="1010.97,-74 912.97,-74 912.97,-55 1010.97,-55 1010.97,-74"/>
<text text-anchor="middle" x="961.97" y="-62" font-family="Helvetica,sans-Serif" font-size="10.00">qugar/vector.hpp</text>
</a>
</g>
</g>
<!-- Node5&#45;&gt;Node8 -->
<g id="edge7_Node000005_Node000008" class="edge">
<title>Node5&#45;&gt;Node8</title>
<g id="a_edge7_Node000005_Node000008"><a xlink:title=" ">
<path fill="none" stroke="#63b8ff" d="M331.82,-114.13C346.87,-112.77 363.62,-111.28 378.97,-110 570.36,-94.04 797.3,-77.37 902.7,-69.75"/>
<polygon fill="#63b8ff" stroke="#63b8ff" points="903.09,-73.23 912.82,-69.02 902.59,-66.25 903.09,-73.23"/>
</a>
</g>
</g>
<!-- Node5&#45;&gt;Node10 -->
<g id="edge10_Node000005_Node000010" class="edge">
<title>Node5&#45;&gt;Node10</title>
<g id="a_edge10_Node000005_Node000010"><a xlink:title=" ">
<path fill="none" stroke="#63b8ff" d="M257.02,-109.98C226.28,-100.62 176.94,-85.59 144.24,-75.63"/>
<polygon fill="#63b8ff" stroke="#63b8ff" points="145.25,-72.28 134.67,-72.72 143.21,-78.98 145.25,-72.28"/>
</a>
</g>
</g>
<!-- Node6&#45;&gt;Node7 -->
<g id="edge6_Node000006_Node000007" class="edge">
<title>Node6&#45;&gt;Node7</title>
<g id="a_edge6_Node000006_Node000007"><a xlink:title=" ">
<path fill="none" stroke="#63b8ff" d="M290.25,-54.75C295.56,-47.34 303.33,-36.5 309.85,-27.41"/>
<polygon fill="#63b8ff" stroke="#63b8ff" points="312.83,-29.26 315.81,-19.09 307.14,-25.18 312.83,-29.26"/>
</a>
</g>
</g>
<!-- Node9 -->
<g id="Node000009" class="node">
<title>Node9</title>
<g id="a_Node000009"><a xlink:title=" ">
<polygon fill="#e0e0e0" stroke="#999999" points="1016.97,-19 906.97,-19 906.97,0 1016.97,0 1016.97,-19"/>
<text text-anchor="middle" x="961.97" y="-7" font-family="Helvetica,sans-Serif" font-size="10.00">algoim/uvector.hpp</text>
</a>
</g>
</g>
<!-- Node8&#45;&gt;Node9 -->
<g id="edge8_Node000008_Node000009" class="edge">
<title>Node8&#45;&gt;Node9</title>
<g id="a_edge8_Node000008_Node000009"><a xlink:title=" ">
<path fill="none" stroke="#63b8ff" d="M961.97,-54.75C961.97,-47.8 961.97,-37.85 961.97,-29.13"/>
<polygon fill="#63b8ff" stroke="#63b8ff" points="965.47,-29.09 961.97,-19.09 958.47,-29.09 965.47,-29.09"/>
</a>
</g>
</g>
<!-- Node13&#45;&gt;Node7 -->
<g id="edge21_Node000013_Node000007" class="edge">
<title>Node13&#45;&gt;Node7</title>
<g id="a_edge21_Node000013_Node000007"><a xlink:title=" ">
<path fill="none" stroke="#63b8ff" d="M878.92,-164.96C864.44,-149.05 838.63,-123.58 810.97,-110 654.9,-33.41 443.05,-15.75 358.76,-11.7"/>
<polygon fill="#63b8ff" stroke="#63b8ff" points="358.8,-8.2 348.66,-11.25 358.49,-15.19 358.8,-8.2"/>
</a>
</g>
</g>
<!-- Node13&#45;&gt;Node8 -->
<g id="edge18_Node000013_Node000008" class="edge">
<title>Node13&#45;&gt;Node8</title>
<g id="a_edge18_Node000013_Node000008"><a xlink:title=" ">
<path fill="none" stroke="#63b8ff" d="M946.11,-166.5C965.95,-159.06 986.3,-147.34 997.97,-129 1008.1,-113.09 994.29,-94.22 980.95,-81.21"/>
<polygon fill="#63b8ff" stroke="#63b8ff" points="983.09,-78.43 973.34,-74.29 978.38,-83.61 983.09,-78.43"/>
</a>
</g>
</g>
<!-- Node13&#45;&gt;Node12 -->
<g id="edge19_Node000013_Node000012" class="edge">
<title>Node13&#45;&gt;Node12</title>
<g id="a_edge19_Node000013_Node000012"><a xlink:title=" ">
<path fill="none" stroke="#63b8ff" d="M864.63,-164.99C846.93,-155.58 823.74,-143.24 806.27,-133.95"/>
<polygon fill="#63b8ff" stroke="#63b8ff" points="807.69,-130.74 797.22,-129.14 804.4,-136.92 807.69,-130.74"/>
</a>
</g>
</g>
<!-- Node14 -->
<g id="Node000014" class="node">
<title>Node14</title>
<g id="a_Node000014"><a xlink:title=" ">
<polygon fill="#e0e0e0" stroke="#999999" points="901.97,-129 857.97,-129 857.97,-110 901.97,-110 901.97,-129"/>
<text text-anchor="middle" x="879.97" y="-117" font-family="Helvetica,sans-Serif" font-size="10.00">limits</text>
</a>
</g>
</g>
<!-- Node13&#45;&gt;Node14 -->
<g id="edge17_Node000013_Node000014" class="edge">
<title>Node13&#45;&gt;Node14</title>
<g id="a_edge17_Node000013_Node000014"><a xlink:title=" ">
<path fill="none" stroke="#63b8ff" d="M888.31,-164.84C886.86,-157.13 885.05,-147.49 883.48,-139.17"/>
<polygon fill="#63b8ff" stroke="#63b8ff" points="886.91,-138.45 881.62,-129.27 880.03,-139.74 886.91,-138.45"/>
</a>
</g>
</g>
<!-- Node13&#45;&gt;Node15 -->
<g id="edge20_Node000013_Node000015" class="edge">
<title>Node13&#45;&gt;Node15</title>
<g id="a_edge20_Node000013_Node000015"><a xlink:title=" ">
<path fill="none" stroke="#63b8ff" d="M945.98,-166.29C986.94,-156.79 1044.51,-143.37 1103.71,-129.29"/>
<polygon fill="#63b8ff" stroke="#63b8ff" points="1104.69,-132.65 1113.61,-126.93 1103.07,-125.84 1104.69,-132.65"/>
</a>
</g>
</g>
<!-- Node13&#45;&gt;Node16 -->
<g id="edge22_Node000013_Node000016" class="edge">
<title>Node13&#45;&gt;Node16</title>
<g id="a_edge22_Node000013_Node000016"><a xlink:title=" ">
<path fill="none" stroke="#63b8ff" d="M934.09,-164.99C965.35,-154.83 1007.08,-141.27 1036.21,-131.8"/>
<polygon fill="#63b8ff" stroke="#63b8ff" points="1037.53,-135.05 1045.96,-128.63 1035.36,-128.39 1037.53,-135.05"/>
</a>
</g>
</g>
<!-- Node13&#45;&gt;Node17 -->
<g id="edge23_Node000013_Node000017" class="edge">
<title>Node13&#45;&gt;Node17</title>
<g id="a_edge23_Node000013_Node000017"><a xlink:title=" ">
<path fill="none" stroke="#63b8ff" d="M946.02,-169.73C1001.17,-160.36 1088.73,-145.21 1174.52,-129.04"/>
<polygon fill="#63b8ff" stroke="#63b8ff" points="1175.25,-132.47 1184.43,-127.17 1173.95,-125.59 1175.25,-132.47"/>
</a>
</g>
</g>
<!-- Node18 -->
<g id="Node000018" class="node">
<title>Node18</title>
<g id="a_Node000018"><a xlink:title=" ">
<polygon fill="#e0e0e0" stroke="#999999" points="989.47,-129 920.47,-129 920.47,-110 989.47,-110 989.47,-129"/>
<text text-anchor="middle" x="954.97" y="-117" font-family="Helvetica,sans-Serif" font-size="10.00">type_traits</text>
</a>
</g>
</g>
<!-- Node13&#45;&gt;Node18 -->
<g id="edge24_Node000013_Node000018" class="edge">
<title>Node13&#45;&gt;Node18</title>
<g id="a_edge24_Node000013_Node000018"><a xlink:title=" ">
<path fill="none" stroke="#63b8ff" d="M906.47,-164.84C915.95,-156.17 928.09,-145.08 937.85,-136.15"/>
<polygon fill="#63b8ff" stroke="#63b8ff" points="940.36,-138.6 945.38,-129.27 935.64,-133.43 940.36,-138.6"/>
</a>
</g>
</g>
<!-- Node19&#45;&gt;Node5 -->
<g id="edge26_Node000019_Node000005" class="edge">
<title>Node19&#45;&gt;Node5</title>
<g id="a_edge26_Node000019_Node000005"><a xlink:title=" ">
<path fill="none" stroke="#63b8ff" d="M221.04,-170.37C232.78,-161.21 251.56,-146.56 265.73,-135.51"/>
<polygon fill="#63b8ff" stroke="#63b8ff" points="268.13,-138.08 273.86,-129.17 263.82,-132.56 268.13,-138.08"/>
</a>
</g>
</g>
<!-- Node19&#45;&gt;Node6 -->
<g id="edge27_Node000019_Node000006" class="edge">
<title>Node19&#45;&gt;Node6</title>
<g id="a_edge27_Node000019_Node000006"><a xlink:title=" ">
<path fill="none" stroke="#63b8ff" d="M210.66,-170.24C212.11,-156.41 216.45,-129.13 228.97,-110 236.94,-97.84 249.29,-87.41 260.28,-79.71"/>
<polygon fill="#63b8ff" stroke="#63b8ff" points="262.28,-82.58 268.68,-74.14 258.41,-76.75 262.28,-82.58"/>
</a>
</g>
</g>
<!-- Node19&#45;&gt;Node10 -->
<g id="edge29_Node000019_Node000010" class="edge">
<title>Node19&#45;&gt;Node10</title>
<g id="a_edge29_Node000019_Node000010"><a xlink:title=" ">
<path fill="none" stroke="#63b8ff" d="M202.95,-170.4C192.17,-157.23 170.79,-131.38 151.97,-110 143.56,-100.44 133.92,-89.95 126.1,-81.56"/>
<polygon fill="#63b8ff" stroke="#63b8ff" points="128.65,-79.17 119.26,-74.26 123.54,-83.95 128.65,-79.17"/>
</a>
</g>
</g>
<!-- Node20 -->
<g id="Node000020" class="node">
<title>Node20</title>
<g id="a_Node000020"><a xlink:title=" ">
<polygon fill="#e0e0e0" stroke="#999999" points="143.47,-129 94.47,-129 94.47,-110 143.47,-110 143.47,-129"/>
<text text-anchor="middle" x="118.97" y="-117" font-family="Helvetica,sans-Serif" font-size="10.00">cstdlib</text>
</a>
</g>
</g>
<!-- Node19&#45;&gt;Node20 -->
<g id="edge28_Node000019_Node000020" class="edge">
<title>Node19&#45;&gt;Node20</title>
<g id="a_edge28_Node000019_Node000020"><a xlink:title=" ">
<path fill="none" stroke="#63b8ff" d="M196.55,-170.37C181.89,-160.95 158.22,-145.73 140.87,-134.58"/>
<polygon fill="#63b8ff" stroke="#63b8ff" points="142.76,-131.63 132.46,-129.17 138.97,-137.52 142.76,-131.63"/>
</a>
</g>
</g>
</g>
</svg>
