<?xml version="1.0" encoding="UTF-8" standalone="no"?>
<!DOCTYPE svg PUBLIC "-//W3C//DTD SVG 1.1//EN"
 "http://www.w3.org/Graphics/SVG/1.1/DTD/svg11.dtd">
<!-- Generated by graphviz version 2.43.0 (0)
 -->
<!-- Title: /__w/qugar/qugar/cpp/include/qugar/impl_quadrature.hpp Pages: 1 -->
<svg width="1769pt" height="511pt"
 viewBox="0.00 0.00 1768.71 511.00" xmlns="http://www.w3.org/2000/svg" xmlns:xlink="http://www.w3.org/1999/xlink">
<g id="graph0" class="graph" transform="scale(1 1) rotate(0) translate(4 507)">
<title>/__w/qugar/qugar/cpp/include/qugar/impl_quadrature.hpp</title>
<!-- Node1 -->
<g id="Node000001" class="node">
<title>Node1</title>
<g id="a_Node000001"><a xlink:title="Declaration of quadratures for general implicit functions on grids.">
<polygon fill="#999999" stroke="#666666" points="688,-503 498,-503 498,-473 688,-473 688,-503"/>
<text text-anchor="start" x="506" y="-491" font-family="Helvetica,sans-Serif" font-size="10.00">/__w/qugar/qugar/cpp</text>
<text text-anchor="middle" x="593" y="-480" font-family="Helvetica,sans-Serif" font-size="10.00">/include/qugar/impl_quadrature.hpp</text>
</a>
</g>
</g>
<!-- Node2 -->
<g id="Node000002" class="node">
<title>Node2</title>
<g id="a_Node000002"><a xlink:href="../../d6/d49/cart__grid__tp_8hpp.html" target="_top" xlink:title="Definition of Cartesian grid class.">
<polygon fill="white" stroke="#666666" points="861,-250 735,-250 735,-231 861,-231 861,-250"/>
<text text-anchor="middle" x="798" y="-238" font-family="Helvetica,sans-Serif" font-size="10.00">qugar/cart_grid_tp.hpp</text>
</a>
</g>
</g>
<!-- Node1&#45;&gt;Node2 -->
<g id="edge1_Node000001_Node000002" class="edge">
<title>Node1&#45;&gt;Node2</title>
<g id="a_edge1_Node000001_Node000002"><a xlink:title=" ">
<path fill="none" stroke="#63b8ff" d="M599.04,-472.97C614.74,-437.81 659.9,-344.52 721,-286 734.67,-272.91 752.9,-262.15 768.19,-254.5"/>
<polygon fill="#63b8ff" stroke="#63b8ff" points="769.76,-257.62 777.26,-250.14 766.73,-251.31 769.76,-257.62"/>
</a>
</g>
</g>
<!-- Node10 -->
<g id="Node000010" class="node">
<title>Node10</title>
<g id="a_Node000010"><a xlink:title=" ">
<polygon fill="#e0e0e0" stroke="#999999" points="906.5,-74 859.5,-74 859.5,-55 906.5,-55 906.5,-74"/>
<text text-anchor="middle" x="883" y="-62" font-family="Helvetica,sans-Serif" font-size="10.00">vector</text>
</a>
</g>
</g>
<!-- Node1&#45;&gt;Node10 -->
<g id="edge84_Node000001_Node000010" class="edge">
<title>Node1&#45;&gt;Node10</title>
<g id="a_edge84_Node000001_Node000010"><a xlink:title=" ">
<path fill="none" stroke="#63b8ff" d="M688.35,-484.6C913.69,-477.64 1472.64,-452.44 1639,-371 1672.08,-354.8 1685.2,-349.28 1701,-316 1740.37,-233.07 1759.7,-164.73 1686,-110 1623.53,-63.61 1060.96,-64.27 916.63,-65.21"/>
<polygon fill="#63b8ff" stroke="#63b8ff" points="916.57,-61.71 906.59,-65.28 916.62,-68.71 916.57,-61.71"/>
</a>
</g>
</g>
<!-- Node21 -->
<g id="Node000021" class="node">
<title>Node21</title>
<g id="a_Node000021"><a xlink:title=" ">
<polygon fill="#e0e0e0" stroke="#999999" points="457,-189.5 399,-189.5 399,-170.5 457,-170.5 457,-189.5"/>
<text text-anchor="middle" x="428" y="-177.5" font-family="Helvetica,sans-Serif" font-size="10.00">memory</text>
</a>
</g>
</g>
<!-- Node1&#45;&gt;Node21 -->
<g id="edge83_Node000001_Node000021" class="edge">
<title>Node1&#45;&gt;Node21</title>
<g id="a_edge83_Node000001_Node000021"><a xlink:title=" ">
<path fill="none" stroke="#63b8ff" d="M585.26,-472.65C558.09,-422.26 467.08,-253.48 437.43,-198.48"/>
<polygon fill="#63b8ff" stroke="#63b8ff" points="440.46,-196.73 432.63,-189.59 434.3,-200.06 440.46,-196.73"/>
</a>
</g>
</g>
<!-- Node23 -->
<g id="Node000023" class="node">
<title>Node23</title>
<g id="a_Node000023"><a xlink:href="../../d1/daf/cut__quadrature_8hpp.html" target="_top" xlink:title="Definition of cut quadrature for unfitted domains.">
<polygon fill="white" stroke="#666666" points="455,-431.5 313,-431.5 313,-412.5 455,-412.5 455,-431.5"/>
<text text-anchor="middle" x="384" y="-419.5" font-family="Helvetica,sans-Serif" font-size="10.00">qugar/cut_quadrature.hpp</text>
</a>
</g>
</g>
<!-- Node1&#45;&gt;Node23 -->
<g id="edge37_Node000001_Node000023" class="edge">
<title>Node1&#45;&gt;Node23</title>
<g id="a_edge37_Node000001_Node000023"><a xlink:title=" ">
<path fill="none" stroke="#63b8ff" d="M547.13,-472.95C509.51,-461.43 456.9,-445.32 421.7,-434.54"/>
<polygon fill="#63b8ff" stroke="#63b8ff" points="422.4,-431.1 411.81,-431.52 420.35,-437.79 422.4,-431.1"/>
</a>
</g>
</g>
<!-- Node27 -->
<g id="Node000027" class="node">
<title>Node27</title>
<g id="a_Node000027"><a xlink:href="../../dc/d7c/domain__function_8hpp.html" target="_top" xlink:title="Declaration of a few implicit functions template class ready to be consumed by Algoim.">
<polygon fill="white" stroke="#666666" points="267,-189.5 117,-189.5 117,-170.5 267,-170.5 267,-189.5"/>
<text text-anchor="middle" x="192" y="-177.5" font-family="Helvetica,sans-Serif" font-size="10.00">qugar/domain_function.hpp</text>
</a>
</g>
</g>
<!-- Node1&#45;&gt;Node27 -->
<g id="edge63_Node000001_Node000027" class="edge">
<title>Node1&#45;&gt;Node27</title>
<g id="a_edge63_Node000001_Node000027"><a xlink:title=" ">
<path fill="none" stroke="#63b8ff" d="M497.93,-480.22C425.61,-473.33 333.65,-460.25 304,-437 225.53,-375.49 200.87,-247.74 194.19,-199.76"/>
<polygon fill="#63b8ff" stroke="#63b8ff" points="197.66,-199.3 192.92,-189.83 190.72,-200.2 197.66,-199.3"/>
</a>
</g>
</g>
<!-- Node29 -->
<g id="Node000029" class="node">
<title>Node29</title>
<g id="a_Node000029"><a xlink:href="../../d6/d03/impl__unfitted__domain_8hpp.html" target="_top" xlink:title="Declaration of of UnfittedImplDomain class.">
<polygon fill="white" stroke="#666666" points="1277,-437 1165,-437 1165,-407 1277,-407 1277,-437"/>
<text text-anchor="start" x="1173" y="-425" font-family="Helvetica,sans-Serif" font-size="10.00">qugar/impl_unfitted</text>
<text text-anchor="middle" x="1221" y="-414" font-family="Helvetica,sans-Serif" font-size="10.00">_domain.hpp</text>
</a>
</g>
</g>
<!-- Node1&#45;&gt;Node29 -->
<g id="edge70_Node000001_Node000029" class="edge">
<title>Node1&#45;&gt;Node29</title>
<g id="a_edge70_Node000001_Node000029"><a xlink:title=" ">
<path fill="none" stroke="#63b8ff" d="M688.04,-477.31C816.72,-464.2 1043.1,-441.13 1154.82,-429.74"/>
<polygon fill="#63b8ff" stroke="#63b8ff" points="1155.35,-433.21 1164.94,-428.71 1154.64,-426.25 1155.35,-433.21"/>
</a>
</g>
</g>
<!-- Node3 -->
<g id="Node000003" class="node">
<title>Node3</title>
<g id="a_Node000003"><a xlink:href="../../d5/d90/bbox_8hpp.html" target="_top" xlink:title="Definition of Cartesian bounding box class.">
<polygon fill="white" stroke="#666666" points="1471,-189.5 1379,-189.5 1379,-170.5 1471,-170.5 1471,-189.5"/>
<text text-anchor="middle" x="1425" y="-177.5" font-family="Helvetica,sans-Serif" font-size="10.00">qugar/bbox.hpp</text>
</a>
</g>
</g>
<!-- Node2&#45;&gt;Node3 -->
<g id="edge2_Node000002_Node000003" class="edge">
<title>Node2&#45;&gt;Node3</title>
<g id="a_edge2_Node000002_Node000003"><a xlink:title=" ">
<path fill="none" stroke="#63b8ff" d="M861.28,-233.6C983.82,-222.16 1251.72,-197.17 1368.59,-186.26"/>
<polygon fill="#63b8ff" stroke="#63b8ff" points="1369.12,-189.73 1378.75,-185.32 1368.47,-182.76 1369.12,-189.73"/>
</a>
</g>
</g>
<!-- Node5 -->
<g id="Node000005" class="node">
<title>Node5</title>
<g id="a_Node000005"><a xlink:href="../../d0/de4/point_8hpp.html" target="_top" xlink:title="Definition and implementation of Point class.">
<polygon fill="white" stroke="#666666" points="635.5,-129 542.5,-129 542.5,-110 635.5,-110 635.5,-129"/>
<text text-anchor="middle" x="589" y="-117" font-family="Helvetica,sans-Serif" font-size="10.00">qugar/point.hpp</text>
</a>
</g>
</g>
<!-- Node2&#45;&gt;Node5 -->
<g id="edge15_Node000002_Node000005" class="edge">
<title>Node2&#45;&gt;Node5</title>
<g id="a_edge15_Node000002_Node000005"><a xlink:title=" ">
<path fill="none" stroke="#63b8ff" d="M739.39,-230.97C694.04,-223.31 636.01,-210.83 618,-195 601.75,-180.72 594.54,-156.21 591.38,-139.23"/>
<polygon fill="#63b8ff" stroke="#63b8ff" points="594.84,-138.67 589.84,-129.33 587.92,-139.75 594.84,-138.67"/>
</a>
</g>
</g>
<!-- Node6 -->
<g id="Node000006" class="node">
<title>Node6</title>
<g id="a_Node000006"><a xlink:href="../../dd/de3/types_8hpp.html" target="_top" xlink:title="Declaration of types.">
<polygon fill="white" stroke="#666666" points="541.5,-74 446.5,-74 446.5,-55 541.5,-55 541.5,-74"/>
<text text-anchor="middle" x="494" y="-62" font-family="Helvetica,sans-Serif" font-size="10.00">qugar/types.hpp</text>
</a>
</g>
</g>
<!-- Node2&#45;&gt;Node6 -->
<g id="edge30_Node000002_Node000006" class="edge">
<title>Node2&#45;&gt;Node6</title>
<g id="a_edge30_Node000002_Node000006"><a xlink:title=" ">
<path fill="none" stroke="#63b8ff" d="M740,-230.94C698.77,-223.86 642.51,-212.16 595,-195 567.7,-185.14 564.01,-175.62 537,-165 481.61,-143.21 443.99,-176.41 408,-129 390.99,-106.59 424.28,-88.45 454.27,-77.39"/>
<polygon fill="#63b8ff" stroke="#63b8ff" points="455.53,-80.65 463.82,-74.05 453.22,-74.05 455.53,-80.65"/>
</a>
</g>
</g>
<!-- Node7 -->
<g id="Node000007" class="node">
<title>Node7</title>
<g id="a_Node000007"><a xlink:title=" ">
<polygon fill="#e0e0e0" stroke="#999999" points="795.5,-19 742.5,-19 742.5,0 795.5,0 795.5,-19"/>
<text text-anchor="middle" x="769" y="-7" font-family="Helvetica,sans-Serif" font-size="10.00">cstddef</text>
</a>
</g>
</g>
<!-- Node2&#45;&gt;Node7 -->
<g id="edge32_Node000002_Node000007" class="edge">
<title>Node2&#45;&gt;Node7</title>
<g id="a_edge32_Node000002_Node000007"><a xlink:title=" ">
<path fill="none" stroke="#63b8ff" d="M796.9,-230.8C792.65,-197.29 777.31,-76.08 771.37,-29.2"/>
<polygon fill="#63b8ff" stroke="#63b8ff" points="774.83,-28.69 770.1,-19.21 767.89,-29.57 774.83,-28.69"/>
</a>
</g>
</g>
<!-- Node2&#45;&gt;Node10 -->
<g id="edge36_Node000002_Node000010" class="edge">
<title>Node2&#45;&gt;Node10</title>
<g id="a_edge36_Node000002_Node000010"><a xlink:title=" ">
<path fill="none" stroke="#63b8ff" d="M802.66,-230.68C807.37,-221.73 814.8,-207.46 821,-195 840.73,-155.36 862.93,-108.38 874.67,-83.34"/>
<polygon fill="#63b8ff" stroke="#63b8ff" points="877.96,-84.57 879.03,-74.03 871.62,-81.6 877.96,-84.57"/>
</a>
</g>
</g>
<!-- Node12 -->
<g id="Node000012" class="node">
<title>Node12</title>
<g id="a_Node000012"><a xlink:title=" ">
<polygon fill="#e0e0e0" stroke="#999999" points="1175,-129 1133,-129 1133,-110 1175,-110 1175,-129"/>
<text text-anchor="middle" x="1154" y="-117" font-family="Helvetica,sans-Serif" font-size="10.00">array</text>
</a>
</g>
</g>
<!-- Node2&#45;&gt;Node12 -->
<g id="edge31_Node000002_Node000012" class="edge">
<title>Node2&#45;&gt;Node12</title>
<g id="a_edge31_Node000002_Node000012"><a xlink:title=" ">
<path fill="none" stroke="#63b8ff" d="M861.19,-233.45C908.79,-227.46 975.03,-216.02 1030,-195 1069.73,-179.81 1111.16,-152.11 1134.66,-135.1"/>
<polygon fill="#63b8ff" stroke="#63b8ff" points="1136.76,-137.9 1142.74,-129.16 1132.61,-132.26 1136.76,-137.9"/>
</a>
</g>
</g>
<!-- Node13 -->
<g id="Node000013" class="node">
<title>Node13</title>
<g id="a_Node000013"><a xlink:href="../../d9/d43/tensor__index__tp_8hpp.html" target="_top" xlink:title="Declaration of tensor&#45;product index and size related classes.">
<polygon fill="white" stroke="#666666" points="1021,-195 911,-195 911,-165 1021,-165 1021,-195"/>
<text text-anchor="start" x="919" y="-183" font-family="Helvetica,sans-Serif" font-size="10.00">qugar/tensor_index</text>
<text text-anchor="middle" x="966" y="-172" font-family="Helvetica,sans-Serif" font-size="10.00">_tp.hpp</text>
</a>
</g>
</g>
<!-- Node2&#45;&gt;Node13 -->
<g id="edge16_Node000002_Node000013" class="edge">
<title>Node2&#45;&gt;Node13</title>
<g id="a_edge16_Node000002_Node000013"><a xlink:title=" ">
<path fill="none" stroke="#63b8ff" d="M822.43,-230.99C846.82,-222.5 885.01,-209.2 915.87,-198.45"/>
<polygon fill="#63b8ff" stroke="#63b8ff" points="917.32,-201.66 925.61,-195.06 915.02,-195.05 917.32,-201.66"/>
</a>
</g>
</g>
<!-- Node16 -->
<g id="Node000016" class="node">
<title>Node16</title>
<g id="a_Node000016"><a xlink:title=" ">
<polygon fill="#e0e0e0" stroke="#999999" points="360,-129 310,-129 310,-110 360,-110 360,-129"/>
<text text-anchor="middle" x="335" y="-117" font-family="Helvetica,sans-Serif" font-size="10.00">cstdint</text>
</a>
</g>
</g>
<!-- Node2&#45;&gt;Node16 -->
<g id="edge33_Node000002_Node000016" class="edge">
<title>Node2&#45;&gt;Node16</title>
<g id="a_edge33_Node000002_Node000016"><a xlink:title=" ">
<path fill="none" stroke="#63b8ff" d="M734.86,-231.11C672.09,-222.27 580.46,-207.86 547,-195 523.52,-185.97 522.05,-175.07 499,-165 475.95,-154.93 410.82,-138.53 369.91,-128.7"/>
<polygon fill="#63b8ff" stroke="#63b8ff" points="370.62,-125.27 360.08,-126.35 368.99,-132.08 370.62,-125.27"/>
</a>
</g>
</g>
<!-- Node19 -->
<g id="Node000019" class="node">
<title>Node19</title>
<g id="a_Node000019"><a xlink:href="../../d0/d55/tolerance_8hpp.html" target="_top" xlink:title="Definition of tolerance related functionalities.">
<polygon fill="white" stroke="#666666" points="741,-189.5 627,-189.5 627,-170.5 741,-170.5 741,-189.5"/>
<text text-anchor="middle" x="684" y="-177.5" font-family="Helvetica,sans-Serif" font-size="10.00">qugar/tolerance.hpp</text>
</a>
</g>
</g>
<!-- Node2&#45;&gt;Node19 -->
<g id="edge25_Node000002_Node000019" class="edge">
<title>Node2&#45;&gt;Node19</title>
<g id="a_edge25_Node000002_Node000019"><a xlink:title=" ">
<path fill="none" stroke="#63b8ff" d="M781.18,-230.87C762.4,-221.23 731.8,-205.53 709.95,-194.31"/>
<polygon fill="#63b8ff" stroke="#63b8ff" points="711.39,-191.12 700.89,-189.67 708.19,-197.35 711.39,-191.12"/>
</a>
</g>
</g>
<!-- Node2&#45;&gt;Node21 -->
<g id="edge34_Node000002_Node000021" class="edge">
<title>Node2&#45;&gt;Node21</title>
<g id="a_edge34_Node000002_Node000021"><a xlink:title=" ">
<path fill="none" stroke="#63b8ff" d="M740.65,-230.99C682.3,-222.25 589.29,-208.12 509,-195 495.44,-192.78 480.63,-190.26 467.42,-187.96"/>
<polygon fill="#63b8ff" stroke="#63b8ff" points="467.67,-184.45 457.22,-186.18 466.47,-191.35 467.67,-184.45"/>
</a>
</g>
</g>
<!-- Node22 -->
<g id="Node000022" class="node">
<title>Node22</title>
<g id="a_Node000022"><a xlink:title=" ">
<polygon fill="#e0e0e0" stroke="#999999" points="1171,-189.5 1115,-189.5 1115,-170.5 1171,-170.5 1171,-189.5"/>
<text text-anchor="middle" x="1143" y="-177.5" font-family="Helvetica,sans-Serif" font-size="10.00">optional</text>
</a>
</g>
</g>
<!-- Node2&#45;&gt;Node22 -->
<g id="edge35_Node000002_Node000022" class="edge">
<title>Node2&#45;&gt;Node22</title>
<g id="a_edge35_Node000002_Node000022"><a xlink:title=" ">
<path fill="none" stroke="#63b8ff" d="M861.29,-233.48C923.01,-226.85 1019.28,-214.46 1101,-195 1103.97,-194.29 1107.03,-193.47 1110.08,-192.58"/>
<polygon fill="#63b8ff" stroke="#63b8ff" points="1111.16,-195.91 1119.66,-189.59 1109.08,-189.23 1111.16,-195.91"/>
</a>
</g>
</g>
<!-- Node4 -->
<g id="Node000004" class="node">
<title>Node4</title>
<g id="a_Node000004"><a xlink:href="../../d7/dd8/concepts_8hpp.html" target="_top" xlink:title="Declaration of concepts.">
<polygon fill="white" stroke="#666666" points="1343,-129 1231,-129 1231,-110 1343,-110 1343,-129"/>
<text text-anchor="middle" x="1287" y="-117" font-family="Helvetica,sans-Serif" font-size="10.00">qugar/concepts.hpp</text>
</a>
</g>
</g>
<!-- Node3&#45;&gt;Node4 -->
<g id="edge3_Node000003_Node000004" class="edge">
<title>Node3&#45;&gt;Node4</title>
<g id="a_edge3_Node000003_Node000004"><a xlink:title=" ">
<path fill="none" stroke="#63b8ff" d="M1404.93,-170.49C1381.63,-160.62 1342.99,-144.23 1316.32,-132.93"/>
<polygon fill="#63b8ff" stroke="#63b8ff" points="1317.66,-129.7 1307.09,-129.02 1314.93,-136.14 1317.66,-129.7"/>
</a>
</g>
</g>
<!-- Node3&#45;&gt;Node5 -->
<g id="edge4_Node000003_Node000005" class="edge">
<title>Node3&#45;&gt;Node5</title>
<g id="a_edge4_Node000003_Node000005"><a xlink:title=" ">
<path fill="none" stroke="#63b8ff" d="M1378.89,-176.28C1227.97,-167.34 752.87,-138.94 645.9,-128.92"/>
<polygon fill="#63b8ff" stroke="#63b8ff" points="646.01,-125.41 635.71,-127.9 645.31,-132.38 646.01,-125.41"/>
</a>
</g>
</g>
<!-- Node3&#45;&gt;Node6 -->
<g id="edge11_Node000003_Node000006" class="edge">
<title>Node3&#45;&gt;Node6</title>
<g id="a_edge11_Node000003_Node000006"><a xlink:title=" ">
<path fill="none" stroke="#63b8ff" d="M1388.25,-170.42C1334.09,-157.69 1237.54,-134.72 1222,-129 1204.28,-122.48 1202.25,-114.86 1184,-110 914.89,-38.35 833.22,-101.3 551.65,-73.93"/>
<polygon fill="#63b8ff" stroke="#63b8ff" points="551.84,-70.44 541.54,-72.92 551.15,-77.4 551.84,-70.44"/>
</a>
</g>
</g>
<!-- Node3&#45;&gt;Node7 -->
<g id="edge14_Node000003_Node000007" class="edge">
<title>Node3&#45;&gt;Node7</title>
<g id="a_edge14_Node000003_Node000007"><a xlink:title=" ">
<path fill="none" stroke="#63b8ff" d="M1454.3,-170.5C1489.51,-158.86 1541.12,-136.39 1518,-110 1470.41,-55.67 950.35,-21.18 805.98,-12.6"/>
<polygon fill="#63b8ff" stroke="#63b8ff" points="806.05,-9.1 795.86,-12.01 805.64,-16.09 806.05,-9.1"/>
</a>
</g>
</g>
<!-- Node11 -->
<g id="Node000011" class="node">
<title>Node11</title>
<g id="a_Node000011"><a xlink:title=" ">
<polygon fill="#e0e0e0" stroke="#999999" points="1509,-129 1361,-129 1361,-110 1509,-110 1509,-129"/>
<text text-anchor="middle" x="1435" y="-117" font-family="Helvetica,sans-Serif" font-size="10.00">algoim/hyperrectangle.hpp</text>
</a>
</g>
</g>
<!-- Node3&#45;&gt;Node11 -->
<g id="edge12_Node000003_Node000011" class="edge">
<title>Node3&#45;&gt;Node11</title>
<g id="a_edge12_Node000003_Node000011"><a xlink:title=" ">
<path fill="none" stroke="#63b8ff" d="M1426.48,-170.37C1427.88,-162.16 1430.04,-149.54 1431.83,-139.05"/>
<polygon fill="#63b8ff" stroke="#63b8ff" points="1435.28,-139.61 1433.52,-129.17 1428.38,-138.43 1435.28,-139.61"/>
</a>
</g>
</g>
<!-- Node3&#45;&gt;Node12 -->
<g id="edge13_Node000003_Node000012" class="edge">
<title>Node3&#45;&gt;Node12</title>
<g id="a_edge13_Node000003_Node000012"><a xlink:title=" ">
<path fill="none" stroke="#63b8ff" d="M1389.18,-170.47C1381.23,-168.63 1372.84,-166.72 1365,-165 1287,-147.93 1266.92,-146.42 1189,-129 1187.73,-128.72 1186.44,-128.42 1185.13,-128.12"/>
<polygon fill="#63b8ff" stroke="#63b8ff" points="1185.61,-124.64 1175.07,-125.75 1184,-131.45 1185.61,-124.64"/>
</a>
</g>
</g>
<!-- Node5&#45;&gt;Node6 -->
<g id="edge5_Node000005_Node000006" class="edge">
<title>Node5&#45;&gt;Node6</title>
<g id="a_edge5_Node000005_Node000006"><a xlink:title=" ">
<path fill="none" stroke="#63b8ff" d="M573.74,-109.98C558.87,-101.69 536.02,-88.94 518.58,-79.22"/>
<polygon fill="#63b8ff" stroke="#63b8ff" points="519.98,-75.99 509.54,-74.17 516.57,-82.1 519.98,-75.99"/>
</a>
</g>
</g>
<!-- Node5&#45;&gt;Node7 -->
<g id="edge9_Node000005_Node000007" class="edge">
<title>Node5&#45;&gt;Node7</title>
<g id="a_edge9_Node000005_Node000007"><a xlink:title=" ">
<path fill="none" stroke="#63b8ff" d="M604.35,-109.97C620.15,-101.14 645.44,-86.85 667,-74 694.81,-57.42 726.4,-37.6 746.96,-24.56"/>
<polygon fill="#63b8ff" stroke="#63b8ff" points="749.01,-27.41 755.57,-19.09 745.25,-21.5 749.01,-27.41"/>
</a>
</g>
</g>
<!-- Node8 -->
<g id="Node000008" class="node">
<title>Node8</title>
<g id="a_Node000008"><a xlink:href="../../da/d16/vector_8hpp.html" target="_top" xlink:title=" ">
<polygon fill="white" stroke="#666666" points="658,-74 560,-74 560,-55 658,-55 658,-74"/>
<text text-anchor="middle" x="609" y="-62" font-family="Helvetica,sans-Serif" font-size="10.00">qugar/vector.hpp</text>
</a>
</g>
</g>
<!-- Node5&#45;&gt;Node8 -->
<g id="edge7_Node000005_Node000008" class="edge">
<title>Node5&#45;&gt;Node8</title>
<g id="a_edge7_Node000005_Node000008"><a xlink:title=" ">
<path fill="none" stroke="#63b8ff" d="M592.3,-109.75C594.98,-102.65 598.85,-92.4 602.19,-83.56"/>
<polygon fill="#63b8ff" stroke="#63b8ff" points="605.5,-84.68 605.76,-74.09 598.95,-82.21 605.5,-84.68"/>
</a>
</g>
</g>
<!-- Node5&#45;&gt;Node10 -->
<g id="edge10_Node000005_Node000010" class="edge">
<title>Node5&#45;&gt;Node10</title>
<g id="a_edge10_Node000005_Node000010"><a xlink:title=" ">
<path fill="none" stroke="#63b8ff" d="M635.59,-110.1C695.12,-99.37 796.73,-81.05 849.29,-71.58"/>
<polygon fill="#63b8ff" stroke="#63b8ff" points="850.21,-74.97 859.43,-69.75 848.97,-68.08 850.21,-74.97"/>
</a>
</g>
</g>
<!-- Node6&#45;&gt;Node7 -->
<g id="edge6_Node000006_Node000007" class="edge">
<title>Node6&#45;&gt;Node7</title>
<g id="a_edge6_Node000006_Node000007"><a xlink:title=" ">
<path fill="none" stroke="#63b8ff" d="M538.18,-54.98C592.05,-44.6 682.08,-27.25 732.3,-17.57"/>
<polygon fill="#63b8ff" stroke="#63b8ff" points="733.23,-20.96 742.39,-15.63 731.91,-14.08 733.23,-20.96"/>
</a>
</g>
</g>
<!-- Node9 -->
<g id="Node000009" class="node">
<title>Node9</title>
<g id="a_Node000009"><a xlink:title=" ">
<polygon fill="#e0e0e0" stroke="#999999" points="664,-19 554,-19 554,0 664,0 664,-19"/>
<text text-anchor="middle" x="609" y="-7" font-family="Helvetica,sans-Serif" font-size="10.00">algoim/uvector.hpp</text>
</a>
</g>
</g>
<!-- Node8&#45;&gt;Node9 -->
<g id="edge8_Node000008_Node000009" class="edge">
<title>Node8&#45;&gt;Node9</title>
<g id="a_edge8_Node000008_Node000009"><a xlink:title=" ">
<path fill="none" stroke="#63b8ff" d="M609,-54.75C609,-47.8 609,-37.85 609,-29.13"/>
<polygon fill="#63b8ff" stroke="#63b8ff" points="612.5,-29.09 609,-19.09 605.5,-29.09 612.5,-29.09"/>
</a>
</g>
</g>
<!-- Node13&#45;&gt;Node7 -->
<g id="edge21_Node000013_Node000007" class="edge">
<title>Node13&#45;&gt;Node7</title>
<g id="a_edge21_Node000013_Node000007"><a xlink:title=" ">
<path fill="none" stroke="#63b8ff" d="M982.03,-164.9C995.93,-150.9 1012.32,-128.84 1002,-110 963.4,-39.5 861.2,-18.95 805.85,-12.96"/>
<polygon fill="#63b8ff" stroke="#63b8ff" points="806.06,-9.47 795.77,-11.98 805.38,-16.43 806.06,-9.47"/>
</a>
</g>
</g>
<!-- Node13&#45;&gt;Node8 -->
<g id="edge18_Node000013_Node000008" class="edge">
<title>Node13&#45;&gt;Node8</title>
<g id="a_edge18_Node000013_Node000008"><a xlink:title=" ">
<path fill="none" stroke="#63b8ff" d="M921.87,-164.97C850.71,-142.35 711.94,-98.23 645.79,-77.2"/>
<polygon fill="#63b8ff" stroke="#63b8ff" points="646.78,-73.84 636.19,-74.14 644.66,-80.51 646.78,-73.84"/>
</a>
</g>
</g>
<!-- Node13&#45;&gt;Node12 -->
<g id="edge19_Node000013_Node000012" class="edge">
<title>Node13&#45;&gt;Node12</title>
<g id="a_edge19_Node000013_Node000012"><a xlink:title=" ">
<path fill="none" stroke="#63b8ff" d="M1011.03,-164.99C1045.58,-154.24 1092.37,-139.68 1122.87,-130.19"/>
<polygon fill="#63b8ff" stroke="#63b8ff" points="1124.04,-133.49 1132.54,-127.18 1121.96,-126.81 1124.04,-133.49"/>
</a>
</g>
</g>
<!-- Node14 -->
<g id="Node000014" class="node">
<title>Node14</title>
<g id="a_Node000014"><a xlink:title=" ">
<polygon fill="#e0e0e0" stroke="#999999" points="993,-129 949,-129 949,-110 993,-110 993,-129"/>
<text text-anchor="middle" x="971" y="-117" font-family="Helvetica,sans-Serif" font-size="10.00">limits</text>
</a>
</g>
</g>
<!-- Node13&#45;&gt;Node14 -->
<g id="edge17_Node000013_Node000014" class="edge">
<title>Node13&#45;&gt;Node14</title>
<g id="a_edge17_Node000013_Node000014"><a xlink:title=" ">
<path fill="none" stroke="#63b8ff" d="M967.21,-164.84C967.86,-157.21 968.67,-147.7 969.38,-139.45"/>
<polygon fill="#63b8ff" stroke="#63b8ff" points="972.89,-139.53 970.25,-129.27 965.91,-138.93 972.89,-139.53"/>
</a>
</g>
</g>
<!-- Node15 -->
<g id="Node000015" class="node">
<title>Node15</title>
<g id="a_Node000015"><a xlink:title=" ">
<polygon fill="#e0e0e0" stroke="#999999" points="1655,-129 1603,-129 1603,-110 1655,-110 1655,-129"/>
<text text-anchor="middle" x="1629" y="-117" font-family="Helvetica,sans-Serif" font-size="10.00">cassert</text>
</a>
</g>
</g>
<!-- Node13&#45;&gt;Node15 -->
<g id="edge20_Node000013_Node000015" class="edge">
<title>Node13&#45;&gt;Node15</title>
<g id="a_edge20_Node000013_Node000015"><a xlink:title=" ">
<path fill="none" stroke="#63b8ff" d="M1021.17,-173.29C1046.94,-170.68 1078.03,-167.59 1106,-165 1288.74,-148.09 1507.62,-130.25 1592.7,-123.4"/>
<polygon fill="#63b8ff" stroke="#63b8ff" points="1593.18,-126.88 1602.87,-122.59 1592.62,-119.9 1593.18,-126.88"/>
</a>
</g>
</g>
<!-- Node13&#45;&gt;Node16 -->
<g id="edge22_Node000013_Node000016" class="edge">
<title>Node13&#45;&gt;Node16</title>
<g id="a_edge22_Node000013_Node000016"><a xlink:title=" ">
<path fill="none" stroke="#63b8ff" d="M910.91,-174.55C810.73,-166.35 592.07,-147.96 408,-129 395.73,-127.74 382.32,-126.21 370.37,-124.81"/>
<polygon fill="#63b8ff" stroke="#63b8ff" points="370.66,-121.32 360.32,-123.62 369.84,-128.27 370.66,-121.32"/>
</a>
</g>
</g>
<!-- Node17 -->
<g id="Node000017" class="node">
<title>Node17</title>
<g id="a_Node000017"><a xlink:title=" ">
<polygon fill="#e0e0e0" stroke="#999999" points="1114.5,-129 1049.5,-129 1049.5,-110 1114.5,-110 1114.5,-129"/>
<text text-anchor="middle" x="1082" y="-117" font-family="Helvetica,sans-Serif" font-size="10.00">functional</text>
</a>
</g>
</g>
<!-- Node13&#45;&gt;Node17 -->
<g id="edge23_Node000013_Node000017" class="edge">
<title>Node13&#45;&gt;Node17</title>
<g id="a_edge23_Node000013_Node000017"><a xlink:title=" ">
<path fill="none" stroke="#63b8ff" d="M993.78,-164.99C1012.62,-155.49 1037.35,-143.02 1055.84,-133.69"/>
<polygon fill="#63b8ff" stroke="#63b8ff" points="1057.52,-136.77 1064.87,-129.14 1054.36,-130.52 1057.52,-136.77"/>
</a>
</g>
</g>
<!-- Node18 -->
<g id="Node000018" class="node">
<title>Node18</title>
<g id="a_Node000018"><a xlink:title=" ">
<polygon fill="#e0e0e0" stroke="#999999" points="485.5,-129 416.5,-129 416.5,-110 485.5,-110 485.5,-129"/>
<text text-anchor="middle" x="451" y="-117" font-family="Helvetica,sans-Serif" font-size="10.00">type_traits</text>
</a>
</g>
</g>
<!-- Node13&#45;&gt;Node18 -->
<g id="edge24_Node000013_Node000018" class="edge">
<title>Node13&#45;&gt;Node18</title>
<g id="a_edge24_Node000013_Node000018"><a xlink:title=" ">
<path fill="none" stroke="#63b8ff" d="M910.89,-172.74C808.34,-161.09 590.12,-136.3 495.88,-125.6"/>
<polygon fill="#63b8ff" stroke="#63b8ff" points="496.15,-122.11 485.82,-124.45 495.36,-129.06 496.15,-122.11"/>
</a>
</g>
</g>
<!-- Node19&#45;&gt;Node5 -->
<g id="edge26_Node000019_Node000005" class="edge">
<title>Node19&#45;&gt;Node5</title>
<g id="a_edge26_Node000019_Node000005"><a xlink:title=" ">
<path fill="none" stroke="#63b8ff" d="M669.98,-170.37C654.69,-160.95 629.97,-145.73 611.86,-134.58"/>
<polygon fill="#63b8ff" stroke="#63b8ff" points="613.43,-131.43 603.08,-129.17 609.75,-137.39 613.43,-131.43"/>
</a>
</g>
</g>
<!-- Node19&#45;&gt;Node6 -->
<g id="edge27_Node000019_Node000006" class="edge">
<title>Node19&#45;&gt;Node6</title>
<g id="a_edge27_Node000019_Node000006"><a xlink:title=" ">
<path fill="none" stroke="#63b8ff" d="M630.45,-170.43C599.73,-163.38 561.86,-150.86 534,-129 518.82,-117.09 507.82,-97.72 501.24,-83.5"/>
<polygon fill="#63b8ff" stroke="#63b8ff" points="504.42,-82.02 497.24,-74.23 497.99,-84.8 504.42,-82.02"/>
</a>
</g>
</g>
<!-- Node19&#45;&gt;Node10 -->
<g id="edge29_Node000019_Node000010" class="edge">
<title>Node19&#45;&gt;Node10</title>
<g id="a_edge29_Node000019_Node000010"><a xlink:title=" ">
<path fill="none" stroke="#63b8ff" d="M696.49,-170.49C716.48,-157 757.07,-130.18 793,-110 813.26,-98.62 836.83,-87.02 854.76,-78.52"/>
<polygon fill="#63b8ff" stroke="#63b8ff" points="856.53,-81.56 864.09,-74.14 853.55,-75.23 856.53,-81.56"/>
</a>
</g>
</g>
<!-- Node20 -->
<g id="Node000020" class="node">
<title>Node20</title>
<g id="a_Node000020"><a xlink:title=" ">
<polygon fill="#e0e0e0" stroke="#999999" points="702.5,-129 653.5,-129 653.5,-110 702.5,-110 702.5,-129"/>
<text text-anchor="middle" x="678" y="-117" font-family="Helvetica,sans-Serif" font-size="10.00">cstdlib</text>
</a>
</g>
</g>
<!-- Node19&#45;&gt;Node20 -->
<g id="edge28_Node000019_Node000020" class="edge">
<title>Node19&#45;&gt;Node20</title>
<g id="a_edge28_Node000019_Node000020"><a xlink:title=" ">
<path fill="none" stroke="#63b8ff" d="M683.11,-170.37C682.28,-162.25 681.01,-149.81 679.94,-139.39"/>
<polygon fill="#63b8ff" stroke="#63b8ff" points="683.39,-138.76 678.89,-129.17 676.43,-139.47 683.39,-138.76"/>
</a>
</g>
</g>
<!-- Node23&#45;&gt;Node5 -->
<g id="edge38_Node000023_Node000005" class="edge">
<title>Node23&#45;&gt;Node5</title>
<g id="a_edge38_Node000023_Node000005"><a xlink:title=" ">
<path fill="none" stroke="#63b8ff" d="M380.81,-412.21C368.49,-376.55 327.68,-240.95 390,-165 407.79,-143.32 479.78,-131.43 532.07,-125.52"/>
<polygon fill="#63b8ff" stroke="#63b8ff" points="532.68,-128.97 542.25,-124.41 531.93,-122.01 532.68,-128.97"/>
</a>
</g>
</g>
<!-- Node23&#45;&gt;Node6 -->
<g id="edge39_Node000023_Node000006" class="edge">
<title>Node23&#45;&gt;Node6</title>
<g id="a_edge39_Node000023_Node000006"><a xlink:title=" ">
<path fill="none" stroke="#63b8ff" d="M358.68,-412.45C286.12,-386.25 84.13,-300.49 108,-165 112.51,-139.38 107.64,-126.18 128,-110 174.38,-73.14 345.06,-66.32 436.03,-65.37"/>
<polygon fill="#63b8ff" stroke="#63b8ff" points="436.21,-68.87 446.18,-65.28 436.15,-61.87 436.21,-68.87"/>
</a>
</g>
</g>
<!-- Node23&#45;&gt;Node7 -->
<g id="edge59_Node000023_Node000007" class="edge">
<title>Node23&#45;&gt;Node7</title>
<g id="a_edge59_Node000023_Node000007"><a xlink:title=" ">
<path fill="none" stroke="#63b8ff" d="M312.67,-418.72C201.62,-410.94 0,-378.01 0,-241.5 0,-241.5 0,-241.5 0,-118.5 0,-34.21 517.63,-32.59 673,-19 692.51,-17.29 714.24,-15.37 732.09,-13.79"/>
<polygon fill="#63b8ff" stroke="#63b8ff" points="732.45,-17.27 742.1,-12.9 731.83,-10.3 732.45,-17.27"/>
</a>
</g>
</g>
<!-- Node23&#45;&gt;Node10 -->
<g id="edge62_Node000023_Node000010" class="edge">
<title>Node23&#45;&gt;Node10</title>
<g id="a_edge62_Node000023_Node000010"><a xlink:title=" ">
<path fill="none" stroke="#63b8ff" d="M400.52,-412.49C453.7,-384.76 624.3,-293.09 750,-195 796.8,-158.48 845.1,-107.48 868.52,-81.74"/>
<polygon fill="#63b8ff" stroke="#63b8ff" points="871.37,-83.8 875.47,-74.03 866.17,-79.11 871.37,-83.8"/>
</a>
</g>
</g>
<!-- Node23&#45;&gt;Node16 -->
<g id="edge60_Node000023_Node000016" class="edge">
<title>Node23&#45;&gt;Node16</title>
<g id="a_edge60_Node000023_Node000016"><a xlink:title=" ">
<path fill="none" stroke="#63b8ff" d="M376.76,-412.39C369.15,-402.88 357.42,-386.8 351,-371 318.12,-290 326.95,-182.12 332.3,-139.23"/>
<polygon fill="#63b8ff" stroke="#63b8ff" points="335.8,-139.52 333.66,-129.14 328.86,-138.59 335.8,-139.52"/>
</a>
</g>
</g>
<!-- Node23&#45;&gt;Node21 -->
<g id="edge61_Node000023_Node000021" class="edge">
<title>Node23&#45;&gt;Node21</title>
<g id="a_edge61_Node000023_Node000021"><a xlink:title=" ">
<path fill="none" stroke="#63b8ff" d="M385.57,-412.46C391.89,-377.98 415.61,-248.58 424.56,-199.78"/>
<polygon fill="#63b8ff" stroke="#63b8ff" points="428.05,-200.16 426.41,-189.69 421.16,-198.9 428.05,-200.16"/>
</a>
</g>
</g>
<!-- Node24 -->
<g id="Node000024" class="node">
<title>Node24</title>
<g id="a_Node000024"><a xlink:href="../../d2/dfd/unfitted__domain_8hpp.html" target="_top" xlink:title="Declaration of of UnfittedDomain class.">
<polygon fill="white" stroke="#666666" points="944,-371 796,-371 796,-352 944,-352 944,-371"/>
<text text-anchor="middle" x="870" y="-359" font-family="Helvetica,sans-Serif" font-size="10.00">qugar/unfitted_domain.hpp</text>
</a>
</g>
</g>
<!-- Node23&#45;&gt;Node24 -->
<g id="edge40_Node000023_Node000024" class="edge">
<title>Node23&#45;&gt;Node24</title>
<g id="a_edge40_Node000023_Node000024"><a xlink:title=" ">
<path fill="none" stroke="#63b8ff" d="M454.67,-412.49C543.57,-401.79 695.88,-383.46 789.28,-372.22"/>
<polygon fill="#63b8ff" stroke="#63b8ff" points="789.74,-375.69 799.25,-371.02 788.9,-368.74 789.74,-375.69"/>
</a>
</g>
</g>
<!-- Node24&#45;&gt;Node2 -->
<g id="edge41_Node000024_Node000002" class="edge">
<title>Node24&#45;&gt;Node2</title>
<g id="a_edge41_Node000024_Node000002"><a xlink:title=" ">
<path fill="none" stroke="#63b8ff" d="M866.26,-351.96C859.93,-337.82 846.39,-308.85 832,-286 825.91,-276.33 818.25,-266.17 811.74,-257.99"/>
<polygon fill="#63b8ff" stroke="#63b8ff" points="814.29,-255.58 805.26,-250.03 808.86,-259.99 814.29,-255.58"/>
</a>
</g>
</g>
<!-- Node24&#45;&gt;Node7 -->
<g id="edge53_Node000024_Node000007" class="edge">
<title>Node24&#45;&gt;Node7</title>
<g id="a_edge53_Node000024_Node000007"><a xlink:title=" ">
<path fill="none" stroke="#63b8ff" d="M795.94,-356.17C621.15,-344.23 191.36,-304.12 108,-195 91.51,-173.41 127.05,-110.8 128,-110 174.75,-70.71 602.44,-26.57 731.98,-14"/>
<polygon fill="#63b8ff" stroke="#63b8ff" points="732.57,-17.46 742.19,-13.02 731.9,-10.5 732.57,-17.46"/>
</a>
</g>
</g>
<!-- Node24&#45;&gt;Node10 -->
<g id="edge58_Node000024_Node000010" class="edge">
<title>Node24&#45;&gt;Node10</title>
<g id="a_edge58_Node000024_Node000010"><a xlink:title=" ">
<path fill="none" stroke="#63b8ff" d="M870.38,-351.99C872.14,-311.86 879.67,-141.16 882.18,-84.13"/>
<polygon fill="#63b8ff" stroke="#63b8ff" points="885.68,-84.19 882.62,-74.05 878.69,-83.88 885.68,-84.19"/>
</a>
</g>
</g>
<!-- Node24&#45;&gt;Node12 -->
<g id="edge51_Node000024_Node000012" class="edge">
<title>Node24&#45;&gt;Node12</title>
<g id="a_edge51_Node000024_Node000012"><a xlink:title=" ">
<path fill="none" stroke="#63b8ff" d="M913.77,-351.97C984.44,-335.59 1121.64,-292.32 1180,-195 1190.95,-176.73 1179.01,-153.17 1167.94,-137.49"/>
<polygon fill="#63b8ff" stroke="#63b8ff" points="1170.54,-135.12 1161.71,-129.26 1164.96,-139.35 1170.54,-135.12"/>
</a>
</g>
</g>
<!-- Node24&#45;&gt;Node15 -->
<g id="edge52_Node000024_Node000015" class="edge">
<title>Node24&#45;&gt;Node15</title>
<g id="a_edge52_Node000024_Node000015"><a xlink:title=" ">
<path fill="none" stroke="#63b8ff" d="M944.24,-357.27C1029.44,-352.51 1173.01,-341.27 1294,-316 1388.94,-296.17 1418.47,-299.29 1502,-250 1552.44,-220.24 1596.62,-165.37 1617.01,-137.59"/>
<polygon fill="#63b8ff" stroke="#63b8ff" points="1619.99,-139.44 1622.99,-129.28 1614.31,-135.35 1619.99,-139.44"/>
</a>
</g>
</g>
<!-- Node24&#45;&gt;Node16 -->
<g id="edge54_Node000024_Node000016" class="edge">
<title>Node24&#45;&gt;Node16</title>
<g id="a_edge54_Node000024_Node000016"><a xlink:title=" ">
<path fill="none" stroke="#63b8ff" d="M800.69,-351.95C700.25,-336.44 512.85,-295.41 390,-195 370.62,-179.16 354.47,-155.03 344.79,-138.56"/>
<polygon fill="#63b8ff" stroke="#63b8ff" points="347.6,-136.41 339.63,-129.43 341.5,-139.86 347.6,-136.41"/>
</a>
</g>
</g>
<!-- Node24&#45;&gt;Node17 -->
<g id="edge55_Node000024_Node000017" class="edge">
<title>Node24&#45;&gt;Node17</title>
<g id="a_edge55_Node000024_Node000017"><a xlink:title=" ">
<path fill="none" stroke="#63b8ff" d="M879.19,-351.99C904.56,-328.32 977.16,-259.17 1030,-195 1045.45,-176.25 1061.13,-153.09 1071.17,-137.62"/>
<polygon fill="#63b8ff" stroke="#63b8ff" points="1074.19,-139.39 1076.65,-129.08 1068.3,-135.61 1074.19,-139.39"/>
</a>
</g>
</g>
<!-- Node24&#45;&gt;Node21 -->
<g id="edge56_Node000024_Node000021" class="edge">
<title>Node24&#45;&gt;Node21</title>
<g id="a_edge56_Node000024_Node000021"><a xlink:title=" ">
<path fill="none" stroke="#63b8ff" d="M836.41,-351.93C805.91,-343.81 759.9,-330.68 721,-316 668.15,-296.05 516.68,-223.73 454.81,-193.95"/>
<polygon fill="#63b8ff" stroke="#63b8ff" points="456.21,-190.74 445.68,-189.55 453.17,-197.04 456.21,-190.74"/>
</a>
</g>
</g>
<!-- Node25 -->
<g id="Node000025" class="node">
<title>Node25</title>
<g id="a_Node000025"><a xlink:href="../../d8/d90/unfitted__domain__kd__tree_8hpp.html" target="_top" xlink:title="Declaration of of UnfittedDomain class.">
<polygon fill="white" stroke="#666666" points="1284.5,-316 1157.5,-316 1157.5,-286 1284.5,-286 1284.5,-316"/>
<text text-anchor="start" x="1165.5" y="-304" font-family="Helvetica,sans-Serif" font-size="10.00">qugar/unfitted_domain</text>
<text text-anchor="middle" x="1221" y="-293" font-family="Helvetica,sans-Serif" font-size="10.00">_kd_tree.hpp</text>
</a>
</g>
</g>
<!-- Node24&#45;&gt;Node25 -->
<g id="edge42_Node000024_Node000025" class="edge">
<title>Node24&#45;&gt;Node25</title>
<g id="a_edge42_Node000024_Node000025"><a xlink:title=" ">
<path fill="none" stroke="#63b8ff" d="M921.04,-351.99C980.54,-342.08 1079.36,-325.61 1147.21,-314.3"/>
<polygon fill="#63b8ff" stroke="#63b8ff" points="1148.12,-317.7 1157.41,-312.6 1146.97,-310.79 1148.12,-317.7"/>
</a>
</g>
</g>
<!-- Node26 -->
<g id="Node000026" class="node">
<title>Node26</title>
<g id="a_Node000026"><a xlink:title=" ">
<polygon fill="#e0e0e0" stroke="#999999" points="822.5,-310.5 729.5,-310.5 729.5,-291.5 822.5,-291.5 822.5,-310.5"/>
<text text-anchor="middle" x="776" y="-298.5" font-family="Helvetica,sans-Serif" font-size="10.00">unordered_map</text>
</a>
</g>
</g>
<!-- Node24&#45;&gt;Node26 -->
<g id="edge57_Node000024_Node000026" class="edge">
<title>Node24&#45;&gt;Node26</title>
<g id="a_edge57_Node000024_Node000026"><a xlink:title=" ">
<path fill="none" stroke="#63b8ff" d="M856.13,-351.87C841,-342.45 816.54,-327.23 798.62,-316.08"/>
<polygon fill="#63b8ff" stroke="#63b8ff" points="800.27,-312.98 789.93,-310.67 796.57,-318.92 800.27,-312.98"/>
</a>
</g>
</g>
<!-- Node25&#45;&gt;Node2 -->
<g id="edge43_Node000025_Node000002" class="edge">
<title>Node25&#45;&gt;Node2</title>
<g id="a_edge43_Node000025_Node000002"><a xlink:title=" ">
<path fill="none" stroke="#63b8ff" d="M1157.21,-291.18C1079.97,-280.5 950.22,-262.55 869.61,-251.4"/>
<polygon fill="#63b8ff" stroke="#63b8ff" points="869.93,-247.92 859.55,-250.01 868.98,-254.85 869.93,-247.92"/>
</a>
</g>
</g>
<!-- Node25&#45;&gt;Node7 -->
<g id="edge46_Node000025_Node000007" class="edge">
<title>Node25&#45;&gt;Node7</title>
<g id="a_edge46_Node000025_Node000007"><a xlink:title=" ">
<path fill="none" stroke="#63b8ff" d="M1284.6,-295.7C1431.23,-283.47 1772.43,-240.51 1664,-110 1608.21,-42.85 968.41,-17.13 806.2,-11.66"/>
<polygon fill="#63b8ff" stroke="#63b8ff" points="805.9,-8.15 795.79,-11.32 805.67,-15.15 805.9,-8.15"/>
</a>
</g>
</g>
<!-- Node25&#45;&gt;Node10 -->
<g id="edge50_Node000025_Node000010" class="edge">
<title>Node25&#45;&gt;Node10</title>
<g id="a_edge50_Node000025_Node000010"><a xlink:title=" ">
<path fill="none" stroke="#63b8ff" d="M1284.76,-286.65C1341.38,-272.11 1423.67,-244.09 1480,-195 1511.2,-167.81 1546.22,-140.27 1518,-110 1476.81,-65.82 1042.84,-64.65 917.01,-65.24"/>
<polygon fill="#63b8ff" stroke="#63b8ff" points="916.8,-61.74 906.81,-65.3 916.83,-68.74 916.8,-61.74"/>
</a>
</g>
</g>
<!-- Node25&#45;&gt;Node12 -->
<g id="edge44_Node000025_Node000012" class="edge">
<title>Node25&#45;&gt;Node12</title>
<g id="a_edge44_Node000025_Node000012"><a xlink:title=" ">
<path fill="none" stroke="#63b8ff" d="M1232.48,-285.66C1239.33,-276.16 1247.38,-263.07 1251,-250 1261.08,-213.59 1271.4,-196.8 1251,-165 1247.08,-158.89 1211.59,-143.58 1184.67,-132.62"/>
<polygon fill="#63b8ff" stroke="#63b8ff" points="1185.79,-129.3 1175.21,-128.81 1183.17,-135.8 1185.79,-129.3"/>
</a>
</g>
</g>
<!-- Node25&#45;&gt;Node15 -->
<g id="edge45_Node000025_Node000015" class="edge">
<title>Node25&#45;&gt;Node15</title>
<g id="a_edge45_Node000025_Node000015"><a xlink:title=" ">
<path fill="none" stroke="#63b8ff" d="M1284.69,-291.74C1348.79,-282.68 1442.68,-267.11 1475,-250 1522.49,-224.85 1519.2,-198.77 1561,-165 1575,-153.69 1591.93,-142.6 1605.4,-134.32"/>
<polygon fill="#63b8ff" stroke="#63b8ff" points="1607.34,-137.24 1614.09,-129.07 1603.72,-131.25 1607.34,-137.24"/>
</a>
</g>
</g>
<!-- Node25&#45;&gt;Node16 -->
<g id="edge47_Node000025_Node000016" class="edge">
<title>Node25&#45;&gt;Node16</title>
<g id="a_edge47_Node000025_Node000016"><a xlink:title=" ">
<path fill="none" stroke="#63b8ff" d="M1157.47,-297.76C1062.65,-293.49 878.9,-281.58 726,-250 698.61,-244.34 693.04,-238.18 666,-231 592.61,-211.52 566.52,-229.73 499,-195 481.37,-185.93 483.08,-175.07 466,-165 435.91,-147.26 397.73,-135.32 370.37,-128.31"/>
<polygon fill="#63b8ff" stroke="#63b8ff" points="370.99,-124.86 360.45,-125.86 369.32,-131.65 370.99,-124.86"/>
</a>
</g>
</g>
<!-- Node25&#45;&gt;Node17 -->
<g id="edge48_Node000025_Node000017" class="edge">
<title>Node25&#45;&gt;Node17</title>
<g id="a_edge48_Node000025_Node000017"><a xlink:title=" ">
<path fill="none" stroke="#63b8ff" d="M1220.43,-285.96C1218.64,-259.23 1211.16,-200.55 1180,-165 1165.56,-148.53 1143.81,-137.82 1124.46,-131.04"/>
<polygon fill="#63b8ff" stroke="#63b8ff" points="1125.49,-127.69 1114.9,-127.93 1123.33,-134.35 1125.49,-127.69"/>
</a>
</g>
</g>
<!-- Node25&#45;&gt;Node21 -->
<g id="edge49_Node000025_Node000021" class="edge">
<title>Node25&#45;&gt;Node21</title>
<g id="a_edge49_Node000025_Node000021"><a xlink:title=" ">
<path fill="none" stroke="#63b8ff" d="M1157.21,-297.02C1057.54,-291.68 859.11,-278.28 693,-250 642.9,-241.47 519.86,-208.99 471,-195 468.4,-194.26 465.72,-193.46 463.03,-192.64"/>
<polygon fill="#63b8ff" stroke="#63b8ff" points="463.96,-189.26 453.37,-189.6 461.86,-195.94 463.96,-189.26"/>
</a>
</g>
</g>
<!-- Node27&#45;&gt;Node5 -->
<g id="edge65_Node000027_Node000005" class="edge">
<title>Node27&#45;&gt;Node5</title>
<g id="a_edge65_Node000027_Node000005"><a xlink:title=" ">
<path fill="none" stroke="#63b8ff" d="M249.73,-170.49C325.31,-159.36 457,-139.95 532.15,-128.88"/>
<polygon fill="#63b8ff" stroke="#63b8ff" points="532.98,-132.29 542.36,-127.37 531.96,-125.37 532.98,-132.29"/>
</a>
</g>
</g>
<!-- Node27&#45;&gt;Node6 -->
<g id="edge64_Node000027_Node000006" class="edge">
<title>Node27&#45;&gt;Node6</title>
<g id="a_edge64_Node000027_Node000006"><a xlink:title=" ">
<path fill="none" stroke="#63b8ff" d="M176.84,-170.46C155.09,-157.16 119.58,-130.87 138,-110 157.39,-88.04 340.57,-74.32 436.31,-68.59"/>
<polygon fill="#63b8ff" stroke="#63b8ff" points="436.64,-72.08 446.42,-68 436.23,-65.09 436.64,-72.08"/>
</a>
</g>
</g>
<!-- Node27&#45;&gt;Node8 -->
<g id="edge66_Node000027_Node000008" class="edge">
<title>Node27&#45;&gt;Node8</title>
<g id="a_edge66_Node000027_Node000008"><a xlink:title=" ">
<path fill="none" stroke="#63b8ff" d="M184.63,-170.21C173.51,-155.85 155.33,-127.23 171,-110 198.04,-80.28 477.05,-79.12 549.82,-73.8"/>
<polygon fill="#63b8ff" stroke="#63b8ff" points="550.34,-77.26 559.98,-72.86 549.7,-70.29 550.34,-77.26"/>
</a>
</g>
</g>
<!-- Node27&#45;&gt;Node16 -->
<g id="edge68_Node000027_Node000016" class="edge">
<title>Node27&#45;&gt;Node16</title>
<g id="a_edge68_Node000027_Node000016"><a xlink:title=" ">
<path fill="none" stroke="#63b8ff" d="M212.79,-170.49C236.94,-160.62 276.98,-144.23 304.62,-132.93"/>
<polygon fill="#63b8ff" stroke="#63b8ff" points="306.25,-136.04 314.18,-129.02 303.6,-129.56 306.25,-136.04"/>
</a>
</g>
</g>
<!-- Node27&#45;&gt;Node18 -->
<g id="edge69_Node000027_Node000018" class="edge">
<title>Node27&#45;&gt;Node18</title>
<g id="a_edge69_Node000027_Node000018"><a xlink:title=" ">
<path fill="none" stroke="#63b8ff" d="M229.66,-170.49C276.52,-159.91 356.43,-141.86 406.33,-130.59"/>
<polygon fill="#63b8ff" stroke="#63b8ff" points="407.21,-133.98 416.2,-128.36 405.67,-127.15 407.21,-133.98"/>
</a>
</g>
</g>
<!-- Node28 -->
<g id="Node000028" class="node">
<title>Node28</title>
<g id="a_Node000028"><a xlink:title=" ">
<polygon fill="#e0e0e0" stroke="#999999" points="292,-129 180,-129 180,-110 292,-110 292,-129"/>
<text text-anchor="middle" x="236" y="-117" font-family="Helvetica,sans-Serif" font-size="10.00">algoim/interval.hpp</text>
</a>
</g>
</g>
<!-- Node27&#45;&gt;Node28 -->
<g id="edge67_Node000027_Node000028" class="edge">
<title>Node27&#45;&gt;Node28</title>
<g id="a_edge67_Node000027_Node000028"><a xlink:title=" ">
<path fill="none" stroke="#63b8ff" d="M198.49,-170.37C204.99,-161.73 215.16,-148.2 223.28,-137.42"/>
<polygon fill="#63b8ff" stroke="#63b8ff" points="226.27,-139.26 229.48,-129.17 220.67,-135.06 226.27,-139.26"/>
</a>
</g>
</g>
<!-- Node29&#45;&gt;Node2 -->
<g id="edge72_Node000029_Node000002" class="edge">
<title>Node29&#45;&gt;Node2</title>
<g id="a_edge72_Node000029_Node000002"><a xlink:title=" ">
<path fill="none" stroke="#63b8ff" d="M1187.81,-406.91C1107.66,-372.9 904.52,-286.7 827.88,-254.18"/>
<polygon fill="#63b8ff" stroke="#63b8ff" points="828.92,-250.82 818.35,-250.13 826.19,-257.26 828.92,-250.82"/>
</a>
</g>
</g>
<!-- Node29&#45;&gt;Node3 -->
<g id="edge71_Node000029_Node000003" class="edge">
<title>Node29&#45;&gt;Node3</title>
<g id="a_edge71_Node000029_Node000003"><a xlink:title=" ">
<path fill="none" stroke="#63b8ff" d="M1277.29,-412.55C1324.45,-404.26 1386.63,-390.09 1403,-371 1445.12,-321.89 1435.87,-237.47 1429.05,-199.94"/>
<polygon fill="#63b8ff" stroke="#63b8ff" points="1432.43,-199.02 1427.06,-189.89 1425.56,-200.38 1432.43,-199.02"/>
</a>
</g>
</g>
<!-- Node29&#45;&gt;Node7 -->
<g id="edge78_Node000029_Node000007" class="edge">
<title>Node29&#45;&gt;Node7</title>
<g id="a_edge78_Node000029_Node000007"><a xlink:title=" ">
<path fill="none" stroke="#63b8ff" d="M1277.01,-418.44C1375.57,-413.25 1575.59,-399.5 1639,-371 1733.1,-328.71 1788.31,-259.09 1746,-165 1700.35,-63.48 1630.26,-76.27 1521,-55 1381.62,-27.87 937.64,-14.75 806.08,-11.39"/>
<polygon fill="#63b8ff" stroke="#63b8ff" points="805.82,-7.88 795.74,-11.13 805.65,-14.88 805.82,-7.88"/>
</a>
</g>
</g>
<!-- Node29&#45;&gt;Node10 -->
<g id="edge82_Node000029_Node000010" class="edge">
<title>Node29&#45;&gt;Node10</title>
<g id="a_edge82_Node000029_Node000010"><a xlink:title=" ">
<path fill="none" stroke="#63b8ff" d="M1277.45,-418.5C1401.93,-411.44 1689,-386.05 1689,-302 1689,-302 1689,-302 1689,-239.5 1689,-180.88 1708.13,-148.59 1664,-110 1635.48,-85.06 1063.18,-69.79 916.84,-66.28"/>
<polygon fill="#63b8ff" stroke="#63b8ff" points="916.75,-62.77 906.67,-66.04 916.58,-69.77 916.75,-62.77"/>
</a>
</g>
</g>
<!-- Node29&#45;&gt;Node12 -->
<g id="edge76_Node000029_Node000012" class="edge">
<title>Node29&#45;&gt;Node12</title>
<g id="a_edge76_Node000029_Node000012"><a xlink:title=" ">
<path fill="none" stroke="#63b8ff" d="M1277.03,-407.85C1296.24,-400.36 1315.72,-388.79 1327,-371 1376.02,-293.67 1383.52,-237.03 1327,-165 1287.51,-114.67 1248.67,-144.22 1185.21,-130.12"/>
<polygon fill="#63b8ff" stroke="#63b8ff" points="1185.8,-126.66 1175.24,-127.59 1184.07,-133.44 1185.8,-126.66"/>
</a>
</g>
</g>
<!-- Node29&#45;&gt;Node15 -->
<g id="edge77_Node000029_Node000015" class="edge">
<title>Node29&#45;&gt;Node15</title>
<g id="a_edge77_Node000029_Node000015"><a xlink:title=" ">
<path fill="none" stroke="#63b8ff" d="M1277.21,-417.25C1393.77,-407.93 1651,-378.68 1651,-302 1651,-302 1651,-302 1651,-239.5 1651,-203.39 1641.08,-162.13 1634.57,-138.91"/>
<polygon fill="#63b8ff" stroke="#63b8ff" points="1637.85,-137.68 1631.7,-129.06 1631.13,-139.64 1637.85,-137.68"/>
</a>
</g>
</g>
<!-- Node29&#45;&gt;Node17 -->
<g id="edge79_Node000029_Node000017" class="edge">
<title>Node29&#45;&gt;Node17</title>
<g id="a_edge79_Node000029_Node000017"><a xlink:title=" ">
<path fill="none" stroke="#63b8ff" d="M1242.34,-406.86C1269.52,-386.97 1313,-347.96 1313,-302 1313,-302 1313,-302 1313,-239.5 1313,-196.91 1187.35,-152.41 1121.39,-131.99"/>
<polygon fill="#63b8ff" stroke="#63b8ff" points="1122.31,-128.61 1111.73,-129.04 1120.27,-135.31 1122.31,-128.61"/>
</a>
</g>
</g>
<!-- Node29&#45;&gt;Node21 -->
<g id="edge80_Node000029_Node000021" class="edge">
<title>Node29&#45;&gt;Node21</title>
<g id="a_edge80_Node000029_Node000021"><a xlink:title=" ">
<path fill="none" stroke="#63b8ff" d="M1164.99,-419.31C1081.48,-415.73 919.89,-404.68 787,-371 723.4,-354.88 709.25,-344.19 650,-316 595.39,-290.02 582.61,-281.52 531,-250 501.72,-232.12 468.97,-209.75 448.42,-195.42"/>
<polygon fill="#63b8ff" stroke="#63b8ff" points="450.35,-192.5 440.15,-189.62 446.33,-198.23 450.35,-192.5"/>
</a>
</g>
</g>
<!-- Node29&#45;&gt;Node22 -->
<g id="edge81_Node000029_Node000022" class="edge">
<title>Node29&#45;&gt;Node22</title>
<g id="a_edge81_Node000029_Node000022"><a xlink:title=" ">
<path fill="none" stroke="#63b8ff" d="M1207.33,-406.81C1190.08,-387.87 1161.2,-352.47 1149,-316 1135.71,-276.27 1138.04,-226.28 1140.67,-199.67"/>
<polygon fill="#63b8ff" stroke="#63b8ff" points="1144.17,-199.83 1141.8,-189.51 1137.22,-199.06 1144.17,-199.83"/>
</a>
</g>
</g>
<!-- Node29&#45;&gt;Node24 -->
<g id="edge74_Node000029_Node000024" class="edge">
<title>Node29&#45;&gt;Node24</title>
<g id="a_edge74_Node000029_Node000024"><a xlink:title=" ">
<path fill="none" stroke="#63b8ff" d="M1164.99,-411.67C1101.24,-401.04 997.43,-383.74 931.49,-372.75"/>
<polygon fill="#63b8ff" stroke="#63b8ff" points="931.68,-369.23 921.24,-371.04 930.53,-376.14 931.68,-369.23"/>
</a>
</g>
</g>
<!-- Node29&#45;&gt;Node25 -->
<g id="edge75_Node000029_Node000025" class="edge">
<title>Node29&#45;&gt;Node25</title>
<g id="a_edge75_Node000029_Node000025"><a xlink:title=" ">
<path fill="none" stroke="#63b8ff" d="M1221,-406.88C1221,-387.02 1221,-350.55 1221,-326.29"/>
<polygon fill="#63b8ff" stroke="#63b8ff" points="1224.5,-326.1 1221,-316.1 1217.5,-326.1 1224.5,-326.1"/>
</a>
</g>
</g>
<!-- Node29&#45;&gt;Node27 -->
<g id="edge73_Node000029_Node000027" class="edge">
<title>Node29&#45;&gt;Node27</title>
<g id="a_edge73_Node000029_Node000027"><a xlink:title=" ">
<path fill="none" stroke="#63b8ff" d="M1164.65,-419.79C1071.6,-416.81 880.45,-406.51 723,-371 524.24,-326.17 297.74,-228.67 219.94,-193.76"/>
<polygon fill="#63b8ff" stroke="#63b8ff" points="221.34,-190.55 210.79,-189.63 218.46,-196.93 221.34,-190.55"/>
</a>
</g>
</g>
</g>
</svg>
