<?xml version="1.0" encoding="UTF-8" standalone="no"?>
<!DOCTYPE svg PUBLIC "-//W3C//DTD SVG 1.1//EN"
 "http://www.w3.org/Graphics/SVG/1.1/DTD/svg11.dtd">
<!-- Generated by graphviz version 2.43.0 (0)
 -->
<!-- Title: /__w/qugar/qugar/cpp/include/qugar/impl_quadrature.hpp Pages: 1 -->
<svg width="1743pt" height="445pt"
 viewBox="0.00 0.00 1743.00 445.00" xmlns="http://www.w3.org/2000/svg" xmlns:xlink="http://www.w3.org/1999/xlink">
<g id="graph0" class="graph" transform="scale(1 1) rotate(0) translate(4 441)">
<title>/__w/qugar/qugar/cpp/include/qugar/impl_quadrature.hpp</title>
<!-- Node1 -->
<g id="Node000001" class="node">
<title>Node1</title>
<g id="a_Node000001"><a xlink:title="Declaration of quadratures for general implicit functions on grids.">
<polygon fill="#999999" stroke="#666666" points="609,-437 419,-437 419,-407 609,-407 609,-437"/>
<text text-anchor="start" x="427" y="-425" font-family="Helvetica,sans-Serif" font-size="10.00">/__w/qugar/qugar/cpp</text>
<text text-anchor="middle" x="514" y="-414" font-family="Helvetica,sans-Serif" font-size="10.00">/include/qugar/impl_quadrature.hpp</text>
</a>
</g>
</g>
<!-- Node2 -->
<g id="Node000002" class="node">
<title>Node2</title>
<g id="a_Node000002"><a xlink:href="../../d6/d49/cart__grid__tp_8hpp.html" target="_top" xlink:title="Definition of Cartesian grid class.">
<polygon fill="white" stroke="#666666" points="788,-250 662,-250 662,-231 788,-231 788,-250"/>
<text text-anchor="middle" x="725" y="-238" font-family="Helvetica,sans-Serif" font-size="10.00">qugar/cart_grid_tp.hpp</text>
</a>
</g>
</g>
<!-- Node1&#45;&gt;Node2 -->
<g id="edge1_Node000001_Node000002" class="edge">
<title>Node1&#45;&gt;Node2</title>
<g id="a_edge1_Node000001_Node000002"><a xlink:title=" ">
<path fill="none" stroke="#63b8ff" d="M530.56,-406.91C569.56,-373.74 666.94,-290.89 707.17,-256.67"/>
<polygon fill="#63b8ff" stroke="#63b8ff" points="709.5,-259.28 714.85,-250.13 704.97,-253.95 709.5,-259.28"/>
</a>
</g>
</g>
<!-- Node10 -->
<g id="Node000010" class="node">
<title>Node10</title>
<g id="a_Node000010"><a xlink:title=" ">
<polygon fill="#e0e0e0" stroke="#999999" points="289.5,-74 242.5,-74 242.5,-55 289.5,-55 289.5,-74"/>
<text text-anchor="middle" x="266" y="-62" font-family="Helvetica,sans-Serif" font-size="10.00">vector</text>
</a>
</g>
</g>
<!-- Node1&#45;&gt;Node10 -->
<g id="edge69_Node000001_Node000010" class="edge">
<title>Node1&#45;&gt;Node10</title>
<g id="a_edge69_Node000001_Node000010"><a xlink:title=" ">
<path fill="none" stroke="#63b8ff" d="M418.83,-417.27C270.24,-408.81 0,-381.72 0,-296.5 0,-296.5 0,-296.5 0,-179 0,-79.19 160.4,-65.95 232.09,-65.02"/>
<polygon fill="#63b8ff" stroke="#63b8ff" points="232.41,-68.52 242.39,-64.96 232.38,-61.52 232.41,-68.52"/>
</a>
</g>
</g>
<!-- Node19 -->
<g id="Node000019" class="node">
<title>Node19</title>
<g id="a_Node000019"><a xlink:title=" ">
<polygon fill="#e0e0e0" stroke="#999999" points="200,-189.5 142,-189.5 142,-170.5 200,-170.5 200,-189.5"/>
<text text-anchor="middle" x="171" y="-177.5" font-family="Helvetica,sans-Serif" font-size="10.00">memory</text>
</a>
</g>
</g>
<!-- Node1&#45;&gt;Node19 -->
<g id="edge68_Node000001_Node000019" class="edge">
<title>Node1&#45;&gt;Node19</title>
<g id="a_edge68_Node000001_Node000019"><a xlink:title=" ">
<path fill="none" stroke="#63b8ff" d="M418.99,-411.28C347.72,-402.75 256.99,-388.93 224,-371 188.9,-351.93 179.56,-341.35 163,-305 149.32,-274.97 152.51,-263.69 157,-231 158.46,-220.34 161.6,-208.76 164.54,-199.43"/>
<polygon fill="#63b8ff" stroke="#63b8ff" points="167.94,-200.29 167.78,-189.7 161.3,-198.08 167.94,-200.29"/>
</a>
</g>
</g>
<!-- Node21 -->
<g id="Node000021" class="node">
<title>Node21</title>
<g id="a_Node000021"><a xlink:href="../../d1/daf/cut__quadrature_8hpp.html" target="_top" xlink:title="Definition of cut quadrature for unfitted domains.">
<polygon fill="white" stroke="#666666" points="375,-365.5 233,-365.5 233,-346.5 375,-346.5 375,-365.5"/>
<text text-anchor="middle" x="304" y="-353.5" font-family="Helvetica,sans-Serif" font-size="10.00">qugar/cut_quadrature.hpp</text>
</a>
</g>
</g>
<!-- Node1&#45;&gt;Node21 -->
<g id="edge34_Node000001_Node000021" class="edge">
<title>Node1&#45;&gt;Node21</title>
<g id="a_edge34_Node000001_Node000021"><a xlink:title=" ">
<path fill="none" stroke="#63b8ff" d="M467.91,-406.95C430.11,-395.43 377.25,-379.32 341.88,-368.54"/>
<polygon fill="#63b8ff" stroke="#63b8ff" points="342.53,-365.08 331.95,-365.52 340.49,-371.78 342.53,-365.08"/>
</a>
</g>
</g>
<!-- Node25 -->
<g id="Node000025" class="node">
<title>Node25</title>
<g id="a_Node000025"><a xlink:href="../../dc/d7c/domain__function_8hpp.html" target="_top" xlink:title="Declaration of a few implicit functions template class ready to be consumed by Algoim.">
<polygon fill="white" stroke="#666666" points="1527,-189.5 1377,-189.5 1377,-170.5 1527,-170.5 1527,-189.5"/>
<text text-anchor="middle" x="1452" y="-177.5" font-family="Helvetica,sans-Serif" font-size="10.00">qugar/domain_function.hpp</text>
</a>
</g>
</g>
<!-- Node1&#45;&gt;Node25 -->
<g id="edge49_Node000001_Node000025" class="edge">
<title>Node1&#45;&gt;Node25</title>
<g id="a_edge49_Node000001_Node000025"><a xlink:title=" ">
<path fill="none" stroke="#63b8ff" d="M609.02,-415.7C752.34,-405.59 1030.95,-377.65 1256,-305 1310.3,-287.47 1324.19,-281.14 1372,-250 1396.08,-234.32 1420.65,-211.98 1436.1,-197.02"/>
<polygon fill="#63b8ff" stroke="#63b8ff" points="1438.62,-199.44 1443.29,-189.93 1433.71,-194.46 1438.62,-199.44"/>
</a>
</g>
</g>
<!-- Node27 -->
<g id="Node000027" class="node">
<title>Node27</title>
<g id="a_Node000027"><a xlink:href="../../d6/d03/impl__unfitted__domain_8hpp.html" target="_top" xlink:title="Declaration of of UnfittedImplDomain class.">
<polygon fill="white" stroke="#666666" points="888,-371 776,-371 776,-341 888,-341 888,-371"/>
<text text-anchor="start" x="784" y="-359" font-family="Helvetica,sans-Serif" font-size="10.00">qugar/impl_unfitted</text>
<text text-anchor="middle" x="832" y="-348" font-family="Helvetica,sans-Serif" font-size="10.00">_domain.hpp</text>
</a>
</g>
</g>
<!-- Node1&#45;&gt;Node27 -->
<g id="edge56_Node000001_Node000027" class="edge">
<title>Node1&#45;&gt;Node27</title>
<g id="a_edge56_Node000001_Node000027"><a xlink:title=" ">
<path fill="none" stroke="#63b8ff" d="M583.79,-406.95C637.98,-396.05 712.61,-381.03 765.85,-370.31"/>
<polygon fill="#63b8ff" stroke="#63b8ff" points="766.76,-373.7 775.87,-368.3 765.38,-366.84 766.76,-373.7"/>
</a>
</g>
</g>
<!-- Node3 -->
<g id="Node000003" class="node">
<title>Node3</title>
<g id="a_Node000003"><a xlink:href="../../d5/d90/bbox_8hpp.html" target="_top" xlink:title="Definition of Cartesian bounding box class.">
<polygon fill="white" stroke="#666666" points="1048,-189.5 956,-189.5 956,-170.5 1048,-170.5 1048,-189.5"/>
<text text-anchor="middle" x="1002" y="-177.5" font-family="Helvetica,sans-Serif" font-size="10.00">qugar/bbox.hpp</text>
</a>
</g>
</g>
<!-- Node2&#45;&gt;Node3 -->
<g id="edge2_Node000002_Node000003" class="edge">
<title>Node2&#45;&gt;Node3</title>
<g id="a_edge2_Node000002_Node000003"><a xlink:title=" ">
<path fill="none" stroke="#63b8ff" d="M765.28,-230.99C814.62,-220.57 898.21,-202.92 951.72,-191.62"/>
<polygon fill="#63b8ff" stroke="#63b8ff" points="952.61,-195.01 961.67,-189.52 951.17,-188.16 952.61,-195.01"/>
</a>
</g>
</g>
<!-- Node5 -->
<g id="Node000005" class="node">
<title>Node5</title>
<g id="a_Node000005"><a xlink:href="../../d0/de4/point_8hpp.html" target="_top" xlink:title="Definition and implementation of Point class.">
<polygon fill="white" stroke="#666666" points="715.5,-129 622.5,-129 622.5,-110 715.5,-110 715.5,-129"/>
<text text-anchor="middle" x="669" y="-117" font-family="Helvetica,sans-Serif" font-size="10.00">qugar/point.hpp</text>
</a>
</g>
</g>
<!-- Node2&#45;&gt;Node5 -->
<g id="edge15_Node000002_Node000005" class="edge">
<title>Node2&#45;&gt;Node5</title>
<g id="a_edge15_Node000002_Node000005"><a xlink:title=" ">
<path fill="none" stroke="#63b8ff" d="M720.97,-230.94C711.9,-211.65 689.68,-164.44 677.44,-138.43"/>
<polygon fill="#63b8ff" stroke="#63b8ff" points="680.57,-136.86 673.14,-129.3 674.23,-139.84 680.57,-136.86"/>
</a>
</g>
</g>
<!-- Node6 -->
<g id="Node000006" class="node">
<title>Node6</title>
<g id="a_Node000006"><a xlink:href="../../dd/de3/types_8hpp.html" target="_top" xlink:title="Declaration of types.">
<polygon fill="white" stroke="#666666" points="677.5,-74 582.5,-74 582.5,-55 677.5,-55 677.5,-74"/>
<text text-anchor="middle" x="630" y="-62" font-family="Helvetica,sans-Serif" font-size="10.00">qugar/types.hpp</text>
</a>
</g>
</g>
<!-- Node2&#45;&gt;Node6 -->
<g id="edge28_Node000002_Node000006" class="edge">
<title>Node2&#45;&gt;Node6</title>
<g id="a_edge28_Node000002_Node000006"><a xlink:title=" ">
<path fill="none" stroke="#63b8ff" d="M661.8,-238.95C585.94,-236.79 465.36,-228.08 437,-195 429.4,-186.14 425.64,-125.26 438,-110 454.72,-89.35 521.81,-77.38 572.01,-71.15"/>
<polygon fill="#63b8ff" stroke="#63b8ff" points="572.61,-74.61 582.12,-69.95 571.78,-67.66 572.61,-74.61"/>
</a>
</g>
</g>
<!-- Node7 -->
<g id="Node000007" class="node">
<title>Node7</title>
<g id="a_Node000007"><a xlink:title=" ">
<polygon fill="#e0e0e0" stroke="#999999" points="751.5,-19 698.5,-19 698.5,0 751.5,0 751.5,-19"/>
<text text-anchor="middle" x="725" y="-7" font-family="Helvetica,sans-Serif" font-size="10.00">cstddef</text>
</a>
</g>
</g>
<!-- Node2&#45;&gt;Node7 -->
<g id="edge30_Node000002_Node000007" class="edge">
<title>Node2&#45;&gt;Node7</title>
<g id="a_edge30_Node000002_Node000007"><a xlink:title=" ">
<path fill="none" stroke="#63b8ff" d="M725,-230.8C725,-197.36 725,-76.59 725,-29.49"/>
<polygon fill="#63b8ff" stroke="#63b8ff" points="728.5,-29.21 725,-19.21 721.5,-29.21 728.5,-29.21"/>
</a>
</g>
</g>
<!-- Node2&#45;&gt;Node10 -->
<g id="edge33_Node000002_Node000010" class="edge">
<title>Node2&#45;&gt;Node10</title>
<g id="a_edge33_Node000002_Node000010"><a xlink:title=" ">
<path fill="none" stroke="#63b8ff" d="M661.95,-239.65C599.54,-237.64 502.51,-228.63 426,-195 364.06,-167.78 306.23,-110 280.31,-81.74"/>
<polygon fill="#63b8ff" stroke="#63b8ff" points="282.89,-79.38 273.59,-74.3 277.69,-84.07 282.89,-79.38"/>
</a>
</g>
</g>
<!-- Node12 -->
<g id="Node000012" class="node">
<title>Node12</title>
<g id="a_Node000012"><a xlink:title=" ">
<polygon fill="#e0e0e0" stroke="#999999" points="814,-129 772,-129 772,-110 814,-110 814,-129"/>
<text text-anchor="middle" x="793" y="-117" font-family="Helvetica,sans-Serif" font-size="10.00">array</text>
</a>
</g>
</g>
<!-- Node2&#45;&gt;Node12 -->
<g id="edge29_Node000002_Node000012" class="edge">
<title>Node2&#45;&gt;Node12</title>
<g id="a_edge29_Node000002_Node000012"><a xlink:title=" ">
<path fill="none" stroke="#63b8ff" d="M731.03,-230.79C737.08,-221.93 746.54,-207.73 754,-195 765.03,-176.17 776.48,-153.92 784.09,-138.68"/>
<polygon fill="#63b8ff" stroke="#63b8ff" points="787.4,-139.88 788.7,-129.36 781.13,-136.77 787.4,-139.88"/>
</a>
</g>
</g>
<!-- Node13 -->
<g id="Node000013" class="node">
<title>Node13</title>
<g id="a_Node000013"><a xlink:href="../../d9/d43/tensor__index__tp_8hpp.html" target="_top" xlink:title="Declaration of tensor&#45;product index and size related classes.">
<polygon fill="white" stroke="#666666" points="1176,-195 1066,-195 1066,-165 1176,-165 1176,-195"/>
<text text-anchor="start" x="1074" y="-183" font-family="Helvetica,sans-Serif" font-size="10.00">qugar/tensor_index</text>
<text text-anchor="middle" x="1121" y="-172" font-family="Helvetica,sans-Serif" font-size="10.00">_tp.hpp</text>
</a>
</g>
</g>
<!-- Node2&#45;&gt;Node13 -->
<g id="edge16_Node000002_Node000013" class="edge">
<title>Node2&#45;&gt;Node13</title>
<g id="a_edge16_Node000002_Node000013"><a xlink:title=" ">
<path fill="none" stroke="#63b8ff" d="M788.27,-232.59C853.09,-225.15 956.97,-212.25 1056.02,-195.08"/>
<polygon fill="#63b8ff" stroke="#63b8ff" points="1056.65,-198.53 1065.9,-193.35 1055.45,-191.63 1056.65,-198.53"/>
</a>
</g>
</g>
<!-- Node17 -->
<g id="Node000017" class="node">
<title>Node17</title>
<g id="a_Node000017"><a xlink:href="../../d0/d55/tolerance_8hpp.html" target="_top" xlink:title="Definition of tolerance related functionalities.">
<polygon fill="white" stroke="#666666" points="560,-189.5 446,-189.5 446,-170.5 560,-170.5 560,-189.5"/>
<text text-anchor="middle" x="503" y="-177.5" font-family="Helvetica,sans-Serif" font-size="10.00">qugar/tolerance.hpp</text>
</a>
</g>
</g>
<!-- Node2&#45;&gt;Node17 -->
<g id="edge23_Node000002_Node000017" class="edge">
<title>Node2&#45;&gt;Node17</title>
<g id="a_edge23_Node000002_Node000017"><a xlink:title=" ">
<path fill="none" stroke="#63b8ff" d="M692.72,-230.99C653.75,-220.73 588.12,-203.43 545.18,-192.12"/>
<polygon fill="#63b8ff" stroke="#63b8ff" points="545.88,-188.68 535.32,-189.52 544.1,-195.45 545.88,-188.68"/>
</a>
</g>
</g>
<!-- Node2&#45;&gt;Node19 -->
<g id="edge31_Node000002_Node000019" class="edge">
<title>Node2&#45;&gt;Node19</title>
<g id="a_edge31_Node000002_Node000019"><a xlink:title=" ">
<path fill="none" stroke="#63b8ff" d="M661.99,-232.85C546.63,-220.67 304.69,-195.12 210.09,-185.13"/>
<polygon fill="#63b8ff" stroke="#63b8ff" points="210.4,-181.64 200.09,-184.07 209.66,-188.6 210.4,-181.64"/>
</a>
</g>
</g>
<!-- Node20 -->
<g id="Node000020" class="node">
<title>Node20</title>
<g id="a_Node000020"><a xlink:title=" ">
<polygon fill="#e0e0e0" stroke="#999999" points="900,-189.5 844,-189.5 844,-170.5 900,-170.5 900,-189.5"/>
<text text-anchor="middle" x="872" y="-177.5" font-family="Helvetica,sans-Serif" font-size="10.00">optional</text>
</a>
</g>
</g>
<!-- Node2&#45;&gt;Node20 -->
<g id="edge32_Node000002_Node000020" class="edge">
<title>Node2&#45;&gt;Node20</title>
<g id="a_edge32_Node000002_Node000020"><a xlink:title=" ">
<path fill="none" stroke="#63b8ff" d="M746.38,-230.99C771.31,-221.07 812.72,-204.59 841.14,-193.28"/>
<polygon fill="#63b8ff" stroke="#63b8ff" points="842.6,-196.47 850.6,-189.52 840.01,-189.96 842.6,-196.47"/>
</a>
</g>
</g>
<!-- Node4 -->
<g id="Node000004" class="node">
<title>Node4</title>
<g id="a_Node000004"><a xlink:href="../../d7/dd8/concepts_8hpp.html" target="_top" xlink:title="Declaration of concepts.">
<polygon fill="white" stroke="#666666" points="1148,-129 1036,-129 1036,-110 1148,-110 1148,-129"/>
<text text-anchor="middle" x="1092" y="-117" font-family="Helvetica,sans-Serif" font-size="10.00">qugar/concepts.hpp</text>
</a>
</g>
</g>
<!-- Node3&#45;&gt;Node4 -->
<g id="edge3_Node000003_Node000004" class="edge">
<title>Node3&#45;&gt;Node4</title>
<g id="a_edge3_Node000003_Node000004"><a xlink:title=" ">
<path fill="none" stroke="#63b8ff" d="M1015.28,-170.37C1029.64,-161.04 1052.76,-146.01 1069.87,-134.88"/>
<polygon fill="#63b8ff" stroke="#63b8ff" points="1072.19,-137.55 1078.67,-129.17 1068.37,-131.68 1072.19,-137.55"/>
</a>
</g>
</g>
<!-- Node3&#45;&gt;Node5 -->
<g id="edge4_Node000003_Node000005" class="edge">
<title>Node3&#45;&gt;Node5</title>
<g id="a_edge4_Node000003_Node000005"><a xlink:title=" ">
<path fill="none" stroke="#63b8ff" d="M955.7,-170.87C895.56,-160.3 790.63,-141.87 725.77,-130.47"/>
<polygon fill="#63b8ff" stroke="#63b8ff" points="726.17,-126.99 715.71,-128.71 724.96,-133.88 726.17,-126.99"/>
</a>
</g>
</g>
<!-- Node3&#45;&gt;Node6 -->
<g id="edge11_Node000003_Node000006" class="edge">
<title>Node3&#45;&gt;Node6</title>
<g id="a_edge11_Node000003_Node000006"><a xlink:title=" ">
<path fill="none" stroke="#63b8ff" d="M974.86,-170.47C946.18,-161.21 899.84,-145.52 861,-129 843.62,-121.61 840.77,-116.39 823,-110 778.74,-94.09 726.68,-82.48 687.79,-75.11"/>
<polygon fill="#63b8ff" stroke="#63b8ff" points="688.17,-71.62 677.7,-73.24 686.89,-78.5 688.17,-71.62"/>
</a>
</g>
</g>
<!-- Node3&#45;&gt;Node7 -->
<g id="edge14_Node000003_Node000007" class="edge">
<title>Node3&#45;&gt;Node7</title>
<g id="a_edge14_Node000003_Node000007"><a xlink:title=" ">
<path fill="none" stroke="#63b8ff" d="M1035.44,-170.45C1078.76,-159.03 1149.66,-139.09 1157,-129 1161.97,-122.17 1162.26,-116.61 1157,-110 1107.51,-47.82 856.75,-21.21 761.65,-13.25"/>
<polygon fill="#63b8ff" stroke="#63b8ff" points="761.88,-9.75 751.63,-12.43 761.31,-16.73 761.88,-9.75"/>
</a>
</g>
</g>
<!-- Node11 -->
<g id="Node000011" class="node">
<title>Node11</title>
<g id="a_Node000011"><a xlink:title=" ">
<polygon fill="#e0e0e0" stroke="#999999" points="1018,-129 870,-129 870,-110 1018,-110 1018,-129"/>
<text text-anchor="middle" x="944" y="-117" font-family="Helvetica,sans-Serif" font-size="10.00">algoim/hyperrectangle.hpp</text>
</a>
</g>
</g>
<!-- Node3&#45;&gt;Node11 -->
<g id="edge12_Node000003_Node000011" class="edge">
<title>Node3&#45;&gt;Node11</title>
<g id="a_edge12_Node000003_Node000011"><a xlink:title=" ">
<path fill="none" stroke="#63b8ff" d="M993.44,-170.37C984.62,-161.47 970.66,-147.39 959.82,-136.45"/>
<polygon fill="#63b8ff" stroke="#63b8ff" points="962.12,-133.8 952.59,-129.17 957.15,-138.73 962.12,-133.8"/>
</a>
</g>
</g>
<!-- Node3&#45;&gt;Node12 -->
<g id="edge13_Node000003_Node000012" class="edge">
<title>Node3&#45;&gt;Node12</title>
<g id="a_edge13_Node000003_Node000012"><a xlink:title=" ">
<path fill="none" stroke="#63b8ff" d="M971.61,-170.49C932.14,-159.45 863.6,-140.26 823.89,-129.15"/>
<polygon fill="#63b8ff" stroke="#63b8ff" points="824.78,-125.76 814.21,-126.44 822.9,-132.5 824.78,-125.76"/>
</a>
</g>
</g>
<!-- Node5&#45;&gt;Node6 -->
<g id="edge5_Node000005_Node000006" class="edge">
<title>Node5&#45;&gt;Node6</title>
<g id="a_edge5_Node000005_Node000006"><a xlink:title=" ">
<path fill="none" stroke="#63b8ff" d="M662.56,-109.75C657.11,-102.34 649.14,-91.5 642.44,-82.41"/>
<polygon fill="#63b8ff" stroke="#63b8ff" points="645.07,-80.07 636.32,-74.09 639.43,-84.22 645.07,-80.07"/>
</a>
</g>
</g>
<!-- Node5&#45;&gt;Node7 -->
<g id="edge9_Node000005_Node000007" class="edge">
<title>Node5&#45;&gt;Node7</title>
<g id="a_edge9_Node000005_Node000007"><a xlink:title=" ">
<path fill="none" stroke="#63b8ff" d="M673.58,-109.66C682.78,-91.93 703.62,-51.73 715.76,-28.32"/>
<polygon fill="#63b8ff" stroke="#63b8ff" points="719.01,-29.65 720.51,-19.16 712.8,-26.42 719.01,-29.65"/>
</a>
</g>
</g>
<!-- Node8 -->
<g id="Node000008" class="node">
<title>Node8</title>
<g id="a_Node000008"><a xlink:href="../../da/d16/vector_8hpp.html" target="_top" xlink:title=" ">
<polygon fill="white" stroke="#666666" points="1340,-74 1242,-74 1242,-55 1340,-55 1340,-74"/>
<text text-anchor="middle" x="1291" y="-62" font-family="Helvetica,sans-Serif" font-size="10.00">qugar/vector.hpp</text>
</a>
</g>
</g>
<!-- Node5&#45;&gt;Node8 -->
<g id="edge7_Node000005_Node000008" class="edge">
<title>Node5&#45;&gt;Node8</title>
<g id="a_edge7_Node000005_Node000008"><a xlink:title=" ">
<path fill="none" stroke="#63b8ff" d="M715.85,-114.21C730.91,-112.84 747.66,-111.34 763,-110 933.16,-95.14 1134.25,-78.42 1231.89,-70.36"/>
<polygon fill="#63b8ff" stroke="#63b8ff" points="1232.18,-73.85 1241.86,-69.54 1231.6,-66.88 1232.18,-73.85"/>
</a>
</g>
</g>
<!-- Node5&#45;&gt;Node10 -->
<g id="edge10_Node000005_Node000010" class="edge">
<title>Node5&#45;&gt;Node10</title>
<g id="a_edge10_Node000005_Node000010"><a xlink:title=" ">
<path fill="none" stroke="#63b8ff" d="M622.26,-111.32C619.13,-110.87 616.02,-110.42 613,-110 498.14,-93.92 361.57,-77.07 299.58,-69.54"/>
<polygon fill="#63b8ff" stroke="#63b8ff" points="299.94,-66.06 289.59,-68.33 299.09,-73.01 299.94,-66.06"/>
</a>
</g>
</g>
<!-- Node6&#45;&gt;Node7 -->
<g id="edge6_Node000006_Node000007" class="edge">
<title>Node6&#45;&gt;Node7</title>
<g id="a_edge6_Node000006_Node000007"><a xlink:title=" ">
<path fill="none" stroke="#63b8ff" d="M645.26,-54.98C660.13,-46.69 682.98,-33.94 700.42,-24.22"/>
<polygon fill="#63b8ff" stroke="#63b8ff" points="702.43,-27.1 709.46,-19.17 699.02,-20.99 702.43,-27.1"/>
</a>
</g>
</g>
<!-- Node9 -->
<g id="Node000009" class="node">
<title>Node9</title>
<g id="a_Node000009"><a xlink:title=" ">
<polygon fill="#e0e0e0" stroke="#999999" points="1346,-19 1236,-19 1236,0 1346,0 1346,-19"/>
<text text-anchor="middle" x="1291" y="-7" font-family="Helvetica,sans-Serif" font-size="10.00">algoim/uvector.hpp</text>
</a>
</g>
</g>
<!-- Node8&#45;&gt;Node9 -->
<g id="edge8_Node000008_Node000009" class="edge">
<title>Node8&#45;&gt;Node9</title>
<g id="a_edge8_Node000008_Node000009"><a xlink:title=" ">
<path fill="none" stroke="#63b8ff" d="M1291,-54.75C1291,-47.8 1291,-37.85 1291,-29.13"/>
<polygon fill="#63b8ff" stroke="#63b8ff" points="1294.5,-29.09 1291,-19.09 1287.5,-29.09 1294.5,-29.09"/>
</a>
</g>
</g>
<!-- Node13&#45;&gt;Node7 -->
<g id="edge20_Node000013_Node000007" class="edge">
<title>Node13&#45;&gt;Node7</title>
<g id="a_edge20_Node000013_Node000007"><a xlink:title=" ">
<path fill="none" stroke="#63b8ff" d="M1143.45,-164.93C1161.9,-151.48 1183.32,-130.3 1172,-110 1149.36,-69.39 1126.86,-70.45 1083,-55 971.08,-15.59 828.75,-10.14 762.31,-9.97"/>
<polygon fill="#63b8ff" stroke="#63b8ff" points="761.93,-6.47 751.94,-9.98 761.94,-13.47 761.93,-6.47"/>
</a>
</g>
</g>
<!-- Node13&#45;&gt;Node8 -->
<g id="edge17_Node000013_Node000008" class="edge">
<title>Node13&#45;&gt;Node8</title>
<g id="a_edge17_Node000013_Node000008"><a xlink:title=" ">
<path fill="none" stroke="#63b8ff" d="M1159.41,-164.92C1180.62,-156.21 1206.87,-143.87 1228,-129 1247.14,-115.53 1265.58,-95.91 1277.51,-82.05"/>
<polygon fill="#63b8ff" stroke="#63b8ff" points="1280.29,-84.18 1284.04,-74.27 1274.93,-79.68 1280.29,-84.18"/>
</a>
</g>
</g>
<!-- Node13&#45;&gt;Node12 -->
<g id="edge18_Node000013_Node000012" class="edge">
<title>Node13&#45;&gt;Node12</title>
<g id="a_edge18_Node000013_Node000012"><a xlink:title=" ">
<path fill="none" stroke="#63b8ff" d="M1065.88,-166.76C1062.88,-166.15 1059.9,-165.56 1057,-165 973.25,-148.79 873.89,-132.95 824.35,-125.28"/>
<polygon fill="#63b8ff" stroke="#63b8ff" points="824.7,-121.79 814.28,-123.73 823.63,-128.71 824.7,-121.79"/>
</a>
</g>
</g>
<!-- Node14 -->
<g id="Node000014" class="node">
<title>Node14</title>
<g id="a_Node000014"><a xlink:title=" ">
<polygon fill="#e0e0e0" stroke="#999999" points="604,-129 552,-129 552,-110 604,-110 604,-129"/>
<text text-anchor="middle" x="578" y="-117" font-family="Helvetica,sans-Serif" font-size="10.00">cassert</text>
</a>
</g>
</g>
<!-- Node13&#45;&gt;Node14 -->
<g id="edge19_Node000013_Node000014" class="edge">
<title>Node13&#45;&gt;Node14</title>
<g id="a_edge19_Node000013_Node000014"><a xlink:title=" ">
<path fill="none" stroke="#63b8ff" d="M1065.93,-166.46C1062.92,-165.93 1059.92,-165.44 1057,-165 864.87,-136.31 810.91,-159 614.33,-128.76"/>
<polygon fill="#63b8ff" stroke="#63b8ff" points="614.68,-125.27 604.26,-127.18 613.59,-132.19 614.68,-125.27"/>
</a>
</g>
</g>
<!-- Node15 -->
<g id="Node000015" class="node">
<title>Node15</title>
<g id="a_Node000015"><a xlink:title=" ">
<polygon fill="#e0e0e0" stroke="#999999" points="1345.5,-129 1280.5,-129 1280.5,-110 1345.5,-110 1345.5,-129"/>
<text text-anchor="middle" x="1313" y="-117" font-family="Helvetica,sans-Serif" font-size="10.00">functional</text>
</a>
</g>
</g>
<!-- Node13&#45;&gt;Node15 -->
<g id="edge21_Node000013_Node000015" class="edge">
<title>Node13&#45;&gt;Node15</title>
<g id="a_edge21_Node000013_Node000015"><a xlink:title=" ">
<path fill="none" stroke="#63b8ff" d="M1166.99,-164.99C1200.12,-154.89 1244.29,-141.44 1275.34,-131.98"/>
<polygon fill="#63b8ff" stroke="#63b8ff" points="1276.38,-135.32 1284.93,-129.05 1274.34,-128.62 1276.38,-135.32"/>
</a>
</g>
</g>
<!-- Node16 -->
<g id="Node000016" class="node">
<title>Node16</title>
<g id="a_Node000016"><a xlink:title=" ">
<polygon fill="#e0e0e0" stroke="#999999" points="1432.5,-129 1363.5,-129 1363.5,-110 1432.5,-110 1432.5,-129"/>
<text text-anchor="middle" x="1398" y="-117" font-family="Helvetica,sans-Serif" font-size="10.00">type_traits</text>
</a>
</g>
</g>
<!-- Node13&#45;&gt;Node16 -->
<g id="edge22_Node000013_Node000016" class="edge">
<title>Node13&#45;&gt;Node16</title>
<g id="a_edge22_Node000013_Node000016"><a xlink:title=" ">
<path fill="none" stroke="#63b8ff" d="M1176.06,-167.37C1228.05,-156.39 1305.07,-140.13 1353.35,-129.93"/>
<polygon fill="#63b8ff" stroke="#63b8ff" points="1354.13,-133.34 1363.2,-127.85 1352.69,-126.49 1354.13,-133.34"/>
</a>
</g>
</g>
<!-- Node17&#45;&gt;Node5 -->
<g id="edge24_Node000017_Node000005" class="edge">
<title>Node17&#45;&gt;Node5</title>
<g id="a_edge24_Node000017_Node000005"><a xlink:title=" ">
<path fill="none" stroke="#63b8ff" d="M527.14,-170.49C555.54,-160.49 602.88,-143.8 634.99,-132.49"/>
<polygon fill="#63b8ff" stroke="#63b8ff" points="636.56,-135.64 644.83,-129.02 634.24,-129.04 636.56,-135.64"/>
</a>
</g>
</g>
<!-- Node17&#45;&gt;Node6 -->
<g id="edge25_Node000017_Node000006" class="edge">
<title>Node17&#45;&gt;Node6</title>
<g id="a_edge25_Node000017_Node000006"><a xlink:title=" ">
<path fill="none" stroke="#63b8ff" d="M506.15,-170.32C511.67,-156.12 524.32,-127.73 543,-110 557.71,-96.04 577.65,-85.42 594.73,-78.05"/>
<polygon fill="#63b8ff" stroke="#63b8ff" points="596.47,-81.13 604.4,-74.1 593.82,-74.65 596.47,-81.13"/>
</a>
</g>
</g>
<!-- Node17&#45;&gt;Node10 -->
<g id="edge27_Node000017_Node000010" class="edge">
<title>Node17&#45;&gt;Node10</title>
<g id="a_edge27_Node000017_Node000010"><a xlink:title=" ">
<path fill="none" stroke="#63b8ff" d="M485.19,-170.47C444.01,-150.75 342.03,-101.91 293.07,-78.46"/>
<polygon fill="#63b8ff" stroke="#63b8ff" points="294.55,-75.29 284.02,-74.13 291.53,-81.61 294.55,-75.29"/>
</a>
</g>
</g>
<!-- Node18 -->
<g id="Node000018" class="node">
<title>Node18</title>
<g id="a_Node000018"><a xlink:title=" ">
<polygon fill="#e0e0e0" stroke="#999999" points="495.5,-129 446.5,-129 446.5,-110 495.5,-110 495.5,-129"/>
<text text-anchor="middle" x="471" y="-117" font-family="Helvetica,sans-Serif" font-size="10.00">cstdlib</text>
</a>
</g>
</g>
<!-- Node17&#45;&gt;Node18 -->
<g id="edge26_Node000017_Node000018" class="edge">
<title>Node17&#45;&gt;Node18</title>
<g id="a_edge26_Node000017_Node000018"><a xlink:title=" ">
<path fill="none" stroke="#63b8ff" d="M498.28,-170.37C493.65,-161.9 486.45,-148.74 480.61,-138.07"/>
<polygon fill="#63b8ff" stroke="#63b8ff" points="483.61,-136.26 475.74,-129.17 477.47,-139.62 483.61,-136.26"/>
</a>
</g>
</g>
<!-- Node21&#45;&gt;Node5 -->
<g id="edge35_Node000021_Node000005" class="edge">
<title>Node21&#45;&gt;Node5</title>
<g id="a_edge35_Node000021_Node000005"><a xlink:title=" ">
<path fill="none" stroke="#63b8ff" d="M367.23,-346.5C404.58,-339.45 451.7,-326.9 489,-305 565.52,-260.08 631.49,-174.06 657.35,-137.56"/>
<polygon fill="#63b8ff" stroke="#63b8ff" points="660.45,-139.23 663.29,-129.02 654.71,-135.22 660.45,-139.23"/>
</a>
</g>
</g>
<!-- Node21&#45;&gt;Node6 -->
<g id="edge36_Node000021_Node000006" class="edge">
<title>Node21&#45;&gt;Node6</title>
<g id="a_edge36_Node000021_Node000006"><a xlink:title=" ">
<path fill="none" stroke="#63b8ff" d="M305.4,-346.46C311.77,-310.7 341.4,-171.94 427,-110 469.21,-79.45 528.4,-69.21 571.98,-66.08"/>
<polygon fill="#63b8ff" stroke="#63b8ff" points="572.38,-69.56 582.15,-65.46 571.95,-62.58 572.38,-69.56"/>
</a>
</g>
</g>
<!-- Node21&#45;&gt;Node7 -->
<g id="edge46_Node000021_Node000007" class="edge">
<title>Node21&#45;&gt;Node7</title>
<g id="a_edge46_Node000021_Node000007"><a xlink:title=" ">
<path fill="none" stroke="#63b8ff" d="M234.64,-346.46C199.9,-339.57 158.63,-327.19 127,-305 71.47,-266.04 38,-248.84 38,-181 38,-181 38,-181 38,-118.5 38,-34.51 133.94,-72.91 216,-55 389.91,-17.03 603.92,-11.25 688.32,-10.52"/>
<polygon fill="#63b8ff" stroke="#63b8ff" points="688.44,-14.02 698.42,-10.45 688.4,-7.02 688.44,-14.02"/>
</a>
</g>
</g>
<!-- Node21&#45;&gt;Node10 -->
<g id="edge48_Node000021_Node000010" class="edge">
<title>Node21&#45;&gt;Node10</title>
<g id="a_edge48_Node000021_Node000010"><a xlink:title=" ">
<path fill="none" stroke="#63b8ff" d="M250.32,-346.48C194.13,-334.16 114,-305.38 114,-241.5 114,-241.5 114,-241.5 114,-179 114,-120.21 187.9,-88.22 232.64,-74.24"/>
<polygon fill="#63b8ff" stroke="#63b8ff" points="233.67,-77.59 242.25,-71.38 231.67,-70.88 233.67,-77.59"/>
</a>
</g>
</g>
<!-- Node21&#45;&gt;Node19 -->
<g id="edge47_Node000021_Node000019" class="edge">
<title>Node21&#45;&gt;Node19</title>
<g id="a_edge47_Node000021_Node000019"><a xlink:title=" ">
<path fill="none" stroke="#63b8ff" d="M244.45,-346.45C219.14,-339.59 191.86,-327.24 176,-305 153.67,-273.67 160.06,-225.71 165.97,-199.57"/>
<polygon fill="#63b8ff" stroke="#63b8ff" points="169.45,-200.07 168.46,-189.52 162.66,-198.38 169.45,-200.07"/>
</a>
</g>
</g>
<!-- Node22 -->
<g id="Node000022" class="node">
<title>Node22</title>
<g id="a_Node000022"><a xlink:href="../../d2/dfd/unfitted__domain_8hpp.html" target="_top" xlink:title="Declaration of of UnfittedDomain class.">
<polygon fill="white" stroke="#666666" points="480,-305 332,-305 332,-286 480,-286 480,-305"/>
<text text-anchor="middle" x="406" y="-293" font-family="Helvetica,sans-Serif" font-size="10.00">qugar/unfitted_domain.hpp</text>
</a>
</g>
</g>
<!-- Node21&#45;&gt;Node22 -->
<g id="edge37_Node000021_Node000022" class="edge">
<title>Node21&#45;&gt;Node22</title>
<g id="a_edge37_Node000021_Node000022"><a xlink:title=" ">
<path fill="none" stroke="#63b8ff" d="M319.05,-346.37C335.62,-336.86 362.5,-321.45 381.99,-310.27"/>
<polygon fill="#63b8ff" stroke="#63b8ff" points="383.95,-313.18 390.89,-305.17 380.47,-307.11 383.95,-313.18"/>
</a>
</g>
</g>
<!-- Node22&#45;&gt;Node2 -->
<g id="edge38_Node000022_Node000002" class="edge">
<title>Node22&#45;&gt;Node2</title>
<g id="a_edge38_Node000022_Node000002"><a xlink:title=" ">
<path fill="none" stroke="#63b8ff" d="M457.25,-285.98C513.44,-276.65 603.57,-261.67 663.52,-251.71"/>
<polygon fill="#63b8ff" stroke="#63b8ff" points="664.32,-255.13 673.61,-250.04 663.17,-248.22 664.32,-255.13"/>
</a>
</g>
</g>
<!-- Node22&#45;&gt;Node7 -->
<g id="edge41_Node000022_Node000007" class="edge">
<title>Node22&#45;&gt;Node7</title>
<g id="a_edge41_Node000022_Node000007"><a xlink:title=" ">
<path fill="none" stroke="#63b8ff" d="M386.01,-285.97C368.35,-277.97 342.31,-265 322,-250 245.38,-193.39 168.74,-125.33 233,-55 263.58,-21.53 579.33,-12.99 688.28,-11.03"/>
<polygon fill="#63b8ff" stroke="#63b8ff" points="688.52,-14.53 698.46,-10.86 688.4,-7.53 688.52,-14.53"/>
</a>
</g>
</g>
<!-- Node22&#45;&gt;Node10 -->
<g id="edge45_Node000022_Node000010" class="edge">
<title>Node22&#45;&gt;Node10</title>
<g id="a_edge45_Node000022_Node000010"><a xlink:title=" ">
<path fill="none" stroke="#63b8ff" d="M392.63,-285.71C360.73,-263.84 280.73,-203.31 252,-129 246.28,-114.21 251.05,-96.54 256.52,-83.59"/>
<polygon fill="#63b8ff" stroke="#63b8ff" points="259.77,-84.91 260.87,-74.37 253.44,-81.92 259.77,-84.91"/>
</a>
</g>
</g>
<!-- Node22&#45;&gt;Node12 -->
<g id="edge39_Node000022_Node000012" class="edge">
<title>Node22&#45;&gt;Node12</title>
<g id="a_edge39_Node000022_Node000012"><a xlink:title=" ">
<path fill="none" stroke="#63b8ff" d="M480.38,-291.29C587.93,-285.86 776.33,-273.16 797,-250 824.37,-219.34 810.63,-166.46 800.52,-138.71"/>
<polygon fill="#63b8ff" stroke="#63b8ff" points="803.67,-137.16 796.79,-129.1 797.14,-139.69 803.67,-137.16"/>
</a>
</g>
</g>
<!-- Node22&#45;&gt;Node14 -->
<g id="edge40_Node000022_Node000014" class="edge">
<title>Node22&#45;&gt;Node14</title>
<g id="a_edge40_Node000022_Node000014"><a xlink:title=" ">
<path fill="none" stroke="#63b8ff" d="M434.24,-285.91C471.86,-272.87 537.35,-244.22 569,-195 579.66,-178.42 580.86,-155.42 580.07,-139.38"/>
<polygon fill="#63b8ff" stroke="#63b8ff" points="583.53,-138.8 579.24,-129.12 576.55,-139.37 583.53,-138.8"/>
</a>
</g>
</g>
<!-- Node22&#45;&gt;Node19 -->
<g id="edge43_Node000022_Node000019" class="edge">
<title>Node22&#45;&gt;Node19</title>
<g id="a_edge43_Node000022_Node000019"><a xlink:title=" ">
<path fill="none" stroke="#63b8ff" d="M357.14,-285.92C325.8,-279.11 284.97,-267.73 252,-250 225.95,-235.99 200.81,-212.52 185.62,-196.9"/>
<polygon fill="#63b8ff" stroke="#63b8ff" points="188.06,-194.38 178.63,-189.54 182.98,-199.2 188.06,-194.38"/>
</a>
</g>
</g>
<!-- Node23 -->
<g id="Node000023" class="node">
<title>Node23</title>
<g id="a_Node000023"><a xlink:title=" ">
<polygon fill="#e0e0e0" stroke="#999999" points="1501,-129 1451,-129 1451,-110 1501,-110 1501,-129"/>
<text text-anchor="middle" x="1476" y="-117" font-family="Helvetica,sans-Serif" font-size="10.00">cstdint</text>
</a>
</g>
</g>
<!-- Node22&#45;&gt;Node23 -->
<g id="edge42_Node000022_Node000023" class="edge">
<title>Node22&#45;&gt;Node23</title>
<g id="a_edge42_Node000022_Node000023"><a xlink:title=" ">
<path fill="none" stroke="#63b8ff" d="M480.15,-288.62C619.32,-276.8 928.74,-246.76 1185,-195 1278.4,-176.13 1386.72,-146.25 1441.08,-130.68"/>
<polygon fill="#63b8ff" stroke="#63b8ff" points="1442.26,-133.98 1450.9,-127.86 1440.32,-127.26 1442.26,-133.98"/>
</a>
</g>
</g>
<!-- Node24 -->
<g id="Node000024" class="node">
<title>Node24</title>
<g id="a_Node000024"><a xlink:title=" ">
<polygon fill="#e0e0e0" stroke="#999999" points="463.5,-250 370.5,-250 370.5,-231 463.5,-231 463.5,-250"/>
<text text-anchor="middle" x="417" y="-238" font-family="Helvetica,sans-Serif" font-size="10.00">unordered_map</text>
</a>
</g>
</g>
<!-- Node22&#45;&gt;Node24 -->
<g id="edge44_Node000022_Node000024" class="edge">
<title>Node22&#45;&gt;Node24</title>
<g id="a_edge44_Node000022_Node000024"><a xlink:title=" ">
<path fill="none" stroke="#63b8ff" d="M407.82,-285.75C409.26,-278.8 411.32,-268.85 413.13,-260.13"/>
<polygon fill="#63b8ff" stroke="#63b8ff" points="416.61,-260.59 415.22,-250.09 409.76,-259.17 416.61,-260.59"/>
</a>
</g>
</g>
<!-- Node25&#45;&gt;Node5 -->
<g id="edge51_Node000025_Node000005" class="edge">
<title>Node25&#45;&gt;Node5</title>
<g id="a_edge51_Node000025_Node000005"><a xlink:title=" ">
<path fill="none" stroke="#63b8ff" d="M1376.78,-173.98C1250.08,-165.43 986.08,-147.18 763,-129 751.01,-128.02 738.16,-126.91 725.93,-125.81"/>
<polygon fill="#63b8ff" stroke="#63b8ff" points="726.12,-122.31 715.84,-124.9 725.49,-129.29 726.12,-122.31"/>
</a>
</g>
</g>
<!-- Node25&#45;&gt;Node6 -->
<g id="edge50_Node000025_Node000006" class="edge">
<title>Node25&#45;&gt;Node6</title>
<g id="a_edge50_Node000025_Node000006"><a xlink:title=" ">
<path fill="none" stroke="#63b8ff" d="M1468.27,-170.43C1491.62,-157.1 1529.73,-130.76 1510,-110 1481.65,-80.18 879.3,-69.05 687.86,-66.26"/>
<polygon fill="#63b8ff" stroke="#63b8ff" points="687.77,-62.76 677.72,-66.11 687.67,-69.76 687.77,-62.76"/>
</a>
</g>
</g>
<!-- Node25&#45;&gt;Node8 -->
<g id="edge52_Node000025_Node000008" class="edge">
<title>Node25&#45;&gt;Node8</title>
<g id="a_edge52_Node000025_Node000008"><a xlink:title=" ">
<path fill="none" stroke="#63b8ff" d="M1527.09,-178.49C1609.52,-175.4 1724.41,-162.05 1678,-110 1656.6,-85.99 1453.34,-73.09 1350.29,-68.05"/>
<polygon fill="#63b8ff" stroke="#63b8ff" points="1350.19,-64.54 1340.04,-67.56 1349.86,-71.53 1350.19,-64.54"/>
</a>
</g>
</g>
<!-- Node25&#45;&gt;Node16 -->
<g id="edge55_Node000025_Node000016" class="edge">
<title>Node25&#45;&gt;Node16</title>
<g id="a_edge55_Node000025_Node000016"><a xlink:title=" ">
<path fill="none" stroke="#63b8ff" d="M1444.03,-170.37C1435.9,-161.55 1423.07,-147.66 1413.02,-136.77"/>
<polygon fill="#63b8ff" stroke="#63b8ff" points="1415.36,-134.14 1406,-129.17 1410.21,-138.89 1415.36,-134.14"/>
</a>
</g>
</g>
<!-- Node25&#45;&gt;Node23 -->
<g id="edge54_Node000025_Node000023" class="edge">
<title>Node25&#45;&gt;Node23</title>
<g id="a_edge54_Node000025_Node000023"><a xlink:title=" ">
<path fill="none" stroke="#63b8ff" d="M1455.54,-170.37C1458.94,-162.07 1464.19,-149.28 1468.52,-138.72"/>
<polygon fill="#63b8ff" stroke="#63b8ff" points="1471.89,-139.75 1472.44,-129.17 1465.41,-137.09 1471.89,-139.75"/>
</a>
</g>
</g>
<!-- Node26 -->
<g id="Node000026" class="node">
<title>Node26</title>
<g id="a_Node000026"><a xlink:title=" ">
<polygon fill="#e0e0e0" stroke="#999999" points="1669,-129 1557,-129 1557,-110 1669,-110 1669,-129"/>
<text text-anchor="middle" x="1613" y="-117" font-family="Helvetica,sans-Serif" font-size="10.00">algoim/interval.hpp</text>
</a>
</g>
</g>
<!-- Node25&#45;&gt;Node26 -->
<g id="edge53_Node000025_Node000026" class="edge">
<title>Node25&#45;&gt;Node26</title>
<g id="a_edge53_Node000025_Node000026"><a xlink:title=" ">
<path fill="none" stroke="#63b8ff" d="M1475.41,-170.49C1502.95,-160.49 1548.87,-143.8 1580.01,-132.49"/>
<polygon fill="#63b8ff" stroke="#63b8ff" points="1581.36,-135.72 1589.56,-129.02 1578.97,-129.14 1581.36,-135.72"/>
</a>
</g>
</g>
<!-- Node27&#45;&gt;Node2 -->
<g id="edge58_Node000027_Node000002" class="edge">
<title>Node27&#45;&gt;Node2</title>
<g id="a_edge58_Node000027_Node000002"><a xlink:title=" ">
<path fill="none" stroke="#63b8ff" d="M818.45,-340.63C798.41,-319.37 761.02,-279.71 740.12,-257.54"/>
<polygon fill="#63b8ff" stroke="#63b8ff" points="742.64,-255.1 733.23,-250.23 737.54,-259.91 742.64,-255.1"/>
</a>
</g>
</g>
<!-- Node27&#45;&gt;Node3 -->
<g id="edge57_Node000027_Node000003" class="edge">
<title>Node27&#45;&gt;Node3</title>
<g id="a_edge57_Node000027_Node000003"><a xlink:title=" ">
<path fill="none" stroke="#63b8ff" d="M881.3,-340.92C902.03,-333.03 925.19,-321.41 942,-305 972.7,-275.03 989.83,-226.18 997.34,-199.62"/>
<polygon fill="#63b8ff" stroke="#63b8ff" points="1000.79,-200.29 999.98,-189.73 994.02,-198.49 1000.79,-200.29"/>
</a>
</g>
</g>
<!-- Node27&#45;&gt;Node7 -->
<g id="edge63_Node000027_Node000007" class="edge">
<title>Node27&#45;&gt;Node7</title>
<g id="a_edge63_Node000027_Node000007"><a xlink:title=" ">
<path fill="none" stroke="#63b8ff" d="M888.15,-353.88C1085.43,-349.19 1735,-327.27 1735,-241.5 1735,-241.5 1735,-241.5 1735,-118.5 1735,-18.59 943.59,-10.94 761.88,-10.49"/>
<polygon fill="#63b8ff" stroke="#63b8ff" points="761.76,-6.99 751.75,-10.47 761.75,-13.99 761.76,-6.99"/>
</a>
</g>
</g>
<!-- Node27&#45;&gt;Node10 -->
<g id="edge67_Node000027_Node000010" class="edge">
<title>Node27&#45;&gt;Node10</title>
<g id="a_edge67_Node000027_Node000010"><a xlink:title=" ">
<path fill="none" stroke="#63b8ff" d="M791.35,-340.96C678.44,-301.97 369.29,-195.19 369,-195 324.1,-166.43 290.25,-111.4 274.97,-83.16"/>
<polygon fill="#63b8ff" stroke="#63b8ff" points="277.94,-81.29 270.19,-74.07 271.74,-84.55 277.94,-81.29"/>
</a>
</g>
</g>
<!-- Node27&#45;&gt;Node12 -->
<g id="edge61_Node000027_Node000012" class="edge">
<title>Node27&#45;&gt;Node12</title>
<g id="a_edge61_Node000027_Node000012"><a xlink:title=" ">
<path fill="none" stroke="#63b8ff" d="M846.75,-340.62C878.95,-307.46 949.53,-223.95 909,-165 906.44,-161.27 857.48,-143.34 823.99,-131.41"/>
<polygon fill="#63b8ff" stroke="#63b8ff" points="824.76,-127.97 814.17,-127.92 822.42,-134.57 824.76,-127.97"/>
</a>
</g>
</g>
<!-- Node27&#45;&gt;Node14 -->
<g id="edge62_Node000027_Node000014" class="edge">
<title>Node27&#45;&gt;Node14</title>
<g id="a_edge62_Node000027_Node000014"><a xlink:title=" ">
<path fill="none" stroke="#63b8ff" d="M796.82,-340.92C757.92,-323.97 695.17,-292.41 653,-250 619.68,-216.5 595.85,-165.24 584.84,-138.36"/>
<polygon fill="#63b8ff" stroke="#63b8ff" points="588.09,-137.05 581.15,-129.05 581.58,-139.63 588.09,-137.05"/>
</a>
</g>
</g>
<!-- Node27&#45;&gt;Node15 -->
<g id="edge64_Node000027_Node000015" class="edge">
<title>Node27&#45;&gt;Node15</title>
<g id="a_edge64_Node000027_Node000015"><a xlink:title=" ">
<path fill="none" stroke="#63b8ff" d="M871.66,-340.98C897.85,-331.45 932.78,-318.22 963,-305 1063.89,-260.87 1088.03,-247.17 1185,-195 1222.35,-174.91 1264.7,-149.78 1290.11,-134.45"/>
<polygon fill="#63b8ff" stroke="#63b8ff" points="1292.23,-137.26 1298.97,-129.08 1288.6,-131.27 1292.23,-137.26"/>
</a>
</g>
</g>
<!-- Node27&#45;&gt;Node19 -->
<g id="edge65_Node000027_Node000019" class="edge">
<title>Node27&#45;&gt;Node19</title>
<g id="a_edge65_Node000027_Node000019"><a xlink:title=" ">
<path fill="none" stroke="#63b8ff" d="M775.81,-352.31C661.65,-346.38 406.39,-330.64 323,-305 274.14,-289.98 260.55,-283.57 222,-250 204.86,-235.07 190.03,-213.43 180.85,-198.38"/>
<polygon fill="#63b8ff" stroke="#63b8ff" points="183.76,-196.41 175.67,-189.57 177.73,-199.97 183.76,-196.41"/>
</a>
</g>
</g>
<!-- Node27&#45;&gt;Node20 -->
<g id="edge66_Node000027_Node000020" class="edge">
<title>Node27&#45;&gt;Node20</title>
<g id="a_edge66_Node000027_Node000020"><a xlink:title=" ">
<path fill="none" stroke="#63b8ff" d="M835.27,-340.76C842.48,-309.41 859.71,-234.46 867.74,-199.52"/>
<polygon fill="#63b8ff" stroke="#63b8ff" points="871.17,-200.21 870,-189.68 864.35,-198.65 871.17,-200.21"/>
</a>
</g>
</g>
<!-- Node27&#45;&gt;Node22 -->
<g id="edge60_Node000027_Node000022" class="edge">
<title>Node27&#45;&gt;Node22</title>
<g id="a_edge60_Node000027_Node000022"><a xlink:title=" ">
<path fill="none" stroke="#63b8ff" d="M775.87,-347.29C699.34,-336.78 562.18,-317.95 478.11,-306.4"/>
<polygon fill="#63b8ff" stroke="#63b8ff" points="478.52,-302.93 468.13,-305.03 477.56,-309.86 478.52,-302.93"/>
</a>
</g>
</g>
<!-- Node27&#45;&gt;Node25 -->
<g id="edge59_Node000027_Node000025" class="edge">
<title>Node27&#45;&gt;Node25</title>
<g id="a_edge59_Node000027_Node000025"><a xlink:title=" ">
<path fill="none" stroke="#63b8ff" d="M888.32,-353.97C964.72,-351.17 1104.67,-341.06 1218,-305 1301.96,-278.29 1391.35,-222.08 1430.98,-195.51"/>
<polygon fill="#63b8ff" stroke="#63b8ff" points="1433.21,-198.22 1439.53,-189.72 1429.29,-192.43 1433.21,-198.22"/>
</a>
</g>
</g>
</g>
</svg>
