<?xml version="1.0" encoding="UTF-8" standalone="no"?>
<!DOCTYPE svg PUBLIC "-//W3C//DTD SVG 1.1//EN"
 "http://www.w3.org/Graphics/SVG/1.1/DTD/svg11.dtd">
<!-- Generated by graphviz version 2.43.0 (0)
 -->
<!-- Title: /__w/qugar/qugar/cpp/include/qugar/unfitted_domain.hpp Pages: 1 -->
<svg width="1579pt" height="401pt"
 viewBox="0.00 0.00 1578.50 401.00" xmlns="http://www.w3.org/2000/svg" xmlns:xlink="http://www.w3.org/1999/xlink">
<g id="graph0" class="graph" transform="scale(1 1) rotate(0) translate(4 397)">
<title>/__w/qugar/qugar/cpp/include/qugar/unfitted_domain.hpp</title>
<!-- Node1 -->
<g id="Node000001" class="node">
<title>Node1</title>
<g id="a_Node000001"><a xlink:title="Declaration of of UnfittedDomain class.">
<polygon fill="#999999" stroke="#666666" points="1341,-393 1215,-393 1215,-352 1341,-352 1341,-393"/>
<text text-anchor="start" x="1223" y="-381" font-family="Helvetica,sans-Serif" font-size="10.00">/__w/qugar/qugar/cpp</text>
<text text-anchor="start" x="1223" y="-370" font-family="Helvetica,sans-Serif" font-size="10.00">/include/qugar/unfitted</text>
<text text-anchor="middle" x="1278" y="-359" font-family="Helvetica,sans-Serif" font-size="10.00">_domain.hpp</text>
</a>
</g>
</g>
<!-- Node2 -->
<g id="Node000002" class="node">
<title>Node2</title>
<g id="a_Node000002"><a xlink:href="../../d6/d49/cart__grid__tp_8hpp.html" target="_top" xlink:title="Definition of Cartesian grid class.">
<polygon fill="white" stroke="#666666" points="842,-250 716,-250 716,-231 842,-231 842,-250"/>
<text text-anchor="middle" x="779" y="-238" font-family="Helvetica,sans-Serif" font-size="10.00">qugar/cart_grid_tp.hpp</text>
</a>
</g>
</g>
<!-- Node1&#45;&gt;Node2 -->
<g id="edge1_Node000001_Node000002" class="edge">
<title>Node1&#45;&gt;Node2</title>
<g id="a_edge1_Node000001_Node000002"><a xlink:title=" ">
<path fill="none" stroke="#63b8ff" d="M1214.67,-356.2C1169.75,-345.25 1108.1,-330.03 1054,-316 970.56,-294.36 873.29,-267.66 819.68,-252.82"/>
<polygon fill="#63b8ff" stroke="#63b8ff" points="820.44,-249.4 809.87,-250.1 818.57,-256.14 820.44,-249.4"/>
</a>
</g>
</g>
<!-- Node7 -->
<g id="Node000007" class="node">
<title>Node7</title>
<g id="a_Node000007"><a xlink:title=" ">
<polygon fill="#e0e0e0" stroke="#999999" points="1054.5,-19 1001.5,-19 1001.5,0 1054.5,0 1054.5,-19"/>
<text text-anchor="middle" x="1028" y="-7" font-family="Helvetica,sans-Serif" font-size="10.00">cstddef</text>
</a>
</g>
</g>
<!-- Node1&#45;&gt;Node7 -->
<g id="edge49_Node000001_Node000007" class="edge">
<title>Node1&#45;&gt;Node7</title>
<g id="a_edge49_Node000001_Node000007"><a xlink:title=" ">
<path fill="none" stroke="#63b8ff" d="M1341.19,-352.06C1389.9,-332.69 1449,-297.63 1449,-241.5 1449,-241.5 1449,-241.5 1449,-118.5 1449,-39.52 1167.48,-17.49 1064.86,-12.08"/>
<polygon fill="#63b8ff" stroke="#63b8ff" points="1064.82,-8.58 1054.65,-11.57 1064.47,-15.57 1064.82,-8.58"/>
</a>
</g>
</g>
<!-- Node10 -->
<g id="Node000010" class="node">
<title>Node10</title>
<g id="a_Node000010"><a xlink:title=" ">
<polygon fill="#e0e0e0" stroke="#999999" points="99.5,-74 52.5,-74 52.5,-55 99.5,-55 99.5,-74"/>
<text text-anchor="middle" x="76" y="-62" font-family="Helvetica,sans-Serif" font-size="10.00">vector</text>
</a>
</g>
</g>
<!-- Node1&#45;&gt;Node10 -->
<g id="edge54_Node000001_Node000010" class="edge">
<title>Node1&#45;&gt;Node10</title>
<g id="a_edge54_Node000001_Node000010"><a xlink:title=" ">
<path fill="none" stroke="#63b8ff" d="M1214.62,-371.78C956.75,-372.11 0,-365 0,-241.5 0,-241.5 0,-241.5 0,-179 0,-138.03 34.62,-100.66 57.13,-80.69"/>
<polygon fill="#63b8ff" stroke="#63b8ff" points="59.46,-83.31 64.79,-74.15 54.91,-77.99 59.46,-83.31"/>
</a>
</g>
</g>
<!-- Node12 -->
<g id="Node000012" class="node">
<title>Node12</title>
<g id="a_Node000012"><a xlink:title=" ">
<polygon fill="#e0e0e0" stroke="#999999" points="812,-129 770,-129 770,-110 812,-110 812,-129"/>
<text text-anchor="middle" x="791" y="-117" font-family="Helvetica,sans-Serif" font-size="10.00">array</text>
</a>
</g>
</g>
<!-- Node1&#45;&gt;Node12 -->
<g id="edge47_Node000001_Node000012" class="edge">
<title>Node1&#45;&gt;Node12</title>
<g id="a_edge47_Node000001_Node000012"><a xlink:title=" ">
<path fill="none" stroke="#63b8ff" d="M1214.75,-368.06C1079.2,-359.18 768,-330.31 707,-250 676.79,-210.23 735.07,-159.74 769.02,-135.21"/>
<polygon fill="#63b8ff" stroke="#63b8ff" points="771.29,-137.9 777.46,-129.28 767.26,-132.17 771.29,-137.9"/>
</a>
</g>
</g>
<!-- Node15 -->
<g id="Node000015" class="node">
<title>Node15</title>
<g id="a_Node000015"><a xlink:title=" ">
<polygon fill="#e0e0e0" stroke="#999999" points="1337,-129 1285,-129 1285,-110 1337,-110 1337,-129"/>
<text text-anchor="middle" x="1311" y="-117" font-family="Helvetica,sans-Serif" font-size="10.00">cassert</text>
</a>
</g>
</g>
<!-- Node1&#45;&gt;Node15 -->
<g id="edge48_Node000001_Node000015" class="edge">
<title>Node1&#45;&gt;Node15</title>
<g id="a_edge48_Node000001_Node000015"><a xlink:title=" ">
<path fill="none" stroke="#63b8ff" d="M1293.2,-351.88C1300.09,-341.76 1307.46,-328.86 1311,-316 1328.21,-253.37 1319.69,-175.13 1314.29,-139.62"/>
<polygon fill="#63b8ff" stroke="#63b8ff" points="1317.67,-138.61 1312.62,-129.29 1310.76,-139.72 1317.67,-138.61"/>
</a>
</g>
</g>
<!-- Node16 -->
<g id="Node000016" class="node">
<title>Node16</title>
<g id="a_Node000016"><a xlink:title=" ">
<polygon fill="#e0e0e0" stroke="#999999" points="1144,-129 1094,-129 1094,-110 1144,-110 1144,-129"/>
<text text-anchor="middle" x="1119" y="-117" font-family="Helvetica,sans-Serif" font-size="10.00">cstdint</text>
</a>
</g>
</g>
<!-- Node1&#45;&gt;Node16 -->
<g id="edge50_Node000001_Node000016" class="edge">
<title>Node1&#45;&gt;Node16</title>
<g id="a_edge50_Node000001_Node000016"><a xlink:title=" ">
<path fill="none" stroke="#63b8ff" d="M1275.64,-352C1269.91,-312.24 1251.83,-220.89 1202,-165 1188.99,-150.41 1170.04,-139.74 1153.52,-132.52"/>
<polygon fill="#63b8ff" stroke="#63b8ff" points="1154.72,-129.23 1144.14,-128.66 1152.06,-135.7 1154.72,-129.23"/>
</a>
</g>
</g>
<!-- Node17 -->
<g id="Node000017" class="node">
<title>Node17</title>
<g id="a_Node000017"><a xlink:title=" ">
<polygon fill="#e0e0e0" stroke="#999999" points="1420.5,-129 1355.5,-129 1355.5,-110 1420.5,-110 1420.5,-129"/>
<text text-anchor="middle" x="1388" y="-117" font-family="Helvetica,sans-Serif" font-size="10.00">functional</text>
</a>
</g>
</g>
<!-- Node1&#45;&gt;Node17 -->
<g id="edge51_Node000001_Node000017" class="edge">
<title>Node1&#45;&gt;Node17</title>
<g id="a_edge51_Node000001_Node000017"><a xlink:title=" ">
<path fill="none" stroke="#63b8ff" d="M1299.6,-351.86C1309.43,-341.93 1320.52,-329.2 1328,-316 1361.8,-256.35 1378.75,-175.46 1385.03,-139.3"/>
<polygon fill="#63b8ff" stroke="#63b8ff" points="1388.52,-139.66 1386.71,-129.22 1381.62,-138.51 1388.52,-139.66"/>
</a>
</g>
</g>
<!-- Node21 -->
<g id="Node000021" class="node">
<title>Node21</title>
<g id="a_Node000021"><a xlink:title=" ">
<polygon fill="#e0e0e0" stroke="#999999" points="1193,-189.5 1135,-189.5 1135,-170.5 1193,-170.5 1193,-189.5"/>
<text text-anchor="middle" x="1164" y="-177.5" font-family="Helvetica,sans-Serif" font-size="10.00">memory</text>
</a>
</g>
</g>
<!-- Node1&#45;&gt;Node21 -->
<g id="edge52_Node000001_Node000021" class="edge">
<title>Node1&#45;&gt;Node21</title>
<g id="a_edge52_Node000001_Node000021"><a xlink:title=" ">
<path fill="none" stroke="#63b8ff" d="M1266.23,-351.83C1243.87,-314.47 1195.59,-233.8 1174.37,-198.33"/>
<polygon fill="#63b8ff" stroke="#63b8ff" points="1177.28,-196.38 1169.14,-189.6 1171.28,-199.97 1177.28,-196.38"/>
</a>
</g>
</g>
<!-- Node23 -->
<g id="Node000023" class="node">
<title>Node23</title>
<g id="a_Node000023"><a xlink:href="../../d8/d90/unfitted__domain__kd__tree_8hpp.html" target="_top" xlink:title="Declaration of of UnfittedDomain class.">
<polygon fill="white" stroke="#666666" points="1189.5,-316 1062.5,-316 1062.5,-286 1189.5,-286 1189.5,-316"/>
<text text-anchor="start" x="1070.5" y="-304" font-family="Helvetica,sans-Serif" font-size="10.00">qugar/unfitted_domain</text>
<text text-anchor="middle" x="1126" y="-293" font-family="Helvetica,sans-Serif" font-size="10.00">_kd_tree.hpp</text>
</a>
</g>
</g>
<!-- Node1&#45;&gt;Node23 -->
<g id="edge37_Node000001_Node000023" class="edge">
<title>Node1&#45;&gt;Node23</title>
<g id="a_edge37_Node000001_Node000023"><a xlink:title=" ">
<path fill="none" stroke="#63b8ff" d="M1235.26,-351.96C1213.53,-342.02 1187.29,-330.03 1165.98,-320.28"/>
<polygon fill="#63b8ff" stroke="#63b8ff" points="1167.42,-317.09 1156.87,-316.11 1164.5,-323.45 1167.42,-317.09"/>
</a>
</g>
</g>
<!-- Node24 -->
<g id="Node000024" class="node">
<title>Node24</title>
<g id="a_Node000024"><a xlink:title=" ">
<polygon fill="#e0e0e0" stroke="#999999" points="1570.5,-310.5 1477.5,-310.5 1477.5,-291.5 1570.5,-291.5 1570.5,-310.5"/>
<text text-anchor="middle" x="1524" y="-298.5" font-family="Helvetica,sans-Serif" font-size="10.00">unordered_map</text>
</a>
</g>
</g>
<!-- Node1&#45;&gt;Node24 -->
<g id="edge53_Node000001_Node000024" class="edge">
<title>Node1&#45;&gt;Node24</title>
<g id="a_edge53_Node000001_Node000024"><a xlink:title=" ">
<path fill="none" stroke="#63b8ff" d="M1341.03,-353.69C1385.99,-340.99 1445.09,-324.29 1483.79,-313.36"/>
<polygon fill="#63b8ff" stroke="#63b8ff" points="1484.98,-316.66 1493.65,-310.58 1483.07,-309.93 1484.98,-316.66"/>
</a>
</g>
</g>
<!-- Node3 -->
<g id="Node000003" class="node">
<title>Node3</title>
<g id="a_Node000003"><a xlink:href="../../d5/d90/bbox_8hpp.html" target="_top" xlink:title="Definition of Cartesian bounding box class.">
<polygon fill="white" stroke="#666666" points="635,-189.5 543,-189.5 543,-170.5 635,-170.5 635,-189.5"/>
<text text-anchor="middle" x="589" y="-177.5" font-family="Helvetica,sans-Serif" font-size="10.00">qugar/bbox.hpp</text>
</a>
</g>
</g>
<!-- Node2&#45;&gt;Node3 -->
<g id="edge2_Node000002_Node000003" class="edge">
<title>Node2&#45;&gt;Node3</title>
<g id="a_edge2_Node000002_Node000003"><a xlink:title=" ">
<path fill="none" stroke="#63b8ff" d="M751.37,-230.99C718.45,-220.86 663.27,-203.87 626.51,-192.55"/>
<polygon fill="#63b8ff" stroke="#63b8ff" points="627.25,-189.11 616.66,-189.52 625.19,-195.8 627.25,-189.11"/>
</a>
</g>
</g>
<!-- Node5 -->
<g id="Node000005" class="node">
<title>Node5</title>
<g id="a_Node000005"><a xlink:href="../../d0/de4/point_8hpp.html" target="_top" xlink:title="Definition and implementation of Point class.">
<polygon fill="white" stroke="#666666" points="341.5,-129 248.5,-129 248.5,-110 341.5,-110 341.5,-129"/>
<text text-anchor="middle" x="295" y="-117" font-family="Helvetica,sans-Serif" font-size="10.00">qugar/point.hpp</text>
</a>
</g>
</g>
<!-- Node2&#45;&gt;Node5 -->
<g id="edge15_Node000002_Node000005" class="edge">
<title>Node2&#45;&gt;Node5</title>
<g id="a_edge15_Node000002_Node000005"><a xlink:title=" ">
<path fill="none" stroke="#63b8ff" d="M715.97,-232.51C711.24,-232 706.55,-231.49 702,-231 625.14,-222.76 424.05,-231.67 356,-195 332.38,-182.27 314.4,-156.22 304.27,-138.55"/>
<polygon fill="#63b8ff" stroke="#63b8ff" points="307.08,-136.4 299.23,-129.29 300.93,-139.74 307.08,-136.4"/>
</a>
</g>
</g>
<!-- Node6 -->
<g id="Node000006" class="node">
<title>Node6</title>
<g id="a_Node000006"><a xlink:href="../../dd/de3/types_8hpp.html" target="_top" xlink:title="Declaration of types.">
<polygon fill="white" stroke="#666666" points="418.5,-74 323.5,-74 323.5,-55 418.5,-55 418.5,-74"/>
<text text-anchor="middle" x="371" y="-62" font-family="Helvetica,sans-Serif" font-size="10.00">qugar/types.hpp</text>
</a>
</g>
</g>
<!-- Node2&#45;&gt;Node6 -->
<g id="edge30_Node000002_Node000006" class="edge">
<title>Node2&#45;&gt;Node6</title>
<g id="a_edge30_Node000002_Node000006"><a xlink:title=" ">
<path fill="none" stroke="#63b8ff" d="M715.79,-232.39C665.7,-225.72 594.34,-213.89 534,-195 466.43,-173.84 435.15,-182.7 389,-129 378.38,-116.64 374,-98.42 372.21,-84.67"/>
<polygon fill="#63b8ff" stroke="#63b8ff" points="375.67,-84.01 371.24,-74.39 368.7,-84.67 375.67,-84.01"/>
</a>
</g>
</g>
<!-- Node2&#45;&gt;Node7 -->
<g id="edge32_Node000002_Node000007" class="edge">
<title>Node2&#45;&gt;Node7</title>
<g id="a_edge32_Node000002_Node000007"><a xlink:title=" ">
<path fill="none" stroke="#63b8ff" d="M832.57,-230.96C864.59,-224.32 905.27,-213.11 938,-195 955.34,-185.4 955.23,-177 971,-165 994.84,-146.85 1009.98,-152.94 1028,-129 1048.24,-102.12 1049.78,-88.15 1044,-55 1042.43,-46 1039.2,-36.42 1036.06,-28.46"/>
<polygon fill="#63b8ff" stroke="#63b8ff" points="1039.23,-26.97 1032.11,-19.12 1032.78,-29.69 1039.23,-26.97"/>
</a>
</g>
</g>
<!-- Node2&#45;&gt;Node10 -->
<g id="edge36_Node000002_Node000010" class="edge">
<title>Node2&#45;&gt;Node10</title>
<g id="a_edge36_Node000002_Node000010"><a xlink:title=" ">
<path fill="none" stroke="#63b8ff" d="M715.99,-232.31C711.26,-231.85 706.56,-231.4 702,-231 580.43,-220.3 263.71,-248.46 154,-195 118.63,-177.76 114.21,-163.34 95,-129 87.18,-115.02 82.24,-97.46 79.37,-84.36"/>
<polygon fill="#63b8ff" stroke="#63b8ff" points="82.73,-83.32 77.36,-74.19 75.87,-84.68 82.73,-83.32"/>
</a>
</g>
</g>
<!-- Node2&#45;&gt;Node12 -->
<g id="edge31_Node000002_Node000012" class="edge">
<title>Node2&#45;&gt;Node12</title>
<g id="a_edge31_Node000002_Node000012"><a xlink:title=" ">
<path fill="none" stroke="#63b8ff" d="M777.76,-230.72C776,-216.72 773.39,-188.53 777,-165 778.35,-156.19 781.13,-146.74 783.85,-138.82"/>
<polygon fill="#63b8ff" stroke="#63b8ff" points="787.23,-139.77 787.4,-129.18 780.66,-137.35 787.23,-139.77"/>
</a>
</g>
</g>
<!-- Node13 -->
<g id="Node000013" class="node">
<title>Node13</title>
<g id="a_Node000013"><a xlink:href="../../d9/d43/tensor__index__tp_8hpp.html" target="_top" xlink:title="Declaration of tensor&#45;product index and size related classes.">
<polygon fill="white" stroke="#666666" points="929,-195 819,-195 819,-165 929,-165 929,-195"/>
<text text-anchor="start" x="827" y="-183" font-family="Helvetica,sans-Serif" font-size="10.00">qugar/tensor_index</text>
<text text-anchor="middle" x="874" y="-172" font-family="Helvetica,sans-Serif" font-size="10.00">_tp.hpp</text>
</a>
</g>
</g>
<!-- Node2&#45;&gt;Node13 -->
<g id="edge16_Node000002_Node000013" class="edge">
<title>Node2&#45;&gt;Node13</title>
<g id="a_edge16_Node000002_Node000013"><a xlink:title=" ">
<path fill="none" stroke="#63b8ff" d="M793.02,-230.87C805.91,-222.93 825.49,-210.87 842.17,-200.6"/>
<polygon fill="#63b8ff" stroke="#63b8ff" points="844.4,-203.34 851.08,-195.11 840.73,-197.38 844.4,-203.34"/>
</a>
</g>
</g>
<!-- Node2&#45;&gt;Node16 -->
<g id="edge33_Node000002_Node000016" class="edge">
<title>Node2&#45;&gt;Node16</title>
<g id="a_edge33_Node000002_Node000016"><a xlink:title=" ">
<path fill="none" stroke="#63b8ff" d="M842.33,-231.06C880.73,-224.44 930.04,-213.21 971,-195 992.29,-185.53 993.61,-176.27 1014,-165 1037.04,-152.27 1064.46,-140.76 1085.51,-132.63"/>
<polygon fill="#63b8ff" stroke="#63b8ff" points="1086.88,-135.86 1094.98,-129.04 1084.39,-129.31 1086.88,-135.86"/>
</a>
</g>
</g>
<!-- Node19 -->
<g id="Node000019" class="node">
<title>Node19</title>
<g id="a_Node000019"><a xlink:href="../../d0/d55/tolerance_8hpp.html" target="_top" xlink:title="Definition of tolerance related functionalities.">
<polygon fill="white" stroke="#666666" points="277,-189.5 163,-189.5 163,-170.5 277,-170.5 277,-189.5"/>
<text text-anchor="middle" x="220" y="-177.5" font-family="Helvetica,sans-Serif" font-size="10.00">qugar/tolerance.hpp</text>
</a>
</g>
</g>
<!-- Node2&#45;&gt;Node19 -->
<g id="edge25_Node000002_Node000019" class="edge">
<title>Node2&#45;&gt;Node19</title>
<g id="a_edge25_Node000002_Node000019"><a xlink:title=" ">
<path fill="none" stroke="#63b8ff" d="M715.98,-232.44C711.25,-231.94 706.55,-231.46 702,-231 525.72,-213.28 480.75,-217.41 305,-195 296.27,-193.89 287.06,-192.55 278.05,-191.14"/>
<polygon fill="#63b8ff" stroke="#63b8ff" points="278.44,-187.66 268.01,-189.53 277.33,-194.57 278.44,-187.66"/>
</a>
</g>
</g>
<!-- Node2&#45;&gt;Node21 -->
<g id="edge34_Node000002_Node000021" class="edge">
<title>Node2&#45;&gt;Node21</title>
<g id="a_edge34_Node000002_Node000021"><a xlink:title=" ">
<path fill="none" stroke="#63b8ff" d="M842.14,-231.14C904.67,-222.69 1003.09,-208.93 1088,-195 1099.98,-193.03 1112.99,-190.71 1124.8,-188.52"/>
<polygon fill="#63b8ff" stroke="#63b8ff" points="1125.63,-191.93 1134.81,-186.65 1124.34,-185.05 1125.63,-191.93"/>
</a>
</g>
</g>
<!-- Node22 -->
<g id="Node000022" class="node">
<title>Node22</title>
<g id="a_Node000022"><a xlink:title=" ">
<polygon fill="#e0e0e0" stroke="#999999" points="1079,-189.5 1023,-189.5 1023,-170.5 1079,-170.5 1079,-189.5"/>
<text text-anchor="middle" x="1051" y="-177.5" font-family="Helvetica,sans-Serif" font-size="10.00">optional</text>
</a>
</g>
</g>
<!-- Node2&#45;&gt;Node22 -->
<g id="edge35_Node000002_Node000022" class="edge">
<title>Node2&#45;&gt;Node22</title>
<g id="a_edge35_Node000002_Node000022"><a xlink:title=" ">
<path fill="none" stroke="#63b8ff" d="M833.82,-230.97C880.71,-223.18 949.79,-210.52 1009,-195 1011.79,-194.27 1014.66,-193.45 1017.53,-192.59"/>
<polygon fill="#63b8ff" stroke="#63b8ff" points="1018.69,-195.89 1027.18,-189.54 1016.59,-189.22 1018.69,-195.89"/>
</a>
</g>
</g>
<!-- Node4 -->
<g id="Node000004" class="node">
<title>Node4</title>
<g id="a_Node000004"><a xlink:href="../../d7/dd8/concepts_8hpp.html" target="_top" xlink:title="Declaration of concepts.">
<polygon fill="white" stroke="#666666" points="510,-129 398,-129 398,-110 510,-110 510,-129"/>
<text text-anchor="middle" x="454" y="-117" font-family="Helvetica,sans-Serif" font-size="10.00">qugar/concepts.hpp</text>
</a>
</g>
</g>
<!-- Node3&#45;&gt;Node4 -->
<g id="edge3_Node000003_Node000004" class="edge">
<title>Node3&#45;&gt;Node4</title>
<g id="a_edge3_Node000003_Node000004"><a xlink:title=" ">
<path fill="none" stroke="#63b8ff" d="M569.37,-170.49C546.67,-160.66 509.1,-144.38 483.03,-133.08"/>
<polygon fill="#63b8ff" stroke="#63b8ff" points="484.22,-129.78 473.65,-129.02 481.44,-136.2 484.22,-129.78"/>
</a>
</g>
</g>
<!-- Node3&#45;&gt;Node5 -->
<g id="edge4_Node000003_Node000005" class="edge">
<title>Node3&#45;&gt;Node5</title>
<g id="a_edge4_Node000003_Node000005"><a xlink:title=" ">
<path fill="none" stroke="#63b8ff" d="M546.25,-170.49C493.67,-160.03 404.42,-142.27 347.66,-130.98"/>
<polygon fill="#63b8ff" stroke="#63b8ff" points="348.29,-127.54 337.8,-129.02 346.93,-134.4 348.29,-127.54"/>
</a>
</g>
</g>
<!-- Node3&#45;&gt;Node6 -->
<g id="edge11_Node000003_Node000006" class="edge">
<title>Node3&#45;&gt;Node6</title>
<g id="a_edge11_Node000003_Node000006"><a xlink:title=" ">
<path fill="none" stroke="#63b8ff" d="M619.76,-170.5C655.95,-159.02 708.35,-136.89 685,-110 668.48,-90.97 515.03,-76.4 428.92,-69.65"/>
<polygon fill="#63b8ff" stroke="#63b8ff" points="429.01,-66.14 418.77,-68.86 428.47,-73.12 429.01,-66.14"/>
</a>
</g>
</g>
<!-- Node3&#45;&gt;Node7 -->
<g id="edge14_Node000003_Node000007" class="edge">
<title>Node3&#45;&gt;Node7</title>
<g id="a_edge14_Node000003_Node000007"><a xlink:title=" ">
<path fill="none" stroke="#63b8ff" d="M609.85,-170.44C642.14,-157.23 706.24,-131.18 761,-110 844.91,-77.54 944.36,-40.98 994.91,-22.53"/>
<polygon fill="#63b8ff" stroke="#63b8ff" points="996.16,-25.8 1004.35,-19.09 993.76,-19.23 996.16,-25.8"/>
</a>
</g>
</g>
<!-- Node11 -->
<g id="Node000011" class="node">
<title>Node11</title>
<g id="a_Node000011"><a xlink:title=" ">
<polygon fill="#e0e0e0" stroke="#999999" points="676,-129 528,-129 528,-110 676,-110 676,-129"/>
<text text-anchor="middle" x="602" y="-117" font-family="Helvetica,sans-Serif" font-size="10.00">algoim/hyperrectangle.hpp</text>
</a>
</g>
</g>
<!-- Node3&#45;&gt;Node11 -->
<g id="edge12_Node000003_Node000011" class="edge">
<title>Node3&#45;&gt;Node11</title>
<g id="a_edge12_Node000003_Node000011"><a xlink:title=" ">
<path fill="none" stroke="#63b8ff" d="M590.92,-170.37C592.74,-162.16 595.55,-149.54 597.88,-139.05"/>
<polygon fill="#63b8ff" stroke="#63b8ff" points="601.32,-139.69 600.07,-129.17 594.49,-138.17 601.32,-139.69"/>
</a>
</g>
</g>
<!-- Node3&#45;&gt;Node12 -->
<g id="edge13_Node000003_Node000012" class="edge">
<title>Node3&#45;&gt;Node12</title>
<g id="a_edge13_Node000003_Node000012"><a xlink:title=" ">
<path fill="none" stroke="#63b8ff" d="M618.37,-170.49C656.24,-159.53 721.79,-140.54 760.29,-129.39"/>
<polygon fill="#63b8ff" stroke="#63b8ff" points="761.3,-132.75 769.93,-126.6 759.35,-126.02 761.3,-132.75"/>
</a>
</g>
</g>
<!-- Node5&#45;&gt;Node6 -->
<g id="edge5_Node000005_Node000006" class="edge">
<title>Node5&#45;&gt;Node6</title>
<g id="a_edge5_Node000005_Node000006"><a xlink:title=" ">
<path fill="none" stroke="#63b8ff" d="M307.21,-109.98C318.78,-101.92 336.38,-89.65 350.16,-80.03"/>
<polygon fill="#63b8ff" stroke="#63b8ff" points="352.37,-82.76 358.57,-74.17 348.36,-77.02 352.37,-82.76"/>
</a>
</g>
</g>
<!-- Node5&#45;&gt;Node7 -->
<g id="edge9_Node000005_Node000007" class="edge">
<title>Node5&#45;&gt;Node7</title>
<g id="a_edge9_Node000005_Node000007"><a xlink:title=" ">
<path fill="none" stroke="#63b8ff" d="M294.87,-109.82C295.18,-95.77 298.07,-68.25 315,-55 341.83,-34 848.08,-16.26 990.82,-11.66"/>
<polygon fill="#63b8ff" stroke="#63b8ff" points="991.34,-15.14 1001.22,-11.33 991.12,-8.15 991.34,-15.14"/>
</a>
</g>
</g>
<!-- Node8 -->
<g id="Node000008" class="node">
<title>Node8</title>
<g id="a_Node000008"><a xlink:href="../../da/d16/vector_8hpp.html" target="_top" xlink:title=" ">
<polygon fill="white" stroke="#666666" points="625,-74 527,-74 527,-55 625,-55 625,-74"/>
<text text-anchor="middle" x="576" y="-62" font-family="Helvetica,sans-Serif" font-size="10.00">qugar/vector.hpp</text>
</a>
</g>
</g>
<!-- Node5&#45;&gt;Node8 -->
<g id="edge7_Node000005_Node000008" class="edge">
<title>Node5&#45;&gt;Node8</title>
<g id="a_edge7_Node000005_Node000008"><a xlink:title=" ">
<path fill="none" stroke="#63b8ff" d="M340.15,-109.98C389.26,-100.72 467.82,-85.9 520.62,-75.94"/>
<polygon fill="#63b8ff" stroke="#63b8ff" points="521.32,-79.37 530.5,-74.08 520.02,-72.5 521.32,-79.37"/>
</a>
</g>
</g>
<!-- Node5&#45;&gt;Node10 -->
<g id="edge10_Node000005_Node000010" class="edge">
<title>Node5&#45;&gt;Node10</title>
<g id="a_edge10_Node000005_Node000010"><a xlink:title=" ">
<path fill="none" stroke="#63b8ff" d="M259.81,-109.98C218.44,-99.97 150.26,-83.47 109.59,-73.63"/>
<polygon fill="#63b8ff" stroke="#63b8ff" points="110.17,-70.17 99.63,-71.22 108.52,-76.97 110.17,-70.17"/>
</a>
</g>
</g>
<!-- Node6&#45;&gt;Node7 -->
<g id="edge6_Node000006_Node000007" class="edge">
<title>Node6&#45;&gt;Node7</title>
<g id="a_edge6_Node000006_Node000007"><a xlink:title=" ">
<path fill="none" stroke="#63b8ff" d="M418.51,-59.67C543.44,-49.59 879.18,-22.51 991.11,-13.48"/>
<polygon fill="#63b8ff" stroke="#63b8ff" points="991.55,-16.95 1001.23,-12.66 990.98,-9.97 991.55,-16.95"/>
</a>
</g>
</g>
<!-- Node9 -->
<g id="Node000009" class="node">
<title>Node9</title>
<g id="a_Node000009"><a xlink:title=" ">
<polygon fill="#e0e0e0" stroke="#999999" points="631,-19 521,-19 521,0 631,0 631,-19"/>
<text text-anchor="middle" x="576" y="-7" font-family="Helvetica,sans-Serif" font-size="10.00">algoim/uvector.hpp</text>
</a>
</g>
</g>
<!-- Node8&#45;&gt;Node9 -->
<g id="edge8_Node000008_Node000009" class="edge">
<title>Node8&#45;&gt;Node9</title>
<g id="a_edge8_Node000008_Node000009"><a xlink:title=" ">
<path fill="none" stroke="#63b8ff" d="M576,-54.75C576,-47.8 576,-37.85 576,-29.13"/>
<polygon fill="#63b8ff" stroke="#63b8ff" points="579.5,-29.09 576,-19.09 572.5,-29.09 579.5,-29.09"/>
</a>
</g>
</g>
<!-- Node13&#45;&gt;Node7 -->
<g id="edge21_Node000013_Node000007" class="edge">
<title>Node13&#45;&gt;Node7</title>
<g id="a_edge21_Node000013_Node000007"><a xlink:title=" ">
<path fill="none" stroke="#63b8ff" d="M928.07,-165C960.79,-155.42 998.21,-142.13 1009,-129 1032.39,-100.51 1032.53,-54.81 1030.38,-29.29"/>
<polygon fill="#63b8ff" stroke="#63b8ff" points="1033.84,-28.69 1029.31,-19.12 1026.87,-29.43 1033.84,-28.69"/>
</a>
</g>
</g>
<!-- Node13&#45;&gt;Node8 -->
<g id="edge18_Node000013_Node000008" class="edge">
<title>Node13&#45;&gt;Node8</title>
<g id="a_edge18_Node000013_Node000008"><a xlink:title=" ">
<path fill="none" stroke="#63b8ff" d="M867.2,-164.83C858.72,-148.8 842.66,-123.22 821,-110 790.54,-91.42 697.51,-78.3 635.25,-71.32"/>
<polygon fill="#63b8ff" stroke="#63b8ff" points="635.48,-67.83 625.16,-70.21 634.72,-74.79 635.48,-67.83"/>
</a>
</g>
</g>
<!-- Node13&#45;&gt;Node12 -->
<g id="edge19_Node000013_Node000012" class="edge">
<title>Node13&#45;&gt;Node12</title>
<g id="a_edge19_Node000013_Node000012"><a xlink:title=" ">
<path fill="none" stroke="#63b8ff" d="M853.91,-164.84C841.12,-155.83 824.6,-144.18 811.7,-135.09"/>
<polygon fill="#63b8ff" stroke="#63b8ff" points="813.63,-132.17 803.44,-129.27 809.59,-137.89 813.63,-132.17"/>
</a>
</g>
</g>
<!-- Node14 -->
<g id="Node000014" class="node">
<title>Node14</title>
<g id="a_Node000014"><a xlink:title=" ">
<polygon fill="#e0e0e0" stroke="#999999" points="912,-129 868,-129 868,-110 912,-110 912,-129"/>
<text text-anchor="middle" x="890" y="-117" font-family="Helvetica,sans-Serif" font-size="10.00">limits</text>
</a>
</g>
</g>
<!-- Node13&#45;&gt;Node14 -->
<g id="edge17_Node000013_Node000014" class="edge">
<title>Node13&#45;&gt;Node14</title>
<g id="a_edge17_Node000013_Node000014"><a xlink:title=" ">
<path fill="none" stroke="#63b8ff" d="M877.87,-164.84C879.98,-157.13 882.62,-147.49 884.89,-139.17"/>
<polygon fill="#63b8ff" stroke="#63b8ff" points="888.34,-139.84 887.6,-129.27 881.59,-137.99 888.34,-139.84"/>
</a>
</g>
</g>
<!-- Node13&#45;&gt;Node15 -->
<g id="edge20_Node000013_Node000015" class="edge">
<title>Node13&#45;&gt;Node15</title>
<g id="a_edge20_Node000013_Node000015"><a xlink:title=" ">
<path fill="none" stroke="#63b8ff" d="M929.35,-171.59C1020.16,-159.43 1198.33,-135.58 1274.76,-125.35"/>
<polygon fill="#63b8ff" stroke="#63b8ff" points="1275.41,-128.8 1284.86,-124 1274.48,-121.86 1275.41,-128.8"/>
</a>
</g>
</g>
<!-- Node13&#45;&gt;Node16 -->
<g id="edge22_Node000013_Node000016" class="edge">
<title>Node13&#45;&gt;Node16</title>
<g id="a_edge22_Node000013_Node000016"><a xlink:title=" ">
<path fill="none" stroke="#63b8ff" d="M929.29,-165.8C976.68,-154.48 1043.5,-138.53 1083.89,-128.88"/>
<polygon fill="#63b8ff" stroke="#63b8ff" points="1084.89,-132.24 1093.8,-126.52 1083.26,-125.43 1084.89,-132.24"/>
</a>
</g>
</g>
<!-- Node13&#45;&gt;Node17 -->
<g id="edge23_Node000013_Node000017" class="edge">
<title>Node13&#45;&gt;Node17</title>
<g id="a_edge23_Node000013_Node000017"><a xlink:title=" ">
<path fill="none" stroke="#63b8ff" d="M929.06,-173.46C1038.4,-162.43 1277.53,-138.07 1345.48,-128.84"/>
<polygon fill="#63b8ff" stroke="#63b8ff" points="1346.1,-132.29 1355.49,-127.39 1345.1,-125.36 1346.1,-132.29"/>
</a>
</g>
</g>
<!-- Node18 -->
<g id="Node000018" class="node">
<title>Node18</title>
<g id="a_Node000018"><a xlink:title=" ">
<polygon fill="#e0e0e0" stroke="#999999" points="999.5,-129 930.5,-129 930.5,-110 999.5,-110 999.5,-129"/>
<text text-anchor="middle" x="965" y="-117" font-family="Helvetica,sans-Serif" font-size="10.00">type_traits</text>
</a>
</g>
</g>
<!-- Node13&#45;&gt;Node18 -->
<g id="edge24_Node000013_Node000018" class="edge">
<title>Node13&#45;&gt;Node18</title>
<g id="a_edge24_Node000013_Node000018"><a xlink:title=" ">
<path fill="none" stroke="#63b8ff" d="M896.03,-164.84C910.27,-155.68 928.73,-143.82 942.97,-134.66"/>
<polygon fill="#63b8ff" stroke="#63b8ff" points="945.11,-137.45 951.63,-129.09 941.33,-131.56 945.11,-137.45"/>
</a>
</g>
</g>
<!-- Node19&#45;&gt;Node5 -->
<g id="edge26_Node000019_Node000005" class="edge">
<title>Node19&#45;&gt;Node5</title>
<g id="a_edge26_Node000019_Node000005"><a xlink:title=" ">
<path fill="none" stroke="#63b8ff" d="M231.07,-170.37C242.81,-161.21 261.59,-146.56 275.76,-135.51"/>
<polygon fill="#63b8ff" stroke="#63b8ff" points="278.16,-138.08 283.89,-129.17 273.85,-132.56 278.16,-138.08"/>
</a>
</g>
</g>
<!-- Node19&#45;&gt;Node6 -->
<g id="edge27_Node000019_Node000006" class="edge">
<title>Node19&#45;&gt;Node6</title>
<g id="a_edge27_Node000019_Node000006"><a xlink:title=" ">
<path fill="none" stroke="#63b8ff" d="M220.07,-170.11C220.68,-155.6 223.97,-126.77 240,-110 259.19,-89.92 287.78,-78.9 313.35,-72.85"/>
<polygon fill="#63b8ff" stroke="#63b8ff" points="314.31,-76.23 323.35,-70.7 312.84,-69.38 314.31,-76.23"/>
</a>
</g>
</g>
<!-- Node19&#45;&gt;Node10 -->
<g id="edge29_Node000019_Node000010" class="edge">
<title>Node19&#45;&gt;Node10</title>
<g id="a_edge29_Node000019_Node000010"><a xlink:title=" ">
<path fill="none" stroke="#63b8ff" d="M214.46,-170.42C205.05,-156.37 184.73,-128.18 162,-110 145.65,-96.92 124.85,-86.03 107.8,-78.3"/>
<polygon fill="#63b8ff" stroke="#63b8ff" points="108.83,-74.93 98.26,-74.12 106.02,-81.34 108.83,-74.93"/>
</a>
</g>
</g>
<!-- Node20 -->
<g id="Node000020" class="node">
<title>Node20</title>
<g id="a_Node000020"><a xlink:title=" ">
<polygon fill="#e0e0e0" stroke="#999999" points="153.5,-129 104.5,-129 104.5,-110 153.5,-110 153.5,-129"/>
<text text-anchor="middle" x="129" y="-117" font-family="Helvetica,sans-Serif" font-size="10.00">cstdlib</text>
</a>
</g>
</g>
<!-- Node19&#45;&gt;Node20 -->
<g id="edge28_Node000019_Node000020" class="edge">
<title>Node19&#45;&gt;Node20</title>
<g id="a_edge28_Node000019_Node000020"><a xlink:title=" ">
<path fill="none" stroke="#63b8ff" d="M206.57,-170.37C191.92,-160.95 168.24,-145.73 150.9,-134.58"/>
<polygon fill="#63b8ff" stroke="#63b8ff" points="152.79,-131.63 142.48,-129.17 149,-137.52 152.79,-131.63"/>
</a>
</g>
</g>
<!-- Node23&#45;&gt;Node2 -->
<g id="edge38_Node000023_Node000002" class="edge">
<title>Node23&#45;&gt;Node2</title>
<g id="a_edge38_Node000023_Node000002"><a xlink:title=" ">
<path fill="none" stroke="#63b8ff" d="M1062.35,-289.27C998.88,-278.57 902.07,-262.25 839.66,-251.73"/>
<polygon fill="#63b8ff" stroke="#63b8ff" points="840.01,-248.24 829.57,-250.03 838.85,-255.14 840.01,-248.24"/>
</a>
</g>
</g>
<!-- Node23&#45;&gt;Node7 -->
<g id="edge41_Node000023_Node000007" class="edge">
<title>Node23&#45;&gt;Node7</title>
<g id="a_edge41_Node000023_Node000007"><a xlink:title=" ">
<path fill="none" stroke="#63b8ff" d="M1143.93,-285.73C1171.62,-261.83 1219.81,-211.75 1202,-165 1175.52,-95.48 1097.1,-46.03 1055.16,-23.75"/>
<polygon fill="#63b8ff" stroke="#63b8ff" points="1056.56,-20.53 1046.07,-19.04 1053.34,-26.75 1056.56,-20.53"/>
</a>
</g>
</g>
<!-- Node23&#45;&gt;Node10 -->
<g id="edge46_Node000023_Node000010" class="edge">
<title>Node23&#45;&gt;Node10</title>
<g id="a_edge46_Node000023_Node000010"><a xlink:title=" ">
<path fill="none" stroke="#63b8ff" d="M1062.31,-297.05C852.22,-286.84 190.14,-250.51 113,-195 77.98,-169.8 74.22,-113.66 74.85,-84.26"/>
<polygon fill="#63b8ff" stroke="#63b8ff" points="78.36,-84.24 75.27,-74.11 71.36,-83.95 78.36,-84.24"/>
</a>
</g>
</g>
<!-- Node23&#45;&gt;Node12 -->
<g id="edge39_Node000023_Node000012" class="edge">
<title>Node23&#45;&gt;Node12</title>
<g id="a_edge39_Node000023_Node000012"><a xlink:title=" ">
<path fill="none" stroke="#63b8ff" d="M1062.17,-286.39C980.26,-267.69 844.57,-232.12 810,-195 795.96,-179.92 791.94,-155.94 790.97,-139.27"/>
<polygon fill="#63b8ff" stroke="#63b8ff" points="794.46,-139 790.69,-129.1 787.46,-139.19 794.46,-139"/>
</a>
</g>
</g>
<!-- Node23&#45;&gt;Node15 -->
<g id="edge40_Node000023_Node000015" class="edge">
<title>Node23&#45;&gt;Node15</title>
<g id="a_edge40_Node000023_Node000015"><a xlink:title=" ">
<path fill="none" stroke="#63b8ff" d="M1153.17,-285.97C1185.19,-268.32 1238.43,-235.38 1273,-195 1287.42,-178.15 1298.16,-154.89 1304.48,-138.86"/>
<polygon fill="#63b8ff" stroke="#63b8ff" points="1307.91,-139.68 1308.14,-129.09 1301.35,-137.23 1307.91,-139.68"/>
</a>
</g>
</g>
<!-- Node23&#45;&gt;Node16 -->
<g id="edge42_Node000023_Node000016" class="edge">
<title>Node23&#45;&gt;Node16</title>
<g id="a_edge42_Node000023_Node000016"><a xlink:title=" ">
<path fill="none" stroke="#63b8ff" d="M1125.45,-285.91C1124.2,-253.85 1121.14,-175.38 1119.73,-139.26"/>
<polygon fill="#63b8ff" stroke="#63b8ff" points="1123.22,-138.99 1119.34,-129.13 1116.23,-139.26 1123.22,-138.99"/>
</a>
</g>
</g>
<!-- Node23&#45;&gt;Node17 -->
<g id="edge43_Node000023_Node000017" class="edge">
<title>Node23&#45;&gt;Node17</title>
<g id="a_edge43_Node000023_Node000017"><a xlink:title=" ">
<path fill="none" stroke="#63b8ff" d="M1164.12,-285.99C1186.2,-277.11 1214.08,-264.57 1237,-250 1291.42,-215.42 1346.77,-162.41 1372.75,-136.23"/>
<polygon fill="#63b8ff" stroke="#63b8ff" points="1375.33,-138.61 1379.84,-129.02 1370.34,-133.7 1375.33,-138.61"/>
</a>
</g>
</g>
<!-- Node23&#45;&gt;Node21 -->
<g id="edge44_Node000023_Node000021" class="edge">
<title>Node23&#45;&gt;Node21</title>
<g id="a_edge44_Node000023_Node000021"><a xlink:title=" ">
<path fill="none" stroke="#63b8ff" d="M1130.51,-285.88C1137.4,-264.31 1150.54,-223.15 1158.15,-199.31"/>
<polygon fill="#63b8ff" stroke="#63b8ff" points="1161.51,-200.3 1161.22,-189.71 1154.84,-198.17 1161.51,-200.3"/>
</a>
</g>
</g>
<!-- Node23&#45;&gt;Node22 -->
<g id="edge45_Node000023_Node000022" class="edge">
<title>Node23&#45;&gt;Node22</title>
<g id="a_edge45_Node000023_Node000022"><a xlink:title=" ">
<path fill="none" stroke="#63b8ff" d="M1116.33,-285.65C1109.67,-275.7 1100.69,-262.12 1093,-250 1081.9,-232.49 1069.61,-212.18 1061.21,-198.16"/>
<polygon fill="#63b8ff" stroke="#63b8ff" points="1064.2,-196.35 1056.07,-189.56 1058.19,-199.94 1064.2,-196.35"/>
</a>
</g>
</g>
</g>
</svg>
