<?xml version="1.0" encoding="UTF-8" standalone="no"?>
<!DOCTYPE svg PUBLIC "-//W3C//DTD SVG 1.1//EN"
 "http://www.w3.org/Graphics/SVG/1.1/DTD/svg11.dtd">
<!-- Generated by graphviz version 2.43.0 (0)
 -->
<!-- Title: /__w/qugar/qugar/cpp/include/qugar/unfitted_domain.hpp Pages: 1 -->
<svg width="1355pt" height="335pt"
 viewBox="0.00 0.00 1354.50 335.00" xmlns="http://www.w3.org/2000/svg" xmlns:xlink="http://www.w3.org/1999/xlink">
<g id="graph0" class="graph" transform="scale(1 1) rotate(0) translate(4 331)">
<title>/__w/qugar/qugar/cpp/include/qugar/unfitted_domain.hpp</title>
<!-- Node1 -->
<g id="Node000001" class="node">
<title>Node1</title>
<g id="a_Node000001"><a xlink:title="Declaration of of UnfittedDomain class.">
<polygon fill="#999999" stroke="#666666" points="1025,-327 899,-327 899,-286 1025,-286 1025,-327"/>
<text text-anchor="start" x="907" y="-315" font-family="Helvetica,sans-Serif" font-size="10.00">/__w/qugar/qugar/cpp</text>
<text text-anchor="start" x="907" y="-304" font-family="Helvetica,sans-Serif" font-size="10.00">/include/qugar/unfitted</text>
<text text-anchor="middle" x="962" y="-293" font-family="Helvetica,sans-Serif" font-size="10.00">_domain.hpp</text>
</a>
</g>
</g>
<!-- Node2 -->
<g id="Node000002" class="node">
<title>Node2</title>
<g id="a_Node000002"><a xlink:href="../../d6/d49/cart__grid__tp_8hpp.html" target="_top" xlink:title="Definition of Cartesian grid class.">
<polygon fill="white" stroke="#666666" points="888,-250 762,-250 762,-231 888,-231 888,-250"/>
<text text-anchor="middle" x="825" y="-238" font-family="Helvetica,sans-Serif" font-size="10.00">qugar/cart_grid_tp.hpp</text>
</a>
</g>
</g>
<!-- Node1&#45;&gt;Node2 -->
<g id="edge1_Node000001_Node000002" class="edge">
<title>Node1&#45;&gt;Node2</title>
<g id="a_edge1_Node000001_Node000002"><a xlink:title=" ">
<path fill="none" stroke="#63b8ff" d="M920.15,-285.95C898.21,-275.7 871.94,-263.43 852.57,-254.38"/>
<polygon fill="#63b8ff" stroke="#63b8ff" points="853.93,-251.15 843.39,-250.09 850.97,-257.5 853.93,-251.15"/>
</a>
</g>
</g>
<!-- Node7 -->
<g id="Node000007" class="node">
<title>Node7</title>
<g id="a_Node000007"><a xlink:title=" ">
<polygon fill="#e0e0e0" stroke="#999999" points="435.5,-19 382.5,-19 382.5,0 435.5,0 435.5,-19"/>
<text text-anchor="middle" x="409" y="-7" font-family="Helvetica,sans-Serif" font-size="10.00">cstddef</text>
</a>
</g>
</g>
<!-- Node1&#45;&gt;Node7 -->
<g id="edge36_Node000001_Node000007" class="edge">
<title>Node1&#45;&gt;Node7</title>
<g id="a_edge36_Node000001_Node000007"><a xlink:title=" ">
<path fill="none" stroke="#63b8ff" d="M898.88,-303.99C684.86,-298.05 0,-271.94 0,-181 0,-181 0,-181 0,-118.5 0,-41.88 271.69,-18.42 372.2,-12.35"/>
<polygon fill="#63b8ff" stroke="#63b8ff" points="372.7,-15.83 382.48,-11.76 372.29,-8.84 372.7,-15.83"/>
</a>
</g>
</g>
<!-- Node10 -->
<g id="Node000010" class="node">
<title>Node10</title>
<g id="a_Node000010"><a xlink:title=" ">
<polygon fill="#e0e0e0" stroke="#999999" points="1089.5,-74 1042.5,-74 1042.5,-55 1089.5,-55 1089.5,-74"/>
<text text-anchor="middle" x="1066" y="-62" font-family="Helvetica,sans-Serif" font-size="10.00">vector</text>
</a>
</g>
</g>
<!-- Node1&#45;&gt;Node10 -->
<g id="edge40_Node000001_Node000010" class="edge">
<title>Node1&#45;&gt;Node10</title>
<g id="a_edge40_Node000001_Node000010"><a xlink:title=" ">
<path fill="none" stroke="#63b8ff" d="M1020.87,-285.95C1061.77,-268.93 1113.21,-239.83 1138,-195 1160.88,-153.61 1113.76,-104.88 1085.39,-80.7"/>
<polygon fill="#63b8ff" stroke="#63b8ff" points="1087.56,-77.95 1077.62,-74.29 1083.1,-83.35 1087.56,-77.95"/>
</a>
</g>
</g>
<!-- Node12 -->
<g id="Node000012" class="node">
<title>Node12</title>
<g id="a_Node000012"><a xlink:title=" ">
<polygon fill="#e0e0e0" stroke="#999999" points="349,-129 307,-129 307,-110 349,-110 349,-129"/>
<text text-anchor="middle" x="328" y="-117" font-family="Helvetica,sans-Serif" font-size="10.00">array</text>
</a>
</g>
</g>
<!-- Node1&#45;&gt;Node12 -->
<g id="edge34_Node000001_Node000012" class="edge">
<title>Node1&#45;&gt;Node12</title>
<g id="a_edge34_Node000001_Node000012"><a xlink:title=" ">
<path fill="none" stroke="#63b8ff" d="M898.87,-302.7C758.23,-295.17 425.28,-269.69 346,-195 330.97,-180.84 327.55,-156.47 327.18,-139.47"/>
<polygon fill="#63b8ff" stroke="#63b8ff" points="330.69,-139.14 327.31,-129.1 323.69,-139.05 330.69,-139.14"/>
</a>
</g>
</g>
<!-- Node14 -->
<g id="Node000014" class="node">
<title>Node14</title>
<g id="a_Node000014"><a xlink:title=" ">
<polygon fill="#e0e0e0" stroke="#999999" points="289,-129 237,-129 237,-110 289,-110 289,-129"/>
<text text-anchor="middle" x="263" y="-117" font-family="Helvetica,sans-Serif" font-size="10.00">cassert</text>
</a>
</g>
</g>
<!-- Node1&#45;&gt;Node14 -->
<g id="edge35_Node000001_Node000014" class="edge">
<title>Node1&#45;&gt;Node14</title>
<g id="a_edge35_Node000001_Node000014"><a xlink:title=" ">
<path fill="none" stroke="#63b8ff" d="M898.68,-303.07C773.07,-297.6 496.82,-282.24 408,-250 347.62,-228.08 296.88,-167.18 274.81,-137.37"/>
<polygon fill="#63b8ff" stroke="#63b8ff" points="277.6,-135.26 268.91,-129.2 271.93,-139.35 277.6,-135.26"/>
</a>
</g>
</g>
<!-- Node19 -->
<g id="Node000019" class="node">
<title>Node19</title>
<g id="a_Node000019"><a xlink:title=" ">
<polygon fill="#e0e0e0" stroke="#999999" points="1129,-189.5 1071,-189.5 1071,-170.5 1129,-170.5 1129,-189.5"/>
<text text-anchor="middle" x="1100" y="-177.5" font-family="Helvetica,sans-Serif" font-size="10.00">memory</text>
</a>
</g>
</g>
<!-- Node1&#45;&gt;Node19 -->
<g id="edge38_Node000001_Node000019" class="edge">
<title>Node1&#45;&gt;Node19</title>
<g id="a_edge38_Node000001_Node000019"><a xlink:title=" ">
<path fill="none" stroke="#63b8ff" d="M983.87,-285.77C1011.32,-261.01 1057.83,-219.05 1082.85,-196.47"/>
<polygon fill="#63b8ff" stroke="#63b8ff" points="1085.37,-198.91 1090.45,-189.61 1080.68,-193.71 1085.37,-198.91"/>
</a>
</g>
</g>
<!-- Node21 -->
<g id="Node000021" class="node">
<title>Node21</title>
<g id="a_Node000021"><a xlink:title=" ">
<polygon fill="#e0e0e0" stroke="#999999" points="1235,-250 1185,-250 1185,-231 1235,-231 1235,-250"/>
<text text-anchor="middle" x="1210" y="-238" font-family="Helvetica,sans-Serif" font-size="10.00">cstdint</text>
</a>
</g>
</g>
<!-- Node1&#45;&gt;Node21 -->
<g id="edge37_Node000001_Node000021" class="edge">
<title>Node1&#45;&gt;Node21</title>
<g id="a_edge37_Node000001_Node000021"><a xlink:title=" ">
<path fill="none" stroke="#63b8ff" d="M1025.22,-289.18C1072.78,-276.91 1136.18,-260.55 1175,-250.53"/>
<polygon fill="#63b8ff" stroke="#63b8ff" points="1175.97,-253.9 1184.78,-248.01 1174.23,-247.12 1175.97,-253.9"/>
</a>
</g>
</g>
<!-- Node22 -->
<g id="Node000022" class="node">
<title>Node22</title>
<g id="a_Node000022"><a xlink:title=" ">
<polygon fill="#e0e0e0" stroke="#999999" points="1346.5,-250 1253.5,-250 1253.5,-231 1346.5,-231 1346.5,-250"/>
<text text-anchor="middle" x="1300" y="-238" font-family="Helvetica,sans-Serif" font-size="10.00">unordered_map</text>
</a>
</g>
</g>
<!-- Node1&#45;&gt;Node22 -->
<g id="edge39_Node000001_Node000022" class="edge">
<title>Node1&#45;&gt;Node22</title>
<g id="a_edge39_Node000001_Node000022"><a xlink:title=" ">
<path fill="none" stroke="#63b8ff" d="M1025.18,-293.54C1088.4,-281.57 1184.67,-263.34 1244.88,-251.94"/>
<polygon fill="#63b8ff" stroke="#63b8ff" points="1245.78,-255.33 1254.96,-250.03 1244.48,-248.45 1245.78,-255.33"/>
</a>
</g>
</g>
<!-- Node3 -->
<g id="Node000003" class="node">
<title>Node3</title>
<g id="a_Node000003"><a xlink:href="../../d5/d90/bbox_8hpp.html" target="_top" xlink:title="Definition of Cartesian bounding box class.">
<polygon fill="white" stroke="#666666" points="723,-189.5 631,-189.5 631,-170.5 723,-170.5 723,-189.5"/>
<text text-anchor="middle" x="677" y="-177.5" font-family="Helvetica,sans-Serif" font-size="10.00">qugar/bbox.hpp</text>
</a>
</g>
</g>
<!-- Node2&#45;&gt;Node3 -->
<g id="edge2_Node000002_Node000003" class="edge">
<title>Node2&#45;&gt;Node3</title>
<g id="a_edge2_Node000002_Node000003"><a xlink:title=" ">
<path fill="none" stroke="#63b8ff" d="M803.48,-230.99C778.38,-221.07 736.68,-204.59 708.07,-193.28"/>
<polygon fill="#63b8ff" stroke="#63b8ff" points="709.13,-189.94 698.55,-189.52 706.56,-196.45 709.13,-189.94"/>
</a>
</g>
</g>
<!-- Node5 -->
<g id="Node000005" class="node">
<title>Node5</title>
<g id="a_Node000005"><a xlink:href="../../d0/de4/point_8hpp.html" target="_top" xlink:title="Definition and implementation of Point class.">
<polygon fill="white" stroke="#666666" points="946.5,-129 853.5,-129 853.5,-110 946.5,-110 946.5,-129"/>
<text text-anchor="middle" x="900" y="-117" font-family="Helvetica,sans-Serif" font-size="10.00">qugar/point.hpp</text>
</a>
</g>
</g>
<!-- Node2&#45;&gt;Node5 -->
<g id="edge15_Node000002_Node000005" class="edge">
<title>Node2&#45;&gt;Node5</title>
<g id="a_edge15_Node000002_Node000005"><a xlink:title=" ">
<path fill="none" stroke="#63b8ff" d="M830.39,-230.94C842.6,-211.57 872.57,-164.02 888.92,-138.08"/>
<polygon fill="#63b8ff" stroke="#63b8ff" points="892.08,-139.63 894.45,-129.3 886.16,-135.9 892.08,-139.63"/>
</a>
</g>
</g>
<!-- Node6 -->
<g id="Node000006" class="node">
<title>Node6</title>
<g id="a_Node000006"><a xlink:href="../../dd/de3/types_8hpp.html" target="_top" xlink:title="Declaration of types.">
<polygon fill="white" stroke="#666666" points="871.5,-74 776.5,-74 776.5,-55 871.5,-55 871.5,-74"/>
<text text-anchor="middle" x="824" y="-62" font-family="Helvetica,sans-Serif" font-size="10.00">qugar/types.hpp</text>
</a>
</g>
</g>
<!-- Node2&#45;&gt;Node6 -->
<g id="edge28_Node000002_Node000006" class="edge">
<title>Node2&#45;&gt;Node6</title>
<g id="a_edge28_Node000002_Node000006"><a xlink:title=" ">
<path fill="none" stroke="#63b8ff" d="M824.95,-230.63C824.79,-203.64 824.32,-122.03 824.11,-84.61"/>
<polygon fill="#63b8ff" stroke="#63b8ff" points="827.61,-84.12 824.05,-74.14 820.61,-84.16 827.61,-84.12"/>
</a>
</g>
</g>
<!-- Node2&#45;&gt;Node7 -->
<g id="edge30_Node000002_Node000007" class="edge">
<title>Node2&#45;&gt;Node7</title>
<g id="a_edge30_Node000002_Node000007"><a xlink:title=" ">
<path fill="none" stroke="#63b8ff" d="M761.74,-236.5C680.52,-229.48 539.41,-206.16 450,-129 420.57,-103.6 412.25,-55.98 409.91,-29.49"/>
<polygon fill="#63b8ff" stroke="#63b8ff" points="413.38,-29 409.21,-19.26 406.4,-29.48 413.38,-29"/>
</a>
</g>
</g>
<!-- Node2&#45;&gt;Node10 -->
<g id="edge33_Node000002_Node000010" class="edge">
<title>Node2&#45;&gt;Node10</title>
<g id="a_edge33_Node000002_Node000010"><a xlink:title=" ">
<path fill="none" stroke="#63b8ff" d="M888.25,-233.54C928.79,-227.79 981.57,-216.6 1024,-195 1028.95,-192.48 1096.71,-134.06 1099,-129 1106.39,-112.66 1094.95,-94.55 1083.57,-81.87"/>
<polygon fill="#63b8ff" stroke="#63b8ff" points="1085.77,-79.12 1076.29,-74.39 1080.76,-84 1085.77,-79.12"/>
</a>
</g>
</g>
<!-- Node2&#45;&gt;Node12 -->
<g id="edge29_Node000002_Node000012" class="edge">
<title>Node2&#45;&gt;Node12</title>
<g id="a_edge29_Node000002_Node000012"><a xlink:title=" ">
<path fill="none" stroke="#63b8ff" d="M761.92,-239.65C654.65,-238.86 442.18,-232.44 379,-195 357.36,-182.17 342.81,-156.15 334.96,-138.51"/>
<polygon fill="#63b8ff" stroke="#63b8ff" points="338.19,-137.15 331.11,-129.26 331.72,-139.84 338.19,-137.15"/>
</a>
</g>
</g>
<!-- Node13 -->
<g id="Node000013" class="node">
<title>Node13</title>
<g id="a_Node000013"><a xlink:href="../../d9/d43/tensor__index__tp_8hpp.html" target="_top" xlink:title="Declaration of tensor&#45;product index and size related classes.">
<polygon fill="white" stroke="#666666" points="251,-195 141,-195 141,-165 251,-165 251,-195"/>
<text text-anchor="start" x="149" y="-183" font-family="Helvetica,sans-Serif" font-size="10.00">qugar/tensor_index</text>
<text text-anchor="middle" x="196" y="-172" font-family="Helvetica,sans-Serif" font-size="10.00">_tp.hpp</text>
</a>
</g>
</g>
<!-- Node2&#45;&gt;Node13 -->
<g id="edge16_Node000002_Node000013" class="edge">
<title>Node2&#45;&gt;Node13</title>
<g id="a_edge16_Node000002_Node000013"><a xlink:title=" ">
<path fill="none" stroke="#63b8ff" d="M761.95,-233.8C669.57,-225.42 492.01,-209.23 341,-195 314.89,-192.54 286.13,-189.77 261.17,-187.36"/>
<polygon fill="#63b8ff" stroke="#63b8ff" points="261.37,-183.86 251.08,-186.38 260.69,-190.83 261.37,-183.86"/>
</a>
</g>
</g>
<!-- Node17 -->
<g id="Node000017" class="node">
<title>Node17</title>
<g id="a_Node000017"><a xlink:href="../../d0/d55/tolerance_8hpp.html" target="_top" xlink:title="Definition of tolerance related functionalities.">
<polygon fill="white" stroke="#666666" points="1015,-189.5 901,-189.5 901,-170.5 1015,-170.5 1015,-189.5"/>
<text text-anchor="middle" x="958" y="-177.5" font-family="Helvetica,sans-Serif" font-size="10.00">qugar/tolerance.hpp</text>
</a>
</g>
</g>
<!-- Node2&#45;&gt;Node17 -->
<g id="edge23_Node000002_Node000017" class="edge">
<title>Node2&#45;&gt;Node17</title>
<g id="a_edge23_Node000002_Node000017"><a xlink:title=" ">
<path fill="none" stroke="#63b8ff" d="M844.34,-230.99C866.7,-221.16 903.71,-204.88 929.4,-193.58"/>
<polygon fill="#63b8ff" stroke="#63b8ff" points="930.89,-196.75 938.64,-189.52 928.07,-190.34 930.89,-196.75"/>
</a>
</g>
</g>
<!-- Node2&#45;&gt;Node19 -->
<g id="edge31_Node000002_Node000019" class="edge">
<title>Node2&#45;&gt;Node19</title>
<g id="a_edge31_Node000002_Node000019"><a xlink:title=" ">
<path fill="none" stroke="#63b8ff" d="M879.8,-230.98C927.09,-223.16 997.03,-210.45 1057,-195 1059.95,-194.24 1062.99,-193.39 1066.02,-192.5"/>
<polygon fill="#63b8ff" stroke="#63b8ff" points="1067.08,-195.83 1075.6,-189.53 1065.01,-189.14 1067.08,-195.83"/>
</a>
</g>
</g>
<!-- Node20 -->
<g id="Node000020" class="node">
<title>Node20</title>
<g id="a_Node000020"><a xlink:title=" ">
<polygon fill="#e0e0e0" stroke="#999999" points="797,-189.5 741,-189.5 741,-170.5 797,-170.5 797,-189.5"/>
<text text-anchor="middle" x="769" y="-177.5" font-family="Helvetica,sans-Serif" font-size="10.00">optional</text>
</a>
</g>
</g>
<!-- Node2&#45;&gt;Node20 -->
<g id="edge32_Node000002_Node000020" class="edge">
<title>Node2&#45;&gt;Node20</title>
<g id="a_edge32_Node000002_Node000020"><a xlink:title=" ">
<path fill="none" stroke="#63b8ff" d="M816.74,-230.87C808.22,-221.97 794.74,-207.89 784.27,-196.95"/>
<polygon fill="#63b8ff" stroke="#63b8ff" points="786.74,-194.47 777.3,-189.67 781.68,-199.31 786.74,-194.47"/>
</a>
</g>
</g>
<!-- Node4 -->
<g id="Node000004" class="node">
<title>Node4</title>
<g id="a_Node000004"><a xlink:href="../../d7/dd8/concepts_8hpp.html" target="_top" xlink:title="Declaration of concepts.">
<polygon fill="white" stroke="#666666" points="759,-129 647,-129 647,-110 759,-110 759,-129"/>
<text text-anchor="middle" x="703" y="-117" font-family="Helvetica,sans-Serif" font-size="10.00">qugar/concepts.hpp</text>
</a>
</g>
</g>
<!-- Node3&#45;&gt;Node4 -->
<g id="edge3_Node000003_Node000004" class="edge">
<title>Node3&#45;&gt;Node4</title>
<g id="a_edge3_Node000003_Node000004"><a xlink:title=" ">
<path fill="none" stroke="#63b8ff" d="M680.84,-170.37C684.56,-161.99 690.33,-149.01 695.05,-138.39"/>
<polygon fill="#63b8ff" stroke="#63b8ff" points="698.28,-139.73 699.15,-129.17 691.89,-136.88 698.28,-139.73"/>
</a>
</g>
</g>
<!-- Node3&#45;&gt;Node5 -->
<g id="edge4_Node000003_Node000005" class="edge">
<title>Node3&#45;&gt;Node5</title>
<g id="a_edge4_Node000003_Node000005"><a xlink:title=" ">
<path fill="none" stroke="#63b8ff" d="M709.43,-170.49C748.57,-160.23 814.49,-142.93 857.63,-131.62"/>
<polygon fill="#63b8ff" stroke="#63b8ff" points="858.75,-134.94 867.53,-129.02 856.97,-128.17 858.75,-134.94"/>
</a>
</g>
</g>
<!-- Node3&#45;&gt;Node6 -->
<g id="edge11_Node000003_Node000006" class="edge">
<title>Node3&#45;&gt;Node6</title>
<g id="a_edge11_Node000003_Node000006"><a xlink:title=" ">
<path fill="none" stroke="#63b8ff" d="M697.02,-170.46C716.32,-161.68 745.77,-146.8 768,-129 785.13,-115.28 801.33,-95.97 811.85,-82.25"/>
<polygon fill="#63b8ff" stroke="#63b8ff" points="814.72,-84.26 817.9,-74.16 809.11,-80.07 814.72,-84.26"/>
</a>
</g>
</g>
<!-- Node3&#45;&gt;Node7 -->
<g id="edge14_Node000003_Node000007" class="edge">
<title>Node3&#45;&gt;Node7</title>
<g id="a_edge14_Node000003_Node000007"><a xlink:title=" ">
<path fill="none" stroke="#63b8ff" d="M630.82,-178.3C585.93,-175.38 517.99,-164.74 472,-129 439,-103.35 421.32,-55.47 413.68,-29.1"/>
<polygon fill="#63b8ff" stroke="#63b8ff" points="417.01,-27.98 411.01,-19.25 410.25,-29.81 417.01,-27.98"/>
</a>
</g>
</g>
<!-- Node11 -->
<g id="Node000011" class="node">
<title>Node11</title>
<g id="a_Node000011"><a xlink:title=" ">
<polygon fill="#e0e0e0" stroke="#999999" points="629,-129 481,-129 481,-110 629,-110 629,-129"/>
<text text-anchor="middle" x="555" y="-117" font-family="Helvetica,sans-Serif" font-size="10.00">algoim/hyperrectangle.hpp</text>
</a>
</g>
</g>
<!-- Node3&#45;&gt;Node11 -->
<g id="edge12_Node000003_Node000011" class="edge">
<title>Node3&#45;&gt;Node11</title>
<g id="a_edge12_Node000003_Node000011"><a xlink:title=" ">
<path fill="none" stroke="#63b8ff" d="M659.26,-170.49C638.93,-160.75 605.39,-144.66 581.86,-133.38"/>
<polygon fill="#63b8ff" stroke="#63b8ff" points="583.29,-130.18 572.76,-129.02 580.26,-136.5 583.29,-130.18"/>
</a>
</g>
</g>
<!-- Node3&#45;&gt;Node12 -->
<g id="edge13_Node000003_Node000012" class="edge">
<title>Node3&#45;&gt;Node12</title>
<g id="a_edge13_Node000003_Node000012"><a xlink:title=" ">
<path fill="none" stroke="#63b8ff" d="M630.66,-171.23C558.44,-159.13 420.96,-136.08 359.3,-125.75"/>
<polygon fill="#63b8ff" stroke="#63b8ff" points="359.82,-122.29 349.38,-124.08 358.67,-129.19 359.82,-122.29"/>
</a>
</g>
</g>
<!-- Node5&#45;&gt;Node6 -->
<g id="edge5_Node000005_Node000006" class="edge">
<title>Node5&#45;&gt;Node6</title>
<g id="a_edge5_Node000005_Node000006"><a xlink:title=" ">
<path fill="none" stroke="#63b8ff" d="M887.79,-109.98C876.22,-101.92 858.62,-89.65 844.84,-80.03"/>
<polygon fill="#63b8ff" stroke="#63b8ff" points="846.64,-77.02 836.43,-74.17 842.63,-82.76 846.64,-77.02"/>
</a>
</g>
</g>
<!-- Node5&#45;&gt;Node7 -->
<g id="edge9_Node000005_Node000007" class="edge">
<title>Node5&#45;&gt;Node7</title>
<g id="a_edge9_Node000005_Node000007"><a xlink:title=" ">
<path fill="none" stroke="#63b8ff" d="M900.09,-109.88C899.72,-95.89 896.75,-68.47 880,-55 809.94,1.35 566.4,-28.58 477,-19 466.9,-17.92 455.98,-16.61 445.9,-15.35"/>
<polygon fill="#63b8ff" stroke="#63b8ff" points="446.14,-11.86 435.78,-14.07 445.26,-18.8 446.14,-11.86"/>
</a>
</g>
</g>
<!-- Node8 -->
<g id="Node000008" class="node">
<title>Node8</title>
<g id="a_Node000008"><a xlink:href="../../da/d16/vector_8hpp.html" target="_top" xlink:title=" ">
<polygon fill="white" stroke="#666666" points="590,-74 492,-74 492,-55 590,-55 590,-74"/>
<text text-anchor="middle" x="541" y="-62" font-family="Helvetica,sans-Serif" font-size="10.00">qugar/vector.hpp</text>
</a>
</g>
</g>
<!-- Node5&#45;&gt;Node8 -->
<g id="edge7_Node000005_Node000008" class="edge">
<title>Node5&#45;&gt;Node8</title>
<g id="a_edge7_Node000005_Node000008"><a xlink:title=" ">
<path fill="none" stroke="#63b8ff" d="M853.44,-111.63C788.61,-102.06 671.15,-84.71 600.19,-74.24"/>
<polygon fill="#63b8ff" stroke="#63b8ff" points="600.47,-70.74 590.07,-72.74 599.45,-77.67 600.47,-70.74"/>
</a>
</g>
</g>
<!-- Node5&#45;&gt;Node10 -->
<g id="edge10_Node000005_Node000010" class="edge">
<title>Node5&#45;&gt;Node10</title>
<g id="a_edge10_Node000005_Node000010"><a xlink:title=" ">
<path fill="none" stroke="#63b8ff" d="M926.67,-109.98C955.53,-100.77 1001.6,-86.06 1032.79,-76.1"/>
<polygon fill="#63b8ff" stroke="#63b8ff" points="1033.89,-79.43 1042.35,-73.05 1031.76,-72.76 1033.89,-79.43"/>
</a>
</g>
</g>
<!-- Node6&#45;&gt;Node7 -->
<g id="edge6_Node000006_Node000007" class="edge">
<title>Node6&#45;&gt;Node7</title>
<g id="a_edge6_Node000006_Node000007"><a xlink:title=" ">
<path fill="none" stroke="#63b8ff" d="M776.39,-57.42C692.62,-46.72 520.61,-24.75 445.47,-15.16"/>
<polygon fill="#63b8ff" stroke="#63b8ff" points="445.89,-11.68 435.53,-13.89 445.01,-18.63 445.89,-11.68"/>
</a>
</g>
</g>
<!-- Node9 -->
<g id="Node000009" class="node">
<title>Node9</title>
<g id="a_Node000009"><a xlink:title=" ">
<polygon fill="#e0e0e0" stroke="#999999" points="596,-19 486,-19 486,0 596,0 596,-19"/>
<text text-anchor="middle" x="541" y="-7" font-family="Helvetica,sans-Serif" font-size="10.00">algoim/uvector.hpp</text>
</a>
</g>
</g>
<!-- Node8&#45;&gt;Node9 -->
<g id="edge8_Node000008_Node000009" class="edge">
<title>Node8&#45;&gt;Node9</title>
<g id="a_edge8_Node000008_Node000009"><a xlink:title=" ">
<path fill="none" stroke="#63b8ff" d="M541,-54.75C541,-47.8 541,-37.85 541,-29.13"/>
<polygon fill="#63b8ff" stroke="#63b8ff" points="544.5,-29.09 541,-19.09 537.5,-29.09 544.5,-29.09"/>
</a>
</g>
</g>
<!-- Node13&#45;&gt;Node7 -->
<g id="edge20_Node000013_Node000007" class="edge">
<title>Node13&#45;&gt;Node7</title>
<g id="a_edge20_Node000013_Node000007"><a xlink:title=" ">
<path fill="none" stroke="#63b8ff" d="M140.59,-171.59C91.41,-162.62 31.07,-144.27 57,-110 95.45,-59.18 289.97,-26.89 372.21,-15.31"/>
<polygon fill="#63b8ff" stroke="#63b8ff" points="372.92,-18.74 382.35,-13.9 371.97,-11.81 372.92,-18.74"/>
</a>
</g>
</g>
<!-- Node13&#45;&gt;Node8 -->
<g id="edge17_Node000013_Node000008" class="edge">
<title>Node13&#45;&gt;Node8</title>
<g id="a_edge17_Node000013_Node000008"><a xlink:title=" ">
<path fill="none" stroke="#63b8ff" d="M242.92,-164.99C275.34,-155.19 319.4,-141.65 358,-129 410.43,-111.82 470.83,-90.58 507.44,-77.54"/>
<polygon fill="#63b8ff" stroke="#63b8ff" points="508.87,-80.74 517.11,-74.09 506.51,-74.15 508.87,-80.74"/>
</a>
</g>
</g>
<!-- Node13&#45;&gt;Node12 -->
<g id="edge18_Node000013_Node000012" class="edge">
<title>Node13&#45;&gt;Node12</title>
<g id="a_edge18_Node000013_Node000012"><a xlink:title=" ">
<path fill="none" stroke="#63b8ff" d="M227.62,-164.99C249.35,-155.36 277.97,-142.67 299.09,-133.31"/>
<polygon fill="#63b8ff" stroke="#63b8ff" points="300.78,-136.39 308.51,-129.14 297.95,-129.99 300.78,-136.39"/>
</a>
</g>
</g>
<!-- Node13&#45;&gt;Node14 -->
<g id="edge19_Node000013_Node000014" class="edge">
<title>Node13&#45;&gt;Node14</title>
<g id="a_edge19_Node000013_Node000014"><a xlink:title=" ">
<path fill="none" stroke="#63b8ff" d="M212.22,-164.84C222.24,-156.09 235.11,-144.85 245.38,-135.88"/>
<polygon fill="#63b8ff" stroke="#63b8ff" points="247.73,-138.48 252.96,-129.27 243.13,-133.21 247.73,-138.48"/>
</a>
</g>
</g>
<!-- Node15 -->
<g id="Node000015" class="node">
<title>Node15</title>
<g id="a_Node000015"><a xlink:title=" ">
<polygon fill="#e0e0e0" stroke="#999999" points="131.5,-129 66.5,-129 66.5,-110 131.5,-110 131.5,-129"/>
<text text-anchor="middle" x="99" y="-117" font-family="Helvetica,sans-Serif" font-size="10.00">functional</text>
</a>
</g>
</g>
<!-- Node13&#45;&gt;Node15 -->
<g id="edge21_Node000013_Node000015" class="edge">
<title>Node13&#45;&gt;Node15</title>
<g id="a_edge21_Node000013_Node000015"><a xlink:title=" ">
<path fill="none" stroke="#63b8ff" d="M172.52,-164.84C157.2,-155.6 137.29,-143.59 122.05,-134.4"/>
<polygon fill="#63b8ff" stroke="#63b8ff" points="123.62,-131.26 113.25,-129.09 120.01,-137.26 123.62,-131.26"/>
</a>
</g>
</g>
<!-- Node16 -->
<g id="Node000016" class="node">
<title>Node16</title>
<g id="a_Node000016"><a xlink:title=" ">
<polygon fill="#e0e0e0" stroke="#999999" points="218.5,-129 149.5,-129 149.5,-110 218.5,-110 218.5,-129"/>
<text text-anchor="middle" x="184" y="-117" font-family="Helvetica,sans-Serif" font-size="10.00">type_traits</text>
</a>
</g>
</g>
<!-- Node13&#45;&gt;Node16 -->
<g id="edge22_Node000013_Node000016" class="edge">
<title>Node13&#45;&gt;Node16</title>
<g id="a_edge22_Node000013_Node000016"><a xlink:title=" ">
<path fill="none" stroke="#63b8ff" d="M193.1,-164.84C191.51,-157.13 189.54,-147.49 187.83,-139.17"/>
<polygon fill="#63b8ff" stroke="#63b8ff" points="191.24,-138.36 185.8,-129.27 184.38,-139.77 191.24,-138.36"/>
</a>
</g>
</g>
<!-- Node17&#45;&gt;Node5 -->
<g id="edge24_Node000017_Node000005" class="edge">
<title>Node17&#45;&gt;Node5</title>
<g id="a_edge24_Node000017_Node000005"><a xlink:title=" ">
<path fill="none" stroke="#63b8ff" d="M949.44,-170.37C940.62,-161.47 926.66,-147.39 915.82,-136.45"/>
<polygon fill="#63b8ff" stroke="#63b8ff" points="918.12,-133.8 908.59,-129.17 913.15,-138.73 918.12,-133.8"/>
</a>
</g>
</g>
<!-- Node17&#45;&gt;Node6 -->
<g id="edge25_Node000017_Node000006" class="edge">
<title>Node17&#45;&gt;Node6</title>
<g id="a_edge25_Node000017_Node000006"><a xlink:title=" ">
<path fill="none" stroke="#63b8ff" d="M960.45,-170.35C963.9,-156.18 968.38,-127.84 955,-110 937.88,-87.17 908.43,-75.94 881.79,-70.47"/>
<polygon fill="#63b8ff" stroke="#63b8ff" points="882.21,-66.99 871.74,-68.64 880.95,-73.88 882.21,-66.99"/>
</a>
</g>
</g>
<!-- Node17&#45;&gt;Node10 -->
<g id="edge27_Node000017_Node000010" class="edge">
<title>Node17&#45;&gt;Node10</title>
<g id="a_edge27_Node000017_Node000010"><a xlink:title=" ">
<path fill="none" stroke="#63b8ff" d="M966.12,-170.47C984.1,-151.57 1027.53,-105.93 1050.75,-81.52"/>
<polygon fill="#63b8ff" stroke="#63b8ff" points="1053.43,-83.79 1057.79,-74.13 1048.36,-78.96 1053.43,-83.79"/>
</a>
</g>
</g>
<!-- Node18 -->
<g id="Node000018" class="node">
<title>Node18</title>
<g id="a_Node000018"><a xlink:title=" ">
<polygon fill="#e0e0e0" stroke="#999999" points="1090.5,-129 1041.5,-129 1041.5,-110 1090.5,-110 1090.5,-129"/>
<text text-anchor="middle" x="1066" y="-117" font-family="Helvetica,sans-Serif" font-size="10.00">cstdlib</text>
</a>
</g>
</g>
<!-- Node17&#45;&gt;Node18 -->
<g id="edge26_Node000017_Node000018" class="edge">
<title>Node17&#45;&gt;Node18</title>
<g id="a_edge26_Node000017_Node000018"><a xlink:title=" ">
<path fill="none" stroke="#63b8ff" d="M973.94,-170.37C991.64,-160.78 1020.46,-145.17 1041.14,-133.97"/>
<polygon fill="#63b8ff" stroke="#63b8ff" points="1042.87,-137.01 1050,-129.17 1039.54,-130.85 1042.87,-137.01"/>
</a>
</g>
</g>
</g>
</svg>
