<?xml version="1.0" encoding="UTF-8" standalone="no"?>
<!DOCTYPE svg PUBLIC "-//W3C//DTD SVG 1.1//EN"
 "http://www.w3.org/Graphics/SVG/1.1/DTD/svg11.dtd">
<!-- Generated by graphviz version 2.43.0 (0)
 -->
<!-- Title: /__w/qugar/qugar/cpp/include/qugar/impl_utils.hpp Pages: 1 -->
<svg width="733pt" height="258pt"
 viewBox="0.00 0.00 732.87 258.00" xmlns="http://www.w3.org/2000/svg" xmlns:xlink="http://www.w3.org/1999/xlink">
<g id="graph0" class="graph" transform="scale(1 1) rotate(0) translate(4 254)">
<title>/__w/qugar/qugar/cpp/include/qugar/impl_utils.hpp</title>
<!-- Node1 -->
<g id="Node000001" class="node">
<title>Node1</title>
<g id="a_Node000001"><a xlink:title="Declaration of utility functions for implicit geometries.">
<polygon fill="#999999" stroke="#666666" points="475.37,-250 317.37,-250 317.37,-220 475.37,-220 475.37,-250"/>
<text text-anchor="start" x="325.37" y="-238" font-family="Helvetica,sans-Serif" font-size="10.00">/__w/qugar/qugar/cpp</text>
<text text-anchor="middle" x="396.37" y="-227" font-family="Helvetica,sans-Serif" font-size="10.00">/include/qugar/impl_utils.hpp</text>
</a>
</g>
</g>
<!-- Node2 -->
<g id="Node000002" class="node">
<title>Node2</title>
<g id="a_Node000002"><a xlink:href="../../dc/d7c/domain__function_8hpp.html" target="_top" xlink:title="Declaration of a few implicit functions template class ready to be consumed by Algoim.">
<polygon fill="white" stroke="#666666" points="471.37,-184 321.37,-184 321.37,-165 471.37,-165 471.37,-184"/>
<text text-anchor="middle" x="396.37" y="-172" font-family="Helvetica,sans-Serif" font-size="10.00">qugar/domain_function.hpp</text>
</a>
</g>
</g>
<!-- Node1&#45;&gt;Node2 -->
<g id="edge1_Node000001_Node000002" class="edge">
<title>Node1&#45;&gt;Node2</title>
<g id="a_edge1_Node000001_Node000002"><a xlink:title=" ">
<path fill="none" stroke="#63b8ff" d="M396.37,-219.84C396.37,-212.21 396.37,-202.7 396.37,-194.45"/>
<polygon fill="#63b8ff" stroke="#63b8ff" points="399.87,-194.27 396.37,-184.27 392.87,-194.27 399.87,-194.27"/>
</a>
</g>
</g>
<!-- Node3 -->
<g id="Node000003" class="node">
<title>Node3</title>
<g id="a_Node000003"><a xlink:href="../../dd/de3/types_8hpp.html" target="_top" xlink:title="Declaration of types.">
<polygon fill="white" stroke="#666666" points="160.87,-74 65.87,-74 65.87,-55 160.87,-55 160.87,-74"/>
<text text-anchor="middle" x="113.37" y="-62" font-family="Helvetica,sans-Serif" font-size="10.00">qugar/types.hpp</text>
</a>
</g>
</g>
<!-- Node1&#45;&gt;Node3 -->
<g id="edge20_Node000001_Node000003" class="edge">
<title>Node1&#45;&gt;Node3</title>
<g id="a_edge20_Node000001_Node000003"><a xlink:title=" ">
<path fill="none" stroke="#63b8ff" d="M316.98,-231.42C224.9,-226.99 80.12,-215.16 36.37,-184 7.73,-163.6 -11.05,-139.32 8.37,-110 19.31,-93.48 37.73,-83.08 56.13,-76.53"/>
<polygon fill="#63b8ff" stroke="#63b8ff" points="57.26,-79.85 65.7,-73.45 55.11,-73.18 57.26,-79.85"/>
</a>
</g>
</g>
<!-- Node5 -->
<g id="Node000005" class="node">
<title>Node5</title>
<g id="a_Node000005"><a xlink:href="../../d0/de4/point_8hpp.html" target="_top" xlink:title="Definition and implementation of Point class.">
<polygon fill="white" stroke="#666666" points="261.87,-129 168.87,-129 168.87,-110 261.87,-110 261.87,-129"/>
<text text-anchor="middle" x="215.37" y="-117" font-family="Helvetica,sans-Serif" font-size="10.00">qugar/point.hpp</text>
</a>
</g>
</g>
<!-- Node1&#45;&gt;Node5 -->
<g id="edge14_Node000001_Node000005" class="edge">
<title>Node1&#45;&gt;Node5</title>
<g id="a_edge14_Node000001_Node000005"><a xlink:title=" ">
<path fill="none" stroke="#63b8ff" d="M371.94,-219.83C355.09,-209.97 332.23,-196.41 312.37,-184 285.99,-167.52 256.11,-147.8 236.57,-134.76"/>
<polygon fill="#63b8ff" stroke="#63b8ff" points="238.38,-131.75 228.12,-129.1 234.48,-137.57 238.38,-131.75"/>
</a>
</g>
</g>
<!-- Node6 -->
<g id="Node000006" class="node">
<title>Node6</title>
<g id="a_Node000006"><a xlink:href="../../da/d16/vector_8hpp.html" target="_top" xlink:title=" ">
<polygon fill="white" stroke="#666666" points="662.37,-74 564.37,-74 564.37,-55 662.37,-55 662.37,-74"/>
<text text-anchor="middle" x="613.37" y="-62" font-family="Helvetica,sans-Serif" font-size="10.00">qugar/vector.hpp</text>
</a>
</g>
</g>
<!-- Node1&#45;&gt;Node6 -->
<g id="edge21_Node000001_Node000006" class="edge">
<title>Node1&#45;&gt;Node6</title>
<g id="a_edge21_Node000001_Node000006"><a xlink:title=" ">
<path fill="none" stroke="#63b8ff" d="M475.72,-220.48C501.63,-213.04 529.17,-201.59 550.37,-184 582.53,-157.31 600.55,-109.84 608.46,-83.82"/>
<polygon fill="#63b8ff" stroke="#63b8ff" points="611.85,-84.68 611.24,-74.1 605.12,-82.75 611.85,-84.68"/>
</a>
</g>
</g>
<!-- Node8 -->
<g id="Node000008" class="node">
<title>Node8</title>
<g id="a_Node000008"><a xlink:title=" ">
<polygon fill="#e0e0e0" stroke="#999999" points="264.87,-74 217.87,-74 217.87,-55 264.87,-55 264.87,-74"/>
<text text-anchor="middle" x="241.37" y="-62" font-family="Helvetica,sans-Serif" font-size="10.00">vector</text>
</a>
</g>
</g>
<!-- Node1&#45;&gt;Node8 -->
<g id="edge23_Node000001_Node000008" class="edge">
<title>Node1&#45;&gt;Node8</title>
<g id="a_edge23_Node000001_Node000008"><a xlink:title=" ">
<path fill="none" stroke="#63b8ff" d="M442.28,-219.98C502.96,-199.19 597.62,-157.49 556.37,-110 520.21,-68.37 348.81,-64.61 275.15,-64.97"/>
<polygon fill="#63b8ff" stroke="#63b8ff" points="274.99,-61.47 265.01,-65.05 275.04,-68.47 274.99,-61.47"/>
</a>
</g>
</g>
<!-- Node12 -->
<g id="Node000012" class="node">
<title>Node12</title>
<g id="a_Node000012"><a xlink:href="../../d0/d55/tolerance_8hpp.html" target="_top" xlink:title="Definition of tolerance related functionalities.">
<polygon fill="white" stroke="#666666" points="159.37,-184 45.37,-184 45.37,-165 159.37,-165 159.37,-184"/>
<text text-anchor="middle" x="102.37" y="-172" font-family="Helvetica,sans-Serif" font-size="10.00">qugar/tolerance.hpp</text>
</a>
</g>
</g>
<!-- Node1&#45;&gt;Node12 -->
<g id="edge15_Node000001_Node000012" class="edge">
<title>Node1&#45;&gt;Node12</title>
<g id="a_edge15_Node000001_Node000012"><a xlink:title=" ">
<path fill="none" stroke="#63b8ff" d="M325.95,-219.99C273.45,-209.54 202.88,-195.5 155.17,-186.01"/>
<polygon fill="#63b8ff" stroke="#63b8ff" points="155.85,-182.57 145.35,-184.05 154.48,-189.44 155.85,-182.57"/>
</a>
</g>
</g>
<!-- Node14 -->
<g id="Node000014" class="node">
<title>Node14</title>
<g id="a_Node000014"><a xlink:title=" ">
<polygon fill="#e0e0e0" stroke="#999999" points="724.87,-184 679.87,-184 679.87,-165 724.87,-165 724.87,-184"/>
<text text-anchor="middle" x="702.37" y="-172" font-family="Helvetica,sans-Serif" font-size="10.00">utility</text>
</a>
</g>
</g>
<!-- Node1&#45;&gt;Node14 -->
<g id="edge22_Node000001_Node000014" class="edge">
<title>Node1&#45;&gt;Node14</title>
<g id="a_edge22_Node000001_Node000014"><a xlink:title=" ">
<path fill="none" stroke="#63b8ff" d="M475.4,-220.21C529.09,-210.62 601.65,-197.23 665.37,-184 666.82,-183.7 668.3,-183.38 669.8,-183.06"/>
<polygon fill="#63b8ff" stroke="#63b8ff" points="670.7,-186.45 679.7,-180.87 669.18,-179.61 670.7,-186.45"/>
</a>
</g>
</g>
<!-- Node2&#45;&gt;Node3 -->
<g id="edge2_Node000002_Node000003" class="edge">
<title>Node2&#45;&gt;Node3</title>
<g id="a_edge2_Node000002_Node000003"><a xlink:title=" ">
<path fill="none" stroke="#63b8ff" d="M321.23,-165.36C262.57,-157.91 186.73,-145.53 160.37,-129 142.81,-117.99 129.6,-97.85 121.73,-83.2"/>
<polygon fill="#63b8ff" stroke="#63b8ff" points="124.77,-81.46 117.14,-74.11 118.52,-84.61 124.77,-81.46"/>
</a>
</g>
</g>
<!-- Node2&#45;&gt;Node5 -->
<g id="edge4_Node000002_Node000005" class="edge">
<title>Node2&#45;&gt;Node5</title>
<g id="a_edge4_Node000002_Node000005"><a xlink:title=" ">
<path fill="none" stroke="#63b8ff" d="M367.29,-164.98C336.77,-156.05 288.6,-141.94 254.7,-132.02"/>
<polygon fill="#63b8ff" stroke="#63b8ff" points="255.26,-128.53 244.68,-129.08 253.29,-135.25 255.26,-128.53"/>
</a>
</g>
</g>
<!-- Node2&#45;&gt;Node6 -->
<g id="edge10_Node000002_Node000006" class="edge">
<title>Node2&#45;&gt;Node6</title>
<g id="a_edge10_Node000002_Node000006"><a xlink:title=" ">
<path fill="none" stroke="#63b8ff" d="M457.42,-164.93C488.74,-158.52 526.48,-147.54 556.37,-129 575.37,-117.21 591.78,-97.25 602.05,-82.85"/>
<polygon fill="#63b8ff" stroke="#63b8ff" points="605.12,-84.56 607.87,-74.33 599.34,-80.61 605.12,-84.56"/>
</a>
</g>
</g>
<!-- Node9 -->
<g id="Node000009" class="node">
<title>Node9</title>
<g id="a_Node000009"><a xlink:title=" ">
<polygon fill="#e0e0e0" stroke="#999999" points="479.37,-129 367.37,-129 367.37,-110 479.37,-110 479.37,-129"/>
<text text-anchor="middle" x="423.37" y="-117" font-family="Helvetica,sans-Serif" font-size="10.00">algoim/interval.hpp</text>
</a>
</g>
</g>
<!-- Node2&#45;&gt;Node9 -->
<g id="edge11_Node000002_Node000009" class="edge">
<title>Node2&#45;&gt;Node9</title>
<g id="a_edge11_Node000002_Node000009"><a xlink:title=" ">
<path fill="none" stroke="#63b8ff" d="M400.83,-164.75C404.48,-157.57 409.78,-147.18 414.32,-138.27"/>
<polygon fill="#63b8ff" stroke="#63b8ff" points="417.57,-139.59 418.99,-129.09 411.33,-136.41 417.57,-139.59"/>
</a>
</g>
</g>
<!-- Node10 -->
<g id="Node000010" class="node">
<title>Node10</title>
<g id="a_Node000010"><a xlink:title=" ">
<polygon fill="#e0e0e0" stroke="#999999" points="547.37,-129 497.37,-129 497.37,-110 547.37,-110 547.37,-129"/>
<text text-anchor="middle" x="522.37" y="-117" font-family="Helvetica,sans-Serif" font-size="10.00">cstdint</text>
</a>
</g>
</g>
<!-- Node2&#45;&gt;Node10 -->
<g id="edge12_Node000002_Node000010" class="edge">
<title>Node2&#45;&gt;Node10</title>
<g id="a_edge12_Node000002_Node000010"><a xlink:title=" ">
<path fill="none" stroke="#63b8ff" d="M416.61,-164.98C437.06,-156.38 468.9,-142.99 492.3,-133.15"/>
<polygon fill="#63b8ff" stroke="#63b8ff" points="493.89,-136.27 501.75,-129.17 491.18,-129.82 493.89,-136.27"/>
</a>
</g>
</g>
<!-- Node11 -->
<g id="Node000011" class="node">
<title>Node11</title>
<g id="a_Node000011"><a xlink:title=" ">
<polygon fill="#e0e0e0" stroke="#999999" points="348.87,-129 279.87,-129 279.87,-110 348.87,-110 348.87,-129"/>
<text text-anchor="middle" x="314.37" y="-117" font-family="Helvetica,sans-Serif" font-size="10.00">type_traits</text>
</a>
</g>
</g>
<!-- Node2&#45;&gt;Node11 -->
<g id="edge13_Node000002_Node000011" class="edge">
<title>Node2&#45;&gt;Node11</title>
<g id="a_edge13_Node000002_Node000011"><a xlink:title=" ">
<path fill="none" stroke="#63b8ff" d="M383.19,-164.98C370.6,-156.84 351.36,-144.41 336.43,-134.76"/>
<polygon fill="#63b8ff" stroke="#63b8ff" points="338.08,-131.66 327.78,-129.17 334.28,-137.54 338.08,-131.66"/>
</a>
</g>
</g>
<!-- Node4 -->
<g id="Node000004" class="node">
<title>Node4</title>
<g id="a_Node000004"><a xlink:title=" ">
<polygon fill="#e0e0e0" stroke="#999999" points="177.87,-19 124.87,-19 124.87,0 177.87,0 177.87,-19"/>
<text text-anchor="middle" x="151.37" y="-7" font-family="Helvetica,sans-Serif" font-size="10.00">cstddef</text>
</a>
</g>
</g>
<!-- Node3&#45;&gt;Node4 -->
<g id="edge3_Node000003_Node000004" class="edge">
<title>Node3&#45;&gt;Node4</title>
<g id="a_edge3_Node000003_Node000004"><a xlink:title=" ">
<path fill="none" stroke="#63b8ff" d="M119.64,-54.75C124.95,-47.34 132.72,-36.5 139.24,-27.41"/>
<polygon fill="#63b8ff" stroke="#63b8ff" points="142.23,-29.26 145.21,-19.09 136.54,-25.18 142.23,-29.26"/>
</a>
</g>
</g>
<!-- Node5&#45;&gt;Node3 -->
<g id="edge5_Node000005_Node000003" class="edge">
<title>Node5&#45;&gt;Node3</title>
<g id="a_edge5_Node000005_Node000003"><a xlink:title=" ">
<path fill="none" stroke="#63b8ff" d="M198.98,-109.98C182.79,-101.57 157.8,-88.59 138.99,-78.81"/>
<polygon fill="#63b8ff" stroke="#63b8ff" points="140.54,-75.68 130.05,-74.17 137.31,-81.89 140.54,-75.68"/>
</a>
</g>
</g>
<!-- Node5&#45;&gt;Node4 -->
<g id="edge8_Node000005_Node000004" class="edge">
<title>Node5&#45;&gt;Node4</title>
<g id="a_edge8_Node000005_Node000004"><a xlink:title=" ">
<path fill="none" stroke="#63b8ff" d="M210.13,-109.66C199.58,-91.85 175.58,-51.37 161.74,-28.01"/>
<polygon fill="#63b8ff" stroke="#63b8ff" points="164.61,-25.98 156.5,-19.16 158.58,-29.55 164.61,-25.98"/>
</a>
</g>
</g>
<!-- Node5&#45;&gt;Node6 -->
<g id="edge6_Node000005_Node000006" class="edge">
<title>Node5&#45;&gt;Node6</title>
<g id="a_edge6_Node000005_Node000006"><a xlink:title=" ">
<path fill="none" stroke="#63b8ff" d="M262.11,-111.33C265.24,-110.87 268.35,-110.43 271.37,-110 370.48,-96.03 485.98,-81.33 554.21,-72.81"/>
<polygon fill="#63b8ff" stroke="#63b8ff" points="554.84,-76.26 564.33,-71.55 553.98,-69.31 554.84,-76.26"/>
</a>
</g>
</g>
<!-- Node5&#45;&gt;Node8 -->
<g id="edge9_Node000005_Node000008" class="edge">
<title>Node5&#45;&gt;Node8</title>
<g id="a_edge9_Node000005_Node000008"><a xlink:title=" ">
<path fill="none" stroke="#63b8ff" d="M219.66,-109.75C223.18,-102.57 228.28,-92.18 232.65,-83.27"/>
<polygon fill="#63b8ff" stroke="#63b8ff" points="235.89,-84.61 237.15,-74.09 229.61,-81.53 235.89,-84.61"/>
</a>
</g>
</g>
<!-- Node7 -->
<g id="Node000007" class="node">
<title>Node7</title>
<g id="a_Node000007"><a xlink:title=" ">
<polygon fill="#e0e0e0" stroke="#999999" points="668.37,-19 558.37,-19 558.37,0 668.37,0 668.37,-19"/>
<text text-anchor="middle" x="613.37" y="-7" font-family="Helvetica,sans-Serif" font-size="10.00">algoim/uvector.hpp</text>
</a>
</g>
</g>
<!-- Node6&#45;&gt;Node7 -->
<g id="edge7_Node000006_Node000007" class="edge">
<title>Node6&#45;&gt;Node7</title>
<g id="a_edge7_Node000006_Node000007"><a xlink:title=" ">
<path fill="none" stroke="#63b8ff" d="M613.37,-54.75C613.37,-47.8 613.37,-37.85 613.37,-29.13"/>
<polygon fill="#63b8ff" stroke="#63b8ff" points="616.87,-29.09 613.37,-19.09 609.87,-29.09 616.87,-29.09"/>
</a>
</g>
</g>
<!-- Node12&#45;&gt;Node3 -->
<g id="edge17_Node000012_Node000003" class="edge">
<title>Node12&#45;&gt;Node3</title>
<g id="a_edge17_Node000012_Node000003"><a xlink:title=" ">
<path fill="none" stroke="#63b8ff" d="M70.87,-164.97C39.63,-154.82 -1.34,-135.94 15.37,-110 25.53,-94.23 42.79,-83.98 60.03,-77.35"/>
<polygon fill="#63b8ff" stroke="#63b8ff" points="61.26,-80.63 69.55,-74.03 58.96,-74.02 61.26,-80.63"/>
</a>
</g>
</g>
<!-- Node12&#45;&gt;Node5 -->
<g id="edge16_Node000012_Node000005" class="edge">
<title>Node12&#45;&gt;Node5</title>
<g id="a_edge16_Node000012_Node000005"><a xlink:title=" ">
<path fill="none" stroke="#63b8ff" d="M120.52,-164.98C138.62,-156.5 166.65,-143.35 187.55,-133.54"/>
<polygon fill="#63b8ff" stroke="#63b8ff" points="189.31,-136.59 196.88,-129.17 186.34,-130.25 189.31,-136.59"/>
</a>
</g>
</g>
<!-- Node12&#45;&gt;Node8 -->
<g id="edge19_Node000012_Node000008" class="edge">
<title>Node12&#45;&gt;Node8</title>
<g id="a_edge19_Node000012_Node000008"><a xlink:title=" ">
<path fill="none" stroke="#63b8ff" d="M108.75,-164.86C118.7,-151.81 139.01,-126.8 160.37,-110 176.24,-97.51 196.09,-86.55 212.16,-78.63"/>
<polygon fill="#63b8ff" stroke="#63b8ff" points="214.11,-81.58 221.61,-74.1 211.08,-75.26 214.11,-81.58"/>
</a>
</g>
</g>
<!-- Node13 -->
<g id="Node000013" class="node">
<title>Node13</title>
<g id="a_Node000013"><a xlink:title=" ">
<polygon fill="#e0e0e0" stroke="#999999" points="73.87,-129 24.87,-129 24.87,-110 73.87,-110 73.87,-129"/>
<text text-anchor="middle" x="49.37" y="-117" font-family="Helvetica,sans-Serif" font-size="10.00">cstdlib</text>
</a>
</g>
</g>
<!-- Node12&#45;&gt;Node13 -->
<g id="edge18_Node000012_Node000013" class="edge">
<title>Node12&#45;&gt;Node13</title>
<g id="a_edge18_Node000012_Node000013"><a xlink:title=" ">
<path fill="none" stroke="#63b8ff" d="M93.61,-164.75C85.9,-157.03 74.46,-145.6 65.15,-136.28"/>
<polygon fill="#63b8ff" stroke="#63b8ff" points="67.5,-133.69 57.96,-129.09 62.55,-138.64 67.5,-133.69"/>
</a>
</g>
</g>
</g>
</svg>
