<?xml version="1.0" encoding="UTF-8" standalone="no"?>
<!DOCTYPE svg PUBLIC "-//W3C//DTD SVG 1.1//EN"
 "http://www.w3.org/Graphics/SVG/1.1/DTD/svg11.dtd">
<!-- Generated by graphviz version 2.43.0 (0)
 -->
<!-- Title: /__w/qugar/qugar/cpp/include/qugar/bezier_tp.hpp Pages: 1 -->
<svg width="1359pt" height="390pt"
 viewBox="0.00 0.00 1359.29 390.00" xmlns="http://www.w3.org/2000/svg" xmlns:xlink="http://www.w3.org/1999/xlink">
<g id="graph0" class="graph" transform="scale(1 1) rotate(0) translate(4 386)">
<title>/__w/qugar/qugar/cpp/include/qugar/bezier_tp.hpp</title>
<!-- Node1 -->
<g id="Node000001" class="node">
<title>Node1</title>
<g id="a_Node000001"><a xlink:title="Declaration of tensor&#45;product Bezier class.">
<polygon fill="#999999" stroke="#666666" points="999.29,-382 879.29,-382 879.29,-341 999.29,-341 999.29,-382"/>
<text text-anchor="start" x="887.29" y="-370" font-family="Helvetica,sans-Serif" font-size="10.00">/__w/qugar/qugar/cpp</text>
<text text-anchor="start" x="887.29" y="-359" font-family="Helvetica,sans-Serif" font-size="10.00">/include/qugar/bezier</text>
<text text-anchor="middle" x="939.29" y="-348" font-family="Helvetica,sans-Serif" font-size="10.00">_tp.hpp</text>
</a>
</g>
</g>
<!-- Node2 -->
<g id="Node000002" class="node">
<title>Node2</title>
<g id="a_Node000002"><a xlink:href="../../d5/d90/bbox_8hpp.html" target="_top" xlink:title="Definition of Cartesian bounding box class.">
<polygon fill="white" stroke="#666666" points="345.29,-189.5 253.29,-189.5 253.29,-170.5 345.29,-170.5 345.29,-189.5"/>
<text text-anchor="middle" x="299.29" y="-177.5" font-family="Helvetica,sans-Serif" font-size="10.00">qugar/bbox.hpp</text>
</a>
</g>
</g>
<!-- Node1&#45;&gt;Node2 -->
<g id="edge1_Node000001_Node000002" class="edge">
<title>Node1&#45;&gt;Node2</title>
<g id="a_edge1_Node000001_Node000002"><a xlink:title=" ">
<path fill="none" stroke="#63b8ff" d="M879.22,-356.54C743.16,-346.5 416.64,-315.99 331.29,-250 315.34,-237.66 307.03,-215.48 302.92,-199.6"/>
<polygon fill="#63b8ff" stroke="#63b8ff" points="306.33,-198.79 300.71,-189.8 299.5,-200.33 306.33,-198.79"/>
</a>
</g>
</g>
<!-- Node5 -->
<g id="Node000005" class="node">
<title>Node5</title>
<g id="a_Node000005"><a xlink:href="../../dd/de3/types_8hpp.html" target="_top" xlink:title="Declaration of types.">
<polygon fill="white" stroke="#666666" points="458.79,-74 363.79,-74 363.79,-55 458.79,-55 458.79,-74"/>
<text text-anchor="middle" x="411.29" y="-62" font-family="Helvetica,sans-Serif" font-size="10.00">qugar/types.hpp</text>
</a>
</g>
</g>
<!-- Node1&#45;&gt;Node5 -->
<g id="edge47_Node000001_Node000005" class="edge">
<title>Node1&#45;&gt;Node5</title>
<g id="a_edge47_Node000001_Node000005"><a xlink:title=" ">
<path fill="none" stroke="#63b8ff" d="M879.19,-359.22C672.16,-354.03 1.29,-330.35 1.29,-241.5 1.29,-241.5 1.29,-241.5 1.29,-179 1.29,-147.19 -3.88,-130.68 20.29,-110 45.1,-88.77 250.93,-74.43 353.56,-68.53"/>
<polygon fill="#63b8ff" stroke="#63b8ff" points="353.97,-72.01 363.76,-67.95 353.58,-65.02 353.97,-72.01"/>
</a>
</g>
</g>
<!-- Node9 -->
<g id="Node000009" class="node">
<title>Node9</title>
<g id="a_Node000009"><a xlink:title=" ">
<polygon fill="#e0e0e0" stroke="#999999" points="1317.79,-74 1270.79,-74 1270.79,-55 1317.79,-55 1317.79,-74"/>
<text text-anchor="middle" x="1294.29" y="-62" font-family="Helvetica,sans-Serif" font-size="10.00">vector</text>
</a>
</g>
</g>
<!-- Node1&#45;&gt;Node9 -->
<g id="edge50_Node000001_Node000009" class="edge">
<title>Node1&#45;&gt;Node9</title>
<g id="a_edge50_Node000001_Node000009"><a xlink:title=" ">
<path fill="none" stroke="#63b8ff" d="M999.64,-355.69C1114.08,-344.9 1351.29,-313.81 1351.29,-241.5 1351.29,-241.5 1351.29,-241.5 1351.29,-179 1351.29,-141.18 1325.71,-103.1 1308.82,-82.07"/>
<polygon fill="#63b8ff" stroke="#63b8ff" points="1311.31,-79.59 1302.22,-74.16 1305.94,-84.08 1311.31,-79.59"/>
</a>
</g>
</g>
<!-- Node12 -->
<g id="Node000012" class="node">
<title>Node12</title>
<g id="a_Node000012"><a xlink:href="../../dc/d7c/domain__function_8hpp.html" target="_top" xlink:title="Declaration of a few implicit functions template class ready to be consumed by Algoim.">
<polygon fill="white" stroke="#666666" points="864.29,-189.5 714.29,-189.5 714.29,-170.5 864.29,-170.5 864.29,-189.5"/>
<text text-anchor="middle" x="789.29" y="-177.5" font-family="Helvetica,sans-Serif" font-size="10.00">qugar/domain_function.hpp</text>
</a>
</g>
</g>
<!-- Node1&#45;&gt;Node12 -->
<g id="edge14_Node000001_Node000012" class="edge">
<title>Node1&#45;&gt;Node12</title>
<g id="a_edge14_Node000001_Node000012"><a xlink:title=" ">
<path fill="none" stroke="#63b8ff" d="M879.13,-343.41C834.57,-327.24 776.98,-298.13 749.29,-250 738.75,-231.67 755.02,-210.65 769.87,-196.68"/>
<polygon fill="#63b8ff" stroke="#63b8ff" points="772.6,-198.94 777.79,-189.7 767.97,-193.69 772.6,-198.94"/>
</a>
</g>
</g>
<!-- Node16 -->
<g id="Node000016" class="node">
<title>Node16</title>
<g id="a_Node000016"><a xlink:href="../../d6/d82/monomials__tp_8hpp.html" target="_top" xlink:title="Declaration of tensor&#45;product monomials class.">
<polygon fill="white" stroke="#666666" points="1008.29,-305 870.29,-305 870.29,-286 1008.29,-286 1008.29,-305"/>
<text text-anchor="middle" x="939.29" y="-293" font-family="Helvetica,sans-Serif" font-size="10.00">qugar/monomials_tp.hpp</text>
</a>
</g>
</g>
<!-- Node1&#45;&gt;Node16 -->
<g id="edge21_Node000001_Node000016" class="edge">
<title>Node1&#45;&gt;Node16</title>
<g id="a_edge21_Node000001_Node000016"><a xlink:title=" ">
<path fill="none" stroke="#63b8ff" d="M939.29,-340.95C939.29,-332.85 939.29,-323.5 939.29,-315.47"/>
<polygon fill="#63b8ff" stroke="#63b8ff" points="942.79,-315.26 939.29,-305.26 935.79,-315.26 942.79,-315.26"/>
</a>
</g>
</g>
<!-- Node17 -->
<g id="Node000017" class="node">
<title>Node17</title>
<g id="a_Node000017"><a xlink:href="../../d2/dee/polynomial__tp_8hpp.html" target="_top" xlink:title="Declaration of tensor&#45;product polynomial class.">
<polygon fill="white" stroke="#666666" points="896.29,-250 758.29,-250 758.29,-231 896.29,-231 896.29,-250"/>
<text text-anchor="middle" x="827.29" y="-238" font-family="Helvetica,sans-Serif" font-size="10.00">qugar/polynomial_tp.hpp</text>
</a>
</g>
</g>
<!-- Node1&#45;&gt;Node17 -->
<g id="edge45_Node000001_Node000017" class="edge">
<title>Node1&#45;&gt;Node17</title>
<g id="a_edge45_Node000001_Node000017"><a xlink:title=" ">
<path fill="none" stroke="#63b8ff" d="M904.69,-340.83C890.06,-331.34 873.59,-318.97 861.29,-305 849.42,-291.52 840.17,-273.18 834.34,-259.68"/>
<polygon fill="#63b8ff" stroke="#63b8ff" points="837.43,-258 830.4,-250.07 830.95,-260.65 837.43,-258"/>
</a>
</g>
</g>
<!-- Node18 -->
<g id="Node000018" class="node">
<title>Node18</title>
<g id="a_Node000018"><a xlink:href="../../d9/d43/tensor__index__tp_8hpp.html" target="_top" xlink:title="Declaration of tensor&#45;product index and size related classes.">
<polygon fill="white" stroke="#666666" points="1054.29,-195 944.29,-195 944.29,-165 1054.29,-165 1054.29,-195"/>
<text text-anchor="start" x="952.29" y="-183" font-family="Helvetica,sans-Serif" font-size="10.00">qugar/tensor_index</text>
<text text-anchor="middle" x="999.29" y="-172" font-family="Helvetica,sans-Serif" font-size="10.00">_tp.hpp</text>
</a>
</g>
</g>
<!-- Node1&#45;&gt;Node18 -->
<g id="edge46_Node000001_Node000018" class="edge">
<title>Node1&#45;&gt;Node18</title>
<g id="a_edge46_Node000001_Node000018"><a xlink:title=" ">
<path fill="none" stroke="#63b8ff" d="M999.51,-355.8C1065.71,-347.04 1169.06,-321.93 1217.29,-250 1222,-242.99 1222.55,-237.6 1217.29,-231 1198.43,-207.33 1121.71,-193.94 1064.58,-187.1"/>
<polygon fill="#63b8ff" stroke="#63b8ff" points="1064.85,-183.61 1054.52,-185.93 1064.05,-190.56 1064.85,-183.61"/>
</a>
</g>
</g>
<!-- Node22 -->
<g id="Node000022" class="node">
<title>Node22</title>
<g id="a_Node000022"><a xlink:title=" ">
<polygon fill="#e0e0e0" stroke="#999999" points="1132.29,-250 1028.29,-250 1028.29,-231 1132.29,-231 1132.29,-250"/>
<text text-anchor="middle" x="1080.29" y="-238" font-family="Helvetica,sans-Serif" font-size="10.00">algoim/xarray.hpp</text>
</a>
</g>
</g>
<!-- Node1&#45;&gt;Node22 -->
<g id="edge48_Node000001_Node000022" class="edge">
<title>Node1&#45;&gt;Node22</title>
<g id="a_edge48_Node000001_Node000022"><a xlink:title=" ">
<path fill="none" stroke="#63b8ff" d="M969.45,-340.83C984.3,-330.69 1002.22,-317.8 1017.29,-305 1034.94,-290.02 1053.4,-270.95 1065.74,-257.64"/>
<polygon fill="#63b8ff" stroke="#63b8ff" points="1068.39,-259.92 1072.57,-250.18 1063.23,-255.19 1068.39,-259.92"/>
</a>
</g>
</g>
<!-- Node23 -->
<g id="Node000023" class="node">
<title>Node23</title>
<g id="a_Node000023"><a xlink:title=" ">
<polygon fill="#e0e0e0" stroke="#999999" points="1208.29,-250 1150.29,-250 1150.29,-231 1208.29,-231 1208.29,-250"/>
<text text-anchor="middle" x="1179.29" y="-238" font-family="Helvetica,sans-Serif" font-size="10.00">memory</text>
</a>
</g>
</g>
<!-- Node1&#45;&gt;Node23 -->
<g id="edge49_Node000001_Node000023" class="edge">
<title>Node1&#45;&gt;Node23</title>
<g id="a_edge49_Node000001_Node000023"><a xlink:title=" ">
<path fill="none" stroke="#63b8ff" d="M978.65,-340.98C1027.88,-316.58 1110.8,-275.46 1152.96,-254.55"/>
<polygon fill="#63b8ff" stroke="#63b8ff" points="1154.64,-257.63 1162.04,-250.05 1151.53,-251.36 1154.64,-257.63"/>
</a>
</g>
</g>
<!-- Node3 -->
<g id="Node000003" class="node">
<title>Node3</title>
<g id="a_Node000003"><a xlink:href="../../d7/dd8/concepts_8hpp.html" target="_top" xlink:title="Declaration of concepts.">
<polygon fill="white" stroke="#666666" points="307.29,-129 195.29,-129 195.29,-110 307.29,-110 307.29,-129"/>
<text text-anchor="middle" x="251.29" y="-117" font-family="Helvetica,sans-Serif" font-size="10.00">qugar/concepts.hpp</text>
</a>
</g>
</g>
<!-- Node2&#45;&gt;Node3 -->
<g id="edge2_Node000002_Node000003" class="edge">
<title>Node2&#45;&gt;Node3</title>
<g id="a_edge2_Node000002_Node000003"><a xlink:title=" ">
<path fill="none" stroke="#63b8ff" d="M292.21,-170.37C285.05,-161.64 273.8,-147.93 264.91,-137.09"/>
<polygon fill="#63b8ff" stroke="#63b8ff" points="267.45,-134.68 258.4,-129.17 262.04,-139.12 267.45,-134.68"/>
</a>
</g>
</g>
<!-- Node4 -->
<g id="Node000004" class="node">
<title>Node4</title>
<g id="a_Node000004"><a xlink:href="../../d0/de4/point_8hpp.html" target="_top" xlink:title="Definition and implementation of Point class.">
<polygon fill="white" stroke="#666666" points="570.79,-129 477.79,-129 477.79,-110 570.79,-110 570.79,-129"/>
<text text-anchor="middle" x="524.29" y="-117" font-family="Helvetica,sans-Serif" font-size="10.00">qugar/point.hpp</text>
</a>
</g>
</g>
<!-- Node2&#45;&gt;Node4 -->
<g id="edge3_Node000002_Node000004" class="edge">
<title>Node2&#45;&gt;Node4</title>
<g id="a_edge3_Node000002_Node000004"><a xlink:title=" ">
<path fill="none" stroke="#63b8ff" d="M332.01,-170.49C371.59,-160.2 438.3,-142.86 481.81,-131.54"/>
<polygon fill="#63b8ff" stroke="#63b8ff" points="482.74,-134.92 491.54,-129.02 480.98,-128.15 482.74,-134.92"/>
</a>
</g>
</g>
<!-- Node2&#45;&gt;Node5 -->
<g id="edge10_Node000002_Node000005" class="edge">
<title>Node2&#45;&gt;Node5</title>
<g id="a_edge10_Node000002_Node000005"><a xlink:title=" ">
<path fill="none" stroke="#63b8ff" d="M306.29,-170.14C317.11,-156.64 338.78,-130.35 359.29,-110 369.7,-99.67 382.17,-88.96 392.28,-80.63"/>
<polygon fill="#63b8ff" stroke="#63b8ff" points="394.57,-83.28 400.12,-74.26 390.16,-77.84 394.57,-83.28"/>
</a>
</g>
</g>
<!-- Node6 -->
<g id="Node000006" class="node">
<title>Node6</title>
<g id="a_Node000006"><a xlink:title=" ">
<polygon fill="#e0e0e0" stroke="#999999" points="493.79,-19 440.79,-19 440.79,0 493.79,0 493.79,-19"/>
<text text-anchor="middle" x="467.29" y="-7" font-family="Helvetica,sans-Serif" font-size="10.00">cstddef</text>
</a>
</g>
</g>
<!-- Node2&#45;&gt;Node6 -->
<g id="edge13_Node000002_Node000006" class="edge">
<title>Node2&#45;&gt;Node6</title>
<g id="a_edge13_Node000002_Node000006"><a xlink:title=" ">
<path fill="none" stroke="#63b8ff" d="M253.27,-177.64C181.84,-174.45 49.46,-163.86 20.29,-129 14.87,-122.52 15.01,-116.59 20.29,-110 71.83,-45.73 332.84,-20.31 430.42,-12.96"/>
<polygon fill="#63b8ff" stroke="#63b8ff" points="430.96,-16.43 440.68,-12.21 430.45,-9.45 430.96,-16.43"/>
</a>
</g>
</g>
<!-- Node10 -->
<g id="Node000010" class="node">
<title>Node10</title>
<g id="a_Node000010"><a xlink:title=" ">
<polygon fill="#e0e0e0" stroke="#999999" points="177.29,-129 29.29,-129 29.29,-110 177.29,-110 177.29,-129"/>
<text text-anchor="middle" x="103.29" y="-117" font-family="Helvetica,sans-Serif" font-size="10.00">algoim/hyperrectangle.hpp</text>
</a>
</g>
</g>
<!-- Node2&#45;&gt;Node10 -->
<g id="edge11_Node000002_Node000010" class="edge">
<title>Node2&#45;&gt;Node10</title>
<g id="a_edge11_Node000002_Node000010"><a xlink:title=" ">
<path fill="none" stroke="#63b8ff" d="M270.79,-170.49C236.68,-160.31 179.42,-143.22 141.5,-131.9"/>
<polygon fill="#63b8ff" stroke="#63b8ff" points="142.41,-128.52 131.83,-129.02 140.41,-135.23 142.41,-128.52"/>
</a>
</g>
</g>
<!-- Node11 -->
<g id="Node000011" class="node">
<title>Node11</title>
<g id="a_Node000011"><a xlink:title=" ">
<polygon fill="#e0e0e0" stroke="#999999" points="631.29,-129 589.29,-129 589.29,-110 631.29,-110 631.29,-129"/>
<text text-anchor="middle" x="610.29" y="-117" font-family="Helvetica,sans-Serif" font-size="10.00">array</text>
</a>
</g>
</g>
<!-- Node2&#45;&gt;Node11 -->
<g id="edge12_Node000002_Node000011" class="edge">
<title>Node2&#45;&gt;Node11</title>
<g id="a_edge12_Node000002_Node000011"><a xlink:title=" ">
<path fill="none" stroke="#63b8ff" d="M345.33,-172.26C399.2,-164.04 491.25,-149.02 579.18,-129.07"/>
<polygon fill="#63b8ff" stroke="#63b8ff" points="580.09,-132.45 589.05,-126.8 578.53,-125.63 580.09,-132.45"/>
</a>
</g>
</g>
<!-- Node4&#45;&gt;Node5 -->
<g id="edge4_Node000004_Node000005" class="edge">
<title>Node4&#45;&gt;Node5</title>
<g id="a_edge4_Node000004_Node000005"><a xlink:title=" ">
<path fill="none" stroke="#63b8ff" d="M506.14,-109.98C488.04,-101.5 460.01,-88.35 439.1,-78.54"/>
<polygon fill="#63b8ff" stroke="#63b8ff" points="440.32,-75.25 429.78,-74.17 437.35,-81.59 440.32,-75.25"/>
</a>
</g>
</g>
<!-- Node4&#45;&gt;Node6 -->
<g id="edge8_Node000004_Node000006" class="edge">
<title>Node4&#45;&gt;Node6</title>
<g id="a_edge8_Node000004_Node000006"><a xlink:title=" ">
<path fill="none" stroke="#63b8ff" d="M519.63,-109.66C510.23,-91.85 488.86,-51.37 476.53,-28.01"/>
<polygon fill="#63b8ff" stroke="#63b8ff" points="479.63,-26.37 471.86,-19.16 473.43,-29.64 479.63,-26.37"/>
</a>
</g>
</g>
<!-- Node7 -->
<g id="Node000007" class="node">
<title>Node7</title>
<g id="a_Node000007"><a xlink:href="../../da/d16/vector_8hpp.html" target="_top" xlink:title=" ">
<polygon fill="white" stroke="#666666" points="838.29,-74 740.29,-74 740.29,-55 838.29,-55 838.29,-74"/>
<text text-anchor="middle" x="789.29" y="-62" font-family="Helvetica,sans-Serif" font-size="10.00">qugar/vector.hpp</text>
</a>
</g>
</g>
<!-- Node4&#45;&gt;Node7 -->
<g id="edge6_Node000004_Node000007" class="edge">
<title>Node4&#45;&gt;Node7</title>
<g id="a_edge6_Node000004_Node000007"><a xlink:title=" ">
<path fill="none" stroke="#63b8ff" d="M566.87,-109.98C613,-100.76 686.66,-86.03 736.45,-76.07"/>
<polygon fill="#63b8ff" stroke="#63b8ff" points="737.26,-79.48 746.38,-74.08 735.89,-72.61 737.26,-79.48"/>
</a>
</g>
</g>
<!-- Node4&#45;&gt;Node9 -->
<g id="edge9_Node000004_Node000009" class="edge">
<title>Node4&#45;&gt;Node9</title>
<g id="a_edge9_Node000004_Node000009"><a xlink:title=" ">
<path fill="none" stroke="#63b8ff" d="M571,-111.09C574.14,-110.69 577.26,-110.32 580.29,-110 841.21,-82.12 1157.77,-69.95 1260.42,-66.55"/>
<polygon fill="#63b8ff" stroke="#63b8ff" points="1260.62,-70.04 1270.5,-66.22 1260.39,-63.05 1260.62,-70.04"/>
</a>
</g>
</g>
<!-- Node5&#45;&gt;Node6 -->
<g id="edge5_Node000005_Node000006" class="edge">
<title>Node5&#45;&gt;Node6</title>
<g id="a_edge5_Node000005_Node000006"><a xlink:title=" ">
<path fill="none" stroke="#63b8ff" d="M420.29,-54.98C428.49,-47.23 440.8,-35.58 450.76,-26.14"/>
<polygon fill="#63b8ff" stroke="#63b8ff" points="453.27,-28.59 458.13,-19.17 448.46,-23.5 453.27,-28.59"/>
</a>
</g>
</g>
<!-- Node8 -->
<g id="Node000008" class="node">
<title>Node8</title>
<g id="a_Node000008"><a xlink:title=" ">
<polygon fill="#e0e0e0" stroke="#999999" points="844.29,-19 734.29,-19 734.29,0 844.29,0 844.29,-19"/>
<text text-anchor="middle" x="789.29" y="-7" font-family="Helvetica,sans-Serif" font-size="10.00">algoim/uvector.hpp</text>
</a>
</g>
</g>
<!-- Node7&#45;&gt;Node8 -->
<g id="edge7_Node000007_Node000008" class="edge">
<title>Node7&#45;&gt;Node8</title>
<g id="a_edge7_Node000007_Node000008"><a xlink:title=" ">
<path fill="none" stroke="#63b8ff" d="M789.29,-54.75C789.29,-47.8 789.29,-37.85 789.29,-29.13"/>
<polygon fill="#63b8ff" stroke="#63b8ff" points="792.79,-29.09 789.29,-19.09 785.79,-29.09 792.79,-29.09"/>
</a>
</g>
</g>
<!-- Node12&#45;&gt;Node4 -->
<g id="edge16_Node000012_Node000004" class="edge">
<title>Node12&#45;&gt;Node4</title>
<g id="a_edge16_Node000012_Node000004"><a xlink:title=" ">
<path fill="none" stroke="#63b8ff" d="M750.76,-170.49C703.66,-160.1 623.91,-142.49 572.71,-131.19"/>
<polygon fill="#63b8ff" stroke="#63b8ff" points="573.39,-127.75 562.87,-129.02 571.88,-134.59 573.39,-127.75"/>
</a>
</g>
</g>
<!-- Node12&#45;&gt;Node5 -->
<g id="edge15_Node000012_Node000005" class="edge">
<title>Node12&#45;&gt;Node5</title>
<g id="a_edge15_Node000012_Node000005"><a xlink:title=" ">
<path fill="none" stroke="#63b8ff" d="M714.06,-173.03C633.12,-165.59 510.47,-151.11 469.29,-129 449.22,-118.22 432.47,-97.73 422.22,-82.94"/>
<polygon fill="#63b8ff" stroke="#63b8ff" points="424.87,-80.62 416.44,-74.2 419.03,-84.47 424.87,-80.62"/>
</a>
</g>
</g>
<!-- Node12&#45;&gt;Node7 -->
<g id="edge17_Node000012_Node000007" class="edge">
<title>Node12&#45;&gt;Node7</title>
<g id="a_edge17_Node000012_Node000007"><a xlink:title=" ">
<path fill="none" stroke="#63b8ff" d="M789.29,-170.47C789.29,-152.23 789.29,-109.07 789.29,-84.14"/>
<polygon fill="#63b8ff" stroke="#63b8ff" points="792.79,-84.13 789.29,-74.13 785.79,-84.13 792.79,-84.13"/>
</a>
</g>
</g>
<!-- Node13 -->
<g id="Node000013" class="node">
<title>Node13</title>
<g id="a_Node000013"><a xlink:title=" ">
<polygon fill="#e0e0e0" stroke="#999999" points="761.29,-129 649.29,-129 649.29,-110 761.29,-110 761.29,-129"/>
<text text-anchor="middle" x="705.29" y="-117" font-family="Helvetica,sans-Serif" font-size="10.00">algoim/interval.hpp</text>
</a>
</g>
</g>
<!-- Node12&#45;&gt;Node13 -->
<g id="edge18_Node000012_Node000013" class="edge">
<title>Node12&#45;&gt;Node13</title>
<g id="a_edge18_Node000012_Node000013"><a xlink:title=" ">
<path fill="none" stroke="#63b8ff" d="M776.9,-170.37C763.5,-161.04 741.92,-146.01 725.95,-134.88"/>
<polygon fill="#63b8ff" stroke="#63b8ff" points="727.94,-132.01 717.74,-129.17 723.94,-137.75 727.94,-132.01"/>
</a>
</g>
</g>
<!-- Node14 -->
<g id="Node000014" class="node">
<title>Node14</title>
<g id="a_Node000014"><a xlink:title=" ">
<polygon fill="#e0e0e0" stroke="#999999" points="955.29,-129 905.29,-129 905.29,-110 955.29,-110 955.29,-129"/>
<text text-anchor="middle" x="930.29" y="-117" font-family="Helvetica,sans-Serif" font-size="10.00">cstdint</text>
</a>
</g>
</g>
<!-- Node12&#45;&gt;Node14 -->
<g id="edge19_Node000012_Node000014" class="edge">
<title>Node12&#45;&gt;Node14</title>
<g id="a_edge19_Node000012_Node000014"><a xlink:title=" ">
<path fill="none" stroke="#63b8ff" d="M809.79,-170.49C833.6,-160.62 873.09,-144.23 900.33,-132.93"/>
<polygon fill="#63b8ff" stroke="#63b8ff" points="901.87,-136.08 909.77,-129.02 899.19,-129.62 901.87,-136.08"/>
</a>
</g>
</g>
<!-- Node15 -->
<g id="Node000015" class="node">
<title>Node15</title>
<g id="a_Node000015"><a xlink:title=" ">
<polygon fill="#e0e0e0" stroke="#999999" points="886.79,-129 817.79,-129 817.79,-110 886.79,-110 886.79,-129"/>
<text text-anchor="middle" x="852.29" y="-117" font-family="Helvetica,sans-Serif" font-size="10.00">type_traits</text>
</a>
</g>
</g>
<!-- Node12&#45;&gt;Node15 -->
<g id="edge20_Node000012_Node000015" class="edge">
<title>Node12&#45;&gt;Node15</title>
<g id="a_edge20_Node000012_Node000015"><a xlink:title=" ">
<path fill="none" stroke="#63b8ff" d="M798.59,-170.37C808.27,-161.38 823.63,-147.11 835.45,-136.14"/>
<polygon fill="#63b8ff" stroke="#63b8ff" points="838.01,-138.54 842.96,-129.17 833.25,-133.41 838.01,-138.54"/>
</a>
</g>
</g>
<!-- Node16&#45;&gt;Node2 -->
<g id="edge22_Node000016_Node000002" class="edge">
<title>Node16&#45;&gt;Node2</title>
<g id="a_edge22_Node000016_Node000002"><a xlink:title=" ">
<path fill="none" stroke="#63b8ff" d="M870.07,-292.13C726.08,-286.78 403.93,-272.44 359.29,-250 336.77,-238.68 319.1,-214.84 308.93,-198.38"/>
<polygon fill="#63b8ff" stroke="#63b8ff" points="311.91,-196.55 303.83,-189.69 305.87,-200.09 311.91,-196.55"/>
</a>
</g>
</g>
<!-- Node16&#45;&gt;Node5 -->
<g id="edge41_Node000016_Node000005" class="edge">
<title>Node16&#45;&gt;Node5</title>
<g id="a_edge41_Node000016_Node000005"><a xlink:title=" ">
<path fill="none" stroke="#63b8ff" d="M870.26,-291.81C777.25,-285.53 609.08,-264.6 485.29,-195 449.94,-175.13 440.54,-165.21 422.29,-129 415.28,-115.09 412.64,-97.53 411.69,-84.4"/>
<polygon fill="#63b8ff" stroke="#63b8ff" points="415.18,-84.04 411.23,-74.21 408.19,-84.36 415.18,-84.04"/>
</a>
</g>
</g>
<!-- Node16&#45;&gt;Node9 -->
<g id="edge44_Node000016_Node000009" class="edge">
<title>Node16&#45;&gt;Node9</title>
<g id="a_edge44_Node000016_Node000009"><a xlink:title=" ">
<path fill="none" stroke="#63b8ff" d="M947.73,-285.59C961.4,-271.7 989.84,-245.04 1019.29,-231 1130.97,-177.77 1207.41,-230.4 1278.29,-129 1287.55,-115.75 1291.46,-97.63 1293.11,-84.14"/>
<polygon fill="#63b8ff" stroke="#63b8ff" points="1296.6,-84.38 1294.03,-74.1 1289.63,-83.74 1296.6,-84.38"/>
</a>
</g>
</g>
<!-- Node16&#45;&gt;Node12 -->
<g id="edge23_Node000016_Node000012" class="edge">
<title>Node16&#45;&gt;Node12</title>
<g id="a_edge23_Node000016_Node000012"><a xlink:title=" ">
<path fill="none" stroke="#63b8ff" d="M936.76,-285.95C932.39,-272.56 922.24,-246.57 905.29,-231 885.37,-212.69 857.71,-200.42 834.39,-192.62"/>
<polygon fill="#63b8ff" stroke="#63b8ff" points="835.29,-189.23 824.7,-189.54 833.17,-195.9 835.29,-189.23"/>
</a>
</g>
</g>
<!-- Node16&#45;&gt;Node17 -->
<g id="edge24_Node000016_Node000017" class="edge">
<title>Node16&#45;&gt;Node17</title>
<g id="a_edge24_Node000016_Node000017"><a xlink:title=" ">
<path fill="none" stroke="#63b8ff" d="M921.3,-285.98C903.36,-277.5 875.58,-264.35 854.86,-254.54"/>
<polygon fill="#63b8ff" stroke="#63b8ff" points="856.15,-251.28 845.61,-250.17 853.16,-257.61 856.15,-251.28"/>
</a>
</g>
</g>
<!-- Node16&#45;&gt;Node18 -->
<g id="edge40_Node000016_Node000018" class="edge">
<title>Node16&#45;&gt;Node18</title>
<g id="a_edge40_Node000016_Node000018"><a xlink:title=" ">
<path fill="none" stroke="#63b8ff" d="M943.8,-285.97C952.89,-268.78 973.67,-229.47 987.06,-204.13"/>
<polygon fill="#63b8ff" stroke="#63b8ff" points="990.22,-205.66 991.8,-195.18 984.03,-202.39 990.22,-205.66"/>
</a>
</g>
</g>
<!-- Node16&#45;&gt;Node22 -->
<g id="edge42_Node000016_Node000022" class="edge">
<title>Node16&#45;&gt;Node22</title>
<g id="a_edge42_Node000016_Node000022"><a xlink:title=" ">
<path fill="none" stroke="#63b8ff" d="M961.95,-285.98C985.14,-277.27 1021.41,-263.63 1047.69,-253.75"/>
<polygon fill="#63b8ff" stroke="#63b8ff" points="1049.1,-256.97 1057.23,-250.17 1046.63,-250.41 1049.1,-256.97"/>
</a>
</g>
</g>
<!-- Node16&#45;&gt;Node23 -->
<g id="edge43_Node000016_Node000023" class="edge">
<title>Node16&#45;&gt;Node23</title>
<g id="a_edge43_Node000016_Node000023"><a xlink:title=" ">
<path fill="none" stroke="#63b8ff" d="M978.4,-285.92C1017.03,-277.44 1078.08,-264.02 1140.26,-250.22"/>
<polygon fill="#63b8ff" stroke="#63b8ff" points="1141.24,-253.59 1150.25,-248.01 1139.73,-246.76 1141.24,-253.59"/>
</a>
</g>
</g>
<!-- Node17&#45;&gt;Node2 -->
<g id="edge25_Node000017_Node000002" class="edge">
<title>Node17&#45;&gt;Node2</title>
<g id="a_edge25_Node000017_Node000002"><a xlink:title=" ">
<path fill="none" stroke="#63b8ff" d="M757.94,-233.16C672.86,-225.18 524.3,-210.64 397.29,-195 383.84,-193.34 369.37,-191.38 355.79,-189.45"/>
<polygon fill="#63b8ff" stroke="#63b8ff" points="356,-185.95 345.61,-187.99 355.01,-192.88 356,-185.95"/>
</a>
</g>
</g>
<!-- Node17&#45;&gt;Node4 -->
<g id="edge27_Node000017_Node000004" class="edge">
<title>Node17&#45;&gt;Node4</title>
<g id="a_edge27_Node000017_Node000004"><a xlink:title=" ">
<path fill="none" stroke="#63b8ff" d="M802.88,-230.92C778.17,-222.17 738.92,-208.05 705.29,-195 651.43,-174.1 589.28,-148.1 553.6,-133"/>
<polygon fill="#63b8ff" stroke="#63b8ff" points="554.85,-129.72 544.27,-129.04 552.11,-136.16 554.85,-129.72"/>
</a>
</g>
</g>
<!-- Node17&#45;&gt;Node5 -->
<g id="edge37_Node000017_Node000005" class="edge">
<title>Node17&#45;&gt;Node5</title>
<g id="a_edge37_Node000017_Node000005"><a xlink:title=" ">
<path fill="none" stroke="#63b8ff" d="M758.26,-237.84C673.14,-232.16 528.91,-210.19 440.29,-129 427.32,-117.11 419.73,-98.28 415.6,-84.21"/>
<polygon fill="#63b8ff" stroke="#63b8ff" points="418.89,-82.96 412.98,-74.17 412.11,-84.73 418.89,-82.96"/>
</a>
</g>
</g>
<!-- Node17&#45;&gt;Node9 -->
<g id="edge39_Node000017_Node000009" class="edge">
<title>Node17&#45;&gt;Node9</title>
<g id="a_edge39_Node000017_Node000009"><a xlink:title=" ">
<path fill="none" stroke="#63b8ff" d="M896.36,-238.8C988.23,-234.4 1151.23,-214.05 1256.29,-129 1270.93,-117.15 1281.27,-98.04 1287.43,-83.88"/>
<polygon fill="#63b8ff" stroke="#63b8ff" points="1290.83,-84.8 1291.33,-74.21 1284.34,-82.18 1290.83,-84.8"/>
</a>
</g>
</g>
<!-- Node17&#45;&gt;Node12 -->
<g id="edge26_Node000017_Node000012" class="edge">
<title>Node17&#45;&gt;Node12</title>
<g id="a_edge26_Node000017_Node000012"><a xlink:title=" ">
<path fill="none" stroke="#63b8ff" d="M821.69,-230.87C816.13,-222.31 807.46,-208.97 800.49,-198.24"/>
<polygon fill="#63b8ff" stroke="#63b8ff" points="803.3,-196.15 794.92,-189.67 797.43,-199.96 803.3,-196.15"/>
</a>
</g>
</g>
<!-- Node17&#45;&gt;Node18 -->
<g id="edge28_Node000017_Node000018" class="edge">
<title>Node17&#45;&gt;Node18</title>
<g id="a_edge28_Node000017_Node000018"><a xlink:title=" ">
<path fill="none" stroke="#63b8ff" d="M852.3,-230.99C877.38,-222.46 916.71,-209.09 948.38,-198.32"/>
<polygon fill="#63b8ff" stroke="#63b8ff" points="949.6,-201.6 957.94,-195.06 947.35,-194.97 949.6,-201.6"/>
</a>
</g>
</g>
<!-- Node20 -->
<g id="Node000020" class="node">
<title>Node20</title>
<g id="a_Node000020"><a xlink:title=" ">
<polygon fill="#e0e0e0" stroke="#999999" points="1025.29,-129 973.29,-129 973.29,-110 1025.29,-110 1025.29,-129"/>
<text text-anchor="middle" x="999.29" y="-117" font-family="Helvetica,sans-Serif" font-size="10.00">cassert</text>
</a>
</g>
</g>
<!-- Node17&#45;&gt;Node20 -->
<g id="edge38_Node000017_Node000020" class="edge">
<title>Node17&#45;&gt;Node20</title>
<g id="a_edge38_Node000017_Node000020"><a xlink:title=" ">
<path fill="none" stroke="#63b8ff" d="M839.66,-230.94C868.78,-210.8 941.9,-160.21 978.19,-135.1"/>
<polygon fill="#63b8ff" stroke="#63b8ff" points="980.34,-137.87 986.57,-129.3 976.36,-132.11 980.34,-137.87"/>
</a>
</g>
</g>
<!-- Node18&#45;&gt;Node6 -->
<g id="edge33_Node000018_Node000006" class="edge">
<title>Node18&#45;&gt;Node6</title>
<g id="a_edge33_Node000018_Node000006"><a xlink:title=" ">
<path fill="none" stroke="#63b8ff" d="M1021.91,-164.89C1041.53,-150.87 1064.68,-128.81 1050.29,-110 983.59,-22.82 621.58,-11.86 504.12,-10.61"/>
<polygon fill="#63b8ff" stroke="#63b8ff" points="503.88,-7.11 493.85,-10.52 503.82,-14.11 503.88,-7.11"/>
</a>
</g>
</g>
<!-- Node18&#45;&gt;Node7 -->
<g id="edge30_Node000018_Node000007" class="edge">
<title>Node18&#45;&gt;Node7</title>
<g id="a_edge30_Node000018_Node000007"><a xlink:title=" ">
<path fill="none" stroke="#63b8ff" d="M1015.35,-164.95C1030.3,-150.19 1048.32,-126.81 1034.29,-110 1011.09,-82.2 913.32,-71.73 848.53,-67.81"/>
<polygon fill="#63b8ff" stroke="#63b8ff" points="848.61,-64.31 838.43,-67.24 848.21,-71.3 848.61,-64.31"/>
</a>
</g>
</g>
<!-- Node18&#45;&gt;Node11 -->
<g id="edge31_Node000018_Node000011" class="edge">
<title>Node18&#45;&gt;Node11</title>
<g id="a_edge31_Node000018_Node000011"><a xlink:title=" ">
<path fill="none" stroke="#63b8ff" d="M944.22,-172.27C862.51,-162.14 712.07,-142.86 641.35,-128.92"/>
<polygon fill="#63b8ff" stroke="#63b8ff" points="642.01,-125.48 631.51,-126.9 640.6,-132.34 642.01,-125.48"/>
</a>
</g>
</g>
<!-- Node18&#45;&gt;Node14 -->
<g id="edge34_Node000018_Node000014" class="edge">
<title>Node18&#45;&gt;Node14</title>
<g id="a_edge34_Node000018_Node000014"><a xlink:title=" ">
<path fill="none" stroke="#63b8ff" d="M982.59,-164.84C972.27,-156.09 959.02,-144.85 948.44,-135.88"/>
<polygon fill="#63b8ff" stroke="#63b8ff" points="950.52,-133.06 940.63,-129.27 946,-138.4 950.52,-133.06"/>
</a>
</g>
</g>
<!-- Node18&#45;&gt;Node15 -->
<g id="edge36_Node000018_Node000015" class="edge">
<title>Node18&#45;&gt;Node15</title>
<g id="a_edge36_Node000018_Node000015"><a xlink:title=" ">
<path fill="none" stroke="#63b8ff" d="M964.08,-164.99C939.56,-155.23 907.14,-142.33 883.53,-132.93"/>
<polygon fill="#63b8ff" stroke="#63b8ff" points="884.59,-129.58 874,-129.14 882,-136.09 884.59,-129.58"/>
</a>
</g>
</g>
<!-- Node19 -->
<g id="Node000019" class="node">
<title>Node19</title>
<g id="a_Node000019"><a xlink:title=" ">
<polygon fill="#e0e0e0" stroke="#999999" points="1163.29,-129 1119.29,-129 1119.29,-110 1163.29,-110 1163.29,-129"/>
<text text-anchor="middle" x="1141.29" y="-117" font-family="Helvetica,sans-Serif" font-size="10.00">limits</text>
</a>
</g>
</g>
<!-- Node18&#45;&gt;Node19 -->
<g id="edge29_Node000018_Node000019" class="edge">
<title>Node18&#45;&gt;Node19</title>
<g id="a_edge29_Node000018_Node000019"><a xlink:title=" ">
<path fill="none" stroke="#63b8ff" d="M1033.3,-164.99C1056.89,-155.27 1088.03,-142.44 1110.81,-133.06"/>
<polygon fill="#63b8ff" stroke="#63b8ff" points="1112.41,-136.18 1120.32,-129.14 1109.74,-129.71 1112.41,-136.18"/>
</a>
</g>
</g>
<!-- Node18&#45;&gt;Node20 -->
<g id="edge32_Node000018_Node000020" class="edge">
<title>Node18&#45;&gt;Node20</title>
<g id="a_edge32_Node000018_Node000020"><a xlink:title=" ">
<path fill="none" stroke="#63b8ff" d="M999.29,-164.84C999.29,-157.21 999.29,-147.7 999.29,-139.45"/>
<polygon fill="#63b8ff" stroke="#63b8ff" points="1002.79,-139.27 999.29,-129.27 995.79,-139.27 1002.79,-139.27"/>
</a>
</g>
</g>
<!-- Node21 -->
<g id="Node000021" class="node">
<title>Node21</title>
<g id="a_Node000021"><a xlink:title=" ">
<polygon fill="#e0e0e0" stroke="#999999" points="1246.79,-129 1181.79,-129 1181.79,-110 1246.79,-110 1246.79,-129"/>
<text text-anchor="middle" x="1214.29" y="-117" font-family="Helvetica,sans-Serif" font-size="10.00">functional</text>
</a>
</g>
</g>
<!-- Node18&#45;&gt;Node21 -->
<g id="edge35_Node000018_Node000021" class="edge">
<title>Node18&#45;&gt;Node21</title>
<g id="a_edge35_Node000018_Node000021"><a xlink:title=" ">
<path fill="none" stroke="#63b8ff" d="M1050.79,-164.99C1088.22,-154.8 1138.21,-141.2 1173.02,-131.73"/>
<polygon fill="#63b8ff" stroke="#63b8ff" points="1174.13,-135.06 1182.86,-129.05 1172.29,-128.3 1174.13,-135.06"/>
</a>
</g>
</g>
</g>
</svg>
