<?xml version="1.0" encoding="UTF-8" standalone="no"?>
<!DOCTYPE svg PUBLIC "-//W3C//DTD SVG 1.1//EN"
 "http://www.w3.org/Graphics/SVG/1.1/DTD/svg11.dtd">
<!-- Generated by graphviz version 2.43.0 (0)
 -->
<!-- Title: qugar::impl::DomainFunc&lt; dim, range &gt; Pages: 1 -->
<svg width="667pt" height="350pt"
 viewBox="0.00 0.00 667.00 350.00" xmlns="http://www.w3.org/2000/svg" xmlns:xlink="http://www.w3.org/1999/xlink">
<g id="graph0" class="graph" transform="scale(1 1) rotate(0) translate(4 346)">
<title>qugar::impl::DomainFunc&lt; dim, range &gt;</title>
<!-- Node1 -->
<g id="Node000001" class="node">
<title>Node1</title>
<g id="a_Node000001"><a xlink:title="Domain functions.">
<polygon fill="#999999" stroke="#666666" points="139,-246 0,-246 0,-216 139,-216 139,-246"/>
<text text-anchor="start" x="8" y="-234" font-family="Helvetica,sans-Serif" font-size="10.00">qugar::impl::DomainFunc</text>
<text text-anchor="middle" x="69.5" y="-223" font-family="Helvetica,sans-Serif" font-size="10.00">&lt; dim, range &gt;</text>
</a>
</g>
</g>
<!-- Node2 -->
<g id="Node000002" class="node">
<title>Node2</title>
<g id="a_Node000002"><a xlink:href="../../d2/d05/classqugar_1_1impl_1_1PolynomialTP.html" target="_top" xlink:title=" ">
<polygon fill="white" stroke="#666666" points="320,-294 175,-294 175,-264 320,-264 320,-294"/>
<text text-anchor="start" x="183" y="-282" font-family="Helvetica,sans-Serif" font-size="10.00">qugar::impl::PolynomialTP</text>
<text text-anchor="middle" x="247.5" y="-271" font-family="Helvetica,sans-Serif" font-size="10.00">&lt; dim, 1 &gt;</text>
</a>
</g>
</g>
<!-- Node1&#45;&gt;Node2 -->
<g id="edge1_Node000001_Node000002" class="edge">
<title>Node1&#45;&gt;Node2</title>
<g id="a_edge1_Node000001_Node000002"><a xlink:title=" ">
<path fill="none" stroke="#63b8ff" d="M135.47,-248.72C153.88,-253.74 173.73,-259.15 191.49,-264"/>
<polygon fill="#63b8ff" stroke="#63b8ff" points="136.27,-245.31 125.7,-246.06 134.43,-252.06 136.27,-245.31"/>
</a>
</g>
</g>
<!-- Node5 -->
<g id="Node000005" class="node">
<title>Node5</title>
<g id="a_Node000005"><a xlink:href="../../d2/d05/classqugar_1_1impl_1_1PolynomialTP.html" target="_top" xlink:title="Base class for tensor&#45;product polynomial functions.">
<polygon fill="white" stroke="#666666" points="320,-222 175,-222 175,-192 320,-192 320,-222"/>
<text text-anchor="start" x="183" y="-210" font-family="Helvetica,sans-Serif" font-size="10.00">qugar::impl::PolynomialTP</text>
<text text-anchor="middle" x="247.5" y="-199" font-family="Helvetica,sans-Serif" font-size="10.00">&lt; dim, range &gt;</text>
</a>
</g>
</g>
<!-- Node1&#45;&gt;Node5 -->
<g id="edge4_Node000001_Node000005" class="edge">
<title>Node1&#45;&gt;Node5</title>
<g id="a_edge4_Node000001_Node000005"><a xlink:title=" ">
<path fill="none" stroke="#63b8ff" d="M149.08,-220.28C157.69,-219.11 166.42,-217.92 174.94,-216.76"/>
<polygon fill="#63b8ff" stroke="#63b8ff" points="148.49,-216.83 139.05,-221.65 149.43,-223.77 148.49,-216.83"/>
</a>
</g>
</g>
<!-- Node3 -->
<g id="Node000003" class="node">
<title>Node3</title>
<g id="a_Node000003"><a xlink:href="../../de/dca/classqugar_1_1impl_1_1BezierTP.html" target="_top" xlink:title="dim&#45;dimensional tensor&#45;product Bezier polynomial function.">
<polygon fill="white" stroke="#666666" points="488.5,-342 367.5,-342 367.5,-312 488.5,-312 488.5,-342"/>
<text text-anchor="start" x="375.5" y="-330" font-family="Helvetica,sans-Serif" font-size="10.00">qugar::impl::BezierTP</text>
<text text-anchor="middle" x="428" y="-319" font-family="Helvetica,sans-Serif" font-size="10.00">&lt; dim, range &gt;</text>
</a>
</g>
</g>
<!-- Node2&#45;&gt;Node3 -->
<g id="edge2_Node000002_Node000003" class="edge">
<title>Node2&#45;&gt;Node3</title>
<g id="a_edge2_Node000002_Node000003"><a xlink:title=" ">
<path fill="none" stroke="#63b8ff" d="M314.39,-296.72C333.06,-301.74 353.2,-307.15 371.21,-312"/>
<polygon fill="#63b8ff" stroke="#63b8ff" points="315.05,-293.27 304.49,-294.06 313.24,-300.03 315.05,-293.27"/>
</a>
</g>
</g>
<!-- Node4 -->
<g id="Node000004" class="node">
<title>Node4</title>
<g id="a_Node000004"><a xlink:href="../../d2/d87/classqugar_1_1impl_1_1MonomialsTP.html" target="_top" xlink:title="dim&#45;dimensional tensor&#45;product monomials function.">
<polygon fill="white" stroke="#666666" points="500,-294 356,-294 356,-264 500,-264 500,-294"/>
<text text-anchor="start" x="364" y="-282" font-family="Helvetica,sans-Serif" font-size="10.00">qugar::impl::MonomialsTP</text>
<text text-anchor="middle" x="428" y="-271" font-family="Helvetica,sans-Serif" font-size="10.00">&lt; dim, range &gt;</text>
</a>
</g>
</g>
<!-- Node2&#45;&gt;Node4 -->
<g id="edge3_Node000002_Node000004" class="edge">
<title>Node2&#45;&gt;Node4</title>
<g id="a_edge3_Node000002_Node000004"><a xlink:title=" ">
<path fill="none" stroke="#63b8ff" d="M330.14,-279C338.77,-279 347.5,-279 355.99,-279"/>
<polygon fill="#63b8ff" stroke="#63b8ff" points="330.07,-275.5 320.07,-279 330.07,-282.5 330.07,-275.5"/>
</a>
</g>
</g>
<!-- Node6 -->
<g id="Node000006" class="node">
<title>Node6</title>
<g id="a_Node000006"><a xlink:href="../../de/dca/classqugar_1_1impl_1_1BezierTP.html" target="_top" xlink:title=" ">
<polygon fill="white" stroke="#666666" points="488.5,-246 367.5,-246 367.5,-216 488.5,-216 488.5,-246"/>
<text text-anchor="start" x="375.5" y="-234" font-family="Helvetica,sans-Serif" font-size="10.00">qugar::impl::BezierTP</text>
<text text-anchor="middle" x="428" y="-223" font-family="Helvetica,sans-Serif" font-size="10.00">&lt; 2, 1 &gt;</text>
</a>
</g>
</g>
<!-- Node5&#45;&gt;Node6 -->
<g id="edge5_Node000005_Node000006" class="edge">
<title>Node5&#45;&gt;Node6</title>
<g id="a_edge5_Node000005_Node000006"><a xlink:title=" ">
<path fill="none" stroke="#63b8ff" d="M330.1,-217.97C342.68,-219.66 355.46,-221.38 367.44,-222.99"/>
<polygon fill="#63b8ff" stroke="#63b8ff" points="330.45,-214.49 320.07,-216.62 329.52,-221.42 330.45,-214.49"/>
</a>
</g>
</g>
<!-- Node8 -->
<g id="Node000008" class="node">
<title>Node8</title>
<g id="a_Node000008"><a xlink:href="../../de/dca/classqugar_1_1impl_1_1BezierTP.html" target="_top" xlink:title=" ">
<polygon fill="white" stroke="#666666" points="488.5,-198 367.5,-198 367.5,-168 488.5,-168 488.5,-198"/>
<text text-anchor="start" x="375.5" y="-186" font-family="Helvetica,sans-Serif" font-size="10.00">qugar::impl::BezierTP</text>
<text text-anchor="middle" x="428" y="-175" font-family="Helvetica,sans-Serif" font-size="10.00">&lt; dim, 1 &gt;</text>
</a>
</g>
</g>
<!-- Node5&#45;&gt;Node8 -->
<g id="edge7_Node000005_Node000008" class="edge">
<title>Node5&#45;&gt;Node8</title>
<g id="a_edge7_Node000005_Node000008"><a xlink:title=" ">
<path fill="none" stroke="#63b8ff" d="M330.1,-196.03C342.68,-194.34 355.46,-192.62 367.44,-191.01"/>
<polygon fill="#63b8ff" stroke="#63b8ff" points="329.52,-192.58 320.07,-197.38 330.45,-199.51 329.52,-192.58"/>
</a>
</g>
</g>
<!-- Node13 -->
<g id="Node000013" class="node">
<title>Node13</title>
<g id="a_Node000013"><a xlink:href="../../de/dca/classqugar_1_1impl_1_1BezierTP.html" target="_top" xlink:title=" ">
<polygon fill="white" stroke="#666666" points="488.5,-78 367.5,-78 367.5,-48 488.5,-48 488.5,-78"/>
<text text-anchor="start" x="375.5" y="-66" font-family="Helvetica,sans-Serif" font-size="10.00">qugar::impl::BezierTP</text>
<text text-anchor="middle" x="428" y="-55" font-family="Helvetica,sans-Serif" font-size="10.00">&lt; 3, 1 &gt;</text>
</a>
</g>
</g>
<!-- Node5&#45;&gt;Node13 -->
<g id="edge12_Node000005_Node000013" class="edge">
<title>Node5&#45;&gt;Node13</title>
<g id="a_edge12_Node000005_Node000013"><a xlink:title=" ">
<path fill="none" stroke="#63b8ff" d="M275.5,-185.22C312.08,-155.71 376.47,-103.76 408.22,-78.15"/>
<polygon fill="#63b8ff" stroke="#63b8ff" points="272.85,-182.86 267.27,-191.86 277.25,-188.31 272.85,-182.86"/>
</a>
</g>
</g>
<!-- Node7 -->
<g id="Node000007" class="node">
<title>Node7</title>
<g id="a_Node000007"><a xlink:href="../../dc/d68/classqugar_1_1impl_1_1funcs_1_1AnnulusBzr.html" target="_top" xlink:title="2D annulus function. The function is defined by the annulus center and outer and inner radii....">
<polygon fill="white" stroke="#666666" points="649.5,-318 545.5,-318 545.5,-288 649.5,-288 649.5,-318"/>
<text text-anchor="start" x="553.5" y="-306" font-family="Helvetica,sans-Serif" font-size="10.00">qugar::impl::funcs</text>
<text text-anchor="middle" x="597.5" y="-295" font-family="Helvetica,sans-Serif" font-size="10.00">::AnnulusBzr</text>
</a>
</g>
</g>
<!-- Node6&#45;&gt;Node7 -->
<g id="edge6_Node000006_Node000007" class="edge">
<title>Node6&#45;&gt;Node7</title>
<g id="a_edge6_Node000006_Node000007"><a xlink:title=" ">
<path fill="none" stroke="#63b8ff" d="M488.34,-249.74C492.34,-251.4 496.26,-253.16 500,-255 517.26,-263.48 518.97,-270.07 536,-279 542,-282.15 548.52,-285.14 554.97,-287.87"/>
<polygon fill="#63b8ff" stroke="#63b8ff" points="489.53,-246.44 478.94,-246.03 486.96,-252.96 489.53,-246.44"/>
</a>
</g>
</g>
<!-- Node9 -->
<g id="Node000009" class="node">
<title>Node9</title>
<g id="a_Node000009"><a xlink:href="../../dd/da4/classqugar_1_1impl_1_1funcs_1_1ConstantBzr.html" target="_top" xlink:title="Dimension independent constant function.">
<polygon fill="white" stroke="#666666" points="659,-270 536,-270 536,-240 659,-240 659,-270"/>
<text text-anchor="start" x="544" y="-258" font-family="Helvetica,sans-Serif" font-size="10.00">qugar::impl::funcs</text>
<text text-anchor="middle" x="597.5" y="-247" font-family="Helvetica,sans-Serif" font-size="10.00">::ConstantBzr&lt; dim &gt;</text>
</a>
</g>
</g>
<!-- Node8&#45;&gt;Node9 -->
<g id="edge8_Node000008_Node000009" class="edge">
<title>Node8&#45;&gt;Node9</title>
<g id="a_edge8_Node000008_Node000009"><a xlink:title=" ">
<path fill="none" stroke="#63b8ff" d="M488.34,-201.74C492.34,-203.4 496.26,-205.16 500,-207 517.26,-215.48 518.97,-222.07 536,-231 542,-234.15 548.52,-237.14 554.97,-239.87"/>
<polygon fill="#63b8ff" stroke="#63b8ff" points="489.53,-198.44 478.94,-198.03 486.96,-204.96 489.53,-198.44"/>
</a>
</g>
</g>
<!-- Node10 -->
<g id="Node000010" class="node">
<title>Node10</title>
<g id="a_Node000010"><a xlink:href="../../d6/d06/classqugar_1_1impl_1_1funcs_1_1EllipsoidBzr.html" target="_top" xlink:title="Dimension independent ellipsoidal function. The function is defined by the ellipsoid&#39;s semi&#45;axes and ...">
<polygon fill="white" stroke="#666666" points="658,-222 537,-222 537,-192 658,-192 658,-222"/>
<text text-anchor="start" x="545" y="-210" font-family="Helvetica,sans-Serif" font-size="10.00">qugar::impl::funcs</text>
<text text-anchor="middle" x="597.5" y="-199" font-family="Helvetica,sans-Serif" font-size="10.00">::EllipsoidBzr&lt; dim &gt;</text>
</a>
</g>
</g>
<!-- Node8&#45;&gt;Node10 -->
<g id="edge9_Node000008_Node000010" class="edge">
<title>Node8&#45;&gt;Node10</title>
<g id="a_edge9_Node000008_Node000010"><a xlink:title=" ">
<path fill="none" stroke="#63b8ff" d="M498.61,-192.97C511.32,-194.8 524.49,-196.68 536.88,-198.46"/>
<polygon fill="#63b8ff" stroke="#63b8ff" points="498.92,-189.48 488.53,-191.53 497.93,-196.41 498.92,-189.48"/>
</a>
</g>
</g>
<!-- Node11 -->
<g id="Node000011" class="node">
<title>Node11</title>
<g id="a_Node000011"><a xlink:href="../../dd/d35/classqugar_1_1impl_1_1funcs_1_1PlaneBzr.html" target="_top" xlink:title="Plane function.">
<polygon fill="white" stroke="#666666" points="651,-174 544,-174 544,-144 651,-144 651,-174"/>
<text text-anchor="start" x="552" y="-162" font-family="Helvetica,sans-Serif" font-size="10.00">qugar::impl::funcs</text>
<text text-anchor="middle" x="597.5" y="-151" font-family="Helvetica,sans-Serif" font-size="10.00">::PlaneBzr&lt; dim &gt;</text>
</a>
</g>
</g>
<!-- Node8&#45;&gt;Node11 -->
<g id="edge10_Node000008_Node000011" class="edge">
<title>Node8&#45;&gt;Node11</title>
<g id="a_edge10_Node000008_Node000011"><a xlink:title=" ">
<path fill="none" stroke="#63b8ff" d="M498.83,-172.99C513.89,-170.84 529.57,-168.59 543.85,-166.54"/>
<polygon fill="#63b8ff" stroke="#63b8ff" points="497.93,-169.59 488.53,-174.47 498.92,-176.52 497.93,-169.59"/>
</a>
</g>
</g>
<!-- Node12 -->
<g id="Node000012" class="node">
<title>Node12</title>
<g id="a_Node000012"><a xlink:href="../../d1/dfc/classqugar_1_1impl_1_1funcs_1_1SphereBzr.html" target="_top" xlink:title="Dimension independent spherical function. The function is defined by its center and radius....">
<polygon fill="white" stroke="#666666" points="654,-126 541,-126 541,-96 654,-96 654,-126"/>
<text text-anchor="start" x="549" y="-114" font-family="Helvetica,sans-Serif" font-size="10.00">qugar::impl::funcs</text>
<text text-anchor="middle" x="597.5" y="-103" font-family="Helvetica,sans-Serif" font-size="10.00">::SphereBzr&lt; dim &gt;</text>
</a>
</g>
</g>
<!-- Node8&#45;&gt;Node12 -->
<g id="edge11_Node000008_Node000012" class="edge">
<title>Node8&#45;&gt;Node12</title>
<g id="a_edge11_Node000008_Node000012"><a xlink:title=" ">
<path fill="none" stroke="#63b8ff" d="M470.91,-163.68C490.58,-154.75 514.4,-144.12 536,-135 542.97,-132.05 550.44,-129.01 557.67,-126.11"/>
<polygon fill="#63b8ff" stroke="#63b8ff" points="469.27,-160.59 461.62,-167.92 472.17,-166.96 469.27,-160.59"/>
</a>
</g>
</g>
<!-- Node14 -->
<g id="Node000014" class="node">
<title>Node14</title>
<g id="a_Node000014"><a xlink:href="../../dc/de2/classqugar_1_1impl_1_1funcs_1_1CylinderBzr.html" target="_top" xlink:title="Infinite cylinder.">
<polygon fill="white" stroke="#666666" points="649.5,-78 545.5,-78 545.5,-48 649.5,-48 649.5,-78"/>
<text text-anchor="start" x="553.5" y="-66" font-family="Helvetica,sans-Serif" font-size="10.00">qugar::impl::funcs</text>
<text text-anchor="middle" x="597.5" y="-55" font-family="Helvetica,sans-Serif" font-size="10.00">::CylinderBzr</text>
</a>
</g>
</g>
<!-- Node13&#45;&gt;Node14 -->
<g id="edge13_Node000013_Node000014" class="edge">
<title>Node13&#45;&gt;Node14</title>
<g id="a_edge13_Node000013_Node000014"><a xlink:title=" ">
<path fill="none" stroke="#63b8ff" d="M498.71,-63C514.39,-63 530.74,-63 545.49,-63"/>
<polygon fill="#63b8ff" stroke="#63b8ff" points="498.53,-59.5 488.53,-63 498.53,-66.5 498.53,-59.5"/>
</a>
</g>
</g>
<!-- Node15 -->
<g id="Node000015" class="node">
<title>Node15</title>
<g id="a_Node000015"><a xlink:href="../../d0/dc9/classqugar_1_1impl_1_1funcs_1_1TorusBzr.html" target="_top" xlink:title="3D torus function. The function is defined by the torus center, axis, and major and inner radii....">
<polygon fill="white" stroke="#666666" points="649.5,-30 545.5,-30 545.5,0 649.5,0 649.5,-30"/>
<text text-anchor="start" x="553.5" y="-18" font-family="Helvetica,sans-Serif" font-size="10.00">qugar::impl::funcs</text>
<text text-anchor="middle" x="597.5" y="-7" font-family="Helvetica,sans-Serif" font-size="10.00">::TorusBzr</text>
</a>
</g>
</g>
<!-- Node13&#45;&gt;Node15 -->
<g id="edge14_Node000013_Node000015" class="edge">
<title>Node13&#45;&gt;Node15</title>
<g id="a_edge14_Node000013_Node000015"><a xlink:title=" ">
<path fill="none" stroke="#63b8ff" d="M491.26,-45.16C509.06,-40.06 528.24,-34.56 545.3,-29.67"/>
<polygon fill="#63b8ff" stroke="#63b8ff" points="490.19,-41.82 481.54,-47.94 492.12,-48.55 490.19,-41.82"/>
</a>
</g>
</g>
</g>
</svg>
