<?xml version="1.0" encoding="UTF-8" standalone="no"?>
<!DOCTYPE svg PUBLIC "-//W3C//DTD SVG 1.1//EN"
 "http://www.w3.org/Graphics/SVG/1.1/DTD/svg11.dtd">
<!-- Generated by graphviz version 2.43.0 (0)
 -->
<!-- Title: qugar::impl::funcs::EllipsoidBase::semi_axes Pages: 1 -->
<svg width="349pt" height="290pt"
 viewBox="0.00 0.00 349.00 289.50" xmlns="http://www.w3.org/2000/svg" xmlns:xlink="http://www.w3.org/1999/xlink">
<g id="graph0" class="graph" transform="scale(1 1) rotate(0) translate(4 285.5)">
<title>qugar::impl::funcs::EllipsoidBase::semi_axes</title>
<!-- Node1 -->
<g id="Node000001" class="node">
<title>Node1</title>
<g id="a_Node000001"><a xlink:title="Gets the semi&#45;axes of the ellipsoid.">
<polygon fill="#999999" stroke="#666666" points="341,-150 195,-150 195,-120 341,-120 341,-150"/>
<text text-anchor="start" x="203" y="-138" font-family="Helvetica,sans-Serif" font-size="10.00">qugar::impl::funcs</text>
<text text-anchor="middle" x="268" y="-127" font-family="Helvetica,sans-Serif" font-size="10.00">::EllipsoidBase::semi_axes</text>
</a>
</g>
</g>
<!-- Node2 -->
<g id="Node000002" class="node">
<title>Node2</title>
<g id="a_Node000002"><a xlink:href="../../d6/d06/classqugar_1_1impl_1_1funcs_1_1EllipsoidBzr.html#ac2c842587c44af00704cd5eb9613fe9a" target="_top" xlink:title="Creates a polynomial representation based on monomials for the given semi&#45;axes and reference system.">
<polygon fill="white" stroke="#666666" points="137.5,-281.5 21.5,-281.5 21.5,-240.5 137.5,-240.5 137.5,-281.5"/>
<text text-anchor="start" x="29.5" y="-269.5" font-family="Helvetica,sans-Serif" font-size="10.00">qugar::impl::funcs</text>
<text text-anchor="start" x="29.5" y="-258.5" font-family="Helvetica,sans-Serif" font-size="10.00">::EllipsoidBzr::create</text>
<text text-anchor="middle" x="79.5" y="-247.5" font-family="Helvetica,sans-Serif" font-size="10.00">_monomials</text>
</a>
</g>
</g>
<!-- Node1&#45;&gt;Node2 -->
<g id="edge1_Node000001_Node000002" class="edge">
<title>Node1&#45;&gt;Node2</title>
<g id="a_edge1_Node000001_Node000002"><a xlink:title=" ">
<path fill="none" stroke="#63b8ff" d="M246.39,-157.53C225.93,-178.82 192.8,-210.47 159,-231 152.39,-235.01 145.15,-238.65 137.83,-241.9"/>
<polygon fill="#63b8ff" stroke="#63b8ff" points="249,-159.87 253.34,-150.2 243.92,-155.05 249,-159.87"/>
</a>
</g>
</g>
<!-- Node3 -->
<g id="Node000003" class="node">
<title>Node3</title>
<g id="a_Node000003"><a xlink:href="../../d7/d1f/classqugar_1_1impl_1_1funcs_1_1Ellipsoid.html#a0803a99391417e24eff7795ba40931c8" target="_top" xlink:title="Constructor.">
<polygon fill="white" stroke="#666666" points="135,-222 24,-222 24,-192 135,-192 135,-222"/>
<text text-anchor="start" x="32" y="-210" font-family="Helvetica,sans-Serif" font-size="10.00">qugar::impl::funcs</text>
<text text-anchor="middle" x="79.5" y="-199" font-family="Helvetica,sans-Serif" font-size="10.00">::Ellipsoid::Ellipsoid</text>
</a>
</g>
</g>
<!-- Node1&#45;&gt;Node3 -->
<g id="edge2_Node000001_Node000003" class="edge">
<title>Node1&#45;&gt;Node3</title>
<g id="a_edge2_Node000001_Node000003"><a xlink:title=" ">
<path fill="none" stroke="#63b8ff" d="M226.59,-154.36C206.51,-163.62 181.73,-174.51 159,-183 150.72,-186.09 141.85,-189.09 133.16,-191.87"/>
<polygon fill="#63b8ff" stroke="#63b8ff" points="228.17,-157.49 235.76,-150.1 225.21,-151.14 228.17,-157.49"/>
</a>
</g>
</g>
<!-- Node4 -->
<g id="Node000004" class="node">
<title>Node4</title>
<g id="a_Node000004"><a xlink:href="../../d7/d1f/classqugar_1_1impl_1_1funcs_1_1Ellipsoid.html#a7df41baa51c04585f2d5c9d1830e2b69" target="_top" xlink:title="Constructs an Ellipsoid object with specified semi&#45;axes and reference system.">
<polygon fill="white" stroke="#666666" points="135,-174 24,-174 24,-144 135,-144 135,-174"/>
<text text-anchor="start" x="32" y="-162" font-family="Helvetica,sans-Serif" font-size="10.00">qugar::impl::funcs</text>
<text text-anchor="middle" x="79.5" y="-151" font-family="Helvetica,sans-Serif" font-size="10.00">::Ellipsoid::Ellipsoid</text>
</a>
</g>
</g>
<!-- Node1&#45;&gt;Node4 -->
<g id="edge3_Node000001_Node000004" class="edge">
<title>Node1&#45;&gt;Node4</title>
<g id="a_edge3_Node000001_Node000004"><a xlink:title=" ">
<path fill="none" stroke="#63b8ff" d="M184.54,-145.61C167.78,-147.77 150.55,-149.99 135.06,-151.98"/>
<polygon fill="#63b8ff" stroke="#63b8ff" points="185.42,-149.03 194.89,-144.28 184.53,-142.08 185.42,-149.03"/>
</a>
</g>
</g>
<!-- Node5 -->
<g id="Node000005" class="node">
<title>Node5</title>
<g id="a_Node000005"><a xlink:href="../../d9/d7e/classqugar_1_1impl_1_1funcs_1_1EllipsoidBase.html#a93267509ea04675f5e783d275ae1d8a2" target="_top" xlink:title="Constructs an Ellipsoid object with specified semi&#45;axes and reference system.">
<polygon fill="white" stroke="#666666" points="159,-126 0,-126 0,-96 159,-96 159,-126"/>
<text text-anchor="start" x="8" y="-114" font-family="Helvetica,sans-Serif" font-size="10.00">qugar::impl::funcs</text>
<text text-anchor="middle" x="79.5" y="-103" font-family="Helvetica,sans-Serif" font-size="10.00">::EllipsoidBase::EllipsoidBase</text>
</a>
</g>
</g>
<!-- Node1&#45;&gt;Node5 -->
<g id="edge4_Node000001_Node000005" class="edge">
<title>Node1&#45;&gt;Node5</title>
<g id="a_edge4_Node000001_Node000005"><a xlink:title=" ">
<path fill="none" stroke="#63b8ff" d="M184.94,-124.44C176.4,-123.34 167.73,-122.23 159.22,-121.13"/>
<polygon fill="#63b8ff" stroke="#63b8ff" points="184.53,-127.92 194.89,-125.72 185.42,-120.97 184.53,-127.92"/>
</a>
</g>
</g>
<!-- Node6 -->
<g id="Node000006" class="node">
<title>Node6</title>
<g id="a_Node000006"><a xlink:href="../../d6/d06/classqugar_1_1impl_1_1funcs_1_1EllipsoidBzr.html#a8ad40bde8781dd290bc9c534f08c2abe" target="_top" xlink:title="Constructor.">
<polygon fill="white" stroke="#666666" points="151,-78 8,-78 8,-48 151,-48 151,-78"/>
<text text-anchor="start" x="16" y="-66" font-family="Helvetica,sans-Serif" font-size="10.00">qugar::impl::funcs</text>
<text text-anchor="middle" x="79.5" y="-55" font-family="Helvetica,sans-Serif" font-size="10.00">::EllipsoidBzr::EllipsoidBzr</text>
</a>
</g>
</g>
<!-- Node1&#45;&gt;Node6 -->
<g id="edge5_Node000001_Node000006" class="edge">
<title>Node1&#45;&gt;Node6</title>
<g id="a_edge5_Node000001_Node000006"><a xlink:title=" ">
<path fill="none" stroke="#63b8ff" d="M226.59,-115.64C206.51,-106.38 181.73,-95.49 159,-87 150.72,-83.91 141.85,-80.91 133.16,-78.13"/>
<polygon fill="#63b8ff" stroke="#63b8ff" points="225.21,-118.86 235.76,-119.9 228.17,-112.51 225.21,-118.86"/>
</a>
</g>
</g>
<!-- Node7 -->
<g id="Node000007" class="node">
<title>Node7</title>
<g id="a_Node000007"><a xlink:href="../../d6/d06/classqugar_1_1impl_1_1funcs_1_1EllipsoidBzr.html#a0dfbbde14d58a237d9954e03688c8950" target="_top" xlink:title="Constructs an Ellipsoid object with specified semi&#45;axes and reference system.">
<polygon fill="white" stroke="#666666" points="151,-30 8,-30 8,0 151,0 151,-30"/>
<text text-anchor="start" x="16" y="-18" font-family="Helvetica,sans-Serif" font-size="10.00">qugar::impl::funcs</text>
<text text-anchor="middle" x="79.5" y="-7" font-family="Helvetica,sans-Serif" font-size="10.00">::EllipsoidBzr::EllipsoidBzr</text>
</a>
</g>
</g>
<!-- Node1&#45;&gt;Node7 -->
<g id="edge6_Node000001_Node000007" class="edge">
<title>Node1&#45;&gt;Node7</title>
<g id="a_edge6_Node000001_Node000007"><a xlink:title=" ">
<path fill="none" stroke="#63b8ff" d="M247.03,-112.32C226.82,-90.64 193.68,-58.47 159,-39 153.04,-35.65 146.55,-32.71 139.94,-30.15"/>
<polygon fill="#63b8ff" stroke="#63b8ff" points="244.54,-114.77 253.87,-119.78 249.7,-110.05 244.54,-114.77"/>
</a>
</g>
</g>
</g>
</svg>
