<?xml version="1.0" encoding="UTF-8" standalone="no"?>
<!DOCTYPE svg PUBLIC "-//W3C//DTD SVG 1.1//EN"
 "http://www.w3.org/Graphics/SVG/1.1/DTD/svg11.dtd">
<!-- Generated by graphviz version 2.43.0 (0)
 -->
<!-- Title: qugar::impl::funcs::Cylinder::Cylinder Pages: 1 -->
<svg width="277pt" height="134pt"
 viewBox="0.00 0.00 277.00 134.00" xmlns="http://www.w3.org/2000/svg" xmlns:xlink="http://www.w3.org/1999/xlink">
<g id="graph0" class="graph" transform="scale(1 1) rotate(0) translate(4 130)">
<title>qugar::impl::funcs::Cylinder::Cylinder</title>
<!-- Node1 -->
<g id="Node000001" class="node">
<title>Node1</title>
<g id="a_Node000001"><a xlink:title="Constructor.">
<polygon fill="#999999" stroke="#666666" points="110,-78 0,-78 0,-48 110,-48 110,-78"/>
<text text-anchor="start" x="8" y="-66" font-family="Helvetica,sans-Serif" font-size="10.00">qugar::impl::funcs</text>
<text text-anchor="middle" x="55" y="-55" font-family="Helvetica,sans-Serif" font-size="10.00">::Cylinder::Cylinder</text>
</a>
</g>
</g>
<!-- Node2 -->
<g id="Node000002" class="node">
<title>Node2</title>
<g id="a_Node000002"><a xlink:href="../../d5/d65/classqugar_1_1impl_1_1funcs_1_1CylinderBase.html#a1229c227a2e1c326d27d16446002c0cb" target="_top" xlink:title="Gets the axis of the cylinder.">
<polygon fill="white" stroke="#666666" points="264,-126 151,-126 151,-96 264,-96 264,-126"/>
<text text-anchor="start" x="159" y="-114" font-family="Helvetica,sans-Serif" font-size="10.00">qugar::impl::funcs</text>
<text text-anchor="middle" x="207.5" y="-103" font-family="Helvetica,sans-Serif" font-size="10.00">::CylinderBase::axis</text>
</a>
</g>
</g>
<!-- Node1&#45;&gt;Node2 -->
<g id="edge1_Node000001_Node000002" class="edge">
<title>Node1&#45;&gt;Node2</title>
<g id="a_edge1_Node000001_Node000002"><a xlink:title=" ">
<path fill="none" stroke="#63b8ff" d="M103.21,-78.06C117.91,-82.75 134.29,-87.97 149.59,-92.85"/>
<polygon fill="#63b8ff" stroke="#63b8ff" points="148.87,-96.29 159.46,-96 151,-89.62 148.87,-96.29"/>
</a>
</g>
</g>
<!-- Node3 -->
<g id="Node000003" class="node">
<title>Node3</title>
<g id="a_Node000003"><a xlink:href="../../d5/d65/classqugar_1_1impl_1_1funcs_1_1CylinderBase.html#aa8f2f25af45beb10e9c6ca76c3ebaf09" target="_top" xlink:title="Gets the origin of the cylinder.">
<polygon fill="white" stroke="#666666" points="268,-78 147,-78 147,-48 268,-48 268,-78"/>
<text text-anchor="start" x="155" y="-66" font-family="Helvetica,sans-Serif" font-size="10.00">qugar::impl::funcs</text>
<text text-anchor="middle" x="207.5" y="-55" font-family="Helvetica,sans-Serif" font-size="10.00">::CylinderBase::origin</text>
</a>
</g>
</g>
<!-- Node1&#45;&gt;Node3 -->
<g id="edge2_Node000001_Node000003" class="edge">
<title>Node1&#45;&gt;Node3</title>
<g id="a_edge2_Node000001_Node000003"><a xlink:title=" ">
<path fill="none" stroke="#63b8ff" d="M110.33,-63C118.87,-63 127.79,-63 136.61,-63"/>
<polygon fill="#63b8ff" stroke="#63b8ff" points="136.9,-66.5 146.9,-63 136.9,-59.5 136.9,-66.5"/>
</a>
</g>
</g>
<!-- Node4 -->
<g id="Node000004" class="node">
<title>Node4</title>
<g id="a_Node000004"><a xlink:href="../../d5/d65/classqugar_1_1impl_1_1funcs_1_1CylinderBase.html#a3c0c18a5a821c192c527d6188fec6eaa" target="_top" xlink:title="Gets the radius of the cylinder.">
<polygon fill="white" stroke="#666666" points="269,-30 146,-30 146,0 269,0 269,-30"/>
<text text-anchor="start" x="154" y="-18" font-family="Helvetica,sans-Serif" font-size="10.00">qugar::impl::funcs</text>
<text text-anchor="middle" x="207.5" y="-7" font-family="Helvetica,sans-Serif" font-size="10.00">::CylinderBase::radius</text>
</a>
</g>
</g>
<!-- Node1&#45;&gt;Node4 -->
<g id="edge3_Node000001_Node000004" class="edge">
<title>Node1&#45;&gt;Node4</title>
<g id="a_edge3_Node000001_Node000004"><a xlink:title=" ">
<path fill="none" stroke="#63b8ff" d="M103.21,-47.94C117.91,-43.25 134.29,-38.03 149.59,-33.15"/>
<polygon fill="#63b8ff" stroke="#63b8ff" points="151,-36.38 159.46,-30 148.87,-29.71 151,-36.38"/>
</a>
</g>
</g>
</g>
</svg>
