<?xml version="1.0" encoding="UTF-8" standalone="no"?>
<!DOCTYPE svg PUBLIC "-//W3C//DTD SVG 1.1//EN"
 "http://www.w3.org/Graphics/SVG/1.1/DTD/svg11.dtd">
<!-- Generated by graphviz version 2.43.0 (0)
 -->
<!-- Title: qugar::impl::funcs::Cylinder::Cylinder Pages: 1 -->
<svg width="277pt" height="86pt"
 viewBox="0.00 0.00 277.00 86.00" xmlns="http://www.w3.org/2000/svg" xmlns:xlink="http://www.w3.org/1999/xlink">
<g id="graph0" class="graph" transform="scale(1 1) rotate(0) translate(4 82)">
<title>qugar::impl::funcs::Cylinder::Cylinder</title>
<!-- Node1 -->
<g id="Node000001" class="node">
<title>Node1</title>
<g id="a_Node000001"><a xlink:title="Constructor.">
<polygon fill="#999999" stroke="#666666" points="110,-54 0,-54 0,-24 110,-24 110,-54"/>
<text text-anchor="start" x="8" y="-42" font-family="Helvetica,sans-Serif" font-size="10.00">qugar::impl::funcs</text>
<text text-anchor="middle" x="55" y="-31" font-family="Helvetica,sans-Serif" font-size="10.00">::Cylinder::Cylinder</text>
</a>
</g>
</g>
<!-- Node2 -->
<g id="Node000002" class="node">
<title>Node2</title>
<g id="a_Node000002"><a xlink:href="../../d5/d65/classqugar_1_1impl_1_1funcs_1_1CylinderBase.html#aa8f2f25af45beb10e9c6ca76c3ebaf09" target="_top" xlink:title="Gets the origin of the cylinder.">
<polygon fill="white" stroke="#666666" points="268,-78 147,-78 147,-48 268,-48 268,-78"/>
<text text-anchor="start" x="155" y="-66" font-family="Helvetica,sans-Serif" font-size="10.00">qugar::impl::funcs</text>
<text text-anchor="middle" x="207.5" y="-55" font-family="Helvetica,sans-Serif" font-size="10.00">::CylinderBase::origin</text>
</a>
</g>
</g>
<!-- Node1&#45;&gt;Node2 -->
<g id="edge1_Node000001_Node000002" class="edge">
<title>Node1&#45;&gt;Node2</title>
<g id="a_edge1_Node000001_Node000002"><a xlink:title=" ">
<path fill="none" stroke="#63b8ff" d="M110.33,-47.66C118.96,-49.04 127.98,-50.48 136.9,-51.9"/>
<polygon fill="#63b8ff" stroke="#63b8ff" points="136.47,-55.38 146.9,-53.5 137.57,-48.46 136.47,-55.38"/>
</a>
</g>
</g>
<!-- Node3 -->
<g id="Node000003" class="node">
<title>Node3</title>
<g id="a_Node000003"><a xlink:href="../../d5/d65/classqugar_1_1impl_1_1funcs_1_1CylinderBase.html#a3c0c18a5a821c192c527d6188fec6eaa" target="_top" xlink:title="Gets the radius of the cylinder.">
<polygon fill="white" stroke="#666666" points="269,-30 146,-30 146,0 269,0 269,-30"/>
<text text-anchor="start" x="154" y="-18" font-family="Helvetica,sans-Serif" font-size="10.00">qugar::impl::funcs</text>
<text text-anchor="middle" x="207.5" y="-7" font-family="Helvetica,sans-Serif" font-size="10.00">::CylinderBase::radius</text>
</a>
</g>
</g>
<!-- Node1&#45;&gt;Node3 -->
<g id="edge2_Node000001_Node000003" class="edge">
<title>Node1&#45;&gt;Node3</title>
<g id="a_edge2_Node000001_Node000003"><a xlink:title=" ">
<path fill="none" stroke="#63b8ff" d="M110.33,-30.34C118.62,-29.01 127.28,-27.63 135.86,-26.26"/>
<polygon fill="#63b8ff" stroke="#63b8ff" points="136.54,-29.7 145.87,-24.67 135.44,-22.79 136.54,-29.7"/>
</a>
</g>
</g>
</g>
</svg>
