<?xml version="1.0" encoding="UTF-8" standalone="no"?>
<!DOCTYPE svg PUBLIC "-//W3C//DTD SVG 1.1//EN"
 "http://www.w3.org/Graphics/SVG/1.1/DTD/svg11.dtd">
<!-- Generated by graphviz version 2.43.0 (0)
 -->
<!-- Title: /__w/qugar/qugar/cpp/include/qugar/tpms_lib.hpp Pages: 1 -->
<svg width="700pt" height="258pt"
 viewBox="0.00 0.00 699.53 258.00" xmlns="http://www.w3.org/2000/svg" xmlns:xlink="http://www.w3.org/1999/xlink">
<g id="graph0" class="graph" transform="scale(1 1) rotate(0) translate(4 254)">
<title>/__w/qugar/qugar/cpp/include/qugar/tpms_lib.hpp</title>
<!-- Node1 -->
<g id="Node000001" class="node">
<title>Node1</title>
<g id="a_Node000001"><a xlink:title="Declaration of TPMS functions to be consumed by Algoim.">
<polygon fill="#999999" stroke="#666666" points="477.53,-250 325.53,-250 325.53,-220 477.53,-220 477.53,-250"/>
<text text-anchor="start" x="333.53" y="-238" font-family="Helvetica,sans-Serif" font-size="10.00">/__w/qugar/qugar/cpp</text>
<text text-anchor="middle" x="401.53" y="-227" font-family="Helvetica,sans-Serif" font-size="10.00">/include/qugar/tpms_lib.hpp</text>
</a>
</g>
</g>
<!-- Node2 -->
<g id="Node000002" class="node">
<title>Node2</title>
<g id="a_Node000002"><a xlink:href="../../dc/d7c/domain__function_8hpp.html" target="_top" xlink:title="Declaration of a few implicit functions template class ready to be consumed by Algoim.">
<polygon fill="white" stroke="#666666" points="476.53,-184 326.53,-184 326.53,-165 476.53,-165 476.53,-184"/>
<text text-anchor="middle" x="401.53" y="-172" font-family="Helvetica,sans-Serif" font-size="10.00">qugar/domain_function.hpp</text>
</a>
</g>
</g>
<!-- Node1&#45;&gt;Node2 -->
<g id="edge1_Node000001_Node000002" class="edge">
<title>Node1&#45;&gt;Node2</title>
<g id="a_edge1_Node000001_Node000002"><a xlink:title=" ">
<path fill="none" stroke="#63b8ff" d="M401.53,-219.84C401.53,-212.21 401.53,-202.7 401.53,-194.45"/>
<polygon fill="#63b8ff" stroke="#63b8ff" points="405.03,-194.27 401.53,-184.27 398.03,-194.27 405.03,-194.27"/>
</a>
</g>
</g>
<!-- Node3 -->
<g id="Node000003" class="node">
<title>Node3</title>
<g id="a_Node000003"><a xlink:href="../../dd/de3/types_8hpp.html" target="_top" xlink:title="Declaration of types.">
<polygon fill="white" stroke="#666666" points="248.03,-74 153.03,-74 153.03,-55 248.03,-55 248.03,-74"/>
<text text-anchor="middle" x="200.53" y="-62" font-family="Helvetica,sans-Serif" font-size="10.00">qugar/types.hpp</text>
</a>
</g>
</g>
<!-- Node1&#45;&gt;Node3 -->
<g id="edge20_Node000001_Node000003" class="edge">
<title>Node1&#45;&gt;Node3</title>
<g id="a_edge20_Node000001_Node000003"><a xlink:title=" ">
<path fill="none" stroke="#63b8ff" d="M325.43,-234.06C255.94,-231.5 151.82,-220.95 69.53,-184 34.7,-168.36 19.73,-163.58 3.53,-129 -0.05,-121.35 -1.74,-116.6 3.53,-110 20.72,-88.5 90.95,-76.63 142.67,-70.67"/>
<polygon fill="#63b8ff" stroke="#63b8ff" points="143.2,-74.13 152.75,-69.55 142.43,-67.17 143.2,-74.13"/>
</a>
</g>
</g>
<!-- Node5 -->
<g id="Node000005" class="node">
<title>Node5</title>
<g id="a_Node000005"><a xlink:href="../../d0/de4/point_8hpp.html" target="_top" xlink:title="Definition and implementation of Point class.">
<polygon fill="white" stroke="#666666" points="607.03,-129 514.03,-129 514.03,-110 607.03,-110 607.03,-129"/>
<text text-anchor="middle" x="560.53" y="-117" font-family="Helvetica,sans-Serif" font-size="10.00">qugar/point.hpp</text>
</a>
</g>
</g>
<!-- Node1&#45;&gt;Node5 -->
<g id="edge19_Node000001_Node000005" class="edge">
<title>Node1&#45;&gt;Node5</title>
<g id="a_edge19_Node000001_Node000005"><a xlink:title=" ">
<path fill="none" stroke="#63b8ff" d="M427.59,-219.97C444.54,-210.48 466.88,-197.31 485.53,-184 506.43,-169.09 528.67,-149.77 543.46,-136.37"/>
<polygon fill="#63b8ff" stroke="#63b8ff" points="546.23,-138.59 551.24,-129.25 541.5,-133.42 546.23,-138.59"/>
</a>
</g>
</g>
<!-- Node6 -->
<g id="Node000006" class="node">
<title>Node6</title>
<g id="a_Node000006"><a xlink:href="../../da/d16/vector_8hpp.html" target="_top" xlink:title=" ">
<polygon fill="white" stroke="#666666" points="685.53,-74 587.53,-74 587.53,-55 685.53,-55 685.53,-74"/>
<text text-anchor="middle" x="636.53" y="-62" font-family="Helvetica,sans-Serif" font-size="10.00">qugar/vector.hpp</text>
</a>
</g>
</g>
<!-- Node1&#45;&gt;Node6 -->
<g id="edge14_Node000001_Node000006" class="edge">
<title>Node1&#45;&gt;Node6</title>
<g id="a_edge14_Node000001_Node000006"><a xlink:title=" ">
<path fill="none" stroke="#63b8ff" d="M477.58,-222.16C532.03,-209.28 601.64,-182.8 636.53,-129 645.06,-115.85 644.11,-97.72 641.59,-84.19"/>
<polygon fill="#63b8ff" stroke="#63b8ff" points="644.93,-83.09 639.27,-74.13 638.1,-84.66 644.93,-83.09"/>
</a>
</g>
</g>
<!-- Node12 -->
<g id="Node000012" class="node">
<title>Node12</title>
<g id="a_Node000012"><a xlink:href="../../db/d83/numbers_8hpp.html" target="_top" xlink:title="Declaration of constant values.">
<polygon fill="white" stroke="#666666" points="189.03,-184 78.03,-184 78.03,-165 189.03,-165 189.03,-184"/>
<text text-anchor="middle" x="133.53" y="-172" font-family="Helvetica,sans-Serif" font-size="10.00">qugar/numbers.hpp</text>
</a>
</g>
</g>
<!-- Node1&#45;&gt;Node12 -->
<g id="edge15_Node000001_Node000012" class="edge">
<title>Node1&#45;&gt;Node12</title>
<g id="a_edge15_Node000001_Node000012"><a xlink:title=" ">
<path fill="none" stroke="#63b8ff" d="M337.34,-219.99C289.79,-209.61 225.96,-195.68 182.49,-186.19"/>
<polygon fill="#63b8ff" stroke="#63b8ff" points="183.23,-182.77 172.72,-184.05 181.74,-189.61 183.23,-182.77"/>
</a>
</g>
</g>
<!-- Node2&#45;&gt;Node3 -->
<g id="edge2_Node000002_Node000003" class="edge">
<title>Node2&#45;&gt;Node3</title>
<g id="a_edge2_Node000002_Node000003"><a xlink:title=" ">
<path fill="none" stroke="#63b8ff" d="M339.13,-164.97C293.52,-157.53 236.74,-145.36 219.53,-129 207.42,-117.49 202.94,-98.61 201.32,-84.42"/>
<polygon fill="#63b8ff" stroke="#63b8ff" points="204.8,-83.99 200.55,-74.28 197.82,-84.52 204.8,-83.99"/>
</a>
</g>
</g>
<!-- Node2&#45;&gt;Node5 -->
<g id="edge4_Node000002_Node000005" class="edge">
<title>Node2&#45;&gt;Node5</title>
<g id="a_edge4_Node000002_Node000005"><a xlink:title=" ">
<path fill="none" stroke="#63b8ff" d="M427.08,-164.98C453.66,-156.13 495.47,-142.19 525.2,-132.28"/>
<polygon fill="#63b8ff" stroke="#63b8ff" points="526.41,-135.56 534.79,-129.08 524.19,-128.92 526.41,-135.56"/>
</a>
</g>
</g>
<!-- Node2&#45;&gt;Node6 -->
<g id="edge10_Node000002_Node000006" class="edge">
<title>Node2&#45;&gt;Node6</title>
<g id="a_edge10_Node000002_Node000006"><a xlink:title=" ">
<path fill="none" stroke="#63b8ff" d="M476.73,-166.04C530.23,-159.26 596.1,-147.47 616.53,-129 628.98,-117.75 633.74,-98.83 635.53,-84.57"/>
<polygon fill="#63b8ff" stroke="#63b8ff" points="639.04,-84.63 636.42,-74.36 632.07,-84.02 639.04,-84.63"/>
</a>
</g>
</g>
<!-- Node9 -->
<g id="Node000009" class="node">
<title>Node9</title>
<g id="a_Node000009"><a xlink:title=" ">
<polygon fill="#e0e0e0" stroke="#999999" points="340.53,-129 228.53,-129 228.53,-110 340.53,-110 340.53,-129"/>
<text text-anchor="middle" x="284.53" y="-117" font-family="Helvetica,sans-Serif" font-size="10.00">algoim/interval.hpp</text>
</a>
</g>
</g>
<!-- Node2&#45;&gt;Node9 -->
<g id="edge11_Node000002_Node000009" class="edge">
<title>Node2&#45;&gt;Node9</title>
<g id="a_edge11_Node000002_Node000009"><a xlink:title=" ">
<path fill="none" stroke="#63b8ff" d="M382.73,-164.98C363.91,-156.46 334.71,-143.23 313.04,-133.41"/>
<polygon fill="#63b8ff" stroke="#63b8ff" points="314.22,-130.11 303.67,-129.17 311.34,-136.48 314.22,-130.11"/>
</a>
</g>
</g>
<!-- Node10 -->
<g id="Node000010" class="node">
<title>Node10</title>
<g id="a_Node000010"><a xlink:title=" ">
<polygon fill="#e0e0e0" stroke="#999999" points="408.53,-129 358.53,-129 358.53,-110 408.53,-110 408.53,-129"/>
<text text-anchor="middle" x="383.53" y="-117" font-family="Helvetica,sans-Serif" font-size="10.00">cstdint</text>
</a>
</g>
</g>
<!-- Node2&#45;&gt;Node10 -->
<g id="edge12_Node000002_Node000010" class="edge">
<title>Node2&#45;&gt;Node10</title>
<g id="a_edge12_Node000002_Node000010"><a xlink:title=" ">
<path fill="none" stroke="#63b8ff" d="M398.56,-164.75C396.17,-157.72 392.74,-147.62 389.76,-138.84"/>
<polygon fill="#63b8ff" stroke="#63b8ff" points="392.98,-137.43 386.45,-129.09 386.35,-139.68 392.98,-137.43"/>
</a>
</g>
</g>
<!-- Node11 -->
<g id="Node000011" class="node">
<title>Node11</title>
<g id="a_Node000011"><a xlink:title=" ">
<polygon fill="#e0e0e0" stroke="#999999" points="496.03,-129 427.03,-129 427.03,-110 496.03,-110 496.03,-129"/>
<text text-anchor="middle" x="461.53" y="-117" font-family="Helvetica,sans-Serif" font-size="10.00">type_traits</text>
</a>
</g>
</g>
<!-- Node2&#45;&gt;Node11 -->
<g id="edge13_Node000002_Node000011" class="edge">
<title>Node2&#45;&gt;Node11</title>
<g id="a_edge13_Node000002_Node000011"><a xlink:title=" ">
<path fill="none" stroke="#63b8ff" d="M411.17,-164.98C420.04,-157.15 433.41,-145.34 444.14,-135.86"/>
<polygon fill="#63b8ff" stroke="#63b8ff" points="446.54,-138.41 451.72,-129.17 441.9,-133.17 446.54,-138.41"/>
</a>
</g>
</g>
<!-- Node4 -->
<g id="Node000004" class="node">
<title>Node4</title>
<g id="a_Node000004"><a xlink:title=" ">
<polygon fill="#e0e0e0" stroke="#999999" points="396.03,-19 343.03,-19 343.03,0 396.03,0 396.03,-19"/>
<text text-anchor="middle" x="369.53" y="-7" font-family="Helvetica,sans-Serif" font-size="10.00">cstddef</text>
</a>
</g>
</g>
<!-- Node3&#45;&gt;Node4 -->
<g id="edge3_Node000003_Node000004" class="edge">
<title>Node3&#45;&gt;Node4</title>
<g id="a_edge3_Node000003_Node000004"><a xlink:title=" ">
<path fill="none" stroke="#63b8ff" d="M227.68,-54.98C256.31,-46.01 301.56,-31.82 333.24,-21.88"/>
<polygon fill="#63b8ff" stroke="#63b8ff" points="334.51,-25.15 343,-18.82 332.41,-18.47 334.51,-25.15"/>
</a>
</g>
</g>
<!-- Node5&#45;&gt;Node3 -->
<g id="edge5_Node000005_Node000003" class="edge">
<title>Node5&#45;&gt;Node3</title>
<g id="a_edge5_Node000005_Node000003"><a xlink:title=" ">
<path fill="none" stroke="#63b8ff" d="M514.03,-111.28C511.15,-110.85 508.3,-110.42 505.53,-110 419.49,-97.07 319.71,-82.62 258.35,-73.79"/>
<polygon fill="#63b8ff" stroke="#63b8ff" points="258.49,-70.27 248.1,-72.31 257.5,-77.2 258.49,-70.27"/>
</a>
</g>
</g>
<!-- Node5&#45;&gt;Node4 -->
<g id="edge8_Node000005_Node000004" class="edge">
<title>Node5&#45;&gt;Node4</title>
<g id="a_edge8_Node000005_Node000004"><a xlink:title=" ">
<path fill="none" stroke="#63b8ff" d="M560.33,-109.73C559.53,-96.05 555.94,-69.65 540.53,-55 504.26,-20.51 444.76,-11.91 406.38,-10.21"/>
<polygon fill="#63b8ff" stroke="#63b8ff" points="406.25,-6.7 396.15,-9.89 406.04,-13.7 406.25,-6.7"/>
</a>
</g>
</g>
<!-- Node5&#45;&gt;Node6 -->
<g id="edge6_Node000005_Node000006" class="edge">
<title>Node5&#45;&gt;Node6</title>
<g id="a_edge6_Node000005_Node000006"><a xlink:title=" ">
<path fill="none" stroke="#63b8ff" d="M572.74,-109.98C584.31,-101.92 601.91,-89.65 615.69,-80.03"/>
<polygon fill="#63b8ff" stroke="#63b8ff" points="617.9,-82.76 624.1,-74.17 613.89,-77.02 617.9,-82.76"/>
</a>
</g>
</g>
<!-- Node8 -->
<g id="Node000008" class="node">
<title>Node8</title>
<g id="a_Node000008"><a xlink:title=" ">
<polygon fill="#e0e0e0" stroke="#999999" points="531.03,-74 484.03,-74 484.03,-55 531.03,-55 531.03,-74"/>
<text text-anchor="middle" x="507.53" y="-62" font-family="Helvetica,sans-Serif" font-size="10.00">vector</text>
</a>
</g>
</g>
<!-- Node5&#45;&gt;Node8 -->
<g id="edge9_Node000005_Node000008" class="edge">
<title>Node5&#45;&gt;Node8</title>
<g id="a_edge9_Node000005_Node000008"><a xlink:title=" ">
<path fill="none" stroke="#63b8ff" d="M551.78,-109.75C544.06,-102.03 532.63,-90.6 523.32,-81.28"/>
<polygon fill="#63b8ff" stroke="#63b8ff" points="525.67,-78.69 516.12,-74.09 520.72,-83.64 525.67,-78.69"/>
</a>
</g>
</g>
<!-- Node7 -->
<g id="Node000007" class="node">
<title>Node7</title>
<g id="a_Node000007"><a xlink:title=" ">
<polygon fill="#e0e0e0" stroke="#999999" points="691.53,-19 581.53,-19 581.53,0 691.53,0 691.53,-19"/>
<text text-anchor="middle" x="636.53" y="-7" font-family="Helvetica,sans-Serif" font-size="10.00">algoim/uvector.hpp</text>
</a>
</g>
</g>
<!-- Node6&#45;&gt;Node7 -->
<g id="edge7_Node000006_Node000007" class="edge">
<title>Node6&#45;&gt;Node7</title>
<g id="a_edge7_Node000006_Node000007"><a xlink:title=" ">
<path fill="none" stroke="#63b8ff" d="M636.53,-54.75C636.53,-47.8 636.53,-37.85 636.53,-29.13"/>
<polygon fill="#63b8ff" stroke="#63b8ff" points="640.03,-29.09 636.53,-19.09 633.03,-29.09 640.03,-29.09"/>
</a>
</g>
</g>
<!-- Node12&#45;&gt;Node3 -->
<g id="edge16_Node000012_Node000003" class="edge">
<title>Node12&#45;&gt;Node3</title>
<g id="a_edge16_Node000012_Node000003"><a xlink:title=" ">
<path fill="none" stroke="#63b8ff" d="M139.01,-164.66C150.11,-146.77 175.4,-106 189.87,-82.69"/>
<polygon fill="#63b8ff" stroke="#63b8ff" points="192.86,-84.5 195.16,-74.16 186.91,-80.81 192.86,-84.5"/>
</a>
</g>
</g>
<!-- Node13 -->
<g id="Node000013" class="node">
<title>Node13</title>
<g id="a_Node000013"><a xlink:title=" ">
<polygon fill="#e0e0e0" stroke="#999999" points="56.53,-129 12.53,-129 12.53,-110 56.53,-110 56.53,-129"/>
<text text-anchor="middle" x="34.53" y="-117" font-family="Helvetica,sans-Serif" font-size="10.00">limits</text>
</a>
</g>
</g>
<!-- Node12&#45;&gt;Node13 -->
<g id="edge17_Node000012_Node000013" class="edge">
<title>Node12&#45;&gt;Node13</title>
<g id="a_edge17_Node000012_Node000013"><a xlink:title=" ">
<path fill="none" stroke="#63b8ff" d="M117.63,-164.98C101.99,-156.61 77.88,-143.7 59.65,-133.95"/>
<polygon fill="#63b8ff" stroke="#63b8ff" points="61.2,-130.8 50.73,-129.17 57.89,-136.98 61.2,-130.8"/>
</a>
</g>
</g>
<!-- Node14 -->
<g id="Node000014" class="node">
<title>Node14</title>
<g id="a_Node000014"><a xlink:title=" ">
<polygon fill="#e0e0e0" stroke="#999999" points="134.03,-129 75.03,-129 75.03,-110 134.03,-110 134.03,-129"/>
<text text-anchor="middle" x="104.53" y="-117" font-family="Helvetica,sans-Serif" font-size="10.00">numbers</text>
</a>
</g>
</g>
<!-- Node12&#45;&gt;Node14 -->
<g id="edge18_Node000012_Node000014" class="edge">
<title>Node12&#45;&gt;Node14</title>
<g id="a_edge18_Node000012_Node000014"><a xlink:title=" ">
<path fill="none" stroke="#63b8ff" d="M128.74,-164.75C124.77,-157.49 119.01,-146.95 114.1,-137.98"/>
<polygon fill="#63b8ff" stroke="#63b8ff" points="117.1,-136.18 109.23,-129.09 110.96,-139.54 117.1,-136.18"/>
</a>
</g>
</g>
</g>
</svg>
