<?xml version="1.0" encoding="UTF-8" standalone="no"?>
<!DOCTYPE svg PUBLIC "-//W3C//DTD SVG 1.1//EN"
 "http://www.w3.org/Graphics/SVG/1.1/DTD/svg11.dtd">
<!-- Generated by graphviz version 2.43.0 (0)
 -->
<!-- Title: /__w/qugar/qugar/cpp/include/qugar/point.hpp Pages: 1 -->
<svg width="323pt" height="148pt"
 viewBox="0.00 0.00 323.00 148.00" xmlns="http://www.w3.org/2000/svg" xmlns:xlink="http://www.w3.org/1999/xlink">
<g id="graph0" class="graph" transform="scale(1 1) rotate(0) translate(4 144)">
<title>/__w/qugar/qugar/cpp/include/qugar/point.hpp</title>
<!-- Node1 -->
<g id="Node000001" class="node">
<title>Node1</title>
<g id="a_Node000001"><a xlink:title="Definition and implementation of Point class.">
<polygon fill="#999999" stroke="#666666" points="228.5,-140 94.5,-140 94.5,-110 228.5,-110 228.5,-140"/>
<text text-anchor="start" x="102.5" y="-128" font-family="Helvetica,sans-Serif" font-size="10.00">/__w/qugar/qugar/cpp</text>
<text text-anchor="middle" x="161.5" y="-117" font-family="Helvetica,sans-Serif" font-size="10.00">/include/qugar/point.hpp</text>
</a>
</g>
</g>
<!-- Node2 -->
<g id="Node000002" class="node">
<title>Node2</title>
<g id="a_Node000002"><a xlink:href="../../dd/de3/types_8hpp.html" target="_top" xlink:title="Declaration of types.">
<polygon fill="white" stroke="#666666" points="95,-74 0,-74 0,-55 95,-55 95,-74"/>
<text text-anchor="middle" x="47.5" y="-62" font-family="Helvetica,sans-Serif" font-size="10.00">qugar/types.hpp</text>
</a>
</g>
</g>
<!-- Node1&#45;&gt;Node2 -->
<g id="edge1_Node000001_Node000002" class="edge">
<title>Node1&#45;&gt;Node2</title>
<g id="a_edge1_Node000001_Node000002"><a xlink:title=" ">
<path fill="none" stroke="#63b8ff" d="M134.19,-109.99C115.85,-100.58 91.82,-88.24 73.71,-78.95"/>
<polygon fill="#63b8ff" stroke="#63b8ff" points="74.83,-75.59 64.34,-74.14 71.63,-81.82 74.83,-75.59"/>
</a>
</g>
</g>
<!-- Node3 -->
<g id="Node000003" class="node">
<title>Node3</title>
<g id="a_Node000003"><a xlink:title=" ">
<polygon fill="#e0e0e0" stroke="#999999" points="101,-19 48,-19 48,0 101,0 101,-19"/>
<text text-anchor="middle" x="74.5" y="-7" font-family="Helvetica,sans-Serif" font-size="10.00">cstddef</text>
</a>
</g>
</g>
<!-- Node1&#45;&gt;Node3 -->
<g id="edge5_Node000001_Node000003" class="edge">
<title>Node1&#45;&gt;Node3</title>
<g id="a_edge5_Node000001_Node000003"><a xlink:title=" ">
<path fill="none" stroke="#63b8ff" d="M150.48,-109.63C134.41,-88.65 104.58,-49.75 87.47,-27.42"/>
<polygon fill="#63b8ff" stroke="#63b8ff" points="90.05,-25.04 81.19,-19.23 84.5,-29.3 90.05,-25.04"/>
</a>
</g>
</g>
<!-- Node4 -->
<g id="Node000004" class="node">
<title>Node4</title>
<g id="a_Node000004"><a xlink:href="../../da/d16/vector_8hpp.html" target="_top" xlink:title=" ">
<polygon fill="white" stroke="#666666" points="249.5,-74 151.5,-74 151.5,-55 249.5,-55 249.5,-74"/>
<text text-anchor="middle" x="200.5" y="-62" font-family="Helvetica,sans-Serif" font-size="10.00">qugar/vector.hpp</text>
</a>
</g>
</g>
<!-- Node1&#45;&gt;Node4 -->
<g id="edge3_Node000001_Node000004" class="edge">
<title>Node1&#45;&gt;Node4</title>
<g id="a_edge3_Node000001_Node000004"><a xlink:title=" ">
<path fill="none" stroke="#63b8ff" d="M170.94,-109.84C176.37,-101.69 183.23,-91.4 188.98,-82.78"/>
<polygon fill="#63b8ff" stroke="#63b8ff" points="192.02,-84.53 194.66,-74.27 186.2,-80.65 192.02,-84.53"/>
</a>
</g>
</g>
<!-- Node6 -->
<g id="Node000006" class="node">
<title>Node6</title>
<g id="a_Node000006"><a xlink:title=" ">
<polygon fill="#e0e0e0" stroke="#999999" points="315,-74 268,-74 268,-55 315,-55 315,-74"/>
<text text-anchor="middle" x="291.5" y="-62" font-family="Helvetica,sans-Serif" font-size="10.00">vector</text>
</a>
</g>
</g>
<!-- Node1&#45;&gt;Node6 -->
<g id="edge6_Node000001_Node000006" class="edge">
<title>Node1&#45;&gt;Node6</title>
<g id="a_edge6_Node000001_Node000006"><a xlink:title=" ">
<path fill="none" stroke="#63b8ff" d="M192.64,-109.99C214.04,-100.36 242.23,-87.67 263.03,-78.31"/>
<polygon fill="#63b8ff" stroke="#63b8ff" points="264.62,-81.43 272.3,-74.14 261.75,-75.05 264.62,-81.43"/>
</a>
</g>
</g>
<!-- Node2&#45;&gt;Node3 -->
<g id="edge2_Node000002_Node000003" class="edge">
<title>Node2&#45;&gt;Node3</title>
<g id="a_edge2_Node000002_Node000003"><a xlink:title=" ">
<path fill="none" stroke="#63b8ff" d="M51.96,-54.75C55.62,-47.57 60.91,-37.18 65.45,-28.27"/>
<polygon fill="#63b8ff" stroke="#63b8ff" points="68.7,-29.59 70.12,-19.09 62.47,-26.41 68.7,-29.59"/>
</a>
</g>
</g>
<!-- Node5 -->
<g id="Node000005" class="node">
<title>Node5</title>
<g id="a_Node000005"><a xlink:title=" ">
<polygon fill="#e0e0e0" stroke="#999999" points="255.5,-19 145.5,-19 145.5,0 255.5,0 255.5,-19"/>
<text text-anchor="middle" x="200.5" y="-7" font-family="Helvetica,sans-Serif" font-size="10.00">algoim/uvector.hpp</text>
</a>
</g>
</g>
<!-- Node4&#45;&gt;Node5 -->
<g id="edge4_Node000004_Node000005" class="edge">
<title>Node4&#45;&gt;Node5</title>
<g id="a_edge4_Node000004_Node000005"><a xlink:title=" ">
<path fill="none" stroke="#63b8ff" d="M200.5,-54.75C200.5,-47.8 200.5,-37.85 200.5,-29.13"/>
<polygon fill="#63b8ff" stroke="#63b8ff" points="204,-29.09 200.5,-19.09 197,-29.09 204,-29.09"/>
</a>
</g>
</g>
</g>
</svg>
