<?xml version="1.0" encoding="UTF-8" standalone="no"?>
<!DOCTYPE svg PUBLIC "-//W3C//DTD SVG 1.1//EN"
 "http://www.w3.org/Graphics/SVG/1.1/DTD/svg11.dtd">
<!-- Generated by graphviz version 2.43.0 (0)
 -->
<!-- Title: qugar::impl::funcs::Constant&lt; dim &gt; Pages: 1 -->
<svg width="248pt" height="104pt"
 viewBox="0.00 0.00 247.50 104.00" xmlns="http://www.w3.org/2000/svg" xmlns:xlink="http://www.w3.org/1999/xlink">
<g id="graph0" class="graph" transform="scale(1 1) rotate(0) translate(4 100)">
<title>qugar::impl::funcs::Constant&lt; dim &gt;</title>
<!-- Node1 -->
<g id="Node000001" class="node">
<title>Node1</title>
<g id="a_Node000001"><a xlink:title="Dimension independent constant function.">
<polygon fill="#999999" stroke="#666666" points="169.5,-30 62.5,-30 62.5,0 169.5,0 169.5,-30"/>
<text text-anchor="start" x="70.5" y="-18" font-family="Helvetica,sans-Serif" font-size="10.00">qugar::impl::funcs</text>
<text text-anchor="middle" x="116" y="-7" font-family="Helvetica,sans-Serif" font-size="10.00">::Constant&lt; dim &gt;</text>
</a>
</g>
</g>
<!-- Node2 -->
<g id="Node000002" class="node">
<title>Node2</title>
<g id="a_Node000002"><a xlink:href="../../d1/d78/classqugar_1_1impl_1_1funcs_1_1ConstantBase.html" target="_top" xlink:title="Dimension independent constant function.">
<polygon fill="white" stroke="#666666" points="104,-96 0,-96 0,-66 104,-66 104,-96"/>
<text text-anchor="start" x="8" y="-84" font-family="Helvetica,sans-Serif" font-size="10.00">qugar::impl::funcs</text>
<text text-anchor="middle" x="52" y="-73" font-family="Helvetica,sans-Serif" font-size="10.00">::ConstantBase</text>
</a>
</g>
</g>
<!-- Node2&#45;&gt;Node1 -->
<g id="edge1_Node000001_Node000002" class="edge">
<title>Node2&#45;&gt;Node1</title>
<g id="a_edge1_Node000001_Node000002"><a xlink:title=" ">
<path fill="none" stroke="#63b8ff" d="M73.35,-58.65C82.73,-49.27 93.47,-38.53 101.84,-30.16"/>
<polygon fill="#63b8ff" stroke="#63b8ff" points="70.8,-56.25 66.2,-65.8 75.75,-61.2 70.8,-56.25"/>
</a>
</g>
</g>
<!-- Node3 -->
<g id="Node000003" class="node">
<title>Node3</title>
<g id="a_Node000003"><a xlink:href="../../dd/d80/classqugar_1_1impl_1_1DomainFunc.html" target="_top" xlink:title="Domain functions.">
<polygon fill="white" stroke="#666666" points="239.5,-90.5 122.5,-90.5 122.5,-71.5 239.5,-71.5 239.5,-90.5"/>
<text text-anchor="middle" x="181" y="-78.5" font-family="Helvetica,sans-Serif" font-size="10.00">ImplicitFunc&lt; dim &gt;</text>
</a>
</g>
</g>
<!-- Node3&#45;&gt;Node1 -->
<g id="edge2_Node000001_Node000003" class="edge">
<title>Node3&#45;&gt;Node1</title>
<g id="a_edge2_Node000001_Node000003"><a xlink:title=" ">
<path fill="none" stroke="#63b8ff" d="M164.91,-64.16C154.4,-53.81 140.78,-40.4 130.58,-30.36"/>
<polygon fill="#63b8ff" stroke="#63b8ff" points="162.65,-66.85 172.23,-71.37 167.56,-61.86 162.65,-66.85"/>
</a>
</g>
</g>
</g>
</svg>
