<?xml version="1.0" encoding="UTF-8" standalone="no"?>
<!DOCTYPE svg PUBLIC "-//W3C//DTD SVG 1.1//EN"
 "http://www.w3.org/Graphics/SVG/1.1/DTD/svg11.dtd">
<!-- Generated by graphviz version 2.43.0 (0)
 -->
<!-- Title: qugar::impl::funcs::PlaneBase::PlaneBase Pages: 1 -->
<svg width="289pt" height="86pt"
 viewBox="0.00 0.00 289.00 86.00" xmlns="http://www.w3.org/2000/svg" xmlns:xlink="http://www.w3.org/1999/xlink">
<g id="graph0" class="graph" transform="scale(1 1) rotate(0) translate(4 82)">
<title>qugar::impl::funcs::PlaneBase::PlaneBase</title>
<!-- Node1 -->
<g id="Node000001" class="node">
<title>Node1</title>
<g id="a_Node000001"><a xlink:title="Constructs a new plane function. The line is defined by an origin and a normal vector.">
<polygon fill="#999999" stroke="#666666" points="131,-54 0,-54 0,-24 131,-24 131,-54"/>
<text text-anchor="start" x="8" y="-42" font-family="Helvetica,sans-Serif" font-size="10.00">qugar::impl::funcs</text>
<text text-anchor="middle" x="65.5" y="-31" font-family="Helvetica,sans-Serif" font-size="10.00">::PlaneBase::PlaneBase</text>
</a>
</g>
</g>
<!-- Node2 -->
<g id="Node000002" class="node">
<title>Node2</title>
<g id="a_Node000002"><a xlink:href="../../db/d5b/classqugar_1_1impl_1_1funcs_1_1PlaneBase.html#a4341bb67bb5aa7ddb9f5a529ad24f481" target="_top" xlink:title="Gets the normal of the plane.">
<polygon fill="white" stroke="#666666" points="281,-78 167,-78 167,-48 281,-48 281,-78"/>
<text text-anchor="start" x="175" y="-66" font-family="Helvetica,sans-Serif" font-size="10.00">qugar::impl::funcs</text>
<text text-anchor="middle" x="224" y="-55" font-family="Helvetica,sans-Serif" font-size="10.00">::PlaneBase::normal</text>
</a>
</g>
</g>
<!-- Node1&#45;&gt;Node2 -->
<g id="edge1_Node000001_Node000002" class="edge">
<title>Node1&#45;&gt;Node2</title>
<g id="a_edge1_Node000001_Node000002"><a xlink:title=" ">
<path fill="none" stroke="#63b8ff" d="M131.06,-48.9C139.44,-50.19 148.04,-51.5 156.45,-52.79"/>
<polygon fill="#63b8ff" stroke="#63b8ff" points="156.17,-56.29 166.59,-54.35 157.24,-49.37 156.17,-56.29"/>
</a>
</g>
</g>
<!-- Node3 -->
<g id="Node000003" class="node">
<title>Node3</title>
<g id="a_Node000003"><a xlink:href="../../db/d5b/classqugar_1_1impl_1_1funcs_1_1PlaneBase.html#a7f5654556a5830120386a66983a4c3e5" target="_top" xlink:title="Gets the origin of the plane.">
<polygon fill="white" stroke="#666666" points="277.5,-30 170.5,-30 170.5,0 277.5,0 277.5,-30"/>
<text text-anchor="start" x="178.5" y="-18" font-family="Helvetica,sans-Serif" font-size="10.00">qugar::impl::funcs</text>
<text text-anchor="middle" x="224" y="-7" font-family="Helvetica,sans-Serif" font-size="10.00">::PlaneBase::origin</text>
</a>
</g>
</g>
<!-- Node1&#45;&gt;Node3 -->
<g id="edge2_Node000001_Node000003" class="edge">
<title>Node1&#45;&gt;Node3</title>
<g id="a_edge2_Node000001_Node000003"><a xlink:title=" ">
<path fill="none" stroke="#63b8ff" d="M131.06,-29.1C140.58,-27.64 150.38,-26.14 159.87,-24.68"/>
<polygon fill="#63b8ff" stroke="#63b8ff" points="160.67,-28.1 170.03,-23.12 159.61,-21.18 160.67,-28.1"/>
</a>
</g>
</g>
</g>
</svg>
