<?xml version="1.0" encoding="UTF-8" standalone="no"?>
<!DOCTYPE svg PUBLIC "-//W3C//DTD SVG 1.1//EN"
 "http://www.w3.org/Graphics/SVG/1.1/DTD/svg11.dtd">
<!-- Generated by graphviz version 2.43.0 (0)
 -->
<!-- Title: qugar::impl::funcs::PlaneBase::normal Pages: 1 -->
<svg width="320pt" height="182pt"
 viewBox="0.00 0.00 320.00 182.00" xmlns="http://www.w3.org/2000/svg" xmlns:xlink="http://www.w3.org/1999/xlink">
<g id="graph0" class="graph" transform="scale(1 1) rotate(0) translate(4 178)">
<title>qugar::impl::funcs::PlaneBase::normal</title>
<!-- Node1 -->
<g id="Node000001" class="node">
<title>Node1</title>
<g id="a_Node000001"><a xlink:title="Gets the normal of the plane.">
<polygon fill="#999999" stroke="#666666" points="312,-102 198,-102 198,-72 312,-72 312,-102"/>
<text text-anchor="start" x="206" y="-90" font-family="Helvetica,sans-Serif" font-size="10.00">qugar::impl::funcs</text>
<text text-anchor="middle" x="255" y="-79" font-family="Helvetica,sans-Serif" font-size="10.00">::PlaneBase::normal</text>
</a>
</g>
</g>
<!-- Node2 -->
<g id="Node000002" class="node">
<title>Node2</title>
<g id="a_Node000002"><a xlink:href="../../dd/d35/classqugar_1_1impl_1_1funcs_1_1PlaneBzr.html#a18e427108d1a434dadfbaa1ec70ae10b" target="_top" xlink:title="Creates a polynomial representation based on monomials for the given origin a normal.">
<polygon fill="white" stroke="#666666" points="162,-174 0,-174 0,-144 162,-144 162,-174"/>
<text text-anchor="start" x="8" y="-162" font-family="Helvetica,sans-Serif" font-size="10.00">qugar::impl::funcs</text>
<text text-anchor="middle" x="81" y="-151" font-family="Helvetica,sans-Serif" font-size="10.00">::PlaneBzr::create_monomials</text>
</a>
</g>
</g>
<!-- Node1&#45;&gt;Node2 -->
<g id="edge1_Node000001_Node000002" class="edge">
<title>Node1&#45;&gt;Node2</title>
<g id="a_edge1_Node000001_Node000002"><a xlink:title=" ">
<path fill="none" stroke="#63b8ff" d="M219.48,-107C202.52,-116.3 181.57,-127.04 162,-135 154.07,-138.22 145.55,-141.23 137.13,-143.96"/>
<polygon fill="#63b8ff" stroke="#63b8ff" points="221.41,-109.92 228.45,-102 218.01,-103.81 221.41,-109.92"/>
</a>
</g>
</g>
<!-- Node3 -->
<g id="Node000003" class="node">
<title>Node3</title>
<g id="a_Node000003"><a xlink:href="../../d2/d3b/classqugar_1_1impl_1_1funcs_1_1Plane.html#a124bb6ae566a4c602e901c496678a165" target="_top" xlink:title="Constructs a new plane function. The line is defined by an origin and a normal vector.">
<polygon fill="white" stroke="#666666" points="133,-126 29,-126 29,-96 133,-96 133,-126"/>
<text text-anchor="start" x="37" y="-114" font-family="Helvetica,sans-Serif" font-size="10.00">qugar::impl::funcs</text>
<text text-anchor="middle" x="81" y="-103" font-family="Helvetica,sans-Serif" font-size="10.00">::Plane::Plane</text>
</a>
</g>
</g>
<!-- Node1&#45;&gt;Node3 -->
<g id="edge2_Node000001_Node000003" class="edge">
<title>Node1&#45;&gt;Node3</title>
<g id="a_edge2_Node000001_Node000003"><a xlink:title=" ">
<path fill="none" stroke="#63b8ff" d="M187.77,-96.24C169.67,-98.77 150.34,-101.46 133.21,-103.85"/>
<polygon fill="#63b8ff" stroke="#63b8ff" points="188.26,-99.71 197.68,-94.86 187.29,-92.77 188.26,-99.71"/>
</a>
</g>
</g>
<!-- Node4 -->
<g id="Node000004" class="node">
<title>Node4</title>
<g id="a_Node000004"><a xlink:href="../../db/d5b/classqugar_1_1impl_1_1funcs_1_1PlaneBase.html#ad8ba855b20c34ea03310770c58073a3c" target="_top" xlink:title="Constructs a new plane function. The line is defined by an origin and a normal vector.">
<polygon fill="white" stroke="#666666" points="146.5,-78 15.5,-78 15.5,-48 146.5,-48 146.5,-78"/>
<text text-anchor="start" x="23.5" y="-66" font-family="Helvetica,sans-Serif" font-size="10.00">qugar::impl::funcs</text>
<text text-anchor="middle" x="81" y="-55" font-family="Helvetica,sans-Serif" font-size="10.00">::PlaneBase::PlaneBase</text>
</a>
</g>
</g>
<!-- Node1&#45;&gt;Node4 -->
<g id="edge3_Node000001_Node000004" class="edge">
<title>Node1&#45;&gt;Node4</title>
<g id="a_edge3_Node000001_Node000004"><a xlink:title=" ">
<path fill="none" stroke="#63b8ff" d="M187.53,-77.73C174.06,-75.85 159.91,-73.87 146.5,-72"/>
<polygon fill="#63b8ff" stroke="#63b8ff" points="187.29,-81.23 197.68,-79.14 188.26,-74.29 187.29,-81.23"/>
</a>
</g>
</g>
<!-- Node5 -->
<g id="Node000005" class="node">
<title>Node5</title>
<g id="a_Node000005"><a xlink:href="../../dd/d35/classqugar_1_1impl_1_1funcs_1_1PlaneBzr.html#a686b5ed2c9a4a12441722641d8ef15fd" target="_top" xlink:title="Constructs a new plane function. The line is defined by an origin and a normal vector.">
<polygon fill="white" stroke="#666666" points="138,-30 24,-30 24,0 138,0 138,-30"/>
<text text-anchor="start" x="32" y="-18" font-family="Helvetica,sans-Serif" font-size="10.00">qugar::impl::funcs</text>
<text text-anchor="middle" x="81" y="-7" font-family="Helvetica,sans-Serif" font-size="10.00">::PlaneBzr::PlaneBzr</text>
</a>
</g>
</g>
<!-- Node1&#45;&gt;Node5 -->
<g id="edge4_Node000001_Node000005" class="edge">
<title>Node1&#45;&gt;Node5</title>
<g id="a_edge4_Node000001_Node000005"><a xlink:title=" ">
<path fill="none" stroke="#63b8ff" d="M219.48,-67C202.52,-57.7 181.57,-46.96 162,-39 154.07,-35.78 145.55,-32.77 137.13,-30.04"/>
<polygon fill="#63b8ff" stroke="#63b8ff" points="218.01,-70.19 228.45,-72 221.41,-64.08 218.01,-70.19"/>
</a>
</g>
</g>
</g>
</svg>
