<?xml version="1.0" encoding="UTF-8" standalone="no"?>
<!DOCTYPE svg PUBLIC "-//W3C//DTD SVG 1.1//EN"
 "http://www.w3.org/Graphics/SVG/1.1/DTD/svg11.dtd">
<!-- Generated by graphviz version 2.43.0 (0)
 -->
<!-- Title: qugar::impl::PolynomialTP&lt; dim, range &gt; Pages: 1 -->
<svg width="644pt" height="326pt"
 viewBox="0.00 0.00 644.00 326.00" xmlns="http://www.w3.org/2000/svg" xmlns:xlink="http://www.w3.org/1999/xlink">
<g id="graph0" class="graph" transform="scale(1 1) rotate(0) translate(4 322)">
<title>qugar::impl::PolynomialTP&lt; dim, range &gt;</title>
<!-- Node1 -->
<g id="Node000001" class="node">
<title>Node1</title>
<g id="a_Node000001"><a xlink:title="Base class for tensor&#45;product polynomial functions.">
<polygon fill="#999999" stroke="#666666" points="320,-150 175,-150 175,-120 320,-120 320,-150"/>
<text text-anchor="start" x="183" y="-138" font-family="Helvetica,sans-Serif" font-size="10.00">qugar::impl::PolynomialTP</text>
<text text-anchor="middle" x="247.5" y="-127" font-family="Helvetica,sans-Serif" font-size="10.00">&lt; dim, range &gt;</text>
</a>
</g>
</g>
<!-- Node3 -->
<g id="Node000003" class="node">
<title>Node3</title>
<g id="a_Node000003"><a xlink:href="../../de/dca/classqugar_1_1impl_1_1BezierTP.html" target="_top" xlink:title=" ">
<polygon fill="white" stroke="#666666" points="477,-270 356,-270 356,-240 477,-240 477,-270"/>
<text text-anchor="start" x="364" y="-258" font-family="Helvetica,sans-Serif" font-size="10.00">qugar::impl::BezierTP</text>
<text text-anchor="middle" x="416.5" y="-247" font-family="Helvetica,sans-Serif" font-size="10.00">&lt; 2, 1 &gt;</text>
</a>
</g>
</g>
<!-- Node1&#45;&gt;Node3 -->
<g id="edge2_Node000001_Node000003" class="edge">
<title>Node1&#45;&gt;Node3</title>
<g id="a_edge2_Node000001_Node000003"><a xlink:title=" ">
<path fill="none" stroke="#63b8ff" d="M278.1,-156.27C311.54,-180.3 365.13,-218.8 394.52,-239.93"/>
<polygon fill="#63b8ff" stroke="#63b8ff" points="279.81,-153.19 269.65,-150.2 275.73,-158.88 279.81,-153.19"/>
</a>
</g>
</g>
<!-- Node5 -->
<g id="Node000005" class="node">
<title>Node5</title>
<g id="a_Node000005"><a xlink:href="../../de/dca/classqugar_1_1impl_1_1BezierTP.html" target="_top" xlink:title=" ">
<polygon fill="white" stroke="#666666" points="477,-174 356,-174 356,-144 477,-144 477,-174"/>
<text text-anchor="start" x="364" y="-162" font-family="Helvetica,sans-Serif" font-size="10.00">qugar::impl::BezierTP</text>
<text text-anchor="middle" x="416.5" y="-151" font-family="Helvetica,sans-Serif" font-size="10.00">&lt; dim, 1 &gt;</text>
</a>
</g>
</g>
<!-- Node1&#45;&gt;Node5 -->
<g id="edge4_Node000001_Node000005" class="edge">
<title>Node1&#45;&gt;Node5</title>
<g id="a_edge4_Node000001_Node000005"><a xlink:title=" ">
<path fill="none" stroke="#63b8ff" d="M330.34,-146.76C338.93,-148 347.54,-149.23 355.81,-150.42"/>
<polygon fill="#63b8ff" stroke="#63b8ff" points="330.69,-143.28 320.29,-145.32 329.69,-150.2 330.69,-143.28"/>
</a>
</g>
</g>
<!-- Node10 -->
<g id="Node000010" class="node">
<title>Node10</title>
<g id="a_Node000010"><a xlink:href="../../de/dca/classqugar_1_1impl_1_1BezierTP.html" target="_top" xlink:title=" ">
<polygon fill="white" stroke="#666666" points="477,-102 356,-102 356,-72 477,-72 477,-102"/>
<text text-anchor="start" x="364" y="-90" font-family="Helvetica,sans-Serif" font-size="10.00">qugar::impl::BezierTP</text>
<text text-anchor="middle" x="416.5" y="-79" font-family="Helvetica,sans-Serif" font-size="10.00">&lt; 3, 1 &gt;</text>
</a>
</g>
</g>
<!-- Node1&#45;&gt;Node10 -->
<g id="edge9_Node000001_Node000010" class="edge">
<title>Node1&#45;&gt;Node10</title>
<g id="a_edge9_Node000001_Node000010"><a xlink:title=" ">
<path fill="none" stroke="#63b8ff" d="M310.87,-117.07C328.13,-112.11 346.69,-106.78 363.3,-102"/>
<polygon fill="#63b8ff" stroke="#63b8ff" points="309.53,-113.82 300.88,-119.94 311.46,-120.55 309.53,-113.82"/>
</a>
</g>
</g>
<!-- Node13 -->
<g id="Node000013" class="node">
<title>Node13</title>
<g id="a_Node000013"><a xlink:href="../../de/dca/classqugar_1_1impl_1_1BezierTP.html" target="_top" xlink:title="dim&#45;dimensional tensor&#45;product Bezier polynomial function.">
<polygon fill="white" stroke="#666666" points="477,-54 356,-54 356,-24 477,-24 477,-54"/>
<text text-anchor="start" x="364" y="-42" font-family="Helvetica,sans-Serif" font-size="10.00">qugar::impl::BezierTP</text>
<text text-anchor="middle" x="416.5" y="-31" font-family="Helvetica,sans-Serif" font-size="10.00">&lt; dim, range &gt;</text>
</a>
</g>
</g>
<!-- Node1&#45;&gt;Node13 -->
<g id="edge12_Node000001_Node000013" class="edge">
<title>Node1&#45;&gt;Node13</title>
<g id="a_edge12_Node000001_Node000013"><a xlink:title=" ">
<path fill="none" stroke="#63b8ff" d="M276.52,-113.88C297.65,-98.55 327.73,-77.96 356,-63 362.01,-59.82 368.53,-56.8 374.98,-54.03"/>
<polygon fill="#63b8ff" stroke="#63b8ff" points="274.32,-111.16 268.33,-119.89 278.46,-116.8 274.32,-111.16"/>
</a>
</g>
</g>
<!-- Node2 -->
<g id="Node000002" class="node">
<title>Node2</title>
<g id="a_Node000002"><a xlink:href="../../dd/d80/classqugar_1_1impl_1_1DomainFunc.html" target="_top" xlink:title="Domain functions.">
<polygon fill="white" stroke="#666666" points="139,-150 0,-150 0,-120 139,-120 139,-150"/>
<text text-anchor="start" x="8" y="-138" font-family="Helvetica,sans-Serif" font-size="10.00">qugar::impl::DomainFunc</text>
<text text-anchor="middle" x="69.5" y="-127" font-family="Helvetica,sans-Serif" font-size="10.00">&lt; dim, range &gt;</text>
</a>
</g>
</g>
<!-- Node2&#45;&gt;Node1 -->
<g id="edge1_Node000001_Node000002" class="edge">
<title>Node2&#45;&gt;Node1</title>
<g id="a_edge1_Node000001_Node000002"><a xlink:title=" ">
<path fill="none" stroke="#63b8ff" d="M149.08,-135C157.69,-135 166.42,-135 174.94,-135"/>
<polygon fill="#63b8ff" stroke="#63b8ff" points="149.05,-131.5 139.05,-135 149.05,-138.5 149.05,-131.5"/>
</a>
</g>
</g>
<!-- Node4 -->
<g id="Node000004" class="node">
<title>Node4</title>
<g id="a_Node000004"><a xlink:href="../../dc/d68/classqugar_1_1impl_1_1funcs_1_1AnnulusBzr.html" target="_top" xlink:title="2D annulus function. The function is defined by the annulus center and outer and inner radii....">
<polygon fill="white" stroke="#666666" points="626.5,-318 522.5,-318 522.5,-288 626.5,-288 626.5,-318"/>
<text text-anchor="start" x="530.5" y="-306" font-family="Helvetica,sans-Serif" font-size="10.00">qugar::impl::funcs</text>
<text text-anchor="middle" x="574.5" y="-295" font-family="Helvetica,sans-Serif" font-size="10.00">::AnnulusBzr</text>
</a>
</g>
</g>
<!-- Node3&#45;&gt;Node4 -->
<g id="edge3_Node000003_Node000004" class="edge">
<title>Node3&#45;&gt;Node4</title>
<g id="a_edge3_Node000003_Node000004"><a xlink:title=" ">
<path fill="none" stroke="#63b8ff" d="M476.22,-273.07C492.21,-277.99 509.36,-283.27 524.74,-288"/>
<polygon fill="#63b8ff" stroke="#63b8ff" points="477.02,-269.65 466.43,-270.06 474.96,-276.34 477.02,-269.65"/>
</a>
</g>
</g>
<!-- Node6 -->
<g id="Node000006" class="node">
<title>Node6</title>
<g id="a_Node000006"><a xlink:href="../../dd/da4/classqugar_1_1impl_1_1funcs_1_1ConstantBzr.html" target="_top" xlink:title="Dimension independent constant function.">
<polygon fill="white" stroke="#666666" points="636,-270 513,-270 513,-240 636,-240 636,-270"/>
<text text-anchor="start" x="521" y="-258" font-family="Helvetica,sans-Serif" font-size="10.00">qugar::impl::funcs</text>
<text text-anchor="middle" x="574.5" y="-247" font-family="Helvetica,sans-Serif" font-size="10.00">::ConstantBzr&lt; dim &gt;</text>
</a>
</g>
</g>
<!-- Node5&#45;&gt;Node6 -->
<g id="edge5_Node000005_Node000006" class="edge">
<title>Node5&#45;&gt;Node6</title>
<g id="a_edge5_Node000005_Node000006"><a xlink:title=" ">
<path fill="none" stroke="#63b8ff" d="M442.16,-180.53C460.73,-195.99 487.3,-216.56 513,-231 518.71,-234.21 524.94,-237.2 531.16,-239.9"/>
<polygon fill="#63b8ff" stroke="#63b8ff" points="444.37,-177.82 434.47,-174.04 439.85,-183.16 444.37,-177.82"/>
</a>
</g>
</g>
<!-- Node7 -->
<g id="Node000007" class="node">
<title>Node7</title>
<g id="a_Node000007"><a xlink:href="../../d6/d06/classqugar_1_1impl_1_1funcs_1_1EllipsoidBzr.html" target="_top" xlink:title="Dimension independent ellipsoidal function. The function is defined by the ellipsoid&#39;s semi&#45;axes and ...">
<polygon fill="white" stroke="#666666" points="635,-222 514,-222 514,-192 635,-192 635,-222"/>
<text text-anchor="start" x="522" y="-210" font-family="Helvetica,sans-Serif" font-size="10.00">qugar::impl::funcs</text>
<text text-anchor="middle" x="574.5" y="-199" font-family="Helvetica,sans-Serif" font-size="10.00">::EllipsoidBzr&lt; dim &gt;</text>
</a>
</g>
</g>
<!-- Node5&#45;&gt;Node7 -->
<g id="edge6_Node000005_Node000007" class="edge">
<title>Node5&#45;&gt;Node7</title>
<g id="a_edge6_Node000005_Node000007"><a xlink:title=" ">
<path fill="none" stroke="#63b8ff" d="M476.22,-177.07C492.21,-181.99 509.36,-187.27 524.74,-192"/>
<polygon fill="#63b8ff" stroke="#63b8ff" points="477.02,-173.65 466.43,-174.06 474.96,-180.34 477.02,-173.65"/>
</a>
</g>
</g>
<!-- Node8 -->
<g id="Node000008" class="node">
<title>Node8</title>
<g id="a_Node000008"><a xlink:href="../../dd/d35/classqugar_1_1impl_1_1funcs_1_1PlaneBzr.html" target="_top" xlink:title="Plane function.">
<polygon fill="white" stroke="#666666" points="628,-174 521,-174 521,-144 628,-144 628,-174"/>
<text text-anchor="start" x="529" y="-162" font-family="Helvetica,sans-Serif" font-size="10.00">qugar::impl::funcs</text>
<text text-anchor="middle" x="574.5" y="-151" font-family="Helvetica,sans-Serif" font-size="10.00">::PlaneBzr&lt; dim &gt;</text>
</a>
</g>
</g>
<!-- Node5&#45;&gt;Node8 -->
<g id="edge7_Node000005_Node000008" class="edge">
<title>Node5&#45;&gt;Node8</title>
<g id="a_edge7_Node000005_Node000008"><a xlink:title=" ">
<path fill="none" stroke="#63b8ff" d="M487.57,-159C498.78,-159 510.21,-159 520.92,-159"/>
<polygon fill="#63b8ff" stroke="#63b8ff" points="487.37,-155.5 477.37,-159 487.37,-162.5 487.37,-155.5"/>
</a>
</g>
</g>
<!-- Node9 -->
<g id="Node000009" class="node">
<title>Node9</title>
<g id="a_Node000009"><a xlink:href="../../d1/dfc/classqugar_1_1impl_1_1funcs_1_1SphereBzr.html" target="_top" xlink:title="Dimension independent spherical function. The function is defined by its center and radius....">
<polygon fill="white" stroke="#666666" points="631,-126 518,-126 518,-96 631,-96 631,-126"/>
<text text-anchor="start" x="526" y="-114" font-family="Helvetica,sans-Serif" font-size="10.00">qugar::impl::funcs</text>
<text text-anchor="middle" x="574.5" y="-103" font-family="Helvetica,sans-Serif" font-size="10.00">::SphereBzr&lt; dim &gt;</text>
</a>
</g>
</g>
<!-- Node5&#45;&gt;Node9 -->
<g id="edge8_Node000005_Node000009" class="edge">
<title>Node5&#45;&gt;Node9</title>
<g id="a_edge8_Node000005_Node000009"><a xlink:title=" ">
<path fill="none" stroke="#63b8ff" d="M476.22,-140.93C492.21,-136.01 509.36,-130.73 524.74,-126"/>
<polygon fill="#63b8ff" stroke="#63b8ff" points="474.96,-137.66 466.43,-143.94 477.02,-144.35 474.96,-137.66"/>
</a>
</g>
</g>
<!-- Node11 -->
<g id="Node000011" class="node">
<title>Node11</title>
<g id="a_Node000011"><a xlink:href="../../dc/de2/classqugar_1_1impl_1_1funcs_1_1CylinderBzr.html" target="_top" xlink:title="Infinite cylinder.">
<polygon fill="white" stroke="#666666" points="626.5,-78 522.5,-78 522.5,-48 626.5,-48 626.5,-78"/>
<text text-anchor="start" x="530.5" y="-66" font-family="Helvetica,sans-Serif" font-size="10.00">qugar::impl::funcs</text>
<text text-anchor="middle" x="574.5" y="-55" font-family="Helvetica,sans-Serif" font-size="10.00">::CylinderBzr</text>
</a>
</g>
</g>
<!-- Node10&#45;&gt;Node11 -->
<g id="edge10_Node000010_Node000011" class="edge">
<title>Node10&#45;&gt;Node11</title>
<g id="a_edge10_Node000010_Node000011"><a xlink:title=" ">
<path fill="none" stroke="#63b8ff" d="M487.53,-76.23C499.19,-74.43 511.09,-72.6 522.18,-70.9"/>
<polygon fill="#63b8ff" stroke="#63b8ff" points="486.72,-72.81 477.37,-77.79 487.78,-79.73 486.72,-72.81"/>
</a>
</g>
</g>
<!-- Node12 -->
<g id="Node000012" class="node">
<title>Node12</title>
<g id="a_Node000012"><a xlink:href="../../d0/dc9/classqugar_1_1impl_1_1funcs_1_1TorusBzr.html" target="_top" xlink:title="3D torus function. The function is defined by the torus center, axis, and major and inner radii....">
<polygon fill="white" stroke="#666666" points="626.5,-30 522.5,-30 522.5,0 626.5,0 626.5,-30"/>
<text text-anchor="start" x="530.5" y="-18" font-family="Helvetica,sans-Serif" font-size="10.00">qugar::impl::funcs</text>
<text text-anchor="middle" x="574.5" y="-7" font-family="Helvetica,sans-Serif" font-size="10.00">::TorusBzr</text>
</a>
</g>
</g>
<!-- Node10&#45;&gt;Node12 -->
<g id="edge11_Node000010_Node000012" class="edge">
<title>Node10&#45;&gt;Node12</title>
<g id="a_edge11_Node000010_Node000012"><a xlink:title=" ">
<path fill="none" stroke="#63b8ff" d="M467.38,-67.77C470.67,-66.23 473.9,-64.64 477,-63 494.01,-54.02 495.97,-47.93 513,-39 519,-35.85 525.52,-32.86 531.97,-30.13"/>
<polygon fill="#63b8ff" stroke="#63b8ff" points="465.71,-64.68 458.02,-71.96 468.57,-71.07 465.71,-64.68"/>
</a>
</g>
</g>
</g>
</svg>
