<?xml version="1.0" encoding="UTF-8" standalone="no"?>
<!DOCTYPE svg PUBLIC "-//W3C//DTD SVG 1.1//EN"
 "http://www.w3.org/Graphics/SVG/1.1/DTD/svg11.dtd">
<!-- Generated by graphviz version 2.43.0 (0)
 -->
<!-- Title: qugar::impl::PolynomialTP&lt; dim, range &gt; Pages: 1 -->
<svg width="644pt" height="326pt"
 viewBox="0.00 0.00 644.00 326.00" xmlns="http://www.w3.org/2000/svg" xmlns:xlink="http://www.w3.org/1999/xlink">
<g id="graph0" class="graph" transform="scale(1 1) rotate(0) translate(4 322)">
<title>qugar::impl::PolynomialTP&lt; dim, range &gt;</title>
<!-- Node1 -->
<g id="Node000001" class="node">
<title>Node1</title>
<g id="a_Node000001"><a xlink:title="Base class for tensor&#45;product polynomial functions.">
<polygon fill="#999999" stroke="#666666" points="320,-198 175,-198 175,-168 320,-168 320,-198"/>
<text text-anchor="start" x="183" y="-186" font-family="Helvetica,sans-Serif" font-size="10.00">qugar::impl::PolynomialTP</text>
<text text-anchor="middle" x="247.5" y="-175" font-family="Helvetica,sans-Serif" font-size="10.00">&lt; dim, range &gt;</text>
</a>
</g>
</g>
<!-- Node3 -->
<g id="Node000003" class="node">
<title>Node3</title>
<g id="a_Node000003"><a xlink:href="../../de/dca/classqugar_1_1impl_1_1BezierTP.html" target="_top" xlink:title=" ">
<polygon fill="white" stroke="#666666" points="477,-282 356,-282 356,-252 477,-252 477,-282"/>
<text text-anchor="start" x="364" y="-270" font-family="Helvetica,sans-Serif" font-size="10.00">qugar::impl::BezierTP</text>
<text text-anchor="middle" x="416.5" y="-259" font-family="Helvetica,sans-Serif" font-size="10.00">&lt; 2, 1 &gt;</text>
</a>
</g>
</g>
<!-- Node1&#45;&gt;Node3 -->
<g id="edge2_Node000001_Node000003" class="edge">
<title>Node1&#45;&gt;Node3</title>
<g id="a_edge2_Node000001_Node000003"><a xlink:title=" ">
<path fill="none" stroke="#63b8ff" d="M287.67,-202.7C317.62,-217.76 358.27,-238.21 385.62,-251.97"/>
<polygon fill="#63b8ff" stroke="#63b8ff" points="288.86,-199.38 278.36,-198.02 285.72,-205.64 288.86,-199.38"/>
</a>
</g>
</g>
<!-- Node5 -->
<g id="Node000005" class="node">
<title>Node5</title>
<g id="a_Node000005"><a xlink:href="../../de/dca/classqugar_1_1impl_1_1BezierTP.html" target="_top" xlink:title=" ">
<polygon fill="white" stroke="#666666" points="477,-198 356,-198 356,-168 477,-168 477,-198"/>
<text text-anchor="start" x="364" y="-186" font-family="Helvetica,sans-Serif" font-size="10.00">qugar::impl::BezierTP</text>
<text text-anchor="middle" x="416.5" y="-175" font-family="Helvetica,sans-Serif" font-size="10.00">&lt; dim, 1 &gt;</text>
</a>
</g>
</g>
<!-- Node1&#45;&gt;Node5 -->
<g id="edge4_Node000001_Node000005" class="edge">
<title>Node1&#45;&gt;Node5</title>
<g id="a_edge4_Node000001_Node000005"><a xlink:title=" ">
<path fill="none" stroke="#63b8ff" d="M330.34,-183C338.93,-183 347.54,-183 355.81,-183"/>
<polygon fill="#63b8ff" stroke="#63b8ff" points="330.29,-179.5 320.29,-183 330.29,-186.5 330.29,-179.5"/>
</a>
</g>
</g>
<!-- Node10 -->
<g id="Node000010" class="node">
<title>Node10</title>
<g id="a_Node000010"><a xlink:href="../../de/dca/classqugar_1_1impl_1_1BezierTP.html" target="_top" xlink:title=" ">
<polygon fill="white" stroke="#666666" points="477,-78 356,-78 356,-48 477,-48 477,-78"/>
<text text-anchor="start" x="364" y="-66" font-family="Helvetica,sans-Serif" font-size="10.00">qugar::impl::BezierTP</text>
<text text-anchor="middle" x="416.5" y="-55" font-family="Helvetica,sans-Serif" font-size="10.00">&lt; 3, 1 &gt;</text>
</a>
</g>
</g>
<!-- Node1&#45;&gt;Node10 -->
<g id="edge9_Node000001_Node000010" class="edge">
<title>Node1&#45;&gt;Node10</title>
<g id="a_edge9_Node000001_Node000010"><a xlink:title=" ">
<path fill="none" stroke="#63b8ff" d="M278.1,-161.73C311.54,-137.7 365.13,-99.2 394.52,-78.07"/>
<polygon fill="#63b8ff" stroke="#63b8ff" points="275.73,-159.12 269.65,-167.8 279.81,-164.81 275.73,-159.12"/>
</a>
</g>
</g>
<!-- Node2 -->
<g id="Node000002" class="node">
<title>Node2</title>
<g id="a_Node000002"><a xlink:href="../../dd/d80/classqugar_1_1impl_1_1DomainFunc.html" target="_top" xlink:title="Domain functions.">
<polygon fill="white" stroke="#666666" points="139,-198 0,-198 0,-168 139,-168 139,-198"/>
<text text-anchor="start" x="8" y="-186" font-family="Helvetica,sans-Serif" font-size="10.00">qugar::impl::DomainFunc</text>
<text text-anchor="middle" x="69.5" y="-175" font-family="Helvetica,sans-Serif" font-size="10.00">&lt; dim, range &gt;</text>
</a>
</g>
</g>
<!-- Node2&#45;&gt;Node1 -->
<g id="edge1_Node000001_Node000002" class="edge">
<title>Node2&#45;&gt;Node1</title>
<g id="a_edge1_Node000001_Node000002"><a xlink:title=" ">
<path fill="none" stroke="#63b8ff" d="M149.08,-183C157.69,-183 166.42,-183 174.94,-183"/>
<polygon fill="#63b8ff" stroke="#63b8ff" points="149.05,-179.5 139.05,-183 149.05,-186.5 149.05,-179.5"/>
</a>
</g>
</g>
<!-- Node4 -->
<g id="Node000004" class="node">
<title>Node4</title>
<g id="a_Node000004"><a xlink:href="../../dc/d68/classqugar_1_1impl_1_1funcs_1_1AnnulusBzr.html" target="_top" xlink:title="2D annulus function. The function is defined by the annulus center and outer and inner radii....">
<polygon fill="white" stroke="#666666" points="626.5,-318 522.5,-318 522.5,-288 626.5,-288 626.5,-318"/>
<text text-anchor="start" x="530.5" y="-306" font-family="Helvetica,sans-Serif" font-size="10.00">qugar::impl::funcs</text>
<text text-anchor="middle" x="574.5" y="-295" font-family="Helvetica,sans-Serif" font-size="10.00">::AnnulusBzr</text>
</a>
</g>
</g>
<!-- Node3&#45;&gt;Node4 -->
<g id="edge3_Node000003_Node000004" class="edge">
<title>Node3&#45;&gt;Node4</title>
<g id="a_edge3_Node000003_Node000004"><a xlink:title=" ">
<path fill="none" stroke="#63b8ff" d="M487.17,-283.08C498.95,-285.8 510.98,-288.57 522.18,-291.16"/>
<polygon fill="#63b8ff" stroke="#63b8ff" points="487.9,-279.65 477.37,-280.82 486.32,-286.47 487.9,-279.65"/>
</a>
</g>
</g>
<!-- Node6 -->
<g id="Node000006" class="node">
<title>Node6</title>
<g id="a_Node000006"><a xlink:href="../../dd/da4/classqugar_1_1impl_1_1funcs_1_1ConstantBzr.html" target="_top" xlink:title="Dimension independent constant function.">
<polygon fill="white" stroke="#666666" points="636,-270 513,-270 513,-240 636,-240 636,-270"/>
<text text-anchor="start" x="521" y="-258" font-family="Helvetica,sans-Serif" font-size="10.00">qugar::impl::funcs</text>
<text text-anchor="middle" x="574.5" y="-247" font-family="Helvetica,sans-Serif" font-size="10.00">::ConstantBzr&lt; dim &gt;</text>
</a>
</g>
</g>
<!-- Node5&#45;&gt;Node6 -->
<g id="edge5_Node000005_Node000006" class="edge">
<title>Node5&#45;&gt;Node6</title>
<g id="a_edge5_Node000005_Node000006"><a xlink:title=" ">
<path fill="none" stroke="#63b8ff" d="M455.28,-202.95C472.68,-211.89 493.71,-222.35 513,-231 519.7,-234.01 526.9,-237.03 533.91,-239.88"/>
<polygon fill="#63b8ff" stroke="#63b8ff" points="456.51,-199.65 446.02,-198.16 453.29,-205.86 456.51,-199.65"/>
</a>
</g>
</g>
<!-- Node7 -->
<g id="Node000007" class="node">
<title>Node7</title>
<g id="a_Node000007"><a xlink:href="../../d6/d06/classqugar_1_1impl_1_1funcs_1_1EllipsoidBzr.html" target="_top" xlink:title="Dimension independent ellipsoidal function. The function is defined by the ellipsoid&#39;s semi&#45;axes and ...">
<polygon fill="white" stroke="#666666" points="635,-222 514,-222 514,-192 635,-192 635,-222"/>
<text text-anchor="start" x="522" y="-210" font-family="Helvetica,sans-Serif" font-size="10.00">qugar::impl::funcs</text>
<text text-anchor="middle" x="574.5" y="-199" font-family="Helvetica,sans-Serif" font-size="10.00">::EllipsoidBzr&lt; dim &gt;</text>
</a>
</g>
</g>
<!-- Node5&#45;&gt;Node7 -->
<g id="edge6_Node000005_Node000007" class="edge">
<title>Node5&#45;&gt;Node7</title>
<g id="a_edge6_Node000005_Node000007"><a xlink:title=" ">
<path fill="none" stroke="#63b8ff" d="M487.27,-193.73C496.13,-195.1 505.12,-196.48 513.79,-197.81"/>
<polygon fill="#63b8ff" stroke="#63b8ff" points="487.78,-190.27 477.37,-192.21 486.72,-197.19 487.78,-190.27"/>
</a>
</g>
</g>
<!-- Node8 -->
<g id="Node000008" class="node">
<title>Node8</title>
<g id="a_Node000008"><a xlink:href="../../dd/d35/classqugar_1_1impl_1_1funcs_1_1PlaneBzr.html" target="_top" xlink:title="Plane function.">
<polygon fill="white" stroke="#666666" points="628,-174 521,-174 521,-144 628,-144 628,-174"/>
<text text-anchor="start" x="529" y="-162" font-family="Helvetica,sans-Serif" font-size="10.00">qugar::impl::funcs</text>
<text text-anchor="middle" x="574.5" y="-151" font-family="Helvetica,sans-Serif" font-size="10.00">::PlaneBzr&lt; dim &gt;</text>
</a>
</g>
</g>
<!-- Node5&#45;&gt;Node8 -->
<g id="edge7_Node000005_Node000008" class="edge">
<title>Node5&#45;&gt;Node8</title>
<g id="a_edge7_Node000005_Node000008"><a xlink:title=" ">
<path fill="none" stroke="#63b8ff" d="M487.57,-172.22C498.78,-170.5 510.21,-168.74 520.92,-167.09"/>
<polygon fill="#63b8ff" stroke="#63b8ff" points="486.72,-168.81 477.37,-173.79 487.78,-175.73 486.72,-168.81"/>
</a>
</g>
</g>
<!-- Node9 -->
<g id="Node000009" class="node">
<title>Node9</title>
<g id="a_Node000009"><a xlink:href="../../d1/dfc/classqugar_1_1impl_1_1funcs_1_1SphereBzr.html" target="_top" xlink:title="Dimension independent spherical function. The function is defined by its center and radius....">
<polygon fill="white" stroke="#666666" points="631,-126 518,-126 518,-96 631,-96 631,-126"/>
<text text-anchor="start" x="526" y="-114" font-family="Helvetica,sans-Serif" font-size="10.00">qugar::impl::funcs</text>
<text text-anchor="middle" x="574.5" y="-103" font-family="Helvetica,sans-Serif" font-size="10.00">::SphereBzr&lt; dim &gt;</text>
</a>
</g>
</g>
<!-- Node5&#45;&gt;Node9 -->
<g id="edge8_Node000005_Node000009" class="edge">
<title>Node5&#45;&gt;Node9</title>
<g id="a_edge8_Node000005_Node000009"><a xlink:title=" ">
<path fill="none" stroke="#63b8ff" d="M455.28,-163.05C472.68,-154.11 493.71,-143.65 513,-135 519.7,-131.99 526.9,-128.97 533.91,-126.12"/>
<polygon fill="#63b8ff" stroke="#63b8ff" points="453.29,-160.14 446.02,-167.84 456.51,-166.35 453.29,-160.14"/>
</a>
</g>
</g>
<!-- Node11 -->
<g id="Node000011" class="node">
<title>Node11</title>
<g id="a_Node000011"><a xlink:href="../../dc/de2/classqugar_1_1impl_1_1funcs_1_1CylinderBzr.html" target="_top" xlink:title="Infinite cylinder.">
<polygon fill="white" stroke="#666666" points="626.5,-78 522.5,-78 522.5,-48 626.5,-48 626.5,-78"/>
<text text-anchor="start" x="530.5" y="-66" font-family="Helvetica,sans-Serif" font-size="10.00">qugar::impl::funcs</text>
<text text-anchor="middle" x="574.5" y="-55" font-family="Helvetica,sans-Serif" font-size="10.00">::CylinderBzr</text>
</a>
</g>
</g>
<!-- Node10&#45;&gt;Node11 -->
<g id="edge10_Node000010_Node000011" class="edge">
<title>Node10&#45;&gt;Node11</title>
<g id="a_edge10_Node000010_Node000011"><a xlink:title=" ">
<path fill="none" stroke="#63b8ff" d="M487.53,-63C499.19,-63 511.09,-63 522.18,-63"/>
<polygon fill="#63b8ff" stroke="#63b8ff" points="487.37,-59.5 477.37,-63 487.37,-66.5 487.37,-59.5"/>
</a>
</g>
</g>
<!-- Node12 -->
<g id="Node000012" class="node">
<title>Node12</title>
<g id="a_Node000012"><a xlink:href="../../d0/dc9/classqugar_1_1impl_1_1funcs_1_1TorusBzr.html" target="_top" xlink:title="3D torus function. The function is defined by the torus center, axis, and major and inner radii....">
<polygon fill="white" stroke="#666666" points="626.5,-30 522.5,-30 522.5,0 626.5,0 626.5,-30"/>
<text text-anchor="start" x="530.5" y="-18" font-family="Helvetica,sans-Serif" font-size="10.00">qugar::impl::funcs</text>
<text text-anchor="middle" x="574.5" y="-7" font-family="Helvetica,sans-Serif" font-size="10.00">::TorusBzr</text>
</a>
</g>
</g>
<!-- Node10&#45;&gt;Node12 -->
<g id="edge11_Node000010_Node000012" class="edge">
<title>Node10&#45;&gt;Node12</title>
<g id="a_edge11_Node000010_Node000012"><a xlink:title=" ">
<path fill="none" stroke="#63b8ff" d="M476.22,-44.93C492.21,-40.01 509.36,-34.73 524.74,-30"/>
<polygon fill="#63b8ff" stroke="#63b8ff" points="474.96,-41.66 466.43,-47.94 477.02,-48.35 474.96,-41.66"/>
</a>
</g>
</g>
</g>
</svg>
