<?xml version="1.0" encoding="UTF-8" standalone="no"?>
<!DOCTYPE svg PUBLIC "-//W3C//DTD SVG 1.1//EN"
 "http://www.w3.org/Graphics/SVG/1.1/DTD/svg11.dtd">
<!-- Generated by graphviz version 2.43.0 (0)
 -->
<!-- Title: qugar::impl::funcs::Sphere::Sphere Pages: 1 -->
<svg width="265pt" height="86pt"
 viewBox="0.00 0.00 265.00 86.00" xmlns="http://www.w3.org/2000/svg" xmlns:xlink="http://www.w3.org/1999/xlink">
<g id="graph0" class="graph" transform="scale(1 1) rotate(0) translate(4 82)">
<title>qugar::impl::funcs::Sphere::Sphere</title>
<!-- Node1 -->
<g id="Node000001" class="node">
<title>Node1</title>
<g id="a_Node000001"><a xlink:title="Constructs a Sphere object with a specified center and radius.">
<polygon fill="#999999" stroke="#666666" points="104,-54 0,-54 0,-24 104,-24 104,-54"/>
<text text-anchor="start" x="8" y="-42" font-family="Helvetica,sans-Serif" font-size="10.00">qugar::impl::funcs</text>
<text text-anchor="middle" x="52" y="-31" font-family="Helvetica,sans-Serif" font-size="10.00">::Sphere::Sphere</text>
</a>
</g>
</g>
<!-- Node2 -->
<g id="Node000002" class="node">
<title>Node2</title>
<g id="a_Node000002"><a xlink:href="../../d7/d90/classqugar_1_1impl_1_1funcs_1_1SphereBase.html#ad3c49087443938e47539180318b77fbd" target="_top" xlink:title="Gets the center of the sphere.">
<polygon fill="white" stroke="#666666" points="257,-78 140,-78 140,-48 257,-48 257,-78"/>
<text text-anchor="start" x="148" y="-66" font-family="Helvetica,sans-Serif" font-size="10.00">qugar::impl::funcs</text>
<text text-anchor="middle" x="198.5" y="-55" font-family="Helvetica,sans-Serif" font-size="10.00">::SphereBase::center</text>
</a>
</g>
</g>
<!-- Node1&#45;&gt;Node2 -->
<g id="edge1_Node000001_Node000002" class="edge">
<title>Node1&#45;&gt;Node2</title>
<g id="a_edge1_Node000001_Node000002"><a xlink:title=" ">
<path fill="none" stroke="#63b8ff" d="M104.35,-47.53C112.63,-48.9 121.31,-50.35 129.9,-51.77"/>
<polygon fill="#63b8ff" stroke="#63b8ff" points="129.48,-55.25 139.92,-53.44 130.63,-48.35 129.48,-55.25"/>
</a>
</g>
</g>
<!-- Node3 -->
<g id="Node000003" class="node">
<title>Node3</title>
<g id="a_Node000003"><a xlink:href="../../d7/d90/classqugar_1_1impl_1_1funcs_1_1SphereBase.html#a68a246ebe68aac862a2eecdcad3fcc56" target="_top" xlink:title="Gets the radius of the sphere.">
<polygon fill="white" stroke="#666666" points="256.5,-30 140.5,-30 140.5,0 256.5,0 256.5,-30"/>
<text text-anchor="start" x="148.5" y="-18" font-family="Helvetica,sans-Serif" font-size="10.00">qugar::impl::funcs</text>
<text text-anchor="middle" x="198.5" y="-7" font-family="Helvetica,sans-Serif" font-size="10.00">::SphereBase::radius</text>
</a>
</g>
</g>
<!-- Node1&#45;&gt;Node3 -->
<g id="edge2_Node000001_Node000003" class="edge">
<title>Node1&#45;&gt;Node3</title>
<g id="a_edge2_Node000001_Node000003"><a xlink:title=" ">
<path fill="none" stroke="#63b8ff" d="M104.35,-30.47C112.84,-29.06 121.75,-27.58 130.55,-26.12"/>
<polygon fill="#63b8ff" stroke="#63b8ff" points="131.12,-29.57 140.42,-24.48 129.98,-22.67 131.12,-29.57"/>
</a>
</g>
</g>
</g>
</svg>
