<?xml version="1.0" encoding="UTF-8" standalone="no"?>
<!DOCTYPE svg PUBLIC "-//W3C//DTD SVG 1.1//EN"
 "http://www.w3.org/Graphics/SVG/1.1/DTD/svg11.dtd">
<!-- Generated by graphviz version 2.43.0 (0)
 -->
<!-- Title: /__w/qugar/qugar/cpp/include/qugar/concepts.hpp Pages: 1 -->
<svg width="1382pt" height="643pt"
 viewBox="0.00 0.00 1382.00 643.00" xmlns="http://www.w3.org/2000/svg" xmlns:xlink="http://www.w3.org/1999/xlink">
<g id="graph0" class="graph" transform="scale(1 1) rotate(0) translate(4 639)">
<title>/__w/qugar/qugar/cpp/include/qugar/concepts.hpp</title>
<!-- Node1 -->
<g id="Node000001" class="node">
<title>Node1</title>
<g id="a_Node000001"><a xlink:title="Declaration of concepts.">
<polygon fill="#999999" stroke="#666666" points="893,-635 740,-635 740,-605 893,-605 893,-635"/>
<text text-anchor="start" x="748" y="-623" font-family="Helvetica,sans-Serif" font-size="10.00">/__w/qugar/qugar/cpp</text>
<text text-anchor="middle" x="816.5" y="-612" font-family="Helvetica,sans-Serif" font-size="10.00">/include/qugar/concepts.hpp</text>
</a>
</g>
</g>
<!-- Node2 -->
<g id="Node000002" class="node">
<title>Node2</title>
<g id="a_Node000002"><a xlink:href="../../d5/d90/bbox_8hpp.html" target="_top" xlink:title="Definition of Cartesian bounding box class.">
<polygon fill="white" stroke="#666666" points="883.5,-569 749.5,-569 749.5,-539 883.5,-539 883.5,-569"/>
<text text-anchor="start" x="757.5" y="-557" font-family="Helvetica,sans-Serif" font-size="10.00">/__w/qugar/qugar/cpp</text>
<text text-anchor="middle" x="816.5" y="-546" font-family="Helvetica,sans-Serif" font-size="10.00">/include/qugar/bbox.hpp</text>
</a>
</g>
</g>
<!-- Node1&#45;&gt;Node2 -->
<g id="edge1_Node000001_Node000002" class="edge">
<title>Node1&#45;&gt;Node2</title>
<g id="a_edge1_Node000001_Node000002"><a xlink:title=" ">
<path fill="none" stroke="#63b8ff" d="M816.5,-594.54C816.5,-585.96 816.5,-576.61 816.5,-569.16"/>
<polygon fill="#63b8ff" stroke="#63b8ff" points="813,-594.8 816.5,-604.8 820,-594.8 813,-594.8"/>
</a>
</g>
</g>
<!-- Node3 -->
<g id="Node000003" class="node">
<title>Node3</title>
<g id="a_Node000003"><a xlink:href="../../d0/d6f/demo__quad__sphere_2main_8cpp.html" target="_top" xlink:title=" ">
<polygon fill="white" stroke="#666666" points="494.5,-118 348.5,-118 348.5,-77 494.5,-77 494.5,-118"/>
<text text-anchor="start" x="356.5" y="-106" font-family="Helvetica,sans-Serif" font-size="10.00">/__w/qugar/qugar/cpp</text>
<text text-anchor="start" x="356.5" y="-95" font-family="Helvetica,sans-Serif" font-size="10.00">/demo/demo_quad_sphere</text>
<text text-anchor="middle" x="421.5" y="-84" font-family="Helvetica,sans-Serif" font-size="10.00">/main.cpp</text>
</a>
</g>
</g>
<!-- Node2&#45;&gt;Node3 -->
<g id="edge2_Node000002_Node000003" class="edge">
<title>Node2&#45;&gt;Node3</title>
<g id="a_edge2_Node000002_Node000003"><a xlink:title=" ">
<path fill="none" stroke="#63b8ff" d="M779.25,-533.39C767.23,-525.42 754.87,-515.18 746.5,-503 721.41,-466.48 721.5,-450.8 721.5,-406.5 721.5,-406.5 721.5,-406.5 721.5,-327.5 721.5,-212.51 580.51,-147.56 491.84,-118.08"/>
<polygon fill="#63b8ff" stroke="#63b8ff" points="777.54,-536.45 787.87,-538.8 781.26,-530.52 777.54,-536.45"/>
</a>
</g>
</g>
<!-- Node4 -->
<g id="Node000004" class="node">
<title>Node4</title>
<g id="a_Node000004"><a xlink:href="../../d2/d66/demo__reparam__gyroid_2main_8cpp.html" target="_top" xlink:title=" ">
<polygon fill="white" stroke="#666666" points="161,-41 0,-41 0,0 161,0 161,-41"/>
<text text-anchor="start" x="8" y="-29" font-family="Helvetica,sans-Serif" font-size="10.00">/__w/qugar/qugar/cpp</text>
<text text-anchor="start" x="8" y="-18" font-family="Helvetica,sans-Serif" font-size="10.00">/demo/demo_reparam_gyroid</text>
<text text-anchor="middle" x="80.5" y="-7" font-family="Helvetica,sans-Serif" font-size="10.00">/main.cpp</text>
</a>
</g>
</g>
<!-- Node2&#45;&gt;Node4 -->
<g id="edge3_Node000002_Node000004" class="edge">
<title>Node2&#45;&gt;Node4</title>
<g id="a_edge3_Node000002_Node000004"><a xlink:title=" ">
<path fill="none" stroke="#63b8ff" d="M739.17,-552.75C630.95,-550.89 428.78,-541.89 261.5,-503 145.09,-475.93 10.5,-526.02 10.5,-406.5 10.5,-406.5 10.5,-406.5 10.5,-173.5 10.5,-122.08 43.96,-69.1 64.62,-41.3"/>
<polygon fill="#63b8ff" stroke="#63b8ff" points="739.29,-556.25 749.35,-552.91 739.4,-549.25 739.29,-556.25"/>
</a>
</g>
</g>
<!-- Node5 -->
<g id="Node000005" class="node">
<title>Node5</title>
<g id="a_Node000005"><a xlink:href="../../d2/d6e/bezier__tp_8hpp.html" target="_top" xlink:title="Declaration of tensor&#45;product Bezier class.">
<polygon fill="white" stroke="#666666" points="1067.5,-349 947.5,-349 947.5,-308 1067.5,-308 1067.5,-349"/>
<text text-anchor="start" x="955.5" y="-337" font-family="Helvetica,sans-Serif" font-size="10.00">/__w/qugar/qugar/cpp</text>
<text text-anchor="start" x="955.5" y="-326" font-family="Helvetica,sans-Serif" font-size="10.00">/include/qugar/bezier</text>
<text text-anchor="middle" x="1007.5" y="-315" font-family="Helvetica,sans-Serif" font-size="10.00">_tp.hpp</text>
</a>
</g>
</g>
<!-- Node2&#45;&gt;Node5 -->
<g id="edge4_Node000002_Node000005" class="edge">
<title>Node2&#45;&gt;Node5</title>
<g id="a_edge4_Node000002_Node000005"><a xlink:title=" ">
<path fill="none" stroke="#63b8ff" d="M893.63,-543.57C943.22,-535.74 1001.15,-522.66 1016.5,-503 1051.77,-457.83 1029.73,-384.14 1016.02,-349.14"/>
<polygon fill="#63b8ff" stroke="#63b8ff" points="892.87,-540.14 883.51,-545.11 893.93,-547.06 892.87,-540.14"/>
</a>
</g>
</g>
<!-- Node7 -->
<g id="Node000007" class="node">
<title>Node7</title>
<g id="a_Node000007"><a xlink:href="../../d6/d87/impl__reparam__bezier_8hpp.html" target="_top" xlink:title="Declaration of tools for creating Bezier reparameterizations.">
<polygon fill="white" stroke="#666666" points="1223,-118 1066,-118 1066,-77 1223,-77 1223,-118"/>
<text text-anchor="start" x="1074" y="-106" font-family="Helvetica,sans-Serif" font-size="10.00">/__w/qugar/qugar/cpp</text>
<text text-anchor="start" x="1074" y="-95" font-family="Helvetica,sans-Serif" font-size="10.00">/include/qugar/impl_reparam</text>
<text text-anchor="middle" x="1144.5" y="-84" font-family="Helvetica,sans-Serif" font-size="10.00">_bezier.hpp</text>
</a>
</g>
</g>
<!-- Node2&#45;&gt;Node7 -->
<g id="edge35_Node000002_Node000007" class="edge">
<title>Node2&#45;&gt;Node7</title>
<g id="a_edge35_Node000002_Node000007"><a xlink:title=" ">
<path fill="none" stroke="#63b8ff" d="M893.8,-549.5C947.98,-544.43 1020.76,-532.21 1078.5,-503 1134.77,-474.54 1182.5,-469.56 1182.5,-406.5 1182.5,-406.5 1182.5,-406.5 1182.5,-250.5 1182.5,-201.81 1163.92,-146.9 1152.75,-118.27"/>
<polygon fill="#63b8ff" stroke="#63b8ff" points="893.22,-546.04 883.56,-550.4 893.83,-553.01 893.22,-546.04"/>
</a>
</g>
</g>
<!-- Node9 -->
<g id="Node000009" class="node">
<title>Node9</title>
<g id="a_Node000009"><a xlink:href="../../d6/d49/cart__grid__tp_8hpp.html" target="_top" xlink:title="Definition of Cartesian grid class.">
<polygon fill="white" stroke="#666666" points="503,-503 372,-503 372,-462 503,-462 503,-503"/>
<text text-anchor="start" x="380" y="-491" font-family="Helvetica,sans-Serif" font-size="10.00">/__w/qugar/qugar/cpp</text>
<text text-anchor="start" x="380" y="-480" font-family="Helvetica,sans-Serif" font-size="10.00">/include/qugar/cart_grid</text>
<text text-anchor="middle" x="437.5" y="-469" font-family="Helvetica,sans-Serif" font-size="10.00">_tp.hpp</text>
</a>
</g>
</g>
<!-- Node2&#45;&gt;Node9 -->
<g id="edge9_Node000002_Node000009" class="edge">
<title>Node2&#45;&gt;Node9</title>
<g id="a_edge9_Node000002_Node000009"><a xlink:title=" ">
<path fill="none" stroke="#63b8ff" d="M739.17,-538.82C669.72,-526.08 568.88,-507.59 503.24,-495.56"/>
<polygon fill="#63b8ff" stroke="#63b8ff" points="738.71,-542.29 749.18,-540.65 739.97,-535.41 738.71,-542.29"/>
</a>
</g>
</g>
<!-- Node11 -->
<g id="Node000011" class="node">
<title>Node11</title>
<g id="a_Node000011"><a xlink:href="../../d3/d42/impl__reparam__mesh_8hpp.html" target="_top" xlink:title="Declaration of reparameterization class.">
<polygon fill="white" stroke="#666666" points="857,-195 700,-195 700,-154 857,-154 857,-195"/>
<text text-anchor="start" x="708" y="-183" font-family="Helvetica,sans-Serif" font-size="10.00">/__w/qugar/qugar/cpp</text>
<text text-anchor="start" x="708" y="-172" font-family="Helvetica,sans-Serif" font-size="10.00">/include/qugar/impl_reparam</text>
<text text-anchor="middle" x="778.5" y="-161" font-family="Helvetica,sans-Serif" font-size="10.00">_mesh.hpp</text>
</a>
</g>
</g>
<!-- Node2&#45;&gt;Node11 -->
<g id="edge37_Node000002_Node000011" class="edge">
<title>Node2&#45;&gt;Node11</title>
<g id="a_edge37_Node000002_Node000011"><a xlink:title=" ">
<path fill="none" stroke="#63b8ff" d="M814.04,-528.6C807.01,-458.68 786.86,-258.54 780.47,-195.07"/>
<polygon fill="#63b8ff" stroke="#63b8ff" points="810.57,-529.06 815.06,-538.66 817.54,-528.36 810.57,-529.06"/>
</a>
</g>
</g>
<!-- Node13 -->
<g id="Node000013" class="node">
<title>Node13</title>
<g id="a_Node000013"><a xlink:href="../../d5/da9/impl__reparam__general_8hpp.html" target="_top" xlink:title="Declaration of tools for creating reparameterizations of general functions.">
<polygon fill="white" stroke="#666666" points="957,-118 800,-118 800,-77 957,-77 957,-118"/>
<text text-anchor="start" x="808" y="-106" font-family="Helvetica,sans-Serif" font-size="10.00">/__w/qugar/qugar/cpp</text>
<text text-anchor="start" x="808" y="-95" font-family="Helvetica,sans-Serif" font-size="10.00">/include/qugar/impl_reparam</text>
<text text-anchor="middle" x="878.5" y="-84" font-family="Helvetica,sans-Serif" font-size="10.00">_general.hpp</text>
</a>
</g>
</g>
<!-- Node2&#45;&gt;Node13 -->
<g id="edge36_Node000002_Node000013" class="edge">
<title>Node2&#45;&gt;Node13</title>
<g id="a_edge36_Node000002_Node000013"><a xlink:title=" ">
<path fill="none" stroke="#63b8ff" d="M893.76,-546.83C979.67,-535.26 1106.5,-502 1106.5,-406.5 1106.5,-406.5 1106.5,-406.5 1106.5,-250.5 1106.5,-176.88 1023.19,-136.72 957.28,-116.47"/>
<polygon fill="#63b8ff" stroke="#63b8ff" points="893.24,-543.37 883.76,-548.11 894.12,-550.31 893.24,-543.37"/>
</a>
</g>
</g>
<!-- Node14 -->
<g id="Node000014" class="node">
<title>Node14</title>
<g id="a_Node000014"><a xlink:href="../../d6/d03/impl__unfitted__domain_8hpp.html" target="_top" xlink:title="Declaration of of UnfittedImplDomain class.">
<polygon fill="white" stroke="#666666" points="268,-272 115,-272 115,-231 268,-231 268,-272"/>
<text text-anchor="start" x="123" y="-260" font-family="Helvetica,sans-Serif" font-size="10.00">/__w/qugar/qugar/cpp</text>
<text text-anchor="start" x="123" y="-249" font-family="Helvetica,sans-Serif" font-size="10.00">/include/qugar/impl_unfitted</text>
<text text-anchor="middle" x="191.5" y="-238" font-family="Helvetica,sans-Serif" font-size="10.00">_domain.hpp</text>
</a>
</g>
</g>
<!-- Node2&#45;&gt;Node14 -->
<g id="edge38_Node000002_Node000014" class="edge">
<title>Node2&#45;&gt;Node14</title>
<g id="a_edge38_Node000002_Node000014"><a xlink:title=" ">
<path fill="none" stroke="#63b8ff" d="M739.3,-548.27C628.61,-540.85 430.64,-525.01 362.5,-503 296.4,-481.65 271.67,-478.77 226.5,-426 188.44,-381.53 187.64,-307.17 189.73,-272.03"/>
<polygon fill="#63b8ff" stroke="#63b8ff" points="739.2,-551.77 749.41,-548.94 739.66,-544.79 739.2,-551.77"/>
</a>
</g>
</g>
<!-- Node15 -->
<g id="Node000015" class="node">
<title>Node15</title>
<g id="a_Node000015"><a xlink:href="../../d8/ddc/reparam__mesh_8hpp.html" target="_top" xlink:title="Declaration of reparameterization class.">
<polygon fill="white" stroke="#666666" points="655.5,-272 525.5,-272 525.5,-231 655.5,-231 655.5,-272"/>
<text text-anchor="start" x="533.5" y="-260" font-family="Helvetica,sans-Serif" font-size="10.00">/__w/qugar/qugar/cpp</text>
<text text-anchor="start" x="533.5" y="-249" font-family="Helvetica,sans-Serif" font-size="10.00">/include/qugar/reparam</text>
<text text-anchor="middle" x="590.5" y="-238" font-family="Helvetica,sans-Serif" font-size="10.00">_mesh.hpp</text>
</a>
</g>
</g>
<!-- Node2&#45;&gt;Node15 -->
<g id="edge46_Node000002_Node000015" class="edge">
<title>Node2&#45;&gt;Node15</title>
<g id="a_edge46_Node000002_Node000015"><a xlink:title=" ">
<path fill="none" stroke="#63b8ff" d="M799.68,-530.64C757.12,-474.04 645.63,-325.8 605.31,-272.2"/>
<polygon fill="#63b8ff" stroke="#63b8ff" points="797.09,-533.02 805.9,-538.91 802.69,-528.81 797.09,-533.02"/>
</a>
</g>
</g>
<!-- Node19 -->
<g id="Node000019" class="node">
<title>Node19</title>
<g id="a_Node000019"><a xlink:href="../../d6/d82/monomials__tp_8hpp.html" target="_top" xlink:title="Declaration of tensor&#45;product monomials class.">
<polygon fill="white" stroke="#666666" points="969,-426 826,-426 826,-385 969,-385 969,-426"/>
<text text-anchor="start" x="834" y="-414" font-family="Helvetica,sans-Serif" font-size="10.00">/__w/qugar/qugar/cpp</text>
<text text-anchor="start" x="834" y="-403" font-family="Helvetica,sans-Serif" font-size="10.00">/include/qugar/monomials</text>
<text text-anchor="middle" x="897.5" y="-392" font-family="Helvetica,sans-Serif" font-size="10.00">_tp.hpp</text>
</a>
</g>
</g>
<!-- Node2&#45;&gt;Node19 -->
<g id="edge39_Node000002_Node000019" class="edge">
<title>Node2&#45;&gt;Node19</title>
<g id="a_edge39_Node000002_Node000019"><a xlink:title=" ">
<path fill="none" stroke="#63b8ff" d="M824.81,-529.37C831.86,-510.54 842.82,-483.82 855.5,-462 862.78,-449.46 872.47,-436.48 880.7,-426.23"/>
<polygon fill="#63b8ff" stroke="#63b8ff" points="821.46,-528.34 821.32,-538.93 828.04,-530.74 821.46,-528.34"/>
</a>
</g>
</g>
<!-- Node20 -->
<g id="Node000020" class="node">
<title>Node20</title>
<g id="a_Node000020"><a xlink:href="../../d2/dee/polynomial__tp_8hpp.html" target="_top" xlink:title="Declaration of tensor&#45;product polynomial class.">
<polygon fill="white" stroke="#666666" points="1007,-503 864,-503 864,-462 1007,-462 1007,-503"/>
<text text-anchor="start" x="872" y="-491" font-family="Helvetica,sans-Serif" font-size="10.00">/__w/qugar/qugar/cpp</text>
<text text-anchor="start" x="872" y="-480" font-family="Helvetica,sans-Serif" font-size="10.00">/include/qugar/polynomial</text>
<text text-anchor="middle" x="935.5" y="-469" font-family="Helvetica,sans-Serif" font-size="10.00">_tp.hpp</text>
</a>
</g>
</g>
<!-- Node2&#45;&gt;Node20 -->
<g id="edge42_Node000002_Node000020" class="edge">
<title>Node2&#45;&gt;Node20</title>
<g id="a_edge42_Node000002_Node000020"><a xlink:title=" ">
<path fill="none" stroke="#63b8ff" d="M849.3,-533.85C865.69,-524.27 885.49,-512.71 901.99,-503.07"/>
<polygon fill="#63b8ff" stroke="#63b8ff" points="847.45,-530.87 840.58,-538.94 850.98,-536.91 847.45,-530.87"/>
</a>
</g>
</g>
<!-- Node21 -->
<g id="Node000021" class="node">
<title>Node21</title>
<g id="a_Node000021"><a xlink:href="../../d6/dbe/quadrature_8hpp.html" target="_top" xlink:title="Definition of quadrature related functionalities.">
<polygon fill="white" stroke="#666666" points="1374,-497.5 1211,-497.5 1211,-467.5 1374,-467.5 1374,-497.5"/>
<text text-anchor="start" x="1219" y="-485.5" font-family="Helvetica,sans-Serif" font-size="10.00">/__w/qugar/qugar/cpp</text>
<text text-anchor="middle" x="1292.5" y="-474.5" font-family="Helvetica,sans-Serif" font-size="10.00">/include/qugar/quadrature.hpp</text>
</a>
</g>
</g>
<!-- Node2&#45;&gt;Node21 -->
<g id="edge45_Node000002_Node000021" class="edge">
<title>Node2&#45;&gt;Node21</title>
<g id="a_edge45_Node000002_Node000021"><a xlink:title=" ">
<path fill="none" stroke="#63b8ff" d="M893.73,-544.43C970.67,-535.53 1092.08,-520.45 1196.5,-503 1206.23,-501.37 1216.48,-499.48 1226.51,-497.53"/>
<polygon fill="#63b8ff" stroke="#63b8ff" points="893.17,-540.98 883.64,-545.6 893.97,-547.93 893.17,-540.98"/>
</a>
</g>
</g>
<!-- Node6 -->
<g id="Node000006" class="node">
<title>Node6</title>
<g id="a_Node000006"><a xlink:href="../../de/d62/bezier__tp__utils_8hpp.html" target="_top" xlink:title="Declaration of tensor&#45;product Bezier utils.">
<polygon fill="white" stroke="#666666" points="1078.5,-272 958.5,-272 958.5,-231 1078.5,-231 1078.5,-272"/>
<text text-anchor="start" x="966.5" y="-260" font-family="Helvetica,sans-Serif" font-size="10.00">/__w/qugar/qugar/cpp</text>
<text text-anchor="start" x="966.5" y="-249" font-family="Helvetica,sans-Serif" font-size="10.00">/include/qugar/bezier</text>
<text text-anchor="middle" x="1018.5" y="-238" font-family="Helvetica,sans-Serif" font-size="10.00">_tp_utils.hpp</text>
</a>
</g>
</g>
<!-- Node5&#45;&gt;Node6 -->
<g id="edge5_Node000005_Node000006" class="edge">
<title>Node5&#45;&gt;Node6</title>
<g id="a_edge5_Node000005_Node000006"><a xlink:title=" ">
<path fill="none" stroke="#63b8ff" d="M1011.87,-297.69C1013.14,-289.08 1014.48,-279.9 1015.63,-272.07"/>
<polygon fill="#63b8ff" stroke="#63b8ff" points="1008.38,-297.39 1010.39,-307.79 1015.3,-298.41 1008.38,-297.39"/>
</a>
</g>
</g>
<!-- Node5&#45;&gt;Node7 -->
<g id="edge6_Node000005_Node000007" class="edge">
<title>Node5&#45;&gt;Node7</title>
<g id="a_edge6_Node000005_Node000007"><a xlink:title=" ">
<path fill="none" stroke="#63b8ff" d="M1054.25,-302.5C1066.44,-294.15 1078.63,-283.89 1087.5,-272 1123.33,-223.97 1137.32,-152.29 1142.19,-118.06"/>
<polygon fill="#63b8ff" stroke="#63b8ff" points="1052.32,-299.58 1045.85,-307.97 1056.14,-305.45 1052.32,-299.58"/>
</a>
</g>
</g>
<!-- Node8 -->
<g id="Node000008" class="node">
<title>Node8</title>
<g id="a_Node000008"><a xlink:href="../../d7/d6f/primitive__funcs__lib_8hpp.html" target="_top" xlink:title="Declaration of a primitive implicit functions ready to be consumed by Algoim.">
<polygon fill="white" stroke="#666666" points="940,-272 807,-272 807,-231 940,-231 940,-272"/>
<text text-anchor="start" x="815" y="-260" font-family="Helvetica,sans-Serif" font-size="10.00">/__w/qugar/qugar/cpp</text>
<text text-anchor="start" x="815" y="-249" font-family="Helvetica,sans-Serif" font-size="10.00">/include/qugar/primitive</text>
<text text-anchor="middle" x="873.5" y="-238" font-family="Helvetica,sans-Serif" font-size="10.00">_funcs_lib.hpp</text>
</a>
</g>
</g>
<!-- Node5&#45;&gt;Node8 -->
<g id="edge7_Node000005_Node000008" class="edge">
<title>Node5&#45;&gt;Node8</title>
<g id="a_edge7_Node000005_Node000008"><a xlink:title=" ">
<path fill="none" stroke="#63b8ff" d="M963.58,-302.92C945.76,-292.95 925.46,-281.58 908.65,-272.17"/>
<polygon fill="#63b8ff" stroke="#63b8ff" points="962.21,-306.16 972.64,-307.99 965.63,-300.05 962.21,-306.16"/>
</a>
</g>
</g>
<!-- Node8&#45;&gt;Node3 -->
<g id="edge8_Node000008_Node000003" class="edge">
<title>Node8&#45;&gt;Node3</title>
<g id="a_edge8_Node000008_Node000003"><a xlink:title=" ">
<path fill="none" stroke="#63b8ff" d="M880.38,-220.98C883.48,-199.5 883.32,-171.27 866.5,-154 809.94,-95.93 583.45,-131.41 503.5,-118 500.61,-117.52 497.68,-116.99 494.72,-116.43"/>
<polygon fill="#63b8ff" stroke="#63b8ff" points="876.91,-220.45 878.65,-230.91 883.81,-221.65 876.91,-220.45"/>
</a>
</g>
</g>
<!-- Node9&#45;&gt;Node3 -->
<g id="edge10_Node000009_Node000003" class="edge">
<title>Node9&#45;&gt;Node3</title>
<g id="a_edge10_Node000009_Node000003"><a xlink:title=" ">
<path fill="none" stroke="#63b8ff" d="M456.05,-453.28C473.68,-423.71 497.5,-375.27 497.5,-329.5 497.5,-329.5 497.5,-329.5 497.5,-250.5 497.5,-198.28 461.17,-145.61 438.75,-118.07"/>
<polygon fill="#63b8ff" stroke="#63b8ff" points="453.06,-451.48 450.82,-461.83 459.02,-455.13 453.06,-451.48"/>
</a>
</g>
</g>
<!-- Node9&#45;&gt;Node4 -->
<g id="edge11_Node000009_Node000004" class="edge">
<title>Node9&#45;&gt;Node4</title>
<g id="a_edge11_Node000009_Node000004"><a xlink:title=" ">
<path fill="none" stroke="#63b8ff" d="M361.65,-480.73C304.34,-476.82 225.99,-464.04 168.5,-426 90.31,-374.26 48.5,-346.26 48.5,-252.5 48.5,-252.5 48.5,-252.5 48.5,-173.5 48.5,-125.23 64.15,-70.15 73.56,-41.38"/>
<polygon fill="#63b8ff" stroke="#63b8ff" points="361.54,-484.23 371.73,-481.34 361.97,-477.24 361.54,-484.23"/>
</a>
</g>
</g>
<!-- Node10 -->
<g id="Node000010" class="node">
<title>Node10</title>
<g id="a_Node000010"><a xlink:href="../../d6/dc8/impl__quadrature_8hpp.html" target="_top" xlink:title="Declaration of quadratures for general implicit functions on grids.">
<polygon fill="white" stroke="#666666" points="393.5,-189.5 203.5,-189.5 203.5,-159.5 393.5,-159.5 393.5,-189.5"/>
<text text-anchor="start" x="211.5" y="-177.5" font-family="Helvetica,sans-Serif" font-size="10.00">/__w/qugar/qugar/cpp</text>
<text text-anchor="middle" x="298.5" y="-166.5" font-family="Helvetica,sans-Serif" font-size="10.00">/include/qugar/impl_quadrature.hpp</text>
</a>
</g>
</g>
<!-- Node9&#45;&gt;Node10 -->
<g id="edge12_Node000009_Node000010" class="edge">
<title>Node9&#45;&gt;Node10</title>
<g id="a_edge12_Node000009_Node000010"><a xlink:title=" ">
<path fill="none" stroke="#63b8ff" d="M361.69,-473.59C319.2,-466.33 266.8,-452.46 226.5,-426 153.74,-378.22 133.95,-354.26 105.5,-272 99.54,-254.78 94.54,-245.56 105.5,-231 119.08,-212.97 168.31,-198.97 213.64,-189.55"/>
<polygon fill="#63b8ff" stroke="#63b8ff" points="361.28,-477.07 371.71,-475.21 362.4,-470.16 361.28,-477.07"/>
</a>
</g>
</g>
<!-- Node9&#45;&gt;Node11 -->
<g id="edge14_Node000009_Node000011" class="edge">
<title>Node9&#45;&gt;Node11</title>
<g id="a_edge14_Node000009_Node000011"><a xlink:title=" ">
<path fill="none" stroke="#63b8ff" d="M489.34,-457.29C506.04,-448.46 524.17,-437.74 539.5,-426 635.42,-352.54 728.05,-240.01 763.43,-195.05"/>
<polygon fill="#63b8ff" stroke="#63b8ff" points="487.52,-454.29 480.24,-461.99 490.73,-460.51 487.52,-454.29"/>
</a>
</g>
</g>
<!-- Node9&#45;&gt;Node14 -->
<g id="edge19_Node000009_Node000014" class="edge">
<title>Node9&#45;&gt;Node14</title>
<g id="a_edge19_Node000009_Node000014"><a xlink:title=" ">
<path fill="none" stroke="#63b8ff" d="M361.6,-472.75C327.13,-465.31 288,-451.52 260.5,-426 215.12,-383.88 199.04,-308.03 193.81,-272.23"/>
<polygon fill="#63b8ff" stroke="#63b8ff" points="361.17,-476.24 371.66,-474.78 362.55,-469.37 361.17,-476.24"/>
</a>
</g>
</g>
<!-- Node9&#45;&gt;Node15 -->
<g id="edge24_Node000009_Node000015" class="edge">
<title>Node9&#45;&gt;Node15</title>
<g id="a_edge24_Node000009_Node000015"><a xlink:title=" ">
<path fill="none" stroke="#63b8ff" d="M479.02,-456C490.57,-447.49 502.43,-437.28 511.5,-426 550.6,-377.38 574.95,-306.29 585.07,-272.19"/>
<polygon fill="#63b8ff" stroke="#63b8ff" points="476.85,-453.25 470.7,-461.88 480.89,-458.96 476.85,-453.25"/>
</a>
</g>
</g>
<!-- Node16 -->
<g id="Node000016" class="node">
<title>Node16</title>
<g id="a_Node000016"><a xlink:href="../../d2/dfd/unfitted__domain_8hpp.html" target="_top" xlink:title="Declaration of of UnfittedDomain class.">
<polygon fill="white" stroke="#666666" points="440.5,-349 314.5,-349 314.5,-308 440.5,-308 440.5,-349"/>
<text text-anchor="start" x="322.5" y="-337" font-family="Helvetica,sans-Serif" font-size="10.00">/__w/qugar/qugar/cpp</text>
<text text-anchor="start" x="322.5" y="-326" font-family="Helvetica,sans-Serif" font-size="10.00">/include/qugar/unfitted</text>
<text text-anchor="middle" x="377.5" y="-315" font-family="Helvetica,sans-Serif" font-size="10.00">_domain.hpp</text>
</a>
</g>
</g>
<!-- Node9&#45;&gt;Node16 -->
<g id="edge26_Node000009_Node000016" class="edge">
<title>Node9&#45;&gt;Node16</title>
<g id="a_edge26_Node000009_Node000016"><a xlink:title=" ">
<path fill="none" stroke="#63b8ff" d="M435.06,-451.71C432.64,-432.1 427.86,-406.22 418.5,-385 412.8,-372.07 403.64,-359.26 395.43,-349.22"/>
<polygon fill="#63b8ff" stroke="#63b8ff" points="431.6,-452.33 436.18,-461.89 438.56,-451.57 431.6,-452.33"/>
</a>
</g>
</g>
<!-- Node18 -->
<g id="Node000018" class="node">
<title>Node18</title>
<g id="a_Node000018"><a xlink:href="../../d8/daf/unfitted__domain__binary__part_8hpp.html" target="_top" xlink:title="Declaration of of UnfittedDomain class.">
<polygon fill="white" stroke="#666666" points="409.5,-426 269.5,-426 269.5,-385 409.5,-385 409.5,-426"/>
<text text-anchor="start" x="277.5" y="-414" font-family="Helvetica,sans-Serif" font-size="10.00">/__w/qugar/qugar/cpp</text>
<text text-anchor="start" x="277.5" y="-403" font-family="Helvetica,sans-Serif" font-size="10.00">/include/qugar/unfitted</text>
<text text-anchor="middle" x="339.5" y="-392" font-family="Helvetica,sans-Serif" font-size="10.00">_domain_binary_part.hpp</text>
</a>
</g>
</g>
<!-- Node9&#45;&gt;Node18 -->
<g id="edge32_Node000009_Node000018" class="edge">
<title>Node9&#45;&gt;Node18</title>
<g id="a_edge32_Node000009_Node000018"><a xlink:title=" ">
<path fill="none" stroke="#63b8ff" d="M403.94,-455.82C391.26,-446.11 377.05,-435.24 365.21,-426.17"/>
<polygon fill="#63b8ff" stroke="#63b8ff" points="401.94,-458.69 412.01,-461.99 406.19,-453.13 401.94,-458.69"/>
</a>
</g>
</g>
<!-- Node10&#45;&gt;Node3 -->
<g id="edge13_Node000010_Node000003" class="edge">
<title>Node10&#45;&gt;Node3</title>
<g id="a_edge13_Node000010_Node000003"><a xlink:title=" ">
<path fill="none" stroke="#63b8ff" d="M330.62,-153.91C348.66,-142.91 371.11,-129.22 389.19,-118.2"/>
<polygon fill="#63b8ff" stroke="#63b8ff" points="328.35,-151.2 321.64,-159.39 332,-157.18 328.35,-151.2"/>
</a>
</g>
</g>
<!-- Node11&#45;&gt;Node7 -->
<g id="edge17_Node000011_Node000007" class="edge">
<title>Node11&#45;&gt;Node7</title>
<g id="a_edge17_Node000011_Node000007"><a xlink:title=" ">
<path fill="none" stroke="#63b8ff" d="M866.96,-155.37C927.61,-142.94 1007.36,-126.6 1065.8,-114.63"/>
<polygon fill="#63b8ff" stroke="#63b8ff" points="866.11,-151.97 857.02,-157.41 867.52,-158.83 866.11,-151.97"/>
</a>
</g>
</g>
<!-- Node12 -->
<g id="Node000012" class="node">
<title>Node12</title>
<g id="a_Node000012"><a xlink:href="../../d0/d4c/impl__reparam_8hpp.html" target="_top" xlink:title="Declaration of reparameterization generization tools implicit functions on grids.">
<polygon fill="white" stroke="#666666" points="690.5,-112.5 512.5,-112.5 512.5,-82.5 690.5,-82.5 690.5,-112.5"/>
<text text-anchor="start" x="520.5" y="-100.5" font-family="Helvetica,sans-Serif" font-size="10.00">/__w/qugar/qugar/cpp</text>
<text text-anchor="middle" x="601.5" y="-89.5" font-family="Helvetica,sans-Serif" font-size="10.00">/include/qugar/impl_reparam.hpp</text>
</a>
</g>
</g>
<!-- Node11&#45;&gt;Node12 -->
<g id="edge15_Node000011_Node000012" class="edge">
<title>Node11&#45;&gt;Node12</title>
<g id="a_edge15_Node000011_Node000012"><a xlink:title=" ">
<path fill="none" stroke="#63b8ff" d="M723.25,-150.09C694.23,-137.79 659.62,-123.13 634.73,-112.58"/>
<polygon fill="#63b8ff" stroke="#63b8ff" points="721.88,-153.31 732.46,-153.99 724.62,-146.87 721.88,-153.31"/>
</a>
</g>
</g>
<!-- Node11&#45;&gt;Node13 -->
<g id="edge18_Node000011_Node000013" class="edge">
<title>Node11&#45;&gt;Node13</title>
<g id="a_edge18_Node000011_Node000013"><a xlink:title=" ">
<path fill="none" stroke="#63b8ff" d="M812.75,-147.82C825.68,-138.11 840.18,-127.24 852.27,-118.17"/>
<polygon fill="#63b8ff" stroke="#63b8ff" points="810.41,-145.19 804.51,-153.99 814.61,-150.79 810.41,-145.19"/>
</a>
</g>
</g>
<!-- Node12&#45;&gt;Node4 -->
<g id="edge16_Node000012_Node000004" class="edge">
<title>Node12&#45;&gt;Node4</title>
<g id="a_edge16_Node000012_Node000004"><a xlink:title=" ">
<path fill="none" stroke="#63b8ff" d="M524,-80.59C517.08,-79.32 510.17,-78.1 503.5,-77 384.75,-57.42 246.32,-40.33 161.04,-30.47"/>
<polygon fill="#63b8ff" stroke="#63b8ff" points="523.65,-84.09 534.13,-82.49 524.94,-77.2 523.65,-84.09"/>
</a>
</g>
</g>
<!-- Node14&#45;&gt;Node3 -->
<g id="edge20_Node000014_Node000003" class="edge">
<title>Node14&#45;&gt;Node3</title>
<g id="a_edge20_Node000014_Node000003"><a xlink:title=" ">
<path fill="none" stroke="#63b8ff" d="M183.78,-220.76C180.22,-199.83 179.6,-172.38 194.5,-154 213.82,-130.16 289.55,-115.12 348.29,-106.8"/>
<polygon fill="#63b8ff" stroke="#63b8ff" points="180.38,-221.61 185.77,-230.73 187.24,-220.24 180.38,-221.61"/>
</a>
</g>
</g>
<!-- Node14&#45;&gt;Node4 -->
<g id="edge21_Node000014_Node000004" class="edge">
<title>Node14&#45;&gt;Node4</title>
<g id="a_edge21_Node000014_Node000004"><a xlink:title=" ">
<path fill="none" stroke="#63b8ff" d="M177.64,-221.92C154.8,-174.78 109.78,-81.91 90.1,-41.3"/>
<polygon fill="#63b8ff" stroke="#63b8ff" points="174.52,-223.5 182.04,-230.98 180.82,-220.45 174.52,-223.5"/>
</a>
</g>
</g>
<!-- Node14&#45;&gt;Node10 -->
<g id="edge22_Node000014_Node000010" class="edge">
<title>Node14&#45;&gt;Node10</title>
<g id="a_edge22_Node000014_Node000010"><a xlink:title=" ">
<path fill="none" stroke="#63b8ff" d="M227.86,-225.01C244.69,-213.22 264.05,-199.65 278.24,-189.7"/>
<polygon fill="#63b8ff" stroke="#63b8ff" points="225.51,-222.38 219.33,-230.99 229.53,-228.12 225.51,-222.38"/>
</a>
</g>
</g>
<!-- Node14&#45;&gt;Node12 -->
<g id="edge23_Node000014_Node000012" class="edge">
<title>Node14&#45;&gt;Node12</title>
<g id="a_edge23_Node000014_Node000012"><a xlink:title=" ">
<path fill="none" stroke="#63b8ff" d="M277.96,-229.56C325.52,-217.68 379.44,-203.53 402.5,-195 467.32,-171.02 539.37,-133.05 576.44,-112.62"/>
<polygon fill="#63b8ff" stroke="#63b8ff" points="277.09,-226.17 268.23,-231.98 278.78,-232.96 277.09,-226.17"/>
</a>
</g>
</g>
<!-- Node15&#45;&gt;Node11 -->
<g id="edge25_Node000015_Node000011" class="edge">
<title>Node15&#45;&gt;Node11</title>
<g id="a_edge25_Node000015_Node000011"><a xlink:title=" ">
<path fill="none" stroke="#63b8ff" d="M648.74,-227.27C674.64,-216.94 704.79,-204.9 729.51,-195.04"/>
<polygon fill="#63b8ff" stroke="#63b8ff" points="647.4,-224.03 639.4,-230.99 649.99,-230.54 647.4,-224.03"/>
</a>
</g>
</g>
<!-- Node16&#45;&gt;Node14 -->
<g id="edge30_Node000016_Node000014" class="edge">
<title>Node16&#45;&gt;Node14</title>
<g id="a_edge30_Node000016_Node000014"><a xlink:title=" ">
<path fill="none" stroke="#63b8ff" d="M319.55,-304.13C294,-293.83 264.31,-281.86 239.96,-272.04"/>
<polygon fill="#63b8ff" stroke="#63b8ff" points="318.53,-307.5 329.12,-307.99 321.15,-301 318.53,-307.5"/>
</a>
</g>
</g>
<!-- Node16&#45;&gt;Node15 -->
<g id="edge31_Node000016_Node000015" class="edge">
<title>Node16&#45;&gt;Node15</title>
<g id="a_edge31_Node000016_Node000015"><a xlink:title=" ">
<path fill="none" stroke="#63b8ff" d="M442.71,-304.54C472.22,-294.15 506.75,-281.99 535,-272.04"/>
<polygon fill="#63b8ff" stroke="#63b8ff" points="441.18,-301.37 432.91,-307.99 443.5,-307.97 441.18,-301.37"/>
</a>
</g>
</g>
<!-- Node17 -->
<g id="Node000017" class="node">
<title>Node17</title>
<g id="a_Node000017"><a xlink:href="../../d1/daf/cut__quadrature_8hpp.html" target="_top" xlink:title="Definition of cut quadrature for unfitted domains.">
<polygon fill="white" stroke="#666666" points="469,-266.5 286,-266.5 286,-236.5 469,-236.5 469,-266.5"/>
<text text-anchor="start" x="294" y="-254.5" font-family="Helvetica,sans-Serif" font-size="10.00">/__w/qugar/qugar/cpp</text>
<text text-anchor="middle" x="377.5" y="-243.5" font-family="Helvetica,sans-Serif" font-size="10.00">/include/qugar/cut_quadrature.hpp</text>
</a>
</g>
</g>
<!-- Node16&#45;&gt;Node17 -->
<g id="edge27_Node000016_Node000017" class="edge">
<title>Node16&#45;&gt;Node17</title>
<g id="a_edge27_Node000016_Node000017"><a xlink:title=" ">
<path fill="none" stroke="#63b8ff" d="M377.5,-297.61C377.5,-287.01 377.5,-275.57 377.5,-266.86"/>
<polygon fill="#63b8ff" stroke="#63b8ff" points="374,-297.79 377.5,-307.79 381,-297.79 374,-297.79"/>
</a>
</g>
</g>
<!-- Node17&#45;&gt;Node3 -->
<g id="edge28_Node000017_Node000003" class="edge">
<title>Node17&#45;&gt;Node3</title>
<g id="a_edge28_Node000017_Node000003"><a xlink:title=" ">
<path fill="none" stroke="#63b8ff" d="M389.43,-227.2C394.04,-217.45 399.03,-205.87 402.5,-195 410.8,-168.97 416.15,-137.78 418.99,-118.05"/>
<polygon fill="#63b8ff" stroke="#63b8ff" points="386.25,-225.73 385.01,-236.25 392.54,-228.8 386.25,-225.73"/>
</a>
</g>
</g>
<!-- Node17&#45;&gt;Node10 -->
<g id="edge29_Node000017_Node000010" class="edge">
<title>Node17&#45;&gt;Node10</title>
<g id="a_edge29_Node000017_Node000010"><a xlink:title=" ">
<path fill="none" stroke="#63b8ff" d="M355.19,-229.32C341.77,-216.58 325.08,-200.74 313.29,-189.54"/>
<polygon fill="#63b8ff" stroke="#63b8ff" points="352.98,-232.05 362.64,-236.39 357.8,-226.97 352.98,-232.05"/>
</a>
</g>
</g>
<!-- Node18&#45;&gt;Node14 -->
<g id="edge33_Node000018_Node000014" class="edge">
<title>Node18&#45;&gt;Node14</title>
<g id="a_edge33_Node000018_Node000014"><a xlink:title=" ">
<path fill="none" stroke="#63b8ff" d="M313.41,-377.7C284.1,-347.6 237.21,-299.44 210.94,-272.47"/>
<polygon fill="#63b8ff" stroke="#63b8ff" points="310.97,-380.22 320.45,-384.94 315.99,-375.33 310.97,-380.22"/>
</a>
</g>
</g>
<!-- Node18&#45;&gt;Node16 -->
<g id="edge34_Node000018_Node000016" class="edge">
<title>Node18&#45;&gt;Node16</title>
<g id="a_edge34_Node000018_Node000016"><a xlink:title=" ">
<path fill="none" stroke="#63b8ff" d="M354.03,-375.83C358.56,-366.89 363.45,-357.24 367.58,-349.07"/>
<polygon fill="#63b8ff" stroke="#63b8ff" points="350.88,-374.29 349.48,-384.79 357.13,-377.46 350.88,-374.29"/>
</a>
</g>
</g>
<!-- Node19&#45;&gt;Node5 -->
<g id="edge40_Node000019_Node000005" class="edge">
<title>Node19&#45;&gt;Node5</title>
<g id="a_edge40_Node000019_Node000005"><a xlink:title=" ">
<path fill="none" stroke="#63b8ff" d="M934.76,-379.09C949.1,-369.32 965.22,-358.32 978.65,-349.17"/>
<polygon fill="#63b8ff" stroke="#63b8ff" points="932.4,-376.47 926.11,-384.99 936.35,-382.25 932.4,-376.47"/>
</a>
</g>
</g>
<!-- Node19&#45;&gt;Node8 -->
<g id="edge41_Node000019_Node000008" class="edge">
<title>Node19&#45;&gt;Node8</title>
<g id="a_edge41_Node000019_Node000008"><a xlink:title=" ">
<path fill="none" stroke="#63b8ff" d="M892.84,-374.98C888.07,-344.76 880.79,-298.64 876.65,-272.47"/>
<polygon fill="#63b8ff" stroke="#63b8ff" points="889.39,-375.61 894.41,-384.94 896.31,-374.52 889.39,-375.61"/>
</a>
</g>
</g>
<!-- Node20&#45;&gt;Node5 -->
<g id="edge43_Node000020_Node000005" class="edge">
<title>Node20&#45;&gt;Node5</title>
<g id="a_edge43_Node000020_Node000005"><a xlink:title=" ">
<path fill="none" stroke="#63b8ff" d="M959.92,-454.11C966.64,-445.55 973.47,-435.77 978.5,-426 991.39,-400.96 999.54,-369.25 1003.81,-349.16"/>
<polygon fill="#63b8ff" stroke="#63b8ff" points="957.17,-451.95 953.56,-461.91 962.59,-456.37 957.17,-451.95"/>
</a>
</g>
</g>
<!-- Node20&#45;&gt;Node19 -->
<g id="edge44_Node000020_Node000019" class="edge">
<title>Node20&#45;&gt;Node19</title>
<g id="a_edge44_Node000020_Node000019"><a xlink:title=" ">
<path fill="none" stroke="#63b8ff" d="M920.97,-452.83C916.44,-443.89 911.55,-434.24 907.42,-426.07"/>
<polygon fill="#63b8ff" stroke="#63b8ff" points="917.87,-454.46 925.52,-461.79 924.12,-451.29 917.87,-454.46"/>
</a>
</g>
</g>
</g>
</svg>
