<?xml version="1.0" encoding="UTF-8" standalone="no"?>
<!DOCTYPE svg PUBLIC "-//W3C//DTD SVG 1.1//EN"
 "http://www.w3.org/Graphics/SVG/1.1/DTD/svg11.dtd">
<!-- Generated by graphviz version 2.43.0 (0)
 -->
<!-- Title: /__w/qugar/qugar/cpp/include/qugar/impl_unfitted_domain.hpp Pages: 1 -->
<svg width="1791pt" height="456pt"
 viewBox="0.00 0.00 1791.00 456.00" xmlns="http://www.w3.org/2000/svg" xmlns:xlink="http://www.w3.org/1999/xlink">
<g id="graph0" class="graph" transform="scale(1 1) rotate(0) translate(4 452)">
<title>/__w/qugar/qugar/cpp/include/qugar/impl_unfitted_domain.hpp</title>
<!-- Node1 -->
<g id="Node000001" class="node">
<title>Node1</title>
<g id="a_Node000001"><a xlink:title="Declaration of of UnfittedImplDomain class.">
<polygon fill="#999999" stroke="#666666" points="1262.5,-448 1109.5,-448 1109.5,-407 1262.5,-407 1262.5,-448"/>
<text text-anchor="start" x="1117.5" y="-436" font-family="Helvetica,sans-Serif" font-size="10.00">/__w/qugar/qugar/cpp</text>
<text text-anchor="start" x="1117.5" y="-425" font-family="Helvetica,sans-Serif" font-size="10.00">/include/qugar/impl_unfitted</text>
<text text-anchor="middle" x="1186" y="-414" font-family="Helvetica,sans-Serif" font-size="10.00">_domain.hpp</text>
</a>
</g>
</g>
<!-- Node2 -->
<g id="Node000002" class="node">
<title>Node2</title>
<g id="a_Node000002"><a xlink:href="../../d5/d90/bbox_8hpp.html" target="_top" xlink:title="Definition of Cartesian bounding box class.">
<polygon fill="white" stroke="#666666" points="341,-189.5 249,-189.5 249,-170.5 341,-170.5 341,-189.5"/>
<text text-anchor="middle" x="295" y="-177.5" font-family="Helvetica,sans-Serif" font-size="10.00">qugar/bbox.hpp</text>
</a>
</g>
</g>
<!-- Node1&#45;&gt;Node2 -->
<g id="edge1_Node000001_Node000002" class="edge">
<title>Node1&#45;&gt;Node2</title>
<g id="a_edge1_Node000001_Node000002"><a xlink:title=" ">
<path fill="none" stroke="#63b8ff" d="M1109.41,-426.65C953.48,-425.94 604.84,-418.85 497,-371 408.56,-331.76 334.49,-237.04 306.73,-198.13"/>
<polygon fill="#63b8ff" stroke="#63b8ff" points="309.29,-195.69 300.69,-189.5 303.56,-199.7 309.29,-195.69"/>
</a>
</g>
</g>
<!-- Node6 -->
<g id="Node000006" class="node">
<title>Node6</title>
<g id="a_Node000006"><a xlink:title=" ">
<polygon fill="#e0e0e0" stroke="#999999" points="1144.5,-19 1091.5,-19 1091.5,0 1144.5,0 1144.5,-19"/>
<text text-anchor="middle" x="1118" y="-7" font-family="Helvetica,sans-Serif" font-size="10.00">cstddef</text>
</a>
</g>
</g>
<!-- Node1&#45;&gt;Node6 -->
<g id="edge67_Node000001_Node000006" class="edge">
<title>Node1&#45;&gt;Node6</title>
<g id="a_edge67_Node000001_Node000006"><a xlink:title=" ">
<path fill="none" stroke="#63b8ff" d="M1262.52,-426.39C1423.61,-424.08 1783,-407.15 1783,-302 1783,-302 1783,-302 1783,-118.5 1783,-40.75 1695.7,-72.72 1620,-55 1449.25,-15.03 1238.16,-10.37 1154.56,-10.23"/>
<polygon fill="#63b8ff" stroke="#63b8ff" points="1154.54,-6.73 1144.54,-10.23 1154.55,-13.73 1154.54,-6.73"/>
</a>
</g>
</g>
<!-- Node9 -->
<g id="Node000009" class="node">
<title>Node9</title>
<g id="a_Node000009"><a xlink:title=" ">
<polygon fill="#e0e0e0" stroke="#999999" points="1316.5,-74 1269.5,-74 1269.5,-55 1316.5,-55 1316.5,-74"/>
<text text-anchor="middle" x="1293" y="-62" font-family="Helvetica,sans-Serif" font-size="10.00">vector</text>
</a>
</g>
</g>
<!-- Node1&#45;&gt;Node9 -->
<g id="edge71_Node000001_Node000009" class="edge">
<title>Node1&#45;&gt;Node9</title>
<g id="a_edge71_Node000001_Node000009"><a xlink:title=" ">
<path fill="none" stroke="#63b8ff" d="M1262.6,-424.02C1407.41,-417.22 1707,-392.27 1707,-302 1707,-302 1707,-302 1707,-239.5 1707,-163.11 1661.03,-146.63 1594,-110 1548.46,-85.12 1395.5,-72.22 1326.85,-67.56"/>
<polygon fill="#63b8ff" stroke="#63b8ff" points="1326.8,-64.05 1316.59,-66.89 1326.34,-71.04 1326.8,-64.05"/>
</a>
</g>
</g>
<!-- Node11 -->
<g id="Node000011" class="node">
<title>Node11</title>
<g id="a_Node000011"><a xlink:title=" ">
<polygon fill="#e0e0e0" stroke="#999999" points="620,-129 578,-129 578,-110 620,-110 620,-129"/>
<text text-anchor="middle" x="599" y="-117" font-family="Helvetica,sans-Serif" font-size="10.00">array</text>
</a>
</g>
</g>
<!-- Node1&#45;&gt;Node11 -->
<g id="edge65_Node000001_Node000011" class="edge">
<title>Node1&#45;&gt;Node11</title>
<g id="a_edge65_Node000001_Node000011"><a xlink:title=" ">
<path fill="none" stroke="#63b8ff" d="M1109.32,-419.74C937.59,-403.58 537,-359.69 537,-302 537,-302 537,-302 537,-239.5 537,-198.99 565.61,-158.6 583.96,-136.86"/>
<polygon fill="#63b8ff" stroke="#63b8ff" points="586.69,-139.07 590.64,-129.24 581.42,-134.46 586.69,-139.07"/>
</a>
</g>
</g>
<!-- Node12 -->
<g id="Node000012" class="node">
<title>Node12</title>
<g id="a_Node000012"><a xlink:href="../../d6/d49/cart__grid__tp_8hpp.html" target="_top" xlink:title="Definition of Cartesian grid class.">
<polygon fill="white" stroke="#666666" points="1079,-250 953,-250 953,-231 1079,-231 1079,-250"/>
<text text-anchor="middle" x="1016" y="-238" font-family="Helvetica,sans-Serif" font-size="10.00">qugar/cart_grid_tp.hpp</text>
</a>
</g>
</g>
<!-- Node1&#45;&gt;Node12 -->
<g id="edge14_Node000001_Node000012" class="edge">
<title>Node1&#45;&gt;Node12</title>
<g id="a_edge14_Node000001_Node000012"><a xlink:title=" ">
<path fill="none" stroke="#63b8ff" d="M1143.55,-406.96C1126.49,-397.72 1107.48,-385.5 1093,-371 1059.39,-337.34 1034.67,-286.15 1023.18,-259.32"/>
<polygon fill="#63b8ff" stroke="#63b8ff" points="1026.38,-257.91 1019.31,-250.03 1019.92,-260.6 1026.38,-257.91"/>
</a>
</g>
</g>
<!-- Node15 -->
<g id="Node000015" class="node">
<title>Node15</title>
<g id="a_Node000015"><a xlink:title=" ">
<polygon fill="#e0e0e0" stroke="#999999" points="1437,-129 1385,-129 1385,-110 1437,-110 1437,-129"/>
<text text-anchor="middle" x="1411" y="-117" font-family="Helvetica,sans-Serif" font-size="10.00">cassert</text>
</a>
</g>
</g>
<!-- Node1&#45;&gt;Node15 -->
<g id="edge66_Node000001_Node000015" class="edge">
<title>Node1&#45;&gt;Node15</title>
<g id="a_edge66_Node000001_Node000015"><a xlink:title=" ">
<path fill="none" stroke="#63b8ff" d="M1262.64,-416.53C1365.71,-401.27 1540.01,-368.25 1574,-316 1622.27,-241.78 1495.16,-163.99 1437.61,-133.68"/>
<polygon fill="#63b8ff" stroke="#63b8ff" points="1439.17,-130.55 1428.68,-129.07 1435.96,-136.77 1439.17,-130.55"/>
</a>
</g>
</g>
<!-- Node17 -->
<g id="Node000017" class="node">
<title>Node17</title>
<g id="a_Node000017"><a xlink:title=" ">
<polygon fill="#e0e0e0" stroke="#999999" points="1568.5,-129 1503.5,-129 1503.5,-110 1568.5,-110 1568.5,-129"/>
<text text-anchor="middle" x="1536" y="-117" font-family="Helvetica,sans-Serif" font-size="10.00">functional</text>
</a>
</g>
</g>
<!-- Node1&#45;&gt;Node17 -->
<g id="edge68_Node000001_Node000017" class="edge">
<title>Node1&#45;&gt;Node17</title>
<g id="a_edge68_Node000001_Node000017"><a xlink:title=" ">
<path fill="none" stroke="#63b8ff" d="M1262.8,-422.6C1330.68,-417.04 1431.3,-403.58 1513,-371 1553.76,-354.74 1572.05,-353.4 1595,-316 1630.29,-258.48 1614.76,-222.23 1579,-165 1572.27,-154.23 1562.59,-143.92 1554.11,-135.94"/>
<polygon fill="#63b8ff" stroke="#63b8ff" points="1556.26,-133.16 1546.49,-129.06 1551.57,-138.36 1556.26,-133.16"/>
</a>
</g>
</g>
<!-- Node21 -->
<g id="Node000021" class="node">
<title>Node21</title>
<g id="a_Node000021"><a xlink:title=" ">
<polygon fill="#e0e0e0" stroke="#999999" points="1261,-189.5 1203,-189.5 1203,-170.5 1261,-170.5 1261,-189.5"/>
<text text-anchor="middle" x="1232" y="-177.5" font-family="Helvetica,sans-Serif" font-size="10.00">memory</text>
</a>
</g>
</g>
<!-- Node1&#45;&gt;Node21 -->
<g id="edge69_Node000001_Node000021" class="edge">
<title>Node1&#45;&gt;Node21</title>
<g id="a_edge69_Node000001_Node000021"><a xlink:title=" ">
<path fill="none" stroke="#63b8ff" d="M1182.39,-406.77C1176.64,-370.49 1168.32,-291.38 1192,-231 1197.02,-218.19 1206.54,-206.08 1215.02,-196.99"/>
<polygon fill="#63b8ff" stroke="#63b8ff" points="1217.55,-199.41 1222.08,-189.83 1212.57,-194.5 1217.55,-199.41"/>
</a>
</g>
</g>
<!-- Node22 -->
<g id="Node000022" class="node">
<title>Node22</title>
<g id="a_Node000022"><a xlink:title=" ">
<polygon fill="#e0e0e0" stroke="#999999" points="697,-189.5 641,-189.5 641,-170.5 697,-170.5 697,-189.5"/>
<text text-anchor="middle" x="669" y="-177.5" font-family="Helvetica,sans-Serif" font-size="10.00">optional</text>
</a>
</g>
</g>
<!-- Node1&#45;&gt;Node22 -->
<g id="edge70_Node000001_Node000022" class="edge">
<title>Node1&#45;&gt;Node22</title>
<g id="a_edge70_Node000001_Node000022"><a xlink:title=" ">
<path fill="none" stroke="#63b8ff" d="M1144.57,-406.82C1042.59,-358.4 781.55,-234.44 696.35,-193.99"/>
<polygon fill="#63b8ff" stroke="#63b8ff" points="697.83,-190.82 687.3,-189.69 694.83,-197.14 697.83,-190.82"/>
</a>
</g>
</g>
<!-- Node23 -->
<g id="Node000023" class="node">
<title>Node23</title>
<g id="a_Node000023"><a xlink:href="../../dc/d7c/domain__function_8hpp.html" target="_top" xlink:title="Declaration of a few implicit functions template class ready to be consumed by Algoim.">
<polygon fill="white" stroke="#666666" points="509,-189.5 359,-189.5 359,-170.5 509,-170.5 509,-189.5"/>
<text text-anchor="middle" x="434" y="-177.5" font-family="Helvetica,sans-Serif" font-size="10.00">qugar/domain_function.hpp</text>
</a>
</g>
</g>
<!-- Node1&#45;&gt;Node23 -->
<g id="edge38_Node000001_Node000023" class="edge">
<title>Node1&#45;&gt;Node23</title>
<g id="a_edge38_Node000001_Node000023"><a xlink:title=" ">
<path fill="none" stroke="#63b8ff" d="M1109.35,-424.36C945.1,-419.18 570.19,-403.85 523,-371 463.96,-329.9 443.04,-239.13 436.57,-199.79"/>
<polygon fill="#63b8ff" stroke="#63b8ff" points="440.01,-199.11 435.05,-189.74 433.08,-200.15 440.01,-199.11"/>
</a>
</g>
</g>
<!-- Node25 -->
<g id="Node000025" class="node">
<title>Node25</title>
<g id="a_Node000025"><a xlink:href="../../d2/dfd/unfitted__domain_8hpp.html" target="_top" xlink:title="Declaration of of UnfittedDomain class.">
<polygon fill="white" stroke="#666666" points="1441,-371 1293,-371 1293,-352 1441,-352 1441,-371"/>
<text text-anchor="middle" x="1367" y="-359" font-family="Helvetica,sans-Serif" font-size="10.00">qugar/unfitted_domain.hpp</text>
</a>
</g>
</g>
<!-- Node1&#45;&gt;Node25 -->
<g id="edge45_Node000001_Node000025" class="edge">
<title>Node1&#45;&gt;Node25</title>
<g id="a_edge45_Node000001_Node000025"><a xlink:title=" ">
<path fill="none" stroke="#63b8ff" d="M1241.29,-406.95C1271.21,-396.37 1307.21,-383.64 1333.01,-374.52"/>
<polygon fill="#63b8ff" stroke="#63b8ff" points="1334.44,-377.73 1342.7,-371.09 1332.11,-371.13 1334.44,-377.73"/>
</a>
</g>
</g>
<!-- Node26 -->
<g id="Node000026" class="node">
<title>Node26</title>
<g id="a_Node000026"><a xlink:href="../../d8/daf/unfitted__domain__binary__part_8hpp.html" target="_top" xlink:title="Declaration of of UnfittedDomain class.">
<polygon fill="white" stroke="#666666" points="1338.5,-316 1211.5,-316 1211.5,-286 1338.5,-286 1338.5,-316"/>
<text text-anchor="start" x="1219.5" y="-304" font-family="Helvetica,sans-Serif" font-size="10.00">qugar/unfitted_domain</text>
<text text-anchor="middle" x="1275" y="-293" font-family="Helvetica,sans-Serif" font-size="10.00">_binary_part.hpp</text>
</a>
</g>
</g>
<!-- Node1&#45;&gt;Node26 -->
<g id="edge64_Node000001_Node000026" class="edge">
<title>Node1&#45;&gt;Node26</title>
<g id="a_edge64_Node000001_Node000026"><a xlink:title=" ">
<path fill="none" stroke="#63b8ff" d="M1200.1,-406.77C1216.1,-384.4 1242.13,-347.99 1258.9,-324.52"/>
<polygon fill="#63b8ff" stroke="#63b8ff" points="1261.87,-326.38 1264.84,-316.21 1256.18,-322.31 1261.87,-326.38"/>
</a>
</g>
</g>
<!-- Node3 -->
<g id="Node000003" class="node">
<title>Node3</title>
<g id="a_Node000003"><a xlink:href="../../d7/dd8/concepts_8hpp.html" target="_top" xlink:title="Declaration of concepts.">
<polygon fill="white" stroke="#666666" points="112,-129 0,-129 0,-110 112,-110 112,-129"/>
<text text-anchor="middle" x="56" y="-117" font-family="Helvetica,sans-Serif" font-size="10.00">qugar/concepts.hpp</text>
</a>
</g>
</g>
<!-- Node2&#45;&gt;Node3 -->
<g id="edge2_Node000002_Node000003" class="edge">
<title>Node2&#45;&gt;Node3</title>
<g id="a_edge2_Node000002_Node000003"><a xlink:title=" ">
<path fill="none" stroke="#63b8ff" d="M260.25,-170.49C218.03,-160.16 146.75,-142.71 100.54,-131.4"/>
<polygon fill="#63b8ff" stroke="#63b8ff" points="101.34,-127.99 90.79,-129.02 99.68,-134.79 101.34,-127.99"/>
</a>
</g>
</g>
<!-- Node4 -->
<g id="Node000004" class="node">
<title>Node4</title>
<g id="a_Node000004"><a xlink:href="../../d0/de4/point_8hpp.html" target="_top" xlink:title="Definition and implementation of Point class.">
<polygon fill="white" stroke="#666666" points="769.5,-129 676.5,-129 676.5,-110 769.5,-110 769.5,-129"/>
<text text-anchor="middle" x="723" y="-117" font-family="Helvetica,sans-Serif" font-size="10.00">qugar/point.hpp</text>
</a>
</g>
</g>
<!-- Node2&#45;&gt;Node4 -->
<g id="edge3_Node000002_Node000004" class="edge">
<title>Node2&#45;&gt;Node4</title>
<g id="a_edge3_Node000002_Node000004"><a xlink:title=" ">
<path fill="none" stroke="#63b8ff" d="M325.68,-170.44C333.56,-168.45 342.06,-166.48 350,-165 409.21,-153.98 577.12,-135.7 666.08,-126.37"/>
<polygon fill="#63b8ff" stroke="#63b8ff" points="666.68,-129.83 676.26,-125.31 665.95,-122.86 666.68,-129.83"/>
</a>
</g>
</g>
<!-- Node5 -->
<g id="Node000005" class="node">
<title>Node5</title>
<g id="a_Node000005"><a xlink:href="../../dd/de3/types_8hpp.html" target="_top" xlink:title="Declaration of types.">
<polygon fill="white" stroke="#666666" points="695.5,-74 600.5,-74 600.5,-55 695.5,-55 695.5,-74"/>
<text text-anchor="middle" x="648" y="-62" font-family="Helvetica,sans-Serif" font-size="10.00">qugar/types.hpp</text>
</a>
</g>
</g>
<!-- Node2&#45;&gt;Node5 -->
<g id="edge10_Node000002_Node000005" class="edge">
<title>Node2&#45;&gt;Node5</title>
<g id="a_edge10_Node000002_Node000005"><a xlink:title=" ">
<path fill="none" stroke="#63b8ff" d="M303.93,-170.38C319.95,-155.47 355.23,-125.01 391,-110 455.92,-82.76 536.78,-72.19 590.27,-68.09"/>
<polygon fill="#63b8ff" stroke="#63b8ff" points="590.54,-71.58 600.26,-67.38 590.04,-64.6 590.54,-71.58"/>
</a>
</g>
</g>
<!-- Node2&#45;&gt;Node6 -->
<g id="edge13_Node000002_Node000006" class="edge">
<title>Node2&#45;&gt;Node6</title>
<g id="a_edge13_Node000002_Node000006"><a xlink:title=" ">
<path fill="none" stroke="#63b8ff" d="M248.75,-172.22C198.57,-163 129.33,-143.67 159,-110 221.15,-39.45 912.92,-16.09 1081.24,-11.44"/>
<polygon fill="#63b8ff" stroke="#63b8ff" points="1081.44,-14.93 1091.34,-11.16 1081.25,-7.93 1081.44,-14.93"/>
</a>
</g>
</g>
<!-- Node10 -->
<g id="Node000010" class="node">
<title>Node10</title>
<g id="a_Node000010"><a xlink:title=" ">
<polygon fill="#e0e0e0" stroke="#999999" points="316,-129 168,-129 168,-110 316,-110 316,-129"/>
<text text-anchor="middle" x="242" y="-117" font-family="Helvetica,sans-Serif" font-size="10.00">algoim/hyperrectangle.hpp</text>
</a>
</g>
</g>
<!-- Node2&#45;&gt;Node10 -->
<g id="edge11_Node000002_Node000010" class="edge">
<title>Node2&#45;&gt;Node10</title>
<g id="a_edge11_Node000002_Node000010"><a xlink:title=" ">
<path fill="none" stroke="#63b8ff" d="M287.18,-170.37C279.19,-161.55 266.61,-147.66 256.74,-136.77"/>
<polygon fill="#63b8ff" stroke="#63b8ff" points="259.16,-134.23 249.85,-129.17 253.97,-138.93 259.16,-134.23"/>
</a>
</g>
</g>
<!-- Node2&#45;&gt;Node11 -->
<g id="edge12_Node000002_Node000011" class="edge">
<title>Node2&#45;&gt;Node11</title>
<g id="a_edge12_Node000002_Node000011"><a xlink:title=" ">
<path fill="none" stroke="#63b8ff" d="M326.9,-170.46C334.45,-168.56 342.49,-166.63 350,-165 428.01,-148.12 520.76,-132.78 568,-125.3"/>
<polygon fill="#63b8ff" stroke="#63b8ff" points="568.58,-128.75 577.91,-123.74 567.49,-121.84 568.58,-128.75"/>
</a>
</g>
</g>
<!-- Node4&#45;&gt;Node5 -->
<g id="edge4_Node000004_Node000005" class="edge">
<title>Node4&#45;&gt;Node5</title>
<g id="a_edge4_Node000004_Node000005"><a xlink:title=" ">
<path fill="none" stroke="#63b8ff" d="M710.95,-109.98C699.54,-101.92 682.17,-89.65 668.57,-80.03"/>
<polygon fill="#63b8ff" stroke="#63b8ff" points="670.46,-77.08 660.27,-74.17 666.42,-82.8 670.46,-77.08"/>
</a>
</g>
</g>
<!-- Node4&#45;&gt;Node6 -->
<g id="edge8_Node000004_Node000006" class="edge">
<title>Node4&#45;&gt;Node6</title>
<g id="a_edge8_Node000004_Node000006"><a xlink:title=" ">
<path fill="none" stroke="#63b8ff" d="M754.33,-109.94C826.62,-90.17 1004.81,-41.45 1081.71,-20.42"/>
<polygon fill="#63b8ff" stroke="#63b8ff" points="1082.71,-23.78 1091.43,-17.76 1080.86,-17.03 1082.71,-23.78"/>
</a>
</g>
</g>
<!-- Node7 -->
<g id="Node000007" class="node">
<title>Node7</title>
<g id="a_Node000007"><a xlink:href="../../da/d16/vector_8hpp.html" target="_top" xlink:title=" ">
<polygon fill="white" stroke="#666666" points="812,-74 714,-74 714,-55 812,-55 812,-74"/>
<text text-anchor="middle" x="763" y="-62" font-family="Helvetica,sans-Serif" font-size="10.00">qugar/vector.hpp</text>
</a>
</g>
</g>
<!-- Node4&#45;&gt;Node7 -->
<g id="edge6_Node000004_Node000007" class="edge">
<title>Node4&#45;&gt;Node7</title>
<g id="a_edge6_Node000004_Node000007"><a xlink:title=" ">
<path fill="none" stroke="#63b8ff" d="M729.61,-109.75C735.26,-102.26 743.54,-91.28 750.45,-82.13"/>
<polygon fill="#63b8ff" stroke="#63b8ff" points="753.29,-84.18 756.52,-74.09 747.7,-79.96 753.29,-84.18"/>
</a>
</g>
</g>
<!-- Node4&#45;&gt;Node9 -->
<g id="edge9_Node000004_Node000009" class="edge">
<title>Node4&#45;&gt;Node9</title>
<g id="a_edge9_Node000004_Node000009"><a xlink:title=" ">
<path fill="none" stroke="#63b8ff" d="M769.65,-114.16C881.38,-103.77 1162.28,-77.65 1259.37,-68.63"/>
<polygon fill="#63b8ff" stroke="#63b8ff" points="1259.86,-72.1 1269.49,-67.69 1259.21,-65.13 1259.86,-72.1"/>
</a>
</g>
</g>
<!-- Node5&#45;&gt;Node6 -->
<g id="edge5_Node000005_Node000006" class="edge">
<title>Node5&#45;&gt;Node6</title>
<g id="a_edge5_Node000005_Node000006"><a xlink:title=" ">
<path fill="none" stroke="#63b8ff" d="M695.57,-56.26C698.76,-55.82 701.92,-55.39 705,-55 843.45,-37.22 1008.65,-20.89 1080.99,-13.98"/>
<polygon fill="#63b8ff" stroke="#63b8ff" points="1081.76,-17.42 1091.38,-12.99 1081.09,-10.45 1081.76,-17.42"/>
</a>
</g>
</g>
<!-- Node8 -->
<g id="Node000008" class="node">
<title>Node8</title>
<g id="a_Node000008"><a xlink:title=" ">
<polygon fill="#e0e0e0" stroke="#999999" points="818,-19 708,-19 708,0 818,0 818,-19"/>
<text text-anchor="middle" x="763" y="-7" font-family="Helvetica,sans-Serif" font-size="10.00">algoim/uvector.hpp</text>
</a>
</g>
</g>
<!-- Node7&#45;&gt;Node8 -->
<g id="edge7_Node000007_Node000008" class="edge">
<title>Node7&#45;&gt;Node8</title>
<g id="a_edge7_Node000007_Node000008"><a xlink:title=" ">
<path fill="none" stroke="#63b8ff" d="M763,-54.75C763,-47.8 763,-37.85 763,-29.13"/>
<polygon fill="#63b8ff" stroke="#63b8ff" points="766.5,-29.09 763,-19.09 759.5,-29.09 766.5,-29.09"/>
</a>
</g>
</g>
<!-- Node12&#45;&gt;Node2 -->
<g id="edge15_Node000012_Node000002" class="edge">
<title>Node12&#45;&gt;Node2</title>
<g id="a_edge15_Node000012_Node000002"><a xlink:title=" ">
<path fill="none" stroke="#63b8ff" d="M952.67,-239.1C833.8,-237.51 569.44,-229.96 350,-195 344.9,-194.19 339.58,-193.12 334.35,-191.94"/>
<polygon fill="#63b8ff" stroke="#63b8ff" points="335.02,-188.5 324.48,-189.56 333.38,-195.3 335.02,-188.5"/>
</a>
</g>
</g>
<!-- Node12&#45;&gt;Node4 -->
<g id="edge16_Node000012_Node000004" class="edge">
<title>Node12&#45;&gt;Node4</title>
<g id="a_edge16_Node000012_Node000004"><a xlink:title=" ">
<path fill="none" stroke="#63b8ff" d="M952.83,-232.22C913.27,-225.97 862.01,-214.73 820,-195 811.41,-190.97 767.51,-156.23 741.8,-135.64"/>
<polygon fill="#63b8ff" stroke="#63b8ff" points="743.85,-132.8 733.86,-129.27 739.47,-138.26 743.85,-132.8"/>
</a>
</g>
</g>
<!-- Node12&#45;&gt;Node5 -->
<g id="edge31_Node000012_Node000005" class="edge">
<title>Node12&#45;&gt;Node5</title>
<g id="a_edge31_Node000012_Node000005"><a xlink:title=" ">
<path fill="none" stroke="#63b8ff" d="M952.94,-236.48C903.14,-232.08 832.96,-221.3 777,-195 758.15,-186.14 758.46,-176.35 741,-165 710.67,-145.28 691.55,-156.46 668,-129 657.3,-116.52 652.32,-98.32 650,-84.6"/>
<polygon fill="#63b8ff" stroke="#63b8ff" points="653.42,-83.79 648.61,-74.35 646.49,-84.73 653.42,-83.79"/>
</a>
</g>
</g>
<!-- Node12&#45;&gt;Node6 -->
<g id="edge33_Node000012_Node000006" class="edge">
<title>Node12&#45;&gt;Node6</title>
<g id="a_edge33_Node000012_Node000006"><a xlink:title=" ">
<path fill="none" stroke="#63b8ff" d="M1029.68,-230.88C1042.95,-222.31 1063.45,-208.53 1080,-195 1084.11,-191.64 1146.92,-133.88 1149,-129 1163.76,-94.45 1143.39,-51.16 1129.34,-27.64"/>
<polygon fill="#63b8ff" stroke="#63b8ff" points="1132.28,-25.73 1124,-19.12 1126.35,-29.45 1132.28,-25.73"/>
</a>
</g>
</g>
<!-- Node12&#45;&gt;Node9 -->
<g id="edge37_Node000012_Node000009" class="edge">
<title>Node12&#45;&gt;Node9</title>
<g id="a_edge37_Node000012_Node000009"><a xlink:title=" ">
<path fill="none" stroke="#63b8ff" d="M1049.48,-230.96C1076.98,-223.33 1116.53,-210.9 1149,-195 1170.59,-184.43 1173.64,-177.78 1194,-165 1220.66,-148.26 1232.67,-151.19 1255,-129 1268.22,-115.86 1278.65,-97.23 1285.22,-83.55"/>
<polygon fill="#63b8ff" stroke="#63b8ff" points="1288.51,-84.77 1289.47,-74.22 1282.14,-81.87 1288.51,-84.77"/>
</a>
</g>
</g>
<!-- Node12&#45;&gt;Node11 -->
<g id="edge32_Node000012_Node000011" class="edge">
<title>Node12&#45;&gt;Node11</title>
<g id="a_edge32_Node000012_Node000011"><a xlink:title=" ">
<path fill="none" stroke="#63b8ff" d="M952.9,-236.83C897.41,-232.67 815.36,-222.06 749,-195 727.42,-186.2 726.43,-176.21 706,-165 681.22,-151.41 651.41,-139.33 629.56,-131.2"/>
<polygon fill="#63b8ff" stroke="#63b8ff" points="630.72,-127.9 620.13,-127.75 628.32,-134.47 630.72,-127.9"/>
</a>
</g>
</g>
<!-- Node13 -->
<g id="Node000013" class="node">
<title>Node13</title>
<g id="a_Node000013"><a xlink:href="../../d9/d43/tensor__index__tp_8hpp.html" target="_top" xlink:title="Declaration of tensor&#45;product index and size related classes.">
<polygon fill="white" stroke="#666666" points="1071,-195 961,-195 961,-165 1071,-165 1071,-195"/>
<text text-anchor="start" x="969" y="-183" font-family="Helvetica,sans-Serif" font-size="10.00">qugar/tensor_index</text>
<text text-anchor="middle" x="1016" y="-172" font-family="Helvetica,sans-Serif" font-size="10.00">_tp.hpp</text>
</a>
</g>
</g>
<!-- Node12&#45;&gt;Node13 -->
<g id="edge17_Node000012_Node000013" class="edge">
<title>Node12&#45;&gt;Node13</title>
<g id="a_edge17_Node000012_Node000013"><a xlink:title=" ">
<path fill="none" stroke="#63b8ff" d="M1016,-230.87C1016,-224.11 1016,-214.35 1016,-205.26"/>
<polygon fill="#63b8ff" stroke="#63b8ff" points="1019.5,-205.11 1016,-195.11 1012.5,-205.11 1019.5,-205.11"/>
</a>
</g>
</g>
<!-- Node16 -->
<g id="Node000016" class="node">
<title>Node16</title>
<g id="a_Node000016"><a xlink:title=" ">
<polygon fill="#e0e0e0" stroke="#999999" points="1246,-129 1196,-129 1196,-110 1246,-110 1246,-129"/>
<text text-anchor="middle" x="1221" y="-117" font-family="Helvetica,sans-Serif" font-size="10.00">cstdint</text>
</a>
</g>
</g>
<!-- Node12&#45;&gt;Node16 -->
<g id="edge34_Node000012_Node000016" class="edge">
<title>Node12&#45;&gt;Node16</title>
<g id="a_edge34_Node000012_Node000016"><a xlink:title=" ">
<path fill="none" stroke="#63b8ff" d="M1037.34,-230.97C1057.35,-222.69 1087.87,-209.29 1113,-195 1145.4,-176.58 1180.5,-151.27 1201.62,-135.4"/>
<polygon fill="#63b8ff" stroke="#63b8ff" points="1203.91,-138.06 1209.76,-129.23 1199.68,-132.48 1203.91,-138.06"/>
</a>
</g>
</g>
<!-- Node19 -->
<g id="Node000019" class="node">
<title>Node19</title>
<g id="a_Node000019"><a xlink:href="../../d0/d55/tolerance_8hpp.html" target="_top" xlink:title="Definition of tolerance related functionalities.">
<polygon fill="white" stroke="#666666" points="943,-189.5 829,-189.5 829,-170.5 943,-170.5 943,-189.5"/>
<text text-anchor="middle" x="886" y="-177.5" font-family="Helvetica,sans-Serif" font-size="10.00">qugar/tolerance.hpp</text>
</a>
</g>
</g>
<!-- Node12&#45;&gt;Node19 -->
<g id="edge26_Node000012_Node000019" class="edge">
<title>Node12&#45;&gt;Node19</title>
<g id="a_edge26_Node000012_Node000019"><a xlink:title=" ">
<path fill="none" stroke="#63b8ff" d="M997.1,-230.99C975.34,-221.2 939.38,-205.02 914.29,-193.73"/>
<polygon fill="#63b8ff" stroke="#63b8ff" points="915.48,-190.43 904.93,-189.52 912.61,-196.81 915.48,-190.43"/>
</a>
</g>
</g>
<!-- Node12&#45;&gt;Node21 -->
<g id="edge35_Node000012_Node000021" class="edge">
<title>Node12&#45;&gt;Node21</title>
<g id="a_edge35_Node000012_Node000021"><a xlink:title=" ">
<path fill="none" stroke="#63b8ff" d="M1051.96,-230.95C1087.08,-222.44 1141.95,-208.69 1189,-195 1191.6,-194.24 1194.27,-193.44 1196.96,-192.61"/>
<polygon fill="#63b8ff" stroke="#63b8ff" points="1198.14,-195.91 1206.62,-189.56 1196.03,-189.23 1198.14,-195.91"/>
</a>
</g>
</g>
<!-- Node12&#45;&gt;Node22 -->
<g id="edge36_Node000012_Node000022" class="edge">
<title>Node12&#45;&gt;Node22</title>
<g id="a_edge36_Node000012_Node000022"><a xlink:title=" ">
<path fill="none" stroke="#63b8ff" d="M952.88,-233.59C890.77,-227 793.52,-214.61 711,-195 708.03,-194.29 704.97,-193.47 701.92,-192.58"/>
<polygon fill="#63b8ff" stroke="#63b8ff" points="702.92,-189.23 692.33,-189.59 700.84,-195.91 702.92,-189.23"/>
</a>
</g>
</g>
<!-- Node13&#45;&gt;Node6 -->
<g id="edge22_Node000013_Node000006" class="edge">
<title>Node13&#45;&gt;Node6</title>
<g id="a_edge22_Node000013_Node000006"><a xlink:title=" ">
<path fill="none" stroke="#63b8ff" d="M1024.52,-164.92C1043.09,-134.26 1087.14,-61.48 1107.43,-27.96"/>
<polygon fill="#63b8ff" stroke="#63b8ff" points="1110.52,-29.62 1112.7,-19.25 1104.53,-26 1110.52,-29.62"/>
</a>
</g>
</g>
<!-- Node13&#45;&gt;Node7 -->
<g id="edge19_Node000013_Node000007" class="edge">
<title>Node13&#45;&gt;Node7</title>
<g id="a_edge19_Node000013_Node000007"><a xlink:title=" ">
<path fill="none" stroke="#63b8ff" d="M1019.53,-164.91C1022.48,-149.43 1024.34,-124.82 1011,-110 986.45,-82.72 887.56,-72.09 822.32,-67.99"/>
<polygon fill="#63b8ff" stroke="#63b8ff" points="822.34,-64.49 812.15,-67.39 821.93,-71.48 822.34,-64.49"/>
</a>
</g>
</g>
<!-- Node13&#45;&gt;Node11 -->
<g id="edge20_Node000013_Node000011" class="edge">
<title>Node13&#45;&gt;Node11</title>
<g id="a_edge20_Node000013_Node000011"><a xlink:title=" ">
<path fill="none" stroke="#63b8ff" d="M960.9,-166.62C957.9,-166.05 954.91,-165.5 952,-165 936.2,-162.28 713.78,-134.7 630.33,-124.37"/>
<polygon fill="#63b8ff" stroke="#63b8ff" points="630.54,-120.87 620.19,-123.12 629.68,-127.82 630.54,-120.87"/>
</a>
</g>
</g>
<!-- Node14 -->
<g id="Node000014" class="node">
<title>Node14</title>
<g id="a_Node000014"><a xlink:title=" ">
<polygon fill="#e0e0e0" stroke="#999999" points="1140,-129 1096,-129 1096,-110 1140,-110 1140,-129"/>
<text text-anchor="middle" x="1118" y="-117" font-family="Helvetica,sans-Serif" font-size="10.00">limits</text>
</a>
</g>
</g>
<!-- Node13&#45;&gt;Node14 -->
<g id="edge18_Node000013_Node000014" class="edge">
<title>Node13&#45;&gt;Node14</title>
<g id="a_edge18_Node000013_Node000014"><a xlink:title=" ">
<path fill="none" stroke="#63b8ff" d="M1040.43,-164.99C1056.69,-155.66 1077.95,-143.47 1094.1,-134.21"/>
<polygon fill="#63b8ff" stroke="#63b8ff" points="1096,-137.15 1102.94,-129.14 1092.52,-131.08 1096,-137.15"/>
</a>
</g>
</g>
<!-- Node13&#45;&gt;Node15 -->
<g id="edge21_Node000013_Node000015" class="edge">
<title>Node13&#45;&gt;Node15</title>
<g id="a_edge21_Node000013_Node000015"><a xlink:title=" ">
<path fill="none" stroke="#63b8ff" d="M1071.34,-170.8C1153.54,-158.63 1305.62,-136.11 1374.91,-125.84"/>
<polygon fill="#63b8ff" stroke="#63b8ff" points="1375.53,-129.29 1384.91,-124.36 1374.5,-122.37 1375.53,-129.29"/>
</a>
</g>
</g>
<!-- Node13&#45;&gt;Node16 -->
<g id="edge23_Node000013_Node000016" class="edge">
<title>Node13&#45;&gt;Node16</title>
<g id="a_edge23_Node000013_Node000016"><a xlink:title=" ">
<path fill="none" stroke="#63b8ff" d="M1065.1,-164.99C1102.46,-154.33 1152.94,-139.92 1186.21,-130.43"/>
<polygon fill="#63b8ff" stroke="#63b8ff" points="1187.29,-133.76 1195.95,-127.65 1185.37,-127.03 1187.29,-133.76"/>
</a>
</g>
</g>
<!-- Node13&#45;&gt;Node17 -->
<g id="edge24_Node000013_Node000017" class="edge">
<title>Node13&#45;&gt;Node17</title>
<g id="a_edge24_Node000013_Node000017"><a xlink:title=" ">
<path fill="none" stroke="#63b8ff" d="M1071.16,-172.79C1175.46,-161.06 1399.54,-135.85 1493.34,-125.3"/>
<polygon fill="#63b8ff" stroke="#63b8ff" points="1493.78,-128.77 1503.32,-124.18 1492.99,-121.82 1493.78,-128.77"/>
</a>
</g>
</g>
<!-- Node18 -->
<g id="Node000018" class="node">
<title>Node18</title>
<g id="a_Node000018"><a xlink:title=" ">
<polygon fill="#e0e0e0" stroke="#999999" points="1001.5,-129 932.5,-129 932.5,-110 1001.5,-110 1001.5,-129"/>
<text text-anchor="middle" x="967" y="-117" font-family="Helvetica,sans-Serif" font-size="10.00">type_traits</text>
</a>
</g>
</g>
<!-- Node13&#45;&gt;Node18 -->
<g id="edge25_Node000013_Node000018" class="edge">
<title>Node13&#45;&gt;Node18</title>
<g id="a_edge25_Node000013_Node000018"><a xlink:title=" ">
<path fill="none" stroke="#63b8ff" d="M1004.14,-164.84C997.1,-156.43 988.14,-145.74 980.79,-136.96"/>
<polygon fill="#63b8ff" stroke="#63b8ff" points="983.45,-134.68 974.34,-129.27 978.08,-139.18 983.45,-134.68"/>
</a>
</g>
</g>
<!-- Node19&#45;&gt;Node4 -->
<g id="edge27_Node000019_Node000004" class="edge">
<title>Node19&#45;&gt;Node4</title>
<g id="a_edge27_Node000019_Node000004"><a xlink:title=" ">
<path fill="none" stroke="#63b8ff" d="M862.3,-170.49C834.41,-160.49 787.93,-143.8 756.4,-132.49"/>
<polygon fill="#63b8ff" stroke="#63b8ff" points="757.32,-129.1 746.73,-129.02 754.96,-135.69 757.32,-129.1"/>
</a>
</g>
</g>
<!-- Node19&#45;&gt;Node5 -->
<g id="edge28_Node000019_Node000005" class="edge">
<title>Node19&#45;&gt;Node5</title>
<g id="a_edge28_Node000019_Node000005"><a xlink:title=" ">
<path fill="none" stroke="#63b8ff" d="M874.68,-170.36C855.73,-156.21 816.02,-127.89 779,-110 750.23,-96.1 716,-84.63 689.74,-76.82"/>
<polygon fill="#63b8ff" stroke="#63b8ff" points="690.67,-73.45 680.09,-74.01 688.71,-80.17 690.67,-73.45"/>
</a>
</g>
</g>
<!-- Node19&#45;&gt;Node9 -->
<g id="edge30_Node000019_Node000009" class="edge">
<title>Node19&#45;&gt;Node9</title>
<g id="a_edge30_Node000019_Node000009"><a xlink:title=" ">
<path fill="none" stroke="#63b8ff" d="M888.11,-170.03C892.19,-154.85 902.69,-124.38 924,-110 978.32,-73.34 1178.76,-66.84 1259.24,-65.72"/>
<polygon fill="#63b8ff" stroke="#63b8ff" points="1259.37,-69.22 1269.33,-65.6 1259.28,-62.22 1259.37,-69.22"/>
</a>
</g>
</g>
<!-- Node20 -->
<g id="Node000020" class="node">
<title>Node20</title>
<g id="a_Node000020"><a xlink:title=" ">
<polygon fill="#e0e0e0" stroke="#999999" points="875.5,-129 826.5,-129 826.5,-110 875.5,-110 875.5,-129"/>
<text text-anchor="middle" x="851" y="-117" font-family="Helvetica,sans-Serif" font-size="10.00">cstdlib</text>
</a>
</g>
</g>
<!-- Node19&#45;&gt;Node20 -->
<g id="edge29_Node000019_Node000020" class="edge">
<title>Node19&#45;&gt;Node20</title>
<g id="a_edge29_Node000019_Node000020"><a xlink:title=" ">
<path fill="none" stroke="#63b8ff" d="M880.84,-170.37C875.77,-161.9 867.9,-148.74 861.51,-138.07"/>
<polygon fill="#63b8ff" stroke="#63b8ff" points="864.32,-135.95 856.19,-129.17 858.32,-139.55 864.32,-135.95"/>
</a>
</g>
</g>
<!-- Node23&#45;&gt;Node4 -->
<g id="edge40_Node000023_Node000004" class="edge">
<title>Node23&#45;&gt;Node4</title>
<g id="a_edge40_Node000023_Node000004"><a xlink:title=" ">
<path fill="none" stroke="#63b8ff" d="M476.02,-170.49C527.6,-160.05 615.08,-142.35 670.89,-131.05"/>
<polygon fill="#63b8ff" stroke="#63b8ff" points="671.82,-134.43 680.93,-129.02 670.43,-127.57 671.82,-134.43"/>
</a>
</g>
</g>
<!-- Node23&#45;&gt;Node5 -->
<g id="edge39_Node000023_Node000005" class="edge">
<title>Node23&#45;&gt;Node5</title>
<g id="a_edge39_Node000023_Node000005"><a xlink:title=" ">
<path fill="none" stroke="#63b8ff" d="M450.88,-170.44C470.28,-160.56 503.03,-143.8 531,-129 563.14,-112 599.96,-91.91 623.58,-78.95"/>
<polygon fill="#63b8ff" stroke="#63b8ff" points="625.46,-81.91 632.54,-74.03 622.09,-75.78 625.46,-81.91"/>
</a>
</g>
</g>
<!-- Node23&#45;&gt;Node7 -->
<g id="edge41_Node000023_Node000007" class="edge">
<title>Node23&#45;&gt;Node7</title>
<g id="a_edge41_Node000023_Node000007"><a xlink:title=" ">
<path fill="none" stroke="#63b8ff" d="M424.27,-170.49C409.45,-156.52 384.59,-128.46 401,-110 444.33,-61.23 622.11,-81.11 704,-73.87"/>
<polygon fill="#63b8ff" stroke="#63b8ff" points="704.4,-77.35 713.97,-72.78 703.65,-70.39 704.4,-77.35"/>
</a>
</g>
</g>
<!-- Node23&#45;&gt;Node16 -->
<g id="edge43_Node000023_Node000016" class="edge">
<title>Node23&#45;&gt;Node16</title>
<g id="a_edge43_Node000023_Node000016"><a xlink:title=" ">
<path fill="none" stroke="#63b8ff" d="M509.22,-173.66C546.2,-171.04 591.44,-167.85 632,-165 861.77,-148.88 919.67,-150.51 1149,-129 1160.9,-127.88 1173.87,-126.43 1185.49,-125.03"/>
<polygon fill="#63b8ff" stroke="#63b8ff" points="1186.21,-128.47 1195.71,-123.79 1185.36,-121.53 1186.21,-128.47"/>
</a>
</g>
</g>
<!-- Node23&#45;&gt;Node18 -->
<g id="edge44_Node000023_Node000018" class="edge">
<title>Node23&#45;&gt;Node18</title>
<g id="a_edge44_Node000023_Node000018"><a xlink:title=" ">
<path fill="none" stroke="#63b8ff" d="M509.24,-170.74C621.83,-158.38 830.7,-135.46 922.15,-125.42"/>
<polygon fill="#63b8ff" stroke="#63b8ff" points="922.63,-128.89 932.19,-124.32 921.87,-121.93 922.63,-128.89"/>
</a>
</g>
</g>
<!-- Node24 -->
<g id="Node000024" class="node">
<title>Node24</title>
<g id="a_Node000024"><a xlink:title=" ">
<polygon fill="#e0e0e0" stroke="#999999" points="522,-129 410,-129 410,-110 522,-110 522,-129"/>
<text text-anchor="middle" x="466" y="-117" font-family="Helvetica,sans-Serif" font-size="10.00">algoim/interval.hpp</text>
</a>
</g>
</g>
<!-- Node23&#45;&gt;Node24 -->
<g id="edge42_Node000023_Node000024" class="edge">
<title>Node23&#45;&gt;Node24</title>
<g id="a_edge42_Node000023_Node000024"><a xlink:title=" ">
<path fill="none" stroke="#63b8ff" d="M438.72,-170.37C443.35,-161.9 450.55,-148.74 456.39,-138.07"/>
<polygon fill="#63b8ff" stroke="#63b8ff" points="459.53,-139.62 461.26,-129.17 453.39,-136.26 459.53,-139.62"/>
</a>
</g>
</g>
<!-- Node25&#45;&gt;Node6 -->
<g id="edge58_Node000025_Node000006" class="edge">
<title>Node25&#45;&gt;Node6</title>
<g id="a_edge58_Node000025_Node000006"><a xlink:title=" ">
<path fill="none" stroke="#63b8ff" d="M1441.23,-352.4C1551.31,-338.3 1745,-304.54 1745,-241.5 1745,-241.5 1745,-241.5 1745,-118.5 1745,-58.21 1288.92,-22.2 1154.72,-12.91"/>
<polygon fill="#63b8ff" stroke="#63b8ff" points="1154.76,-9.4 1144.54,-12.21 1154.28,-16.39 1154.76,-9.4"/>
</a>
</g>
</g>
<!-- Node25&#45;&gt;Node9 -->
<g id="edge63_Node000025_Node000009" class="edge">
<title>Node25&#45;&gt;Node9</title>
<g id="a_edge63_Node000025_Node000009"><a xlink:title=" ">
<path fill="none" stroke="#63b8ff" d="M1378.34,-351.75C1427.67,-313.19 1619.32,-158.27 1578,-110 1546.01,-72.62 1395.23,-66.41 1326.86,-65.54"/>
<polygon fill="#63b8ff" stroke="#63b8ff" points="1326.66,-62.03 1316.62,-65.44 1326.59,-69.03 1326.66,-62.03"/>
</a>
</g>
</g>
<!-- Node25&#45;&gt;Node11 -->
<g id="edge56_Node000025_Node000011" class="edge">
<title>Node25&#45;&gt;Node11</title>
<g id="a_edge56_Node000025_Node000011"><a xlink:title=" ">
<path fill="none" stroke="#63b8ff" d="M1292.89,-356.06C1168.83,-346.88 912.57,-320.42 708,-250 659.3,-233.24 634.44,-237.94 606,-195 595.15,-178.61 594.68,-155.58 596.11,-139.47"/>
<polygon fill="#63b8ff" stroke="#63b8ff" points="599.63,-139.52 597.36,-129.17 592.68,-138.67 599.63,-139.52"/>
</a>
</g>
</g>
<!-- Node25&#45;&gt;Node12 -->
<g id="edge46_Node000025_Node000012" class="edge">
<title>Node25&#45;&gt;Node12</title>
<g id="a_edge46_Node000025_Node000012"><a xlink:title=" ">
<path fill="none" stroke="#63b8ff" d="M1313.54,-351.96C1273.15,-344.68 1216.71,-332.72 1169,-316 1121.2,-299.25 1068.8,-271.52 1039.4,-255.03"/>
<polygon fill="#63b8ff" stroke="#63b8ff" points="1041.13,-251.98 1030.7,-250.1 1037.68,-258.07 1041.13,-251.98"/>
</a>
</g>
</g>
<!-- Node25&#45;&gt;Node15 -->
<g id="edge57_Node000025_Node000015" class="edge">
<title>Node25&#45;&gt;Node15</title>
<g id="a_edge57_Node000025_Node000015"><a xlink:title=" ">
<path fill="none" stroke="#63b8ff" d="M1372.52,-351.78C1383.61,-333.68 1408.3,-290.34 1417,-250 1425.35,-211.27 1419.38,-164.57 1414.84,-139.17"/>
<polygon fill="#63b8ff" stroke="#63b8ff" points="1418.23,-138.27 1412.9,-129.11 1411.35,-139.59 1418.23,-138.27"/>
</a>
</g>
</g>
<!-- Node25&#45;&gt;Node16 -->
<g id="edge59_Node000025_Node000016" class="edge">
<title>Node25&#45;&gt;Node16</title>
<g id="a_edge59_Node000025_Node000016"><a xlink:title=" ">
<path fill="none" stroke="#63b8ff" d="M1365.57,-351.61C1360.39,-321.81 1340.04,-224.05 1288,-165 1276.82,-152.32 1261.23,-141.68 1247.9,-133.99"/>
<polygon fill="#63b8ff" stroke="#63b8ff" points="1249.57,-130.91 1239.12,-129.14 1246.19,-137.04 1249.57,-130.91"/>
</a>
</g>
</g>
<!-- Node25&#45;&gt;Node17 -->
<g id="edge60_Node000025_Node000017" class="edge">
<title>Node25&#45;&gt;Node17</title>
<g id="a_edge60_Node000025_Node000017"><a xlink:title=" ">
<path fill="none" stroke="#63b8ff" d="M1441.1,-354.29C1493.51,-348.17 1557.31,-336.66 1574,-316 1617.08,-262.67 1570.63,-174.67 1547.49,-137.7"/>
<polygon fill="#63b8ff" stroke="#63b8ff" points="1550.29,-135.58 1541.93,-129.07 1544.41,-139.37 1550.29,-135.58"/>
</a>
</g>
</g>
<!-- Node25&#45;&gt;Node21 -->
<g id="edge61_Node000025_Node000021" class="edge">
<title>Node25&#45;&gt;Node21</title>
<g id="a_edge61_Node000025_Node000021"><a xlink:title=" ">
<path fill="none" stroke="#63b8ff" d="M1306.84,-351.94C1265.49,-344.68 1215.81,-332.76 1203,-316 1176.03,-280.74 1203.25,-225.86 1220.37,-198.19"/>
<polygon fill="#63b8ff" stroke="#63b8ff" points="1223.43,-199.91 1225.91,-189.61 1217.54,-196.12 1223.43,-199.91"/>
</a>
</g>
</g>
<!-- Node25&#45;&gt;Node26 -->
<g id="edge47_Node000025_Node000026" class="edge">
<title>Node25&#45;&gt;Node26</title>
<g id="a_edge47_Node000025_Node000026"><a xlink:title=" ">
<path fill="none" stroke="#63b8ff" d="M1353.43,-351.87C1340.94,-343.93 1321.98,-331.87 1305.82,-321.6"/>
<polygon fill="#63b8ff" stroke="#63b8ff" points="1307.51,-318.53 1297.2,-316.11 1303.76,-324.43 1307.51,-318.53"/>
</a>
</g>
</g>
<!-- Node27 -->
<g id="Node000027" class="node">
<title>Node27</title>
<g id="a_Node000027"><a xlink:title=" ">
<polygon fill="#e0e0e0" stroke="#999999" points="1564.5,-310.5 1471.5,-310.5 1471.5,-291.5 1564.5,-291.5 1564.5,-310.5"/>
<text text-anchor="middle" x="1518" y="-298.5" font-family="Helvetica,sans-Serif" font-size="10.00">unordered_map</text>
</a>
</g>
</g>
<!-- Node25&#45;&gt;Node27 -->
<g id="edge62_Node000025_Node000027" class="edge">
<title>Node25&#45;&gt;Node27</title>
<g id="a_edge62_Node000025_Node000027"><a xlink:title=" ">
<path fill="none" stroke="#63b8ff" d="M1388.96,-351.99C1414.68,-342.03 1457.48,-325.45 1486.68,-314.13"/>
<polygon fill="#63b8ff" stroke="#63b8ff" points="1487.96,-317.39 1496.02,-310.52 1485.43,-310.87 1487.96,-317.39"/>
</a>
</g>
</g>
<!-- Node26&#45;&gt;Node6 -->
<g id="edge51_Node000026_Node000006" class="edge">
<title>Node26&#45;&gt;Node6</title>
<g id="a_edge51_Node000026_Node000006"><a xlink:title=" ">
<path fill="none" stroke="#63b8ff" d="M1338.93,-287.14C1448.18,-262.35 1652.19,-202.13 1578,-110 1524.72,-43.84 1254.54,-19.51 1154.94,-12.71"/>
<polygon fill="#63b8ff" stroke="#63b8ff" points="1154.96,-9.2 1144.75,-12.03 1154.5,-16.19 1154.96,-9.2"/>
</a>
</g>
</g>
<!-- Node26&#45;&gt;Node9 -->
<g id="edge55_Node000026_Node000009" class="edge">
<title>Node26&#45;&gt;Node9</title>
<g id="a_edge55_Node000026_Node000009"><a xlink:title=" ">
<path fill="none" stroke="#63b8ff" d="M1282.85,-285.61C1287.7,-275.88 1293.47,-262.55 1296,-250 1308,-190.44 1300.57,-117.88 1295.92,-84.26"/>
<polygon fill="#63b8ff" stroke="#63b8ff" points="1299.34,-83.46 1294.42,-74.08 1292.41,-84.48 1299.34,-83.46"/>
</a>
</g>
</g>
<!-- Node26&#45;&gt;Node11 -->
<g id="edge49_Node000026_Node000011" class="edge">
<title>Node26&#45;&gt;Node11</title>
<g id="a_edge49_Node000026_Node000011"><a xlink:title=" ">
<path fill="none" stroke="#63b8ff" d="M1211.38,-297.26C1067.28,-289.87 721.57,-265.11 632,-195 614.46,-181.27 606.01,-156.23 602.1,-139"/>
<polygon fill="#63b8ff" stroke="#63b8ff" points="605.5,-138.14 600.15,-129 598.63,-139.49 605.5,-138.14"/>
</a>
</g>
</g>
<!-- Node26&#45;&gt;Node12 -->
<g id="edge48_Node000026_Node000012" class="edge">
<title>Node26&#45;&gt;Node12</title>
<g id="a_edge48_Node000026_Node000012"><a xlink:title=" ">
<path fill="none" stroke="#63b8ff" d="M1212.96,-285.99C1167.2,-275.65 1105.84,-261.79 1063.84,-252.31"/>
<polygon fill="#63b8ff" stroke="#63b8ff" points="1064.4,-248.84 1053.87,-250.05 1062.85,-255.67 1064.4,-248.84"/>
</a>
</g>
</g>
<!-- Node26&#45;&gt;Node15 -->
<g id="edge50_Node000026_Node000015" class="edge">
<title>Node26&#45;&gt;Node15</title>
<g id="a_edge50_Node000026_Node000015"><a xlink:title=" ">
<path fill="none" stroke="#63b8ff" d="M1298.38,-285.89C1312,-276.86 1328.83,-264.18 1341,-250 1370.98,-215.05 1393.43,-165.15 1404.11,-138.65"/>
<polygon fill="#63b8ff" stroke="#63b8ff" points="1407.45,-139.72 1407.83,-129.14 1400.93,-137.17 1407.45,-139.72"/>
</a>
</g>
</g>
<!-- Node26&#45;&gt;Node16 -->
<g id="edge52_Node000026_Node000016" class="edge">
<title>Node26&#45;&gt;Node16</title>
<g id="a_edge52_Node000026_Node000016"><a xlink:title=" ">
<path fill="none" stroke="#63b8ff" d="M1277.92,-285.76C1282.44,-260.2 1288.79,-205.41 1270,-165 1264.38,-152.91 1253.79,-142.64 1243.89,-135.02"/>
<polygon fill="#63b8ff" stroke="#63b8ff" points="1245.68,-132 1235.51,-129.03 1241.61,-137.69 1245.68,-132"/>
</a>
</g>
</g>
<!-- Node26&#45;&gt;Node17 -->
<g id="edge53_Node000026_Node000017" class="edge">
<title>Node26&#45;&gt;Node17</title>
<g id="a_edge53_Node000026_Node000017"><a xlink:title=" ">
<path fill="none" stroke="#63b8ff" d="M1301.04,-285.85C1318.33,-276.21 1341.38,-262.91 1361,-250 1419.88,-211.27 1485.83,-160.25 1517.31,-135.4"/>
<polygon fill="#63b8ff" stroke="#63b8ff" points="1519.58,-138.07 1525.25,-129.11 1515.23,-132.58 1519.58,-138.07"/>
</a>
</g>
</g>
<!-- Node26&#45;&gt;Node21 -->
<g id="edge54_Node000026_Node000021" class="edge">
<title>Node26&#45;&gt;Node21</title>
<g id="a_edge54_Node000026_Node000021"><a xlink:title=" ">
<path fill="none" stroke="#63b8ff" d="M1269.9,-285.88C1262.1,-264.31 1247.23,-223.15 1238.62,-199.31"/>
<polygon fill="#63b8ff" stroke="#63b8ff" points="1241.84,-197.93 1235.15,-189.71 1235.25,-200.31 1241.84,-197.93"/>
</a>
</g>
</g>
</g>
</svg>
