<?xml version="1.0" encoding="UTF-8" standalone="no"?>
<!DOCTYPE svg PUBLIC "-//W3C//DTD SVG 1.1//EN"
 "http://www.w3.org/Graphics/SVG/1.1/DTD/svg11.dtd">
<!-- Generated by graphviz version 2.43.0 (0)
 -->
<!-- Title: /__w/qugar/qugar/cpp/include/qugar/polynomial_tp.hpp Pages: 1 -->
<svg width="461pt" height="357pt"
 viewBox="0.00 0.00 461.00 357.00" xmlns="http://www.w3.org/2000/svg" xmlns:xlink="http://www.w3.org/1999/xlink">
<g id="graph0" class="graph" transform="scale(1 1) rotate(0) translate(4 353)">
<title>/__w/qugar/qugar/cpp/include/qugar/polynomial_tp.hpp</title>
<!-- Node1 -->
<g id="Node000001" class="node">
<title>Node1</title>
<g id="a_Node000001"><a xlink:title="Declaration of tensor&#45;product polynomial class.">
<polygon fill="#999999" stroke="#666666" points="369.5,-349 226.5,-349 226.5,-308 369.5,-308 369.5,-349"/>
<text text-anchor="start" x="234.5" y="-337" font-family="Helvetica,sans-Serif" font-size="10.00">/__w/qugar/qugar/cpp</text>
<text text-anchor="start" x="234.5" y="-326" font-family="Helvetica,sans-Serif" font-size="10.00">/include/qugar/polynomial</text>
<text text-anchor="middle" x="298" y="-315" font-family="Helvetica,sans-Serif" font-size="10.00">_tp.hpp</text>
</a>
</g>
</g>
<!-- Node2 -->
<g id="Node000002" class="node">
<title>Node2</title>
<g id="a_Node000002"><a xlink:href="../../d2/d6e/bezier__tp_8hpp.html" target="_top" xlink:title="Declaration of tensor&#45;product Bezier class.">
<polygon fill="white" stroke="#666666" points="308,-195 188,-195 188,-154 308,-154 308,-195"/>
<text text-anchor="start" x="196" y="-183" font-family="Helvetica,sans-Serif" font-size="10.00">/__w/qugar/qugar/cpp</text>
<text text-anchor="start" x="196" y="-172" font-family="Helvetica,sans-Serif" font-size="10.00">/include/qugar/bezier</text>
<text text-anchor="middle" x="248" y="-161" font-family="Helvetica,sans-Serif" font-size="10.00">_tp.hpp</text>
</a>
</g>
</g>
<!-- Node1&#45;&gt;Node2 -->
<g id="edge1_Node000001_Node000002" class="edge">
<title>Node1&#45;&gt;Node2</title>
<g id="a_edge1_Node000001_Node000002"><a xlink:title=" ">
<path fill="none" stroke="#63b8ff" d="M280.6,-299.11C275.97,-290.63 271.34,-281.14 268,-272 258.61,-246.28 253.15,-215.02 250.37,-195.18"/>
<polygon fill="#63b8ff" stroke="#63b8ff" points="277.59,-300.89 285.56,-307.86 283.68,-297.44 277.59,-300.89"/>
</a>
</g>
</g>
<!-- Node7 -->
<g id="Node000007" class="node">
<title>Node7</title>
<g id="a_Node000007"><a xlink:href="../../d6/d82/monomials__tp_8hpp.html" target="_top" xlink:title="Declaration of tensor&#45;product monomials class.">
<polygon fill="white" stroke="#666666" points="419.5,-272 276.5,-272 276.5,-231 419.5,-231 419.5,-272"/>
<text text-anchor="start" x="284.5" y="-260" font-family="Helvetica,sans-Serif" font-size="10.00">/__w/qugar/qugar/cpp</text>
<text text-anchor="start" x="284.5" y="-249" font-family="Helvetica,sans-Serif" font-size="10.00">/include/qugar/monomials</text>
<text text-anchor="middle" x="348" y="-238" font-family="Helvetica,sans-Serif" font-size="10.00">_tp.hpp</text>
</a>
</g>
</g>
<!-- Node1&#45;&gt;Node7 -->
<g id="edge6_Node000001_Node000007" class="edge">
<title>Node1&#45;&gt;Node7</title>
<g id="a_edge6_Node000001_Node000007"><a xlink:title=" ">
<path fill="none" stroke="#63b8ff" d="M316.74,-299.39C322.8,-290.3 329.39,-280.41 334.95,-272.07"/>
<polygon fill="#63b8ff" stroke="#63b8ff" points="313.77,-297.53 311.14,-307.79 319.6,-301.42 313.77,-297.53"/>
</a>
</g>
</g>
<!-- Node3 -->
<g id="Node000003" class="node">
<title>Node3</title>
<g id="a_Node000003"><a xlink:href="../../de/d62/bezier__tp__utils_8hpp.html" target="_top" xlink:title="Declaration of tensor&#45;product Bezier utils.">
<polygon fill="white" stroke="#666666" points="120,-118 0,-118 0,-77 120,-77 120,-118"/>
<text text-anchor="start" x="8" y="-106" font-family="Helvetica,sans-Serif" font-size="10.00">/__w/qugar/qugar/cpp</text>
<text text-anchor="start" x="8" y="-95" font-family="Helvetica,sans-Serif" font-size="10.00">/include/qugar/bezier</text>
<text text-anchor="middle" x="60" y="-84" font-family="Helvetica,sans-Serif" font-size="10.00">_tp_utils.hpp</text>
</a>
</g>
</g>
<!-- Node2&#45;&gt;Node3 -->
<g id="edge2_Node000002_Node000003" class="edge">
<title>Node2&#45;&gt;Node3</title>
<g id="a_edge2_Node000002_Node000003"><a xlink:title=" ">
<path fill="none" stroke="#63b8ff" d="M189.76,-150.27C163.86,-139.94 133.71,-127.9 108.99,-118.04"/>
<polygon fill="#63b8ff" stroke="#63b8ff" points="188.51,-153.54 199.1,-153.99 191.1,-147.03 188.51,-153.54"/>
</a>
</g>
</g>
<!-- Node4 -->
<g id="Node000004" class="node">
<title>Node4</title>
<g id="a_Node000004"><a xlink:href="../../d6/d87/impl__reparam__bezier_8hpp.html" target="_top" xlink:title="Declaration of tools for creating Bezier reparameterizations.">
<polygon fill="white" stroke="#666666" points="295.5,-118 138.5,-118 138.5,-77 295.5,-77 295.5,-118"/>
<text text-anchor="start" x="146.5" y="-106" font-family="Helvetica,sans-Serif" font-size="10.00">/__w/qugar/qugar/cpp</text>
<text text-anchor="start" x="146.5" y="-95" font-family="Helvetica,sans-Serif" font-size="10.00">/include/qugar/impl_reparam</text>
<text text-anchor="middle" x="217" y="-84" font-family="Helvetica,sans-Serif" font-size="10.00">_bezier.hpp</text>
</a>
</g>
</g>
<!-- Node2&#45;&gt;Node4 -->
<g id="edge3_Node000002_Node000004" class="edge">
<title>Node2&#45;&gt;Node4</title>
<g id="a_edge3_Node000002_Node000004"><a xlink:title=" ">
<path fill="none" stroke="#63b8ff" d="M236.03,-144.55C232.37,-135.69 228.43,-126.15 225.09,-118.07"/>
<polygon fill="#63b8ff" stroke="#63b8ff" points="232.8,-145.89 239.86,-153.79 239.27,-143.22 232.8,-145.89"/>
</a>
</g>
</g>
<!-- Node5 -->
<g id="Node000005" class="node">
<title>Node5</title>
<g id="a_Node000005"><a xlink:href="../../d7/d6f/primitive__funcs__lib_8hpp.html" target="_top" xlink:title="Declaration of a primitive implicit functions ready to be consumed by Algoim.">
<polygon fill="white" stroke="#666666" points="446.5,-118 313.5,-118 313.5,-77 446.5,-77 446.5,-118"/>
<text text-anchor="start" x="321.5" y="-106" font-family="Helvetica,sans-Serif" font-size="10.00">/__w/qugar/qugar/cpp</text>
<text text-anchor="start" x="321.5" y="-95" font-family="Helvetica,sans-Serif" font-size="10.00">/include/qugar/primitive</text>
<text text-anchor="middle" x="380" y="-84" font-family="Helvetica,sans-Serif" font-size="10.00">_funcs_lib.hpp</text>
</a>
</g>
</g>
<!-- Node2&#45;&gt;Node5 -->
<g id="edge4_Node000002_Node000005" class="edge">
<title>Node2&#45;&gt;Node5</title>
<g id="a_edge4_Node000002_Node000005"><a xlink:title=" ">
<path fill="none" stroke="#63b8ff" d="M291.26,-148.92C308.82,-138.95 328.81,-127.58 345.38,-118.17"/>
<polygon fill="#63b8ff" stroke="#63b8ff" points="289.3,-146.01 282.34,-153.99 292.76,-152.09 289.3,-146.01"/>
</a>
</g>
</g>
<!-- Node6 -->
<g id="Node000006" class="node">
<title>Node6</title>
<g id="a_Node000006"><a xlink:href="../../d0/d6f/demo__quad__sphere_2main_8cpp.html" target="_top" xlink:title=" ">
<polygon fill="white" stroke="#666666" points="453,-41 307,-41 307,0 453,0 453,-41"/>
<text text-anchor="start" x="315" y="-29" font-family="Helvetica,sans-Serif" font-size="10.00">/__w/qugar/qugar/cpp</text>
<text text-anchor="start" x="315" y="-18" font-family="Helvetica,sans-Serif" font-size="10.00">/demo/demo_quad_sphere</text>
<text text-anchor="middle" x="380" y="-7" font-family="Helvetica,sans-Serif" font-size="10.00">/main.cpp</text>
</a>
</g>
</g>
<!-- Node5&#45;&gt;Node6 -->
<g id="edge5_Node000005_Node000006" class="edge">
<title>Node5&#45;&gt;Node6</title>
<g id="a_edge5_Node000005_Node000006"><a xlink:title=" ">
<path fill="none" stroke="#63b8ff" d="M380,-66.69C380,-58.08 380,-48.9 380,-41.07"/>
<polygon fill="#63b8ff" stroke="#63b8ff" points="376.5,-66.79 380,-76.79 383.5,-66.79 376.5,-66.79"/>
</a>
</g>
</g>
<!-- Node7&#45;&gt;Node2 -->
<g id="edge7_Node000007_Node000002" class="edge">
<title>Node7&#45;&gt;Node2</title>
<g id="a_edge7_Node000007_Node000002"><a xlink:title=" ">
<path fill="none" stroke="#63b8ff" d="M313.75,-224.82C300.82,-215.11 286.32,-204.24 274.23,-195.17"/>
<polygon fill="#63b8ff" stroke="#63b8ff" points="311.89,-227.79 321.99,-230.99 316.09,-222.19 311.89,-227.79"/>
</a>
</g>
</g>
<!-- Node7&#45;&gt;Node5 -->
<g id="edge8_Node000007_Node000005" class="edge">
<title>Node7&#45;&gt;Node5</title>
<g id="a_edge8_Node000007_Node000005"><a xlink:title=" ">
<path fill="none" stroke="#63b8ff" d="M354.22,-220.98C360.58,-190.76 370.29,-144.64 375.8,-118.47"/>
<polygon fill="#63b8ff" stroke="#63b8ff" points="350.75,-220.43 352.12,-230.94 357.6,-221.88 350.75,-220.43"/>
</a>
</g>
</g>
</g>
</svg>
