<?xml version="1.0" encoding="UTF-8" standalone="no"?>
<!DOCTYPE svg PUBLIC "-//W3C//DTD SVG 1.1//EN"
 "http://www.w3.org/Graphics/SVG/1.1/DTD/svg11.dtd">
<!-- Generated by graphviz version 2.43.0 (0)
 -->
<!-- Title: /__w/qugar/qugar/cpp/include/qugar/cart_grid_tp.hpp Pages: 1 -->
<svg width="806pt" height="511pt"
 viewBox="0.00 0.00 805.75 511.00" xmlns="http://www.w3.org/2000/svg" xmlns:xlink="http://www.w3.org/1999/xlink">
<g id="graph0" class="graph" transform="scale(1 1) rotate(0) translate(4 507)">
<title>/__w/qugar/qugar/cpp/include/qugar/cart_grid_tp.hpp</title>
<!-- Node1 -->
<g id="Node000001" class="node">
<title>Node1</title>
<g id="a_Node000001"><a xlink:title="Definition of Cartesian grid class.">
<polygon fill="#999999" stroke="#666666" points="460.75,-503 329.75,-503 329.75,-462 460.75,-462 460.75,-503"/>
<text text-anchor="start" x="337.75" y="-491" font-family="Helvetica,sans-Serif" font-size="10.00">/__w/qugar/qugar/cpp</text>
<text text-anchor="start" x="337.75" y="-480" font-family="Helvetica,sans-Serif" font-size="10.00">/include/qugar/cart_grid</text>
<text text-anchor="middle" x="395.25" y="-469" font-family="Helvetica,sans-Serif" font-size="10.00">_tp.hpp</text>
</a>
</g>
</g>
<!-- Node2 -->
<g id="Node000002" class="node">
<title>Node2</title>
<g id="a_Node000002"><a xlink:href="../../d0/d6f/demo__quad__sphere_2main_8cpp.html" target="_top" xlink:title=" ">
<polygon fill="white" stroke="#666666" points="724.25,-118 578.25,-118 578.25,-77 724.25,-77 724.25,-118"/>
<text text-anchor="start" x="586.25" y="-106" font-family="Helvetica,sans-Serif" font-size="10.00">/__w/qugar/qugar/cpp</text>
<text text-anchor="start" x="586.25" y="-95" font-family="Helvetica,sans-Serif" font-size="10.00">/demo/demo_quad_sphere</text>
<text text-anchor="middle" x="651.25" y="-84" font-family="Helvetica,sans-Serif" font-size="10.00">/main.cpp</text>
</a>
</g>
</g>
<!-- Node1&#45;&gt;Node2 -->
<g id="edge1_Node000001_Node000002" class="edge">
<title>Node1&#45;&gt;Node2</title>
<g id="a_edge1_Node000001_Node000002"><a xlink:title=" ">
<path fill="none" stroke="#63b8ff" d="M389.34,-451.94C383.76,-421.41 376.25,-372.32 376.25,-329.5 376.25,-329.5 376.25,-329.5 376.25,-250.5 376.25,-191.55 417.11,-185.01 467.25,-154 486.19,-142.29 535.41,-127.7 578.19,-116.42"/>
<polygon fill="#63b8ff" stroke="#63b8ff" points="385.93,-452.74 391.22,-461.92 392.81,-451.45 385.93,-452.74"/>
</a>
</g>
</g>
<!-- Node3 -->
<g id="Node000003" class="node">
<title>Node3</title>
<g id="a_Node000003"><a xlink:href="../../d2/d66/demo__reparam__gyroid_2main_8cpp.html" target="_top" xlink:title=" ">
<polygon fill="white" stroke="#666666" points="551.75,-41 390.75,-41 390.75,0 551.75,0 551.75,-41"/>
<text text-anchor="start" x="398.75" y="-29" font-family="Helvetica,sans-Serif" font-size="10.00">/__w/qugar/qugar/cpp</text>
<text text-anchor="start" x="398.75" y="-18" font-family="Helvetica,sans-Serif" font-size="10.00">/demo/demo_reparam_gyroid</text>
<text text-anchor="middle" x="471.25" y="-7" font-family="Helvetica,sans-Serif" font-size="10.00">/main.cpp</text>
</a>
</g>
</g>
<!-- Node1&#45;&gt;Node3 -->
<g id="edge2_Node000001_Node000003" class="edge">
<title>Node1&#45;&gt;Node3</title>
<g id="a_edge2_Node000001_Node000003"><a xlink:title=" ">
<path fill="none" stroke="#63b8ff" d="M319.57,-468.11C205.64,-445.77 3.25,-396.63 3.25,-329.5 3.25,-329.5 3.25,-329.5 3.25,-173.5 3.25,-129.79 -9.74,-106.79 22.25,-77 74.13,-28.7 276.06,-20.92 390.66,-20.53"/>
<polygon fill="#63b8ff" stroke="#63b8ff" points="319.15,-471.59 329.64,-470.06 320.48,-464.72 319.15,-471.59"/>
</a>
</g>
</g>
<!-- Node4 -->
<g id="Node000004" class="node">
<title>Node4</title>
<g id="a_Node000004"><a xlink:href="../../d6/dc8/impl__quadrature_8hpp.html" target="_top" xlink:title="Declaration of quadratures for general implicit functions on grids.">
<polygon fill="white" stroke="#666666" points="678.25,-189.5 488.25,-189.5 488.25,-159.5 678.25,-159.5 678.25,-189.5"/>
<text text-anchor="start" x="496.25" y="-177.5" font-family="Helvetica,sans-Serif" font-size="10.00">/__w/qugar/qugar/cpp</text>
<text text-anchor="middle" x="583.25" y="-166.5" font-family="Helvetica,sans-Serif" font-size="10.00">/include/qugar/impl_quadrature.hpp</text>
</a>
</g>
</g>
<!-- Node1&#45;&gt;Node4 -->
<g id="edge3_Node000001_Node000004" class="edge">
<title>Node1&#45;&gt;Node4</title>
<g id="a_edge3_Node000001_Node000004"><a xlink:title=" ">
<path fill="none" stroke="#63b8ff" d="M470.83,-477.25C508.39,-471.03 551.21,-456.99 577.25,-426 636.16,-355.89 602.24,-231.71 588.33,-189.78"/>
<polygon fill="#63b8ff" stroke="#63b8ff" points="470.27,-473.79 460.9,-478.73 471.31,-480.71 470.27,-473.79"/>
</a>
</g>
</g>
<!-- Node5 -->
<g id="Node000005" class="node">
<title>Node5</title>
<g id="a_Node000005"><a xlink:href="../../d3/d42/impl__reparam__mesh_8hpp.html" target="_top" xlink:title="Declaration of reparameterization class.">
<polygon fill="white" stroke="#666666" points="347.75,-195 190.75,-195 190.75,-154 347.75,-154 347.75,-195"/>
<text text-anchor="start" x="198.75" y="-183" font-family="Helvetica,sans-Serif" font-size="10.00">/__w/qugar/qugar/cpp</text>
<text text-anchor="start" x="198.75" y="-172" font-family="Helvetica,sans-Serif" font-size="10.00">/include/qugar/impl_reparam</text>
<text text-anchor="middle" x="269.25" y="-161" font-family="Helvetica,sans-Serif" font-size="10.00">_mesh.hpp</text>
</a>
</g>
</g>
<!-- Node1&#45;&gt;Node5 -->
<g id="edge5_Node000001_Node000005" class="edge">
<title>Node1&#45;&gt;Node5</title>
<g id="a_edge5_Node000001_Node000005"><a xlink:title=" ">
<path fill="none" stroke="#63b8ff" d="M359.61,-455.65C314.25,-420.23 238.26,-351.83 209.25,-272 203.02,-254.87 201.95,-247.7 209.25,-231 215.5,-216.7 227.46,-204.44 239.06,-195.11"/>
<polygon fill="#63b8ff" stroke="#63b8ff" points="357.65,-458.56 367.71,-461.88 361.92,-453.01 357.65,-458.56"/>
</a>
</g>
</g>
<!-- Node9 -->
<g id="Node000009" class="node">
<title>Node9</title>
<g id="a_Node000009"><a xlink:href="../../d6/d03/impl__unfitted__domain_8hpp.html" target="_top" xlink:title="Declaration of of UnfittedImplDomain class.">
<polygon fill="white" stroke="#666666" points="797.75,-272 644.75,-272 644.75,-231 797.75,-231 797.75,-272"/>
<text text-anchor="start" x="652.75" y="-260" font-family="Helvetica,sans-Serif" font-size="10.00">/__w/qugar/qugar/cpp</text>
<text text-anchor="start" x="652.75" y="-249" font-family="Helvetica,sans-Serif" font-size="10.00">/include/qugar/impl_unfitted</text>
<text text-anchor="middle" x="721.25" y="-238" font-family="Helvetica,sans-Serif" font-size="10.00">_domain.hpp</text>
</a>
</g>
</g>
<!-- Node1&#45;&gt;Node9 -->
<g id="edge10_Node000001_Node000009" class="edge">
<title>Node1&#45;&gt;Node9</title>
<g id="a_edge10_Node000001_Node000009"><a xlink:title=" ">
<path fill="none" stroke="#63b8ff" d="M470.9,-479.5C520.71,-474.64 584.85,-461.22 630.25,-426 681.85,-385.97 707.23,-308.39 716.7,-272.1"/>
<polygon fill="#63b8ff" stroke="#63b8ff" points="470.47,-476.02 460.82,-480.39 471.09,-483 470.47,-476.02"/>
</a>
</g>
</g>
<!-- Node10 -->
<g id="Node000010" class="node">
<title>Node10</title>
<g id="a_Node000010"><a xlink:href="../../d8/ddc/reparam__mesh_8hpp.html" target="_top" xlink:title="Declaration of reparameterization class.">
<polygon fill="white" stroke="#666666" points="348.25,-272 218.25,-272 218.25,-231 348.25,-231 348.25,-272"/>
<text text-anchor="start" x="226.25" y="-260" font-family="Helvetica,sans-Serif" font-size="10.00">/__w/qugar/qugar/cpp</text>
<text text-anchor="start" x="226.25" y="-249" font-family="Helvetica,sans-Serif" font-size="10.00">/include/qugar/reparam</text>
<text text-anchor="middle" x="283.25" y="-238" font-family="Helvetica,sans-Serif" font-size="10.00">_mesh.hpp</text>
</a>
</g>
</g>
<!-- Node1&#45;&gt;Node10 -->
<g id="edge15_Node000001_Node000010" class="edge">
<title>Node1&#45;&gt;Node10</title>
<g id="a_edge15_Node000001_Node000010"><a xlink:title=" ">
<path fill="none" stroke="#63b8ff" d="M377.61,-453.19C372.46,-444.57 366.95,-434.99 362.25,-426 333.72,-371.45 304.94,-304.58 291.34,-272.09"/>
<polygon fill="#63b8ff" stroke="#63b8ff" points="374.62,-455.02 382.8,-461.76 380.61,-451.39 374.62,-455.02"/>
</a>
</g>
</g>
<!-- Node11 -->
<g id="Node000011" class="node">
<title>Node11</title>
<g id="a_Node000011"><a xlink:href="../../d2/dfd/unfitted__domain_8hpp.html" target="_top" xlink:title="Declaration of of UnfittedDomain class.">
<polygon fill="white" stroke="#666666" points="550.25,-349 424.25,-349 424.25,-308 550.25,-308 550.25,-349"/>
<text text-anchor="start" x="432.25" y="-337" font-family="Helvetica,sans-Serif" font-size="10.00">/__w/qugar/qugar/cpp</text>
<text text-anchor="start" x="432.25" y="-326" font-family="Helvetica,sans-Serif" font-size="10.00">/include/qugar/unfitted</text>
<text text-anchor="middle" x="487.25" y="-315" font-family="Helvetica,sans-Serif" font-size="10.00">_domain.hpp</text>
</a>
</g>
</g>
<!-- Node1&#45;&gt;Node11 -->
<g id="edge17_Node000001_Node000011" class="edge">
<title>Node1&#45;&gt;Node11</title>
<g id="a_edge17_Node000001_Node000011"><a xlink:title=" ">
<path fill="none" stroke="#63b8ff" d="M403.44,-452.18C409.79,-432.27 419.77,-405.87 433.25,-385 441.78,-371.79 453.79,-359.06 464.32,-349.13"/>
<polygon fill="#63b8ff" stroke="#63b8ff" points="400.03,-451.35 400.46,-461.93 406.73,-453.4 400.03,-451.35"/>
</a>
</g>
</g>
<!-- Node13 -->
<g id="Node000013" class="node">
<title>Node13</title>
<g id="a_Node000013"><a xlink:href="../../d8/d90/unfitted__domain__kd__tree_8hpp.html" target="_top" xlink:title="Declaration of of UnfittedDomain class.">
<polygon fill="white" stroke="#666666" points="568.25,-426 442.25,-426 442.25,-385 568.25,-385 568.25,-426"/>
<text text-anchor="start" x="450.25" y="-414" font-family="Helvetica,sans-Serif" font-size="10.00">/__w/qugar/qugar/cpp</text>
<text text-anchor="start" x="450.25" y="-403" font-family="Helvetica,sans-Serif" font-size="10.00">/include/qugar/unfitted</text>
<text text-anchor="middle" x="505.25" y="-392" font-family="Helvetica,sans-Serif" font-size="10.00">_domain_kd_tree.hpp</text>
</a>
</g>
</g>
<!-- Node1&#45;&gt;Node13 -->
<g id="edge23_Node000001_Node000013" class="edge">
<title>Node1&#45;&gt;Node13</title>
<g id="a_edge23_Node000001_Node000013"><a xlink:title=" ">
<path fill="none" stroke="#63b8ff" d="M432.51,-456.09C446.84,-446.32 462.97,-435.32 476.4,-426.17"/>
<polygon fill="#63b8ff" stroke="#63b8ff" points="430.15,-453.47 423.86,-461.99 434.1,-459.25 430.15,-453.47"/>
</a>
</g>
</g>
<!-- Node4&#45;&gt;Node2 -->
<g id="edge4_Node000004_Node000002" class="edge">
<title>Node4&#45;&gt;Node2</title>
<g id="a_edge4_Node000004_Node000002"><a xlink:title=" ">
<path fill="none" stroke="#63b8ff" d="M602.96,-151.76C612.56,-141.17 624.03,-128.52 633.38,-118.2"/>
<polygon fill="#63b8ff" stroke="#63b8ff" points="600.16,-149.63 596.04,-159.39 605.35,-154.34 600.16,-149.63"/>
</a>
</g>
</g>
<!-- Node6 -->
<g id="Node000006" class="node">
<title>Node6</title>
<g id="a_Node000006"><a xlink:href="../../d0/d4c/impl__reparam_8hpp.html" target="_top" xlink:title="Declaration of reparameterization generization tools implicit functions on grids.">
<polygon fill="white" stroke="#666666" points="560.25,-112.5 382.25,-112.5 382.25,-82.5 560.25,-82.5 560.25,-112.5"/>
<text text-anchor="start" x="390.25" y="-100.5" font-family="Helvetica,sans-Serif" font-size="10.00">/__w/qugar/qugar/cpp</text>
<text text-anchor="middle" x="471.25" y="-89.5" font-family="Helvetica,sans-Serif" font-size="10.00">/include/qugar/impl_reparam.hpp</text>
</a>
</g>
</g>
<!-- Node5&#45;&gt;Node6 -->
<g id="edge6_Node000005_Node000006" class="edge">
<title>Node5&#45;&gt;Node6</title>
<g id="a_edge6_Node000005_Node000006"><a xlink:title=" ">
<path fill="none" stroke="#63b8ff" d="M331.44,-150.41C364.74,-138.05 404.67,-123.22 433.32,-112.58"/>
<polygon fill="#63b8ff" stroke="#63b8ff" points="329.95,-147.23 321.79,-153.99 332.39,-153.79 329.95,-147.23"/>
</a>
</g>
</g>
<!-- Node7 -->
<g id="Node000007" class="node">
<title>Node7</title>
<g id="a_Node000007"><a xlink:href="../../d6/d87/impl__reparam__bezier_8hpp.html" target="_top" xlink:title="Declaration of tools for creating Bezier reparameterizations.">
<polygon fill="white" stroke="#666666" points="363.75,-118 206.75,-118 206.75,-77 363.75,-77 363.75,-118"/>
<text text-anchor="start" x="214.75" y="-106" font-family="Helvetica,sans-Serif" font-size="10.00">/__w/qugar/qugar/cpp</text>
<text text-anchor="start" x="214.75" y="-95" font-family="Helvetica,sans-Serif" font-size="10.00">/include/qugar/impl_reparam</text>
<text text-anchor="middle" x="285.25" y="-84" font-family="Helvetica,sans-Serif" font-size="10.00">_bezier.hpp</text>
</a>
</g>
</g>
<!-- Node5&#45;&gt;Node7 -->
<g id="edge8_Node000005_Node000007" class="edge">
<title>Node5&#45;&gt;Node7</title>
<g id="a_edge8_Node000005_Node000007"><a xlink:title=" ">
<path fill="none" stroke="#63b8ff" d="M275.55,-143.98C277.4,-135.28 279.39,-125.98 281.07,-118.07"/>
<polygon fill="#63b8ff" stroke="#63b8ff" points="272.12,-143.28 273.45,-153.79 278.96,-144.74 272.12,-143.28"/>
</a>
</g>
</g>
<!-- Node8 -->
<g id="Node000008" class="node">
<title>Node8</title>
<g id="a_Node000008"><a xlink:href="../../d5/da9/impl__reparam__general_8hpp.html" target="_top" xlink:title="Declaration of tools for creating reparameterizations of general functions.">
<polygon fill="white" stroke="#666666" points="188.75,-118 31.75,-118 31.75,-77 188.75,-77 188.75,-118"/>
<text text-anchor="start" x="39.75" y="-106" font-family="Helvetica,sans-Serif" font-size="10.00">/__w/qugar/qugar/cpp</text>
<text text-anchor="start" x="39.75" y="-95" font-family="Helvetica,sans-Serif" font-size="10.00">/include/qugar/impl_reparam</text>
<text text-anchor="middle" x="110.25" y="-84" font-family="Helvetica,sans-Serif" font-size="10.00">_general.hpp</text>
</a>
</g>
</g>
<!-- Node5&#45;&gt;Node8 -->
<g id="edge9_Node000005_Node000008" class="edge">
<title>Node5&#45;&gt;Node8</title>
<g id="a_edge9_Node000005_Node000008"><a xlink:title=" ">
<path fill="none" stroke="#63b8ff" d="M218.84,-149.72C197.2,-139.51 172.22,-127.73 151.68,-118.04"/>
<polygon fill="#63b8ff" stroke="#63b8ff" points="217.35,-152.89 227.89,-153.99 220.34,-146.56 217.35,-152.89"/>
</a>
</g>
</g>
<!-- Node6&#45;&gt;Node3 -->
<g id="edge7_Node000006_Node000003" class="edge">
<title>Node6&#45;&gt;Node3</title>
<g id="a_edge7_Node000006_Node000003"><a xlink:title=" ">
<path fill="none" stroke="#63b8ff" d="M471.25,-72.23C471.25,-62.2 471.25,-50.71 471.25,-41.2"/>
<polygon fill="#63b8ff" stroke="#63b8ff" points="467.75,-72.39 471.25,-82.39 474.75,-72.39 467.75,-72.39"/>
</a>
</g>
</g>
<!-- Node9&#45;&gt;Node2 -->
<g id="edge11_Node000009_Node000002" class="edge">
<title>Node9&#45;&gt;Node2</title>
<g id="a_edge11_Node000009_Node000002"><a xlink:title=" ">
<path fill="none" stroke="#63b8ff" d="M727.28,-220.86C729.85,-200.96 730.29,-174.7 720.25,-154 713.13,-139.34 700.08,-127.3 687.23,-118.23"/>
<polygon fill="#63b8ff" stroke="#63b8ff" points="723.8,-220.48 725.74,-230.9 730.72,-221.55 723.8,-220.48"/>
</a>
</g>
</g>
<!-- Node9&#45;&gt;Node3 -->
<g id="edge12_Node000009_Node000003" class="edge">
<title>Node9&#45;&gt;Node3</title>
<g id="a_edge12_Node000009_Node000003"><a xlink:title=" ">
<path fill="none" stroke="#63b8ff" d="M734.51,-221.3C749.55,-183.26 767.8,-116.92 733.25,-77 709.86,-49.97 620.06,-35.39 552.06,-28.05"/>
<polygon fill="#63b8ff" stroke="#63b8ff" points="731.18,-220.2 730.6,-230.78 737.65,-222.87 731.18,-220.2"/>
</a>
</g>
</g>
<!-- Node9&#45;&gt;Node4 -->
<g id="edge13_Node000009_Node000004" class="edge">
<title>Node9&#45;&gt;Node4</title>
<g id="a_edge13_Node000009_Node000004"><a xlink:title=" ">
<path fill="none" stroke="#63b8ff" d="M676.43,-226.14C654.26,-214.09 628.27,-199.97 609.38,-189.7"/>
<polygon fill="#63b8ff" stroke="#63b8ff" points="674.89,-229.29 685.35,-230.99 678.24,-223.14 674.89,-229.29"/>
</a>
</g>
</g>
<!-- Node9&#45;&gt;Node6 -->
<g id="edge14_Node000009_Node000006" class="edge">
<title>Node9&#45;&gt;Node6</title>
<g id="a_edge14_Node000009_Node000006"><a xlink:title=" ">
<path fill="none" stroke="#63b8ff" d="M718.21,-220.96C714.45,-199.46 706.04,-171.22 687.25,-154 676.1,-143.78 598.09,-125.36 539,-112.56"/>
<polygon fill="#63b8ff" stroke="#63b8ff" points="714.76,-221.52 719.71,-230.89 721.68,-220.48 714.76,-221.52"/>
</a>
</g>
</g>
<!-- Node10&#45;&gt;Node5 -->
<g id="edge16_Node000010_Node000005" class="edge">
<title>Node10&#45;&gt;Node5</title>
<g id="a_edge16_Node000010_Node000005"><a xlink:title=" ">
<path fill="none" stroke="#63b8ff" d="M277.68,-220.69C276.08,-212.08 274.36,-202.9 272.9,-195.07"/>
<polygon fill="#63b8ff" stroke="#63b8ff" points="274.29,-221.61 279.57,-230.79 281.18,-220.32 274.29,-221.61"/>
</a>
</g>
</g>
<!-- Node11&#45;&gt;Node9 -->
<g id="edge21_Node000011_Node000009" class="edge">
<title>Node11&#45;&gt;Node9</title>
<g id="a_edge21_Node000011_Node000009"><a xlink:title=" ">
<path fill="none" stroke="#63b8ff" d="M558.04,-304.81C590.65,-294.36 628.97,-282.08 660.28,-272.04"/>
<polygon fill="#63b8ff" stroke="#63b8ff" points="556.57,-301.61 548.12,-307.99 558.71,-308.27 556.57,-301.61"/>
</a>
</g>
</g>
<!-- Node11&#45;&gt;Node10 -->
<g id="edge22_Node000011_Node000010" class="edge">
<title>Node11&#45;&gt;Node10</title>
<g id="a_edge22_Node000011_Node000010"><a xlink:title=" ">
<path fill="none" stroke="#63b8ff" d="M424.79,-304.54C396.53,-294.15 363.46,-281.99 336.4,-272.04"/>
<polygon fill="#63b8ff" stroke="#63b8ff" points="423.59,-307.82 434.18,-307.99 426,-301.25 423.59,-307.82"/>
</a>
</g>
</g>
<!-- Node12 -->
<g id="Node000012" class="node">
<title>Node12</title>
<g id="a_Node000012"><a xlink:href="../../d1/daf/cut__quadrature_8hpp.html" target="_top" xlink:title="Definition of cut quadrature for unfitted domains.">
<polygon fill="white" stroke="#666666" points="587.75,-266.5 404.75,-266.5 404.75,-236.5 587.75,-236.5 587.75,-266.5"/>
<text text-anchor="start" x="412.75" y="-254.5" font-family="Helvetica,sans-Serif" font-size="10.00">/__w/qugar/qugar/cpp</text>
<text text-anchor="middle" x="496.25" y="-243.5" font-family="Helvetica,sans-Serif" font-size="10.00">/include/qugar/cut_quadrature.hpp</text>
</a>
</g>
</g>
<!-- Node11&#45;&gt;Node12 -->
<g id="edge18_Node000011_Node000012" class="edge">
<title>Node11&#45;&gt;Node12</title>
<g id="a_edge18_Node000011_Node000012"><a xlink:title=" ">
<path fill="none" stroke="#63b8ff" d="M490.83,-297.61C492.11,-287.01 493.48,-275.57 494.52,-266.86"/>
<polygon fill="#63b8ff" stroke="#63b8ff" points="487.33,-297.45 489.61,-307.79 494.28,-298.28 487.33,-297.45"/>
</a>
</g>
</g>
<!-- Node12&#45;&gt;Node2 -->
<g id="edge19_Node000012_Node000002" class="edge">
<title>Node12&#45;&gt;Node2</title>
<g id="a_edge19_Node000012_Node000002"><a xlink:title=" ">
<path fill="none" stroke="#63b8ff" d="M483.06,-227.05C473.18,-206.01 463.78,-175.25 479.25,-154 485.55,-145.34 534.03,-130.14 577.92,-117.83"/>
<polygon fill="#63b8ff" stroke="#63b8ff" points="480.07,-228.89 487.69,-236.24 486.32,-225.74 480.07,-228.89"/>
</a>
</g>
</g>
<!-- Node12&#45;&gt;Node4 -->
<g id="edge20_Node000012_Node000004" class="edge">
<title>Node12&#45;&gt;Node4</title>
<g id="a_edge20_Node000012_Node000004"><a xlink:title=" ">
<path fill="none" stroke="#63b8ff" d="M520.41,-229.67C535.25,-216.88 553.85,-200.84 566.96,-189.54"/>
<polygon fill="#63b8ff" stroke="#63b8ff" points="517.9,-227.21 512.61,-236.39 522.47,-232.51 517.9,-227.21"/>
</a>
</g>
</g>
<!-- Node13&#45;&gt;Node9 -->
<g id="edge24_Node000013_Node000009" class="edge">
<title>Node13&#45;&gt;Node9</title>
<g id="a_edge24_Node000013_Node000009"><a xlink:title=" ">
<path fill="none" stroke="#63b8ff" d="M541.47,-379.01C584.22,-348.93 654.39,-299.55 693.22,-272.23"/>
<polygon fill="#63b8ff" stroke="#63b8ff" points="539.21,-376.32 533.04,-384.94 543.24,-382.05 539.21,-376.32"/>
</a>
</g>
</g>
<!-- Node13&#45;&gt;Node11 -->
<g id="edge25_Node000013_Node000011" class="edge">
<title>Node13&#45;&gt;Node11</title>
<g id="a_edge25_Node000013_Node000011"><a xlink:title=" ">
<path fill="none" stroke="#63b8ff" d="M498.16,-374.98C496.08,-366.28 493.84,-356.98 491.95,-349.07"/>
<polygon fill="#63b8ff" stroke="#63b8ff" points="494.78,-375.89 500.52,-384.79 501.59,-374.25 494.78,-375.89"/>
</a>
</g>
</g>
</g>
</svg>
