<?xml version="1.0" encoding="UTF-8" standalone="no"?>
<!DOCTYPE svg PUBLIC "-//W3C//DTD SVG 1.1//EN"
 "http://www.w3.org/Graphics/SVG/1.1/DTD/svg11.dtd">
<!-- Generated by graphviz version 2.43.0 (0)
 -->
<!-- Title: qugar::impl::DomainFunc&lt; dim, range &gt; Pages: 1 -->
<svg width="667pt" height="782pt"
 viewBox="0.00 0.00 667.00 782.00" xmlns="http://www.w3.org/2000/svg" xmlns:xlink="http://www.w3.org/1999/xlink">
<g id="graph0" class="graph" transform="scale(1 1) rotate(0) translate(4 778)">
<title>qugar::impl::DomainFunc&lt; dim, range &gt;</title>
<!-- Node1 -->
<g id="Node000001" class="node">
<title>Node1</title>
<g id="a_Node000001"><a xlink:title="Domain functions.">
<polygon fill="#999999" stroke="#666666" points="139,-363 0,-363 0,-333 139,-333 139,-363"/>
<text text-anchor="start" x="8" y="-351" font-family="Helvetica,sans-Serif" font-size="10.00">qugar::impl::DomainFunc</text>
<text text-anchor="middle" x="69.5" y="-340" font-family="Helvetica,sans-Serif" font-size="10.00">&lt; dim, range &gt;</text>
</a>
</g>
</g>
<!-- Node2 -->
<g id="Node000002" class="node">
<title>Node2</title>
<g id="a_Node000002"><a xlink:href="../../d2/d05/classqugar_1_1impl_1_1PolynomialTP.html" target="_top" xlink:title=" ">
<polygon fill="white" stroke="#666666" points="320,-702 175,-702 175,-672 320,-672 320,-702"/>
<text text-anchor="start" x="183" y="-690" font-family="Helvetica,sans-Serif" font-size="10.00">qugar::impl::PolynomialTP</text>
<text text-anchor="middle" x="247.5" y="-679" font-family="Helvetica,sans-Serif" font-size="10.00">&lt; dim, 1 &gt;</text>
</a>
</g>
</g>
<!-- Node1&#45;&gt;Node2 -->
<g id="edge1_Node000001_Node000002" class="edge">
<title>Node1&#45;&gt;Node2</title>
<g id="a_edge1_Node000001_Node000002"><a xlink:title=" ">
<path fill="none" stroke="#63b8ff" d="M74.12,-373.24C82.91,-427.11 109.7,-555.23 175,-639 185.66,-652.68 201.34,-663.82 215.3,-671.91"/>
<polygon fill="#63b8ff" stroke="#63b8ff" points="77.55,-372.54 72.55,-363.21 70.63,-373.63 77.55,-372.54"/>
</a>
</g>
</g>
<!-- Node4 -->
<g id="Node000004" class="node">
<title>Node4</title>
<g id="a_Node000004"><a xlink:href="../../d2/d05/classqugar_1_1impl_1_1PolynomialTP.html" target="_top" xlink:title="Base class for tensor&#45;product polynomial functions.">
<polygon fill="white" stroke="#666666" points="320,-630 175,-630 175,-600 320,-600 320,-630"/>
<text text-anchor="start" x="183" y="-618" font-family="Helvetica,sans-Serif" font-size="10.00">qugar::impl::PolynomialTP</text>
<text text-anchor="middle" x="247.5" y="-607" font-family="Helvetica,sans-Serif" font-size="10.00">&lt; dim, range &gt;</text>
</a>
</g>
</g>
<!-- Node1&#45;&gt;Node4 -->
<g id="edge3_Node000001_Node000004" class="edge">
<title>Node1&#45;&gt;Node4</title>
<g id="a_edge3_Node000001_Node000004"><a xlink:title=" ">
<path fill="none" stroke="#63b8ff" d="M74.41,-373.36C83.29,-422.4 109.52,-530.7 175,-591 178.76,-594.46 183.03,-597.42 187.57,-599.96"/>
<polygon fill="#63b8ff" stroke="#63b8ff" points="77.82,-372.56 72.68,-363.29 70.92,-373.74 77.82,-372.56"/>
</a>
</g>
</g>
<!-- Node16 -->
<g id="Node000016" class="node">
<title>Node16</title>
<g id="a_Node000016"><a xlink:href="../../d3/deb/classqugar_1_1impl_1_1funcs_1_1AddFunctions.html" target="_top" xlink:title="This function adds two functions together.">
<polygon fill="white" stroke="#666666" points="312,-582 183,-582 183,-552 312,-552 312,-582"/>
<text text-anchor="start" x="191" y="-570" font-family="Helvetica,sans-Serif" font-size="10.00">qugar::impl::funcs</text>
<text text-anchor="middle" x="247.5" y="-559" font-family="Helvetica,sans-Serif" font-size="10.00">::AddFunctions&lt; dim &gt;</text>
</a>
</g>
</g>
<!-- Node1&#45;&gt;Node16 -->
<g id="edge15_Node000001_Node000016" class="edge">
<title>Node1&#45;&gt;Node16</title>
<g id="a_edge15_Node000001_Node000016"><a xlink:title=" ">
<path fill="none" stroke="#63b8ff" d="M77.27,-372.93C89.74,-414.19 120.2,-496.72 175,-543 179.1,-546.46 183.72,-549.43 188.59,-551.98"/>
<polygon fill="#63b8ff" stroke="#63b8ff" points="80.58,-371.77 74.42,-363.14 73.86,-373.72 80.58,-371.77"/>
</a>
</g>
</g>
<!-- Node17 -->
<g id="Node000017" class="node">
<title>Node17</title>
<g id="a_Node000017"><a xlink:href="../../da/dd6/classqugar_1_1impl_1_1funcs_1_1Annulus.html" target="_top" xlink:title="2D annulus function. The function is defined by the annulus center and outer and inner radii....">
<polygon fill="white" stroke="#666666" points="299.5,-534 195.5,-534 195.5,-504 299.5,-504 299.5,-534"/>
<text text-anchor="start" x="203.5" y="-522" font-family="Helvetica,sans-Serif" font-size="10.00">qugar::impl::funcs</text>
<text text-anchor="middle" x="247.5" y="-511" font-family="Helvetica,sans-Serif" font-size="10.00">::Annulus&lt; 2 &gt;</text>
</a>
</g>
</g>
<!-- Node1&#45;&gt;Node17 -->
<g id="edge16_Node000001_Node000017" class="edge">
<title>Node1&#45;&gt;Node17</title>
<g id="a_edge16_Node000001_Node000017"><a xlink:title=" ">
<path fill="none" stroke="#63b8ff" d="M81.82,-372.58C98.02,-405.12 130.79,-462.2 175,-495 181.1,-499.53 188.1,-503.23 195.29,-506.26"/>
<polygon fill="#63b8ff" stroke="#63b8ff" points="84.85,-370.79 77.33,-363.32 78.55,-373.85 84.85,-370.79"/>
</a>
</g>
</g>
<!-- Node18 -->
<g id="Node000018" class="node">
<title>Node18</title>
<g id="a_Node000018"><a xlink:href="../../d7/d02/classqugar_1_1impl_1_1funcs_1_1Constant.html" target="_top" xlink:title="Dimension independent constant function.">
<polygon fill="white" stroke="#666666" points="301,-486 194,-486 194,-456 301,-456 301,-486"/>
<text text-anchor="start" x="202" y="-474" font-family="Helvetica,sans-Serif" font-size="10.00">qugar::impl::funcs</text>
<text text-anchor="middle" x="247.5" y="-463" font-family="Helvetica,sans-Serif" font-size="10.00">::Constant&lt; dim &gt;</text>
</a>
</g>
</g>
<!-- Node1&#45;&gt;Node18 -->
<g id="edge17_Node000001_Node000018" class="edge">
<title>Node1&#45;&gt;Node18</title>
<g id="a_edge17_Node000001_Node000018"><a xlink:title=" ">
<path fill="none" stroke="#63b8ff" d="M89.32,-370.88C108.71,-393.12 140.85,-426.48 175,-447 180.84,-450.51 187.25,-453.58 193.77,-456.25"/>
<polygon fill="#63b8ff" stroke="#63b8ff" points="91.93,-368.55 82.77,-363.23 86.61,-373.1 91.93,-368.55"/>
</a>
</g>
</g>
<!-- Node19 -->
<g id="Node000019" class="node">
<title>Node19</title>
<g id="a_Node000019"><a xlink:href="../../d6/dcd/classqugar_1_1impl_1_1funcs_1_1Cylinder.html" target="_top" xlink:title="Infinite cylinder.">
<polygon fill="white" stroke="#666666" points="299.5,-438 195.5,-438 195.5,-408 299.5,-408 299.5,-438"/>
<text text-anchor="start" x="203.5" y="-426" font-family="Helvetica,sans-Serif" font-size="10.00">qugar::impl::funcs</text>
<text text-anchor="middle" x="247.5" y="-415" font-family="Helvetica,sans-Serif" font-size="10.00">::Cylinder&lt; 3 &gt;</text>
</a>
</g>
</g>
<!-- Node1&#45;&gt;Node19 -->
<g id="edge18_Node000001_Node000019" class="edge">
<title>Node1&#45;&gt;Node19</title>
<g id="a_edge18_Node000001_Node000019"><a xlink:title=" ">
<path fill="none" stroke="#63b8ff" d="M107.82,-367.68C127.52,-377.69 152.26,-389.68 175,-399 182.63,-402.13 190.84,-405.17 198.87,-407.98"/>
<polygon fill="#63b8ff" stroke="#63b8ff" points="109.37,-364.54 98.87,-363.09 106.17,-370.77 109.37,-364.54"/>
</a>
</g>
</g>
<!-- Node20 -->
<g id="Node000020" class="node">
<title>Node20</title>
<g id="a_Node000020"><a xlink:href="../../d7/d1f/classqugar_1_1impl_1_1funcs_1_1Ellipsoid.html" target="_top" xlink:title="Dimension independent ellipsoidal function. The function is defined by the ellipsoid&#39;s semi&#45;axes and ...">
<polygon fill="white" stroke="#666666" points="300,-390 195,-390 195,-360 300,-360 300,-390"/>
<text text-anchor="start" x="203" y="-378" font-family="Helvetica,sans-Serif" font-size="10.00">qugar::impl::funcs</text>
<text text-anchor="middle" x="247.5" y="-367" font-family="Helvetica,sans-Serif" font-size="10.00">::Ellipsoid&lt; dim &gt;</text>
</a>
</g>
</g>
<!-- Node1&#45;&gt;Node20 -->
<g id="edge19_Node000001_Node000020" class="edge">
<title>Node1&#45;&gt;Node20</title>
<g id="a_edge19_Node000001_Node000020"><a xlink:title=" ">
<path fill="none" stroke="#63b8ff" d="M149.14,-360.06C164.6,-362.44 180.46,-364.87 194.76,-367.06"/>
<polygon fill="#63b8ff" stroke="#63b8ff" points="149.47,-356.57 139.05,-358.52 148.4,-363.49 149.47,-356.57"/>
</a>
</g>
</g>
<!-- Node21 -->
<g id="Node000021" class="node">
<title>Node21</title>
<g id="a_Node000021"><a xlink:href="../../d0/de9/classqugar_1_1impl_1_1funcs_1_1FuncWithAffineTransf.html" target="_top" xlink:title="Function containing an affine transformation.">
<polygon fill="white" stroke="#666666" points="310,-341.5 185,-341.5 185,-300.5 310,-300.5 310,-341.5"/>
<text text-anchor="start" x="193" y="-329.5" font-family="Helvetica,sans-Serif" font-size="10.00">qugar::impl::funcs</text>
<text text-anchor="start" x="193" y="-318.5" font-family="Helvetica,sans-Serif" font-size="10.00">::FuncWithAffineTransf</text>
<text text-anchor="middle" x="247.5" y="-307.5" font-family="Helvetica,sans-Serif" font-size="10.00">&lt; dim &gt;</text>
</a>
</g>
</g>
<!-- Node1&#45;&gt;Node21 -->
<g id="edge20_Node000001_Node000021" class="edge">
<title>Node1&#45;&gt;Node21</title>
<g id="a_edge20_Node000001_Node000021"><a xlink:title=" ">
<path fill="none" stroke="#63b8ff" d="M149.03,-335.95C160.99,-334.12 173.2,-332.25 184.74,-330.48"/>
<polygon fill="#63b8ff" stroke="#63b8ff" points="148.4,-332.51 139.05,-337.48 149.47,-339.43 148.4,-332.51"/>
</a>
</g>
</g>
<!-- Node25 -->
<g id="Node000025" class="node">
<title>Node25</title>
<g id="a_Node000025"><a xlink:href="../../d2/d90/classqugar_1_1impl_1_1funcs_1_1Negative.html" target="_top" xlink:title="This function computes the negative of a given function.">
<polygon fill="white" stroke="#666666" points="301.5,-282 193.5,-282 193.5,-252 301.5,-252 301.5,-282"/>
<text text-anchor="start" x="201.5" y="-270" font-family="Helvetica,sans-Serif" font-size="10.00">qugar::impl::funcs</text>
<text text-anchor="middle" x="247.5" y="-259" font-family="Helvetica,sans-Serif" font-size="10.00">::Negative&lt; dim &gt;</text>
</a>
</g>
</g>
<!-- Node1&#45;&gt;Node25 -->
<g id="edge24_Node000001_Node000025" class="edge">
<title>Node1&#45;&gt;Node25</title>
<g id="a_edge24_Node000001_Node000025"><a xlink:title=" ">
<path fill="none" stroke="#63b8ff" d="M104,-327.77C124.14,-316.1 150.53,-301.68 175,-291 182.2,-287.86 189.95,-284.87 197.6,-282.14"/>
<polygon fill="#63b8ff" stroke="#63b8ff" points="102.08,-324.83 95.22,-332.91 105.62,-330.88 102.08,-324.83"/>
</a>
</g>
</g>
<!-- Node26 -->
<g id="Node000026" class="node">
<title>Node26</title>
<g id="a_Node000026"><a xlink:href="../../d2/d3b/classqugar_1_1impl_1_1funcs_1_1Plane.html" target="_top" xlink:title="Plane function.">
<polygon fill="white" stroke="#666666" points="299.5,-234 195.5,-234 195.5,-204 299.5,-204 299.5,-234"/>
<text text-anchor="start" x="203.5" y="-222" font-family="Helvetica,sans-Serif" font-size="10.00">qugar::impl::funcs</text>
<text text-anchor="middle" x="247.5" y="-211" font-family="Helvetica,sans-Serif" font-size="10.00">::Plane&lt; dim &gt;</text>
</a>
</g>
</g>
<!-- Node1&#45;&gt;Node26 -->
<g id="edge25_Node000001_Node000026" class="edge">
<title>Node1&#45;&gt;Node26</title>
<g id="a_edge25_Node000001_Node000026"><a xlink:title=" ">
<path fill="none" stroke="#63b8ff" d="M88.07,-324.86C107.12,-301.23 139.59,-265 175,-243 181.23,-239.13 188.15,-235.81 195.17,-232.97"/>
<polygon fill="#63b8ff" stroke="#63b8ff" points="85.14,-322.93 81.68,-332.94 90.63,-327.27 85.14,-322.93"/>
</a>
</g>
</g>
<!-- Node27 -->
<g id="Node000027" class="node">
<title>Node27</title>
<g id="a_Node000027"><a xlink:href="../../d1/def/classqugar_1_1impl_1_1funcs_1_1Sphere.html" target="_top" xlink:title="Dimension independent spherical function. The function is defined by its center and radius....">
<polygon fill="white" stroke="#666666" points="299.5,-186 195.5,-186 195.5,-156 299.5,-156 299.5,-186"/>
<text text-anchor="start" x="203.5" y="-174" font-family="Helvetica,sans-Serif" font-size="10.00">qugar::impl::funcs</text>
<text text-anchor="middle" x="247.5" y="-163" font-family="Helvetica,sans-Serif" font-size="10.00">::Sphere&lt; dim &gt;</text>
</a>
</g>
</g>
<!-- Node1&#45;&gt;Node27 -->
<g id="edge26_Node000001_Node000027" class="edge">
<title>Node1&#45;&gt;Node27</title>
<g id="a_edge26_Node000001_Node000027"><a xlink:title=" ">
<path fill="none" stroke="#63b8ff" d="M81.07,-323.45C96.79,-289.77 129.44,-229.47 175,-195 181.06,-190.42 188.04,-186.68 195.22,-183.64"/>
<polygon fill="#63b8ff" stroke="#63b8ff" points="77.69,-322.44 76.74,-332.99 84.06,-325.33 77.69,-322.44"/>
</a>
</g>
</g>
<!-- Node28 -->
<g id="Node000028" class="node">
<title>Node28</title>
<g id="a_Node000028"><a xlink:href="../../dc/dde/classqugar_1_1impl_1_1funcs_1_1SubtractFunctions.html" target="_top" xlink:title="This function subtracts two functions.">
<polygon fill="white" stroke="#666666" points="302.5,-137.5 192.5,-137.5 192.5,-96.5 302.5,-96.5 302.5,-137.5"/>
<text text-anchor="start" x="200.5" y="-125.5" font-family="Helvetica,sans-Serif" font-size="10.00">qugar::impl::funcs</text>
<text text-anchor="start" x="200.5" y="-114.5" font-family="Helvetica,sans-Serif" font-size="10.00">::SubtractFunctions</text>
<text text-anchor="middle" x="247.5" y="-103.5" font-family="Helvetica,sans-Serif" font-size="10.00">&lt; dim &gt;</text>
</a>
</g>
</g>
<!-- Node1&#45;&gt;Node28 -->
<g id="edge27_Node000001_Node000028" class="edge">
<title>Node1&#45;&gt;Node28</title>
<g id="a_edge27_Node000001_Node000028"><a xlink:title=" ">
<path fill="none" stroke="#63b8ff" d="M77.27,-323.33C89.88,-281.65 120.73,-196.99 175,-147 180.15,-142.26 186.16,-138.2 192.46,-134.76"/>
<polygon fill="#63b8ff" stroke="#63b8ff" points="73.9,-322.37 74.45,-332.95 80.62,-324.33 73.9,-322.37"/>
</a>
</g>
</g>
<!-- Node29 -->
<g id="Node000029" class="node">
<title>Node29</title>
<g id="a_Node000029"><a xlink:href="../../db/d99/classqugar_1_1impl_1_1funcs_1_1Torus.html" target="_top" xlink:title="3D torus function. The function is defined by the torus center, axis, and major and inner radii....">
<polygon fill="white" stroke="#666666" points="299.5,-78 195.5,-78 195.5,-48 299.5,-48 299.5,-78"/>
<text text-anchor="start" x="203.5" y="-66" font-family="Helvetica,sans-Serif" font-size="10.00">qugar::impl::funcs</text>
<text text-anchor="middle" x="247.5" y="-55" font-family="Helvetica,sans-Serif" font-size="10.00">::Torus&lt; 3 &gt;</text>
</a>
</g>
</g>
<!-- Node1&#45;&gt;Node29 -->
<g id="edge28_Node000001_Node000029" class="edge">
<title>Node1&#45;&gt;Node29</title>
<g id="a_edge28_Node000001_Node000029"><a xlink:title=" ">
<path fill="none" stroke="#63b8ff" d="M73.51,-322.95C81.02,-271.42 105.27,-152.87 175,-87 180.81,-81.52 187.91,-77.28 195.35,-74.01"/>
<polygon fill="#63b8ff" stroke="#63b8ff" points="70.04,-322.5 72.15,-332.88 76.97,-323.45 70.04,-322.5"/>
</a>
</g>
</g>
<!-- Node30 -->
<g id="Node000030" class="node">
<title>Node30</title>
<g id="a_Node000030"><a xlink:href="../../dc/df7/classqugar_1_1impl_1_1tpms_1_1TPMSBase.html" target="_top" xlink:title=" ">
<polygon fill="white" stroke="#666666" points="302,-30 193,-30 193,0 302,0 302,-30"/>
<text text-anchor="start" x="201" y="-18" font-family="Helvetica,sans-Serif" font-size="10.00">qugar::impl::tpms::</text>
<text text-anchor="middle" x="247.5" y="-7" font-family="Helvetica,sans-Serif" font-size="10.00">TPMSBase&lt; dim &gt;</text>
</a>
</g>
</g>
<!-- Node1&#45;&gt;Node30 -->
<g id="edge29_Node000001_Node000030" class="edge">
<title>Node1&#45;&gt;Node30</title>
<g id="a_edge29_Node000001_Node000030"><a xlink:title=" ">
<path fill="none" stroke="#63b8ff" d="M71.74,-322.51C75.95,-264.1 94.4,-119.41 175,-39 180.1,-33.91 186.31,-29.9 192.91,-26.75"/>
<polygon fill="#63b8ff" stroke="#63b8ff" points="68.23,-322.49 71.09,-332.69 75.22,-322.93 68.23,-322.49"/>
</a>
</g>
</g>
<!-- Node3 -->
<g id="Node000003" class="node">
<title>Node3</title>
<g id="a_Node000003"><a xlink:href="../../d2/d87/classqugar_1_1impl_1_1MonomialsTP.html" target="_top" xlink:title="dim&#45;dimensional tensor&#45;product monomials function.">
<polygon fill="white" stroke="#666666" points="500,-726 356,-726 356,-696 500,-696 500,-726"/>
<text text-anchor="start" x="364" y="-714" font-family="Helvetica,sans-Serif" font-size="10.00">qugar::impl::MonomialsTP</text>
<text text-anchor="middle" x="428" y="-703" font-family="Helvetica,sans-Serif" font-size="10.00">&lt; dim, range &gt;</text>
</a>
</g>
</g>
<!-- Node2&#45;&gt;Node3 -->
<g id="edge2_Node000002_Node000003" class="edge">
<title>Node2&#45;&gt;Node3</title>
<g id="a_edge2_Node000002_Node000003"><a xlink:title=" ">
<path fill="none" stroke="#63b8ff" d="M330.14,-697.98C338.77,-699.14 347.5,-700.31 355.99,-701.45"/>
<polygon fill="#63b8ff" stroke="#63b8ff" points="330.45,-694.49 320.07,-696.62 329.52,-701.42 330.45,-694.49"/>
</a>
</g>
</g>
<!-- Node5 -->
<g id="Node000005" class="node">
<title>Node5</title>
<g id="a_Node000005"><a xlink:href="../../de/dca/classqugar_1_1impl_1_1BezierTP.html" target="_top" xlink:title=" ">
<polygon fill="white" stroke="#666666" points="488.5,-678 367.5,-678 367.5,-648 488.5,-648 488.5,-678"/>
<text text-anchor="start" x="375.5" y="-666" font-family="Helvetica,sans-Serif" font-size="10.00">qugar::impl::BezierTP</text>
<text text-anchor="middle" x="428" y="-655" font-family="Helvetica,sans-Serif" font-size="10.00">&lt; 2, 1 &gt;</text>
</a>
</g>
</g>
<!-- Node4&#45;&gt;Node5 -->
<g id="edge4_Node000004_Node000005" class="edge">
<title>Node4&#45;&gt;Node5</title>
<g id="a_edge4_Node000004_Node000005"><a xlink:title=" ">
<path fill="none" stroke="#63b8ff" d="M314.39,-632.72C333.06,-637.74 353.2,-643.15 371.21,-648"/>
<polygon fill="#63b8ff" stroke="#63b8ff" points="315.05,-629.27 304.49,-630.06 313.24,-636.03 315.05,-629.27"/>
</a>
</g>
</g>
<!-- Node7 -->
<g id="Node000007" class="node">
<title>Node7</title>
<g id="a_Node000007"><a xlink:href="../../de/dca/classqugar_1_1impl_1_1BezierTP.html" target="_top" xlink:title=" ">
<polygon fill="white" stroke="#666666" points="488.5,-630 367.5,-630 367.5,-600 488.5,-600 488.5,-630"/>
<text text-anchor="start" x="375.5" y="-618" font-family="Helvetica,sans-Serif" font-size="10.00">qugar::impl::BezierTP</text>
<text text-anchor="middle" x="428" y="-607" font-family="Helvetica,sans-Serif" font-size="10.00">&lt; dim, 1 &gt;</text>
</a>
</g>
</g>
<!-- Node4&#45;&gt;Node7 -->
<g id="edge6_Node000004_Node000007" class="edge">
<title>Node4&#45;&gt;Node7</title>
<g id="a_edge6_Node000004_Node000007"><a xlink:title=" ">
<path fill="none" stroke="#63b8ff" d="M330.1,-615C342.68,-615 355.46,-615 367.44,-615"/>
<polygon fill="#63b8ff" stroke="#63b8ff" points="330.07,-611.5 320.07,-615 330.07,-618.5 330.07,-611.5"/>
</a>
</g>
</g>
<!-- Node12 -->
<g id="Node000012" class="node">
<title>Node12</title>
<g id="a_Node000012"><a xlink:href="../../de/dca/classqugar_1_1impl_1_1BezierTP.html" target="_top" xlink:title=" ">
<polygon fill="white" stroke="#666666" points="488.5,-558 367.5,-558 367.5,-528 488.5,-528 488.5,-558"/>
<text text-anchor="start" x="375.5" y="-546" font-family="Helvetica,sans-Serif" font-size="10.00">qugar::impl::BezierTP</text>
<text text-anchor="middle" x="428" y="-535" font-family="Helvetica,sans-Serif" font-size="10.00">&lt; 3, 1 &gt;</text>
</a>
</g>
</g>
<!-- Node4&#45;&gt;Node12 -->
<g id="edge11_Node000004_Node000012" class="edge">
<title>Node4&#45;&gt;Node12</title>
<g id="a_edge11_Node000004_Node000012"><a xlink:title=" ">
<path fill="none" stroke="#63b8ff" d="M305.28,-596.51C310.28,-594.71 315.24,-592.86 320,-591 345.79,-580.92 374.37,-568 395.51,-558.11"/>
<polygon fill="#63b8ff" stroke="#63b8ff" points="303.93,-593.27 295.66,-599.9 306.25,-599.88 303.93,-593.27"/>
</a>
</g>
</g>
<!-- Node15 -->
<g id="Node000015" class="node">
<title>Node15</title>
<g id="a_Node000015"><a xlink:href="../../de/dca/classqugar_1_1impl_1_1BezierTP.html" target="_top" xlink:title="dim&#45;dimensional tensor&#45;product Bezier polynomial function.">
<polygon fill="white" stroke="#666666" points="488.5,-510 367.5,-510 367.5,-480 488.5,-480 488.5,-510"/>
<text text-anchor="start" x="375.5" y="-498" font-family="Helvetica,sans-Serif" font-size="10.00">qugar::impl::BezierTP</text>
<text text-anchor="middle" x="428" y="-487" font-family="Helvetica,sans-Serif" font-size="10.00">&lt; dim, range &gt;</text>
</a>
</g>
</g>
<!-- Node4&#45;&gt;Node15 -->
<g id="edge14_Node000004_Node000015" class="edge">
<title>Node4&#45;&gt;Node15</title>
<g id="a_edge14_Node000004_Node000015"><a xlink:title=" ">
<path fill="none" stroke="#63b8ff" d="M315.75,-594.37C317.22,-593.3 318.64,-592.18 320,-591 347,-567.53 329.02,-542.5 356,-519 359.92,-515.58 364.36,-512.65 369.04,-510.12"/>
<polygon fill="#63b8ff" stroke="#63b8ff" points="313.5,-591.65 306.87,-599.91 317.2,-597.59 313.5,-591.65"/>
</a>
</g>
</g>
<!-- Node6 -->
<g id="Node000006" class="node">
<title>Node6</title>
<g id="a_Node000006"><a xlink:href="../../dc/d68/classqugar_1_1impl_1_1funcs_1_1AnnulusBzr.html" target="_top" xlink:title="2D annulus function. The function is defined by the annulus center and outer and inner radii....">
<polygon fill="white" stroke="#666666" points="649.5,-774 545.5,-774 545.5,-744 649.5,-744 649.5,-774"/>
<text text-anchor="start" x="553.5" y="-762" font-family="Helvetica,sans-Serif" font-size="10.00">qugar::impl::funcs</text>
<text text-anchor="middle" x="597.5" y="-751" font-family="Helvetica,sans-Serif" font-size="10.00">::AnnulusBzr</text>
</a>
</g>
</g>
<!-- Node5&#45;&gt;Node6 -->
<g id="edge5_Node000005_Node000006" class="edge">
<title>Node5&#45;&gt;Node6</title>
<g id="a_edge5_Node000005_Node000006"><a xlink:title=" ">
<path fill="none" stroke="#63b8ff" d="M493.5,-682.76C495.75,-684.08 497.93,-685.5 500,-687 521.6,-702.64 514.81,-718.81 536,-735 540.4,-738.36 545.33,-741.32 550.43,-743.9"/>
<polygon fill="#63b8ff" stroke="#63b8ff" points="495,-679.59 484.52,-678.04 491.75,-685.79 495,-679.59"/>
</a>
</g>
</g>
<!-- Node8 -->
<g id="Node000008" class="node">
<title>Node8</title>
<g id="a_Node000008"><a xlink:href="../../dd/da4/classqugar_1_1impl_1_1funcs_1_1ConstantBzr.html" target="_top" xlink:title="Dimension independent constant function.">
<polygon fill="white" stroke="#666666" points="659,-726 536,-726 536,-696 659,-696 659,-726"/>
<text text-anchor="start" x="544" y="-714" font-family="Helvetica,sans-Serif" font-size="10.00">qugar::impl::funcs</text>
<text text-anchor="middle" x="597.5" y="-703" font-family="Helvetica,sans-Serif" font-size="10.00">::ConstantBzr&lt; dim &gt;</text>
</a>
</g>
</g>
<!-- Node7&#45;&gt;Node8 -->
<g id="edge7_Node000007_Node000008" class="edge">
<title>Node7&#45;&gt;Node8</title>
<g id="a_edge7_Node000007_Node000008"><a xlink:title=" ">
<path fill="none" stroke="#63b8ff" d="M493.5,-634.76C495.75,-636.08 497.93,-637.5 500,-639 521.6,-654.64 514.81,-670.81 536,-687 540.4,-690.36 545.33,-693.32 550.43,-695.9"/>
<polygon fill="#63b8ff" stroke="#63b8ff" points="495,-631.59 484.52,-630.04 491.75,-637.79 495,-631.59"/>
</a>
</g>
</g>
<!-- Node9 -->
<g id="Node000009" class="node">
<title>Node9</title>
<g id="a_Node000009"><a xlink:href="../../d6/d06/classqugar_1_1impl_1_1funcs_1_1EllipsoidBzr.html" target="_top" xlink:title="Dimension independent ellipsoidal function. The function is defined by the ellipsoid&#39;s semi&#45;axes and ...">
<polygon fill="white" stroke="#666666" points="658,-678 537,-678 537,-648 658,-648 658,-678"/>
<text text-anchor="start" x="545" y="-666" font-family="Helvetica,sans-Serif" font-size="10.00">qugar::impl::funcs</text>
<text text-anchor="middle" x="597.5" y="-655" font-family="Helvetica,sans-Serif" font-size="10.00">::EllipsoidBzr&lt; dim &gt;</text>
</a>
</g>
</g>
<!-- Node7&#45;&gt;Node9 -->
<g id="edge8_Node000007_Node000009" class="edge">
<title>Node7&#45;&gt;Node9</title>
<g id="a_edge8_Node000007_Node000009"><a xlink:title=" ">
<path fill="none" stroke="#63b8ff" d="M491.56,-632.93C508.87,-637.89 527.48,-643.22 544.15,-648"/>
<polygon fill="#63b8ff" stroke="#63b8ff" points="492.12,-629.45 481.54,-630.06 490.19,-636.18 492.12,-629.45"/>
</a>
</g>
</g>
<!-- Node10 -->
<g id="Node000010" class="node">
<title>Node10</title>
<g id="a_Node000010"><a xlink:href="../../dd/d35/classqugar_1_1impl_1_1funcs_1_1PlaneBzr.html" target="_top" xlink:title="Plane function.">
<polygon fill="white" stroke="#666666" points="651,-630 544,-630 544,-600 651,-600 651,-630"/>
<text text-anchor="start" x="552" y="-618" font-family="Helvetica,sans-Serif" font-size="10.00">qugar::impl::funcs</text>
<text text-anchor="middle" x="597.5" y="-607" font-family="Helvetica,sans-Serif" font-size="10.00">::PlaneBzr&lt; dim &gt;</text>
</a>
</g>
</g>
<!-- Node7&#45;&gt;Node10 -->
<g id="edge9_Node000007_Node000010" class="edge">
<title>Node7&#45;&gt;Node10</title>
<g id="a_edge9_Node000007_Node000010"><a xlink:title=" ">
<path fill="none" stroke="#63b8ff" d="M498.83,-615C513.89,-615 529.57,-615 543.85,-615"/>
<polygon fill="#63b8ff" stroke="#63b8ff" points="498.53,-611.5 488.53,-615 498.53,-618.5 498.53,-611.5"/>
</a>
</g>
</g>
<!-- Node11 -->
<g id="Node000011" class="node">
<title>Node11</title>
<g id="a_Node000011"><a xlink:href="../../d1/dfc/classqugar_1_1impl_1_1funcs_1_1SphereBzr.html" target="_top" xlink:title="Dimension independent spherical function. The function is defined by its center and radius....">
<polygon fill="white" stroke="#666666" points="654,-582 541,-582 541,-552 654,-552 654,-582"/>
<text text-anchor="start" x="549" y="-570" font-family="Helvetica,sans-Serif" font-size="10.00">qugar::impl::funcs</text>
<text text-anchor="middle" x="597.5" y="-559" font-family="Helvetica,sans-Serif" font-size="10.00">::SphereBzr&lt; dim &gt;</text>
</a>
</g>
</g>
<!-- Node7&#45;&gt;Node11 -->
<g id="edge10_Node000007_Node000011" class="edge">
<title>Node7&#45;&gt;Node11</title>
<g id="a_edge10_Node000007_Node000011"><a xlink:title=" ">
<path fill="none" stroke="#63b8ff" d="M491.56,-597.07C508.87,-592.11 527.48,-586.78 544.15,-582"/>
<polygon fill="#63b8ff" stroke="#63b8ff" points="490.19,-593.82 481.54,-599.94 492.12,-600.55 490.19,-593.82"/>
</a>
</g>
</g>
<!-- Node13 -->
<g id="Node000013" class="node">
<title>Node13</title>
<g id="a_Node000013"><a xlink:href="../../dc/de2/classqugar_1_1impl_1_1funcs_1_1CylinderBzr.html" target="_top" xlink:title="Infinite cylinder.">
<polygon fill="white" stroke="#666666" points="649.5,-534 545.5,-534 545.5,-504 649.5,-504 649.5,-534"/>
<text text-anchor="start" x="553.5" y="-522" font-family="Helvetica,sans-Serif" font-size="10.00">qugar::impl::funcs</text>
<text text-anchor="middle" x="597.5" y="-511" font-family="Helvetica,sans-Serif" font-size="10.00">::CylinderBzr</text>
</a>
</g>
</g>
<!-- Node12&#45;&gt;Node13 -->
<g id="edge12_Node000012_Node000013" class="edge">
<title>Node12&#45;&gt;Node13</title>
<g id="a_edge12_Node000012_Node000013"><a xlink:title=" ">
<path fill="none" stroke="#63b8ff" d="M498.71,-533.01C514.39,-530.77 530.74,-528.42 545.49,-526.31"/>
<polygon fill="#63b8ff" stroke="#63b8ff" points="497.93,-529.59 488.53,-534.47 498.92,-536.52 497.93,-529.59"/>
</a>
</g>
</g>
<!-- Node14 -->
<g id="Node000014" class="node">
<title>Node14</title>
<g id="a_Node000014"><a xlink:href="../../d0/dc9/classqugar_1_1impl_1_1funcs_1_1TorusBzr.html" target="_top" xlink:title="3D torus function. The function is defined by the torus center, axis, and major and inner radii....">
<polygon fill="white" stroke="#666666" points="649.5,-486 545.5,-486 545.5,-456 649.5,-456 649.5,-486"/>
<text text-anchor="start" x="553.5" y="-474" font-family="Helvetica,sans-Serif" font-size="10.00">qugar::impl::funcs</text>
<text text-anchor="middle" x="597.5" y="-463" font-family="Helvetica,sans-Serif" font-size="10.00">::TorusBzr</text>
</a>
</g>
</g>
<!-- Node12&#45;&gt;Node14 -->
<g id="edge13_Node000012_Node000014" class="edge">
<title>Node12&#45;&gt;Node14</title>
<g id="a_edge13_Node000012_Node000014"><a xlink:title=" ">
<path fill="none" stroke="#63b8ff" d="M488.34,-524.26C492.34,-522.6 496.26,-520.84 500,-519 517.26,-510.52 518.97,-503.93 536,-495 542,-491.85 548.52,-488.86 554.97,-486.13"/>
<polygon fill="#63b8ff" stroke="#63b8ff" points="486.96,-521.04 478.94,-527.97 489.53,-527.56 486.96,-521.04"/>
</a>
</g>
</g>
<!-- Node22 -->
<g id="Node000022" class="node">
<title>Node22</title>
<g id="a_Node000022"><a xlink:href="../../d8/dba/classqugar_1_1impl_1_1funcs_1_1DimLinear.html" target="_top" xlink:title="dim&#45;linear function.">
<polygon fill="white" stroke="#666666" points="485,-384 371,-384 371,-354 485,-354 485,-384"/>
<text text-anchor="start" x="379" y="-372" font-family="Helvetica,sans-Serif" font-size="10.00">qugar::impl::funcs</text>
<text text-anchor="middle" x="428" y="-361" font-family="Helvetica,sans-Serif" font-size="10.00">::DimLinear&lt; dim &gt;</text>
</a>
</g>
</g>
<!-- Node21&#45;&gt;Node22 -->
<g id="edge21_Node000021_Node000022" class="edge">
<title>Node21&#45;&gt;Node22</title>
<g id="a_edge21_Node000021_Node000022"><a xlink:title=" ">
<path fill="none" stroke="#63b8ff" d="M320.04,-340.24C337,-344.8 354.85,-349.6 371,-353.94"/>
<polygon fill="#63b8ff" stroke="#63b8ff" points="320.75,-336.8 310.18,-337.59 318.93,-343.56 320.75,-336.8"/>
</a>
</g>
</g>
<!-- Node23 -->
<g id="Node000023" class="node">
<title>Node23</title>
<g id="a_Node000023"><a xlink:href="../../da/d38/classqugar_1_1impl_1_1funcs_1_1Square.html" target="_top" xlink:title="Dimension independent square function in domain [&#45;1,1]^dim.">
<polygon fill="white" stroke="#666666" points="480,-336 376,-336 376,-306 480,-306 480,-336"/>
<text text-anchor="start" x="384" y="-324" font-family="Helvetica,sans-Serif" font-size="10.00">qugar::impl::funcs</text>
<text text-anchor="middle" x="428" y="-313" font-family="Helvetica,sans-Serif" font-size="10.00">::Square&lt; dim &gt;</text>
</a>
</g>
</g>
<!-- Node21&#45;&gt;Node23 -->
<g id="edge22_Node000021_Node000023" class="edge">
<title>Node21&#45;&gt;Node23</title>
<g id="a_edge22_Node000021_Node000023"><a xlink:title=" ">
<path fill="none" stroke="#63b8ff" d="M320.39,-321C339.01,-321 358.67,-321 375.97,-321"/>
<polygon fill="#63b8ff" stroke="#63b8ff" points="320.18,-317.5 310.18,-321 320.18,-324.5 320.18,-317.5"/>
</a>
</g>
</g>
<!-- Node24 -->
<g id="Node000024" class="node">
<title>Node24</title>
<g id="a_Node000024"><a xlink:href="../../da/db2/classqugar_1_1impl_1_1funcs_1_1TransformedFunction.html" target="_top" xlink:title="Creates a new implicit function that is just a base function to which an affine transformation is app...">
<polygon fill="white" stroke="#666666" points="490.5,-287.5 365.5,-287.5 365.5,-246.5 490.5,-246.5 490.5,-287.5"/>
<text text-anchor="start" x="373.5" y="-275.5" font-family="Helvetica,sans-Serif" font-size="10.00">qugar::impl::funcs</text>
<text text-anchor="start" x="373.5" y="-264.5" font-family="Helvetica,sans-Serif" font-size="10.00">::TransformedFunction</text>
<text text-anchor="middle" x="428" y="-253.5" font-family="Helvetica,sans-Serif" font-size="10.00">&lt; dim &gt;</text>
</a>
</g>
</g>
<!-- Node21&#45;&gt;Node24 -->
<g id="edge23_Node000021_Node000024" class="edge">
<title>Node21&#45;&gt;Node24</title>
<g id="a_edge23_Node000021_Node000024"><a xlink:title=" ">
<path fill="none" stroke="#63b8ff" d="M319.93,-299.39C334.96,-294.84 350.69,-290.09 365.32,-285.66"/>
<polygon fill="#63b8ff" stroke="#63b8ff" points="318.74,-296.09 310.18,-302.34 320.76,-302.8 318.74,-296.09"/>
</a>
</g>
</g>
</g>
</svg>
