<?xml version="1.0" encoding="UTF-8" standalone="no"?>
<!DOCTYPE svg PUBLIC "-//W3C//DTD SVG 1.1//EN"
 "http://www.w3.org/Graphics/SVG/1.1/DTD/svg11.dtd">
<!-- Generated by graphviz version 2.43.0 (0)
 -->
<!-- Title: /__w/qugar/qugar/cpp/include/qugar/unfitted_domain_binary_part.hpp Pages: 1 -->
<svg width="752pt" height="434pt"
 viewBox="0.00 0.00 751.50 434.00" xmlns="http://www.w3.org/2000/svg" xmlns:xlink="http://www.w3.org/1999/xlink">
<g id="graph0" class="graph" transform="scale(1 1) rotate(0) translate(4 430)">
<title>/__w/qugar/qugar/cpp/include/qugar/unfitted_domain_binary_part.hpp</title>
<!-- Node1 -->
<g id="Node000001" class="node">
<title>Node1</title>
<g id="a_Node000001"><a xlink:title="Declaration of of UnfittedDomain class.">
<polygon fill="#999999" stroke="#666666" points="364.5,-426 224.5,-426 224.5,-385 364.5,-385 364.5,-426"/>
<text text-anchor="start" x="232.5" y="-414" font-family="Helvetica,sans-Serif" font-size="10.00">/__w/qugar/qugar/cpp</text>
<text text-anchor="start" x="232.5" y="-403" font-family="Helvetica,sans-Serif" font-size="10.00">/include/qugar/unfitted</text>
<text text-anchor="middle" x="294.5" y="-392" font-family="Helvetica,sans-Serif" font-size="10.00">_domain_binary_part.hpp</text>
</a>
</g>
</g>
<!-- Node2 -->
<g id="Node000002" class="node">
<title>Node2</title>
<g id="a_Node000002"><a xlink:href="../../d6/d03/impl__unfitted__domain_8hpp.html" target="_top" xlink:title="Declaration of of UnfittedImplDomain class.">
<polygon fill="white" stroke="#666666" points="292,-272 139,-272 139,-231 292,-231 292,-272"/>
<text text-anchor="start" x="147" y="-260" font-family="Helvetica,sans-Serif" font-size="10.00">/__w/qugar/qugar/cpp</text>
<text text-anchor="start" x="147" y="-249" font-family="Helvetica,sans-Serif" font-size="10.00">/include/qugar/impl_unfitted</text>
<text text-anchor="middle" x="215.5" y="-238" font-family="Helvetica,sans-Serif" font-size="10.00">_domain.hpp</text>
</a>
</g>
</g>
<!-- Node1&#45;&gt;Node2 -->
<g id="edge1_Node000001_Node000002" class="edge">
<title>Node1&#45;&gt;Node2</title>
<g id="a_edge1_Node000001_Node000002"><a xlink:title=" ">
<path fill="none" stroke="#63b8ff" d="M279.56,-375.76C263.87,-345.57 239.6,-298.87 225.88,-272.47"/>
<polygon fill="#63b8ff" stroke="#63b8ff" points="276.62,-377.68 284.33,-384.94 282.83,-374.45 276.62,-377.68"/>
</a>
</g>
</g>
<!-- Node7 -->
<g id="Node000007" class="node">
<title>Node7</title>
<g id="a_Node000007"><a xlink:href="../../d2/dfd/unfitted__domain_8hpp.html" target="_top" xlink:title="Declaration of of UnfittedDomain class.">
<polygon fill="white" stroke="#666666" points="420.5,-349 294.5,-349 294.5,-308 420.5,-308 420.5,-349"/>
<text text-anchor="start" x="302.5" y="-337" font-family="Helvetica,sans-Serif" font-size="10.00">/__w/qugar/qugar/cpp</text>
<text text-anchor="start" x="302.5" y="-326" font-family="Helvetica,sans-Serif" font-size="10.00">/include/qugar/unfitted</text>
<text text-anchor="middle" x="357.5" y="-315" font-family="Helvetica,sans-Serif" font-size="10.00">_domain.hpp</text>
</a>
</g>
</g>
<!-- Node1&#45;&gt;Node7 -->
<g id="edge8_Node000001_Node000007" class="edge">
<title>Node1&#45;&gt;Node7</title>
<g id="a_edge8_Node000001_Node000007"><a xlink:title=" ">
<path fill="none" stroke="#63b8ff" d="M317.64,-376.95C325.41,-367.7 333.91,-357.58 341.06,-349.07"/>
<polygon fill="#63b8ff" stroke="#63b8ff" points="314.8,-374.89 311.05,-384.79 320.16,-379.39 314.8,-374.89"/>
</a>
</g>
</g>
<!-- Node3 -->
<g id="Node000003" class="node">
<title>Node3</title>
<g id="a_Node000003"><a xlink:href="../../d0/d6f/demo__quad__sphere_2main_8cpp.html" target="_top" xlink:title=" ">
<polygon fill="white" stroke="#666666" points="743.5,-118 597.5,-118 597.5,-77 743.5,-77 743.5,-118"/>
<text text-anchor="start" x="605.5" y="-106" font-family="Helvetica,sans-Serif" font-size="10.00">/__w/qugar/qugar/cpp</text>
<text text-anchor="start" x="605.5" y="-95" font-family="Helvetica,sans-Serif" font-size="10.00">/demo/demo_quad_sphere</text>
<text text-anchor="middle" x="670.5" y="-84" font-family="Helvetica,sans-Serif" font-size="10.00">/main.cpp</text>
</a>
</g>
</g>
<!-- Node2&#45;&gt;Node3 -->
<g id="edge2_Node000002_Node000003" class="edge">
<title>Node2&#45;&gt;Node3</title>
<g id="a_edge2_Node000002_Node000003"><a xlink:title=" ">
<path fill="none" stroke="#63b8ff" d="M301.96,-230.6C344.66,-219.82 390.95,-206.4 409.5,-195 430.67,-181.99 426.11,-166.64 447.5,-154 450.87,-152.01 533.72,-131.65 597.45,-116.16"/>
<polygon fill="#63b8ff" stroke="#63b8ff" points="300.91,-227.25 292.06,-233.07 302.61,-234.05 300.91,-227.25"/>
</a>
</g>
</g>
<!-- Node4 -->
<g id="Node000004" class="node">
<title>Node4</title>
<g id="a_Node000004"><a xlink:href="../../d2/d66/demo__reparam__gyroid_2main_8cpp.html" target="_top" xlink:title=" ">
<polygon fill="white" stroke="#666666" points="161,-41 0,-41 0,0 161,0 161,-41"/>
<text text-anchor="start" x="8" y="-29" font-family="Helvetica,sans-Serif" font-size="10.00">/__w/qugar/qugar/cpp</text>
<text text-anchor="start" x="8" y="-18" font-family="Helvetica,sans-Serif" font-size="10.00">/demo/demo_reparam_gyroid</text>
<text text-anchor="middle" x="80.5" y="-7" font-family="Helvetica,sans-Serif" font-size="10.00">/main.cpp</text>
</a>
</g>
</g>
<!-- Node2&#45;&gt;Node4 -->
<g id="edge3_Node000002_Node000004" class="edge">
<title>Node2&#45;&gt;Node4</title>
<g id="a_edge3_Node000002_Node000004"><a xlink:title=" ">
<path fill="none" stroke="#63b8ff" d="M161.5,-226.25C120.23,-204.45 66.34,-168.13 41.5,-118 33.41,-101.67 36.01,-94.37 41.5,-77 45.65,-63.86 54.16,-51.14 62.17,-41.2"/>
<polygon fill="#63b8ff" stroke="#63b8ff" points="160.14,-229.49 170.63,-230.95 163.34,-223.26 160.14,-229.49"/>
</a>
</g>
</g>
<!-- Node5 -->
<g id="Node000005" class="node">
<title>Node5</title>
<g id="a_Node000005"><a xlink:href="../../d6/dc8/impl__quadrature_8hpp.html" target="_top" xlink:title="Declaration of quadratures for general implicit functions on grids.">
<polygon fill="white" stroke="#666666" points="646.5,-189.5 456.5,-189.5 456.5,-159.5 646.5,-159.5 646.5,-189.5"/>
<text text-anchor="start" x="464.5" y="-177.5" font-family="Helvetica,sans-Serif" font-size="10.00">/__w/qugar/qugar/cpp</text>
<text text-anchor="middle" x="551.5" y="-166.5" font-family="Helvetica,sans-Serif" font-size="10.00">/include/qugar/impl_quadrature.hpp</text>
</a>
</g>
</g>
<!-- Node2&#45;&gt;Node5 -->
<g id="edge4_Node000002_Node000005" class="edge">
<title>Node2&#45;&gt;Node5</title>
<g id="a_edge4_Node000002_Node000005"><a xlink:title=" ">
<path fill="none" stroke="#63b8ff" d="M302.17,-230.85C371.42,-215.33 439.76,-200.18 488.03,-189.51"/>
<polygon fill="#63b8ff" stroke="#63b8ff" points="301.38,-227.44 292.39,-233.05 302.91,-234.27 301.38,-227.44"/>
</a>
</g>
</g>
<!-- Node6 -->
<g id="Node000006" class="node">
<title>Node6</title>
<g id="a_Node000006"><a xlink:href="../../d0/d4c/impl__reparam_8hpp.html" target="_top" xlink:title="Declaration of reparameterization generization tools implicit functions on grids.">
<polygon fill="white" stroke="#666666" points="228.5,-112.5 50.5,-112.5 50.5,-82.5 228.5,-82.5 228.5,-112.5"/>
<text text-anchor="start" x="58.5" y="-100.5" font-family="Helvetica,sans-Serif" font-size="10.00">/__w/qugar/qugar/cpp</text>
<text text-anchor="middle" x="139.5" y="-89.5" font-family="Helvetica,sans-Serif" font-size="10.00">/include/qugar/impl_reparam.hpp</text>
</a>
</g>
</g>
<!-- Node2&#45;&gt;Node6 -->
<g id="edge6_Node000002_Node000006" class="edge">
<title>Node2&#45;&gt;Node6</title>
<g id="a_edge6_Node000002_Node000006"><a xlink:title=" ">
<path fill="none" stroke="#63b8ff" d="M201.2,-221.9C184.9,-189.31 158.93,-137.37 146.53,-112.57"/>
<polygon fill="#63b8ff" stroke="#63b8ff" points="198.12,-223.56 205.72,-230.94 204.38,-220.43 198.12,-223.56"/>
</a>
</g>
</g>
<!-- Node5&#45;&gt;Node3 -->
<g id="edge5_Node000005_Node000003" class="edge">
<title>Node5&#45;&gt;Node3</title>
<g id="a_edge5_Node000005_Node000003"><a xlink:title=" ">
<path fill="none" stroke="#63b8ff" d="M582.58,-153.91C600.03,-142.91 621.75,-129.22 639.24,-118.2"/>
<polygon fill="#63b8ff" stroke="#63b8ff" points="580.48,-151.1 573.88,-159.39 584.21,-157.02 580.48,-151.1"/>
</a>
</g>
</g>
<!-- Node6&#45;&gt;Node4 -->
<g id="edge7_Node000006_Node000004" class="edge">
<title>Node6&#45;&gt;Node4</title>
<g id="a_edge7_Node000006_Node000004"><a xlink:title=" ">
<path fill="none" stroke="#63b8ff" d="M122.15,-74.45C113.87,-63.92 104.03,-51.41 96,-41.2"/>
<polygon fill="#63b8ff" stroke="#63b8ff" points="119.47,-76.7 128.4,-82.39 124.97,-72.37 119.47,-76.7"/>
</a>
</g>
</g>
<!-- Node7&#45;&gt;Node2 -->
<g id="edge12_Node000007_Node000002" class="edge">
<title>Node7&#45;&gt;Node2</title>
<g id="a_edge12_Node000007_Node000002"><a xlink:title=" ">
<path fill="none" stroke="#63b8ff" d="M311.48,-303.19C292.47,-293.15 270.73,-281.67 252.75,-272.17"/>
<polygon fill="#63b8ff" stroke="#63b8ff" points="310.08,-306.41 320.56,-307.99 313.35,-300.23 310.08,-306.41"/>
</a>
</g>
</g>
<!-- Node8 -->
<g id="Node000008" class="node">
<title>Node8</title>
<g id="a_Node000008"><a xlink:href="../../d1/daf/cut__quadrature_8hpp.html" target="_top" xlink:title="Definition of cut quadrature for unfitted domains.">
<polygon fill="white" stroke="#666666" points="643,-266.5 460,-266.5 460,-236.5 643,-236.5 643,-266.5"/>
<text text-anchor="start" x="468" y="-254.5" font-family="Helvetica,sans-Serif" font-size="10.00">/__w/qugar/qugar/cpp</text>
<text text-anchor="middle" x="551.5" y="-243.5" font-family="Helvetica,sans-Serif" font-size="10.00">/include/qugar/cut_quadrature.hpp</text>
</a>
</g>
</g>
<!-- Node7&#45;&gt;Node8 -->
<g id="edge9_Node000007_Node000008" class="edge">
<title>Node7&#45;&gt;Node8</title>
<g id="a_edge9_Node000007_Node000008"><a xlink:title=" ">
<path fill="none" stroke="#63b8ff" d="M417.64,-304.25C449.54,-291.92 487.68,-277.17 515.07,-266.58"/>
<polygon fill="#63b8ff" stroke="#63b8ff" points="416.03,-301.12 407.96,-307.99 418.55,-307.65 416.03,-301.12"/>
</a>
</g>
</g>
<!-- Node9 -->
<g id="Node000009" class="node">
<title>Node9</title>
<g id="a_Node000009"><a xlink:href="../../d8/ddc/reparam__mesh_8hpp.html" target="_top" xlink:title="Declaration of reparameterization class.">
<polygon fill="white" stroke="#666666" points="440.5,-272 310.5,-272 310.5,-231 440.5,-231 440.5,-272"/>
<text text-anchor="start" x="318.5" y="-260" font-family="Helvetica,sans-Serif" font-size="10.00">/__w/qugar/qugar/cpp</text>
<text text-anchor="start" x="318.5" y="-249" font-family="Helvetica,sans-Serif" font-size="10.00">/include/qugar/reparam</text>
<text text-anchor="middle" x="375.5" y="-238" font-family="Helvetica,sans-Serif" font-size="10.00">_mesh.hpp</text>
</a>
</g>
</g>
<!-- Node7&#45;&gt;Node9 -->
<g id="edge13_Node000007_Node000009" class="edge">
<title>Node7&#45;&gt;Node9</title>
<g id="a_edge13_Node000007_Node000009"><a xlink:title=" ">
<path fill="none" stroke="#63b8ff" d="M364.59,-297.98C366.67,-289.28 368.9,-279.98 370.8,-272.07"/>
<polygon fill="#63b8ff" stroke="#63b8ff" points="361.16,-297.25 362.23,-307.79 367.97,-298.89 361.16,-297.25"/>
</a>
</g>
</g>
<!-- Node8&#45;&gt;Node3 -->
<g id="edge10_Node000008_Node000003" class="edge">
<title>Node8&#45;&gt;Node3</title>
<g id="a_edge10_Node000008_Node000003"><a xlink:title=" ">
<path fill="none" stroke="#63b8ff" d="M607.29,-232.29C625.33,-223.72 643.7,-211.63 655.5,-195 671.6,-172.33 673.23,-139.1 672.32,-118.15"/>
<polygon fill="#63b8ff" stroke="#63b8ff" points="605.64,-229.19 597.93,-236.45 608.49,-235.58 605.64,-229.19"/>
</a>
</g>
</g>
<!-- Node8&#45;&gt;Node5 -->
<g id="edge11_Node000008_Node000005" class="edge">
<title>Node8&#45;&gt;Node5</title>
<g id="a_edge11_Node000008_Node000005"><a xlink:title=" ">
<path fill="none" stroke="#63b8ff" d="M551.5,-226.04C551.5,-213.95 551.5,-199.79 551.5,-189.54"/>
<polygon fill="#63b8ff" stroke="#63b8ff" points="548,-226.39 551.5,-236.39 555,-226.39 548,-226.39"/>
</a>
</g>
</g>
<!-- Node10 -->
<g id="Node000010" class="node">
<title>Node10</title>
<g id="a_Node000010"><a xlink:href="../../d3/d42/impl__reparam__mesh_8hpp.html" target="_top" xlink:title="Declaration of reparameterization class.">
<polygon fill="white" stroke="#666666" points="400,-195 243,-195 243,-154 400,-154 400,-195"/>
<text text-anchor="start" x="251" y="-183" font-family="Helvetica,sans-Serif" font-size="10.00">/__w/qugar/qugar/cpp</text>
<text text-anchor="start" x="251" y="-172" font-family="Helvetica,sans-Serif" font-size="10.00">/include/qugar/impl_reparam</text>
<text text-anchor="middle" x="321.5" y="-161" font-family="Helvetica,sans-Serif" font-size="10.00">_mesh.hpp</text>
</a>
</g>
</g>
<!-- Node9&#45;&gt;Node10 -->
<g id="edge14_Node000009_Node000010" class="edge">
<title>Node9&#45;&gt;Node10</title>
<g id="a_edge14_Node000009_Node000010"><a xlink:title=" ">
<path fill="none" stroke="#63b8ff" d="M355.46,-222.67C348.86,-213.5 341.66,-203.5 335.59,-195.07"/>
<polygon fill="#63b8ff" stroke="#63b8ff" points="352.63,-224.72 361.31,-230.79 358.31,-220.63 352.63,-224.72"/>
</a>
</g>
</g>
<!-- Node10&#45;&gt;Node6 -->
<g id="edge15_Node000010_Node000006" class="edge">
<title>Node10&#45;&gt;Node6</title>
<g id="a_edge15_Node000010_Node000006"><a xlink:title=" ">
<path fill="none" stroke="#63b8ff" d="M264.69,-150.09C234.85,-137.79 199.26,-123.13 173.67,-112.58"/>
<polygon fill="#63b8ff" stroke="#63b8ff" points="263.58,-153.42 274.16,-153.99 266.24,-146.94 263.58,-153.42"/>
</a>
</g>
</g>
<!-- Node11 -->
<g id="Node000011" class="node">
<title>Node11</title>
<g id="a_Node000011"><a xlink:href="../../d6/d87/impl__reparam__bezier_8hpp.html" target="_top" xlink:title="Declaration of tools for creating Bezier reparameterizations.">
<polygon fill="white" stroke="#666666" points="579,-118 422,-118 422,-77 579,-77 579,-118"/>
<text text-anchor="start" x="430" y="-106" font-family="Helvetica,sans-Serif" font-size="10.00">/__w/qugar/qugar/cpp</text>
<text text-anchor="start" x="430" y="-95" font-family="Helvetica,sans-Serif" font-size="10.00">/include/qugar/impl_reparam</text>
<text text-anchor="middle" x="500.5" y="-84" font-family="Helvetica,sans-Serif" font-size="10.00">_bezier.hpp</text>
</a>
</g>
</g>
<!-- Node10&#45;&gt;Node11 -->
<g id="edge16_Node000010_Node000011" class="edge">
<title>Node10&#45;&gt;Node11</title>
<g id="a_edge16_Node000010_Node000011"><a xlink:title=" ">
<path fill="none" stroke="#63b8ff" d="M377.6,-150C402.11,-139.72 430.53,-127.82 453.86,-118.04"/>
<polygon fill="#63b8ff" stroke="#63b8ff" points="375.93,-146.9 368.06,-153.99 378.64,-153.35 375.93,-146.9"/>
</a>
</g>
</g>
<!-- Node12 -->
<g id="Node000012" class="node">
<title>Node12</title>
<g id="a_Node000012"><a xlink:href="../../d5/da9/impl__reparam__general_8hpp.html" target="_top" xlink:title="Declaration of tools for creating reparameterizations of general functions.">
<polygon fill="white" stroke="#666666" points="404,-118 247,-118 247,-77 404,-77 404,-118"/>
<text text-anchor="start" x="255" y="-106" font-family="Helvetica,sans-Serif" font-size="10.00">/__w/qugar/qugar/cpp</text>
<text text-anchor="start" x="255" y="-95" font-family="Helvetica,sans-Serif" font-size="10.00">/include/qugar/impl_reparam</text>
<text text-anchor="middle" x="325.5" y="-84" font-family="Helvetica,sans-Serif" font-size="10.00">_general.hpp</text>
</a>
</g>
</g>
<!-- Node10&#45;&gt;Node12 -->
<g id="edge17_Node000010_Node000012" class="edge">
<title>Node10&#45;&gt;Node12</title>
<g id="a_edge17_Node000010_Node000012"><a xlink:title=" ">
<path fill="none" stroke="#63b8ff" d="M323.09,-143.69C323.55,-135.08 324.04,-125.9 324.46,-118.07"/>
<polygon fill="#63b8ff" stroke="#63b8ff" points="319.59,-143.62 322.55,-153.79 326.58,-144 319.59,-143.62"/>
</a>
</g>
</g>
</g>
</svg>
