<?xml version="1.0" encoding="UTF-8" standalone="no"?>
<!DOCTYPE svg PUBLIC "-//W3C//DTD SVG 1.1//EN"
 "http://www.w3.org/Graphics/SVG/1.1/DTD/svg11.dtd">
<!-- Generated by graphviz version 2.43.0 (0)
 -->
<!-- Title: /__w/qugar/qugar/cpp/include/qugar/impl_reparam_mesh.hpp Pages: 1 -->
<svg width="1789pt" height="511pt"
 viewBox="0.00 0.00 1789.00 511.00" xmlns="http://www.w3.org/2000/svg" xmlns:xlink="http://www.w3.org/1999/xlink">
<g id="graph0" class="graph" transform="scale(1 1) rotate(0) translate(4 507)">
<title>/__w/qugar/qugar/cpp/include/qugar/impl_reparam_mesh.hpp</title>
<!-- Node1 -->
<g id="Node000001" class="node">
<title>Node1</title>
<g id="a_Node000001"><a xlink:title="Declaration of reparameterization class.">
<polygon fill="#999999" stroke="#666666" points="1351.5,-503 1194.5,-503 1194.5,-462 1351.5,-462 1351.5,-503"/>
<text text-anchor="start" x="1202.5" y="-491" font-family="Helvetica,sans-Serif" font-size="10.00">/__w/qugar/qugar/cpp</text>
<text text-anchor="start" x="1202.5" y="-480" font-family="Helvetica,sans-Serif" font-size="10.00">/include/qugar/impl_reparam</text>
<text text-anchor="middle" x="1273" y="-469" font-family="Helvetica,sans-Serif" font-size="10.00">_mesh.hpp</text>
</a>
</g>
</g>
<!-- Node2 -->
<g id="Node000002" class="node">
<title>Node2</title>
<g id="a_Node000002"><a xlink:href="../../d5/d90/bbox_8hpp.html" target="_top" xlink:title="Definition of Cartesian bounding box class.">
<polygon fill="white" stroke="#666666" points="677,-189.5 585,-189.5 585,-170.5 677,-170.5 677,-189.5"/>
<text text-anchor="middle" x="631" y="-177.5" font-family="Helvetica,sans-Serif" font-size="10.00">qugar/bbox.hpp</text>
</a>
</g>
</g>
<!-- Node1&#45;&gt;Node2 -->
<g id="edge1_Node000001_Node000002" class="edge">
<title>Node1&#45;&gt;Node2</title>
<g id="a_edge1_Node000001_Node000002"><a xlink:title=" ">
<path fill="none" stroke="#63b8ff" d="M1194.27,-477.47C1120.77,-471.81 1008.93,-458.26 917,-426 790.15,-381.49 747.52,-360.53 671,-250 659.46,-233.33 648.03,-213.15 640.36,-198.93"/>
<polygon fill="#63b8ff" stroke="#63b8ff" points="643.28,-196.96 635.5,-189.77 637.1,-200.24 643.28,-196.96"/>
</a>
</g>
</g>
<!-- Node4 -->
<g id="Node000004" class="node">
<title>Node4</title>
<g id="a_Node000004"><a xlink:href="../../d0/de4/point_8hpp.html" target="_top" xlink:title="Definition and implementation of Point class.">
<polygon fill="white" stroke="#666666" points="404.5,-129 311.5,-129 311.5,-110 404.5,-110 404.5,-129"/>
<text text-anchor="middle" x="358" y="-117" font-family="Helvetica,sans-Serif" font-size="10.00">qugar/point.hpp</text>
</a>
</g>
</g>
<!-- Node1&#45;&gt;Node4 -->
<g id="edge45_Node000001_Node000004" class="edge">
<title>Node1&#45;&gt;Node4</title>
<g id="a_edge45_Node000001_Node000004"><a xlink:title=" ">
<path fill="none" stroke="#63b8ff" d="M1194.22,-479.58C970.77,-473.09 349,-447.41 349,-362.5 349,-362.5 349,-362.5 349,-239.5 349,-204.05 353.02,-162.83 355.69,-139.39"/>
<polygon fill="#63b8ff" stroke="#63b8ff" points="359.2,-139.48 356.9,-129.14 352.25,-138.66 359.2,-139.48"/>
</a>
</g>
</g>
<!-- Node6 -->
<g id="Node000006" class="node">
<title>Node6</title>
<g id="a_Node000006"><a xlink:title=" ">
<polygon fill="#e0e0e0" stroke="#999999" points="1131.5,-19 1078.5,-19 1078.5,0 1131.5,0 1131.5,-19"/>
<text text-anchor="middle" x="1105" y="-7" font-family="Helvetica,sans-Serif" font-size="10.00">cstddef</text>
</a>
</g>
</g>
<!-- Node1&#45;&gt;Node6 -->
<g id="edge78_Node000001_Node000006" class="edge">
<title>Node1&#45;&gt;Node6</title>
<g id="a_edge78_Node000001_Node000006"><a xlink:title=" ">
<path fill="none" stroke="#63b8ff" d="M1351.54,-479.25C1494.13,-473.01 1781,-449.63 1781,-362.5 1781,-362.5 1781,-362.5 1781,-118.5 1781,-44.47 1698.95,-72.46 1627,-55 1448.82,-11.76 1227.57,-9.03 1141.57,-9.82"/>
<polygon fill="#63b8ff" stroke="#63b8ff" points="1141.49,-6.32 1131.53,-9.93 1141.57,-13.32 1141.49,-6.32"/>
</a>
</g>
</g>
<!-- Node9 -->
<g id="Node000009" class="node">
<title>Node9</title>
<g id="a_Node000009"><a xlink:title=" ">
<polygon fill="#e0e0e0" stroke="#999999" points="1442.5,-74 1395.5,-74 1395.5,-55 1442.5,-55 1442.5,-74"/>
<text text-anchor="middle" x="1419" y="-62" font-family="Helvetica,sans-Serif" font-size="10.00">vector</text>
</a>
</g>
</g>
<!-- Node1&#45;&gt;Node9 -->
<g id="edge82_Node000001_Node000009" class="edge">
<title>Node1&#45;&gt;Node9</title>
<g id="a_edge82_Node000001_Node000009"><a xlink:title=" ">
<path fill="none" stroke="#63b8ff" d="M1351.67,-477.73C1485.46,-469.14 1743,-442.25 1743,-362.5 1743,-362.5 1743,-362.5 1743,-179 1743,-117.91 1535.27,-81.88 1452.47,-69.95"/>
<polygon fill="#63b8ff" stroke="#63b8ff" points="1452.95,-66.48 1442.56,-68.55 1451.97,-73.41 1452.95,-66.48"/>
</a>
</g>
</g>
<!-- Node12 -->
<g id="Node000012" class="node">
<title>Node12</title>
<g id="a_Node000012"><a xlink:href="../../d6/d49/cart__grid__tp_8hpp.html" target="_top" xlink:title="Definition of Cartesian grid class.">
<polygon fill="white" stroke="#666666" points="865,-250 739,-250 739,-231 865,-231 865,-250"/>
<text text-anchor="middle" x="802" y="-238" font-family="Helvetica,sans-Serif" font-size="10.00">qugar/cart_grid_tp.hpp</text>
</a>
</g>
</g>
<!-- Node1&#45;&gt;Node12 -->
<g id="edge14_Node000001_Node000012" class="edge">
<title>Node1&#45;&gt;Node12</title>
<g id="a_edge14_Node000001_Node000012"><a xlink:title=" ">
<path fill="none" stroke="#63b8ff" d="M1194.1,-476.53C1104.45,-467.51 957.1,-442.17 853,-371 828.05,-353.94 824.43,-343.98 813,-316 805.67,-298.06 803.14,-275.92 802.31,-260.46"/>
<polygon fill="#63b8ff" stroke="#63b8ff" points="805.8,-259.99 801.96,-250.11 798.8,-260.23 805.8,-259.99"/>
</a>
</g>
</g>
<!-- Node13 -->
<g id="Node000013" class="node">
<title>Node13</title>
<g id="a_Node000013"><a xlink:href="../../d9/d43/tensor__index__tp_8hpp.html" target="_top" xlink:title="Declaration of tensor&#45;product index and size related classes.">
<polygon fill="white" stroke="#666666" points="1335,-195 1225,-195 1225,-165 1335,-165 1335,-195"/>
<text text-anchor="start" x="1233" y="-183" font-family="Helvetica,sans-Serif" font-size="10.00">qugar/tensor_index</text>
<text text-anchor="middle" x="1280" y="-172" font-family="Helvetica,sans-Serif" font-size="10.00">_tp.hpp</text>
</a>
</g>
</g>
<!-- Node1&#45;&gt;Node13 -->
<g id="edge76_Node000001_Node000013" class="edge">
<title>Node1&#45;&gt;Node13</title>
<g id="a_edge76_Node000001_Node000013"><a xlink:title=" ">
<path fill="none" stroke="#63b8ff" d="M1337.81,-461.86C1380.42,-445.15 1432.79,-416.48 1458,-371 1498.72,-297.52 1386.49,-230.59 1321.94,-199.43"/>
<polygon fill="#63b8ff" stroke="#63b8ff" points="1323.32,-196.21 1312.78,-195.09 1320.32,-202.53 1323.32,-196.21"/>
</a>
</g>
</g>
<!-- Node17 -->
<g id="Node000017" class="node">
<title>Node17</title>
<g id="a_Node000017"><a xlink:title=" ">
<polygon fill="#e0e0e0" stroke="#999999" points="1530.5,-129 1465.5,-129 1465.5,-110 1530.5,-110 1530.5,-129"/>
<text text-anchor="middle" x="1498" y="-117" font-family="Helvetica,sans-Serif" font-size="10.00">functional</text>
</a>
</g>
</g>
<!-- Node1&#45;&gt;Node17 -->
<g id="edge79_Node000001_Node000017" class="edge">
<title>Node1&#45;&gt;Node17</title>
<g id="a_edge79_Node000001_Node000017"><a xlink:title=" ">
<path fill="none" stroke="#63b8ff" d="M1351.9,-463.27C1378.57,-454.72 1407.52,-442.65 1431,-426 1456.53,-407.89 1463.3,-400.03 1475,-371 1507.75,-289.74 1503.3,-182.01 1499.84,-139.2"/>
<polygon fill="#63b8ff" stroke="#63b8ff" points="1503.31,-138.78 1498.94,-129.13 1496.34,-139.4 1503.31,-138.78"/>
</a>
</g>
</g>
<!-- Node19 -->
<g id="Node000019" class="node">
<title>Node19</title>
<g id="a_Node000019"><a xlink:href="../../d0/d55/tolerance_8hpp.html" target="_top" xlink:title="Definition of tolerance related functionalities.">
<polygon fill="white" stroke="#666666" points="491,-189.5 377,-189.5 377,-170.5 491,-170.5 491,-189.5"/>
<text text-anchor="middle" x="434" y="-177.5" font-family="Helvetica,sans-Serif" font-size="10.00">qugar/tolerance.hpp</text>
</a>
</g>
</g>
<!-- Node1&#45;&gt;Node19 -->
<g id="edge77_Node000001_Node000019" class="edge">
<title>Node1&#45;&gt;Node19</title>
<g id="a_edge77_Node000001_Node000019"><a xlink:title=" ">
<path fill="none" stroke="#63b8ff" d="M1194.41,-481.68C981.24,-481.5 403.41,-476.33 335,-426 310.7,-408.12 311,-392.67 311,-362.5 311,-362.5 311,-362.5 311,-300 311,-248.31 367.79,-211.92 404.2,-193.91"/>
<polygon fill="#63b8ff" stroke="#63b8ff" points="405.89,-196.98 413.41,-189.52 402.88,-190.66 405.89,-196.98"/>
</a>
</g>
</g>
<!-- Node23 -->
<g id="Node000023" class="node">
<title>Node23</title>
<g id="a_Node000023"><a xlink:href="../../dc/d7c/domain__function_8hpp.html" target="_top" xlink:title="Declaration of a few implicit functions template class ready to be consumed by Algoim.">
<polygon fill="white" stroke="#666666" points="321,-189.5 171,-189.5 171,-170.5 321,-170.5 321,-189.5"/>
<text text-anchor="middle" x="246" y="-177.5" font-family="Helvetica,sans-Serif" font-size="10.00">qugar/domain_function.hpp</text>
</a>
</g>
</g>
<!-- Node1&#45;&gt;Node23 -->
<g id="edge38_Node000001_Node000023" class="edge">
<title>Node1&#45;&gt;Node23</title>
<g id="a_edge38_Node000001_Node000023"><a xlink:title=" ">
<path fill="none" stroke="#63b8ff" d="M1194.24,-480.48C979.02,-477.19 391.82,-464.74 314,-426 280.84,-409.49 260,-399.55 260,-362.5 260,-362.5 260,-362.5 260,-300 260,-264.25 253.69,-222.86 249.54,-199.52"/>
<polygon fill="#63b8ff" stroke="#63b8ff" points="252.97,-198.82 247.72,-189.62 246.09,-200.09 252.97,-198.82"/>
</a>
</g>
</g>
<!-- Node25 -->
<g id="Node000025" class="node">
<title>Node25</title>
<g id="a_Node000025"><a xlink:href="../../d8/ddc/reparam__mesh_8hpp.html" target="_top" xlink:title="Declaration of reparameterization class.">
<polygon fill="white" stroke="#666666" points="1250,-426 1108,-426 1108,-407 1250,-407 1250,-426"/>
<text text-anchor="middle" x="1179" y="-414" font-family="Helvetica,sans-Serif" font-size="10.00">qugar/reparam_mesh.hpp</text>
</a>
</g>
</g>
<!-- Node1&#45;&gt;Node25 -->
<g id="edge46_Node000001_Node000025" class="edge">
<title>Node1&#45;&gt;Node25</title>
<g id="a_edge46_Node000001_Node000025"><a xlink:title=" ">
<path fill="none" stroke="#63b8ff" d="M1244.29,-461.95C1230.07,-452.27 1213.22,-440.8 1200.19,-431.93"/>
<polygon fill="#63b8ff" stroke="#63b8ff" points="1202.1,-429 1191.87,-426.26 1198.16,-434.78 1202.1,-429"/>
</a>
</g>
</g>
<!-- Node29 -->
<g id="Node000029" class="node">
<title>Node29</title>
<g id="a_Node000029"><a xlink:title=" ">
<polygon fill="#e0e0e0" stroke="#999999" points="1387,-371 1347,-371 1347,-352 1387,-352 1387,-371"/>
<text text-anchor="middle" x="1367" y="-359" font-family="Helvetica,sans-Serif" font-size="10.00">span</text>
</a>
</g>
</g>
<!-- Node1&#45;&gt;Node29 -->
<g id="edge80_Node000001_Node000029" class="edge">
<title>Node1&#45;&gt;Node29</title>
<g id="a_edge80_Node000001_Node000029"><a xlink:title=" ">
<path fill="none" stroke="#63b8ff" d="M1288.52,-461.85C1306.76,-438.76 1336.71,-400.84 1353.85,-379.14"/>
<polygon fill="#63b8ff" stroke="#63b8ff" points="1356.7,-381.19 1360.15,-371.18 1351.2,-376.85 1356.7,-381.19"/>
</a>
</g>
</g>
<!-- Node30 -->
<g id="Node000030" class="node">
<title>Node30</title>
<g id="a_Node000030"><a xlink:title=" ">
<polygon fill="#e0e0e0" stroke="#999999" points="1449,-371 1405,-371 1405,-352 1449,-352 1449,-371"/>
<text text-anchor="middle" x="1427" y="-359" font-family="Helvetica,sans-Serif" font-size="10.00">string</text>
</a>
</g>
</g>
<!-- Node1&#45;&gt;Node30 -->
<g id="edge81_Node000001_Node000030" class="edge">
<title>Node1&#45;&gt;Node30</title>
<g id="a_edge81_Node000001_Node000030"><a xlink:title=" ">
<path fill="none" stroke="#63b8ff" d="M1298.43,-461.85C1329.11,-438.14 1380.01,-398.81 1407.67,-377.44"/>
<polygon fill="#63b8ff" stroke="#63b8ff" points="1410,-380.06 1415.77,-371.18 1405.72,-374.52 1410,-380.06"/>
</a>
</g>
</g>
<!-- Node3 -->
<g id="Node000003" class="node">
<title>Node3</title>
<g id="a_Node000003"><a xlink:href="../../d7/dd8/concepts_8hpp.html" target="_top" xlink:title="Declaration of concepts.">
<polygon fill="white" stroke="#666666" points="903,-129 791,-129 791,-110 903,-110 903,-129"/>
<text text-anchor="middle" x="847" y="-117" font-family="Helvetica,sans-Serif" font-size="10.00">qugar/concepts.hpp</text>
</a>
</g>
</g>
<!-- Node2&#45;&gt;Node3 -->
<g id="edge2_Node000002_Node000003" class="edge">
<title>Node2&#45;&gt;Node3</title>
<g id="a_edge2_Node000002_Node000003"><a xlink:title=" ">
<path fill="none" stroke="#63b8ff" d="M662.41,-170.49C700.24,-160.25 763.91,-143 805.69,-131.69"/>
<polygon fill="#63b8ff" stroke="#63b8ff" points="806.82,-135.01 815.55,-129.02 804.99,-128.25 806.82,-135.01"/>
</a>
</g>
</g>
<!-- Node2&#45;&gt;Node4 -->
<g id="edge3_Node000002_Node000004" class="edge">
<title>Node2&#45;&gt;Node4</title>
<g id="a_edge3_Node000002_Node000004"><a xlink:title=" ">
<path fill="none" stroke="#63b8ff" d="M595.18,-170.5C587.23,-168.65 578.83,-166.73 571,-165 516.36,-152.92 453.64,-139.92 410.48,-131.11"/>
<polygon fill="#63b8ff" stroke="#63b8ff" points="410.99,-127.64 400.5,-129.08 409.6,-134.5 410.99,-127.64"/>
</a>
</g>
</g>
<!-- Node5 -->
<g id="Node000005" class="node">
<title>Node5</title>
<g id="a_Node000005"><a xlink:href="../../dd/de3/types_8hpp.html" target="_top" xlink:title="Declaration of types.">
<polygon fill="white" stroke="#666666" points="480.5,-74 385.5,-74 385.5,-55 480.5,-55 480.5,-74"/>
<text text-anchor="middle" x="433" y="-62" font-family="Helvetica,sans-Serif" font-size="10.00">qugar/types.hpp</text>
</a>
</g>
</g>
<!-- Node2&#45;&gt;Node5 -->
<g id="edge10_Node000002_Node000005" class="edge">
<title>Node2&#45;&gt;Node5</title>
<g id="a_edge10_Node000002_Node000005"><a xlink:title=" ">
<path fill="none" stroke="#63b8ff" d="M597.53,-170.47C547.45,-157.59 458.29,-134.12 453,-129 440.95,-117.32 436.14,-98.46 434.22,-84.33"/>
<polygon fill="#63b8ff" stroke="#63b8ff" points="437.69,-83.84 433.23,-74.23 430.73,-84.53 437.69,-83.84"/>
</a>
</g>
</g>
<!-- Node2&#45;&gt;Node6 -->
<g id="edge13_Node000002_Node000006" class="edge">
<title>Node2&#45;&gt;Node6</title>
<g id="a_edge13_Node000002_Node000006"><a xlink:title=" ">
<path fill="none" stroke="#63b8ff" d="M625.01,-170.31C616.03,-156.08 601.57,-127.66 616,-110 673.43,-39.7 964.5,-17.82 1068.22,-12.2"/>
<polygon fill="#63b8ff" stroke="#63b8ff" points="1068.43,-15.69 1078.23,-11.67 1068.06,-8.7 1068.43,-15.69"/>
</a>
</g>
</g>
<!-- Node10 -->
<g id="Node000010" class="node">
<title>Node10</title>
<g id="a_Node000010"><a xlink:title=" ">
<polygon fill="#e0e0e0" stroke="#999999" points="773,-129 625,-129 625,-110 773,-110 773,-129"/>
<text text-anchor="middle" x="699" y="-117" font-family="Helvetica,sans-Serif" font-size="10.00">algoim/hyperrectangle.hpp</text>
</a>
</g>
</g>
<!-- Node2&#45;&gt;Node10 -->
<g id="edge11_Node000002_Node000010" class="edge">
<title>Node2&#45;&gt;Node10</title>
<g id="a_edge11_Node000002_Node000010"><a xlink:title=" ">
<path fill="none" stroke="#63b8ff" d="M641.03,-170.37C651.58,-161.3 668.39,-146.84 681.19,-135.82"/>
<polygon fill="#63b8ff" stroke="#63b8ff" points="683.63,-138.34 688.93,-129.17 679.06,-133.04 683.63,-138.34"/>
</a>
</g>
</g>
<!-- Node11 -->
<g id="Node000011" class="node">
<title>Node11</title>
<g id="a_Node000011"><a xlink:title=" ">
<polygon fill="#e0e0e0" stroke="#999999" points="1077,-129 1035,-129 1035,-110 1077,-110 1077,-129"/>
<text text-anchor="middle" x="1056" y="-117" font-family="Helvetica,sans-Serif" font-size="10.00">array</text>
</a>
</g>
</g>
<!-- Node2&#45;&gt;Node11 -->
<g id="edge12_Node000002_Node000011" class="edge">
<title>Node2&#45;&gt;Node11</title>
<g id="a_edge12_Node000002_Node000011"><a xlink:title=" ">
<path fill="none" stroke="#63b8ff" d="M677.29,-172.63C764.44,-160.63 950.74,-134.99 1024.75,-124.8"/>
<polygon fill="#63b8ff" stroke="#63b8ff" points="1025.4,-128.24 1034.83,-123.41 1024.45,-121.31 1025.4,-128.24"/>
</a>
</g>
</g>
<!-- Node4&#45;&gt;Node5 -->
<g id="edge4_Node000004_Node000005" class="edge">
<title>Node4&#45;&gt;Node5</title>
<g id="a_edge4_Node000004_Node000005"><a xlink:title=" ">
<path fill="none" stroke="#63b8ff" d="M370.05,-109.98C381.46,-101.92 398.83,-89.65 412.43,-80.03"/>
<polygon fill="#63b8ff" stroke="#63b8ff" points="414.58,-82.8 420.73,-74.17 410.54,-77.08 414.58,-82.8"/>
</a>
</g>
</g>
<!-- Node4&#45;&gt;Node6 -->
<g id="edge8_Node000004_Node000006" class="edge">
<title>Node4&#45;&gt;Node6</title>
<g id="a_edge8_Node000004_Node000006"><a xlink:title=" ">
<path fill="none" stroke="#63b8ff" d="M382.28,-110C423.15,-96.06 508.53,-68.56 583,-55 762.99,-22.24 982.4,-13.49 1068.16,-11.24"/>
<polygon fill="#63b8ff" stroke="#63b8ff" points="1068.51,-14.73 1078.42,-10.99 1068.34,-7.74 1068.51,-14.73"/>
</a>
</g>
</g>
<!-- Node7 -->
<g id="Node000007" class="node">
<title>Node7</title>
<g id="a_Node000007"><a xlink:href="../../da/d16/vector_8hpp.html" target="_top" xlink:title=" ">
<polygon fill="white" stroke="#666666" points="367,-74 269,-74 269,-55 367,-55 367,-74"/>
<text text-anchor="middle" x="318" y="-62" font-family="Helvetica,sans-Serif" font-size="10.00">qugar/vector.hpp</text>
</a>
</g>
</g>
<!-- Node4&#45;&gt;Node7 -->
<g id="edge6_Node000004_Node000007" class="edge">
<title>Node4&#45;&gt;Node7</title>
<g id="a_edge6_Node000004_Node000007"><a xlink:title=" ">
<path fill="none" stroke="#63b8ff" d="M351.39,-109.75C345.74,-102.26 337.46,-91.28 330.55,-82.13"/>
<polygon fill="#63b8ff" stroke="#63b8ff" points="333.3,-79.96 324.48,-74.09 327.71,-84.18 333.3,-79.96"/>
</a>
</g>
</g>
<!-- Node4&#45;&gt;Node9 -->
<g id="edge9_Node000004_Node000009" class="edge">
<title>Node4&#45;&gt;Node9</title>
<g id="a_edge9_Node000004_Node000009"><a xlink:title=" ">
<path fill="none" stroke="#63b8ff" d="M404.84,-113.9C420.18,-112.51 437.3,-111.06 453,-110 817.99,-85.28 1261.5,-70.4 1385.43,-66.52"/>
<polygon fill="#63b8ff" stroke="#63b8ff" points="1385.56,-70.02 1395.44,-66.21 1385.34,-63.02 1385.56,-70.02"/>
</a>
</g>
</g>
<!-- Node5&#45;&gt;Node6 -->
<g id="edge5_Node000005_Node000006" class="edge">
<title>Node5&#45;&gt;Node6</title>
<g id="a_edge5_Node000005_Node000006"><a xlink:title=" ">
<path fill="none" stroke="#63b8ff" d="M480.85,-58.64C493.57,-57.4 507.3,-56.1 520,-55 727.18,-37 975.98,-19.41 1068.24,-13.02"/>
<polygon fill="#63b8ff" stroke="#63b8ff" points="1068.72,-16.5 1078.45,-12.32 1068.24,-9.51 1068.72,-16.5"/>
</a>
</g>
</g>
<!-- Node8 -->
<g id="Node000008" class="node">
<title>Node8</title>
<g id="a_Node000008"><a xlink:title=" ">
<polygon fill="#e0e0e0" stroke="#999999" points="373,-19 263,-19 263,0 373,0 373,-19"/>
<text text-anchor="middle" x="318" y="-7" font-family="Helvetica,sans-Serif" font-size="10.00">algoim/uvector.hpp</text>
</a>
</g>
</g>
<!-- Node7&#45;&gt;Node8 -->
<g id="edge7_Node000007_Node000008" class="edge">
<title>Node7&#45;&gt;Node8</title>
<g id="a_edge7_Node000007_Node000008"><a xlink:title=" ">
<path fill="none" stroke="#63b8ff" d="M318,-54.75C318,-47.8 318,-37.85 318,-29.13"/>
<polygon fill="#63b8ff" stroke="#63b8ff" points="321.5,-29.09 318,-19.09 314.5,-29.09 321.5,-29.09"/>
</a>
</g>
</g>
<!-- Node12&#45;&gt;Node2 -->
<g id="edge15_Node000012_Node000002" class="edge">
<title>Node12&#45;&gt;Node2</title>
<g id="a_edge15_Node000012_Node000002"><a xlink:title=" ">
<path fill="none" stroke="#63b8ff" d="M777.14,-230.99C747.75,-220.94 698.69,-204.16 665.61,-192.84"/>
<polygon fill="#63b8ff" stroke="#63b8ff" points="666.49,-189.44 655.89,-189.52 664.22,-196.07 666.49,-189.44"/>
</a>
</g>
</g>
<!-- Node12&#45;&gt;Node4 -->
<g id="edge16_Node000012_Node000004" class="edge">
<title>Node12&#45;&gt;Node4</title>
<g id="a_edge16_Node000012_Node000004"><a xlink:title=" ">
<path fill="none" stroke="#63b8ff" d="M738.56,-234.1C692.08,-228.47 628.26,-217.21 576,-195 554.55,-185.89 554.19,-174.69 533,-165 495.38,-147.79 450.04,-136.5 414.94,-129.59"/>
<polygon fill="#63b8ff" stroke="#63b8ff" points="415.34,-126.11 404.86,-127.68 414.03,-132.98 415.34,-126.11"/>
</a>
</g>
</g>
<!-- Node12&#45;&gt;Node5 -->
<g id="edge31_Node000012_Node000005" class="edge">
<title>Node12&#45;&gt;Node5</title>
<g id="a_edge31_Node000012_Node000005"><a xlink:title=" ">
<path fill="none" stroke="#63b8ff" d="M775.43,-230.94C758.87,-224.06 738.88,-212.6 729,-195 722.47,-183.37 720.53,-175.3 729,-165 782.95,-99.41 969.21,-172.77 912,-110 884.12,-79.41 612.23,-69.51 490.92,-66.6"/>
<polygon fill="#63b8ff" stroke="#63b8ff" points="490.79,-63.1 480.71,-66.37 490.63,-70.1 490.79,-63.1"/>
</a>
</g>
</g>
<!-- Node12&#45;&gt;Node6 -->
<g id="edge33_Node000012_Node000006" class="edge">
<title>Node12&#45;&gt;Node6</title>
<g id="a_edge33_Node000012_Node000006"><a xlink:title=" ">
<path fill="none" stroke="#63b8ff" d="M797.81,-230.62C791.34,-215.46 781.14,-184.34 796,-165 833.83,-115.76 874.54,-154.84 931,-129 993.01,-100.62 1057.06,-50.66 1087.23,-25.65"/>
<polygon fill="#63b8ff" stroke="#63b8ff" points="1089.73,-28.13 1095.15,-19.02 1085.23,-22.76 1089.73,-28.13"/>
</a>
</g>
</g>
<!-- Node12&#45;&gt;Node9 -->
<g id="edge37_Node000012_Node000009" class="edge">
<title>Node12&#45;&gt;Node9</title>
<g id="a_edge37_Node000012_Node000009"><a xlink:title=" ">
<path fill="none" stroke="#63b8ff" d="M800.56,-230.79C798.54,-215.34 796.85,-183.04 814,-165 866.92,-109.35 909.93,-152.64 983,-129 1002.88,-122.57 1005.83,-115.46 1026,-110 1155.29,-75 1315.72,-67.5 1384.78,-65.91"/>
<polygon fill="#63b8ff" stroke="#63b8ff" points="1385.13,-69.41 1395.05,-65.71 1384.99,-62.41 1385.13,-69.41"/>
</a>
</g>
</g>
<!-- Node12&#45;&gt;Node11 -->
<g id="edge32_Node000012_Node000011" class="edge">
<title>Node12&#45;&gt;Node11</title>
<g id="a_edge32_Node000012_Node000011"><a xlink:title=" ">
<path fill="none" stroke="#63b8ff" d="M804.19,-230.76C808.64,-214.95 820.28,-181.7 843,-165 908.05,-117.21 942.21,-146.53 1021,-129 1022.27,-128.72 1023.57,-128.42 1024.87,-128.13"/>
<polygon fill="#63b8ff" stroke="#63b8ff" points="1026,-131.46 1034.93,-125.76 1024.4,-124.64 1026,-131.46"/>
</a>
</g>
</g>
<!-- Node12&#45;&gt;Node13 -->
<g id="edge17_Node000012_Node000013" class="edge">
<title>Node12&#45;&gt;Node13</title>
<g id="a_edge17_Node000012_Node000013"><a xlink:title=" ">
<path fill="none" stroke="#63b8ff" d="M865.47,-231.73C956.41,-220.6 1122.9,-200.23 1214.79,-188.98"/>
<polygon fill="#63b8ff" stroke="#63b8ff" points="1215.3,-192.44 1224.8,-187.76 1214.45,-185.5 1215.3,-192.44"/>
</a>
</g>
</g>
<!-- Node16 -->
<g id="Node000016" class="node">
<title>Node16</title>
<g id="a_Node000016"><a xlink:title=" ">
<polygon fill="#e0e0e0" stroke="#999999" points="1183,-129 1133,-129 1133,-110 1183,-110 1183,-129"/>
<text text-anchor="middle" x="1158" y="-117" font-family="Helvetica,sans-Serif" font-size="10.00">cstdint</text>
</a>
</g>
</g>
<!-- Node12&#45;&gt;Node16 -->
<g id="edge34_Node000012_Node000016" class="edge">
<title>Node12&#45;&gt;Node16</title>
<g id="a_edge34_Node000012_Node000016"><a xlink:title=" ">
<path fill="none" stroke="#63b8ff" d="M809.91,-230.96C827.28,-212.29 867.88,-169.15 876,-165 897.62,-153.95 1051.35,-133.74 1122.29,-124.87"/>
<polygon fill="#63b8ff" stroke="#63b8ff" points="1123.04,-128.31 1132.53,-123.6 1122.18,-121.36 1123.04,-128.31"/>
</a>
</g>
</g>
<!-- Node12&#45;&gt;Node19 -->
<g id="edge26_Node000012_Node000019" class="edge">
<title>Node12&#45;&gt;Node19</title>
<g id="a_edge26_Node000012_Node000019"><a xlink:title=" ">
<path fill="none" stroke="#63b8ff" d="M748.49,-230.99C681.99,-220.42 568.64,-202.4 497.72,-191.13"/>
<polygon fill="#63b8ff" stroke="#63b8ff" points="498,-187.63 487.57,-189.52 496.9,-194.54 498,-187.63"/>
</a>
</g>
</g>
<!-- Node21 -->
<g id="Node000021" class="node">
<title>Node21</title>
<g id="a_Node000021"><a xlink:title=" ">
<polygon fill="#e0e0e0" stroke="#999999" points="1017,-189.5 959,-189.5 959,-170.5 1017,-170.5 1017,-189.5"/>
<text text-anchor="middle" x="988" y="-177.5" font-family="Helvetica,sans-Serif" font-size="10.00">memory</text>
</a>
</g>
</g>
<!-- Node12&#45;&gt;Node21 -->
<g id="edge35_Node000012_Node000021" class="edge">
<title>Node12&#45;&gt;Node21</title>
<g id="a_edge35_Node000012_Node000021"><a xlink:title=" ">
<path fill="none" stroke="#63b8ff" d="M832.22,-231C862.25,-222.41 909.54,-208.52 950,-195 951.9,-194.36 953.85,-193.7 955.81,-193.01"/>
<polygon fill="#63b8ff" stroke="#63b8ff" points="957.34,-196.18 965.58,-189.52 954.98,-189.59 957.34,-196.18"/>
</a>
</g>
</g>
<!-- Node22 -->
<g id="Node000022" class="node">
<title>Node22</title>
<g id="a_Node000022"><a xlink:title=" ">
<polygon fill="#e0e0e0" stroke="#999999" points="941,-189.5 885,-189.5 885,-170.5 941,-170.5 941,-189.5"/>
<text text-anchor="middle" x="913" y="-177.5" font-family="Helvetica,sans-Serif" font-size="10.00">optional</text>
</a>
</g>
</g>
<!-- Node12&#45;&gt;Node22 -->
<g id="edge36_Node000012_Node000022" class="edge">
<title>Node12&#45;&gt;Node22</title>
<g id="a_edge36_Node000012_Node000022"><a xlink:title=" ">
<path fill="none" stroke="#63b8ff" d="M818.38,-230.87C836.58,-221.28 866.2,-205.67 887.45,-194.47"/>
<polygon fill="#63b8ff" stroke="#63b8ff" points="889.34,-197.43 896.55,-189.67 886.08,-191.23 889.34,-197.43"/>
</a>
</g>
</g>
<!-- Node13&#45;&gt;Node6 -->
<g id="edge22_Node000013_Node000006" class="edge">
<title>Node13&#45;&gt;Node6</title>
<g id="a_edge22_Node000013_Node000006"><a xlink:title=" ">
<path fill="none" stroke="#63b8ff" d="M1287.77,-164.75C1294.64,-150.03 1302.14,-126.89 1292,-110 1259.41,-55.75 1186.13,-29.47 1141.59,-18.08"/>
<polygon fill="#63b8ff" stroke="#63b8ff" points="1142.29,-14.64 1131.74,-15.68 1140.63,-21.44 1142.29,-14.64"/>
</a>
</g>
</g>
<!-- Node13&#45;&gt;Node7 -->
<g id="edge19_Node000013_Node000007" class="edge">
<title>Node13&#45;&gt;Node7</title>
<g id="a_edge19_Node000013_Node000007"><a xlink:title=" ">
<path fill="none" stroke="#63b8ff" d="M1267.36,-164.75C1251.6,-148.13 1222.95,-121.46 1192,-110 1024.89,-48.14 573.28,-89.48 377.21,-73.83"/>
<polygon fill="#63b8ff" stroke="#63b8ff" points="377.48,-70.34 367.21,-72.96 376.87,-77.31 377.48,-70.34"/>
</a>
</g>
</g>
<!-- Node13&#45;&gt;Node11 -->
<g id="edge20_Node000013_Node000011" class="edge">
<title>Node13&#45;&gt;Node11</title>
<g id="a_edge20_Node000013_Node000011"><a xlink:title=" ">
<path fill="none" stroke="#63b8ff" d="M1226.35,-164.99C1182.88,-153.64 1123.14,-138.03 1087.18,-128.64"/>
<polygon fill="#63b8ff" stroke="#63b8ff" points="1087.82,-125.19 1077.27,-126.05 1086.06,-131.97 1087.82,-125.19"/>
</a>
</g>
</g>
<!-- Node14 -->
<g id="Node000014" class="node">
<title>Node14</title>
<g id="a_Node000014"><a xlink:title=" ">
<polygon fill="#e0e0e0" stroke="#999999" points="1283,-129 1239,-129 1239,-110 1283,-110 1283,-129"/>
<text text-anchor="middle" x="1261" y="-117" font-family="Helvetica,sans-Serif" font-size="10.00">limits</text>
</a>
</g>
</g>
<!-- Node13&#45;&gt;Node14 -->
<g id="edge18_Node000013_Node000014" class="edge">
<title>Node13&#45;&gt;Node14</title>
<g id="a_edge18_Node000013_Node000014"><a xlink:title=" ">
<path fill="none" stroke="#63b8ff" d="M1275.4,-164.84C1272.87,-157.04 1269.69,-147.27 1266.97,-138.89"/>
<polygon fill="#63b8ff" stroke="#63b8ff" points="1270.26,-137.7 1263.85,-129.27 1263.61,-139.86 1270.26,-137.7"/>
</a>
</g>
</g>
<!-- Node15 -->
<g id="Node000015" class="node">
<title>Node15</title>
<g id="a_Node000015"><a xlink:title=" ">
<polygon fill="#e0e0e0" stroke="#999999" points="1391,-129 1339,-129 1339,-110 1391,-110 1391,-129"/>
<text text-anchor="middle" x="1365" y="-117" font-family="Helvetica,sans-Serif" font-size="10.00">cassert</text>
</a>
</g>
</g>
<!-- Node13&#45;&gt;Node15 -->
<g id="edge21_Node000013_Node000015" class="edge">
<title>Node13&#45;&gt;Node15</title>
<g id="a_edge21_Node000013_Node000015"><a xlink:title=" ">
<path fill="none" stroke="#63b8ff" d="M1300.58,-164.84C1313.67,-155.83 1330.59,-144.18 1343.8,-135.09"/>
<polygon fill="#63b8ff" stroke="#63b8ff" points="1346.01,-137.82 1352.26,-129.27 1342.04,-132.05 1346.01,-137.82"/>
</a>
</g>
</g>
<!-- Node13&#45;&gt;Node16 -->
<g id="edge23_Node000013_Node000016" class="edge">
<title>Node13&#45;&gt;Node16</title>
<g id="a_edge23_Node000013_Node000016"><a xlink:title=" ">
<path fill="none" stroke="#63b8ff" d="M1250.78,-164.99C1230.88,-155.45 1204.72,-142.9 1185.25,-133.57"/>
<polygon fill="#63b8ff" stroke="#63b8ff" points="1186.55,-130.31 1176.02,-129.14 1183.52,-136.62 1186.55,-130.31"/>
</a>
</g>
</g>
<!-- Node13&#45;&gt;Node17 -->
<g id="edge24_Node000013_Node000017" class="edge">
<title>Node13&#45;&gt;Node17</title>
<g id="a_edge24_Node000013_Node000017"><a xlink:title=" ">
<path fill="none" stroke="#63b8ff" d="M1332.22,-164.99C1370.16,-154.8 1420.85,-141.2 1456.15,-131.73"/>
<polygon fill="#63b8ff" stroke="#63b8ff" points="1457.37,-135.03 1466.12,-129.05 1455.56,-128.27 1457.37,-135.03"/>
</a>
</g>
</g>
<!-- Node18 -->
<g id="Node000018" class="node">
<title>Node18</title>
<g id="a_Node000018"><a xlink:title=" ">
<polygon fill="#e0e0e0" stroke="#999999" points="530.5,-129 461.5,-129 461.5,-110 530.5,-110 530.5,-129"/>
<text text-anchor="middle" x="496" y="-117" font-family="Helvetica,sans-Serif" font-size="10.00">type_traits</text>
</a>
</g>
</g>
<!-- Node13&#45;&gt;Node18 -->
<g id="edge25_Node000013_Node000018" class="edge">
<title>Node13&#45;&gt;Node18</title>
<g id="a_edge25_Node000013_Node000018"><a xlink:title=" ">
<path fill="none" stroke="#63b8ff" d="M1224.87,-174.89C1077.42,-163.88 676.03,-133.93 541.01,-123.86"/>
<polygon fill="#63b8ff" stroke="#63b8ff" points="540.87,-120.34 530.63,-123.08 540.35,-127.32 540.87,-120.34"/>
</a>
</g>
</g>
<!-- Node19&#45;&gt;Node4 -->
<g id="edge27_Node000019_Node000004" class="edge">
<title>Node19&#45;&gt;Node4</title>
<g id="a_edge27_Node000019_Node000004"><a xlink:title=" ">
<path fill="none" stroke="#63b8ff" d="M422.79,-170.37C410.89,-161.21 391.86,-146.56 377.49,-135.51"/>
<polygon fill="#63b8ff" stroke="#63b8ff" points="379.32,-132.49 369.26,-129.17 375.05,-138.04 379.32,-132.49"/>
</a>
</g>
</g>
<!-- Node19&#45;&gt;Node5 -->
<g id="edge28_Node000019_Node000005" class="edge">
<title>Node19&#45;&gt;Node5</title>
<g id="a_edge28_Node000019_Node000005"><a xlink:title=" ">
<path fill="none" stroke="#63b8ff" d="M376.94,-172.45C324.51,-165.12 252.36,-151.26 235,-129 229.81,-122.34 229.72,-116.59 235,-110 243.86,-98.93 319.87,-84.18 375.08,-74.77"/>
<polygon fill="#63b8ff" stroke="#63b8ff" points="375.84,-78.19 385.12,-73.07 374.68,-71.28 375.84,-78.19"/>
</a>
</g>
</g>
<!-- Node19&#45;&gt;Node9 -->
<g id="edge30_Node000019_Node000009" class="edge">
<title>Node19&#45;&gt;Node9</title>
<g id="a_edge30_Node000019_Node000009"><a xlink:title=" ">
<path fill="none" stroke="#63b8ff" d="M451.53,-170.26C483.36,-154.87 553.19,-123.31 616,-110 766.29,-78.14 1251.57,-68.17 1384.86,-66"/>
<polygon fill="#63b8ff" stroke="#63b8ff" points="1385.3,-69.49 1395.25,-65.84 1385.19,-62.5 1385.3,-69.49"/>
</a>
</g>
</g>
<!-- Node20 -->
<g id="Node000020" class="node">
<title>Node20</title>
<g id="a_Node000020"><a xlink:title=" ">
<polygon fill="#e0e0e0" stroke="#999999" points="293.5,-129 244.5,-129 244.5,-110 293.5,-110 293.5,-129"/>
<text text-anchor="middle" x="269" y="-117" font-family="Helvetica,sans-Serif" font-size="10.00">cstdlib</text>
</a>
</g>
</g>
<!-- Node19&#45;&gt;Node20 -->
<g id="edge29_Node000019_Node000020" class="edge">
<title>Node19&#45;&gt;Node20</title>
<g id="a_edge29_Node000019_Node000020"><a xlink:title=" ">
<path fill="none" stroke="#63b8ff" d="M410.01,-170.49C381.78,-160.49 334.72,-143.8 302.81,-132.49"/>
<polygon fill="#63b8ff" stroke="#63b8ff" points="303.62,-129.06 293.02,-129.02 301.28,-135.66 303.62,-129.06"/>
</a>
</g>
</g>
<!-- Node23&#45;&gt;Node4 -->
<g id="edge40_Node000023_Node000004" class="edge">
<title>Node23&#45;&gt;Node4</title>
<g id="a_edge40_Node000023_Node000004"><a xlink:title=" ">
<path fill="none" stroke="#63b8ff" d="M262.53,-170.37C280.97,-160.73 311.04,-145.03 332.51,-133.81"/>
<polygon fill="#63b8ff" stroke="#63b8ff" points="334.16,-136.9 341.41,-129.17 330.92,-130.69 334.16,-136.9"/>
</a>
</g>
</g>
<!-- Node23&#45;&gt;Node5 -->
<g id="edge39_Node000023_Node000005" class="edge">
<title>Node23&#45;&gt;Node5</title>
<g id="a_edge39_Node000023_Node000005"><a xlink:title=" ">
<path fill="none" stroke="#63b8ff" d="M239.46,-170.37C229.6,-156.23 213.55,-127.93 228,-110 237.33,-98.43 318.08,-83.53 375.39,-74.24"/>
<polygon fill="#63b8ff" stroke="#63b8ff" points="376.12,-77.67 385.44,-72.63 375.02,-70.76 376.12,-77.67"/>
</a>
</g>
</g>
<!-- Node23&#45;&gt;Node7 -->
<g id="edge41_Node000023_Node000007" class="edge">
<title>Node23&#45;&gt;Node7</title>
<g id="a_edge41_Node000023_Node000007"><a xlink:title=" ">
<path fill="none" stroke="#63b8ff" d="M220.69,-170.46C189.94,-158.71 144.43,-136.02 164,-110 175.67,-94.48 220.37,-82.66 258.62,-75.12"/>
<polygon fill="#63b8ff" stroke="#63b8ff" points="259.53,-78.51 268.7,-73.2 258.22,-71.63 259.53,-78.51"/>
</a>
</g>
</g>
<!-- Node23&#45;&gt;Node16 -->
<g id="edge43_Node000023_Node000016" class="edge">
<title>Node23&#45;&gt;Node16</title>
<g id="a_edge43_Node000023_Node000016"><a xlink:title=" ">
<path fill="none" stroke="#63b8ff" d="M313.36,-170.49C331.11,-168.46 350.26,-166.46 368,-165 686.43,-138.77 767.61,-155.75 1086,-129 1097.91,-128 1110.89,-126.57 1122.5,-125.17"/>
<polygon fill="#63b8ff" stroke="#63b8ff" points="1123.22,-128.61 1132.72,-123.91 1122.36,-121.66 1123.22,-128.61"/>
</a>
</g>
</g>
<!-- Node23&#45;&gt;Node18 -->
<g id="edge44_Node000023_Node000018" class="edge">
<title>Node23&#45;&gt;Node18</title>
<g id="a_edge44_Node000023_Node000018"><a xlink:title=" ">
<path fill="none" stroke="#63b8ff" d="M282.35,-170.49C327.11,-160.02 403.1,-142.24 451.36,-130.95"/>
<polygon fill="#63b8ff" stroke="#63b8ff" points="452.28,-134.33 461.22,-128.64 450.68,-127.51 452.28,-134.33"/>
</a>
</g>
</g>
<!-- Node24 -->
<g id="Node000024" class="node">
<title>Node24</title>
<g id="a_Node000024"><a xlink:title=" ">
<polygon fill="#e0e0e0" stroke="#999999" points="112,-129 0,-129 0,-110 112,-110 112,-129"/>
<text text-anchor="middle" x="56" y="-117" font-family="Helvetica,sans-Serif" font-size="10.00">algoim/interval.hpp</text>
</a>
</g>
</g>
<!-- Node23&#45;&gt;Node24 -->
<g id="edge42_Node000023_Node000024" class="edge">
<title>Node23&#45;&gt;Node24</title>
<g id="a_edge42_Node000023_Node000024"><a xlink:title=" ">
<path fill="none" stroke="#63b8ff" d="M218.37,-170.49C185.45,-160.36 130.27,-143.37 93.51,-132.05"/>
<polygon fill="#63b8ff" stroke="#63b8ff" points="94.25,-128.61 83.66,-129.02 92.19,-135.3 94.25,-128.61"/>
</a>
</g>
</g>
<!-- Node25&#45;&gt;Node2 -->
<g id="edge47_Node000025_Node000002" class="edge">
<title>Node25&#45;&gt;Node2</title>
<g id="a_edge47_Node000025_Node000002"><a xlink:title=" ">
<path fill="none" stroke="#63b8ff" d="M1107.98,-410.51C1026.14,-403.94 897.23,-390.85 853,-371 760.02,-329.28 676.26,-236.03 644.51,-197.82"/>
<polygon fill="#63b8ff" stroke="#63b8ff" points="646.94,-195.27 637.89,-189.75 641.52,-199.7 646.94,-195.27"/>
</a>
</g>
</g>
<!-- Node25&#45;&gt;Node4 -->
<g id="edge49_Node000025_Node000004" class="edge">
<title>Node25&#45;&gt;Node4</title>
<g id="a_edge49_Node000025_Node000004"><a xlink:title=" ">
<path fill="none" stroke="#63b8ff" d="M1107.79,-415.91C1032.48,-414.28 911.22,-405.72 813,-371 769.52,-355.63 764.07,-340.52 725,-316 639.57,-262.38 613.29,-256.05 533,-195 517.22,-183 517.19,-174.86 500,-165 472.76,-149.37 439.36,-138.55 411.81,-131.5"/>
<polygon fill="#63b8ff" stroke="#63b8ff" points="412.49,-128.06 401.94,-129.07 410.81,-134.86 412.49,-128.06"/>
</a>
</g>
</g>
<!-- Node25&#45;&gt;Node6 -->
<g id="edge71_Node000025_Node000006" class="edge">
<title>Node25&#45;&gt;Node6</title>
<g id="a_edge71_Node000025_Node000006"><a xlink:title=" ">
<path fill="none" stroke="#63b8ff" d="M1203.86,-406.9C1228.1,-398.36 1265.91,-384.59 1298,-371 1316.12,-363.32 1319.27,-358.05 1338,-352 1422.28,-324.77 1449.29,-341.86 1534,-316 1613.29,-291.8 1705,-324.4 1705,-241.5 1705,-241.5 1705,-241.5 1705,-118.5 1705,-40.75 1617.58,-73.22 1542,-55 1396.79,-20.01 1217.97,-12.51 1141.97,-10.92"/>
<polygon fill="#63b8ff" stroke="#63b8ff" points="1141.58,-7.41 1131.52,-10.73 1141.45,-14.41 1141.58,-7.41"/>
</a>
</g>
</g>
<!-- Node25&#45;&gt;Node9 -->
<g id="edge75_Node000025_Node000009" class="edge">
<title>Node25&#45;&gt;Node9</title>
<g id="a_edge75_Node000025_Node000009"><a xlink:title=" ">
<path fill="none" stroke="#63b8ff" d="M1194.15,-406.86C1217.44,-393.81 1263.7,-368.8 1305,-352 1445.93,-294.67 1629,-393.64 1629,-241.5 1629,-241.5 1629,-241.5 1629,-179 1629,-133.71 1593.06,-132.94 1554,-110 1521.97,-91.19 1480.94,-79.11 1452.56,-72.36"/>
<polygon fill="#63b8ff" stroke="#63b8ff" points="1453.25,-68.92 1442.72,-70.11 1451.69,-75.75 1453.25,-68.92"/>
</a>
</g>
</g>
<!-- Node25&#45;&gt;Node12 -->
<g id="edge48_Node000025_Node000012" class="edge">
<title>Node25&#45;&gt;Node12</title>
<g id="a_edge48_Node000025_Node000012"><a xlink:title=" ">
<path fill="none" stroke="#63b8ff" d="M1107.98,-411.94C1031.36,-406.9 915.4,-395.42 879,-371 838.93,-344.13 816.63,-288.76 807.29,-259.9"/>
<polygon fill="#63b8ff" stroke="#63b8ff" points="810.62,-258.79 804.34,-250.25 803.92,-260.84 810.62,-258.79"/>
</a>
</g>
</g>
<!-- Node25&#45;&gt;Node19 -->
<g id="edge50_Node000025_Node000019" class="edge">
<title>Node25&#45;&gt;Node19</title>
<g id="a_edge50_Node000025_Node000019"><a xlink:title=" ">
<path fill="none" stroke="#63b8ff" d="M1107.94,-413.53C992.65,-409.56 770.37,-398.52 697,-371 590.15,-330.92 487.71,-235.29 449.61,-197.13"/>
<polygon fill="#63b8ff" stroke="#63b8ff" points="452,-194.56 442.48,-189.9 447.01,-199.47 452,-194.56"/>
</a>
</g>
</g>
<!-- Node25&#45;&gt;Node21 -->
<g id="edge72_Node000025_Node000021" class="edge">
<title>Node25&#45;&gt;Node21</title>
<g id="a_edge72_Node000025_Node000021"><a xlink:title=" ">
<path fill="none" stroke="#63b8ff" d="M1150.27,-406.93C1111.43,-393.83 1042.83,-365.03 1006,-316 980.16,-281.6 981.96,-227.91 985.16,-199.73"/>
<polygon fill="#63b8ff" stroke="#63b8ff" points="988.65,-200.02 986.49,-189.64 981.71,-199.1 988.65,-200.02"/>
</a>
</g>
</g>
<!-- Node26 -->
<g id="Node000026" class="node">
<title>Node26</title>
<g id="a_Node000026"><a xlink:href="../../d2/dfd/unfitted__domain_8hpp.html" target="_top" xlink:title="Declaration of of UnfittedDomain class.">
<polygon fill="white" stroke="#666666" points="1253,-371 1105,-371 1105,-352 1253,-352 1253,-371"/>
<text text-anchor="middle" x="1179" y="-359" font-family="Helvetica,sans-Serif" font-size="10.00">qugar/unfitted_domain.hpp</text>
</a>
</g>
</g>
<!-- Node25&#45;&gt;Node26 -->
<g id="edge51_Node000025_Node000026" class="edge">
<title>Node25&#45;&gt;Node26</title>
<g id="a_edge51_Node000025_Node000026"><a xlink:title=" ">
<path fill="none" stroke="#63b8ff" d="M1179,-406.75C1179,-399.8 1179,-389.85 1179,-381.13"/>
<polygon fill="#63b8ff" stroke="#63b8ff" points="1182.5,-381.09 1179,-371.09 1175.5,-381.09 1182.5,-381.09"/>
</a>
</g>
</g>
<!-- Node25&#45;&gt;Node29 -->
<g id="edge73_Node000025_Node000029" class="edge">
<title>Node25&#45;&gt;Node29</title>
<g id="a_edge73_Node000025_Node000029"><a xlink:title=" ">
<path fill="none" stroke="#63b8ff" d="M1209.21,-406.98C1244.44,-397.05 1302.33,-380.73 1337.33,-370.86"/>
<polygon fill="#63b8ff" stroke="#63b8ff" points="1338.31,-374.22 1346.99,-368.14 1336.41,-367.49 1338.31,-374.22"/>
</a>
</g>
</g>
<!-- Node25&#45;&gt;Node30 -->
<g id="edge74_Node000025_Node000030" class="edge">
<title>Node25&#45;&gt;Node30</title>
<g id="a_edge74_Node000025_Node000030"><a xlink:title=" ">
<path fill="none" stroke="#63b8ff" d="M1224.91,-406.99C1266.82,-399.02 1330.67,-386.37 1394.82,-371.16"/>
<polygon fill="#63b8ff" stroke="#63b8ff" points="1395.78,-374.53 1404.69,-368.8 1394.15,-367.72 1395.78,-374.53"/>
</a>
</g>
</g>
<!-- Node26&#45;&gt;Node6 -->
<g id="edge65_Node000026_Node000006" class="edge">
<title>Node26&#45;&gt;Node6</title>
<g id="a_edge65_Node000026_Node000006"><a xlink:title=" ">
<path fill="none" stroke="#63b8ff" d="M1240.31,-351.95C1371.38,-332.85 1667,-284.94 1667,-241.5 1667,-241.5 1667,-241.5 1667,-118.5 1667,-64.86 1267.07,-24.86 1141.95,-13.66"/>
<polygon fill="#63b8ff" stroke="#63b8ff" points="1142,-10.15 1131.73,-12.76 1141.38,-17.13 1142,-10.15"/>
</a>
</g>
</g>
<!-- Node26&#45;&gt;Node9 -->
<g id="edge70_Node000026_Node000009" class="edge">
<title>Node26&#45;&gt;Node9</title>
<g id="a_edge70_Node000026_Node000009"><a xlink:title=" ">
<path fill="none" stroke="#63b8ff" d="M1240.46,-351.99C1293.4,-343.86 1365.09,-330.7 1390,-316 1422.43,-296.86 1533.79,-147.28 1540,-129 1553.24,-90.05 1493.03,-74.73 1452.79,-68.9"/>
<polygon fill="#63b8ff" stroke="#63b8ff" points="1453.17,-65.42 1442.8,-67.59 1452.26,-72.36 1453.17,-65.42"/>
</a>
</g>
</g>
<!-- Node26&#45;&gt;Node11 -->
<g id="edge63_Node000026_Node000011" class="edge">
<title>Node26&#45;&gt;Node11</title>
<g id="a_edge63_Node000026_Node000011"><a xlink:title=" ">
<path fill="none" stroke="#63b8ff" d="M1122.76,-351.95C1101.17,-345.68 1078.5,-334.82 1065,-316 1026.41,-262.21 1041.35,-177.05 1050.69,-139.43"/>
<polygon fill="#63b8ff" stroke="#63b8ff" points="1054.18,-139.93 1053.34,-129.37 1047.41,-138.15 1054.18,-139.93"/>
</a>
</g>
</g>
<!-- Node26&#45;&gt;Node12 -->
<g id="edge52_Node000026_Node000012" class="edge">
<title>Node26&#45;&gt;Node12</title>
<g id="a_edge52_Node000026_Node000012"><a xlink:title=" ">
<path fill="none" stroke="#63b8ff" d="M1113.15,-351.98C1067.9,-345.02 1006.86,-333.45 955,-316 906.99,-299.84 854.67,-271.91 825.34,-255.23"/>
<polygon fill="#63b8ff" stroke="#63b8ff" points="827.07,-252.19 816.66,-250.23 823.58,-258.25 827.07,-252.19"/>
</a>
</g>
</g>
<!-- Node26&#45;&gt;Node15 -->
<g id="edge64_Node000026_Node000015" class="edge">
<title>Node26&#45;&gt;Node15</title>
<g id="a_edge64_Node000026_Node000015"><a xlink:title=" ">
<path fill="none" stroke="#63b8ff" d="M1229.84,-351.96C1270.19,-344.17 1322.2,-331.52 1337,-316 1383.53,-267.23 1375.11,-178.07 1368.69,-139.32"/>
<polygon fill="#63b8ff" stroke="#63b8ff" points="1372.12,-138.62 1366.91,-129.4 1365.24,-139.86 1372.12,-138.62"/>
</a>
</g>
</g>
<!-- Node26&#45;&gt;Node16 -->
<g id="edge66_Node000026_Node000016" class="edge">
<title>Node26&#45;&gt;Node16</title>
<g id="a_edge66_Node000026_Node000016"><a xlink:title=" ">
<path fill="none" stroke="#63b8ff" d="M1253.28,-354.88C1278.93,-348.95 1305.17,-337.55 1321,-316 1328.89,-305.25 1326.54,-298.13 1321,-286 1295.35,-229.83 1258.5,-239.8 1216,-195 1198.46,-176.51 1180.83,-153 1169.69,-137.39"/>
<polygon fill="#63b8ff" stroke="#63b8ff" points="1172.55,-135.37 1163.93,-129.2 1166.82,-139.4 1172.55,-135.37"/>
</a>
</g>
</g>
<!-- Node26&#45;&gt;Node17 -->
<g id="edge67_Node000026_Node000017" class="edge">
<title>Node26&#45;&gt;Node17</title>
<g id="a_edge67_Node000026_Node000017"><a xlink:title=" ">
<path fill="none" stroke="#63b8ff" d="M1253.44,-354.21C1288.19,-348.41 1328.69,-337.28 1360,-316 1428.15,-269.68 1473.54,-177.77 1490.53,-138.73"/>
<polygon fill="#63b8ff" stroke="#63b8ff" points="1493.88,-139.77 1494.56,-129.2 1487.44,-137.05 1493.88,-139.77"/>
</a>
</g>
</g>
<!-- Node26&#45;&gt;Node21 -->
<g id="edge68_Node000026_Node000021" class="edge">
<title>Node26&#45;&gt;Node21</title>
<g id="a_edge68_Node000026_Node000021"><a xlink:title=" ">
<path fill="none" stroke="#63b8ff" d="M1104.71,-352.58C1078.51,-346.37 1050.7,-335.38 1031,-316 998.8,-284.32 990.67,-228.63 988.65,-199.67"/>
<polygon fill="#63b8ff" stroke="#63b8ff" points="992.14,-199.48 988.12,-189.67 985.15,-199.84 992.14,-199.48"/>
</a>
</g>
</g>
<!-- Node27 -->
<g id="Node000027" class="node">
<title>Node27</title>
<g id="a_Node000027"><a xlink:href="../../d8/d90/unfitted__domain__kd__tree_8hpp.html" target="_top" xlink:title="Declaration of of UnfittedDomain class.">
<polygon fill="white" stroke="#666666" points="1311.5,-316 1184.5,-316 1184.5,-286 1311.5,-286 1311.5,-316"/>
<text text-anchor="start" x="1192.5" y="-304" font-family="Helvetica,sans-Serif" font-size="10.00">qugar/unfitted_domain</text>
<text text-anchor="middle" x="1248" y="-293" font-family="Helvetica,sans-Serif" font-size="10.00">_kd_tree.hpp</text>
</a>
</g>
</g>
<!-- Node26&#45;&gt;Node27 -->
<g id="edge53_Node000026_Node000027" class="edge">
<title>Node26&#45;&gt;Node27</title>
<g id="a_edge53_Node000026_Node000027"><a xlink:title=" ">
<path fill="none" stroke="#63b8ff" d="M1189.18,-351.87C1198.2,-344.22 1211.72,-332.76 1223.53,-322.75"/>
<polygon fill="#63b8ff" stroke="#63b8ff" points="1225.99,-325.25 1231.35,-316.11 1221.46,-319.91 1225.99,-325.25"/>
</a>
</g>
</g>
<!-- Node28 -->
<g id="Node000028" class="node">
<title>Node28</title>
<g id="a_Node000028"><a xlink:title=" ">
<polygon fill="#e0e0e0" stroke="#999999" points="1166.5,-310.5 1073.5,-310.5 1073.5,-291.5 1166.5,-291.5 1166.5,-310.5"/>
<text text-anchor="middle" x="1120" y="-298.5" font-family="Helvetica,sans-Serif" font-size="10.00">unordered_map</text>
</a>
</g>
</g>
<!-- Node26&#45;&gt;Node28 -->
<g id="edge69_Node000026_Node000028" class="edge">
<title>Node26&#45;&gt;Node28</title>
<g id="a_edge69_Node000026_Node000028"><a xlink:title=" ">
<path fill="none" stroke="#63b8ff" d="M1170.29,-351.87C1161.32,-342.97 1147.12,-328.89 1136.09,-317.95"/>
<polygon fill="#63b8ff" stroke="#63b8ff" points="1138.31,-315.22 1128.74,-310.67 1133.38,-320.19 1138.31,-315.22"/>
</a>
</g>
</g>
<!-- Node27&#45;&gt;Node6 -->
<g id="edge57_Node000027_Node000006" class="edge">
<title>Node27&#45;&gt;Node6</title>
<g id="a_edge57_Node000027_Node000006"><a xlink:title=" ">
<path fill="none" stroke="#63b8ff" d="M1232.15,-285.99C1221.8,-276.41 1208.33,-263.12 1198,-250 1159,-200.48 1145.85,-188.13 1124,-129 1111.53,-95.24 1107.24,-53.09 1105.76,-29.24"/>
<polygon fill="#63b8ff" stroke="#63b8ff" points="1109.25,-28.93 1105.24,-19.12 1102.26,-29.29 1109.25,-28.93"/>
</a>
</g>
</g>
<!-- Node27&#45;&gt;Node9 -->
<g id="edge62_Node000027_Node000009" class="edge">
<title>Node27&#45;&gt;Node9</title>
<g id="a_edge62_Node000027_Node000009"><a xlink:title=" ">
<path fill="none" stroke="#63b8ff" d="M1265.04,-285.99C1293.51,-262.37 1349.2,-215.21 1365,-195 1385.45,-168.84 1387.4,-159.72 1400,-129 1406.01,-114.34 1411.05,-97.09 1414.43,-84.26"/>
<polygon fill="#63b8ff" stroke="#63b8ff" points="1417.88,-84.87 1416.95,-74.31 1411.1,-83.15 1417.88,-84.87"/>
</a>
</g>
</g>
<!-- Node27&#45;&gt;Node11 -->
<g id="edge55_Node000027_Node000011" class="edge">
<title>Node27&#45;&gt;Node11</title>
<g id="a_edge55_Node000027_Node000011"><a xlink:title=" ">
<path fill="none" stroke="#63b8ff" d="M1194.33,-285.97C1160.14,-276.11 1119.93,-262.5 1107,-250 1075.38,-219.45 1062.95,-166.92 1058.4,-139.08"/>
<polygon fill="#63b8ff" stroke="#63b8ff" points="1061.85,-138.48 1056.94,-129.1 1054.92,-139.5 1061.85,-138.48"/>
</a>
</g>
</g>
<!-- Node27&#45;&gt;Node12 -->
<g id="edge54_Node000027_Node000012" class="edge">
<title>Node27&#45;&gt;Node12</title>
<g id="a_edge54_Node000027_Node000012"><a xlink:title=" ">
<path fill="none" stroke="#63b8ff" d="M1184.44,-287.38C1181.59,-286.9 1178.77,-286.43 1176,-286 1072.04,-269.73 950.98,-256.33 875.41,-248.62"/>
<polygon fill="#63b8ff" stroke="#63b8ff" points="875.36,-245.1 865.06,-247.57 874.65,-252.06 875.36,-245.1"/>
</a>
</g>
</g>
<!-- Node27&#45;&gt;Node15 -->
<g id="edge56_Node000027_Node000015" class="edge">
<title>Node27&#45;&gt;Node15</title>
<g id="a_edge56_Node000027_Node000015"><a xlink:title=" ">
<path fill="none" stroke="#63b8ff" d="M1250,-285.73C1252.79,-270.56 1259.15,-246.65 1273,-231 1296.45,-204.51 1321.53,-222.33 1344,-195 1357.04,-179.14 1361.99,-155.69 1363.87,-139.34"/>
<polygon fill="#63b8ff" stroke="#63b8ff" points="1367.36,-139.61 1364.74,-129.35 1360.39,-139.01 1367.36,-139.61"/>
</a>
</g>
</g>
<!-- Node27&#45;&gt;Node16 -->
<g id="edge58_Node000027_Node000016" class="edge">
<title>Node27&#45;&gt;Node16</title>
<g id="a_edge58_Node000027_Node000016"><a xlink:title=" ">
<path fill="none" stroke="#63b8ff" d="M1237.86,-285.99C1224.03,-266.39 1199.13,-229.35 1183,-195 1174.32,-176.52 1167.24,-154.18 1162.86,-138.81"/>
<polygon fill="#63b8ff" stroke="#63b8ff" points="1166.19,-137.73 1160.17,-129.01 1159.45,-139.58 1166.19,-137.73"/>
</a>
</g>
</g>
<!-- Node27&#45;&gt;Node17 -->
<g id="edge59_Node000027_Node000017" class="edge">
<title>Node27&#45;&gt;Node17</title>
<g id="a_edge59_Node000027_Node000017"><a xlink:title=" ">
<path fill="none" stroke="#63b8ff" d="M1273.21,-285.96C1306.69,-266.91 1367.16,-231.1 1415,-195 1439.48,-176.53 1465.44,-152.39 1481.68,-136.68"/>
<polygon fill="#63b8ff" stroke="#63b8ff" points="1484.52,-138.79 1489.23,-129.3 1479.63,-133.79 1484.52,-138.79"/>
</a>
</g>
</g>
<!-- Node27&#45;&gt;Node21 -->
<g id="edge60_Node000027_Node000021" class="edge">
<title>Node27&#45;&gt;Node21</title>
<g id="a_edge60_Node000027_Node000021"><a xlink:title=" ">
<path fill="none" stroke="#63b8ff" d="M1186.97,-285.93C1143.58,-275.37 1089.51,-260.91 1069,-250 1042.89,-236.11 1017.76,-212.61 1002.59,-196.95"/>
<polygon fill="#63b8ff" stroke="#63b8ff" points="1005.03,-194.43 995.62,-189.57 999.94,-199.24 1005.03,-194.43"/>
</a>
</g>
</g>
<!-- Node27&#45;&gt;Node22 -->
<g id="edge61_Node000027_Node000022" class="edge">
<title>Node27&#45;&gt;Node22</title>
<g id="a_edge61_Node000027_Node000022"><a xlink:title=" ">
<path fill="none" stroke="#63b8ff" d="M1184.31,-286.82C1132.71,-275.77 1064.39,-260.21 1038,-250 999.66,-235.17 958.55,-210.6 934.34,-195.14"/>
<polygon fill="#63b8ff" stroke="#63b8ff" points="936.22,-192.19 925.93,-189.69 932.42,-198.06 936.22,-192.19"/>
</a>
</g>
</g>
</g>
</svg>
