<?xml version="1.0" encoding="UTF-8" standalone="no"?>
<!DOCTYPE svg PUBLIC "-//W3C//DTD SVG 1.1//EN"
 "http://www.w3.org/Graphics/SVG/1.1/DTD/svg11.dtd">
<!-- Generated by graphviz version 2.43.0 (0)
 -->
<!-- Title: /__w/qugar/qugar/cpp/include/qugar/impl_reparam_mesh.hpp Pages: 1 -->
<svg width="1600pt" height="445pt"
 viewBox="0.00 0.00 1600.00 445.00" xmlns="http://www.w3.org/2000/svg" xmlns:xlink="http://www.w3.org/1999/xlink">
<g id="graph0" class="graph" transform="scale(1 1) rotate(0) translate(4 441)">
<title>/__w/qugar/qugar/cpp/include/qugar/impl_reparam_mesh.hpp</title>
<!-- Node1 -->
<g id="Node000001" class="node">
<title>Node1</title>
<g id="a_Node000001"><a xlink:title="Declaration of reparameterization class.">
<polygon fill="#999999" stroke="#666666" points="1031.5,-437 874.5,-437 874.5,-396 1031.5,-396 1031.5,-437"/>
<text text-anchor="start" x="882.5" y="-425" font-family="Helvetica,sans-Serif" font-size="10.00">/__w/qugar/qugar/cpp</text>
<text text-anchor="start" x="882.5" y="-414" font-family="Helvetica,sans-Serif" font-size="10.00">/include/qugar/impl_reparam</text>
<text text-anchor="middle" x="953" y="-403" font-family="Helvetica,sans-Serif" font-size="10.00">_mesh.hpp</text>
</a>
</g>
</g>
<!-- Node2 -->
<g id="Node000002" class="node">
<title>Node2</title>
<g id="a_Node000002"><a xlink:href="../../d5/d90/bbox_8hpp.html" target="_top" xlink:title="Definition of Cartesian bounding box class.">
<polygon fill="white" stroke="#666666" points="1280,-189.5 1188,-189.5 1188,-170.5 1280,-170.5 1280,-189.5"/>
<text text-anchor="middle" x="1234" y="-177.5" font-family="Helvetica,sans-Serif" font-size="10.00">qugar/bbox.hpp</text>
</a>
</g>
</g>
<!-- Node1&#45;&gt;Node2 -->
<g id="edge1_Node000001_Node000002" class="edge">
<title>Node1&#45;&gt;Node2</title>
<g id="a_edge1_Node000001_Node000002"><a xlink:title=" ">
<path fill="none" stroke="#63b8ff" d="M1031.79,-406.53C1140.52,-392.24 1327.34,-360.15 1364,-305 1395.82,-257.13 1314.45,-213.92 1266.37,-193.47"/>
<polygon fill="#63b8ff" stroke="#63b8ff" points="1267.53,-190.16 1256.95,-189.57 1264.85,-196.63 1267.53,-190.16"/>
</a>
</g>
</g>
<!-- Node4 -->
<g id="Node000004" class="node">
<title>Node4</title>
<g id="a_Node000004"><a xlink:href="../../d0/de4/point_8hpp.html" target="_top" xlink:title="Definition and implementation of Point class.">
<polygon fill="white" stroke="#666666" points="684.5,-129 591.5,-129 591.5,-110 684.5,-110 684.5,-129"/>
<text text-anchor="middle" x="638" y="-117" font-family="Helvetica,sans-Serif" font-size="10.00">qugar/point.hpp</text>
</a>
</g>
</g>
<!-- Node1&#45;&gt;Node4 -->
<g id="edge42_Node000001_Node000004" class="edge">
<title>Node1&#45;&gt;Node4</title>
<g id="a_edge42_Node000001_Node000004"><a xlink:title=" ">
<path fill="none" stroke="#63b8ff" d="M884.49,-395.94C813.37,-372.32 703.42,-326.01 637,-250 610.92,-220.15 599.01,-203.09 610,-165 612.87,-155.06 618.68,-145.2 624.28,-137.29"/>
<polygon fill="#63b8ff" stroke="#63b8ff" points="627.08,-139.39 630.33,-129.3 621.5,-135.16 627.08,-139.39"/>
</a>
</g>
</g>
<!-- Node6 -->
<g id="Node000006" class="node">
<title>Node6</title>
<g id="a_Node000006"><a xlink:title=" ">
<polygon fill="#e0e0e0" stroke="#999999" points="1212.5,-19 1159.5,-19 1159.5,0 1212.5,0 1212.5,-19"/>
<text text-anchor="middle" x="1186" y="-7" font-family="Helvetica,sans-Serif" font-size="10.00">cstddef</text>
</a>
</g>
</g>
<!-- Node1&#45;&gt;Node6 -->
<g id="edge64_Node000001_Node000006" class="edge">
<title>Node1&#45;&gt;Node6</title>
<g id="a_edge64_Node000001_Node000006"><a xlink:title=" ">
<path fill="none" stroke="#63b8ff" d="M1031.67,-408.98C1202.47,-393.77 1592,-352.89 1592,-296.5 1592,-296.5 1592,-296.5 1592,-118.5 1592,-42.5 1322.93,-18.66 1222.88,-12.43"/>
<polygon fill="#63b8ff" stroke="#63b8ff" points="1222.83,-8.92 1212.64,-11.82 1222.41,-15.91 1222.83,-8.92"/>
</a>
</g>
</g>
<!-- Node9 -->
<g id="Node000009" class="node">
<title>Node9</title>
<g id="a_Node000009"><a xlink:title=" ">
<polygon fill="#e0e0e0" stroke="#999999" points="1030.5,-74 983.5,-74 983.5,-55 1030.5,-55 1030.5,-74"/>
<text text-anchor="middle" x="1007" y="-62" font-family="Helvetica,sans-Serif" font-size="10.00">vector</text>
</a>
</g>
</g>
<!-- Node1&#45;&gt;Node9 -->
<g id="edge68_Node000001_Node000009" class="edge">
<title>Node1&#45;&gt;Node9</title>
<g id="a_edge68_Node000001_Node000009"><a xlink:title=" ">
<path fill="none" stroke="#63b8ff" d="M1031.52,-412.44C1169.26,-404.92 1440,-379.57 1440,-296.5 1440,-296.5 1440,-296.5 1440,-179 1440,-147.19 1445.23,-130.6 1421,-110 1392.2,-85.51 1134.03,-71.33 1040.58,-66.96"/>
<polygon fill="#63b8ff" stroke="#63b8ff" points="1040.68,-63.46 1030.53,-66.5 1040.36,-70.46 1040.68,-63.46"/>
</a>
</g>
</g>
<!-- Node12 -->
<g id="Node000012" class="node">
<title>Node12</title>
<g id="a_Node000012"><a xlink:href="../../d6/d49/cart__grid__tp_8hpp.html" target="_top" xlink:title="Definition of Cartesian grid class.">
<polygon fill="white" stroke="#666666" points="868,-250 742,-250 742,-231 868,-231 868,-250"/>
<text text-anchor="middle" x="805" y="-238" font-family="Helvetica,sans-Serif" font-size="10.00">qugar/cart_grid_tp.hpp</text>
</a>
</g>
</g>
<!-- Node1&#45;&gt;Node12 -->
<g id="edge14_Node000001_Node000012" class="edge">
<title>Node1&#45;&gt;Node12</title>
<g id="a_edge14_Node000001_Node000012"><a xlink:title=" ">
<path fill="none" stroke="#63b8ff" d="M936.31,-395.88C906.89,-361.29 846.31,-290.07 818.96,-257.91"/>
<polygon fill="#63b8ff" stroke="#63b8ff" points="821.61,-255.62 812.46,-250.27 816.28,-260.16 821.61,-255.62"/>
</a>
</g>
</g>
<!-- Node13 -->
<g id="Node000013" class="node">
<title>Node13</title>
<g id="a_Node000013"><a xlink:href="../../d9/d43/tensor__index__tp_8hpp.html" target="_top" xlink:title="Declaration of tensor&#45;product index and size related classes.">
<polygon fill="white" stroke="#666666" points="470,-195 360,-195 360,-165 470,-165 470,-195"/>
<text text-anchor="start" x="368" y="-183" font-family="Helvetica,sans-Serif" font-size="10.00">qugar/tensor_index</text>
<text text-anchor="middle" x="415" y="-172" font-family="Helvetica,sans-Serif" font-size="10.00">_tp.hpp</text>
</a>
</g>
</g>
<!-- Node1&#45;&gt;Node13 -->
<g id="edge62_Node000001_Node000013" class="edge">
<title>Node1&#45;&gt;Node13</title>
<g id="a_edge62_Node000001_Node000013"><a xlink:title=" ">
<path fill="none" stroke="#63b8ff" d="M874.24,-414.2C763.11,-410.95 567.43,-399.61 510,-360 455.88,-322.68 430.15,-244.46 420.2,-204.95"/>
<polygon fill="#63b8ff" stroke="#63b8ff" points="423.58,-204.03 417.85,-195.11 416.77,-205.65 423.58,-204.03"/>
</a>
</g>
</g>
<!-- Node15 -->
<g id="Node000015" class="node">
<title>Node15</title>
<g id="a_Node000015"><a xlink:title=" ">
<polygon fill="#e0e0e0" stroke="#999999" points="426.5,-129 361.5,-129 361.5,-110 426.5,-110 426.5,-129"/>
<text text-anchor="middle" x="394" y="-117" font-family="Helvetica,sans-Serif" font-size="10.00">functional</text>
</a>
</g>
</g>
<!-- Node1&#45;&gt;Node15 -->
<g id="edge65_Node000001_Node000015" class="edge">
<title>Node1&#45;&gt;Node15</title>
<g id="a_edge65_Node000001_Node000015"><a xlink:title=" ">
<path fill="none" stroke="#63b8ff" d="M874.12,-412.67C780.28,-407.82 619.53,-394.76 486,-360 414.35,-341.35 332,-370.53 332,-296.5 332,-296.5 332,-296.5 332,-239.5 332,-205.33 334.35,-194.84 351,-165 357.11,-154.05 366.58,-143.84 375.09,-135.96"/>
<polygon fill="#63b8ff" stroke="#63b8ff" points="377.6,-138.41 382.8,-129.18 372.98,-133.16 377.6,-138.41"/>
</a>
</g>
</g>
<!-- Node17 -->
<g id="Node000017" class="node">
<title>Node17</title>
<g id="a_Node000017"><a xlink:href="../../d0/d55/tolerance_8hpp.html" target="_top" xlink:title="Definition of tolerance related functionalities.">
<polygon fill="white" stroke="#666666" points="754,-189.5 640,-189.5 640,-170.5 754,-170.5 754,-189.5"/>
<text text-anchor="middle" x="697" y="-177.5" font-family="Helvetica,sans-Serif" font-size="10.00">qugar/tolerance.hpp</text>
</a>
</g>
</g>
<!-- Node1&#45;&gt;Node17 -->
<g id="edge63_Node000001_Node000017" class="edge">
<title>Node1&#45;&gt;Node17</title>
<g id="a_edge63_Node000001_Node000017"><a xlink:title=" ">
<path fill="none" stroke="#63b8ff" d="M903.22,-395.94C847.01,-371.05 757.59,-322.4 713,-250 703.64,-234.8 699.75,-214.65 698.14,-200.05"/>
<polygon fill="#63b8ff" stroke="#63b8ff" points="701.59,-199.4 697.27,-189.73 694.62,-199.99 701.59,-199.4"/>
</a>
</g>
</g>
<!-- Node21 -->
<g id="Node000021" class="node">
<title>Node21</title>
<g id="a_Node000021"><a xlink:href="../../dc/d7c/domain__function_8hpp.html" target="_top" xlink:title="Declaration of a few implicit functions template class ready to be consumed by Algoim.">
<polygon fill="white" stroke="#666666" points="304,-189.5 154,-189.5 154,-170.5 304,-170.5 304,-189.5"/>
<text text-anchor="middle" x="229" y="-177.5" font-family="Helvetica,sans-Serif" font-size="10.00">qugar/domain_function.hpp</text>
</a>
</g>
</g>
<!-- Node1&#45;&gt;Node21 -->
<g id="edge35_Node000001_Node000021" class="edge">
<title>Node1&#45;&gt;Node21</title>
<g id="a_edge35_Node000001_Node000021"><a xlink:title=" ">
<path fill="none" stroke="#63b8ff" d="M874.49,-410.79C760.49,-403.18 555.16,-386.3 486,-360 383.94,-321.2 283.86,-233.13 245.45,-196.96"/>
<polygon fill="#63b8ff" stroke="#63b8ff" points="247.48,-194.05 237.82,-189.69 242.65,-199.12 247.48,-194.05"/>
</a>
</g>
</g>
<!-- Node24 -->
<g id="Node000024" class="node">
<title>Node24</title>
<g id="a_Node000024"><a xlink:href="../../d8/ddc/reparam__mesh_8hpp.html" target="_top" xlink:title="Declaration of reparameterization class.">
<polygon fill="white" stroke="#666666" points="1155,-360 1013,-360 1013,-341 1155,-341 1155,-360"/>
<text text-anchor="middle" x="1084" y="-348" font-family="Helvetica,sans-Serif" font-size="10.00">qugar/reparam_mesh.hpp</text>
</a>
</g>
</g>
<!-- Node1&#45;&gt;Node24 -->
<g id="edge43_Node000001_Node000024" class="edge">
<title>Node1&#45;&gt;Node24</title>
<g id="a_edge43_Node000001_Node000024"><a xlink:title=" ">
<path fill="none" stroke="#63b8ff" d="M993.02,-395.95C1013.9,-385.75 1038.89,-373.54 1057.39,-364.5"/>
<polygon fill="#63b8ff" stroke="#63b8ff" points="1058.96,-367.63 1066.41,-360.09 1055.89,-361.34 1058.96,-367.63"/>
</a>
</g>
</g>
<!-- Node27 -->
<g id="Node000027" class="node">
<title>Node27</title>
<g id="a_Node000027"><a xlink:title=" ">
<polygon fill="#e0e0e0" stroke="#999999" points="1293,-305 1253,-305 1253,-286 1293,-286 1293,-305"/>
<text text-anchor="middle" x="1273" y="-293" font-family="Helvetica,sans-Serif" font-size="10.00">span</text>
</a>
</g>
</g>
<!-- Node1&#45;&gt;Node27 -->
<g id="edge66_Node000001_Node000027" class="edge">
<title>Node1&#45;&gt;Node27</title>
<g id="a_edge66_Node000001_Node000027"><a xlink:title=" ">
<path fill="none" stroke="#63b8ff" d="M1031.56,-400.15C1071.99,-390.94 1121.56,-377.56 1164,-360 1196.44,-346.58 1230.98,-325.07 1252.28,-310.86"/>
<polygon fill="#63b8ff" stroke="#63b8ff" points="1254.5,-313.59 1260.82,-305.09 1250.58,-307.79 1254.5,-313.59"/>
</a>
</g>
</g>
<!-- Node28 -->
<g id="Node000028" class="node">
<title>Node28</title>
<g id="a_Node000028"><a xlink:title=" ">
<polygon fill="#e0e0e0" stroke="#999999" points="1355,-305 1311,-305 1311,-286 1355,-286 1355,-305"/>
<text text-anchor="middle" x="1333" y="-293" font-family="Helvetica,sans-Serif" font-size="10.00">string</text>
</a>
</g>
</g>
<!-- Node1&#45;&gt;Node28 -->
<g id="edge67_Node000001_Node000028" class="edge">
<title>Node1&#45;&gt;Node28</title>
<g id="a_edge67_Node000001_Node000028"><a xlink:title=" ">
<path fill="none" stroke="#63b8ff" d="M1031.59,-401.89C1079.75,-392.49 1142.25,-378.37 1196,-360 1236.65,-346.11 1281.4,-323.98 1308.34,-309.85"/>
<polygon fill="#63b8ff" stroke="#63b8ff" points="1310.22,-312.82 1317.42,-305.04 1306.94,-306.63 1310.22,-312.82"/>
</a>
</g>
</g>
<!-- Node3 -->
<g id="Node000003" class="node">
<title>Node3</title>
<g id="a_Node000003"><a xlink:href="../../d7/dd8/concepts_8hpp.html" target="_top" xlink:title="Declaration of concepts.">
<polygon fill="white" stroke="#666666" points="1412,-129 1300,-129 1300,-110 1412,-110 1412,-129"/>
<text text-anchor="middle" x="1356" y="-117" font-family="Helvetica,sans-Serif" font-size="10.00">qugar/concepts.hpp</text>
</a>
</g>
</g>
<!-- Node2&#45;&gt;Node3 -->
<g id="edge2_Node000002_Node000003" class="edge">
<title>Node2&#45;&gt;Node3</title>
<g id="a_edge2_Node000002_Node000003"><a xlink:title=" ">
<path fill="none" stroke="#63b8ff" d="M1251.74,-170.49C1272.07,-160.75 1305.61,-144.66 1329.14,-133.38"/>
<polygon fill="#63b8ff" stroke="#63b8ff" points="1330.74,-136.5 1338.24,-129.02 1327.71,-130.18 1330.74,-136.5"/>
</a>
</g>
</g>
<!-- Node2&#45;&gt;Node4 -->
<g id="edge3_Node000002_Node000004" class="edge">
<title>Node2&#45;&gt;Node4</title>
<g id="a_edge3_Node000002_Node000004"><a xlink:title=" ">
<path fill="none" stroke="#63b8ff" d="M1187.95,-173.87C1162.85,-171.12 1131.23,-167.75 1103,-165 924.66,-147.62 876.9,-150.59 694.9,-129.03"/>
<polygon fill="#63b8ff" stroke="#63b8ff" points="695.07,-125.53 684.72,-127.82 694.24,-132.48 695.07,-125.53"/>
</a>
</g>
</g>
<!-- Node5 -->
<g id="Node000005" class="node">
<title>Node5</title>
<g id="a_Node000005"><a xlink:href="../../dd/de3/types_8hpp.html" target="_top" xlink:title="Declaration of types.">
<polygon fill="white" stroke="#666666" points="846.5,-74 751.5,-74 751.5,-55 846.5,-55 846.5,-74"/>
<text text-anchor="middle" x="799" y="-62" font-family="Helvetica,sans-Serif" font-size="10.00">qugar/types.hpp</text>
</a>
</g>
</g>
<!-- Node2&#45;&gt;Node5 -->
<g id="edge10_Node000002_Node000005" class="edge">
<title>Node2&#45;&gt;Node5</title>
<g id="a_edge10_Node000002_Node000005"><a xlink:title=" ">
<path fill="none" stroke="#63b8ff" d="M1209.14,-170.47C1168.17,-156.61 1083.77,-128.85 1011,-110 958.93,-96.51 898.86,-84.2 855.99,-75.97"/>
<polygon fill="#63b8ff" stroke="#63b8ff" points="856.5,-72.5 846.03,-74.07 855.19,-79.38 856.5,-72.5"/>
</a>
</g>
</g>
<!-- Node2&#45;&gt;Node6 -->
<g id="edge13_Node000002_Node000006" class="edge">
<title>Node2&#45;&gt;Node6</title>
<g id="a_edge13_Node000002_Node000006"><a xlink:title=" ">
<path fill="none" stroke="#63b8ff" d="M1276.53,-170.47C1328.91,-159.53 1412.1,-140.6 1421,-129 1426.14,-122.3 1425.66,-117.04 1421,-110 1376.61,-43 1277.13,-20.99 1222.92,-13.85"/>
<polygon fill="#63b8ff" stroke="#63b8ff" points="1223.06,-10.35 1212.72,-12.62 1222.22,-17.3 1223.06,-10.35"/>
</a>
</g>
</g>
<!-- Node10 -->
<g id="Node000010" class="node">
<title>Node10</title>
<g id="a_Node000010"><a xlink:title=" ">
<polygon fill="#e0e0e0" stroke="#999999" points="1282,-129 1134,-129 1134,-110 1282,-110 1282,-129"/>
<text text-anchor="middle" x="1208" y="-117" font-family="Helvetica,sans-Serif" font-size="10.00">algoim/hyperrectangle.hpp</text>
</a>
</g>
</g>
<!-- Node2&#45;&gt;Node10 -->
<g id="edge11_Node000002_Node000010" class="edge">
<title>Node2&#45;&gt;Node10</title>
<g id="a_edge11_Node000002_Node000010"><a xlink:title=" ">
<path fill="none" stroke="#63b8ff" d="M1230.16,-170.37C1226.44,-161.99 1220.67,-149.01 1215.95,-138.39"/>
<polygon fill="#63b8ff" stroke="#63b8ff" points="1219.11,-136.88 1211.85,-129.17 1212.72,-139.73 1219.11,-136.88"/>
</a>
</g>
</g>
<!-- Node11 -->
<g id="Node000011" class="node">
<title>Node11</title>
<g id="a_Node000011"><a xlink:title=" ">
<polygon fill="#e0e0e0" stroke="#999999" points="1002,-129 960,-129 960,-110 1002,-110 1002,-129"/>
<text text-anchor="middle" x="981" y="-117" font-family="Helvetica,sans-Serif" font-size="10.00">array</text>
</a>
</g>
</g>
<!-- Node2&#45;&gt;Node11 -->
<g id="edge12_Node000002_Node000011" class="edge">
<title>Node2&#45;&gt;Node11</title>
<g id="a_edge12_Node000002_Node000011"><a xlink:title=" ">
<path fill="none" stroke="#63b8ff" d="M1196.16,-170.47C1152.65,-160.64 1079.11,-143.9 1016,-129 1014.73,-128.7 1013.44,-128.39 1012.14,-128.08"/>
<polygon fill="#63b8ff" stroke="#63b8ff" points="1012.63,-124.6 1002.09,-125.67 1010.99,-131.41 1012.63,-124.6"/>
</a>
</g>
</g>
<!-- Node4&#45;&gt;Node5 -->
<g id="edge4_Node000004_Node000005" class="edge">
<title>Node4&#45;&gt;Node5</title>
<g id="a_edge4_Node000004_Node000005"><a xlink:title=" ">
<path fill="none" stroke="#63b8ff" d="M663.87,-109.98C690.78,-101.13 733.12,-87.19 763.23,-77.28"/>
<polygon fill="#63b8ff" stroke="#63b8ff" points="764.53,-80.53 772.93,-74.08 762.34,-73.88 764.53,-80.53"/>
</a>
</g>
</g>
<!-- Node4&#45;&gt;Node6 -->
<g id="edge8_Node000004_Node000006" class="edge">
<title>Node4&#45;&gt;Node6</title>
<g id="a_edge8_Node000004_Node000006"><a xlink:title=" ">
<path fill="none" stroke="#63b8ff" d="M648.54,-109.9C666.6,-95.68 705.21,-67.61 743,-55 818.12,-29.94 1056.76,-16.49 1149.06,-12.12"/>
<polygon fill="#63b8ff" stroke="#63b8ff" points="1149.49,-15.6 1159.31,-11.64 1149.16,-8.61 1149.49,-15.6"/>
</a>
</g>
</g>
<!-- Node7 -->
<g id="Node000007" class="node">
<title>Node7</title>
<g id="a_Node000007"><a xlink:href="../../da/d16/vector_8hpp.html" target="_top" xlink:title=" ">
<polygon fill="white" stroke="#666666" points="465,-74 367,-74 367,-55 465,-55 465,-74"/>
<text text-anchor="middle" x="416" y="-62" font-family="Helvetica,sans-Serif" font-size="10.00">qugar/vector.hpp</text>
</a>
</g>
</g>
<!-- Node4&#45;&gt;Node7 -->
<g id="edge6_Node000004_Node000007" class="edge">
<title>Node4&#45;&gt;Node7</title>
<g id="a_edge6_Node000004_Node000007"><a xlink:title=" ">
<path fill="none" stroke="#63b8ff" d="M602.33,-109.98C564.17,-100.87 503.53,-86.4 461.85,-76.45"/>
<polygon fill="#63b8ff" stroke="#63b8ff" points="462.49,-73 451.95,-74.08 460.86,-79.81 462.49,-73"/>
</a>
</g>
</g>
<!-- Node4&#45;&gt;Node9 -->
<g id="edge9_Node000004_Node000009" class="edge">
<title>Node4&#45;&gt;Node9</title>
<g id="a_edge9_Node000004_Node000009"><a xlink:title=" ">
<path fill="none" stroke="#63b8ff" d="M684.75,-111.37C687.88,-110.9 690.98,-110.44 694,-110 795.73,-95.05 916.19,-78.15 973.49,-70.16"/>
<polygon fill="#63b8ff" stroke="#63b8ff" points="974.01,-73.62 983.43,-68.77 973.04,-66.69 974.01,-73.62"/>
</a>
</g>
</g>
<!-- Node5&#45;&gt;Node6 -->
<g id="edge5_Node000005_Node000006" class="edge">
<title>Node5&#45;&gt;Node6</title>
<g id="a_edge5_Node000005_Node000006"><a xlink:title=" ">
<path fill="none" stroke="#63b8ff" d="M846.84,-56.95C925.13,-46.23 1078.93,-25.16 1149.29,-15.53"/>
<polygon fill="#63b8ff" stroke="#63b8ff" points="1150.01,-18.96 1159.44,-14.14 1149.06,-12.03 1150.01,-18.96"/>
</a>
</g>
</g>
<!-- Node8 -->
<g id="Node000008" class="node">
<title>Node8</title>
<g id="a_Node000008"><a xlink:title=" ">
<polygon fill="#e0e0e0" stroke="#999999" points="471,-19 361,-19 361,0 471,0 471,-19"/>
<text text-anchor="middle" x="416" y="-7" font-family="Helvetica,sans-Serif" font-size="10.00">algoim/uvector.hpp</text>
</a>
</g>
</g>
<!-- Node7&#45;&gt;Node8 -->
<g id="edge7_Node000007_Node000008" class="edge">
<title>Node7&#45;&gt;Node8</title>
<g id="a_edge7_Node000007_Node000008"><a xlink:title=" ">
<path fill="none" stroke="#63b8ff" d="M416,-54.75C416,-47.8 416,-37.85 416,-29.13"/>
<polygon fill="#63b8ff" stroke="#63b8ff" points="419.5,-29.09 416,-19.09 412.5,-29.09 419.5,-29.09"/>
</a>
</g>
</g>
<!-- Node12&#45;&gt;Node2 -->
<g id="edge15_Node000012_Node000002" class="edge">
<title>Node12&#45;&gt;Node2</title>
<g id="a_edge15_Node000012_Node000002"><a xlink:title=" ">
<path fill="none" stroke="#63b8ff" d="M867.38,-230.99C950.84,-219.61 1097.6,-199.6 1177.79,-188.66"/>
<polygon fill="#63b8ff" stroke="#63b8ff" points="1178.27,-192.13 1187.71,-187.31 1177.33,-185.2 1178.27,-192.13"/>
</a>
</g>
</g>
<!-- Node12&#45;&gt;Node4 -->
<g id="edge16_Node000012_Node000004" class="edge">
<title>Node12&#45;&gt;Node4</title>
<g id="a_edge16_Node000012_Node000004"><a xlink:title=" ">
<path fill="none" stroke="#63b8ff" d="M741.67,-231.51C697.73,-224.51 644.72,-212.67 631,-195 618.71,-179.18 623.77,-155.38 629.73,-138.96"/>
<polygon fill="#63b8ff" stroke="#63b8ff" points="633.1,-139.98 633.61,-129.39 626.61,-137.35 633.1,-139.98"/>
</a>
</g>
</g>
<!-- Node12&#45;&gt;Node5 -->
<g id="edge29_Node000012_Node000005" class="edge">
<title>Node12&#45;&gt;Node5</title>
<g id="a_edge29_Node000012_Node000005"><a xlink:title=" ">
<path fill="none" stroke="#63b8ff" d="M813.75,-230.9C821.56,-222.56 832.45,-209.13 837,-195 849.88,-155.03 826.1,-107.56 810.68,-82.68"/>
<polygon fill="#63b8ff" stroke="#63b8ff" points="813.46,-80.53 805.09,-74.03 807.58,-84.33 813.46,-80.53"/>
</a>
</g>
</g>
<!-- Node12&#45;&gt;Node6 -->
<g id="edge31_Node000012_Node000006" class="edge">
<title>Node12&#45;&gt;Node6</title>
<g id="a_edge31_Node000012_Node000006"><a xlink:title=" ">
<path fill="none" stroke="#63b8ff" d="M814.61,-230.88C824.28,-222.09 839.53,-207.95 852,-195 909.47,-135.35 903.49,-96.79 975,-55 1030.06,-22.82 1105.27,-13.76 1149.43,-11.3"/>
<polygon fill="#63b8ff" stroke="#63b8ff" points="1149.61,-14.8 1159.43,-10.83 1149.28,-7.81 1149.61,-14.8"/>
</a>
</g>
</g>
<!-- Node12&#45;&gt;Node9 -->
<g id="edge34_Node000012_Node000009" class="edge">
<title>Node12&#45;&gt;Node9</title>
<g id="a_edge34_Node000012_Node000009"><a xlink:title=" ">
<path fill="none" stroke="#63b8ff" d="M840.42,-230.85C862.07,-224.07 889.13,-212.76 908,-195 938.83,-165.98 924.25,-142.82 951,-110 960.53,-98.3 973.63,-87.68 984.77,-79.76"/>
<polygon fill="#63b8ff" stroke="#63b8ff" points="986.89,-82.54 993.17,-74 982.94,-76.76 986.89,-82.54"/>
</a>
</g>
</g>
<!-- Node12&#45;&gt;Node11 -->
<g id="edge30_Node000012_Node000011" class="edge">
<title>Node12&#45;&gt;Node11</title>
<g id="a_edge30_Node000012_Node000011"><a xlink:title=" ">
<path fill="none" stroke="#63b8ff" d="M868.11,-231.07C894.67,-224.81 924.36,-213.93 946,-195 962.76,-180.34 972.09,-155.91 976.82,-139.05"/>
<polygon fill="#63b8ff" stroke="#63b8ff" points="980.24,-139.79 979.3,-129.24 973.45,-138.08 980.24,-139.79"/>
</a>
</g>
</g>
<!-- Node12&#45;&gt;Node13 -->
<g id="edge17_Node000012_Node000013" class="edge">
<title>Node12&#45;&gt;Node13</title>
<g id="a_edge17_Node000012_Node000013"><a xlink:title=" ">
<path fill="none" stroke="#63b8ff" d="M748.29,-230.99C677.17,-220.32 555.47,-202.07 480.46,-190.82"/>
<polygon fill="#63b8ff" stroke="#63b8ff" points="480.61,-187.3 470.2,-189.28 479.57,-194.22 480.61,-187.3"/>
</a>
</g>
</g>
<!-- Node12&#45;&gt;Node17 -->
<g id="edge24_Node000012_Node000017" class="edge">
<title>Node12&#45;&gt;Node17</title>
<g id="a_edge24_Node000012_Node000017"><a xlink:title=" ">
<path fill="none" stroke="#63b8ff" d="M789.06,-230.87C771.36,-221.28 742.54,-205.67 721.86,-194.47"/>
<polygon fill="#63b8ff" stroke="#63b8ff" points="723.46,-191.35 713,-189.67 720.13,-197.51 723.46,-191.35"/>
</a>
</g>
</g>
<!-- Node19 -->
<g id="Node000019" class="node">
<title>Node19</title>
<g id="a_Node000019"><a xlink:title=" ">
<polygon fill="#e0e0e0" stroke="#999999" points="1094,-189.5 1036,-189.5 1036,-170.5 1094,-170.5 1094,-189.5"/>
<text text-anchor="middle" x="1065" y="-177.5" font-family="Helvetica,sans-Serif" font-size="10.00">memory</text>
</a>
</g>
</g>
<!-- Node12&#45;&gt;Node19 -->
<g id="edge32_Node000012_Node000019" class="edge">
<title>Node12&#45;&gt;Node19</title>
<g id="a_edge32_Node000012_Node000019"><a xlink:title=" ">
<path fill="none" stroke="#63b8ff" d="M842.81,-230.99C891.72,-219.99 976.51,-200.91 1026,-189.78"/>
<polygon fill="#63b8ff" stroke="#63b8ff" points="1027.01,-193.14 1036,-187.53 1025.47,-186.31 1027.01,-193.14"/>
</a>
</g>
</g>
<!-- Node20 -->
<g id="Node000020" class="node">
<title>Node20</title>
<g id="a_Node000020"><a xlink:title=" ">
<polygon fill="#e0e0e0" stroke="#999999" points="828,-189.5 772,-189.5 772,-170.5 828,-170.5 828,-189.5"/>
<text text-anchor="middle" x="800" y="-177.5" font-family="Helvetica,sans-Serif" font-size="10.00">optional</text>
</a>
</g>
</g>
<!-- Node12&#45;&gt;Node20 -->
<g id="edge33_Node000012_Node000020" class="edge">
<title>Node12&#45;&gt;Node20</title>
<g id="a_edge33_Node000012_Node000020"><a xlink:title=" ">
<path fill="none" stroke="#63b8ff" d="M804.26,-230.87C803.57,-222.75 802.5,-210.31 801.61,-199.89"/>
<polygon fill="#63b8ff" stroke="#63b8ff" points="805.08,-199.33 800.74,-189.67 798.11,-199.93 805.08,-199.33"/>
</a>
</g>
</g>
<!-- Node13&#45;&gt;Node6 -->
<g id="edge21_Node000013_Node000006" class="edge">
<title>Node13&#45;&gt;Node6</title>
<g id="a_edge21_Node000013_Node000006"><a xlink:title=" ">
<path fill="none" stroke="#63b8ff" d="M431.09,-164.97C449.52,-149.55 481.14,-124.99 512,-110 589.92,-72.15 613.9,-71.24 699,-55 865.01,-23.32 1067.31,-14 1149.08,-11.42"/>
<polygon fill="#63b8ff" stroke="#63b8ff" points="1149.46,-14.91 1159.35,-11.12 1149.25,-7.92 1149.46,-14.91"/>
</a>
</g>
</g>
<!-- Node13&#45;&gt;Node7 -->
<g id="edge18_Node000013_Node000007" class="edge">
<title>Node13&#45;&gt;Node7</title>
<g id="a_edge18_Node000013_Node000007"><a xlink:title=" ">
<path fill="none" stroke="#63b8ff" d="M423.28,-164.89C430.41,-151.06 438.95,-129.31 435,-110 433.11,-100.74 429.21,-91.03 425.43,-83.04"/>
<polygon fill="#63b8ff" stroke="#63b8ff" points="428.51,-81.37 420.88,-74.02 422.26,-84.53 428.51,-81.37"/>
</a>
</g>
</g>
<!-- Node13&#45;&gt;Node11 -->
<g id="edge19_Node000013_Node000011" class="edge">
<title>Node13&#45;&gt;Node11</title>
<g id="a_edge19_Node000013_Node000011"><a xlink:title=" ">
<path fill="none" stroke="#63b8ff" d="M470.04,-173.31C587.22,-161.2 858.11,-133.2 949.92,-123.71"/>
<polygon fill="#63b8ff" stroke="#63b8ff" points="950.38,-127.18 959.96,-122.67 949.66,-120.22 950.38,-127.18"/>
</a>
</g>
</g>
<!-- Node14 -->
<g id="Node000014" class="node">
<title>Node14</title>
<g id="a_Node000014"><a xlink:title=" ">
<polygon fill="#e0e0e0" stroke="#999999" points="573,-129 521,-129 521,-110 573,-110 573,-129"/>
<text text-anchor="middle" x="547" y="-117" font-family="Helvetica,sans-Serif" font-size="10.00">cassert</text>
</a>
</g>
</g>
<!-- Node13&#45;&gt;Node14 -->
<g id="edge20_Node000013_Node000014" class="edge">
<title>Node13&#45;&gt;Node14</title>
<g id="a_edge20_Node000013_Node000014"><a xlink:title=" ">
<path fill="none" stroke="#63b8ff" d="M446.62,-164.99C468.35,-155.36 496.97,-142.67 518.09,-133.31"/>
<polygon fill="#63b8ff" stroke="#63b8ff" points="519.78,-136.39 527.51,-129.14 516.95,-129.99 519.78,-136.39"/>
</a>
</g>
</g>
<!-- Node13&#45;&gt;Node15 -->
<g id="edge22_Node000013_Node000015" class="edge">
<title>Node13&#45;&gt;Node15</title>
<g id="a_edge22_Node000013_Node000015"><a xlink:title=" ">
<path fill="none" stroke="#63b8ff" d="M409.92,-164.84C407.12,-157.04 403.61,-147.27 400.6,-138.89"/>
<polygon fill="#63b8ff" stroke="#63b8ff" points="403.82,-137.5 397.15,-129.27 397.23,-139.86 403.82,-137.5"/>
</a>
</g>
</g>
<!-- Node16 -->
<g id="Node000016" class="node">
<title>Node16</title>
<g id="a_Node000016"><a xlink:title=" ">
<polygon fill="#e0e0e0" stroke="#999999" points="343.5,-129 274.5,-129 274.5,-110 343.5,-110 343.5,-129"/>
<text text-anchor="middle" x="309" y="-117" font-family="Helvetica,sans-Serif" font-size="10.00">type_traits</text>
</a>
</g>
</g>
<!-- Node13&#45;&gt;Node16 -->
<g id="edge23_Node000013_Node000016" class="edge">
<title>Node13&#45;&gt;Node16</title>
<g id="a_edge23_Node000013_Node000016"><a xlink:title=" ">
<path fill="none" stroke="#63b8ff" d="M389.61,-164.99C372.71,-155.66 350.62,-143.47 333.84,-134.21"/>
<polygon fill="#63b8ff" stroke="#63b8ff" points="335.1,-130.91 324.65,-129.14 331.72,-137.04 335.1,-130.91"/>
</a>
</g>
</g>
<!-- Node17&#45;&gt;Node4 -->
<g id="edge25_Node000017_Node000004" class="edge">
<title>Node17&#45;&gt;Node4</title>
<g id="a_edge25_Node000017_Node000004"><a xlink:title=" ">
<path fill="none" stroke="#63b8ff" d="M688.29,-170.37C679.32,-161.47 665.12,-147.39 654.09,-136.45"/>
<polygon fill="#63b8ff" stroke="#63b8ff" points="656.31,-133.72 646.74,-129.17 651.38,-138.69 656.31,-133.72"/>
</a>
</g>
</g>
<!-- Node17&#45;&gt;Node5 -->
<g id="edge26_Node000017_Node000005" class="edge">
<title>Node17&#45;&gt;Node5</title>
<g id="a_edge26_Node000017_Node000005"><a xlink:title=" ">
<path fill="none" stroke="#63b8ff" d="M710.69,-170.48C724.53,-161.4 745.97,-146.02 761,-129 773.2,-115.19 783.66,-96.92 790.5,-83.52"/>
<polygon fill="#63b8ff" stroke="#63b8ff" points="793.72,-84.9 794.99,-74.38 787.44,-81.81 793.72,-84.9"/>
</a>
</g>
</g>
<!-- Node17&#45;&gt;Node9 -->
<g id="edge28_Node000017_Node000009" class="edge">
<title>Node17&#45;&gt;Node9</title>
<g id="a_edge28_Node000017_Node000009"><a xlink:title=" ">
<path fill="none" stroke="#63b8ff" d="M720.3,-170.47C774.83,-150.5 910.9,-100.68 973.96,-77.6"/>
<polygon fill="#63b8ff" stroke="#63b8ff" points="975.24,-80.85 983.43,-74.13 972.84,-74.28 975.24,-80.85"/>
</a>
</g>
</g>
<!-- Node18 -->
<g id="Node000018" class="node">
<title>Node18</title>
<g id="a_Node000018"><a xlink:title=" ">
<polygon fill="#e0e0e0" stroke="#999999" points="751.5,-129 702.5,-129 702.5,-110 751.5,-110 751.5,-129"/>
<text text-anchor="middle" x="727" y="-117" font-family="Helvetica,sans-Serif" font-size="10.00">cstdlib</text>
</a>
</g>
</g>
<!-- Node17&#45;&gt;Node18 -->
<g id="edge27_Node000017_Node000018" class="edge">
<title>Node17&#45;&gt;Node18</title>
<g id="a_edge27_Node000017_Node000018"><a xlink:title=" ">
<path fill="none" stroke="#63b8ff" d="M701.43,-170.37C705.77,-161.9 712.52,-148.74 717.99,-138.07"/>
<polygon fill="#63b8ff" stroke="#63b8ff" points="721.11,-139.66 722.56,-129.17 714.88,-136.47 721.11,-139.66"/>
</a>
</g>
</g>
<!-- Node21&#45;&gt;Node4 -->
<g id="edge37_Node000021_Node000004" class="edge">
<title>Node21&#45;&gt;Node4</title>
<g id="a_edge37_Node000021_Node000004"><a xlink:title=" ">
<path fill="none" stroke="#63b8ff" d="M290.56,-170.47C358.89,-160.96 472.73,-144.99 581.12,-129.12"/>
<polygon fill="#63b8ff" stroke="#63b8ff" points="581.87,-132.54 591.25,-127.63 580.85,-125.62 581.87,-132.54"/>
</a>
</g>
</g>
<!-- Node21&#45;&gt;Node5 -->
<g id="edge36_Node000021_Node000005" class="edge">
<title>Node21&#45;&gt;Node5</title>
<g id="a_edge36_Node000021_Node000005"><a xlink:title=" ">
<path fill="none" stroke="#63b8ff" d="M230.68,-170.44C234.14,-155.33 243.62,-124.21 265,-110 303.95,-84.12 611.09,-71.44 741.14,-67.19"/>
<polygon fill="#63b8ff" stroke="#63b8ff" points="741.43,-70.69 751.31,-66.87 741.2,-63.69 741.43,-70.69"/>
</a>
</g>
</g>
<!-- Node21&#45;&gt;Node7 -->
<g id="edge38_Node000021_Node000007" class="edge">
<title>Node21&#45;&gt;Node7</title>
<g id="a_edge38_Node000021_Node000007"><a xlink:title=" ">
<path fill="none" stroke="#63b8ff" d="M176.22,-170.43C128.56,-160.48 69.76,-141.31 97,-110 129.99,-72.09 273.93,-65.48 356.74,-64.9"/>
<polygon fill="#63b8ff" stroke="#63b8ff" points="356.79,-68.4 366.77,-64.86 356.76,-61.4 356.79,-68.4"/>
</a>
</g>
</g>
<!-- Node21&#45;&gt;Node16 -->
<g id="edge41_Node000021_Node000016" class="edge">
<title>Node21&#45;&gt;Node16</title>
<g id="a_edge41_Node000021_Node000016"><a xlink:title=" ">
<path fill="none" stroke="#63b8ff" d="M240.8,-170.37C253.45,-161.12 273.74,-146.28 288.91,-135.19"/>
<polygon fill="#63b8ff" stroke="#63b8ff" points="291.14,-137.9 297.15,-129.17 287.01,-132.24 291.14,-137.9"/>
</a>
</g>
</g>
<!-- Node22 -->
<g id="Node000022" class="node">
<title>Node22</title>
<g id="a_Node000022"><a xlink:title=" ">
<polygon fill="#e0e0e0" stroke="#999999" points="218,-129 106,-129 106,-110 218,-110 218,-129"/>
<text text-anchor="middle" x="162" y="-117" font-family="Helvetica,sans-Serif" font-size="10.00">algoim/interval.hpp</text>
</a>
</g>
</g>
<!-- Node21&#45;&gt;Node22 -->
<g id="edge39_Node000021_Node000022" class="edge">
<title>Node21&#45;&gt;Node22</title>
<g id="a_edge39_Node000021_Node000022"><a xlink:title=" ">
<path fill="none" stroke="#63b8ff" d="M219.11,-170.37C208.72,-161.3 192.16,-146.84 179.55,-135.82"/>
<polygon fill="#63b8ff" stroke="#63b8ff" points="181.76,-133.11 171.93,-129.17 177.16,-138.38 181.76,-133.11"/>
</a>
</g>
</g>
<!-- Node23 -->
<g id="Node000023" class="node">
<title>Node23</title>
<g id="a_Node000023"><a xlink:title=" ">
<polygon fill="#e0e0e0" stroke="#999999" points="50,-129 0,-129 0,-110 50,-110 50,-129"/>
<text text-anchor="middle" x="25" y="-117" font-family="Helvetica,sans-Serif" font-size="10.00">cstdint</text>
</a>
</g>
</g>
<!-- Node21&#45;&gt;Node23 -->
<g id="edge40_Node000021_Node000023" class="edge">
<title>Node21&#45;&gt;Node23</title>
<g id="a_edge40_Node000021_Node000023"><a xlink:title=" ">
<path fill="none" stroke="#63b8ff" d="M199.34,-170.49C162.33,-159.88 99.16,-141.77 59.88,-130.5"/>
<polygon fill="#63b8ff" stroke="#63b8ff" points="60.77,-127.12 50.2,-127.73 58.84,-133.85 60.77,-127.12"/>
</a>
</g>
</g>
<!-- Node24&#45;&gt;Node2 -->
<g id="edge44_Node000024_Node000002" class="edge">
<title>Node24&#45;&gt;Node2</title>
<g id="a_edge44_Node000024_Node000002"><a xlink:title=" ">
<path fill="none" stroke="#63b8ff" d="M1103.29,-340.87C1120.01,-332.88 1144.37,-320.01 1163,-305 1188.5,-284.47 1195.78,-278.44 1212,-250 1221.04,-234.14 1226.9,-214.08 1230.28,-199.68"/>
<polygon fill="#63b8ff" stroke="#63b8ff" points="1233.79,-200.05 1232.48,-189.53 1226.94,-198.57 1233.79,-200.05"/>
</a>
</g>
</g>
<!-- Node24&#45;&gt;Node4 -->
<g id="edge46_Node000024_Node000004" class="edge">
<title>Node24&#45;&gt;Node4</title>
<g id="a_edge46_Node000024_Node000004"><a xlink:title=" ">
<path fill="none" stroke="#63b8ff" d="M1012.94,-348.21C949.59,-344.97 855.35,-334.93 779,-305 698.66,-273.51 659.17,-271.37 619,-195 609.43,-176.8 618.25,-153.53 626.8,-137.88"/>
<polygon fill="#63b8ff" stroke="#63b8ff" points="629.84,-139.62 631.92,-129.24 623.82,-136.06 629.84,-139.62"/>
</a>
</g>
</g>
<!-- Node24&#45;&gt;Node6 -->
<g id="edge57_Node000024_Node000006" class="edge">
<title>Node24&#45;&gt;Node6</title>
<g id="a_edge57_Node000024_Node000006"><a xlink:title=" ">
<path fill="none" stroke="#63b8ff" d="M1107.28,-340.93C1128.73,-332.71 1161.2,-319.44 1188,-305 1312.78,-237.73 1386.89,-253.87 1454,-129 1466.22,-106.25 1442.1,-61.82 1434,-55 1402.6,-28.57 1283.99,-16.98 1222.89,-12.67"/>
<polygon fill="#63b8ff" stroke="#63b8ff" points="1223.1,-9.18 1212.89,-11.99 1222.63,-16.16 1223.1,-9.18"/>
</a>
</g>
</g>
<!-- Node24&#45;&gt;Node9 -->
<g id="edge61_Node000024_Node000009" class="edge">
<title>Node24&#45;&gt;Node9</title>
<g id="a_edge61_Node000024_Node000009"><a xlink:title=" ">
<path fill="none" stroke="#63b8ff" d="M1088.13,-340.99C1100.37,-314.67 1134.63,-232.33 1119,-165 1112.84,-138.47 1111,-129.5 1092,-110 1077.72,-95.34 1057.56,-84.5 1040.46,-77.19"/>
<polygon fill="#63b8ff" stroke="#63b8ff" points="1041.4,-73.8 1030.81,-73.29 1038.77,-80.29 1041.4,-73.8"/>
</a>
</g>
</g>
<!-- Node24&#45;&gt;Node12 -->
<g id="edge45_Node000024_Node000012" class="edge">
<title>Node24&#45;&gt;Node12</title>
<g id="a_edge45_Node000024_Node000012"><a xlink:title=" ">
<path fill="none" stroke="#63b8ff" d="M1025.6,-340.98C988.3,-334.21 939.51,-322.85 899,-305 870.35,-292.37 841.03,-270.94 822.92,-256.51"/>
<polygon fill="#63b8ff" stroke="#63b8ff" points="824.95,-253.65 814.99,-250.05 820.54,-259.08 824.95,-253.65"/>
</a>
</g>
</g>
<!-- Node24&#45;&gt;Node17 -->
<g id="edge47_Node000024_Node000017" class="edge">
<title>Node24&#45;&gt;Node17</title>
<g id="a_edge47_Node000024_Node000017"><a xlink:title=" ">
<path fill="none" stroke="#63b8ff" d="M1012.98,-347.73C934.86,-342.04 810.18,-321.4 733,-250 718.15,-236.27 708.36,-215.01 702.79,-199.71"/>
<polygon fill="#63b8ff" stroke="#63b8ff" points="705.97,-198.19 699.46,-189.83 699.33,-200.42 705.97,-198.19"/>
</a>
</g>
</g>
<!-- Node24&#45;&gt;Node19 -->
<g id="edge58_Node000024_Node000019" class="edge">
<title>Node24&#45;&gt;Node19</title>
<g id="a_edge58_Node000024_Node000019"><a xlink:title=" ">
<path fill="none" stroke="#63b8ff" d="M1083.03,-340.91C1080.1,-314.89 1071.25,-236.47 1067.14,-200.01"/>
<polygon fill="#63b8ff" stroke="#63b8ff" points="1070.59,-199.32 1065.99,-189.77 1063.63,-200.1 1070.59,-199.32"/>
</a>
</g>
</g>
<!-- Node25 -->
<g id="Node000025" class="node">
<title>Node25</title>
<g id="a_Node000025"><a xlink:href="../../d2/dfd/unfitted__domain_8hpp.html" target="_top" xlink:title="Declaration of of UnfittedDomain class.">
<polygon fill="white" stroke="#666666" points="1056,-305 908,-305 908,-286 1056,-286 1056,-305"/>
<text text-anchor="middle" x="982" y="-293" font-family="Helvetica,sans-Serif" font-size="10.00">qugar/unfitted_domain.hpp</text>
</a>
</g>
</g>
<!-- Node24&#45;&gt;Node25 -->
<g id="edge48_Node000024_Node000025" class="edge">
<title>Node24&#45;&gt;Node25</title>
<g id="a_edge48_Node000024_Node000025"><a xlink:title=" ">
<path fill="none" stroke="#63b8ff" d="M1067.61,-340.98C1051.43,-332.57 1026.43,-319.59 1007.62,-309.81"/>
<polygon fill="#63b8ff" stroke="#63b8ff" points="1009.17,-306.68 998.69,-305.17 1005.95,-312.89 1009.17,-306.68"/>
</a>
</g>
</g>
<!-- Node24&#45;&gt;Node27 -->
<g id="edge59_Node000024_Node000027" class="edge">
<title>Node24&#45;&gt;Node27</title>
<g id="a_edge59_Node000024_Node000027"><a xlink:title=" ">
<path fill="none" stroke="#63b8ff" d="M1114.37,-340.98C1149.79,-331.05 1207.98,-314.73 1243.17,-304.86"/>
<polygon fill="#63b8ff" stroke="#63b8ff" points="1244.2,-308.21 1252.88,-302.14 1242.3,-301.47 1244.2,-308.21"/>
</a>
</g>
</g>
<!-- Node24&#45;&gt;Node28 -->
<g id="edge60_Node000024_Node000028" class="edge">
<title>Node24&#45;&gt;Node28</title>
<g id="a_edge60_Node000024_Node000028"><a xlink:title=" ">
<path fill="none" stroke="#63b8ff" d="M1130.55,-340.92C1172.66,-332.96 1236.58,-320.35 1300.8,-305.16"/>
<polygon fill="#63b8ff" stroke="#63b8ff" points="1301.78,-308.53 1310.69,-302.81 1300.16,-301.72 1301.78,-308.53"/>
</a>
</g>
</g>
<!-- Node25&#45;&gt;Node6 -->
<g id="edge52_Node000025_Node000006" class="edge">
<title>Node25&#45;&gt;Node6</title>
<g id="a_edge52_Node000025_Node000006"><a xlink:title=" ">
<path fill="none" stroke="#63b8ff" d="M1011.66,-285.94C1108.63,-257.65 1411.53,-166.81 1436,-129 1488.45,-47.96 1304.46,-21.13 1222.95,-13.34"/>
<polygon fill="#63b8ff" stroke="#63b8ff" points="1222.9,-9.82 1212.62,-12.4 1222.27,-16.79 1222.9,-9.82"/>
</a>
</g>
</g>
<!-- Node25&#45;&gt;Node9 -->
<g id="edge56_Node000025_Node000009" class="edge">
<title>Node25&#45;&gt;Node9</title>
<g id="a_edge56_Node000025_Node000009"><a xlink:title=" ">
<path fill="none" stroke="#63b8ff" d="M1000.97,-285.94C1029.63,-271.78 1082.77,-240.48 1103,-195 1123.88,-148.05 1065.44,-101.84 1030.71,-79.45"/>
<polygon fill="#63b8ff" stroke="#63b8ff" points="1032.37,-76.37 1022.04,-74.04 1028.66,-82.3 1032.37,-76.37"/>
</a>
</g>
</g>
<!-- Node25&#45;&gt;Node11 -->
<g id="edge50_Node000025_Node000011" class="edge">
<title>Node25&#45;&gt;Node11</title>
<g id="a_edge50_Node000025_Node000011"><a xlink:title=" ">
<path fill="none" stroke="#63b8ff" d="M983.8,-285.68C985.53,-276.74 988.02,-262.48 989,-250 992.08,-210.66 987.2,-164.52 983.81,-139.31"/>
<polygon fill="#63b8ff" stroke="#63b8ff" points="987.26,-138.71 982.39,-129.3 980.33,-139.69 987.26,-138.71"/>
</a>
</g>
</g>
<!-- Node25&#45;&gt;Node12 -->
<g id="edge49_Node000025_Node000012" class="edge">
<title>Node25&#45;&gt;Node12</title>
<g id="a_edge49_Node000025_Node000012"><a xlink:title=" ">
<path fill="none" stroke="#63b8ff" d="M953.56,-285.98C923.72,-277.05 876.62,-262.94 843.47,-253.02"/>
<polygon fill="#63b8ff" stroke="#63b8ff" points="844.24,-249.6 833.66,-250.08 842.24,-256.3 844.24,-249.6"/>
</a>
</g>
</g>
<!-- Node25&#45;&gt;Node14 -->
<g id="edge51_Node000025_Node000014" class="edge">
<title>Node25&#45;&gt;Node14</title>
<g id="a_edge51_Node000025_Node000014"><a xlink:title=" ">
<path fill="none" stroke="#63b8ff" d="M907.98,-289.43C829.64,-280.82 705.58,-257.6 619,-195 595.88,-178.28 573.77,-153.68 560.29,-137.38"/>
<polygon fill="#63b8ff" stroke="#63b8ff" points="562.75,-134.86 553.74,-129.28 557.31,-139.26 562.75,-134.86"/>
</a>
</g>
</g>
<!-- Node25&#45;&gt;Node19 -->
<g id="edge54_Node000025_Node000019" class="edge">
<title>Node25&#45;&gt;Node19</title>
<g id="a_edge54_Node000025_Node000019"><a xlink:title=" ">
<path fill="none" stroke="#63b8ff" d="M990.76,-285.7C999.21,-276.99 1012.14,-263.12 1022,-250 1034.54,-233.32 1046.94,-212.89 1055.18,-198.6"/>
<polygon fill="#63b8ff" stroke="#63b8ff" points="1058.27,-200.24 1060.17,-189.82 1052.19,-196.78 1058.27,-200.24"/>
</a>
</g>
</g>
<!-- Node25&#45;&gt;Node23 -->
<g id="edge53_Node000025_Node000023" class="edge">
<title>Node25&#45;&gt;Node23</title>
<g id="a_edge53_Node000025_Node000023"><a xlink:title=" ">
<path fill="none" stroke="#63b8ff" d="M907.91,-289.83C730.44,-277.98 285.35,-244.17 145,-195 105.77,-181.26 65.88,-153.05 43.41,-135.56"/>
<polygon fill="#63b8ff" stroke="#63b8ff" points="45.43,-132.7 35.42,-129.22 41.08,-138.18 45.43,-132.7"/>
</a>
</g>
</g>
<!-- Node26 -->
<g id="Node000026" class="node">
<title>Node26</title>
<g id="a_Node000026"><a xlink:title=" ">
<polygon fill="#e0e0e0" stroke="#999999" points="979.5,-250 886.5,-250 886.5,-231 979.5,-231 979.5,-250"/>
<text text-anchor="middle" x="933" y="-238" font-family="Helvetica,sans-Serif" font-size="10.00">unordered_map</text>
</a>
</g>
</g>
<!-- Node25&#45;&gt;Node26 -->
<g id="edge55_Node000025_Node000026" class="edge">
<title>Node25&#45;&gt;Node26</title>
<g id="a_edge55_Node000025_Node000026"><a xlink:title=" ">
<path fill="none" stroke="#63b8ff" d="M973.91,-285.75C966.84,-278.11 956.41,-266.82 947.85,-257.56"/>
<polygon fill="#63b8ff" stroke="#63b8ff" points="950.3,-255.06 940.94,-250.09 945.16,-259.81 950.3,-255.06"/>
</a>
</g>
</g>
</g>
</svg>
