<?xml version="1.0" encoding="UTF-8" standalone="no"?>
<!DOCTYPE svg PUBLIC "-//W3C//DTD SVG 1.1//EN"
 "http://www.w3.org/Graphics/SVG/1.1/DTD/svg11.dtd">
<!-- Generated by graphviz version 2.43.0 (0)
 -->
<!-- Title: qugar::impl::funcs::CylinderBzr::create_monomials Pages: 1 -->
<svg width="283pt" height="134pt"
 viewBox="0.00 0.00 283.00 134.00" xmlns="http://www.w3.org/2000/svg" xmlns:xlink="http://www.w3.org/1999/xlink">
<g id="graph0" class="graph" transform="scale(1 1) rotate(0) translate(4 130)">
<title>qugar::impl::funcs::CylinderBzr::create_monomials</title>
<!-- Node1 -->
<g id="Node000001" class="node">
<title>Node1</title>
<g id="a_Node000001"><a xlink:title="Creates a polynomial representation based on monomials for the given center, radius,...">
<polygon fill="#999999" stroke="#666666" points="116,-83.5 0,-83.5 0,-42.5 116,-42.5 116,-83.5"/>
<text text-anchor="start" x="8" y="-71.5" font-family="Helvetica,sans-Serif" font-size="10.00">qugar::impl::funcs</text>
<text text-anchor="start" x="8" y="-60.5" font-family="Helvetica,sans-Serif" font-size="10.00">::CylinderBzr::create</text>
<text text-anchor="middle" x="58" y="-49.5" font-family="Helvetica,sans-Serif" font-size="10.00">_monomials</text>
</a>
</g>
</g>
<!-- Node2 -->
<g id="Node000002" class="node">
<title>Node2</title>
<g id="a_Node000002"><a xlink:href="../../d5/d65/classqugar_1_1impl_1_1funcs_1_1CylinderBase.html#a1229c227a2e1c326d27d16446002c0cb" target="_top" xlink:title="Gets the axis of the cylinder.">
<polygon fill="white" stroke="#666666" points="270,-126 157,-126 157,-96 270,-96 270,-126"/>
<text text-anchor="start" x="165" y="-114" font-family="Helvetica,sans-Serif" font-size="10.00">qugar::impl::funcs</text>
<text text-anchor="middle" x="213.5" y="-103" font-family="Helvetica,sans-Serif" font-size="10.00">::CylinderBase::axis</text>
</a>
</g>
</g>
<!-- Node1&#45;&gt;Node2 -->
<g id="edge1_Node000001_Node000002" class="edge">
<title>Node1&#45;&gt;Node2</title>
<g id="a_edge1_Node000001_Node000002"><a xlink:title=" ">
<path fill="none" stroke="#63b8ff" d="M116.16,-80.87C128.67,-84.79 141.92,-88.93 154.47,-92.85"/>
<polygon fill="#63b8ff" stroke="#63b8ff" points="153.76,-96.3 164.35,-95.94 155.85,-89.62 153.76,-96.3"/>
</a>
</g>
</g>
<!-- Node3 -->
<g id="Node000003" class="node">
<title>Node3</title>
<g id="a_Node000003"><a xlink:href="../../d5/d65/classqugar_1_1impl_1_1funcs_1_1CylinderBase.html#aa8f2f25af45beb10e9c6ca76c3ebaf09" target="_top" xlink:title="Gets the origin of the cylinder.">
<polygon fill="white" stroke="#666666" points="274,-78 153,-78 153,-48 274,-48 274,-78"/>
<text text-anchor="start" x="161" y="-66" font-family="Helvetica,sans-Serif" font-size="10.00">qugar::impl::funcs</text>
<text text-anchor="middle" x="213.5" y="-55" font-family="Helvetica,sans-Serif" font-size="10.00">::CylinderBase::origin</text>
</a>
</g>
</g>
<!-- Node1&#45;&gt;Node3 -->
<g id="edge2_Node000001_Node000003" class="edge">
<title>Node1&#45;&gt;Node3</title>
<g id="a_edge2_Node000001_Node000003"><a xlink:title=" ">
<path fill="none" stroke="#63b8ff" d="M116.16,-63C124.89,-63 133.98,-63 142.95,-63"/>
<polygon fill="#63b8ff" stroke="#63b8ff" points="142.98,-66.5 152.98,-63 142.98,-59.5 142.98,-66.5"/>
</a>
</g>
</g>
<!-- Node4 -->
<g id="Node000004" class="node">
<title>Node4</title>
<g id="a_Node000004"><a xlink:href="../../d5/d65/classqugar_1_1impl_1_1funcs_1_1CylinderBase.html#a3c0c18a5a821c192c527d6188fec6eaa" target="_top" xlink:title="Gets the radius of the cylinder.">
<polygon fill="white" stroke="#666666" points="275,-30 152,-30 152,0 275,0 275,-30"/>
<text text-anchor="start" x="160" y="-18" font-family="Helvetica,sans-Serif" font-size="10.00">qugar::impl::funcs</text>
<text text-anchor="middle" x="213.5" y="-7" font-family="Helvetica,sans-Serif" font-size="10.00">::CylinderBase::radius</text>
</a>
</g>
</g>
<!-- Node1&#45;&gt;Node4 -->
<g id="edge3_Node000001_Node000004" class="edge">
<title>Node1&#45;&gt;Node4</title>
<g id="a_edge3_Node000001_Node000004"><a xlink:title=" ">
<path fill="none" stroke="#63b8ff" d="M116.16,-45.13C128.67,-41.21 141.92,-37.07 154.47,-33.15"/>
<polygon fill="#63b8ff" stroke="#63b8ff" points="155.85,-36.38 164.35,-30.06 153.76,-29.7 155.85,-36.38"/>
</a>
</g>
</g>
</g>
</svg>
