<?xml version="1.0" encoding="UTF-8" standalone="no"?>
<!DOCTYPE svg PUBLIC "-//W3C//DTD SVG 1.1//EN"
 "http://www.w3.org/Graphics/SVG/1.1/DTD/svg11.dtd">
<!-- Generated by graphviz version 2.43.0 (0)
 -->
<!-- Title: /__w/qugar/qugar/cpp/include/qugar/impl_unfitted_domain.hpp Pages: 1 -->
<svg width="1804pt" height="456pt"
 viewBox="0.00 0.00 1804.00 456.00" xmlns="http://www.w3.org/2000/svg" xmlns:xlink="http://www.w3.org/1999/xlink">
<g id="graph0" class="graph" transform="scale(1 1) rotate(0) translate(4 452)">
<title>/__w/qugar/qugar/cpp/include/qugar/impl_unfitted_domain.hpp</title>
<!-- Node1 -->
<g id="Node000001" class="node">
<title>Node1</title>
<g id="a_Node000001"><a xlink:title="Declaration of of UnfittedImplDomain class.">
<polygon fill="#999999" stroke="#666666" points="1443.5,-448 1290.5,-448 1290.5,-407 1443.5,-407 1443.5,-448"/>
<text text-anchor="start" x="1298.5" y="-436" font-family="Helvetica,sans-Serif" font-size="10.00">/__w/qugar/qugar/cpp</text>
<text text-anchor="start" x="1298.5" y="-425" font-family="Helvetica,sans-Serif" font-size="10.00">/include/qugar/impl_unfitted</text>
<text text-anchor="middle" x="1367" y="-414" font-family="Helvetica,sans-Serif" font-size="10.00">_domain.hpp</text>
</a>
</g>
</g>
<!-- Node2 -->
<g id="Node000002" class="node">
<title>Node2</title>
<g id="a_Node000002"><a xlink:href="../../d5/d90/bbox_8hpp.html" target="_top" xlink:title="Definition of Cartesian bounding box class.">
<polygon fill="white" stroke="#666666" points="352,-189.5 260,-189.5 260,-170.5 352,-170.5 352,-189.5"/>
<text text-anchor="middle" x="306" y="-177.5" font-family="Helvetica,sans-Serif" font-size="10.00">qugar/bbox.hpp</text>
</a>
</g>
</g>
<!-- Node1&#45;&gt;Node2 -->
<g id="edge1_Node000001_Node000002" class="edge">
<title>Node1&#45;&gt;Node2</title>
<g id="a_edge1_Node000001_Node000002"><a xlink:title=" ">
<path fill="none" stroke="#63b8ff" d="M1290.23,-427.19C1068.52,-428.49 438.35,-427.17 366,-371 312.15,-329.19 305.65,-239.15 305.51,-199.92"/>
<polygon fill="#63b8ff" stroke="#63b8ff" points="309.02,-199.72 305.62,-189.68 302.02,-199.64 309.02,-199.72"/>
</a>
</g>
</g>
<!-- Node6 -->
<g id="Node000006" class="node">
<title>Node6</title>
<g id="a_Node000006"><a xlink:title=" ">
<polygon fill="#e0e0e0" stroke="#999999" points="1030.5,-19 977.5,-19 977.5,0 1030.5,0 1030.5,-19"/>
<text text-anchor="middle" x="1004" y="-7" font-family="Helvetica,sans-Serif" font-size="10.00">cstddef</text>
</a>
</g>
</g>
<!-- Node1&#45;&gt;Node6 -->
<g id="edge68_Node000001_Node000006" class="edge">
<title>Node1&#45;&gt;Node6</title>
<g id="a_edge68_Node000001_Node000006"><a xlink:title=" ">
<path fill="none" stroke="#63b8ff" d="M1443.7,-420.05C1567.09,-407.52 1796,-374.51 1796,-302 1796,-302 1796,-302 1796,-118.5 1796,-44.88 1714.66,-71.89 1643,-55 1527.28,-27.73 1159.07,-14.97 1040.89,-11.5"/>
<polygon fill="#63b8ff" stroke="#63b8ff" points="1040.67,-8 1030.57,-11.21 1040.47,-14.99 1040.67,-8"/>
</a>
</g>
</g>
<!-- Node9 -->
<g id="Node000009" class="node">
<title>Node9</title>
<g id="a_Node000009"><a xlink:title=" ">
<polygon fill="#e0e0e0" stroke="#999999" points="1316.5,-74 1269.5,-74 1269.5,-55 1316.5,-55 1316.5,-74"/>
<text text-anchor="middle" x="1293" y="-62" font-family="Helvetica,sans-Serif" font-size="10.00">vector</text>
</a>
</g>
</g>
<!-- Node1&#45;&gt;Node9 -->
<g id="edge72_Node000001_Node000009" class="edge">
<title>Node1&#45;&gt;Node9</title>
<g id="a_edge72_Node000001_Node000009"><a xlink:title=" ">
<path fill="none" stroke="#63b8ff" d="M1443.77,-419.8C1497.26,-412.86 1569.09,-398.89 1627,-371 1661.71,-354.28 1676.88,-350.51 1694,-316 1734.7,-233.93 1762.16,-178.2 1701,-110 1676.15,-82.29 1420.06,-70.17 1326.76,-66.65"/>
<polygon fill="#63b8ff" stroke="#63b8ff" points="1326.85,-63.15 1316.73,-66.28 1326.59,-70.15 1326.85,-63.15"/>
</a>
</g>
</g>
<!-- Node11 -->
<g id="Node000011" class="node">
<title>Node11</title>
<g id="a_Node000011"><a xlink:title=" ">
<polygon fill="#e0e0e0" stroke="#999999" points="414,-129 372,-129 372,-110 414,-110 414,-129"/>
<text text-anchor="middle" x="393" y="-117" font-family="Helvetica,sans-Serif" font-size="10.00">array</text>
</a>
</g>
</g>
<!-- Node1&#45;&gt;Node11 -->
<g id="edge66_Node000001_Node000011" class="edge">
<title>Node1&#45;&gt;Node11</title>
<g id="a_edge66_Node000001_Node000011"><a xlink:title=" ">
<path fill="none" stroke="#63b8ff" d="M1290.37,-424.86C1058.47,-418.91 380,-393.65 380,-302 380,-302 380,-302 380,-239.5 380,-203.78 385.86,-162.38 389.71,-139.03"/>
<polygon fill="#63b8ff" stroke="#63b8ff" points="393.17,-139.57 391.41,-129.12 386.27,-138.39 393.17,-139.57"/>
</a>
</g>
</g>
<!-- Node12 -->
<g id="Node000012" class="node">
<title>Node12</title>
<g id="a_Node000012"><a xlink:href="../../d6/d49/cart__grid__tp_8hpp.html" target="_top" xlink:title="Definition of Cartesian grid class.">
<polygon fill="white" stroke="#666666" points="1013,-250 887,-250 887,-231 1013,-231 1013,-250"/>
<text text-anchor="middle" x="950" y="-238" font-family="Helvetica,sans-Serif" font-size="10.00">qugar/cart_grid_tp.hpp</text>
</a>
</g>
</g>
<!-- Node1&#45;&gt;Node12 -->
<g id="edge14_Node000001_Node000012" class="edge">
<title>Node1&#45;&gt;Node12</title>
<g id="a_edge14_Node000001_Node000012"><a xlink:title=" ">
<path fill="none" stroke="#63b8ff" d="M1290.27,-420.79C1208.51,-411.16 1079.11,-385.3 992,-316 973.89,-301.59 962.26,-277.11 955.94,-260.17"/>
<polygon fill="#63b8ff" stroke="#63b8ff" points="959.1,-258.61 952.53,-250.3 952.49,-260.89 959.1,-258.61"/>
</a>
</g>
</g>
<!-- Node15 -->
<g id="Node000015" class="node">
<title>Node15</title>
<g id="a_Node000015"><a xlink:title=" ">
<polygon fill="#e0e0e0" stroke="#999999" points="1392,-129 1340,-129 1340,-110 1392,-110 1392,-129"/>
<text text-anchor="middle" x="1366" y="-117" font-family="Helvetica,sans-Serif" font-size="10.00">cassert</text>
</a>
</g>
</g>
<!-- Node1&#45;&gt;Node15 -->
<g id="edge67_Node000001_Node000015" class="edge">
<title>Node1&#45;&gt;Node15</title>
<g id="a_edge67_Node000001_Node000015"><a xlink:title=" ">
<path fill="none" stroke="#63b8ff" d="M1423.22,-406.92C1443.75,-398.03 1466.27,-386.07 1484,-371 1506.64,-351.76 1513.15,-344.36 1522,-316 1525.97,-303.27 1522.6,-299.32 1522,-286 1519.55,-231.97 1543.63,-206.55 1509,-165 1483.01,-133.82 1435.55,-124.12 1402.46,-121.3"/>
<polygon fill="#63b8ff" stroke="#63b8ff" points="1402.48,-117.79 1392.27,-120.6 1402.01,-124.77 1402.48,-117.79"/>
</a>
</g>
</g>
<!-- Node17 -->
<g id="Node000017" class="node">
<title>Node17</title>
<g id="a_Node000017"><a xlink:title=" ">
<polygon fill="#e0e0e0" stroke="#999999" points="1691.5,-129 1626.5,-129 1626.5,-110 1691.5,-110 1691.5,-129"/>
<text text-anchor="middle" x="1659" y="-117" font-family="Helvetica,sans-Serif" font-size="10.00">functional</text>
</a>
</g>
</g>
<!-- Node1&#45;&gt;Node17 -->
<g id="edge69_Node000001_Node000017" class="edge">
<title>Node1&#45;&gt;Node17</title>
<g id="a_edge69_Node000001_Node000017"><a xlink:title=" ">
<path fill="none" stroke="#63b8ff" d="M1443.65,-412.02C1536.9,-392.18 1682,-353.09 1682,-302 1682,-302 1682,-302 1682,-239.5 1682,-203.33 1671.63,-162.09 1664.82,-138.89"/>
<polygon fill="#63b8ff" stroke="#63b8ff" points="1668.08,-137.6 1661.82,-129.05 1661.39,-139.64 1668.08,-137.6"/>
</a>
</g>
</g>
<!-- Node21 -->
<g id="Node000021" class="node">
<title>Node21</title>
<g id="a_Node000021"><a xlink:title=" ">
<polygon fill="#e0e0e0" stroke="#999999" points="504,-189.5 446,-189.5 446,-170.5 504,-170.5 504,-189.5"/>
<text text-anchor="middle" x="475" y="-177.5" font-family="Helvetica,sans-Serif" font-size="10.00">memory</text>
</a>
</g>
</g>
<!-- Node1&#45;&gt;Node21 -->
<g id="edge70_Node000001_Node000021" class="edge">
<title>Node1&#45;&gt;Node21</title>
<g id="a_edge70_Node000001_Node000021"><a xlink:title=" ">
<path fill="none" stroke="#63b8ff" d="M1290.31,-419.46C1214.87,-411.49 1096.82,-396.22 997,-371 803.27,-322.04 581.19,-227.87 503.56,-193.74"/>
<polygon fill="#63b8ff" stroke="#63b8ff" points="504.55,-190.36 493.99,-189.52 501.72,-196.76 504.55,-190.36"/>
</a>
</g>
</g>
<!-- Node22 -->
<g id="Node000022" class="node">
<title>Node22</title>
<g id="a_Node000022"><a xlink:title=" ">
<polygon fill="#e0e0e0" stroke="#999999" points="1500,-189.5 1444,-189.5 1444,-170.5 1500,-170.5 1500,-189.5"/>
<text text-anchor="middle" x="1472" y="-177.5" font-family="Helvetica,sans-Serif" font-size="10.00">optional</text>
</a>
</g>
</g>
<!-- Node1&#45;&gt;Node22 -->
<g id="edge71_Node000001_Node000022" class="edge">
<title>Node1&#45;&gt;Node22</title>
<g id="a_edge71_Node000001_Node000022"><a xlink:title=" ">
<path fill="none" stroke="#63b8ff" d="M1407.8,-406.88C1440.82,-388.51 1485,-357.64 1505,-316 1524.07,-276.29 1499.16,-224.56 1483.29,-198.15"/>
<polygon fill="#63b8ff" stroke="#63b8ff" points="1486.23,-196.25 1477.96,-189.63 1480.3,-199.96 1486.23,-196.25"/>
</a>
</g>
</g>
<!-- Node23 -->
<g id="Node000023" class="node">
<title>Node23</title>
<g id="a_Node000023"><a xlink:href="../../dc/d7c/domain__function_8hpp.html" target="_top" xlink:title="Declaration of a few implicit functions template class ready to be consumed by Algoim.">
<polygon fill="white" stroke="#666666" points="786,-189.5 636,-189.5 636,-170.5 786,-170.5 786,-189.5"/>
<text text-anchor="middle" x="711" y="-177.5" font-family="Helvetica,sans-Serif" font-size="10.00">qugar/domain_function.hpp</text>
</a>
</g>
</g>
<!-- Node1&#45;&gt;Node23 -->
<g id="edge38_Node000001_Node000023" class="edge">
<title>Node1&#45;&gt;Node23</title>
<g id="a_edge38_Node000001_Node000023"><a xlink:title=" ">
<path fill="none" stroke="#63b8ff" d="M1290.37,-420.89C1223.69,-414.24 1125.27,-400.15 1044,-371 916.3,-325.21 780.86,-231.9 730.95,-195.76"/>
<polygon fill="#63b8ff" stroke="#63b8ff" points="732.79,-192.77 722.65,-189.7 728.66,-198.42 732.79,-192.77"/>
</a>
</g>
</g>
<!-- Node25 -->
<g id="Node000025" class="node">
<title>Node25</title>
<g id="a_Node000025"><a xlink:href="../../d2/dfd/unfitted__domain_8hpp.html" target="_top" xlink:title="Declaration of of UnfittedDomain class.">
<polygon fill="white" stroke="#666666" points="1376,-371 1228,-371 1228,-352 1376,-352 1376,-371"/>
<text text-anchor="middle" x="1302" y="-359" font-family="Helvetica,sans-Serif" font-size="10.00">qugar/unfitted_domain.hpp</text>
</a>
</g>
</g>
<!-- Node1&#45;&gt;Node25 -->
<g id="edge45_Node000001_Node000025" class="edge">
<title>Node1&#45;&gt;Node25</title>
<g id="a_edge45_Node000001_Node000025"><a xlink:title=" ">
<path fill="none" stroke="#63b8ff" d="M1347.14,-406.95C1337.88,-397.83 1327,-387.11 1318.24,-378.49"/>
<polygon fill="#63b8ff" stroke="#63b8ff" points="1320.48,-375.78 1310.9,-371.26 1315.57,-380.77 1320.48,-375.78"/>
</a>
</g>
</g>
<!-- Node26 -->
<g id="Node000026" class="node">
<title>Node26</title>
<g id="a_Node000026"><a xlink:href="../../d8/d90/unfitted__domain__kd__tree_8hpp.html" target="_top" xlink:title="Declaration of of UnfittedDomain class.">
<polygon fill="white" stroke="#666666" points="1495.5,-316 1368.5,-316 1368.5,-286 1495.5,-286 1495.5,-316"/>
<text text-anchor="start" x="1376.5" y="-304" font-family="Helvetica,sans-Serif" font-size="10.00">qugar/unfitted_domain</text>
<text text-anchor="middle" x="1432" y="-293" font-family="Helvetica,sans-Serif" font-size="10.00">_kd_tree.hpp</text>
</a>
</g>
</g>
<!-- Node1&#45;&gt;Node26 -->
<g id="edge65_Node000001_Node000026" class="edge">
<title>Node1&#45;&gt;Node26</title>
<g id="a_edge65_Node000001_Node000026"><a xlink:title=" ">
<path fill="none" stroke="#63b8ff" d="M1377.3,-406.77C1388.88,-384.6 1407.66,-348.63 1419.92,-325.14"/>
<polygon fill="#63b8ff" stroke="#63b8ff" points="1423.05,-326.7 1424.58,-316.21 1416.85,-323.46 1423.05,-326.7"/>
</a>
</g>
</g>
<!-- Node3 -->
<g id="Node000003" class="node">
<title>Node3</title>
<g id="a_Node000003"><a xlink:href="../../d7/dd8/concepts_8hpp.html" target="_top" xlink:title="Declaration of concepts.">
<polygon fill="white" stroke="#666666" points="112,-129 0,-129 0,-110 112,-110 112,-129"/>
<text text-anchor="middle" x="56" y="-117" font-family="Helvetica,sans-Serif" font-size="10.00">qugar/concepts.hpp</text>
</a>
</g>
</g>
<!-- Node2&#45;&gt;Node3 -->
<g id="edge2_Node000002_Node000003" class="edge">
<title>Node2&#45;&gt;Node3</title>
<g id="a_edge2_Node000002_Node000003"><a xlink:title=" ">
<path fill="none" stroke="#63b8ff" d="M269.65,-170.49C225.4,-160.14 150.61,-142.64 102.29,-131.33"/>
<polygon fill="#63b8ff" stroke="#63b8ff" points="102.93,-127.89 92.4,-129.02 101.34,-134.7 102.93,-127.89"/>
</a>
</g>
</g>
<!-- Node4 -->
<g id="Node000004" class="node">
<title>Node4</title>
<g id="a_Node000004"><a xlink:href="../../d0/de4/point_8hpp.html" target="_top" xlink:title="Definition and implementation of Point class.">
<polygon fill="white" stroke="#666666" points="933.5,-129 840.5,-129 840.5,-110 933.5,-110 933.5,-129"/>
<text text-anchor="middle" x="887" y="-117" font-family="Helvetica,sans-Serif" font-size="10.00">qugar/point.hpp</text>
</a>
</g>
</g>
<!-- Node2&#45;&gt;Node4 -->
<g id="edge3_Node000002_Node000004" class="edge">
<title>Node2&#45;&gt;Node4</title>
<g id="a_edge3_Node000002_Node000004"><a xlink:title=" ">
<path fill="none" stroke="#63b8ff" d="M352.07,-173.99C377.17,-171.28 408.79,-167.9 437,-165 578.46,-150.45 745.03,-134.21 830.35,-125.96"/>
<polygon fill="#63b8ff" stroke="#63b8ff" points="830.73,-129.44 840.34,-124.99 830.05,-122.47 830.73,-129.44"/>
</a>
</g>
</g>
<!-- Node5 -->
<g id="Node000005" class="node">
<title>Node5</title>
<g id="a_Node000005"><a xlink:href="../../dd/de3/types_8hpp.html" target="_top" xlink:title="Declaration of types.">
<polygon fill="white" stroke="#666666" points="934.5,-74 839.5,-74 839.5,-55 934.5,-55 934.5,-74"/>
<text text-anchor="middle" x="887" y="-62" font-family="Helvetica,sans-Serif" font-size="10.00">qugar/types.hpp</text>
</a>
</g>
</g>
<!-- Node2&#45;&gt;Node5 -->
<g id="edge10_Node000002_Node000005" class="edge">
<title>Node2&#45;&gt;Node5</title>
<g id="a_edge10_Node000002_Node000005"><a xlink:title=" ">
<path fill="none" stroke="#63b8ff" d="M310.19,-170.32C318.09,-155.02 336.8,-123.6 363,-110 452.77,-63.42 711.36,-84.4 829.48,-73.85"/>
<polygon fill="#63b8ff" stroke="#63b8ff" points="829.85,-77.34 839.45,-72.85 829.15,-70.37 829.85,-77.34"/>
</a>
</g>
</g>
<!-- Node2&#45;&gt;Node6 -->
<g id="edge13_Node000002_Node000006" class="edge">
<title>Node2&#45;&gt;Node6</title>
<g id="a_edge13_Node000002_Node000006"><a xlink:title=" ">
<path fill="none" stroke="#63b8ff" d="M307.9,-170.44C311.39,-156.4 319.96,-128.25 336,-110 367.45,-74.22 382.6,-69.44 428,-55 479.2,-38.71 848.26,-18.51 967.18,-12.36"/>
<polygon fill="#63b8ff" stroke="#63b8ff" points="967.44,-15.85 977.24,-11.84 967.08,-8.86 967.44,-15.85"/>
</a>
</g>
</g>
<!-- Node10 -->
<g id="Node000010" class="node">
<title>Node10</title>
<g id="a_Node000010"><a xlink:title=" ">
<polygon fill="#e0e0e0" stroke="#999999" points="278,-129 130,-129 130,-110 278,-110 278,-129"/>
<text text-anchor="middle" x="204" y="-117" font-family="Helvetica,sans-Serif" font-size="10.00">algoim/hyperrectangle.hpp</text>
</a>
</g>
</g>
<!-- Node2&#45;&gt;Node10 -->
<g id="edge11_Node000002_Node000010" class="edge">
<title>Node2&#45;&gt;Node10</title>
<g id="a_edge11_Node000002_Node000010"><a xlink:title=" ">
<path fill="none" stroke="#63b8ff" d="M290.95,-170.37C274.38,-160.86 247.5,-145.45 228.01,-134.27"/>
<polygon fill="#63b8ff" stroke="#63b8ff" points="229.53,-131.11 219.11,-129.17 226.05,-137.18 229.53,-131.11"/>
</a>
</g>
</g>
<!-- Node2&#45;&gt;Node11 -->
<g id="edge12_Node000002_Node000011" class="edge">
<title>Node2&#45;&gt;Node11</title>
<g id="a_edge12_Node000002_Node000011"><a xlink:title=" ">
<path fill="none" stroke="#63b8ff" d="M318.84,-170.37C332.72,-161.04 355.07,-146.01 371.61,-134.88"/>
<polygon fill="#63b8ff" stroke="#63b8ff" points="373.76,-137.65 380.11,-129.17 369.86,-131.84 373.76,-137.65"/>
</a>
</g>
</g>
<!-- Node4&#45;&gt;Node5 -->
<g id="edge4_Node000004_Node000005" class="edge">
<title>Node4&#45;&gt;Node5</title>
<g id="a_edge4_Node000004_Node000005"><a xlink:title=" ">
<path fill="none" stroke="#63b8ff" d="M887,-109.75C887,-102.8 887,-92.85 887,-84.13"/>
<polygon fill="#63b8ff" stroke="#63b8ff" points="890.5,-84.09 887,-74.09 883.5,-84.09 890.5,-84.09"/>
</a>
</g>
</g>
<!-- Node4&#45;&gt;Node6 -->
<g id="edge8_Node000004_Node000006" class="edge">
<title>Node4&#45;&gt;Node6</title>
<g id="a_edge8_Node000004_Node000006"><a xlink:title=" ">
<path fill="none" stroke="#63b8ff" d="M899.21,-109.8C911.06,-101.17 929.33,-87.35 944,-74 960.56,-58.93 977.98,-40.12 989.76,-26.89"/>
<polygon fill="#63b8ff" stroke="#63b8ff" points="992.63,-28.93 996.61,-19.11 987.38,-24.3 992.63,-28.93"/>
</a>
</g>
</g>
<!-- Node7 -->
<g id="Node000007" class="node">
<title>Node7</title>
<g id="a_Node000007"><a xlink:href="../../da/d16/vector_8hpp.html" target="_top" xlink:title=" ">
<polygon fill="white" stroke="#666666" points="821,-74 723,-74 723,-55 821,-55 821,-74"/>
<text text-anchor="middle" x="772" y="-62" font-family="Helvetica,sans-Serif" font-size="10.00">qugar/vector.hpp</text>
</a>
</g>
</g>
<!-- Node4&#45;&gt;Node7 -->
<g id="edge6_Node000004_Node000007" class="edge">
<title>Node4&#45;&gt;Node7</title>
<g id="a_edge6_Node000004_Node000007"><a xlink:title=" ">
<path fill="none" stroke="#63b8ff" d="M868.52,-109.98C850.02,-101.46 821.32,-88.23 800.02,-78.41"/>
<polygon fill="#63b8ff" stroke="#63b8ff" points="801.36,-75.18 790.81,-74.17 798.43,-81.53 801.36,-75.18"/>
</a>
</g>
</g>
<!-- Node4&#45;&gt;Node9 -->
<g id="edge9_Node000004_Node000009" class="edge">
<title>Node4&#45;&gt;Node9</title>
<g id="a_edge9_Node000004_Node000009"><a xlink:title=" ">
<path fill="none" stroke="#63b8ff" d="M933.74,-111.32C936.87,-110.86 939.98,-110.42 943,-110 1058.84,-93.85 1196.6,-77.03 1259.13,-69.53"/>
<polygon fill="#63b8ff" stroke="#63b8ff" points="1259.7,-72.99 1269.21,-68.32 1258.86,-66.04 1259.7,-72.99"/>
</a>
</g>
</g>
<!-- Node5&#45;&gt;Node6 -->
<g id="edge5_Node000005_Node000006" class="edge">
<title>Node5&#45;&gt;Node6</title>
<g id="a_edge5_Node000005_Node000006"><a xlink:title=" ">
<path fill="none" stroke="#63b8ff" d="M905.8,-54.98C924.62,-46.46 953.82,-33.23 975.5,-23.41"/>
<polygon fill="#63b8ff" stroke="#63b8ff" points="977.2,-26.48 984.86,-19.17 974.31,-20.11 977.2,-26.48"/>
</a>
</g>
</g>
<!-- Node8 -->
<g id="Node000008" class="node">
<title>Node8</title>
<g id="a_Node000008"><a xlink:title=" ">
<polygon fill="#e0e0e0" stroke="#999999" points="827,-19 717,-19 717,0 827,0 827,-19"/>
<text text-anchor="middle" x="772" y="-7" font-family="Helvetica,sans-Serif" font-size="10.00">algoim/uvector.hpp</text>
</a>
</g>
</g>
<!-- Node7&#45;&gt;Node8 -->
<g id="edge7_Node000007_Node000008" class="edge">
<title>Node7&#45;&gt;Node8</title>
<g id="a_edge7_Node000007_Node000008"><a xlink:title=" ">
<path fill="none" stroke="#63b8ff" d="M772,-54.75C772,-47.8 772,-37.85 772,-29.13"/>
<polygon fill="#63b8ff" stroke="#63b8ff" points="775.5,-29.09 772,-19.09 768.5,-29.09 775.5,-29.09"/>
</a>
</g>
</g>
<!-- Node12&#45;&gt;Node2 -->
<g id="edge15_Node000012_Node000002" class="edge">
<title>Node12&#45;&gt;Node2</title>
<g id="a_edge15_Node000012_Node000002"><a xlink:title=" ">
<path fill="none" stroke="#63b8ff" d="M886.78,-234.42C789.91,-226.55 598.95,-210.68 437,-195 412.41,-192.62 385.25,-189.76 362.06,-187.24"/>
<polygon fill="#63b8ff" stroke="#63b8ff" points="362.37,-183.75 352.05,-186.15 361.61,-190.71 362.37,-183.75"/>
</a>
</g>
</g>
<!-- Node12&#45;&gt;Node4 -->
<g id="edge16_Node000012_Node000004" class="edge">
<title>Node12&#45;&gt;Node4</title>
<g id="a_edge16_Node000012_Node000004"><a xlink:title=" ">
<path fill="none" stroke="#63b8ff" d="M919.73,-230.92C902.16,-224.21 881.48,-212.94 871,-195 860.82,-177.57 868.45,-154.46 876.29,-138.62"/>
<polygon fill="#63b8ff" stroke="#63b8ff" points="879.6,-139.86 881.28,-129.4 873.44,-136.53 879.6,-139.86"/>
</a>
</g>
</g>
<!-- Node12&#45;&gt;Node5 -->
<g id="edge31_Node000012_Node000005" class="edge">
<title>Node12&#45;&gt;Node5</title>
<g id="a_edge31_Node000012_Node000005"><a xlink:title=" ">
<path fill="none" stroke="#63b8ff" d="M921.98,-230.87C903,-223.82 878.47,-212.17 862,-195 839.69,-171.75 838.82,-160.49 832,-129 830.21,-120.75 828.36,-117.62 832,-110 838.09,-97.23 849.84,-86.94 860.92,-79.49"/>
<polygon fill="#63b8ff" stroke="#63b8ff" points="862.9,-82.38 869.54,-74.12 859.2,-76.43 862.9,-82.38"/>
</a>
</g>
</g>
<!-- Node12&#45;&gt;Node6 -->
<g id="edge33_Node000012_Node000006" class="edge">
<title>Node12&#45;&gt;Node6</title>
<g id="a_edge33_Node000012_Node000006"><a xlink:title=" ">
<path fill="none" stroke="#63b8ff" d="M886.8,-239.45C820.05,-237.45 712.79,-228.57 627,-195 605.3,-186.51 604.59,-175.91 584,-165 541.23,-142.33 460.13,-148.09 490,-110 549.16,-34.55 859.91,-15.88 967.38,-11.65"/>
<polygon fill="#63b8ff" stroke="#63b8ff" points="967.57,-15.15 977.43,-11.27 967.3,-8.15 967.57,-15.15"/>
</a>
</g>
</g>
<!-- Node12&#45;&gt;Node9 -->
<g id="edge37_Node000012_Node000009" class="edge">
<title>Node12&#45;&gt;Node9</title>
<g id="a_edge37_Node000012_Node000009"><a xlink:title=" ">
<path fill="none" stroke="#63b8ff" d="M1013.28,-237.35C1089.15,-233.53 1210.44,-223.1 1245,-195 1279.01,-167.34 1288.92,-113.15 1291.81,-84.42"/>
<polygon fill="#63b8ff" stroke="#63b8ff" points="1295.33,-84.38 1292.65,-74.13 1288.35,-83.81 1295.33,-84.38"/>
</a>
</g>
</g>
<!-- Node12&#45;&gt;Node11 -->
<g id="edge32_Node000012_Node000011" class="edge">
<title>Node12&#45;&gt;Node11</title>
<g id="a_edge32_Node000012_Node000011"><a xlink:title=" ">
<path fill="none" stroke="#63b8ff" d="M886.7,-239.74C814.01,-238.18 692.16,-229.89 594,-195 570.3,-186.58 568.96,-175.28 546,-165 524.19,-155.24 462.14,-138.39 424.09,-128.46"/>
<polygon fill="#63b8ff" stroke="#63b8ff" points="424.61,-124.98 414.05,-125.85 422.85,-131.75 424.61,-124.98"/>
</a>
</g>
</g>
<!-- Node13 -->
<g id="Node000013" class="node">
<title>Node13</title>
<g id="a_Node000013"><a xlink:href="../../d9/d43/tensor__index__tp_8hpp.html" target="_top" xlink:title="Declaration of tensor&#45;product index and size related classes.">
<polygon fill="white" stroke="#666666" points="990,-195 880,-195 880,-165 990,-165 990,-195"/>
<text text-anchor="start" x="888" y="-183" font-family="Helvetica,sans-Serif" font-size="10.00">qugar/tensor_index</text>
<text text-anchor="middle" x="935" y="-172" font-family="Helvetica,sans-Serif" font-size="10.00">_tp.hpp</text>
</a>
</g>
</g>
<!-- Node12&#45;&gt;Node13 -->
<g id="edge17_Node000012_Node000013" class="edge">
<title>Node12&#45;&gt;Node13</title>
<g id="a_edge17_Node000012_Node000013"><a xlink:title=" ">
<path fill="none" stroke="#63b8ff" d="M947.79,-230.87C946.03,-224.03 943.5,-214.14 941.15,-204.97"/>
<polygon fill="#63b8ff" stroke="#63b8ff" points="944.49,-203.93 938.62,-195.11 937.71,-205.67 944.49,-203.93"/>
</a>
</g>
</g>
<!-- Node16 -->
<g id="Node000016" class="node">
<title>Node16</title>
<g id="a_Node000016"><a xlink:title=" ">
<polygon fill="#e0e0e0" stroke="#999999" points="1102,-129 1052,-129 1052,-110 1102,-110 1102,-129"/>
<text text-anchor="middle" x="1077" y="-117" font-family="Helvetica,sans-Serif" font-size="10.00">cstdint</text>
</a>
</g>
</g>
<!-- Node12&#45;&gt;Node16 -->
<g id="edge34_Node000012_Node000016" class="edge">
<title>Node12&#45;&gt;Node16</title>
<g id="a_edge34_Node000012_Node000016"><a xlink:title=" ">
<path fill="none" stroke="#63b8ff" d="M959.83,-230.71C969.77,-221.78 985.55,-207.53 999,-195 1020.47,-175 1044.88,-151.58 1060.59,-136.41"/>
<polygon fill="#63b8ff" stroke="#63b8ff" points="1063.19,-138.76 1067.94,-129.29 1058.32,-133.73 1063.19,-138.76"/>
</a>
</g>
</g>
<!-- Node19 -->
<g id="Node000019" class="node">
<title>Node19</title>
<g id="a_Node000019"><a xlink:href="../../d0/d55/tolerance_8hpp.html" target="_top" xlink:title="Definition of tolerance related functionalities.">
<polygon fill="white" stroke="#666666" points="1236,-189.5 1122,-189.5 1122,-170.5 1236,-170.5 1236,-189.5"/>
<text text-anchor="middle" x="1179" y="-177.5" font-family="Helvetica,sans-Serif" font-size="10.00">qugar/tolerance.hpp</text>
</a>
</g>
</g>
<!-- Node12&#45;&gt;Node19 -->
<g id="edge26_Node000012_Node000019" class="edge">
<title>Node12&#45;&gt;Node19</title>
<g id="a_edge26_Node000012_Node000019"><a xlink:title=" ">
<path fill="none" stroke="#63b8ff" d="M983.3,-230.99C1023.58,-220.7 1091.48,-203.36 1135.77,-192.04"/>
<polygon fill="#63b8ff" stroke="#63b8ff" points="1136.84,-195.38 1145.66,-189.52 1135.11,-188.6 1136.84,-195.38"/>
</a>
</g>
</g>
<!-- Node12&#45;&gt;Node21 -->
<g id="edge35_Node000012_Node000021" class="edge">
<title>Node12&#45;&gt;Node21</title>
<g id="a_edge35_Node000012_Node000021"><a xlink:title=" ">
<path fill="none" stroke="#63b8ff" d="M886.73,-233.51C808.78,-225.86 672.36,-211.61 556,-195 542.4,-193.06 527.57,-190.6 514.37,-188.28"/>
<polygon fill="#63b8ff" stroke="#63b8ff" points="514.64,-184.78 504.18,-186.47 513.41,-191.67 514.64,-184.78"/>
</a>
</g>
</g>
<!-- Node12&#45;&gt;Node22 -->
<g id="edge36_Node000012_Node000022" class="edge">
<title>Node12&#45;&gt;Node22</title>
<g id="a_edge36_Node000012_Node000022"><a xlink:title=" ">
<path fill="none" stroke="#63b8ff" d="M1013.23,-232.41C1122.78,-220.14 1344.68,-195.27 1433.74,-185.29"/>
<polygon fill="#63b8ff" stroke="#63b8ff" points="1434.38,-188.74 1443.93,-184.15 1433.6,-181.78 1434.38,-188.74"/>
</a>
</g>
</g>
<!-- Node13&#45;&gt;Node6 -->
<g id="edge22_Node000013_Node000006" class="edge">
<title>Node13&#45;&gt;Node6</title>
<g id="a_edge22_Node000013_Node000006"><a xlink:title=" ">
<path fill="none" stroke="#63b8ff" d="M966.7,-164.94C981.17,-156.72 996.87,-144.8 1005,-129 1021.49,-96.96 1014.95,-53.28 1009.17,-28.9"/>
<polygon fill="#63b8ff" stroke="#63b8ff" points="1012.54,-27.97 1006.65,-19.16 1005.77,-29.72 1012.54,-27.97"/>
</a>
</g>
</g>
<!-- Node13&#45;&gt;Node7 -->
<g id="edge19_Node000013_Node000007" class="edge">
<title>Node13&#45;&gt;Node7</title>
<g id="a_edge19_Node000013_Node000007"><a xlink:title=" ">
<path fill="none" stroke="#63b8ff" d="M897.92,-164.87C877.46,-156.16 852.2,-143.81 832,-129 813.74,-115.61 796.37,-96.24 785.07,-82.42"/>
<polygon fill="#63b8ff" stroke="#63b8ff" points="787.53,-79.9 778.56,-74.26 782.06,-84.26 787.53,-79.9"/>
</a>
</g>
</g>
<!-- Node13&#45;&gt;Node11 -->
<g id="edge20_Node000013_Node000011" class="edge">
<title>Node13&#45;&gt;Node11</title>
<g id="a_edge20_Node000013_Node000011"><a xlink:title=" ">
<path fill="none" stroke="#63b8ff" d="M879.8,-173.04C766.9,-160.86 512.8,-133.43 424.19,-123.87"/>
<polygon fill="#63b8ff" stroke="#63b8ff" points="424.55,-120.38 414.23,-122.79 423.79,-127.34 424.55,-120.38"/>
</a>
</g>
</g>
<!-- Node14 -->
<g id="Node000014" class="node">
<title>Node14</title>
<g id="a_Node000014"><a xlink:title=" ">
<polygon fill="#e0e0e0" stroke="#999999" points="996,-129 952,-129 952,-110 996,-110 996,-129"/>
<text text-anchor="middle" x="974" y="-117" font-family="Helvetica,sans-Serif" font-size="10.00">limits</text>
</a>
</g>
</g>
<!-- Node13&#45;&gt;Node14 -->
<g id="edge18_Node000013_Node000014" class="edge">
<title>Node13&#45;&gt;Node14</title>
<g id="a_edge18_Node000013_Node000014"><a xlink:title=" ">
<path fill="none" stroke="#63b8ff" d="M944.44,-164.84C949.87,-156.69 956.73,-146.4 962.48,-137.78"/>
<polygon fill="#63b8ff" stroke="#63b8ff" points="965.52,-139.53 968.16,-129.27 959.7,-135.65 965.52,-139.53"/>
</a>
</g>
</g>
<!-- Node13&#45;&gt;Node15 -->
<g id="edge21_Node000013_Node000015" class="edge">
<title>Node13&#45;&gt;Node15</title>
<g id="a_edge21_Node000013_Node000015"><a xlink:title=" ">
<path fill="none" stroke="#63b8ff" d="M990.02,-171.53C1079.54,-159.38 1254.28,-135.66 1329.8,-125.41"/>
<polygon fill="#63b8ff" stroke="#63b8ff" points="1330.34,-128.87 1339.78,-124.06 1329.4,-121.94 1330.34,-128.87"/>
</a>
</g>
</g>
<!-- Node13&#45;&gt;Node16 -->
<g id="edge23_Node000013_Node000016" class="edge">
<title>Node13&#45;&gt;Node16</title>
<g id="a_edge23_Node000013_Node000016"><a xlink:title=" ">
<path fill="none" stroke="#63b8ff" d="M969.01,-164.99C992.6,-155.27 1023.74,-142.44 1046.52,-133.06"/>
<polygon fill="#63b8ff" stroke="#63b8ff" points="1048.12,-136.18 1056.03,-129.14 1045.45,-129.71 1048.12,-136.18"/>
</a>
</g>
</g>
<!-- Node13&#45;&gt;Node17 -->
<g id="edge24_Node000013_Node000017" class="edge">
<title>Node13&#45;&gt;Node17</title>
<g id="a_edge24_Node000013_Node000017"><a xlink:title=" ">
<path fill="none" stroke="#63b8ff" d="M990.01,-174.55C1128.85,-163.34 1491.26,-134.05 1616.05,-123.97"/>
<polygon fill="#63b8ff" stroke="#63b8ff" points="1616.65,-127.43 1626.34,-123.14 1616.09,-120.46 1616.65,-127.43"/>
</a>
</g>
</g>
<!-- Node18 -->
<g id="Node000018" class="node">
<title>Node18</title>
<g id="a_Node000018"><a xlink:title=" ">
<polygon fill="#e0e0e0" stroke="#999999" points="745.5,-129 676.5,-129 676.5,-110 745.5,-110 745.5,-129"/>
<text text-anchor="middle" x="711" y="-117" font-family="Helvetica,sans-Serif" font-size="10.00">type_traits</text>
</a>
</g>
</g>
<!-- Node13&#45;&gt;Node18 -->
<g id="edge25_Node000013_Node000018" class="edge">
<title>Node13&#45;&gt;Node18</title>
<g id="a_edge25_Node000013_Node000018"><a xlink:title=" ">
<path fill="none" stroke="#63b8ff" d="M881.35,-164.99C842.19,-154.76 789.82,-141.09 753.54,-131.61"/>
<polygon fill="#63b8ff" stroke="#63b8ff" points="754.31,-128.19 743.75,-129.05 752.54,-134.97 754.31,-128.19"/>
</a>
</g>
</g>
<!-- Node19&#45;&gt;Node4 -->
<g id="edge27_Node000019_Node000004" class="edge">
<title>Node19&#45;&gt;Node4</title>
<g id="a_edge27_Node000019_Node000004"><a xlink:title=" ">
<path fill="none" stroke="#63b8ff" d="M1136.54,-170.49C1084.42,-160.05 996.04,-142.35 939.65,-131.05"/>
<polygon fill="#63b8ff" stroke="#63b8ff" points="940,-127.55 929.51,-129.02 938.63,-134.41 940,-127.55"/>
</a>
</g>
</g>
<!-- Node19&#45;&gt;Node5 -->
<g id="edge28_Node000019_Node000005" class="edge">
<title>Node19&#45;&gt;Node5</title>
<g id="a_edge28_Node000019_Node000005"><a xlink:title=" ">
<path fill="none" stroke="#63b8ff" d="M1173.05,-170.16C1162.46,-155.18 1138.83,-125 1111,-110 1059.14,-82.04 992.01,-71.55 944.81,-67.66"/>
<polygon fill="#63b8ff" stroke="#63b8ff" points="944.99,-64.17 934.76,-66.91 944.47,-71.15 944.99,-64.17"/>
</a>
</g>
</g>
<!-- Node19&#45;&gt;Node9 -->
<g id="edge30_Node000019_Node000009" class="edge">
<title>Node19&#45;&gt;Node9</title>
<g id="a_edge30_Node000019_Node000009"><a xlink:title=" ">
<path fill="none" stroke="#63b8ff" d="M1187.57,-170.47C1206.63,-151.49 1252.79,-105.53 1277.22,-81.21"/>
<polygon fill="#63b8ff" stroke="#63b8ff" points="1279.71,-83.67 1284.33,-74.13 1274.78,-78.71 1279.71,-83.67"/>
</a>
</g>
</g>
<!-- Node20 -->
<g id="Node000020" class="node">
<title>Node20</title>
<g id="a_Node000020"><a xlink:title=" ">
<polygon fill="#e0e0e0" stroke="#999999" points="1207.5,-129 1158.5,-129 1158.5,-110 1207.5,-110 1207.5,-129"/>
<text text-anchor="middle" x="1183" y="-117" font-family="Helvetica,sans-Serif" font-size="10.00">cstdlib</text>
</a>
</g>
</g>
<!-- Node19&#45;&gt;Node20 -->
<g id="edge29_Node000019_Node000020" class="edge">
<title>Node19&#45;&gt;Node20</title>
<g id="a_edge29_Node000019_Node000020"><a xlink:title=" ">
<path fill="none" stroke="#63b8ff" d="M1179.59,-170.37C1180.15,-162.25 1181,-149.81 1181.71,-139.39"/>
<polygon fill="#63b8ff" stroke="#63b8ff" points="1185.22,-139.38 1182.41,-129.17 1178.23,-138.91 1185.22,-139.38"/>
</a>
</g>
</g>
<!-- Node23&#45;&gt;Node4 -->
<g id="edge40_Node000023_Node000004" class="edge">
<title>Node23&#45;&gt;Node4</title>
<g id="a_edge40_Node000023_Node000004"><a xlink:title=" ">
<path fill="none" stroke="#63b8ff" d="M736.59,-170.49C766.96,-160.4 817.76,-143.51 851.82,-132.19"/>
<polygon fill="#63b8ff" stroke="#63b8ff" points="852.99,-135.49 861.38,-129.02 850.78,-128.85 852.99,-135.49"/>
</a>
</g>
</g>
<!-- Node23&#45;&gt;Node5 -->
<g id="edge39_Node000023_Node000005" class="edge">
<title>Node23&#45;&gt;Node5</title>
<g id="a_edge39_Node000023_Node000005"><a xlink:title=" ">
<path fill="none" stroke="#63b8ff" d="M698.81,-170.47C680.97,-156.96 651.57,-130.11 668,-110 673.17,-103.67 766.4,-86.4 829.53,-75.33"/>
<polygon fill="#63b8ff" stroke="#63b8ff" points="830.14,-78.77 839.39,-73.61 828.94,-71.88 830.14,-78.77"/>
</a>
</g>
</g>
<!-- Node23&#45;&gt;Node7 -->
<g id="edge41_Node000023_Node000007" class="edge">
<title>Node23&#45;&gt;Node7</title>
<g id="a_edge41_Node000023_Node000007"><a xlink:title=" ">
<path fill="none" stroke="#63b8ff" d="M660.5,-170.45C601.06,-159.88 509.08,-141.73 499,-129 493.76,-122.38 493.53,-116.43 499,-110 525.87,-78.4 640.79,-69.18 712.69,-66.53"/>
<polygon fill="#63b8ff" stroke="#63b8ff" points="713.1,-70.02 722.98,-66.19 712.86,-63.02 713.1,-70.02"/>
</a>
</g>
</g>
<!-- Node23&#45;&gt;Node16 -->
<g id="edge43_Node000023_Node000016" class="edge">
<title>Node23&#45;&gt;Node16</title>
<g id="a_edge43_Node000023_Node000016"><a xlink:title=" ">
<path fill="none" stroke="#63b8ff" d="M764.22,-170.49C840.09,-158.37 977.29,-136.44 1041.75,-126.13"/>
<polygon fill="#63b8ff" stroke="#63b8ff" points="1042.49,-129.56 1051.81,-124.53 1041.38,-122.65 1042.49,-129.56"/>
</a>
</g>
</g>
<!-- Node23&#45;&gt;Node18 -->
<g id="edge44_Node000023_Node000018" class="edge">
<title>Node23&#45;&gt;Node18</title>
<g id="a_edge44_Node000023_Node000018"><a xlink:title=" ">
<path fill="none" stroke="#63b8ff" d="M711,-170.37C711,-162.25 711,-149.81 711,-139.39"/>
<polygon fill="#63b8ff" stroke="#63b8ff" points="714.5,-139.17 711,-129.17 707.5,-139.17 714.5,-139.17"/>
</a>
</g>
</g>
<!-- Node24 -->
<g id="Node000024" class="node">
<title>Node24</title>
<g id="a_Node000024"><a xlink:title=" ">
<polygon fill="#e0e0e0" stroke="#999999" points="620,-129 508,-129 508,-110 620,-110 620,-129"/>
<text text-anchor="middle" x="564" y="-117" font-family="Helvetica,sans-Serif" font-size="10.00">algoim/interval.hpp</text>
</a>
</g>
</g>
<!-- Node23&#45;&gt;Node24 -->
<g id="edge42_Node000023_Node000024" class="edge">
<title>Node23&#45;&gt;Node24</title>
<g id="a_edge42_Node000023_Node000024"><a xlink:title=" ">
<path fill="none" stroke="#63b8ff" d="M689.62,-170.49C664.69,-160.57 623.28,-144.09 594.86,-132.78"/>
<polygon fill="#63b8ff" stroke="#63b8ff" points="595.99,-129.46 585.4,-129.02 593.4,-135.97 595.99,-129.46"/>
</a>
</g>
</g>
<!-- Node25&#45;&gt;Node6 -->
<g id="edge59_Node000025_Node000006" class="edge">
<title>Node25&#45;&gt;Node6</title>
<g id="a_edge59_Node000025_Node000006"><a xlink:title=" ">
<path fill="none" stroke="#63b8ff" d="M1376.05,-353.78C1424.03,-347.71 1487.18,-336.46 1540,-316 1646.26,-274.83 1758,-294.96 1758,-181 1758,-181 1758,-181 1758,-118.5 1758,-45.21 1192.62,-17.87 1041.02,-11.85"/>
<polygon fill="#63b8ff" stroke="#63b8ff" points="1040.96,-8.35 1030.84,-11.45 1040.69,-15.34 1040.96,-8.35"/>
</a>
</g>
</g>
<!-- Node25&#45;&gt;Node9 -->
<g id="edge64_Node000025_Node000009" class="edge">
<title>Node25&#45;&gt;Node9</title>
<g id="a_edge64_Node000025_Node000009"><a xlink:title=" ">
<path fill="none" stroke="#63b8ff" d="M1302.16,-351.84C1302.7,-319.74 1304.06,-204.63 1298,-110 1297.45,-101.46 1296.45,-92.03 1295.49,-84.06"/>
<polygon fill="#63b8ff" stroke="#63b8ff" points="1298.94,-83.48 1294.2,-74.01 1292,-84.37 1298.94,-83.48"/>
</a>
</g>
</g>
<!-- Node25&#45;&gt;Node11 -->
<g id="edge57_Node000025_Node000011" class="edge">
<title>Node25&#45;&gt;Node11</title>
<g id="a_edge57_Node000025_Node000011"><a xlink:title=" ">
<path fill="none" stroke="#63b8ff" d="M1227.91,-357.97C1089.83,-352.78 798.26,-339.38 700,-316 574.83,-286.21 530.09,-283.82 437,-195 420.24,-179.01 407.7,-155.25 400.39,-138.88"/>
<polygon fill="#63b8ff" stroke="#63b8ff" points="403.47,-137.19 396.34,-129.35 397.03,-139.92 403.47,-137.19"/>
</a>
</g>
</g>
<!-- Node25&#45;&gt;Node12 -->
<g id="edge46_Node000025_Node000012" class="edge">
<title>Node25&#45;&gt;Node12</title>
<g id="a_edge46_Node000025_Node000012"><a xlink:title=" ">
<path fill="none" stroke="#63b8ff" d="M1227.92,-357.8C1174.24,-353.5 1101.03,-342.72 1042,-316 1011.11,-302.01 981.82,-275.11 964.9,-257.75"/>
<polygon fill="#63b8ff" stroke="#63b8ff" points="967.06,-254.94 957.63,-250.09 961.98,-259.75 967.06,-254.94"/>
</a>
</g>
</g>
<!-- Node25&#45;&gt;Node15 -->
<g id="edge58_Node000025_Node000015" class="edge">
<title>Node25&#45;&gt;Node15</title>
<g id="a_edge58_Node000025_Node000015"><a xlink:title=" ">
<path fill="none" stroke="#63b8ff" d="M1304.93,-351.68C1307.87,-342.73 1312.45,-328.46 1316,-316 1334.37,-251.52 1353.22,-174.2 1361.56,-139.26"/>
<polygon fill="#63b8ff" stroke="#63b8ff" points="1365.06,-139.66 1363.97,-129.12 1358.25,-138.04 1365.06,-139.66"/>
</a>
</g>
</g>
<!-- Node25&#45;&gt;Node16 -->
<g id="edge60_Node000025_Node000016" class="edge">
<title>Node25&#45;&gt;Node16</title>
<g id="a_edge60_Node000025_Node000016"><a xlink:title=" ">
<path fill="none" stroke="#63b8ff" d="M1255,-351.92C1228.66,-345.37 1196.32,-334.26 1172,-316 1119.45,-276.54 1110.94,-256.2 1087,-195 1079.95,-176.99 1077.71,-154.86 1077.08,-139.42"/>
<polygon fill="#63b8ff" stroke="#63b8ff" points="1080.57,-139.01 1076.85,-129.09 1073.57,-139.17 1080.57,-139.01"/>
</a>
</g>
</g>
<!-- Node25&#45;&gt;Node17 -->
<g id="edge61_Node000025_Node000017" class="edge">
<title>Node25&#45;&gt;Node17</title>
<g id="a_edge61_Node000025_Node000017"><a xlink:title=" ">
<path fill="none" stroke="#63b8ff" d="M1376.32,-353.12C1416.08,-347.01 1464.96,-335.95 1505,-316 1582.56,-277.36 1633.11,-179.29 1651.37,-138.61"/>
<polygon fill="#63b8ff" stroke="#63b8ff" points="1654.61,-139.93 1655.4,-129.37 1648.19,-137.13 1654.61,-139.93"/>
</a>
</g>
</g>
<!-- Node25&#45;&gt;Node21 -->
<g id="edge62_Node000025_Node000021" class="edge">
<title>Node25&#45;&gt;Node21</title>
<g id="a_edge62_Node000025_Node000021"><a xlink:title=" ">
<path fill="none" stroke="#63b8ff" d="M1227.85,-359.18C1094.66,-354.64 807.92,-334.89 584,-250 549.37,-236.87 513.99,-211.91 493.29,-195.88"/>
<polygon fill="#63b8ff" stroke="#63b8ff" points="495.37,-193.07 485.36,-189.62 491.04,-198.57 495.37,-193.07"/>
</a>
</g>
</g>
<!-- Node25&#45;&gt;Node26 -->
<g id="edge47_Node000025_Node000026" class="edge">
<title>Node25&#45;&gt;Node26</title>
<g id="a_edge47_Node000025_Node000026"><a xlink:title=" ">
<path fill="none" stroke="#63b8ff" d="M1320.9,-351.99C1339.29,-343.72 1367.8,-330.89 1391.34,-320.3"/>
<polygon fill="#63b8ff" stroke="#63b8ff" points="1393.06,-323.36 1400.75,-316.06 1390.19,-316.98 1393.06,-323.36"/>
</a>
</g>
</g>
<!-- Node27 -->
<g id="Node000027" class="node">
<title>Node27</title>
<g id="a_Node000027"><a xlink:title=" ">
<polygon fill="#e0e0e0" stroke="#999999" points="1273.5,-310.5 1180.5,-310.5 1180.5,-291.5 1273.5,-291.5 1273.5,-310.5"/>
<text text-anchor="middle" x="1227" y="-298.5" font-family="Helvetica,sans-Serif" font-size="10.00">unordered_map</text>
</a>
</g>
</g>
<!-- Node25&#45;&gt;Node27 -->
<g id="edge63_Node000025_Node000027" class="edge">
<title>Node25&#45;&gt;Node27</title>
<g id="a_edge63_Node000025_Node000027"><a xlink:title=" ">
<path fill="none" stroke="#63b8ff" d="M1290.93,-351.87C1279.19,-342.71 1260.41,-328.06 1246.24,-317.01"/>
<polygon fill="#63b8ff" stroke="#63b8ff" points="1248.15,-314.06 1238.11,-310.67 1243.84,-319.58 1248.15,-314.06"/>
</a>
</g>
</g>
<!-- Node26&#45;&gt;Node6 -->
<g id="edge51_Node000026_Node000006" class="edge">
<title>Node26&#45;&gt;Node6</title>
<g id="a_edge51_Node000026_Node000006"><a xlink:title=" ">
<path fill="none" stroke="#63b8ff" d="M1450.64,-285.86C1480.6,-261.34 1533.7,-209.3 1509,-165 1486.36,-124.39 1459.85,-133.97 1420,-110 1378.52,-85.05 1371.74,-70.84 1326,-55 1226.9,-20.68 1101.99,-12.74 1040.97,-10.96"/>
<polygon fill="#63b8ff" stroke="#63b8ff" points="1040.77,-7.46 1030.69,-10.7 1040.6,-14.45 1040.77,-7.46"/>
</a>
</g>
</g>
<!-- Node26&#45;&gt;Node9 -->
<g id="edge56_Node000026_Node000009" class="edge">
<title>Node26&#45;&gt;Node9</title>
<g id="a_edge56_Node000026_Node000009"><a xlink:title=" ">
<path fill="none" stroke="#63b8ff" d="M1433.99,-285.77C1437.96,-251.48 1443.18,-163.14 1401,-110 1382.91,-87.21 1351.17,-75.98 1326.76,-70.52"/>
<polygon fill="#63b8ff" stroke="#63b8ff" points="1327.3,-67.06 1316.81,-68.52 1325.92,-73.92 1327.3,-67.06"/>
</a>
</g>
</g>
<!-- Node26&#45;&gt;Node11 -->
<g id="edge49_Node000026_Node000011" class="edge">
<title>Node26&#45;&gt;Node11</title>
<g id="a_edge49_Node000026_Node000011"><a xlink:title=" ">
<path fill="none" stroke="#63b8ff" d="M1368.2,-293.93C1341.83,-291.45 1310.94,-288.55 1283,-286 954.33,-255.95 843.04,-338.85 546,-195 528.16,-186.36 529.93,-175.3 513,-165 484.8,-147.85 448.93,-135.62 423.78,-128.37"/>
<polygon fill="#63b8ff" stroke="#63b8ff" points="424.61,-124.97 414.04,-125.66 422.74,-131.72 424.61,-124.97"/>
</a>
</g>
</g>
<!-- Node26&#45;&gt;Node12 -->
<g id="edge48_Node000026_Node000012" class="edge">
<title>Node26&#45;&gt;Node12</title>
<g id="a_edge48_Node000026_Node000012"><a xlink:title=" ">
<path fill="none" stroke="#63b8ff" d="M1368.49,-292.29C1279.33,-281.47 1117.43,-261.82 1023.28,-250.39"/>
<polygon fill="#63b8ff" stroke="#63b8ff" points="1023.61,-246.91 1013.27,-249.18 1022.77,-253.86 1023.61,-246.91"/>
</a>
</g>
</g>
<!-- Node26&#45;&gt;Node15 -->
<g id="edge50_Node000026_Node000015" class="edge">
<title>Node26&#45;&gt;Node15</title>
<g id="a_edge50_Node000026_Node000015"><a xlink:title=" ">
<path fill="none" stroke="#63b8ff" d="M1421.99,-285.68C1415.56,-275.97 1407.43,-262.65 1402,-250 1385.71,-212.09 1374.75,-164.76 1369.53,-139.12"/>
<polygon fill="#63b8ff" stroke="#63b8ff" points="1372.95,-138.39 1367.59,-129.26 1366.08,-139.74 1372.95,-138.39"/>
</a>
</g>
</g>
<!-- Node26&#45;&gt;Node16 -->
<g id="edge52_Node000026_Node000016" class="edge">
<title>Node26&#45;&gt;Node16</title>
<g id="a_edge52_Node000026_Node000016"><a xlink:title=" ">
<path fill="none" stroke="#63b8ff" d="M1368.44,-293.84C1298.32,-283.99 1185.81,-258.77 1113,-195 1096.16,-180.25 1086.48,-155.84 1081.48,-139.01"/>
<polygon fill="#63b8ff" stroke="#63b8ff" points="1084.83,-137.96 1078.85,-129.22 1078.07,-139.78 1084.83,-137.96"/>
</a>
</g>
</g>
<!-- Node26&#45;&gt;Node17 -->
<g id="edge53_Node000026_Node000017" class="edge">
<title>Node26&#45;&gt;Node17</title>
<g id="a_edge53_Node000026_Node000017"><a xlink:title=" ">
<path fill="none" stroke="#63b8ff" d="M1449.81,-285.91C1491.86,-252.67 1596.97,-169.55 1640.09,-135.45"/>
<polygon fill="#63b8ff" stroke="#63b8ff" points="1642.41,-138.08 1648.08,-129.13 1638.07,-132.59 1642.41,-138.08"/>
</a>
</g>
</g>
<!-- Node26&#45;&gt;Node21 -->
<g id="edge54_Node000026_Node000021" class="edge">
<title>Node26&#45;&gt;Node21</title>
<g id="a_edge54_Node000026_Node000021"><a xlink:title=" ">
<path fill="none" stroke="#63b8ff" d="M1368.24,-293.47C1341.87,-290.91 1310.98,-288.09 1283,-286 994.03,-264.44 913.83,-317.38 632,-250 618.76,-246.84 544.35,-212.99 502.89,-193.91"/>
<polygon fill="#63b8ff" stroke="#63b8ff" points="504.16,-190.64 493.61,-189.63 501.22,-196.99 504.16,-190.64"/>
</a>
</g>
</g>
<!-- Node26&#45;&gt;Node22 -->
<g id="edge55_Node000026_Node000022" class="edge">
<title>Node26&#45;&gt;Node22</title>
<g id="a_edge55_Node000026_Node000022"><a xlink:title=" ">
<path fill="none" stroke="#63b8ff" d="M1436.75,-285.88C1444,-264.31 1457.83,-223.15 1465.84,-199.31"/>
<polygon fill="#63b8ff" stroke="#63b8ff" points="1469.2,-200.31 1469.07,-189.71 1462.57,-198.07 1469.2,-200.31"/>
</a>
</g>
</g>
</g>
</svg>
