<?xml version="1.0" encoding="UTF-8" standalone="no"?>
<!DOCTYPE svg PUBLIC "-//W3C//DTD SVG 1.1//EN"
 "http://www.w3.org/Graphics/SVG/1.1/DTD/svg11.dtd">
<!-- Generated by graphviz version 2.43.0 (0)
 -->
<!-- Title: /__w/qugar/qugar/cpp/include/qugar/impl_unfitted_domain.hpp Pages: 1 -->
<svg width="1664pt" height="390pt"
 viewBox="0.00 0.00 1664.00 390.00" xmlns="http://www.w3.org/2000/svg" xmlns:xlink="http://www.w3.org/1999/xlink">
<g id="graph0" class="graph" transform="scale(1 1) rotate(0) translate(4 386)">
<title>/__w/qugar/qugar/cpp/include/qugar/impl_unfitted_domain.hpp</title>
<!-- Node1 -->
<g id="Node000001" class="node">
<title>Node1</title>
<g id="a_Node000001"><a xlink:title="Declaration of of UnfittedImplDomain class.">
<polygon fill="#999999" stroke="#666666" points="1278.5,-382 1125.5,-382 1125.5,-341 1278.5,-341 1278.5,-382"/>
<text text-anchor="start" x="1133.5" y="-370" font-family="Helvetica,sans-Serif" font-size="10.00">/__w/qugar/qugar/cpp</text>
<text text-anchor="start" x="1133.5" y="-359" font-family="Helvetica,sans-Serif" font-size="10.00">/include/qugar/impl_unfitted</text>
<text text-anchor="middle" x="1202" y="-348" font-family="Helvetica,sans-Serif" font-size="10.00">_domain.hpp</text>
</a>
</g>
</g>
<!-- Node2 -->
<g id="Node000002" class="node">
<title>Node2</title>
<g id="a_Node000002"><a xlink:href="../../d5/d90/bbox_8hpp.html" target="_top" xlink:title="Definition of Cartesian bounding box class.">
<polygon fill="white" stroke="#666666" points="684,-189.5 592,-189.5 592,-170.5 684,-170.5 684,-189.5"/>
<text text-anchor="middle" x="638" y="-177.5" font-family="Helvetica,sans-Serif" font-size="10.00">qugar/bbox.hpp</text>
</a>
</g>
</g>
<!-- Node1&#45;&gt;Node2 -->
<g id="edge1_Node000001_Node000002" class="edge">
<title>Node1&#45;&gt;Node2</title>
<g id="a_edge1_Node000001_Node000002"><a xlink:title=" ">
<path fill="none" stroke="#63b8ff" d="M1125.35,-349.08C1070.28,-339.86 994.66,-325.1 930,-305 828.68,-273.5 714.48,-219.18 664.18,-194.23"/>
<polygon fill="#63b8ff" stroke="#63b8ff" points="665.5,-190.98 654.99,-189.65 662.37,-197.25 665.5,-190.98"/>
</a>
</g>
</g>
<!-- Node6 -->
<g id="Node000006" class="node">
<title>Node6</title>
<g id="a_Node000006"><a xlink:title=" ">
<polygon fill="#e0e0e0" stroke="#999999" points="1101.5,-19 1048.5,-19 1048.5,0 1101.5,0 1101.5,-19"/>
<text text-anchor="middle" x="1075" y="-7" font-family="Helvetica,sans-Serif" font-size="10.00">cstddef</text>
</a>
</g>
</g>
<!-- Node1&#45;&gt;Node6 -->
<g id="edge53_Node000001_Node000006" class="edge">
<title>Node1&#45;&gt;Node6</title>
<g id="a_edge53_Node000001_Node000006"><a xlink:title=" ">
<path fill="none" stroke="#63b8ff" d="M1278.5,-356.17C1407.89,-346.74 1656,-318.6 1656,-241.5 1656,-241.5 1656,-241.5 1656,-118.5 1656,-62.93 1239.85,-24.06 1111.95,-13.43"/>
<polygon fill="#63b8ff" stroke="#63b8ff" points="1112.11,-9.93 1101.86,-12.6 1111.54,-16.91 1112.11,-9.93"/>
</a>
</g>
</g>
<!-- Node9 -->
<g id="Node000009" class="node">
<title>Node9</title>
<g id="a_Node000009"><a xlink:title=" ">
<polygon fill="#e0e0e0" stroke="#999999" points="972.5,-74 925.5,-74 925.5,-55 972.5,-55 972.5,-74"/>
<text text-anchor="middle" x="949" y="-62" font-family="Helvetica,sans-Serif" font-size="10.00">vector</text>
</a>
</g>
</g>
<!-- Node1&#45;&gt;Node9 -->
<g id="edge57_Node000001_Node000009" class="edge">
<title>Node1&#45;&gt;Node9</title>
<g id="a_edge57_Node000001_Node000009"><a xlink:title=" ">
<path fill="none" stroke="#63b8ff" d="M1128.29,-340.96C1105.67,-332.49 1081.8,-320.79 1063,-305 991.3,-244.8 961.59,-129.17 952.39,-84.11"/>
<polygon fill="#63b8ff" stroke="#63b8ff" points="955.78,-83.19 950.44,-74.04 948.9,-84.52 955.78,-83.19"/>
</a>
</g>
</g>
<!-- Node11 -->
<g id="Node000011" class="node">
<title>Node11</title>
<g id="a_Node000011"><a xlink:title=" ">
<polygon fill="#e0e0e0" stroke="#999999" points="1343,-129 1301,-129 1301,-110 1343,-110 1343,-129"/>
<text text-anchor="middle" x="1322" y="-117" font-family="Helvetica,sans-Serif" font-size="10.00">array</text>
</a>
</g>
</g>
<!-- Node1&#45;&gt;Node11 -->
<g id="edge51_Node000001_Node000011" class="edge">
<title>Node1&#45;&gt;Node11</title>
<g id="a_edge51_Node000001_Node000011"><a xlink:title=" ">
<path fill="none" stroke="#63b8ff" d="M1278.6,-357.18C1321.56,-351.46 1373.33,-337.61 1408,-305 1454.88,-260.91 1481.97,-217.68 1445,-165 1424.44,-135.7 1382.56,-125.61 1353.41,-122.18"/>
<polygon fill="#63b8ff" stroke="#63b8ff" points="1353.61,-118.68 1343.32,-121.2 1352.93,-125.65 1353.61,-118.68"/>
</a>
</g>
</g>
<!-- Node12 -->
<g id="Node000012" class="node">
<title>Node12</title>
<g id="a_Node000012"><a xlink:href="../../d6/d49/cart__grid__tp_8hpp.html" target="_top" xlink:title="Definition of Cartesian grid class.">
<polygon fill="white" stroke="#666666" points="1174,-250 1048,-250 1048,-231 1174,-231 1174,-250"/>
<text text-anchor="middle" x="1111" y="-238" font-family="Helvetica,sans-Serif" font-size="10.00">qugar/cart_grid_tp.hpp</text>
</a>
</g>
</g>
<!-- Node1&#45;&gt;Node12 -->
<g id="edge14_Node000001_Node000012" class="edge">
<title>Node1&#45;&gt;Node12</title>
<g id="a_edge14_Node000001_Node000012"><a xlink:title=" ">
<path fill="none" stroke="#63b8ff" d="M1186.97,-340.85C1169.31,-317.76 1140.32,-279.84 1123.73,-258.14"/>
<polygon fill="#63b8ff" stroke="#63b8ff" points="1126.49,-255.99 1117.63,-250.18 1120.93,-260.24 1126.49,-255.99"/>
</a>
</g>
</g>
<!-- Node14 -->
<g id="Node000014" class="node">
<title>Node14</title>
<g id="a_Node000014"><a xlink:title=" ">
<polygon fill="#e0e0e0" stroke="#999999" points="1584,-129 1532,-129 1532,-110 1584,-110 1584,-129"/>
<text text-anchor="middle" x="1558" y="-117" font-family="Helvetica,sans-Serif" font-size="10.00">cassert</text>
</a>
</g>
</g>
<!-- Node1&#45;&gt;Node14 -->
<g id="edge52_Node000001_Node000014" class="edge">
<title>Node1&#45;&gt;Node14</title>
<g id="a_edge52_Node000001_Node000014"><a xlink:title=" ">
<path fill="none" stroke="#63b8ff" d="M1278.68,-355.19C1325.66,-348.86 1385.16,-335.05 1430,-305 1493.67,-262.33 1535.04,-176.39 1550.81,-138.8"/>
<polygon fill="#63b8ff" stroke="#63b8ff" points="1554.2,-139.75 1554.73,-129.17 1547.71,-137.12 1554.2,-139.75"/>
</a>
</g>
</g>
<!-- Node15 -->
<g id="Node000015" class="node">
<title>Node15</title>
<g id="a_Node000015"><a xlink:title=" ">
<polygon fill="#e0e0e0" stroke="#999999" points="1168.5,-129 1103.5,-129 1103.5,-110 1168.5,-110 1168.5,-129"/>
<text text-anchor="middle" x="1136" y="-117" font-family="Helvetica,sans-Serif" font-size="10.00">functional</text>
</a>
</g>
</g>
<!-- Node1&#45;&gt;Node15 -->
<g id="edge54_Node000001_Node000015" class="edge">
<title>Node1&#45;&gt;Node15</title>
<g id="a_edge54_Node000001_Node000015"><a xlink:title=" ">
<path fill="none" stroke="#63b8ff" d="M1149.74,-340.89C1111.43,-323.43 1062.22,-293.8 1039,-250 1014.74,-204.24 1075.74,-157.22 1111.77,-134.49"/>
<polygon fill="#63b8ff" stroke="#63b8ff" points="1113.63,-137.46 1120.33,-129.25 1109.97,-131.49 1113.63,-137.46"/>
</a>
</g>
</g>
<!-- Node19 -->
<g id="Node000019" class="node">
<title>Node19</title>
<g id="a_Node000019"><a xlink:title=" ">
<polygon fill="#e0e0e0" stroke="#999999" points="1320,-189.5 1262,-189.5 1262,-170.5 1320,-170.5 1320,-189.5"/>
<text text-anchor="middle" x="1291" y="-177.5" font-family="Helvetica,sans-Serif" font-size="10.00">memory</text>
</a>
</g>
</g>
<!-- Node1&#45;&gt;Node19 -->
<g id="edge55_Node000001_Node000019" class="edge">
<title>Node1&#45;&gt;Node19</title>
<g id="a_edge55_Node000001_Node000019"><a xlink:title=" ">
<path fill="none" stroke="#63b8ff" d="M1205.16,-340.94C1208.07,-325.56 1213.15,-303.84 1221,-286 1235.85,-252.27 1261.41,-217.52 1277.19,-197.67"/>
<polygon fill="#63b8ff" stroke="#63b8ff" points="1280.11,-199.62 1283.68,-189.65 1274.67,-195.22 1280.11,-199.62"/>
</a>
</g>
</g>
<!-- Node20 -->
<g id="Node000020" class="node">
<title>Node20</title>
<g id="a_Node000020"><a xlink:title=" ">
<polygon fill="#e0e0e0" stroke="#999999" points="1436,-189.5 1380,-189.5 1380,-170.5 1436,-170.5 1436,-189.5"/>
<text text-anchor="middle" x="1408" y="-177.5" font-family="Helvetica,sans-Serif" font-size="10.00">optional</text>
</a>
</g>
</g>
<!-- Node1&#45;&gt;Node20 -->
<g id="edge56_Node000001_Node000020" class="edge">
<title>Node1&#45;&gt;Node20</title>
<g id="a_edge56_Node000001_Node000020"><a xlink:title=" ">
<path fill="none" stroke="#63b8ff" d="M1278.94,-352.97C1315.51,-345.82 1357.56,-331.93 1387,-305 1416.18,-278.31 1414.58,-227.31 1411.15,-199.77"/>
<polygon fill="#63b8ff" stroke="#63b8ff" points="1414.56,-198.92 1409.65,-189.54 1407.64,-199.94 1414.56,-198.92"/>
</a>
</g>
</g>
<!-- Node21 -->
<g id="Node000021" class="node">
<title>Node21</title>
<g id="a_Node000021"><a xlink:href="../../dc/d7c/domain__function_8hpp.html" target="_top" xlink:title="Declaration of a few implicit functions template class ready to be consumed by Algoim.">
<polygon fill="white" stroke="#666666" points="344,-189.5 194,-189.5 194,-170.5 344,-170.5 344,-189.5"/>
<text text-anchor="middle" x="269" y="-177.5" font-family="Helvetica,sans-Serif" font-size="10.00">qugar/domain_function.hpp</text>
</a>
</g>
</g>
<!-- Node1&#45;&gt;Node21 -->
<g id="edge35_Node000001_Node000021" class="edge">
<title>Node1&#45;&gt;Node21</title>
<g id="a_edge35_Node000001_Node000021"><a xlink:title=" ">
<path fill="none" stroke="#63b8ff" d="M1125.41,-348.37C1058.65,-337.6 959.26,-321.13 873,-305 666.23,-266.35 421.02,-213.97 318.21,-191.72"/>
<polygon fill="#63b8ff" stroke="#63b8ff" points="318.64,-188.23 308.12,-189.53 317.16,-195.07 318.64,-188.23"/>
</a>
</g>
</g>
<!-- Node24 -->
<g id="Node000024" class="node">
<title>Node24</title>
<g id="a_Node000024"><a xlink:href="../../d2/dfd/unfitted__domain_8hpp.html" target="_top" xlink:title="Declaration of of UnfittedDomain class.">
<polygon fill="white" stroke="#666666" points="1378,-305 1230,-305 1230,-286 1378,-286 1378,-305"/>
<text text-anchor="middle" x="1304" y="-293" font-family="Helvetica,sans-Serif" font-size="10.00">qugar/unfitted_domain.hpp</text>
</a>
</g>
</g>
<!-- Node1&#45;&gt;Node24 -->
<g id="edge42_Node000001_Node000024" class="edge">
<title>Node1&#45;&gt;Node24</title>
<g id="a_edge42_Node000001_Node000024"><a xlink:title=" ">
<path fill="none" stroke="#63b8ff" d="M1233.16,-340.95C1248.82,-331.12 1267.45,-319.43 1281.67,-310.51"/>
<polygon fill="#63b8ff" stroke="#63b8ff" points="1283.7,-313.37 1290.31,-305.09 1279.98,-307.44 1283.7,-313.37"/>
</a>
</g>
</g>
<!-- Node3 -->
<g id="Node000003" class="node">
<title>Node3</title>
<g id="a_Node000003"><a xlink:href="../../d7/dd8/concepts_8hpp.html" target="_top" xlink:title="Declaration of concepts.">
<polygon fill="white" stroke="#666666" points="424,-129 312,-129 312,-110 424,-110 424,-129"/>
<text text-anchor="middle" x="368" y="-117" font-family="Helvetica,sans-Serif" font-size="10.00">qugar/concepts.hpp</text>
</a>
</g>
</g>
<!-- Node2&#45;&gt;Node3 -->
<g id="edge2_Node000002_Node000003" class="edge">
<title>Node2&#45;&gt;Node3</title>
<g id="a_edge2_Node000002_Node000003"><a xlink:title=" ">
<path fill="none" stroke="#63b8ff" d="M601.86,-170.44C594,-168.62 585.73,-166.72 578,-165 523.95,-152.97 461.89,-139.91 419.34,-131.07"/>
<polygon fill="#63b8ff" stroke="#63b8ff" points="420,-127.64 409.49,-129.03 418.57,-134.49 420,-127.64"/>
</a>
</g>
</g>
<!-- Node4 -->
<g id="Node000004" class="node">
<title>Node4</title>
<g id="a_Node000004"><a xlink:href="../../d0/de4/point_8hpp.html" target="_top" xlink:title="Definition and implementation of Point class.">
<polygon fill="white" stroke="#666666" points="815.5,-129 722.5,-129 722.5,-110 815.5,-110 815.5,-129"/>
<text text-anchor="middle" x="769" y="-117" font-family="Helvetica,sans-Serif" font-size="10.00">qugar/point.hpp</text>
</a>
</g>
</g>
<!-- Node2&#45;&gt;Node4 -->
<g id="edge3_Node000002_Node000004" class="edge">
<title>Node2&#45;&gt;Node4</title>
<g id="a_edge3_Node000002_Node000004"><a xlink:title=" ">
<path fill="none" stroke="#63b8ff" d="M657.05,-170.49C678.97,-160.7 715.21,-144.52 740.5,-133.23"/>
<polygon fill="#63b8ff" stroke="#63b8ff" points="742.22,-136.29 749.93,-129.02 739.37,-129.9 742.22,-136.29"/>
</a>
</g>
</g>
<!-- Node5 -->
<g id="Node000005" class="node">
<title>Node5</title>
<g id="a_Node000005"><a xlink:href="../../dd/de3/types_8hpp.html" target="_top" xlink:title="Declaration of types.">
<polygon fill="white" stroke="#666666" points="703.5,-74 608.5,-74 608.5,-55 703.5,-55 703.5,-74"/>
<text text-anchor="middle" x="656" y="-62" font-family="Helvetica,sans-Serif" font-size="10.00">qugar/types.hpp</text>
</a>
</g>
</g>
<!-- Node2&#45;&gt;Node5 -->
<g id="edge10_Node000002_Node000005" class="edge">
<title>Node2&#45;&gt;Node5</title>
<g id="a_edge10_Node000002_Node000005"><a xlink:title=" ">
<path fill="none" stroke="#63b8ff" d="M637.82,-170.42C637.7,-157.29 638.06,-131.48 642,-110 643.61,-101.24 646.42,-91.79 649.1,-83.86"/>
<polygon fill="#63b8ff" stroke="#63b8ff" points="652.48,-84.8 652.56,-74.2 645.89,-82.44 652.48,-84.8"/>
</a>
</g>
</g>
<!-- Node2&#45;&gt;Node6 -->
<g id="edge13_Node000002_Node000006" class="edge">
<title>Node2&#45;&gt;Node6</title>
<g id="a_edge13_Node000002_Node000006"><a xlink:title=" ">
<path fill="none" stroke="#63b8ff" d="M591.59,-178.46C475.92,-176.27 187.42,-165.28 235,-110 288.26,-48.12 882.9,-18.66 1038.12,-11.99"/>
<polygon fill="#63b8ff" stroke="#63b8ff" points="1038.27,-15.49 1048.11,-11.57 1037.97,-8.5 1038.27,-15.49"/>
</a>
</g>
</g>
<!-- Node10 -->
<g id="Node000010" class="node">
<title>Node10</title>
<g id="a_Node000010"><a xlink:title=" ">
<polygon fill="#e0e0e0" stroke="#999999" points="590,-129 442,-129 442,-110 590,-110 590,-129"/>
<text text-anchor="middle" x="516" y="-117" font-family="Helvetica,sans-Serif" font-size="10.00">algoim/hyperrectangle.hpp</text>
</a>
</g>
</g>
<!-- Node2&#45;&gt;Node10 -->
<g id="edge11_Node000002_Node000010" class="edge">
<title>Node2&#45;&gt;Node10</title>
<g id="a_edge11_Node000002_Node000010"><a xlink:title=" ">
<path fill="none" stroke="#63b8ff" d="M620.26,-170.49C599.93,-160.75 566.39,-144.66 542.86,-133.38"/>
<polygon fill="#63b8ff" stroke="#63b8ff" points="544.29,-130.18 533.76,-129.02 541.26,-136.5 544.29,-130.18"/>
</a>
</g>
</g>
<!-- Node2&#45;&gt;Node11 -->
<g id="edge12_Node000002_Node000011" class="edge">
<title>Node2&#45;&gt;Node11</title>
<g id="a_edge12_Node000002_Node000011"><a xlink:title=" ">
<path fill="none" stroke="#63b8ff" d="M684.15,-174.72C714.74,-171.91 755.76,-168.17 792,-165 981.27,-148.45 1208.68,-129.76 1290.65,-123.06"/>
<polygon fill="#63b8ff" stroke="#63b8ff" points="1291.11,-126.53 1300.79,-122.23 1290.54,-119.55 1291.11,-126.53"/>
</a>
</g>
</g>
<!-- Node4&#45;&gt;Node5 -->
<g id="edge4_Node000004_Node000005" class="edge">
<title>Node4&#45;&gt;Node5</title>
<g id="a_edge4_Node000004_Node000005"><a xlink:title=" ">
<path fill="none" stroke="#63b8ff" d="M750.84,-109.98C732.75,-101.5 704.72,-88.35 683.81,-78.54"/>
<polygon fill="#63b8ff" stroke="#63b8ff" points="685.03,-75.25 674.49,-74.17 682.05,-81.59 685.03,-75.25"/>
</a>
</g>
</g>
<!-- Node4&#45;&gt;Node6 -->
<g id="edge8_Node000004_Node000006" class="edge">
<title>Node4&#45;&gt;Node6</title>
<g id="a_edge8_Node000004_Node000006"><a xlink:title=" ">
<path fill="none" stroke="#63b8ff" d="M786.92,-109.9C814.46,-96.9 869.03,-71.97 917,-55 957.97,-40.51 1006.2,-27.49 1038.49,-19.34"/>
<polygon fill="#63b8ff" stroke="#63b8ff" points="1039.54,-22.68 1048.39,-16.86 1037.84,-15.89 1039.54,-22.68"/>
</a>
</g>
</g>
<!-- Node7 -->
<g id="Node000007" class="node">
<title>Node7</title>
<g id="a_Node000007"><a xlink:href="../../da/d16/vector_8hpp.html" target="_top" xlink:title=" ">
<polygon fill="white" stroke="#666666" points="820,-74 722,-74 722,-55 820,-55 820,-74"/>
<text text-anchor="middle" x="771" y="-62" font-family="Helvetica,sans-Serif" font-size="10.00">qugar/vector.hpp</text>
</a>
</g>
</g>
<!-- Node4&#45;&gt;Node7 -->
<g id="edge6_Node000004_Node000007" class="edge">
<title>Node4&#45;&gt;Node7</title>
<g id="a_edge6_Node000004_Node000007"><a xlink:title=" ">
<path fill="none" stroke="#63b8ff" d="M769.33,-109.75C769.59,-102.8 769.97,-92.85 770.3,-84.13"/>
<polygon fill="#63b8ff" stroke="#63b8ff" points="773.8,-84.21 770.68,-74.09 766.8,-83.95 773.8,-84.21"/>
</a>
</g>
</g>
<!-- Node4&#45;&gt;Node9 -->
<g id="edge9_Node000004_Node000009" class="edge">
<title>Node4&#45;&gt;Node9</title>
<g id="a_edge9_Node000004_Node000009"><a xlink:title=" ">
<path fill="none" stroke="#63b8ff" d="M797.92,-109.98C829.98,-100.54 881.63,-85.34 915.44,-75.38"/>
<polygon fill="#63b8ff" stroke="#63b8ff" points="916.72,-78.65 925.32,-72.47 914.74,-71.94 916.72,-78.65"/>
</a>
</g>
</g>
<!-- Node5&#45;&gt;Node6 -->
<g id="edge5_Node000005_Node000006" class="edge">
<title>Node5&#45;&gt;Node6</title>
<g id="a_edge5_Node000005_Node000006"><a xlink:title=" ">
<path fill="none" stroke="#63b8ff" d="M703.57,-56.31C706.76,-55.86 709.93,-55.42 713,-55 831.57,-38.87 972.35,-22.31 1037.94,-14.74"/>
<polygon fill="#63b8ff" stroke="#63b8ff" points="1038.64,-18.18 1048.18,-13.56 1037.84,-11.23 1038.64,-18.18"/>
</a>
</g>
</g>
<!-- Node8 -->
<g id="Node000008" class="node">
<title>Node8</title>
<g id="a_Node000008"><a xlink:title=" ">
<polygon fill="#e0e0e0" stroke="#999999" points="826,-19 716,-19 716,0 826,0 826,-19"/>
<text text-anchor="middle" x="771" y="-7" font-family="Helvetica,sans-Serif" font-size="10.00">algoim/uvector.hpp</text>
</a>
</g>
</g>
<!-- Node7&#45;&gt;Node8 -->
<g id="edge7_Node000007_Node000008" class="edge">
<title>Node7&#45;&gt;Node8</title>
<g id="a_edge7_Node000007_Node000008"><a xlink:title=" ">
<path fill="none" stroke="#63b8ff" d="M771,-54.75C771,-47.8 771,-37.85 771,-29.13"/>
<polygon fill="#63b8ff" stroke="#63b8ff" points="774.5,-29.09 771,-19.09 767.5,-29.09 774.5,-29.09"/>
</a>
</g>
</g>
<!-- Node12&#45;&gt;Node2 -->
<g id="edge15_Node000012_Node000002" class="edge">
<title>Node12&#45;&gt;Node2</title>
<g id="a_edge15_Node000012_Node000002"><a xlink:title=" ">
<path fill="none" stroke="#63b8ff" d="M1047.97,-232.53C1043.24,-232.01 1038.55,-231.49 1034,-231 884.69,-214.76 846.07,-220.11 698,-195 692.53,-194.07 686.81,-192.95 681.17,-191.74"/>
<polygon fill="#63b8ff" stroke="#63b8ff" points="681.7,-188.27 671.18,-189.51 680.17,-195.1 681.7,-188.27"/>
</a>
</g>
</g>
<!-- Node12&#45;&gt;Node4 -->
<g id="edge16_Node000012_Node000004" class="edge">
<title>Node12&#45;&gt;Node4</title>
<g id="a_edge16_Node000012_Node000004"><a xlink:title=" ">
<path fill="none" stroke="#63b8ff" d="M1047.76,-232.43C957.54,-222.1 801.65,-203.21 792,-195 775.85,-181.26 770.85,-156.43 769.41,-139.23"/>
<polygon fill="#63b8ff" stroke="#63b8ff" points="772.9,-139.03 768.89,-129.23 765.91,-139.4 772.9,-139.03"/>
</a>
</g>
</g>
<!-- Node12&#45;&gt;Node5 -->
<g id="edge29_Node000012_Node000005" class="edge">
<title>Node12&#45;&gt;Node5</title>
<g id="a_edge29_Node000012_Node000005"><a xlink:title=" ">
<path fill="none" stroke="#63b8ff" d="M1047.86,-232.15C952.8,-220.97 782.61,-200.39 770,-195 726.98,-176.62 717.41,-165.38 688,-129 676.98,-115.37 668.33,-97.31 662.82,-83.94"/>
<polygon fill="#63b8ff" stroke="#63b8ff" points="665.99,-82.44 659.09,-74.4 659.47,-84.99 665.99,-82.44"/>
</a>
</g>
</g>
<!-- Node12&#45;&gt;Node6 -->
<g id="edge31_Node000012_Node000006" class="edge">
<title>Node12&#45;&gt;Node6</title>
<g id="a_edge31_Node000012_Node000006"><a xlink:title=" ">
<path fill="none" stroke="#63b8ff" d="M1104.83,-230.79C1099.07,-222.16 1090.83,-208.33 1087,-195 1070.19,-136.49 1071.7,-63.42 1073.61,-29.47"/>
<polygon fill="#63b8ff" stroke="#63b8ff" points="1077.13,-29.39 1074.28,-19.18 1070.14,-28.94 1077.13,-29.39"/>
</a>
</g>
</g>
<!-- Node12&#45;&gt;Node9 -->
<g id="edge34_Node000012_Node000009" class="edge">
<title>Node12&#45;&gt;Node9</title>
<g id="a_edge34_Node000012_Node000009"><a xlink:title=" ">
<path fill="none" stroke="#63b8ff" d="M1103.78,-231C1092.31,-216.4 1072.64,-186.13 1087,-165 1113.57,-125.92 1208.06,-146.46 1178,-110 1153.63,-80.43 1040.17,-70.26 982.64,-66.97"/>
<polygon fill="#63b8ff" stroke="#63b8ff" points="982.76,-63.47 972.58,-66.43 982.38,-70.46 982.76,-63.47"/>
</a>
</g>
</g>
<!-- Node12&#45;&gt;Node11 -->
<g id="edge30_Node000012_Node000011" class="edge">
<title>Node12&#45;&gt;Node11</title>
<g id="a_edge30_Node000012_Node000011"><a xlink:title=" ">
<path fill="none" stroke="#63b8ff" d="M1135.84,-230.99C1157.49,-223.08 1189.34,-210.25 1215,-195 1233.5,-184.01 1235.49,-177.51 1253,-165 1267.98,-154.29 1285.41,-143.06 1299.01,-134.56"/>
<polygon fill="#63b8ff" stroke="#63b8ff" points="1301.08,-137.39 1307.73,-129.15 1297.39,-131.45 1301.08,-137.39"/>
</a>
</g>
</g>
<!-- Node13 -->
<g id="Node000013" class="node">
<title>Node13</title>
<g id="a_Node000013"><a xlink:href="../../d9/d43/tensor__index__tp_8hpp.html" target="_top" xlink:title="Declaration of tensor&#45;product index and size related classes.">
<polygon fill="white" stroke="#666666" points="1206,-195 1096,-195 1096,-165 1206,-165 1206,-195"/>
<text text-anchor="start" x="1104" y="-183" font-family="Helvetica,sans-Serif" font-size="10.00">qugar/tensor_index</text>
<text text-anchor="middle" x="1151" y="-172" font-family="Helvetica,sans-Serif" font-size="10.00">_tp.hpp</text>
</a>
</g>
</g>
<!-- Node12&#45;&gt;Node13 -->
<g id="edge17_Node000012_Node000013" class="edge">
<title>Node12&#45;&gt;Node13</title>
<g id="a_edge17_Node000012_Node000013"><a xlink:title=" ">
<path fill="none" stroke="#63b8ff" d="M1116.9,-230.87C1121.83,-223.67 1129.07,-213.07 1135.62,-203.49"/>
<polygon fill="#63b8ff" stroke="#63b8ff" points="1138.59,-205.34 1141.35,-195.11 1132.82,-201.39 1138.59,-205.34"/>
</a>
</g>
</g>
<!-- Node17 -->
<g id="Node000017" class="node">
<title>Node17</title>
<g id="a_Node000017"><a xlink:href="../../d0/d55/tolerance_8hpp.html" target="_top" xlink:title="Definition of tolerance related functionalities.">
<polygon fill="white" stroke="#666666" points="915,-189.5 801,-189.5 801,-170.5 915,-170.5 915,-189.5"/>
<text text-anchor="middle" x="858" y="-177.5" font-family="Helvetica,sans-Serif" font-size="10.00">qugar/tolerance.hpp</text>
</a>
</g>
</g>
<!-- Node12&#45;&gt;Node17 -->
<g id="edge24_Node000012_Node000017" class="edge">
<title>Node12&#45;&gt;Node17</title>
<g id="a_edge24_Node000012_Node000017"><a xlink:title=" ">
<path fill="none" stroke="#63b8ff" d="M1074.21,-230.99C1029.43,-220.64 953.74,-203.14 904.84,-191.83"/>
<polygon fill="#63b8ff" stroke="#63b8ff" points="905.36,-188.36 894.83,-189.52 903.79,-195.18 905.36,-188.36"/>
</a>
</g>
</g>
<!-- Node12&#45;&gt;Node19 -->
<g id="edge32_Node000012_Node000019" class="edge">
<title>Node12&#45;&gt;Node19</title>
<g id="a_edge32_Node000012_Node000019"><a xlink:title=" ">
<path fill="none" stroke="#63b8ff" d="M1137.27,-230.97C1164.84,-222.02 1209.47,-207.53 1248,-195 1250.27,-194.26 1252.6,-193.5 1254.96,-192.74"/>
<polygon fill="#63b8ff" stroke="#63b8ff" points="1256.2,-196.01 1264.62,-189.59 1254.03,-189.36 1256.2,-196.01"/>
</a>
</g>
</g>
<!-- Node12&#45;&gt;Node20 -->
<g id="edge33_Node000012_Node000020" class="edge">
<title>Node12&#45;&gt;Node20</title>
<g id="a_edge33_Node000012_Node000020"><a xlink:title=" ">
<path fill="none" stroke="#63b8ff" d="M1154.19,-230.99C1212.22,-219.56 1314.48,-199.42 1369.83,-188.52"/>
<polygon fill="#63b8ff" stroke="#63b8ff" points="1370.79,-191.9 1379.93,-186.53 1369.44,-185.03 1370.79,-191.9"/>
</a>
</g>
</g>
<!-- Node13&#45;&gt;Node6 -->
<g id="edge21_Node000013_Node000006" class="edge">
<title>Node13&#45;&gt;Node6</title>
<g id="a_edge21_Node000013_Node000006"><a xlink:title=" ">
<path fill="none" stroke="#63b8ff" d="M1169.83,-164.77C1185.32,-151.21 1203.32,-129.95 1194,-110 1175.15,-69.67 1131.02,-39.93 1102.12,-23.93"/>
<polygon fill="#63b8ff" stroke="#63b8ff" points="1103.43,-20.66 1092.97,-19.03 1100.13,-26.83 1103.43,-20.66"/>
</a>
</g>
</g>
<!-- Node13&#45;&gt;Node7 -->
<g id="edge18_Node000013_Node000007" class="edge">
<title>Node13&#45;&gt;Node7</title>
<g id="a_edge18_Node000013_Node000007"><a xlink:title=" ">
<path fill="none" stroke="#63b8ff" d="M1164.41,-164.76C1177.04,-149.61 1192.08,-125.71 1178,-110 1166.55,-97.23 940.98,-78.42 830.69,-69.94"/>
<polygon fill="#63b8ff" stroke="#63b8ff" points="830.63,-66.42 820.39,-69.15 830.1,-73.4 830.63,-66.42"/>
</a>
</g>
</g>
<!-- Node13&#45;&gt;Node11 -->
<g id="edge19_Node000013_Node000011" class="edge">
<title>Node13&#45;&gt;Node11</title>
<g id="a_edge19_Node000013_Node000011"><a xlink:title=" ">
<path fill="none" stroke="#63b8ff" d="M1191.96,-164.99C1222.41,-154.57 1263.31,-140.58 1291.05,-131.09"/>
<polygon fill="#63b8ff" stroke="#63b8ff" points="1292.31,-134.36 1300.64,-127.81 1290.04,-127.73 1292.31,-134.36"/>
</a>
</g>
</g>
<!-- Node13&#45;&gt;Node14 -->
<g id="edge20_Node000013_Node000014" class="edge">
<title>Node13&#45;&gt;Node14</title>
<g id="a_edge20_Node000013_Node000014"><a xlink:title=" ">
<path fill="none" stroke="#63b8ff" d="M1206.31,-171.05C1290.87,-158.9 1449.97,-136.03 1521.52,-125.74"/>
<polygon fill="#63b8ff" stroke="#63b8ff" points="1522.42,-129.15 1531.82,-124.26 1521.42,-122.22 1522.42,-129.15"/>
</a>
</g>
</g>
<!-- Node13&#45;&gt;Node15 -->
<g id="edge22_Node000013_Node000015" class="edge">
<title>Node13&#45;&gt;Node15</title>
<g id="a_edge22_Node000013_Node000015"><a xlink:title=" ">
<path fill="none" stroke="#63b8ff" d="M1147.37,-164.84C1145.39,-157.13 1142.92,-147.49 1140.79,-139.17"/>
<polygon fill="#63b8ff" stroke="#63b8ff" points="1144.12,-138.08 1138.25,-129.27 1137.34,-139.82 1144.12,-138.08"/>
</a>
</g>
</g>
<!-- Node16 -->
<g id="Node000016" class="node">
<title>Node16</title>
<g id="a_Node000016"><a xlink:title=" ">
<polygon fill="#e0e0e0" stroke="#999999" points="1046.5,-129 977.5,-129 977.5,-110 1046.5,-110 1046.5,-129"/>
<text text-anchor="middle" x="1012" y="-117" font-family="Helvetica,sans-Serif" font-size="10.00">type_traits</text>
</a>
</g>
</g>
<!-- Node13&#45;&gt;Node16 -->
<g id="edge23_Node000013_Node000016" class="edge">
<title>Node13&#45;&gt;Node16</title>
<g id="a_edge23_Node000013_Node000016"><a xlink:title=" ">
<path fill="none" stroke="#63b8ff" d="M1117.71,-164.99C1094.62,-155.27 1064.13,-142.44 1041.84,-133.06"/>
<polygon fill="#63b8ff" stroke="#63b8ff" points="1043.1,-129.79 1032.53,-129.14 1040.39,-136.24 1043.1,-129.79"/>
</a>
</g>
</g>
<!-- Node17&#45;&gt;Node4 -->
<g id="edge25_Node000017_Node000004" class="edge">
<title>Node17&#45;&gt;Node4</title>
<g id="a_edge25_Node000017_Node000004"><a xlink:title=" ">
<path fill="none" stroke="#63b8ff" d="M844.87,-170.37C830.67,-161.04 807.8,-146.01 790.88,-134.88"/>
<polygon fill="#63b8ff" stroke="#63b8ff" points="792.47,-131.74 782.19,-129.17 788.62,-137.58 792.47,-131.74"/>
</a>
</g>
</g>
<!-- Node17&#45;&gt;Node5 -->
<g id="edge26_Node000017_Node000005" class="edge">
<title>Node17&#45;&gt;Node5</title>
<g id="a_edge26_Node000017_Node000005"><a xlink:title=" ">
<path fill="none" stroke="#63b8ff" d="M816.75,-170.46C786.54,-162.89 745.49,-149.74 714,-129 695.18,-116.6 678.39,-96.75 667.78,-82.54"/>
<polygon fill="#63b8ff" stroke="#63b8ff" points="670.42,-80.23 661.74,-74.16 664.74,-84.32 670.42,-80.23"/>
</a>
</g>
</g>
<!-- Node17&#45;&gt;Node9 -->
<g id="edge28_Node000017_Node000009" class="edge">
<title>Node17&#45;&gt;Node9</title>
<g id="a_edge28_Node000017_Node000009"><a xlink:title=" ">
<path fill="none" stroke="#63b8ff" d="M864.84,-170.47C879.86,-151.74 915.95,-106.72 935.64,-82.16"/>
<polygon fill="#63b8ff" stroke="#63b8ff" points="938.56,-84.12 942.08,-74.13 933.09,-79.74 938.56,-84.12"/>
</a>
</g>
</g>
<!-- Node18 -->
<g id="Node000018" class="node">
<title>Node18</title>
<g id="a_Node000018"><a xlink:title=" ">
<polygon fill="#e0e0e0" stroke="#999999" points="882.5,-129 833.5,-129 833.5,-110 882.5,-110 882.5,-129"/>
<text text-anchor="middle" x="858" y="-117" font-family="Helvetica,sans-Serif" font-size="10.00">cstdlib</text>
</a>
</g>
</g>
<!-- Node17&#45;&gt;Node18 -->
<g id="edge27_Node000017_Node000018" class="edge">
<title>Node17&#45;&gt;Node18</title>
<g id="a_edge27_Node000017_Node000018"><a xlink:title=" ">
<path fill="none" stroke="#63b8ff" d="M858,-170.37C858,-162.25 858,-149.81 858,-139.39"/>
<polygon fill="#63b8ff" stroke="#63b8ff" points="861.5,-139.17 858,-129.17 854.5,-139.17 861.5,-139.17"/>
</a>
</g>
</g>
<!-- Node21&#45;&gt;Node4 -->
<g id="edge37_Node000021_Node000004" class="edge">
<title>Node21&#45;&gt;Node4</title>
<g id="a_edge37_Node000021_Node000004"><a xlink:title=" ">
<path fill="none" stroke="#63b8ff" d="M341.7,-170.49C442.11,-158.75 621.13,-137.8 712.28,-127.14"/>
<polygon fill="#63b8ff" stroke="#63b8ff" points="712.89,-130.59 722.42,-125.95 712.08,-123.64 712.89,-130.59"/>
</a>
</g>
</g>
<!-- Node21&#45;&gt;Node5 -->
<g id="edge36_Node000021_Node000005" class="edge">
<title>Node21&#45;&gt;Node5</title>
<g id="a_edge36_Node000021_Node000005"><a xlink:title=" ">
<path fill="none" stroke="#63b8ff" d="M249.89,-170.47C223.6,-157.61 181.7,-132.39 202,-110 228.14,-81.17 481.81,-70.38 598.18,-66.92"/>
<polygon fill="#63b8ff" stroke="#63b8ff" points="598.44,-70.41 608.33,-66.63 598.23,-63.42 598.44,-70.41"/>
</a>
</g>
</g>
<!-- Node21&#45;&gt;Node7 -->
<g id="edge38_Node000021_Node000007" class="edge">
<title>Node21&#45;&gt;Node7</title>
<g id="a_edge38_Node000021_Node000007"><a xlink:title=" ">
<path fill="none" stroke="#63b8ff" d="M258.97,-170.43C243.71,-156.38 218.11,-128.21 235,-110 269.63,-72.67 626.57,-79.17 711.98,-73.76"/>
<polygon fill="#63b8ff" stroke="#63b8ff" points="712.31,-77.24 721.98,-72.93 711.73,-70.27 712.31,-77.24"/>
</a>
</g>
</g>
<!-- Node21&#45;&gt;Node16 -->
<g id="edge41_Node000021_Node000016" class="edge">
<title>Node21&#45;&gt;Node16</title>
<g id="a_edge41_Node000021_Node000016"><a xlink:title=" ">
<path fill="none" stroke="#63b8ff" d="M344.33,-173.07C497.94,-160.97 843.26,-133.79 966.9,-124.05"/>
<polygon fill="#63b8ff" stroke="#63b8ff" points="967.44,-127.52 977.13,-123.25 966.89,-120.54 967.44,-127.52"/>
</a>
</g>
</g>
<!-- Node22 -->
<g id="Node000022" class="node">
<title>Node22</title>
<g id="a_Node000022"><a xlink:title=" ">
<polygon fill="#e0e0e0" stroke="#999999" points="112,-129 0,-129 0,-110 112,-110 112,-129"/>
<text text-anchor="middle" x="56" y="-117" font-family="Helvetica,sans-Serif" font-size="10.00">algoim/interval.hpp</text>
</a>
</g>
</g>
<!-- Node21&#45;&gt;Node22 -->
<g id="edge39_Node000021_Node000022" class="edge">
<title>Node21&#45;&gt;Node22</title>
<g id="a_edge39_Node000021_Node000022"><a xlink:title=" ">
<path fill="none" stroke="#63b8ff" d="M238.03,-170.49C200.72,-160.25 137.94,-143 96.73,-131.69"/>
<polygon fill="#63b8ff" stroke="#63b8ff" points="97.58,-128.29 87.01,-129.02 95.73,-135.04 97.58,-128.29"/>
</a>
</g>
</g>
<!-- Node23 -->
<g id="Node000023" class="node">
<title>Node23</title>
<g id="a_Node000023"><a xlink:title=" ">
<polygon fill="#e0e0e0" stroke="#999999" points="294,-129 244,-129 244,-110 294,-110 294,-129"/>
<text text-anchor="middle" x="269" y="-117" font-family="Helvetica,sans-Serif" font-size="10.00">cstdint</text>
</a>
</g>
</g>
<!-- Node21&#45;&gt;Node23 -->
<g id="edge40_Node000021_Node000023" class="edge">
<title>Node21&#45;&gt;Node23</title>
<g id="a_edge40_Node000021_Node000023"><a xlink:title=" ">
<path fill="none" stroke="#63b8ff" d="M269,-170.37C269,-162.25 269,-149.81 269,-139.39"/>
<polygon fill="#63b8ff" stroke="#63b8ff" points="272.5,-139.17 269,-129.17 265.5,-139.17 272.5,-139.17"/>
</a>
</g>
</g>
<!-- Node24&#45;&gt;Node6 -->
<g id="edge46_Node000024_Node000006" class="edge">
<title>Node24&#45;&gt;Node6</title>
<g id="a_edge46_Node000024_Node000006"><a xlink:title=" ">
<path fill="none" stroke="#63b8ff" d="M1365.09,-285.99C1423.91,-273.95 1504,-245.68 1504,-181 1504,-181 1504,-181 1504,-118.5 1504,-37.84 1215.22,-16.84 1111.52,-11.89"/>
<polygon fill="#63b8ff" stroke="#63b8ff" points="1111.66,-8.4 1101.51,-11.44 1111.34,-15.39 1111.66,-8.4"/>
</a>
</g>
</g>
<!-- Node24&#45;&gt;Node9 -->
<g id="edge50_Node000024_Node000009" class="edge">
<title>Node24&#45;&gt;Node9</title>
<g id="a_edge50_Node000024_Node000009"><a xlink:title=" ">
<path fill="none" stroke="#63b8ff" d="M1337.48,-285.87C1359.58,-278.91 1388.19,-267.39 1409,-250 1440.48,-223.69 1465.33,-200.64 1445,-165 1421.21,-123.29 1397.55,-125.2 1352,-110 1283.64,-87.19 1066.85,-72.4 982.78,-67.39"/>
<polygon fill="#63b8ff" stroke="#63b8ff" points="982.93,-63.9 972.74,-66.81 982.52,-70.89 982.93,-63.9"/>
</a>
</g>
</g>
<!-- Node24&#45;&gt;Node11 -->
<g id="edge44_Node000024_Node000011" class="edge">
<title>Node24&#45;&gt;Node11</title>
<g id="a_edge44_Node000024_Node000011"><a xlink:title=" ">
<path fill="none" stroke="#63b8ff" d="M1300.89,-285.97C1296.85,-273.49 1291.06,-249.69 1298,-231 1305.35,-211.21 1321.65,-214.79 1329,-195 1333.64,-182.5 1330.04,-178.29 1329,-165 1328.34,-156.52 1326.97,-147.22 1325.63,-139.32"/>
<polygon fill="#63b8ff" stroke="#63b8ff" points="1329.04,-138.53 1323.8,-129.32 1322.15,-139.78 1329.04,-138.53"/>
</a>
</g>
</g>
<!-- Node24&#45;&gt;Node12 -->
<g id="edge43_Node000024_Node000012" class="edge">
<title>Node24&#45;&gt;Node12</title>
<g id="a_edge43_Node000024_Node000012"><a xlink:title=" ">
<path fill="none" stroke="#63b8ff" d="M1272.99,-285.98C1240.17,-276.97 1188.2,-262.7 1152.01,-252.76"/>
<polygon fill="#63b8ff" stroke="#63b8ff" points="1152.82,-249.36 1142.25,-250.08 1150.97,-256.11 1152.82,-249.36"/>
</a>
</g>
</g>
<!-- Node24&#45;&gt;Node14 -->
<g id="edge45_Node000024_Node000014" class="edge">
<title>Node24&#45;&gt;Node14</title>
<g id="a_edge45_Node000024_Node000014"><a xlink:title=" ">
<path fill="none" stroke="#63b8ff" d="M1378.05,-287.13C1431.47,-280.37 1497.61,-268.54 1518,-250 1549.67,-221.19 1556.53,-167.93 1557.85,-139.51"/>
<polygon fill="#63b8ff" stroke="#63b8ff" points="1561.35,-139.41 1558.12,-129.31 1554.35,-139.21 1561.35,-139.41"/>
</a>
</g>
</g>
<!-- Node24&#45;&gt;Node19 -->
<g id="edge48_Node000024_Node000019" class="edge">
<title>Node24&#45;&gt;Node19</title>
<g id="a_edge48_Node000024_Node000019"><a xlink:title=" ">
<path fill="none" stroke="#63b8ff" d="M1292.36,-285.73C1282.69,-277.67 1269.65,-264.74 1264,-250 1257.2,-232.26 1267.23,-212.03 1276.93,-198.09"/>
<polygon fill="#63b8ff" stroke="#63b8ff" points="1279.86,-200.01 1283.08,-189.92 1274.27,-195.8 1279.86,-200.01"/>
</a>
</g>
</g>
<!-- Node24&#45;&gt;Node23 -->
<g id="edge47_Node000024_Node000023" class="edge">
<title>Node24&#45;&gt;Node23</title>
<g id="a_edge47_Node000024_Node000023"><a xlink:title=" ">
<path fill="none" stroke="#63b8ff" d="M1229.94,-286.62C1098.88,-272.14 817.78,-238.77 583,-195 480.64,-175.92 361.42,-145.28 303.76,-129.92"/>
<polygon fill="#63b8ff" stroke="#63b8ff" points="304.62,-126.53 294.06,-127.32 302.81,-133.29 304.62,-126.53"/>
</a>
</g>
</g>
<!-- Node25 -->
<g id="Node000025" class="node">
<title>Node25</title>
<g id="a_Node000025"><a xlink:title=" ">
<polygon fill="#e0e0e0" stroke="#999999" points="1399.5,-250 1306.5,-250 1306.5,-231 1399.5,-231 1399.5,-250"/>
<text text-anchor="middle" x="1353" y="-238" font-family="Helvetica,sans-Serif" font-size="10.00">unordered_map</text>
</a>
</g>
</g>
<!-- Node24&#45;&gt;Node25 -->
<g id="edge49_Node000024_Node000025" class="edge">
<title>Node24&#45;&gt;Node25</title>
<g id="a_edge49_Node000024_Node000025"><a xlink:title=" ">
<path fill="none" stroke="#63b8ff" d="M1312.09,-285.75C1319.16,-278.11 1329.59,-266.82 1338.15,-257.56"/>
<polygon fill="#63b8ff" stroke="#63b8ff" points="1340.84,-259.81 1345.06,-250.09 1335.7,-255.06 1340.84,-259.81"/>
</a>
</g>
</g>
</g>
</svg>
