<?xml version="1.0" encoding="UTF-8" standalone="no"?>
<!DOCTYPE svg PUBLIC "-//W3C//DTD SVG 1.1//EN"
 "http://www.w3.org/Graphics/SVG/1.1/DTD/svg11.dtd">
<!-- Generated by graphviz version 2.43.0 (0)
 -->
<!-- Title: qugar::impl::funcs::AnnulusBase::outer_radius Pages: 1 -->
<svg width="316pt" height="290pt"
 viewBox="0.00 0.00 316.00 289.50" xmlns="http://www.w3.org/2000/svg" xmlns:xlink="http://www.w3.org/1999/xlink">
<g id="graph0" class="graph" transform="scale(1 1) rotate(0) translate(4 285.5)">
<title>qugar::impl::funcs::AnnulusBase::outer_radius</title>
<!-- Node1 -->
<g id="Node000001" class="node">
<title>Node1</title>
<g id="a_Node000001"><a xlink:title="Gets the outer radius of the annulus.">
<polygon fill="#999999" stroke="#666666" points="308,-167 191,-167 191,-126 308,-126 308,-167"/>
<text text-anchor="start" x="199" y="-155" font-family="Helvetica,sans-Serif" font-size="10.00">qugar::impl::funcs</text>
<text text-anchor="start" x="199" y="-144" font-family="Helvetica,sans-Serif" font-size="10.00">::AnnulusBase::outer</text>
<text text-anchor="middle" x="249.5" y="-133" font-family="Helvetica,sans-Serif" font-size="10.00">_radius</text>
</a>
</g>
</g>
<!-- Node2 -->
<g id="Node000002" class="node">
<title>Node2</title>
<g id="a_Node000002"><a xlink:href="../../da/dd6/classqugar_1_1impl_1_1funcs_1_1Annulus.html#a6462490394c7801d1cb3d8ec64335fae" target="_top" xlink:title="Constructor.">
<polygon fill="white" stroke="#666666" points="131,-281.5 24,-281.5 24,-251.5 131,-251.5 131,-281.5"/>
<text text-anchor="start" x="32" y="-269.5" font-family="Helvetica,sans-Serif" font-size="10.00">qugar::impl::funcs</text>
<text text-anchor="middle" x="77.5" y="-258.5" font-family="Helvetica,sans-Serif" font-size="10.00">::Annulus::Annulus</text>
</a>
</g>
</g>
<!-- Node1&#45;&gt;Node2 -->
<g id="edge1_Node000001_Node000002" class="edge">
<title>Node1&#45;&gt;Node2</title>
<g id="a_edge1_Node000001_Node000002"><a xlink:title=" ">
<path fill="none" stroke="#63b8ff" d="M227.14,-175.12C209.84,-196.46 183.69,-224.86 155,-242.5 147.65,-247.02 139.37,-250.76 131.05,-253.83"/>
<polygon fill="#63b8ff" stroke="#63b8ff" points="230.08,-177.05 233.55,-167.04 224.59,-172.7 230.08,-177.05"/>
</a>
</g>
</g>
<!-- Node3 -->
<g id="Node000003" class="node">
<title>Node3</title>
<g id="a_Node000003"><a xlink:href="../../da/dd6/classqugar_1_1impl_1_1funcs_1_1Annulus.html#a6520321a3f3149830ae56e72234d583e" target="_top" xlink:title="Constructor.">
<polygon fill="white" stroke="#666666" points="131,-233.5 24,-233.5 24,-203.5 131,-203.5 131,-233.5"/>
<text text-anchor="start" x="32" y="-221.5" font-family="Helvetica,sans-Serif" font-size="10.00">qugar::impl::funcs</text>
<text text-anchor="middle" x="77.5" y="-210.5" font-family="Helvetica,sans-Serif" font-size="10.00">::Annulus::Annulus</text>
</a>
</g>
</g>
<!-- Node1&#45;&gt;Node3 -->
<g id="edge2_Node000001_Node000003" class="edge">
<title>Node1&#45;&gt;Node3</title>
<g id="a_edge2_Node000001_Node000003"><a xlink:title=" ">
<path fill="none" stroke="#63b8ff" d="M202.82,-171.92C187.84,-179.72 170.94,-187.96 155,-194.5 147.27,-197.67 138.97,-200.67 130.77,-203.41"/>
<polygon fill="#63b8ff" stroke="#63b8ff" points="204.67,-174.9 211.88,-167.14 201.4,-168.71 204.67,-174.9"/>
</a>
</g>
</g>
<!-- Node4 -->
<g id="Node000004" class="node">
<title>Node4</title>
<g id="a_Node000004"><a xlink:href="../../db/ded/classqugar_1_1impl_1_1funcs_1_1AnnulusBase.html#ac261b2d15f203aaa9795ff619f5ca78b" target="_top" xlink:title="Constructor.">
<polygon fill="white" stroke="#666666" points="155,-185.5 0,-185.5 0,-155.5 155,-155.5 155,-185.5"/>
<text text-anchor="start" x="8" y="-173.5" font-family="Helvetica,sans-Serif" font-size="10.00">qugar::impl::funcs</text>
<text text-anchor="middle" x="77.5" y="-162.5" font-family="Helvetica,sans-Serif" font-size="10.00">::AnnulusBase::AnnulusBase</text>
</a>
</g>
</g>
<!-- Node1&#45;&gt;Node4 -->
<g id="edge3_Node000001_Node000004" class="edge">
<title>Node1&#45;&gt;Node4</title>
<g id="a_edge3_Node000001_Node000004"><a xlink:title=" ">
<path fill="none" stroke="#63b8ff" d="M180.84,-156.05C172.44,-157.24 163.81,-158.46 155.29,-159.66"/>
<polygon fill="#63b8ff" stroke="#63b8ff" points="181.53,-159.49 190.95,-154.63 180.55,-152.56 181.53,-159.49"/>
</a>
</g>
</g>
<!-- Node5 -->
<g id="Node000005" class="node">
<title>Node5</title>
<g id="a_Node000005"><a xlink:href="../../dc/d68/classqugar_1_1impl_1_1funcs_1_1AnnulusBzr.html#ab733bd0610415dd56797d2325b10e17e" target="_top" xlink:title="Constructor.">
<polygon fill="white" stroke="#666666" points="146.5,-137.5 8.5,-137.5 8.5,-107.5 146.5,-107.5 146.5,-137.5"/>
<text text-anchor="start" x="16.5" y="-125.5" font-family="Helvetica,sans-Serif" font-size="10.00">qugar::impl::funcs</text>
<text text-anchor="middle" x="77.5" y="-114.5" font-family="Helvetica,sans-Serif" font-size="10.00">::AnnulusBzr::AnnulusBzr</text>
</a>
</g>
</g>
<!-- Node1&#45;&gt;Node5 -->
<g id="edge4_Node000001_Node000005" class="edge">
<title>Node1&#45;&gt;Node5</title>
<g id="a_edge4_Node000001_Node000005"><a xlink:title=" ">
<path fill="none" stroke="#63b8ff" d="M180.76,-136.94C169.5,-135.35 157.83,-133.7 146.57,-132.11"/>
<polygon fill="#63b8ff" stroke="#63b8ff" points="180.55,-140.44 190.95,-138.37 181.53,-133.51 180.55,-140.44"/>
</a>
</g>
</g>
<!-- Node6 -->
<g id="Node000006" class="node">
<title>Node6</title>
<g id="a_Node000006"><a xlink:href="../../dc/d68/classqugar_1_1impl_1_1funcs_1_1AnnulusBzr.html#ab192aa425538fec597d22cac45fe1091" target="_top" xlink:title="Constructor.">
<polygon fill="white" stroke="#666666" points="146.5,-89.5 8.5,-89.5 8.5,-59.5 146.5,-59.5 146.5,-89.5"/>
<text text-anchor="start" x="16.5" y="-77.5" font-family="Helvetica,sans-Serif" font-size="10.00">qugar::impl::funcs</text>
<text text-anchor="middle" x="77.5" y="-66.5" font-family="Helvetica,sans-Serif" font-size="10.00">::AnnulusBzr::AnnulusBzr</text>
</a>
</g>
</g>
<!-- Node1&#45;&gt;Node6 -->
<g id="edge5_Node000001_Node000006" class="edge">
<title>Node1&#45;&gt;Node6</title>
<g id="a_edge5_Node000001_Node000006"><a xlink:title=" ">
<path fill="none" stroke="#63b8ff" d="M202.82,-121.08C187.84,-113.28 170.94,-105.04 155,-98.5 147.27,-95.33 138.97,-92.33 130.77,-89.59"/>
<polygon fill="#63b8ff" stroke="#63b8ff" points="201.4,-124.29 211.88,-125.86 204.67,-118.1 201.4,-124.29"/>
</a>
</g>
</g>
<!-- Node7 -->
<g id="Node000007" class="node">
<title>Node7</title>
<g id="a_Node000007"><a xlink:href="../../dc/d68/classqugar_1_1impl_1_1funcs_1_1AnnulusBzr.html#afc905d92474b9c606014d4735adad21f" target="_top" xlink:title="Creates a polynomial representation based on monomials for the given radii and center.">
<polygon fill="white" stroke="#666666" points="134.5,-41 20.5,-41 20.5,0 134.5,0 134.5,-41"/>
<text text-anchor="start" x="28.5" y="-29" font-family="Helvetica,sans-Serif" font-size="10.00">qugar::impl::funcs</text>
<text text-anchor="start" x="28.5" y="-18" font-family="Helvetica,sans-Serif" font-size="10.00">::AnnulusBzr::create</text>
<text text-anchor="middle" x="77.5" y="-7" font-family="Helvetica,sans-Serif" font-size="10.00">_monomials</text>
</a>
</g>
</g>
<!-- Node1&#45;&gt;Node7 -->
<g id="edge6_Node000001_Node000007" class="edge">
<title>Node1&#45;&gt;Node7</title>
<g id="a_edge6_Node000001_Node000007"><a xlink:title=" ">
<path fill="none" stroke="#63b8ff" d="M226.14,-117.66C208.65,-96.71 182.72,-68.91 155,-50.5 148.7,-46.32 141.73,-42.58 134.64,-39.29"/>
<polygon fill="#63b8ff" stroke="#63b8ff" points="223.6,-120.09 232.64,-125.61 229.01,-115.65 223.6,-120.09"/>
</a>
</g>
</g>
</g>
</svg>
