<?xml version="1.0" encoding="UTF-8" standalone="no"?>
<!DOCTYPE svg PUBLIC "-//W3C//DTD SVG 1.1//EN"
 "http://www.w3.org/Graphics/SVG/1.1/DTD/svg11.dtd">
<!-- Generated by graphviz version 2.43.0 (0)
 -->
<!-- Title: qugar::impl::funcs::AnnulusBase::AnnulusBase Pages: 1 -->
<svg width="321pt" height="157pt"
 viewBox="0.00 0.00 321.00 156.50" xmlns="http://www.w3.org/2000/svg" xmlns:xlink="http://www.w3.org/1999/xlink">
<g id="graph0" class="graph" transform="scale(1 1) rotate(0) translate(4 152.5)">
<title>qugar::impl::funcs::AnnulusBase::AnnulusBase</title>
<!-- Node1 -->
<g id="Node000001" class="node">
<title>Node1</title>
<g id="a_Node000001"><a xlink:title="Constructor.">
<polygon fill="#999999" stroke="#666666" points="155,-94.5 0,-94.5 0,-64.5 155,-64.5 155,-94.5"/>
<text text-anchor="start" x="8" y="-82.5" font-family="Helvetica,sans-Serif" font-size="10.00">qugar::impl::funcs</text>
<text text-anchor="middle" x="77.5" y="-71.5" font-family="Helvetica,sans-Serif" font-size="10.00">::AnnulusBase::AnnulusBase</text>
</a>
</g>
</g>
<!-- Node2 -->
<g id="Node000002" class="node">
<title>Node2</title>
<g id="a_Node000002"><a xlink:href="../../db/ded/classqugar_1_1impl_1_1funcs_1_1AnnulusBase.html#a8643fab693ba5b2a7722c663cd1af7a5" target="_top" xlink:title="Gets the center of the annulus.">
<polygon fill="white" stroke="#666666" points="313,-148.5 191,-148.5 191,-118.5 313,-118.5 313,-148.5"/>
<text text-anchor="start" x="199" y="-136.5" font-family="Helvetica,sans-Serif" font-size="10.00">qugar::impl::funcs</text>
<text text-anchor="middle" x="252" y="-125.5" font-family="Helvetica,sans-Serif" font-size="10.00">::AnnulusBase::center</text>
</a>
</g>
</g>
<!-- Node1&#45;&gt;Node2 -->
<g id="edge1_Node000001_Node000002" class="edge">
<title>Node1&#45;&gt;Node2</title>
<g id="a_edge1_Node000001_Node000002"><a xlink:title=" ">
<path fill="none" stroke="#63b8ff" d="M126.55,-94.54C147.21,-101.01 171.54,-108.63 193.18,-115.4"/>
<polygon fill="#63b8ff" stroke="#63b8ff" points="192.32,-118.8 202.91,-118.45 194.41,-112.12 192.32,-118.8"/>
</a>
</g>
</g>
<!-- Node3 -->
<g id="Node000003" class="node">
<title>Node3</title>
<g id="a_Node000003"><a xlink:href="../../db/ded/classqugar_1_1impl_1_1funcs_1_1AnnulusBase.html#a9d21165e747425d9ce9604310f34fbdd" target="_top" xlink:title="Gets the inner radius of the annulus.">
<polygon fill="white" stroke="#666666" points="310,-100 194,-100 194,-59 310,-59 310,-100"/>
<text text-anchor="start" x="202" y="-88" font-family="Helvetica,sans-Serif" font-size="10.00">qugar::impl::funcs</text>
<text text-anchor="start" x="202" y="-77" font-family="Helvetica,sans-Serif" font-size="10.00">::AnnulusBase::inner</text>
<text text-anchor="middle" x="252" y="-66" font-family="Helvetica,sans-Serif" font-size="10.00">_radius</text>
</a>
</g>
</g>
<!-- Node1&#45;&gt;Node3 -->
<g id="edge2_Node000001_Node000003" class="edge">
<title>Node1&#45;&gt;Node3</title>
<g id="a_edge2_Node000001_Node000003"><a xlink:title=" ">
<path fill="none" stroke="#63b8ff" d="M155.17,-79.5C164.75,-79.5 174.49,-79.5 183.91,-79.5"/>
<polygon fill="#63b8ff" stroke="#63b8ff" points="183.98,-83 193.98,-79.5 183.98,-76 183.98,-83"/>
</a>
</g>
</g>
<!-- Node4 -->
<g id="Node000004" class="node">
<title>Node4</title>
<g id="a_Node000004"><a xlink:href="../../db/ded/classqugar_1_1impl_1_1funcs_1_1AnnulusBase.html#a12cb3c770c083654e03d24449179649f" target="_top" xlink:title="Gets the outer radius of the annulus.">
<polygon fill="white" stroke="#666666" points="310.5,-41 193.5,-41 193.5,0 310.5,0 310.5,-41"/>
<text text-anchor="start" x="201.5" y="-29" font-family="Helvetica,sans-Serif" font-size="10.00">qugar::impl::funcs</text>
<text text-anchor="start" x="201.5" y="-18" font-family="Helvetica,sans-Serif" font-size="10.00">::AnnulusBase::outer</text>
<text text-anchor="middle" x="252" y="-7" font-family="Helvetica,sans-Serif" font-size="10.00">_radius</text>
</a>
</g>
</g>
<!-- Node1&#45;&gt;Node4 -->
<g id="edge3_Node000001_Node000004" class="edge">
<title>Node1&#45;&gt;Node4</title>
<g id="a_edge3_Node000001_Node000004"><a xlink:title=" ">
<path fill="none" stroke="#63b8ff" d="M122.48,-64.46C141.09,-58.09 163.19,-50.53 183.77,-43.49"/>
<polygon fill="#63b8ff" stroke="#63b8ff" points="185.09,-46.74 193.42,-40.19 182.82,-40.12 185.09,-46.74"/>
</a>
</g>
</g>
</g>
</svg>
