<?xml version="1.0" encoding="UTF-8" standalone="no"?>
<!DOCTYPE svg PUBLIC "-//W3C//DTD SVG 1.1//EN"
 "http://www.w3.org/Graphics/SVG/1.1/DTD/svg11.dtd">
<!-- Generated by graphviz version 2.43.0 (0)
 -->
<!-- Title: qugar::impl::funcs::AnnulusBase::center Pages: 1 -->
<svg width="321pt" height="194pt"
 viewBox="0.00 0.00 321.00 193.50" xmlns="http://www.w3.org/2000/svg" xmlns:xlink="http://www.w3.org/1999/xlink">
<g id="graph0" class="graph" transform="scale(1 1) rotate(0) translate(4 189.5)">
<title>qugar::impl::funcs::AnnulusBase::center</title>
<!-- Node1 -->
<g id="Node000001" class="node">
<title>Node1</title>
<g id="a_Node000001"><a xlink:title="Gets the center of the annulus.">
<polygon fill="#999999" stroke="#666666" points="313,-113.5 191,-113.5 191,-83.5 313,-83.5 313,-113.5"/>
<text text-anchor="start" x="199" y="-101.5" font-family="Helvetica,sans-Serif" font-size="10.00">qugar::impl::funcs</text>
<text text-anchor="middle" x="252" y="-90.5" font-family="Helvetica,sans-Serif" font-size="10.00">::AnnulusBase::center</text>
</a>
</g>
</g>
<!-- Node2 -->
<g id="Node000002" class="node">
<title>Node2</title>
<g id="a_Node000002"><a xlink:href="../../da/dd6/classqugar_1_1impl_1_1funcs_1_1Annulus.html#a6520321a3f3149830ae56e72234d583e" target="_top" xlink:title="Constructor.">
<polygon fill="white" stroke="#666666" points="131,-185.5 24,-185.5 24,-155.5 131,-155.5 131,-185.5"/>
<text text-anchor="start" x="32" y="-173.5" font-family="Helvetica,sans-Serif" font-size="10.00">qugar::impl::funcs</text>
<text text-anchor="middle" x="77.5" y="-162.5" font-family="Helvetica,sans-Serif" font-size="10.00">::Annulus::Annulus</text>
</a>
</g>
</g>
<!-- Node1&#45;&gt;Node2 -->
<g id="edge1_Node000001_Node000002" class="edge">
<title>Node1&#45;&gt;Node2</title>
<g id="a_edge1_Node000001_Node000002"><a xlink:title=" ">
<path fill="none" stroke="#63b8ff" d="M214.94,-118.24C197.2,-127.51 175.3,-138.3 155,-146.5 147.13,-149.68 138.66,-152.71 130.34,-155.47"/>
<polygon fill="#63b8ff" stroke="#63b8ff" points="216.61,-121.32 223.81,-113.56 213.33,-115.13 216.61,-121.32"/>
</a>
</g>
</g>
<!-- Node3 -->
<g id="Node000003" class="node">
<title>Node3</title>
<g id="a_Node000003"><a xlink:href="../../db/ded/classqugar_1_1impl_1_1funcs_1_1AnnulusBase.html#ac261b2d15f203aaa9795ff619f5ca78b" target="_top" xlink:title="Constructor.">
<polygon fill="white" stroke="#666666" points="155,-137.5 0,-137.5 0,-107.5 155,-107.5 155,-137.5"/>
<text text-anchor="start" x="8" y="-125.5" font-family="Helvetica,sans-Serif" font-size="10.00">qugar::impl::funcs</text>
<text text-anchor="middle" x="77.5" y="-114.5" font-family="Helvetica,sans-Serif" font-size="10.00">::AnnulusBase::AnnulusBase</text>
</a>
</g>
</g>
<!-- Node1&#45;&gt;Node3 -->
<g id="edge2_Node000001_Node000003" class="edge">
<title>Node1&#45;&gt;Node3</title>
<g id="a_edge2_Node000001_Node000003"><a xlink:title=" ">
<path fill="none" stroke="#63b8ff" d="M180.58,-108.3C172.21,-109.46 163.63,-110.66 155.17,-111.83"/>
<polygon fill="#63b8ff" stroke="#63b8ff" points="181.25,-111.74 190.67,-106.89 180.28,-104.81 181.25,-111.74"/>
</a>
</g>
</g>
<!-- Node4 -->
<g id="Node000004" class="node">
<title>Node4</title>
<g id="a_Node000004"><a xlink:href="../../dc/d68/classqugar_1_1impl_1_1funcs_1_1AnnulusBzr.html#ab192aa425538fec597d22cac45fe1091" target="_top" xlink:title="Constructor.">
<polygon fill="white" stroke="#666666" points="146.5,-89.5 8.5,-89.5 8.5,-59.5 146.5,-59.5 146.5,-89.5"/>
<text text-anchor="start" x="16.5" y="-77.5" font-family="Helvetica,sans-Serif" font-size="10.00">qugar::impl::funcs</text>
<text text-anchor="middle" x="77.5" y="-66.5" font-family="Helvetica,sans-Serif" font-size="10.00">::AnnulusBzr::AnnulusBzr</text>
</a>
</g>
</g>
<!-- Node1&#45;&gt;Node4 -->
<g id="edge3_Node000001_Node000004" class="edge">
<title>Node1&#45;&gt;Node4</title>
<g id="a_edge3_Node000001_Node000004"><a xlink:title=" ">
<path fill="none" stroke="#63b8ff" d="M180.55,-88.7C169.39,-87.15 157.87,-85.54 146.76,-84"/>
<polygon fill="#63b8ff" stroke="#63b8ff" points="180.28,-92.19 190.67,-90.11 181.25,-85.26 180.28,-92.19"/>
</a>
</g>
</g>
<!-- Node5 -->
<g id="Node000005" class="node">
<title>Node5</title>
<g id="a_Node000005"><a xlink:href="../../dc/d68/classqugar_1_1impl_1_1funcs_1_1AnnulusBzr.html#afc905d92474b9c606014d4735adad21f" target="_top" xlink:title="Creates a polynomial representation based on monomials for the given radii and center.">
<polygon fill="white" stroke="#666666" points="134.5,-41 20.5,-41 20.5,0 134.5,0 134.5,-41"/>
<text text-anchor="start" x="28.5" y="-29" font-family="Helvetica,sans-Serif" font-size="10.00">qugar::impl::funcs</text>
<text text-anchor="start" x="28.5" y="-18" font-family="Helvetica,sans-Serif" font-size="10.00">::AnnulusBzr::create</text>
<text text-anchor="middle" x="77.5" y="-7" font-family="Helvetica,sans-Serif" font-size="10.00">_monomials</text>
</a>
</g>
</g>
<!-- Node1&#45;&gt;Node5 -->
<g id="edge4_Node000001_Node000005" class="edge">
<title>Node1&#45;&gt;Node5</title>
<g id="a_edge4_Node000001_Node000005"><a xlink:title=" ">
<path fill="none" stroke="#63b8ff" d="M213.03,-78.53C195.53,-69.58 174.39,-59.13 155,-50.5 147.83,-47.31 140.21,-44.11 132.67,-41.04"/>
<polygon fill="#63b8ff" stroke="#63b8ff" points="211.84,-81.86 222.34,-83.32 215.05,-75.63 211.84,-81.86"/>
</a>
</g>
</g>
</g>
</svg>
