<?xml version="1.0" encoding="UTF-8" standalone="no"?>
<!DOCTYPE svg PUBLIC "-//W3C//DTD SVG 1.1//EN"
 "http://www.w3.org/Graphics/SVG/1.1/DTD/svg11.dtd">
<!-- Generated by graphviz version 2.43.0 (0)
 -->
<!-- Title: qugar::TensorSizeTP::TensorSizeTP Pages: 1 -->
<svg width="272pt" height="86pt"
 viewBox="0.00 0.00 272.00 86.00" xmlns="http://www.w3.org/2000/svg" xmlns:xlink="http://www.w3.org/1999/xlink">
<g id="graph0" class="graph" transform="scale(1 1) rotate(0) translate(4 82)">
<title>qugar::TensorSizeTP::TensorSizeTP</title>
<!-- Node1 -->
<g id="Node000001" class="node">
<title>Node1</title>
<g id="a_Node000001"><a xlink:title="Default constructor. Initializes indices to zero.">
<polygon fill="#999999" stroke="#666666" points="264,-54 150,-54 150,-24 264,-24 264,-54"/>
<text text-anchor="start" x="158" y="-42" font-family="Helvetica,sans-Serif" font-size="10.00">qugar::TensorSizeTP</text>
<text text-anchor="middle" x="207" y="-31" font-family="Helvetica,sans-Serif" font-size="10.00">::TensorSizeTP</text>
</a>
</g>
</g>
<!-- Node2 -->
<g id="Node000002" class="node">
<title>Node2</title>
<g id="a_Node000002"><a xlink:href="../../d3/d39/classqugar_1_1TensorSizeTP.html#a1f947628a8946db24ee296154591c506" target="_top" xlink:title="Adds two TensorSizeTP objects.">
<polygon fill="white" stroke="#666666" points="114,-78 0,-78 0,-48 114,-48 114,-78"/>
<text text-anchor="start" x="8" y="-66" font-family="Helvetica,sans-Serif" font-size="10.00">qugar::TensorSizeTP</text>
<text text-anchor="middle" x="57" y="-55" font-family="Helvetica,sans-Serif" font-size="10.00">::operator+</text>
</a>
</g>
</g>
<!-- Node1&#45;&gt;Node2 -->
<g id="edge1_Node000001_Node000002" class="edge">
<title>Node1&#45;&gt;Node2</title>
<g id="a_edge1_Node000001_Node000002"><a xlink:title=" ">
<path fill="none" stroke="#63b8ff" d="M139.72,-49.75C131.2,-51.13 122.55,-52.53 114.22,-53.88"/>
<polygon fill="#63b8ff" stroke="#63b8ff" points="140.31,-53.2 149.63,-48.14 139.19,-46.29 140.31,-53.2"/>
</a>
</g>
</g>
<!-- Node3 -->
<g id="Node000003" class="node">
<title>Node3</title>
<g id="a_Node000003"><a xlink:href="../../d3/d39/classqugar_1_1TensorSizeTP.html#ada391e037cd56f112900a4053f3808fa" target="_top" xlink:title="Checks if two tensor sizes are equal by comparing all its components. They are equal if all the compo...">
<polygon fill="white" stroke="#666666" points="114,-30 0,-30 0,0 114,0 114,-30"/>
<text text-anchor="start" x="8" y="-18" font-family="Helvetica,sans-Serif" font-size="10.00">qugar::TensorSizeTP</text>
<text text-anchor="middle" x="57" y="-7" font-family="Helvetica,sans-Serif" font-size="10.00">::operator==</text>
</a>
</g>
</g>
<!-- Node1&#45;&gt;Node3 -->
<g id="edge2_Node000001_Node000003" class="edge">
<title>Node1&#45;&gt;Node3</title>
<g id="a_edge2_Node000001_Node000003"><a xlink:title=" ">
<path fill="none" stroke="#63b8ff" d="M139.72,-28.25C131.2,-26.87 122.55,-25.47 114.22,-24.12"/>
<polygon fill="#63b8ff" stroke="#63b8ff" points="139.19,-31.71 149.63,-29.86 140.31,-24.8 139.19,-31.71"/>
</a>
</g>
</g>
</g>
</svg>
