<?xml version="1.0" encoding="UTF-8" standalone="no"?>
<!DOCTYPE svg PUBLIC "-//W3C//DTD SVG 1.1//EN"
 "http://www.w3.org/Graphics/SVG/1.1/DTD/svg11.dtd">
<!-- Generated by graphviz version 2.43.0 (0)
 -->
<!-- Title: /__w/qugar/qugar/cpp/include/qugar/impl_funcs_lib.hpp Pages: 1 -->
<svg width="991pt" height="280pt"
 viewBox="0.00 0.00 991.00 280.00" xmlns="http://www.w3.org/2000/svg" xmlns:xlink="http://www.w3.org/1999/xlink">
<g id="graph0" class="graph" transform="scale(1 1) rotate(0) translate(4 276)">
<title>/__w/qugar/qugar/cpp/include/qugar/impl_funcs_lib.hpp</title>
<!-- Node1 -->
<g id="Node000001" class="node">
<title>Node1</title>
<g id="a_Node000001"><a xlink:title="Declaration of a few implicit functions ready to be consumed by Algoim.">
<polygon fill="#999999" stroke="#666666" points="682,-272 540,-272 540,-231 682,-231 682,-272"/>
<text text-anchor="start" x="548" y="-260" font-family="Helvetica,sans-Serif" font-size="10.00">/__w/qugar/qugar/cpp</text>
<text text-anchor="start" x="548" y="-249" font-family="Helvetica,sans-Serif" font-size="10.00">/include/qugar/impl_funcs</text>
<text text-anchor="middle" x="611" y="-238" font-family="Helvetica,sans-Serif" font-size="10.00">_lib.hpp</text>
</a>
</g>
</g>
<!-- Node2 -->
<g id="Node000002" class="node">
<title>Node2</title>
<g id="a_Node000002"><a xlink:href="../../d6/d17/affine__transf_8hpp.html" target="_top" xlink:title="Declaration of affine transformation class.">
<polygon fill="white" stroke="#666666" points="321.5,-189.5 192.5,-189.5 192.5,-170.5 321.5,-170.5 321.5,-189.5"/>
<text text-anchor="middle" x="257" y="-177.5" font-family="Helvetica,sans-Serif" font-size="10.00">qugar/affine_transf.hpp</text>
</a>
</g>
</g>
<!-- Node1&#45;&gt;Node2 -->
<g id="edge1_Node000001_Node000002" class="edge">
<title>Node1&#45;&gt;Node2</title>
<g id="a_edge1_Node000001_Node000002"><a xlink:title=" ">
<path fill="none" stroke="#63b8ff" d="M539.79,-236.52C471.99,-223.21 371.48,-203.48 310.33,-191.47"/>
<polygon fill="#63b8ff" stroke="#63b8ff" points="310.98,-188.03 300.5,-189.54 309.64,-194.9 310.98,-188.03"/>
</a>
</g>
</g>
<!-- Node4 -->
<g id="Node000004" class="node">
<title>Node4</title>
<g id="a_Node000004"><a xlink:href="../../dd/de3/types_8hpp.html" target="_top" xlink:title="Declaration of types.">
<polygon fill="white" stroke="#666666" points="245.5,-74 150.5,-74 150.5,-55 245.5,-55 245.5,-74"/>
<text text-anchor="middle" x="198" y="-62" font-family="Helvetica,sans-Serif" font-size="10.00">qugar/types.hpp</text>
</a>
</g>
</g>
<!-- Node1&#45;&gt;Node4 -->
<g id="edge25_Node000001_Node000004" class="edge">
<title>Node1&#45;&gt;Node4</title>
<g id="a_edge25_Node000001_Node000004"><a xlink:title=" ">
<path fill="none" stroke="#63b8ff" d="M539.69,-246.3C424.27,-238.77 207.06,-221.26 184,-195 156.61,-163.82 175.69,-110.78 188.69,-83.25"/>
<polygon fill="#63b8ff" stroke="#63b8ff" points="191.95,-84.56 193.26,-74.05 185.68,-81.45 191.95,-84.56"/>
</a>
</g>
</g>
<!-- Node8 -->
<g id="Node000008" class="node">
<title>Node8</title>
<g id="a_Node000008"><a xlink:href="../../d0/de4/point_8hpp.html" target="_top" xlink:title="Definition and implementation of Point class.">
<polygon fill="white" stroke="#666666" points="402.5,-129 309.5,-129 309.5,-110 402.5,-110 402.5,-129"/>
<text text-anchor="middle" x="356" y="-117" font-family="Helvetica,sans-Serif" font-size="10.00">qugar/point.hpp</text>
</a>
</g>
</g>
<!-- Node1&#45;&gt;Node8 -->
<g id="edge24_Node000001_Node000008" class="edge">
<title>Node1&#45;&gt;Node8</title>
<g id="a_edge24_Node000001_Node000008"><a xlink:title=" ">
<path fill="none" stroke="#63b8ff" d="M539.77,-233.62C508.87,-224.64 472.96,-211.9 443,-195 414.72,-179.05 387.12,-153.14 370.84,-136.46"/>
<polygon fill="#63b8ff" stroke="#63b8ff" points="373.24,-133.91 363.8,-129.1 368.19,-138.75 373.24,-133.91"/>
</a>
</g>
</g>
<!-- Node9 -->
<g id="Node000009" class="node">
<title>Node9</title>
<g id="a_Node000009"><a xlink:href="../../da/d16/vector_8hpp.html" target="_top" xlink:title=" ">
<polygon fill="white" stroke="#666666" points="507,-74 409,-74 409,-55 507,-55 507,-74"/>
<text text-anchor="middle" x="458" y="-62" font-family="Helvetica,sans-Serif" font-size="10.00">qugar/vector.hpp</text>
</a>
</g>
</g>
<!-- Node1&#45;&gt;Node9 -->
<g id="edge26_Node000001_Node000009" class="edge">
<title>Node1&#45;&gt;Node9</title>
<g id="a_edge26_Node000001_Node000009"><a xlink:title=" ">
<path fill="none" stroke="#63b8ff" d="M539.7,-236.35C516,-228.13 491.68,-215.23 476,-195 450.93,-162.66 452.24,-111.66 455.21,-84.31"/>
<polygon fill="#63b8ff" stroke="#63b8ff" points="458.71,-84.53 456.51,-74.16 451.77,-83.63 458.71,-84.53"/>
</a>
</g>
</g>
<!-- Node13 -->
<g id="Node000013" class="node">
<title>Node13</title>
<g id="a_Node000013"><a xlink:href="../../dc/d7c/domain__function_8hpp.html" target="_top" xlink:title="Declaration of a few implicit functions template class ready to be consumed by Algoim.">
<polygon fill="white" stroke="#666666" points="635,-189.5 485,-189.5 485,-170.5 635,-170.5 635,-189.5"/>
<text text-anchor="middle" x="560" y="-177.5" font-family="Helvetica,sans-Serif" font-size="10.00">qugar/domain_function.hpp</text>
</a>
</g>
</g>
<!-- Node1&#45;&gt;Node13 -->
<g id="edge16_Node000001_Node000013" class="edge">
<title>Node1&#45;&gt;Node13</title>
<g id="a_edge16_Node000001_Node000013"><a xlink:title=" ">
<path fill="none" stroke="#63b8ff" d="M596.52,-230.77C588.95,-220.45 579.76,-207.93 572.5,-198.04"/>
<polygon fill="#63b8ff" stroke="#63b8ff" points="575.21,-195.81 566.47,-189.82 569.57,-199.95 575.21,-195.81"/>
</a>
</g>
</g>
<!-- Node14 -->
<g id="Node000014" class="node">
<title>Node14</title>
<g id="a_Node000014"><a xlink:title=" ">
<polygon fill="#e0e0e0" stroke="#999999" points="715,-129 603,-129 603,-110 715,-110 715,-129"/>
<text text-anchor="middle" x="659" y="-117" font-family="Helvetica,sans-Serif" font-size="10.00">algoim/interval.hpp</text>
</a>
</g>
</g>
<!-- Node1&#45;&gt;Node14 -->
<g id="edge27_Node000001_Node000014" class="edge">
<title>Node1&#45;&gt;Node14</title>
<g id="a_edge27_Node000001_Node000014"><a xlink:title=" ">
<path fill="none" stroke="#63b8ff" d="M624.95,-230.78C631.61,-220.53 639.17,-207.55 644,-195 651.03,-176.75 654.95,-154.66 657,-139.29"/>
<polygon fill="#63b8ff" stroke="#63b8ff" points="660.51,-139.37 658.23,-129.03 653.56,-138.54 660.51,-139.37"/>
</a>
</g>
</g>
<!-- Node16 -->
<g id="Node000016" class="node">
<title>Node16</title>
<g id="a_Node000016"><a xlink:title=" ">
<polygon fill="#e0e0e0" stroke="#999999" points="802.5,-129 733.5,-129 733.5,-110 802.5,-110 802.5,-129"/>
<text text-anchor="middle" x="768" y="-117" font-family="Helvetica,sans-Serif" font-size="10.00">type_traits</text>
</a>
</g>
</g>
<!-- Node1&#45;&gt;Node16 -->
<g id="edge30_Node000001_Node000016" class="edge">
<title>Node1&#45;&gt;Node16</title>
<g id="a_edge30_Node000001_Node000016"><a xlink:title=" ">
<path fill="none" stroke="#63b8ff" d="M634.84,-230.76C666.41,-204.62 721.37,-159.11 749.8,-135.57"/>
<polygon fill="#63b8ff" stroke="#63b8ff" points="752.25,-138.09 757.72,-129.01 747.79,-132.69 752.25,-138.09"/>
</a>
</g>
</g>
<!-- Node17 -->
<g id="Node000017" class="node">
<title>Node17</title>
<g id="a_Node000017"><a xlink:href="../../d5/da2/impl__funcs__lib__macros_8hpp.html" target="_top" xlink:title="Declaration of macros to ease the definition/implementation of implicit functions.">
<polygon fill="white" stroke="#666666" points="847,-195 729,-195 729,-165 847,-165 847,-195"/>
<text text-anchor="start" x="737" y="-183" font-family="Helvetica,sans-Serif" font-size="10.00">qugar/impl_funcs_lib</text>
<text text-anchor="middle" x="788" y="-172" font-family="Helvetica,sans-Serif" font-size="10.00">_macros.hpp</text>
</a>
</g>
</g>
<!-- Node1&#45;&gt;Node17 -->
<g id="edge23_Node000001_Node000017" class="edge">
<title>Node1&#45;&gt;Node17</title>
<g id="a_edge23_Node000001_Node000017"><a xlink:title=" ">
<path fill="none" stroke="#63b8ff" d="M660.78,-230.96C686.5,-220.85 717.67,-208.62 742.71,-198.78"/>
<polygon fill="#63b8ff" stroke="#63b8ff" points="744.31,-201.92 752.34,-195 741.75,-195.4 744.31,-201.92"/>
</a>
</g>
</g>
<!-- Node18 -->
<g id="Node000018" class="node">
<title>Node18</title>
<g id="a_Node000018"><a xlink:title=" ">
<polygon fill="#e0e0e0" stroke="#999999" points="907,-189.5 865,-189.5 865,-170.5 907,-170.5 907,-189.5"/>
<text text-anchor="middle" x="886" y="-177.5" font-family="Helvetica,sans-Serif" font-size="10.00">array</text>
</a>
</g>
</g>
<!-- Node1&#45;&gt;Node18 -->
<g id="edge28_Node000001_Node000018" class="edge">
<title>Node1&#45;&gt;Node18</title>
<g id="a_edge28_Node000001_Node000018"><a xlink:title=" ">
<path fill="none" stroke="#63b8ff" d="M682.07,-238.57C731.59,-229.25 798.75,-214.59 856,-195 857.22,-194.58 858.46,-194.13 859.71,-193.65"/>
<polygon fill="#63b8ff" stroke="#63b8ff" points="861.3,-196.78 869.13,-189.64 858.55,-190.34 861.3,-196.78"/>
</a>
</g>
</g>
<!-- Node19 -->
<g id="Node000019" class="node">
<title>Node19</title>
<g id="a_Node000019"><a xlink:title=" ">
<polygon fill="#e0e0e0" stroke="#999999" points="983,-189.5 925,-189.5 925,-170.5 983,-170.5 983,-189.5"/>
<text text-anchor="middle" x="954" y="-177.5" font-family="Helvetica,sans-Serif" font-size="10.00">memory</text>
</a>
</g>
</g>
<!-- Node1&#45;&gt;Node19 -->
<g id="edge29_Node000001_Node000019" class="edge">
<title>Node1&#45;&gt;Node19</title>
<g id="a_edge29_Node000001_Node000019"><a xlink:title=" ">
<path fill="none" stroke="#63b8ff" d="M682.04,-241.13C744.35,-232.07 837.08,-216.54 916,-195 918.43,-194.34 920.93,-193.58 923.43,-192.78"/>
<polygon fill="#63b8ff" stroke="#63b8ff" points="924.6,-196.08 932.91,-189.51 922.31,-189.46 924.6,-196.08"/>
</a>
</g>
</g>
<!-- Node3 -->
<g id="Node000003" class="node">
<title>Node3</title>
<g id="a_Node000003"><a xlink:href="../../db/d83/numbers_8hpp.html" target="_top" xlink:title="Declaration of constant values.">
<polygon fill="white" stroke="#666666" points="112.5,-129 1.5,-129 1.5,-110 112.5,-110 112.5,-129"/>
<text text-anchor="middle" x="57" y="-117" font-family="Helvetica,sans-Serif" font-size="10.00">qugar/numbers.hpp</text>
</a>
</g>
</g>
<!-- Node2&#45;&gt;Node3 -->
<g id="edge2_Node000002_Node000003" class="edge">
<title>Node2&#45;&gt;Node3</title>
<g id="a_edge2_Node000002_Node000003"><a xlink:title=" ">
<path fill="none" stroke="#63b8ff" d="M227.92,-170.49C193.11,-160.31 134.68,-143.22 95.99,-131.9"/>
<polygon fill="#63b8ff" stroke="#63b8ff" points="96.7,-128.46 86.12,-129.02 94.73,-135.18 96.7,-128.46"/>
</a>
</g>
</g>
<!-- Node2&#45;&gt;Node4 -->
<g id="edge13_Node000002_Node000004" class="edge">
<title>Node2&#45;&gt;Node4</title>
<g id="a_edge13_Node000002_Node000004"><a xlink:title=" ">
<path fill="none" stroke="#63b8ff" d="M240.85,-170.34C226.9,-161.87 207.67,-147.54 199,-129 192.5,-115.1 192.77,-97.54 194.37,-84.41"/>
<polygon fill="#63b8ff" stroke="#63b8ff" points="197.88,-84.64 195.99,-74.21 190.97,-83.54 197.88,-84.64"/>
</a>
</g>
</g>
<!-- Node2&#45;&gt;Node8 -->
<g id="edge7_Node000002_Node000008" class="edge">
<title>Node2&#45;&gt;Node8</title>
<g id="a_edge7_Node000002_Node000008"><a xlink:title=" ">
<path fill="none" stroke="#63b8ff" d="M271.61,-170.37C287.69,-160.86 313.78,-145.45 332.7,-134.27"/>
<polygon fill="#63b8ff" stroke="#63b8ff" points="334.5,-137.27 341.33,-129.17 330.94,-131.24 334.5,-137.27"/>
</a>
</g>
</g>
<!-- Node2&#45;&gt;Node9 -->
<g id="edge14_Node000002_Node000009" class="edge">
<title>Node2&#45;&gt;Node9</title>
<g id="a_edge14_Node000002_Node000009"><a xlink:title=" ">
<path fill="none" stroke="#63b8ff" d="M310.34,-170.44C342.14,-163.34 382.03,-150.76 412,-129 428.47,-117.04 441.39,-97.4 449.29,-83.12"/>
<polygon fill="#63b8ff" stroke="#63b8ff" points="452.4,-84.73 453.94,-74.25 446.2,-81.48 452.4,-84.73"/>
</a>
</g>
</g>
<!-- Node12 -->
<g id="Node000012" class="node">
<title>Node12</title>
<g id="a_Node000012"><a xlink:title=" ">
<polygon fill="#e0e0e0" stroke="#999999" points="252.5,-129 207.5,-129 207.5,-110 252.5,-110 252.5,-129"/>
<text text-anchor="middle" x="230" y="-117" font-family="Helvetica,sans-Serif" font-size="10.00">utility</text>
</a>
</g>
</g>
<!-- Node2&#45;&gt;Node12 -->
<g id="edge15_Node000002_Node000012" class="edge">
<title>Node2&#45;&gt;Node12</title>
<g id="a_edge15_Node000002_Node000012"><a xlink:title=" ">
<path fill="none" stroke="#63b8ff" d="M253.02,-170.37C249.15,-161.99 243.16,-149.01 238.26,-138.39"/>
<polygon fill="#63b8ff" stroke="#63b8ff" points="241.37,-136.78 234,-129.17 235.01,-139.71 241.37,-136.78"/>
</a>
</g>
</g>
<!-- Node3&#45;&gt;Node4 -->
<g id="edge3_Node000003_Node000004" class="edge">
<title>Node3&#45;&gt;Node4</title>
<g id="a_edge3_Node000003_Node000004"><a xlink:title=" ">
<path fill="none" stroke="#63b8ff" d="M79.65,-109.98C102.85,-101.27 139.12,-87.63 165.4,-77.75"/>
<polygon fill="#63b8ff" stroke="#63b8ff" points="166.8,-80.97 174.93,-74.17 164.34,-74.41 166.8,-80.97"/>
</a>
</g>
</g>
<!-- Node6 -->
<g id="Node000006" class="node">
<title>Node6</title>
<g id="a_Node000006"><a xlink:title=" ">
<polygon fill="#e0e0e0" stroke="#999999" points="44,-74 0,-74 0,-55 44,-55 44,-74"/>
<text text-anchor="middle" x="22" y="-62" font-family="Helvetica,sans-Serif" font-size="10.00">limits</text>
</a>
</g>
</g>
<!-- Node3&#45;&gt;Node6 -->
<g id="edge5_Node000003_Node000006" class="edge">
<title>Node3&#45;&gt;Node6</title>
<g id="a_edge5_Node000003_Node000006"><a xlink:title=" ">
<path fill="none" stroke="#63b8ff" d="M51.22,-109.75C46.38,-102.42 39.32,-91.73 33.36,-82.7"/>
<polygon fill="#63b8ff" stroke="#63b8ff" points="36.1,-80.5 27.67,-74.09 30.26,-84.36 36.1,-80.5"/>
</a>
</g>
</g>
<!-- Node7 -->
<g id="Node000007" class="node">
<title>Node7</title>
<g id="a_Node000007"><a xlink:title=" ">
<polygon fill="#e0e0e0" stroke="#999999" points="121.5,-74 62.5,-74 62.5,-55 121.5,-55 121.5,-74"/>
<text text-anchor="middle" x="92" y="-62" font-family="Helvetica,sans-Serif" font-size="10.00">numbers</text>
</a>
</g>
</g>
<!-- Node3&#45;&gt;Node7 -->
<g id="edge6_Node000003_Node000007" class="edge">
<title>Node3&#45;&gt;Node7</title>
<g id="a_edge6_Node000003_Node000007"><a xlink:title=" ">
<path fill="none" stroke="#63b8ff" d="M62.78,-109.75C67.62,-102.42 74.68,-91.73 80.64,-82.7"/>
<polygon fill="#63b8ff" stroke="#63b8ff" points="83.74,-84.36 86.33,-74.09 77.9,-80.5 83.74,-84.36"/>
</a>
</g>
</g>
<!-- Node5 -->
<g id="Node000005" class="node">
<title>Node5</title>
<g id="a_Node000005"><a xlink:title=" ">
<polygon fill="#e0e0e0" stroke="#999999" points="282.5,-19 229.5,-19 229.5,0 282.5,0 282.5,-19"/>
<text text-anchor="middle" x="256" y="-7" font-family="Helvetica,sans-Serif" font-size="10.00">cstddef</text>
</a>
</g>
</g>
<!-- Node4&#45;&gt;Node5 -->
<g id="edge4_Node000004_Node000005" class="edge">
<title>Node4&#45;&gt;Node5</title>
<g id="a_edge4_Node000004_Node000005"><a xlink:title=" ">
<path fill="none" stroke="#63b8ff" d="M207.32,-54.98C215.81,-47.23 228.56,-35.58 238.88,-26.14"/>
<polygon fill="#63b8ff" stroke="#63b8ff" points="241.49,-28.5 246.51,-19.17 236.77,-23.33 241.49,-28.5"/>
</a>
</g>
</g>
<!-- Node8&#45;&gt;Node4 -->
<g id="edge8_Node000008_Node000004" class="edge">
<title>Node8&#45;&gt;Node4</title>
<g id="a_edge8_Node000008_Node000004"><a xlink:title=" ">
<path fill="none" stroke="#63b8ff" d="M330.61,-109.98C304.2,-101.13 262.65,-87.19 233.11,-77.28"/>
<polygon fill="#63b8ff" stroke="#63b8ff" points="234.18,-73.94 223.58,-74.08 231.95,-80.58 234.18,-73.94"/>
</a>
</g>
</g>
<!-- Node8&#45;&gt;Node5 -->
<g id="edge11_Node000008_Node000005" class="edge">
<title>Node8&#45;&gt;Node5</title>
<g id="a_edge11_Node000008_Node000005"><a xlink:title=" ">
<path fill="none" stroke="#63b8ff" d="M347.82,-109.66C331.03,-91.54 292.49,-49.91 271.07,-26.77"/>
<polygon fill="#63b8ff" stroke="#63b8ff" points="273.38,-24.12 264.02,-19.16 268.24,-28.87 273.38,-24.12"/>
</a>
</g>
</g>
<!-- Node8&#45;&gt;Node9 -->
<g id="edge9_Node000008_Node000009" class="edge">
<title>Node8&#45;&gt;Node9</title>
<g id="a_edge9_Node000008_Node000009"><a xlink:title=" ">
<path fill="none" stroke="#63b8ff" d="M372.39,-109.98C388.57,-101.57 413.57,-88.59 432.38,-78.81"/>
<polygon fill="#63b8ff" stroke="#63b8ff" points="434.05,-81.89 441.31,-74.17 430.83,-75.68 434.05,-81.89"/>
</a>
</g>
</g>
<!-- Node11 -->
<g id="Node000011" class="node">
<title>Node11</title>
<g id="a_Node000011"><a xlink:title=" ">
<polygon fill="#e0e0e0" stroke="#999999" points="379.5,-74 332.5,-74 332.5,-55 379.5,-55 379.5,-74"/>
<text text-anchor="middle" x="356" y="-62" font-family="Helvetica,sans-Serif" font-size="10.00">vector</text>
</a>
</g>
</g>
<!-- Node8&#45;&gt;Node11 -->
<g id="edge12_Node000008_Node000011" class="edge">
<title>Node8&#45;&gt;Node11</title>
<g id="a_edge12_Node000008_Node000011"><a xlink:title=" ">
<path fill="none" stroke="#63b8ff" d="M356,-109.75C356,-102.8 356,-92.85 356,-84.13"/>
<polygon fill="#63b8ff" stroke="#63b8ff" points="359.5,-84.09 356,-74.09 352.5,-84.09 359.5,-84.09"/>
</a>
</g>
</g>
<!-- Node10 -->
<g id="Node000010" class="node">
<title>Node10</title>
<g id="a_Node000010"><a xlink:title=" ">
<polygon fill="#e0e0e0" stroke="#999999" points="513,-19 403,-19 403,0 513,0 513,-19"/>
<text text-anchor="middle" x="458" y="-7" font-family="Helvetica,sans-Serif" font-size="10.00">algoim/uvector.hpp</text>
</a>
</g>
</g>
<!-- Node9&#45;&gt;Node10 -->
<g id="edge10_Node000009_Node000010" class="edge">
<title>Node9&#45;&gt;Node10</title>
<g id="a_edge10_Node000009_Node000010"><a xlink:title=" ">
<path fill="none" stroke="#63b8ff" d="M458,-54.75C458,-47.8 458,-37.85 458,-29.13"/>
<polygon fill="#63b8ff" stroke="#63b8ff" points="461.5,-29.09 458,-19.09 454.5,-29.09 461.5,-29.09"/>
</a>
</g>
</g>
<!-- Node13&#45;&gt;Node4 -->
<g id="edge17_Node000013_Node000004" class="edge">
<title>Node13&#45;&gt;Node4</title>
<g id="a_edge17_Node000013_Node000004"><a xlink:title=" ">
<path fill="none" stroke="#63b8ff" d="M484.89,-171.77C432.08,-164.96 360.52,-152.2 301,-129 269.6,-116.76 237.1,-94.93 217.22,-80.33"/>
<polygon fill="#63b8ff" stroke="#63b8ff" points="219.12,-77.38 209.02,-74.19 214.93,-82.98 219.12,-77.38"/>
</a>
</g>
</g>
<!-- Node13&#45;&gt;Node8 -->
<g id="edge18_Node000013_Node000008" class="edge">
<title>Node13&#45;&gt;Node8</title>
<g id="a_edge18_Node000013_Node000008"><a xlink:title=" ">
<path fill="none" stroke="#63b8ff" d="M530.34,-170.49C494.76,-160.29 434.98,-143.15 395.52,-131.83"/>
<polygon fill="#63b8ff" stroke="#63b8ff" points="396.28,-128.41 385.7,-129.02 394.35,-135.14 396.28,-128.41"/>
</a>
</g>
</g>
<!-- Node13&#45;&gt;Node9 -->
<g id="edge19_Node000013_Node000009" class="edge">
<title>Node13&#45;&gt;Node9</title>
<g id="a_edge19_Node000013_Node000009"><a xlink:title=" ">
<path fill="none" stroke="#63b8ff" d="M552.33,-170.47C535.42,-151.65 494.69,-106.32 472.69,-81.84"/>
<polygon fill="#63b8ff" stroke="#63b8ff" points="475.04,-79.23 465.76,-74.13 469.84,-83.91 475.04,-79.23"/>
</a>
</g>
</g>
<!-- Node13&#45;&gt;Node14 -->
<g id="edge20_Node000013_Node000014" class="edge">
<title>Node13&#45;&gt;Node14</title>
<g id="a_edge20_Node000013_Node000014"><a xlink:title=" ">
<path fill="none" stroke="#63b8ff" d="M574.61,-170.37C590.69,-160.86 616.78,-145.45 635.7,-134.27"/>
<polygon fill="#63b8ff" stroke="#63b8ff" points="637.5,-137.27 644.33,-129.17 633.94,-131.24 637.5,-137.27"/>
</a>
</g>
</g>
<!-- Node15 -->
<g id="Node000015" class="node">
<title>Node15</title>
<g id="a_Node000015"><a xlink:title=" ">
<polygon fill="#e0e0e0" stroke="#999999" points="585,-129 535,-129 535,-110 585,-110 585,-129"/>
<text text-anchor="middle" x="560" y="-117" font-family="Helvetica,sans-Serif" font-size="10.00">cstdint</text>
</a>
</g>
</g>
<!-- Node13&#45;&gt;Node15 -->
<g id="edge21_Node000013_Node000015" class="edge">
<title>Node13&#45;&gt;Node15</title>
<g id="a_edge21_Node000013_Node000015"><a xlink:title=" ">
<path fill="none" stroke="#63b8ff" d="M560,-170.37C560,-162.25 560,-149.81 560,-139.39"/>
<polygon fill="#63b8ff" stroke="#63b8ff" points="563.5,-139.17 560,-129.17 556.5,-139.17 563.5,-139.17"/>
</a>
</g>
</g>
<!-- Node13&#45;&gt;Node16 -->
<g id="edge22_Node000013_Node000016" class="edge">
<title>Node13&#45;&gt;Node16</title>
<g id="a_edge22_Node000013_Node000016"><a xlink:title=" ">
<path fill="none" stroke="#63b8ff" d="M590.24,-170.49C626.6,-160.27 687.73,-143.08 727.97,-131.76"/>
<polygon fill="#63b8ff" stroke="#63b8ff" points="729.04,-135.09 737.72,-129.02 727.14,-128.35 729.04,-135.09"/>
</a>
</g>
</g>
</g>
</svg>
