<?xml version="1.0" encoding="UTF-8" standalone="no"?>
<!DOCTYPE svg PUBLIC "-//W3C//DTD SVG 1.1//EN"
 "http://www.w3.org/Graphics/SVG/1.1/DTD/svg11.dtd">
<!-- Generated by graphviz version 2.43.0 (0)
 -->
<!-- Title: qugar::impl::funcs::TorusBzr::create_monomials Pages: 1 -->
<svg width="347pt" height="182pt"
 viewBox="0.00 0.00 347.00 182.00" xmlns="http://www.w3.org/2000/svg" xmlns:xlink="http://www.w3.org/1999/xlink">
<g id="graph0" class="graph" transform="scale(1 1) rotate(0) translate(4 178)">
<title>qugar::impl::funcs::TorusBzr::create_monomials</title>
<!-- Node1 -->
<g id="Node000001" class="node">
<title>Node1</title>
<g id="a_Node000001"><a xlink:title="Creates a polynomial representation based on monomials for the given radii, center,...">
<polygon fill="#999999" stroke="#666666" points="161,-102 0,-102 0,-72 161,-72 161,-102"/>
<text text-anchor="start" x="8" y="-90" font-family="Helvetica,sans-Serif" font-size="10.00">qugar::impl::funcs</text>
<text text-anchor="middle" x="80.5" y="-79" font-family="Helvetica,sans-Serif" font-size="10.00">::TorusBzr::create_monomials</text>
</a>
</g>
</g>
<!-- Node2 -->
<g id="Node000002" class="node">
<title>Node2</title>
<g id="a_Node000002"><a xlink:href="../../db/dc8/classqugar_1_1impl_1_1funcs_1_1TorusBase.html#ac9b0df6ba8326fa09c214ddf82d91d3c" target="_top" xlink:title="Gets the axis of the plane.">
<polygon fill="white" stroke="#666666" points="320,-174 216,-174 216,-144 320,-144 320,-174"/>
<text text-anchor="start" x="224" y="-162" font-family="Helvetica,sans-Serif" font-size="10.00">qugar::impl::funcs</text>
<text text-anchor="middle" x="268" y="-151" font-family="Helvetica,sans-Serif" font-size="10.00">::TorusBase::axis</text>
</a>
</g>
</g>
<!-- Node1&#45;&gt;Node2 -->
<g id="edge1_Node000001_Node000002" class="edge">
<title>Node1&#45;&gt;Node2</title>
<g id="a_edge1_Node000001_Node000002"><a xlink:title=" ">
<path fill="none" stroke="#63b8ff" d="M116.14,-102.07C138.97,-111.84 169.59,-124.62 197,-135 201.83,-136.83 206.87,-138.68 211.94,-140.49"/>
<polygon fill="#63b8ff" stroke="#63b8ff" points="211.07,-143.9 221.66,-143.93 213.4,-137.3 211.07,-143.9"/>
</a>
</g>
</g>
<!-- Node3 -->
<g id="Node000003" class="node">
<title>Node3</title>
<g id="a_Node000003"><a xlink:href="../../db/dc8/classqugar_1_1impl_1_1funcs_1_1TorusBase.html#a097ef719a844f0213bfcdd876046b7f7" target="_top" xlink:title="Gets the center of the plane.">
<polygon fill="white" stroke="#666666" points="322.5,-126 213.5,-126 213.5,-96 322.5,-96 322.5,-126"/>
<text text-anchor="start" x="221.5" y="-114" font-family="Helvetica,sans-Serif" font-size="10.00">qugar::impl::funcs</text>
<text text-anchor="middle" x="268" y="-103" font-family="Helvetica,sans-Serif" font-size="10.00">::TorusBase::center</text>
</a>
</g>
</g>
<!-- Node1&#45;&gt;Node3 -->
<g id="edge2_Node000001_Node000003" class="edge">
<title>Node1&#45;&gt;Node3</title>
<g id="a_edge2_Node000001_Node000003"><a xlink:title=" ">
<path fill="none" stroke="#63b8ff" d="M161.25,-97.32C175.25,-99.13 189.66,-100.99 203.16,-102.74"/>
<polygon fill="#63b8ff" stroke="#63b8ff" points="202.92,-106.24 213.29,-104.05 203.82,-99.3 202.92,-106.24"/>
</a>
</g>
</g>
<!-- Node4 -->
<g id="Node000004" class="node">
<title>Node4</title>
<g id="a_Node000004"><a xlink:href="../../db/dc8/classqugar_1_1impl_1_1funcs_1_1TorusBase.html#a07d898d07b21b70d9d3615f49cb45dd9" target="_top" xlink:title="Gets the major radius of the torus.">
<polygon fill="white" stroke="#666666" points="339,-78 197,-78 197,-48 339,-48 339,-78"/>
<text text-anchor="start" x="205" y="-66" font-family="Helvetica,sans-Serif" font-size="10.00">qugar::impl::funcs</text>
<text text-anchor="middle" x="268" y="-55" font-family="Helvetica,sans-Serif" font-size="10.00">::TorusBase::major_radius</text>
</a>
</g>
</g>
<!-- Node1&#45;&gt;Node4 -->
<g id="edge3_Node000001_Node000004" class="edge">
<title>Node1&#45;&gt;Node4</title>
<g id="a_edge3_Node000001_Node000004"><a xlink:title=" ">
<path fill="none" stroke="#63b8ff" d="M161.25,-76.68C169.79,-75.58 178.48,-74.45 187.02,-73.35"/>
<polygon fill="#63b8ff" stroke="#63b8ff" points="187.49,-76.82 196.96,-72.06 186.59,-69.87 187.49,-76.82"/>
</a>
</g>
</g>
<!-- Node5 -->
<g id="Node000005" class="node">
<title>Node5</title>
<g id="a_Node000005"><a xlink:href="../../db/dc8/classqugar_1_1impl_1_1funcs_1_1TorusBase.html#ac3bc8990d1ef8e5336df983c33cbee12" target="_top" xlink:title="Gets the minor radius of the torus.">
<polygon fill="white" stroke="#666666" points="339,-30 197,-30 197,0 339,0 339,-30"/>
<text text-anchor="start" x="205" y="-18" font-family="Helvetica,sans-Serif" font-size="10.00">qugar::impl::funcs</text>
<text text-anchor="middle" x="268" y="-7" font-family="Helvetica,sans-Serif" font-size="10.00">::TorusBase::minor_radius</text>
</a>
</g>
</g>
<!-- Node1&#45;&gt;Node5 -->
<g id="edge4_Node000001_Node000005" class="edge">
<title>Node1&#45;&gt;Node5</title>
<g id="a_edge4_Node000001_Node000005"><a xlink:title=" ">
<path fill="none" stroke="#63b8ff" d="M116.14,-71.93C138.97,-62.16 169.59,-49.38 197,-39 201.83,-37.17 206.87,-35.32 211.94,-33.51"/>
<polygon fill="#63b8ff" stroke="#63b8ff" points="213.4,-36.7 221.66,-30.07 211.07,-30.1 213.4,-36.7"/>
</a>
</g>
</g>
</g>
</svg>
