<?xml version="1.0" encoding="UTF-8" standalone="no"?>
<!DOCTYPE svg PUBLIC "-//W3C//DTD SVG 1.1//EN"
 "http://www.w3.org/Graphics/SVG/1.1/DTD/svg11.dtd">
<!-- Generated by graphviz version 2.43.0 (0)
 -->
<!-- Title: qugar::impl::funcs::TorusBzr::TorusBzr Pages: 1 -->
<svg width="297pt" height="86pt"
 viewBox="0.00 0.00 297.00 86.00" xmlns="http://www.w3.org/2000/svg" xmlns:xlink="http://www.w3.org/1999/xlink">
<g id="graph0" class="graph" transform="scale(1 1) rotate(0) translate(4 82)">
<title>qugar::impl::funcs::TorusBzr::TorusBzr</title>
<!-- Node1 -->
<g id="Node000001" class="node">
<title>Node1</title>
<g id="a_Node000001"><a xlink:title="Constructor.">
<polygon fill="#999999" stroke="#666666" points="111,-54 0,-54 0,-24 111,-24 111,-54"/>
<text text-anchor="start" x="8" y="-42" font-family="Helvetica,sans-Serif" font-size="10.00">qugar::impl::funcs</text>
<text text-anchor="middle" x="55.5" y="-31" font-family="Helvetica,sans-Serif" font-size="10.00">::TorusBzr::TorusBzr</text>
</a>
</g>
</g>
<!-- Node2 -->
<g id="Node000002" class="node">
<title>Node2</title>
<g id="a_Node000002"><a xlink:href="../../db/dc8/classqugar_1_1impl_1_1funcs_1_1TorusBase.html#a07d898d07b21b70d9d3615f49cb45dd9" target="_top" xlink:title="Gets the major radius of the torus.">
<polygon fill="white" stroke="#666666" points="289,-78 147,-78 147,-48 289,-48 289,-78"/>
<text text-anchor="start" x="155" y="-66" font-family="Helvetica,sans-Serif" font-size="10.00">qugar::impl::funcs</text>
<text text-anchor="middle" x="218" y="-55" font-family="Helvetica,sans-Serif" font-size="10.00">::TorusBase::major_radius</text>
</a>
</g>
</g>
<!-- Node1&#45;&gt;Node2 -->
<g id="edge1_Node000001_Node000002" class="edge">
<title>Node1&#45;&gt;Node2</title>
<g id="a_edge1_Node000001_Node000002"><a xlink:title=" ">
<path fill="none" stroke="#63b8ff" d="M111.29,-47.19C119.51,-48.42 128.13,-49.71 136.75,-51"/>
<polygon fill="#63b8ff" stroke="#63b8ff" points="136.44,-54.49 146.85,-52.51 137.48,-47.57 136.44,-54.49"/>
</a>
</g>
</g>
<!-- Node3 -->
<g id="Node000003" class="node">
<title>Node3</title>
<g id="a_Node000003"><a xlink:href="../../db/dc8/classqugar_1_1impl_1_1funcs_1_1TorusBase.html#ac3bc8990d1ef8e5336df983c33cbee12" target="_top" xlink:title="Gets the minor radius of the torus.">
<polygon fill="white" stroke="#666666" points="289,-30 147,-30 147,0 289,0 289,-30"/>
<text text-anchor="start" x="155" y="-18" font-family="Helvetica,sans-Serif" font-size="10.00">qugar::impl::funcs</text>
<text text-anchor="middle" x="218" y="-7" font-family="Helvetica,sans-Serif" font-size="10.00">::TorusBase::minor_radius</text>
</a>
</g>
</g>
<!-- Node1&#45;&gt;Node3 -->
<g id="edge2_Node000001_Node000003" class="edge">
<title>Node1&#45;&gt;Node3</title>
<g id="a_edge2_Node000001_Node000003"><a xlink:title=" ">
<path fill="none" stroke="#63b8ff" d="M111.29,-30.81C119.51,-29.58 128.13,-28.29 136.75,-27"/>
<polygon fill="#63b8ff" stroke="#63b8ff" points="137.48,-30.43 146.85,-25.49 136.44,-23.51 137.48,-30.43"/>
</a>
</g>
</g>
</g>
</svg>
