<?xml version="1.0" encoding="UTF-8" standalone="no"?>
<!DOCTYPE svg PUBLIC "-//W3C//DTD SVG 1.1//EN"
 "http://www.w3.org/Graphics/SVG/1.1/DTD/svg11.dtd">
<!-- Generated by graphviz version 2.43.0 (0)
 -->
<!-- Title: qugar::impl::AffineTransf::AffineTransf Pages: 1 -->
<svg width="316pt" height="86pt"
 viewBox="0.00 0.00 316.00 86.00" xmlns="http://www.w3.org/2000/svg" xmlns:xlink="http://www.w3.org/1999/xlink">
<g id="graph0" class="graph" transform="scale(1 1) rotate(0) translate(4 82)">
<title>qugar::impl::AffineTransf::AffineTransf</title>
<!-- Node1 -->
<g id="Node000001" class="node">
<title>Node1</title>
<g id="a_Node000001"><a xlink:title="Default constructor. Creates the identity transformation.">
<polygon fill="#999999" stroke="#666666" points="308,-54 172,-54 172,-24 308,-24 308,-54"/>
<text text-anchor="start" x="180" y="-42" font-family="Helvetica,sans-Serif" font-size="10.00">qugar::impl::AffineTransf</text>
<text text-anchor="middle" x="240" y="-31" font-family="Helvetica,sans-Serif" font-size="10.00">::AffineTransf</text>
</a>
</g>
</g>
<!-- Node2 -->
<g id="Node000002" class="node">
<title>Node2</title>
<g id="a_Node000002"><a xlink:href="../../d0/dbc/classqugar_1_1impl_1_1AffineTransf.html#a6d51b8a2faee0f0abfe8c0c4799e42b4" target="_top" xlink:title="Inverts the current transformation.">
<polygon fill="white" stroke="#666666" points="136,-78 0,-78 0,-48 136,-48 136,-78"/>
<text text-anchor="start" x="8" y="-66" font-family="Helvetica,sans-Serif" font-size="10.00">qugar::impl::AffineTransf</text>
<text text-anchor="middle" x="68" y="-55" font-family="Helvetica,sans-Serif" font-size="10.00">::inverse</text>
</a>
</g>
</g>
<!-- Node1&#45;&gt;Node2 -->
<g id="edge1_Node000001_Node000002" class="edge">
<title>Node1&#45;&gt;Node2</title>
<g id="a_edge1_Node000001_Node000002"><a xlink:title=" ">
<path fill="none" stroke="#63b8ff" d="M161.85,-49.89C153.31,-51.1 144.66,-52.32 136.26,-53.5"/>
<polygon fill="#63b8ff" stroke="#63b8ff" points="162.4,-53.35 171.81,-48.49 161.42,-46.42 162.4,-53.35"/>
</a>
</g>
</g>
<!-- Node3 -->
<g id="Node000003" class="node">
<title>Node3</title>
<g id="a_Node000003"><a xlink:href="../../d0/dbc/classqugar_1_1impl_1_1AffineTransf.html#abaa1fe2ec018f67e528f8709a628a631" target="_top" xlink:title="Concatenates two affine transformation to generate a new one.">
<polygon fill="white" stroke="#666666" points="136,-30 0,-30 0,0 136,0 136,-30"/>
<text text-anchor="start" x="8" y="-18" font-family="Helvetica,sans-Serif" font-size="10.00">qugar::impl::AffineTransf</text>
<text text-anchor="middle" x="68" y="-7" font-family="Helvetica,sans-Serif" font-size="10.00">::operator*</text>
</a>
</g>
</g>
<!-- Node1&#45;&gt;Node3 -->
<g id="edge2_Node000001_Node000003" class="edge">
<title>Node1&#45;&gt;Node3</title>
<g id="a_edge2_Node000001_Node000003"><a xlink:title=" ">
<path fill="none" stroke="#63b8ff" d="M161.85,-28.11C153.31,-26.9 144.66,-25.68 136.26,-24.5"/>
<polygon fill="#63b8ff" stroke="#63b8ff" points="161.42,-31.58 171.81,-29.51 162.4,-24.65 161.42,-31.58"/>
</a>
</g>
</g>
</g>
</svg>
