<?xml version="1.0" encoding="UTF-8" standalone="no"?>
<!DOCTYPE svg PUBLIC "-//W3C//DTD SVG 1.1//EN"
 "http://www.w3.org/Graphics/SVG/1.1/DTD/svg11.dtd">
<!-- Generated by graphviz version 2.43.0 (0)
 -->
<!-- Title: /__w/qugar/qugar/cpp/include/qugar/cart_grid_tp.hpp Pages: 1 -->
<svg width="1051pt" height="280pt"
 viewBox="0.00 0.00 1051.34 280.00" xmlns="http://www.w3.org/2000/svg" xmlns:xlink="http://www.w3.org/1999/xlink">
<g id="graph0" class="graph" transform="scale(1 1) rotate(0) translate(4 276)">
<title>/__w/qugar/qugar/cpp/include/qugar/cart_grid_tp.hpp</title>
<!-- Node1 -->
<g id="Node000001" class="node">
<title>Node1</title>
<g id="a_Node000001"><a xlink:title="Definition of Cartesian grid class.">
<polygon fill="#999999" stroke="#666666" points="681.84,-272 550.84,-272 550.84,-231 681.84,-231 681.84,-272"/>
<text text-anchor="start" x="558.84" y="-260" font-family="Helvetica,sans-Serif" font-size="10.00">/__w/qugar/qugar/cpp</text>
<text text-anchor="start" x="558.84" y="-249" font-family="Helvetica,sans-Serif" font-size="10.00">/include/qugar/cart_grid</text>
<text text-anchor="middle" x="616.34" y="-238" font-family="Helvetica,sans-Serif" font-size="10.00">_tp.hpp</text>
</a>
</g>
</g>
<!-- Node2 -->
<g id="Node000002" class="node">
<title>Node2</title>
<g id="a_Node000002"><a xlink:href="../../d5/d90/bbox_8hpp.html" target="_top" xlink:title="Definition of Cartesian bounding box class.">
<polygon fill="white" stroke="#666666" points="447.34,-189.5 355.34,-189.5 355.34,-170.5 447.34,-170.5 447.34,-189.5"/>
<text text-anchor="middle" x="401.34" y="-177.5" font-family="Helvetica,sans-Serif" font-size="10.00">qugar/bbox.hpp</text>
</a>
</g>
</g>
<!-- Node1&#45;&gt;Node2 -->
<g id="edge1_Node000001_Node000002" class="edge">
<title>Node1&#45;&gt;Node2</title>
<g id="a_edge1_Node000001_Node000002"><a xlink:title=" ">
<path fill="none" stroke="#63b8ff" d="M555.88,-230.96C517.77,-218.64 469.85,-203.15 437.55,-192.71"/>
<polygon fill="#63b8ff" stroke="#63b8ff" points="438.24,-189.25 427.65,-189.5 436.09,-195.91 438.24,-189.25"/>
</a>
</g>
</g>
<!-- Node4 -->
<g id="Node000004" class="node">
<title>Node4</title>
<g id="a_Node000004"><a xlink:href="../../d0/de4/point_8hpp.html" target="_top" xlink:title="Definition and implementation of Point class.">
<polygon fill="white" stroke="#666666" points="522.84,-129 429.84,-129 429.84,-110 522.84,-110 522.84,-129"/>
<text text-anchor="middle" x="476.34" y="-117" font-family="Helvetica,sans-Serif" font-size="10.00">qugar/point.hpp</text>
</a>
</g>
</g>
<!-- Node1&#45;&gt;Node4 -->
<g id="edge14_Node000001_Node000004" class="edge">
<title>Node1&#45;&gt;Node4</title>
<g id="a_edge14_Node000001_Node000004"><a xlink:title=" ">
<path fill="none" stroke="#63b8ff" d="M551.09,-230.88C532.21,-222.45 513.03,-210.81 499.34,-195 485.81,-179.37 480.23,-155.87 477.94,-139.45"/>
<polygon fill="#63b8ff" stroke="#63b8ff" points="481.41,-138.96 476.82,-129.4 474.45,-139.73 481.41,-138.96"/>
</a>
</g>
</g>
<!-- Node5 -->
<g id="Node000005" class="node">
<title>Node5</title>
<g id="a_Node000005"><a xlink:href="../../dd/de3/types_8hpp.html" target="_top" xlink:title="Declaration of types.">
<polygon fill="white" stroke="#666666" points="576.84,-74 481.84,-74 481.84,-55 576.84,-55 576.84,-74"/>
<text text-anchor="middle" x="529.34" y="-62" font-family="Helvetica,sans-Serif" font-size="10.00">qugar/types.hpp</text>
</a>
</g>
</g>
<!-- Node1&#45;&gt;Node5 -->
<g id="edge27_Node000001_Node000005" class="edge">
<title>Node1&#45;&gt;Node5</title>
<g id="a_edge27_Node000001_Node000005"><a xlink:title=" ">
<path fill="none" stroke="#63b8ff" d="M642.26,-230.85C676.23,-202.72 728.08,-149.94 697.34,-110 683.8,-92.4 630.28,-80.33 587.24,-73.25"/>
<polygon fill="#63b8ff" stroke="#63b8ff" points="587.55,-69.75 577.12,-71.64 586.45,-76.66 587.55,-69.75"/>
</a>
</g>
</g>
<!-- Node6 -->
<g id="Node000006" class="node">
<title>Node6</title>
<g id="a_Node000006"><a xlink:title=" ">
<polygon fill="#e0e0e0" stroke="#999999" points="479.84,-19 426.84,-19 426.84,0 479.84,0 479.84,-19"/>
<text text-anchor="middle" x="453.34" y="-7" font-family="Helvetica,sans-Serif" font-size="10.00">cstddef</text>
</a>
</g>
</g>
<!-- Node1&#45;&gt;Node6 -->
<g id="edge29_Node000001_Node000006" class="edge">
<title>Node1&#45;&gt;Node6</title>
<g id="a_edge29_Node000001_Node000006"><a xlink:title=" ">
<path fill="none" stroke="#63b8ff" d="M550.37,-249.98C421.88,-247.98 143.33,-238.6 59.34,-195 24.94,-177.14 15.86,-165.33 2.34,-129 -27.67,-48.33 303.34,-19.92 416.33,-12.6"/>
<polygon fill="#63b8ff" stroke="#63b8ff" points="416.8,-16.08 426.56,-11.96 416.36,-9.1 416.8,-16.08"/>
</a>
</g>
</g>
<!-- Node9 -->
<g id="Node000009" class="node">
<title>Node9</title>
<g id="a_Node000009"><a xlink:title=" ">
<polygon fill="#e0e0e0" stroke="#999999" points="400.84,-74 353.84,-74 353.84,-55 400.84,-55 400.84,-74"/>
<text text-anchor="middle" x="377.34" y="-62" font-family="Helvetica,sans-Serif" font-size="10.00">vector</text>
</a>
</g>
</g>
<!-- Node1&#45;&gt;Node9 -->
<g id="edge32_Node000001_Node000009" class="edge">
<title>Node1&#45;&gt;Node9</title>
<g id="a_edge32_Node000001_Node000009"><a xlink:title=" ">
<path fill="none" stroke="#63b8ff" d="M550.73,-247.46C408.31,-239.33 78.18,-211.79 10.34,-129 -32.96,-76.16 245.25,-67.29 343.72,-65.8"/>
<polygon fill="#63b8ff" stroke="#63b8ff" points="343.79,-69.3 353.75,-65.66 343.7,-62.3 343.79,-69.3"/>
</a>
</g>
</g>
<!-- Node11 -->
<g id="Node000011" class="node">
<title>Node11</title>
<g id="a_Node000011"><a xlink:title=" ">
<polygon fill="#e0e0e0" stroke="#999999" points="688.34,-129 646.34,-129 646.34,-110 688.34,-110 688.34,-129"/>
<text text-anchor="middle" x="667.34" y="-117" font-family="Helvetica,sans-Serif" font-size="10.00">array</text>
</a>
</g>
</g>
<!-- Node1&#45;&gt;Node11 -->
<g id="edge28_Node000001_Node000011" class="edge">
<title>Node1&#45;&gt;Node11</title>
<g id="a_edge28_Node000001_Node000011"><a xlink:title=" ">
<path fill="none" stroke="#63b8ff" d="M624.09,-230.76C633.94,-205.64 650.82,-162.61 660.32,-138.4"/>
<polygon fill="#63b8ff" stroke="#63b8ff" points="663.61,-139.6 664,-129.01 657.09,-137.04 663.61,-139.6"/>
</a>
</g>
</g>
<!-- Node12 -->
<g id="Node000012" class="node">
<title>Node12</title>
<g id="a_Node000012"><a xlink:href="../../d9/d43/tensor__index__tp_8hpp.html" target="_top" xlink:title="Declaration of tensor&#45;product index and size related classes.">
<polygon fill="white" stroke="#666666" points="854.34,-195 744.34,-195 744.34,-165 854.34,-165 854.34,-195"/>
<text text-anchor="start" x="752.34" y="-183" font-family="Helvetica,sans-Serif" font-size="10.00">qugar/tensor_index</text>
<text text-anchor="middle" x="799.34" y="-172" font-family="Helvetica,sans-Serif" font-size="10.00">_tp.hpp</text>
</a>
</g>
</g>
<!-- Node1&#45;&gt;Node12 -->
<g id="edge15_Node000001_Node000012" class="edge">
<title>Node1&#45;&gt;Node12</title>
<g id="a_edge15_Node000001_Node000012"><a xlink:title=" ">
<path fill="none" stroke="#63b8ff" d="M667.8,-230.96C694.52,-220.81 726.91,-208.51 752.86,-198.65"/>
<polygon fill="#63b8ff" stroke="#63b8ff" points="754.36,-201.83 762.47,-195 751.88,-195.28 754.36,-201.83"/>
</a>
</g>
</g>
<!-- Node16 -->
<g id="Node000016" class="node">
<title>Node16</title>
<g id="a_Node000016"><a xlink:href="../../d0/d55/tolerance_8hpp.html" target="_top" xlink:title="Definition of tolerance related functionalities.">
<polygon fill="white" stroke="#666666" points="622.34,-189.5 508.34,-189.5 508.34,-170.5 622.34,-170.5 622.34,-189.5"/>
<text text-anchor="middle" x="565.34" y="-177.5" font-family="Helvetica,sans-Serif" font-size="10.00">qugar/tolerance.hpp</text>
</a>
</g>
</g>
<!-- Node1&#45;&gt;Node16 -->
<g id="edge22_Node000001_Node000016" class="edge">
<title>Node1&#45;&gt;Node16</title>
<g id="a_edge22_Node000001_Node000016"><a xlink:title=" ">
<path fill="none" stroke="#63b8ff" d="M601.86,-230.77C594.29,-220.45 585.1,-207.93 577.84,-198.04"/>
<polygon fill="#63b8ff" stroke="#63b8ff" points="580.55,-195.81 571.81,-189.82 574.91,-199.95 580.55,-195.81"/>
</a>
</g>
</g>
<!-- Node18 -->
<g id="Node000018" class="node">
<title>Node18</title>
<g id="a_Node000018"><a xlink:title=" ">
<polygon fill="#e0e0e0" stroke="#999999" points="930.34,-189.5 872.34,-189.5 872.34,-170.5 930.34,-170.5 930.34,-189.5"/>
<text text-anchor="middle" x="901.34" y="-177.5" font-family="Helvetica,sans-Serif" font-size="10.00">memory</text>
</a>
</g>
</g>
<!-- Node1&#45;&gt;Node18 -->
<g id="edge30_Node000001_Node000018" class="edge">
<title>Node1&#45;&gt;Node18</title>
<g id="a_edge30_Node000001_Node000018"><a xlink:title=" ">
<path fill="none" stroke="#63b8ff" d="M681.95,-238.21C732.08,-228.24 802.64,-212.92 863.34,-195 865.48,-194.37 867.67,-193.68 869.87,-192.96"/>
<polygon fill="#63b8ff" stroke="#63b8ff" points="871.11,-196.23 879.4,-189.64 868.81,-189.62 871.11,-196.23"/>
</a>
</g>
</g>
<!-- Node19 -->
<g id="Node000019" class="node">
<title>Node19</title>
<g id="a_Node000019"><a xlink:title=" ">
<polygon fill="#e0e0e0" stroke="#999999" points="1004.34,-189.5 948.34,-189.5 948.34,-170.5 1004.34,-170.5 1004.34,-189.5"/>
<text text-anchor="middle" x="976.34" y="-177.5" font-family="Helvetica,sans-Serif" font-size="10.00">optional</text>
</a>
</g>
</g>
<!-- Node1&#45;&gt;Node19 -->
<g id="edge31_Node000001_Node000019" class="edge">
<title>Node1&#45;&gt;Node19</title>
<g id="a_edge31_Node000001_Node000019"><a xlink:title=" ">
<path fill="none" stroke="#63b8ff" d="M682.1,-242.95C747.94,-234.53 851.78,-218.85 939.34,-195 941.63,-194.38 943.98,-193.66 946.33,-192.9"/>
<polygon fill="#63b8ff" stroke="#63b8ff" points="947.56,-196.18 955.83,-189.56 945.23,-189.58 947.56,-196.18"/>
</a>
</g>
</g>
<!-- Node3 -->
<g id="Node000003" class="node">
<title>Node3</title>
<g id="a_Node000003"><a xlink:href="../../d7/dd8/concepts_8hpp.html" target="_top" xlink:title="Declaration of concepts.">
<polygon fill="white" stroke="#666666" points="297.34,-129 185.34,-129 185.34,-110 297.34,-110 297.34,-129"/>
<text text-anchor="middle" x="241.34" y="-117" font-family="Helvetica,sans-Serif" font-size="10.00">qugar/concepts.hpp</text>
</a>
</g>
</g>
<!-- Node2&#45;&gt;Node3 -->
<g id="edge2_Node000002_Node000003" class="edge">
<title>Node2&#45;&gt;Node3</title>
<g id="a_edge2_Node000002_Node000003"><a xlink:title=" ">
<path fill="none" stroke="#63b8ff" d="M378.08,-170.49C350.7,-160.49 305.07,-143.8 274.13,-132.49"/>
<polygon fill="#63b8ff" stroke="#63b8ff" points="275.23,-129.16 264.63,-129.02 272.82,-135.74 275.23,-129.16"/>
</a>
</g>
</g>
<!-- Node2&#45;&gt;Node4 -->
<g id="edge3_Node000002_Node000004" class="edge">
<title>Node2&#45;&gt;Node4</title>
<g id="a_edge3_Node000002_Node000004"><a xlink:title=" ">
<path fill="none" stroke="#63b8ff" d="M412.41,-170.37C424.15,-161.21 442.93,-146.56 457.1,-135.51"/>
<polygon fill="#63b8ff" stroke="#63b8ff" points="459.5,-138.08 465.23,-129.17 455.19,-132.56 459.5,-138.08"/>
</a>
</g>
</g>
<!-- Node2&#45;&gt;Node5 -->
<g id="edge10_Node000002_Node000005" class="edge">
<title>Node2&#45;&gt;Node5</title>
<g id="a_edge10_Node000002_Node000005"><a xlink:title=" ">
<path fill="none" stroke="#63b8ff" d="M401.54,-170.22C402.31,-155.87 405.85,-127.27 421.34,-110 435.59,-94.11 456.37,-83.77 475.91,-77.09"/>
<polygon fill="#63b8ff" stroke="#63b8ff" points="477.18,-80.36 485.66,-74.02 475.07,-73.69 477.18,-80.36"/>
</a>
</g>
</g>
<!-- Node2&#45;&gt;Node6 -->
<g id="edge13_Node000002_Node000006" class="edge">
<title>Node2&#45;&gt;Node6</title>
<g id="a_edge13_Node000002_Node000006"><a xlink:title=" ">
<path fill="none" stroke="#63b8ff" d="M391.7,-170.38C369.51,-149.47 318.66,-94.85 345.34,-55 361.14,-31.41 391.96,-20.31 416.64,-15.1"/>
<polygon fill="#63b8ff" stroke="#63b8ff" points="417.6,-18.48 426.79,-13.21 416.31,-11.6 417.6,-18.48"/>
</a>
</g>
</g>
<!-- Node10 -->
<g id="Node000010" class="node">
<title>Node10</title>
<g id="a_Node000010"><a xlink:title=" ">
<polygon fill="#e0e0e0" stroke="#999999" points="167.34,-129 19.34,-129 19.34,-110 167.34,-110 167.34,-129"/>
<text text-anchor="middle" x="93.34" y="-117" font-family="Helvetica,sans-Serif" font-size="10.00">algoim/hyperrectangle.hpp</text>
</a>
</g>
</g>
<!-- Node2&#45;&gt;Node10 -->
<g id="edge11_Node000002_Node000010" class="edge">
<title>Node2&#45;&gt;Node10</title>
<g id="a_edge11_Node000002_Node000010"><a xlink:title=" ">
<path fill="none" stroke="#63b8ff" d="M356.56,-170.49C301.35,-160.01 207.58,-142.2 148.14,-130.91"/>
<polygon fill="#63b8ff" stroke="#63b8ff" points="148.66,-127.44 138.18,-129.02 147.35,-134.32 148.66,-127.44"/>
</a>
</g>
</g>
<!-- Node2&#45;&gt;Node11 -->
<g id="edge12_Node000002_Node000011" class="edge">
<title>Node2&#45;&gt;Node11</title>
<g id="a_edge12_Node000002_Node000011"><a xlink:title=" ">
<path fill="none" stroke="#63b8ff" d="M440.02,-170.49C493.05,-158.83 587.28,-138.11 636.09,-127.37"/>
<polygon fill="#63b8ff" stroke="#63b8ff" points="637.06,-130.74 646.07,-125.18 635.55,-123.91 637.06,-130.74"/>
</a>
</g>
</g>
<!-- Node4&#45;&gt;Node5 -->
<g id="edge4_Node000004_Node000005" class="edge">
<title>Node4&#45;&gt;Node5</title>
<g id="a_edge4_Node000004_Node000005"><a xlink:title=" ">
<path fill="none" stroke="#63b8ff" d="M485.09,-109.75C492.81,-102.03 504.25,-90.6 513.56,-81.28"/>
<polygon fill="#63b8ff" stroke="#63b8ff" points="516.16,-83.64 520.75,-74.09 511.21,-78.69 516.16,-83.64"/>
</a>
</g>
</g>
<!-- Node4&#45;&gt;Node6 -->
<g id="edge8_Node000004_Node000006" class="edge">
<title>Node4&#45;&gt;Node6</title>
<g id="a_edge8_Node000004_Node000006"><a xlink:title=" ">
<path fill="none" stroke="#63b8ff" d="M474.46,-109.66C470.72,-92.09 462.27,-52.45 457.27,-28.95"/>
<polygon fill="#63b8ff" stroke="#63b8ff" points="460.69,-28.21 455.19,-19.16 453.85,-29.67 460.69,-28.21"/>
</a>
</g>
</g>
<!-- Node7 -->
<g id="Node000007" class="node">
<title>Node7</title>
<g id="a_Node000007"><a xlink:href="../../da/d16/vector_8hpp.html" target="_top" xlink:title=" ">
<polygon fill="white" stroke="#666666" points="946.34,-74 848.34,-74 848.34,-55 946.34,-55 946.34,-74"/>
<text text-anchor="middle" x="897.34" y="-62" font-family="Helvetica,sans-Serif" font-size="10.00">qugar/vector.hpp</text>
</a>
</g>
</g>
<!-- Node4&#45;&gt;Node7 -->
<g id="edge6_Node000004_Node000007" class="edge">
<title>Node4&#45;&gt;Node7</title>
<g id="a_edge6_Node000004_Node000007"><a xlink:title=" ">
<path fill="none" stroke="#63b8ff" d="M523.08,-111.3C526.21,-110.85 529.32,-110.41 532.34,-110 639.95,-95.28 765.74,-80.47 838.01,-72.19"/>
<polygon fill="#63b8ff" stroke="#63b8ff" points="838.74,-75.63 848.28,-71.02 837.95,-68.68 838.74,-75.63"/>
</a>
</g>
</g>
<!-- Node4&#45;&gt;Node9 -->
<g id="edge9_Node000004_Node000009" class="edge">
<title>Node4&#45;&gt;Node9</title>
<g id="a_edge9_Node000004_Node000009"><a xlink:title=" ">
<path fill="none" stroke="#63b8ff" d="M460.44,-109.98C444.8,-101.61 420.69,-88.7 402.46,-78.95"/>
<polygon fill="#63b8ff" stroke="#63b8ff" points="404,-75.8 393.54,-74.17 400.7,-81.98 404,-75.8"/>
</a>
</g>
</g>
<!-- Node5&#45;&gt;Node6 -->
<g id="edge5_Node000005_Node000006" class="edge">
<title>Node5&#45;&gt;Node6</title>
<g id="a_edge5_Node000005_Node000006"><a xlink:title=" ">
<path fill="none" stroke="#63b8ff" d="M517.13,-54.98C505.57,-46.92 487.97,-34.65 474.18,-25.03"/>
<polygon fill="#63b8ff" stroke="#63b8ff" points="475.98,-22.02 465.77,-19.17 471.97,-27.76 475.98,-22.02"/>
</a>
</g>
</g>
<!-- Node8 -->
<g id="Node000008" class="node">
<title>Node8</title>
<g id="a_Node000008"><a xlink:title=" ">
<polygon fill="#e0e0e0" stroke="#999999" points="952.34,-19 842.34,-19 842.34,0 952.34,0 952.34,-19"/>
<text text-anchor="middle" x="897.34" y="-7" font-family="Helvetica,sans-Serif" font-size="10.00">algoim/uvector.hpp</text>
</a>
</g>
</g>
<!-- Node7&#45;&gt;Node8 -->
<g id="edge7_Node000007_Node000008" class="edge">
<title>Node7&#45;&gt;Node8</title>
<g id="a_edge7_Node000007_Node000008"><a xlink:title=" ">
<path fill="none" stroke="#63b8ff" d="M897.34,-54.75C897.34,-47.8 897.34,-37.85 897.34,-29.13"/>
<polygon fill="#63b8ff" stroke="#63b8ff" points="900.84,-29.09 897.34,-19.09 893.84,-29.09 900.84,-29.09"/>
</a>
</g>
</g>
<!-- Node12&#45;&gt;Node6 -->
<g id="edge19_Node000012_Node000006" class="edge">
<title>Node12&#45;&gt;Node6</title>
<g id="a_edge19_Node000012_Node000006"><a xlink:title=" ">
<path fill="none" stroke="#63b8ff" d="M784.85,-164.89C768.83,-149.86 741.8,-126.05 715.34,-110 640.85,-64.81 542.39,-34.16 489.93,-19.81"/>
<polygon fill="#63b8ff" stroke="#63b8ff" points="490.64,-16.38 480.07,-17.16 488.82,-23.14 490.64,-16.38"/>
</a>
</g>
</g>
<!-- Node12&#45;&gt;Node7 -->
<g id="edge16_Node000012_Node000007" class="edge">
<title>Node12&#45;&gt;Node7</title>
<g id="a_edge16_Node000012_Node000007"><a xlink:title=" ">
<path fill="none" stroke="#63b8ff" d="M854.62,-166.95C890.87,-157.8 933.48,-144.23 944.34,-129 956.52,-111.92 937.36,-92.58 919.97,-79.78"/>
<polygon fill="#63b8ff" stroke="#63b8ff" points="921.93,-76.88 911.72,-74.06 917.94,-82.63 921.93,-76.88"/>
</a>
</g>
</g>
<!-- Node12&#45;&gt;Node11 -->
<g id="edge17_Node000012_Node000011" class="edge">
<title>Node12&#45;&gt;Node11</title>
<g id="a_edge17_Node000012_Node000011"><a xlink:title=" ">
<path fill="none" stroke="#63b8ff" d="M767.72,-164.99C746,-155.36 717.37,-142.67 696.25,-133.31"/>
<polygon fill="#63b8ff" stroke="#63b8ff" points="697.4,-129.99 686.84,-129.14 694.56,-136.39 697.4,-129.99"/>
</a>
</g>
</g>
<!-- Node13 -->
<g id="Node000013" class="node">
<title>Node13</title>
<g id="a_Node000013"><a xlink:title=" ">
<polygon fill="#e0e0e0" stroke="#999999" points="1043.34,-129 991.34,-129 991.34,-110 1043.34,-110 1043.34,-129"/>
<text text-anchor="middle" x="1017.34" y="-117" font-family="Helvetica,sans-Serif" font-size="10.00">cassert</text>
</a>
</g>
</g>
<!-- Node12&#45;&gt;Node13 -->
<g id="edge18_Node000012_Node000013" class="edge">
<title>Node12&#45;&gt;Node13</title>
<g id="a_edge18_Node000012_Node000013"><a xlink:title=" ">
<path fill="none" stroke="#63b8ff" d="M851.56,-164.99C891.68,-154.22 946.05,-139.63 981.41,-130.14"/>
<polygon fill="#63b8ff" stroke="#63b8ff" points="982.54,-133.46 991.29,-127.49 980.73,-126.7 982.54,-133.46"/>
</a>
</g>
</g>
<!-- Node14 -->
<g id="Node000014" class="node">
<title>Node14</title>
<g id="a_Node000014"><a xlink:title=" ">
<polygon fill="#e0e0e0" stroke="#999999" points="847.84,-129 782.84,-129 782.84,-110 847.84,-110 847.84,-129"/>
<text text-anchor="middle" x="815.34" y="-117" font-family="Helvetica,sans-Serif" font-size="10.00">functional</text>
</a>
</g>
</g>
<!-- Node12&#45;&gt;Node14 -->
<g id="edge20_Node000012_Node000014" class="edge">
<title>Node12&#45;&gt;Node14</title>
<g id="a_edge20_Node000012_Node000014"><a xlink:title=" ">
<path fill="none" stroke="#63b8ff" d="M803.21,-164.84C805.32,-157.13 807.96,-147.49 810.24,-139.17"/>
<polygon fill="#63b8ff" stroke="#63b8ff" points="813.68,-139.84 812.94,-129.27 806.93,-137.99 813.68,-139.84"/>
</a>
</g>
</g>
<!-- Node15 -->
<g id="Node000015" class="node">
<title>Node15</title>
<g id="a_Node000015"><a xlink:title=" ">
<polygon fill="#e0e0e0" stroke="#999999" points="934.84,-129 865.84,-129 865.84,-110 934.84,-110 934.84,-129"/>
<text text-anchor="middle" x="900.34" y="-117" font-family="Helvetica,sans-Serif" font-size="10.00">type_traits</text>
</a>
</g>
</g>
<!-- Node12&#45;&gt;Node15 -->
<g id="edge21_Node000012_Node000015" class="edge">
<title>Node12&#45;&gt;Node15</title>
<g id="a_edge21_Node000012_Node000015"><a xlink:title=" ">
<path fill="none" stroke="#63b8ff" d="M823.53,-164.99C839.63,-155.66 860.68,-143.47 876.67,-134.21"/>
<polygon fill="#63b8ff" stroke="#63b8ff" points="878.53,-137.18 885.43,-129.14 875.02,-131.12 878.53,-137.18"/>
</a>
</g>
</g>
<!-- Node16&#45;&gt;Node4 -->
<g id="edge23_Node000016_Node000004" class="edge">
<title>Node16&#45;&gt;Node4</title>
<g id="a_edge23_Node000016_Node000004"><a xlink:title=" ">
<path fill="none" stroke="#63b8ff" d="M552.21,-170.37C538.01,-161.04 515.15,-146.01 498.22,-134.88"/>
<polygon fill="#63b8ff" stroke="#63b8ff" points="499.81,-131.74 489.53,-129.17 495.96,-137.58 499.81,-131.74"/>
</a>
</g>
</g>
<!-- Node16&#45;&gt;Node5 -->
<g id="edge24_Node000016_Node000005" class="edge">
<title>Node16&#45;&gt;Node5</title>
<g id="a_edge24_Node000016_Node000005"><a xlink:title=" ">
<path fill="none" stroke="#63b8ff" d="M575.15,-170.38C588.92,-157.19 611.04,-131.3 599.34,-110 591.57,-95.85 577.18,-85.56 563.45,-78.46"/>
<polygon fill="#63b8ff" stroke="#63b8ff" points="564.69,-75.17 554.15,-74.05 561.69,-81.49 564.69,-75.17"/>
</a>
</g>
</g>
<!-- Node16&#45;&gt;Node9 -->
<g id="edge26_Node000016_Node000009" class="edge">
<title>Node16&#45;&gt;Node9</title>
<g id="a_edge26_Node000016_Node000009"><a xlink:title=" ">
<path fill="none" stroke="#63b8ff" d="M517.98,-170.45C488,-163.24 449.69,-150.53 421.34,-129 405.53,-116.99 393.29,-97.63 385.78,-83.44"/>
<polygon fill="#63b8ff" stroke="#63b8ff" points="388.76,-81.58 381.16,-74.2 382.5,-84.71 388.76,-81.58"/>
</a>
</g>
</g>
<!-- Node17 -->
<g id="Node000017" class="node">
<title>Node17</title>
<g id="a_Node000017"><a xlink:title=" ">
<polygon fill="#e0e0e0" stroke="#999999" points="589.84,-129 540.84,-129 540.84,-110 589.84,-110 589.84,-129"/>
<text text-anchor="middle" x="565.34" y="-117" font-family="Helvetica,sans-Serif" font-size="10.00">cstdlib</text>
</a>
</g>
</g>
<!-- Node16&#45;&gt;Node17 -->
<g id="edge25_Node000016_Node000017" class="edge">
<title>Node16&#45;&gt;Node17</title>
<g id="a_edge25_Node000016_Node000017"><a xlink:title=" ">
<path fill="none" stroke="#63b8ff" d="M565.34,-170.37C565.34,-162.25 565.34,-149.81 565.34,-139.39"/>
<polygon fill="#63b8ff" stroke="#63b8ff" points="568.84,-139.17 565.34,-129.17 561.84,-139.17 568.84,-139.17"/>
</a>
</g>
</g>
</g>
</svg>
