<?xml version="1.0" encoding="UTF-8" standalone="no"?>
<!DOCTYPE svg PUBLIC "-//W3C//DTD SVG 1.1//EN"
 "http://www.w3.org/Graphics/SVG/1.1/DTD/svg11.dtd">
<!-- Generated by graphviz version 2.43.0 (0)
 -->
<!-- Title: /__w/qugar/qugar/cpp/include/qugar/cart_grid_tp.hpp Pages: 1 -->
<svg width="1190pt" height="280pt"
 viewBox="0.00 0.00 1190.32 280.00" xmlns="http://www.w3.org/2000/svg" xmlns:xlink="http://www.w3.org/1999/xlink">
<g id="graph0" class="graph" transform="scale(1 1) rotate(0) translate(4 276)">
<title>/__w/qugar/qugar/cpp/include/qugar/cart_grid_tp.hpp</title>
<!-- Node1 -->
<g id="Node000001" class="node">
<title>Node1</title>
<g id="a_Node000001"><a xlink:title="Definition of Cartesian grid class.">
<polygon fill="#999999" stroke="#666666" points="741.82,-272 610.82,-272 610.82,-231 741.82,-231 741.82,-272"/>
<text text-anchor="start" x="618.82" y="-260" font-family="Helvetica,sans-Serif" font-size="10.00">/__w/qugar/qugar/cpp</text>
<text text-anchor="start" x="618.82" y="-249" font-family="Helvetica,sans-Serif" font-size="10.00">/include/qugar/cart_grid</text>
<text text-anchor="middle" x="676.32" y="-238" font-family="Helvetica,sans-Serif" font-size="10.00">_tp.hpp</text>
</a>
</g>
</g>
<!-- Node2 -->
<g id="Node000002" class="node">
<title>Node2</title>
<g id="a_Node000002"><a xlink:href="../../d5/d90/bbox_8hpp.html" target="_top" xlink:title="Definition of Cartesian bounding box class.">
<polygon fill="white" stroke="#666666" points="551.32,-189.5 459.32,-189.5 459.32,-170.5 551.32,-170.5 551.32,-189.5"/>
<text text-anchor="middle" x="505.32" y="-177.5" font-family="Helvetica,sans-Serif" font-size="10.00">qugar/bbox.hpp</text>
</a>
</g>
</g>
<!-- Node1&#45;&gt;Node2 -->
<g id="edge1_Node000001_Node000002" class="edge">
<title>Node1&#45;&gt;Node2</title>
<g id="a_edge1_Node000001_Node000002"><a xlink:title=" ">
<path fill="none" stroke="#63b8ff" d="M628.24,-230.96C598.59,-218.9 561.46,-203.81 535.81,-193.39"/>
<polygon fill="#63b8ff" stroke="#63b8ff" points="536.83,-190.03 526.25,-189.5 534.19,-196.51 536.83,-190.03"/>
</a>
</g>
</g>
<!-- Node4 -->
<g id="Node000004" class="node">
<title>Node4</title>
<g id="a_Node000004"><a xlink:href="../../d0/de4/point_8hpp.html" target="_top" xlink:title="Definition and implementation of Point class.">
<polygon fill="white" stroke="#666666" points="264.82,-129 171.82,-129 171.82,-110 264.82,-110 264.82,-129"/>
<text text-anchor="middle" x="218.32" y="-117" font-family="Helvetica,sans-Serif" font-size="10.00">qugar/point.hpp</text>
</a>
</g>
</g>
<!-- Node1&#45;&gt;Node4 -->
<g id="edge14_Node000001_Node000004" class="edge">
<title>Node1&#45;&gt;Node4</title>
<g id="a_edge14_Node000001_Node000004"><a xlink:title=" ">
<path fill="none" stroke="#63b8ff" d="M610.73,-235.67C565.45,-225.12 503.97,-210.18 450.32,-195 379.37,-174.92 297.48,-147.64 252.44,-132.28"/>
<polygon fill="#63b8ff" stroke="#63b8ff" points="253.47,-128.93 242.87,-129.01 251.2,-135.56 253.47,-128.93"/>
</a>
</g>
</g>
<!-- Node5 -->
<g id="Node000005" class="node">
<title>Node5</title>
<g id="a_Node000005"><a xlink:href="../../dd/de3/types_8hpp.html" target="_top" xlink:title="Declaration of types.">
<polygon fill="white" stroke="#666666" points="190.82,-74 95.82,-74 95.82,-55 190.82,-55 190.82,-74"/>
<text text-anchor="middle" x="143.32" y="-62" font-family="Helvetica,sans-Serif" font-size="10.00">qugar/types.hpp</text>
</a>
</g>
</g>
<!-- Node1&#45;&gt;Node5 -->
<g id="edge29_Node000001_Node000005" class="edge">
<title>Node1&#45;&gt;Node5</title>
<g id="a_edge29_Node000001_Node000005"><a xlink:title=" ">
<path fill="none" stroke="#63b8ff" d="M610.76,-248.54C457.45,-243.43 85.03,-227.76 39.32,-195 6.88,-171.75 -13,-142.39 10.32,-110 27.56,-86.07 58.25,-74.82 85.82,-69.61"/>
<polygon fill="#63b8ff" stroke="#63b8ff" points="86.51,-73.04 95.8,-67.95 85.37,-66.14 86.51,-73.04"/>
</a>
</g>
</g>
<!-- Node6 -->
<g id="Node000006" class="node">
<title>Node6</title>
<g id="a_Node000006"><a xlink:title=" ">
<polygon fill="#e0e0e0" stroke="#999999" points="653.82,-19 600.82,-19 600.82,0 653.82,0 653.82,-19"/>
<text text-anchor="middle" x="627.32" y="-7" font-family="Helvetica,sans-Serif" font-size="10.00">cstddef</text>
</a>
</g>
</g>
<!-- Node1&#45;&gt;Node6 -->
<g id="edge31_Node000001_Node000006" class="edge">
<title>Node1&#45;&gt;Node6</title>
<g id="a_edge31_Node000001_Node000006"><a xlink:title=" ">
<path fill="none" stroke="#63b8ff" d="M687.05,-230.99C700.73,-203.47 720.94,-151.92 706.32,-110 694.25,-75.38 664.54,-43.76 645.19,-25.85"/>
<polygon fill="#63b8ff" stroke="#63b8ff" points="647.4,-23.12 637.62,-19.04 642.72,-28.33 647.4,-23.12"/>
</a>
</g>
</g>
<!-- Node9 -->
<g id="Node000009" class="node">
<title>Node9</title>
<g id="a_Node000009"><a xlink:title=" ">
<polygon fill="#e0e0e0" stroke="#999999" points="294.82,-74 247.82,-74 247.82,-55 294.82,-55 294.82,-74"/>
<text text-anchor="middle" x="271.32" y="-62" font-family="Helvetica,sans-Serif" font-size="10.00">vector</text>
</a>
</g>
</g>
<!-- Node1&#45;&gt;Node9 -->
<g id="edge35_Node000001_Node000009" class="edge">
<title>Node1&#45;&gt;Node9</title>
<g id="a_edge35_Node000001_Node000009"><a xlink:title=" ">
<path fill="none" stroke="#63b8ff" d="M667.72,-230.99C652.82,-199.72 619.05,-138.95 570.32,-110 526,-83.66 373.57,-71.54 305.1,-67.33"/>
<polygon fill="#63b8ff" stroke="#63b8ff" points="305.05,-63.82 294.86,-66.72 304.64,-70.81 305.05,-63.82"/>
</a>
</g>
</g>
<!-- Node11 -->
<g id="Node000011" class="node">
<title>Node11</title>
<g id="a_Node000011"><a xlink:title=" ">
<polygon fill="#e0e0e0" stroke="#999999" points="697.32,-129 655.32,-129 655.32,-110 697.32,-110 697.32,-129"/>
<text text-anchor="middle" x="676.32" y="-117" font-family="Helvetica,sans-Serif" font-size="10.00">array</text>
</a>
</g>
</g>
<!-- Node1&#45;&gt;Node11 -->
<g id="edge30_Node000001_Node000011" class="edge">
<title>Node1&#45;&gt;Node11</title>
<g id="a_edge30_Node000001_Node000011"><a xlink:title=" ">
<path fill="none" stroke="#63b8ff" d="M676.32,-230.76C676.32,-205.86 676.32,-163.38 676.32,-139.06"/>
<polygon fill="#63b8ff" stroke="#63b8ff" points="679.82,-139.01 676.32,-129.01 672.82,-139.01 679.82,-139.01"/>
</a>
</g>
</g>
<!-- Node12 -->
<g id="Node000012" class="node">
<title>Node12</title>
<g id="a_Node000012"><a xlink:href="../../d9/d43/tensor__index__tp_8hpp.html" target="_top" xlink:title="Declaration of tensor&#45;product index and size related classes.">
<polygon fill="white" stroke="#666666" points="879.32,-195 769.32,-195 769.32,-165 879.32,-165 879.32,-195"/>
<text text-anchor="start" x="777.32" y="-183" font-family="Helvetica,sans-Serif" font-size="10.00">qugar/tensor_index</text>
<text text-anchor="middle" x="824.32" y="-172" font-family="Helvetica,sans-Serif" font-size="10.00">_tp.hpp</text>
</a>
</g>
</g>
<!-- Node1&#45;&gt;Node12 -->
<g id="edge15_Node000001_Node000012" class="edge">
<title>Node1&#45;&gt;Node12</title>
<g id="a_edge15_Node000001_Node000012"><a xlink:title=" ">
<path fill="none" stroke="#63b8ff" d="M717.94,-230.96C739,-221.07 764.41,-209.13 785.12,-199.41"/>
<polygon fill="#63b8ff" stroke="#63b8ff" points="786.71,-202.53 794.27,-195.11 783.73,-196.2 786.71,-202.53"/>
</a>
</g>
</g>
<!-- Node15 -->
<g id="Node000015" class="node">
<title>Node15</title>
<g id="a_Node000015"><a xlink:title=" ">
<polygon fill="#e0e0e0" stroke="#999999" points="1182.32,-129 1132.32,-129 1132.32,-110 1182.32,-110 1182.32,-129"/>
<text text-anchor="middle" x="1157.32" y="-117" font-family="Helvetica,sans-Serif" font-size="10.00">cstdint</text>
</a>
</g>
</g>
<!-- Node1&#45;&gt;Node15 -->
<g id="edge32_Node000001_Node000015" class="edge">
<title>Node1&#45;&gt;Node15</title>
<g id="a_edge32_Node000001_Node000015"><a xlink:title=" ">
<path fill="none" stroke="#63b8ff" d="M741.87,-240.56C785.07,-232.29 842.01,-218.07 888.32,-195 907.58,-185.41 906.72,-173.86 926.32,-165 1004.58,-129.63 1034.23,-146.5 1122.26,-129.04"/>
<polygon fill="#63b8ff" stroke="#63b8ff" points="1123.04,-132.46 1132.12,-126.99 1121.61,-125.6 1123.04,-132.46"/>
</a>
</g>
</g>
<!-- Node18 -->
<g id="Node000018" class="node">
<title>Node18</title>
<g id="a_Node000018"><a xlink:href="../../d0/d55/tolerance_8hpp.html" target="_top" xlink:title="Definition of tolerance related functionalities.">
<polygon fill="white" stroke="#666666" points="162.32,-189.5 48.32,-189.5 48.32,-170.5 162.32,-170.5 162.32,-189.5"/>
<text text-anchor="middle" x="105.32" y="-177.5" font-family="Helvetica,sans-Serif" font-size="10.00">qugar/tolerance.hpp</text>
</a>
</g>
</g>
<!-- Node1&#45;&gt;Node18 -->
<g id="edge24_Node000001_Node000018" class="edge">
<title>Node1&#45;&gt;Node18</title>
<g id="a_edge24_Node000001_Node000018"><a xlink:title=" ">
<path fill="none" stroke="#63b8ff" d="M610.82,-242.53C501.46,-229.22 282.81,-202.6 172.4,-189.16"/>
<polygon fill="#63b8ff" stroke="#63b8ff" points="172.73,-185.68 162.38,-187.95 171.89,-192.63 172.73,-185.68"/>
</a>
</g>
</g>
<!-- Node20 -->
<g id="Node000020" class="node">
<title>Node20</title>
<g id="a_Node000020"><a xlink:title=" ">
<polygon fill="#e0e0e0" stroke="#999999" points="993.32,-189.5 935.32,-189.5 935.32,-170.5 993.32,-170.5 993.32,-189.5"/>
<text text-anchor="middle" x="964.32" y="-177.5" font-family="Helvetica,sans-Serif" font-size="10.00">memory</text>
</a>
</g>
</g>
<!-- Node1&#45;&gt;Node20 -->
<g id="edge33_Node000001_Node000020" class="edge">
<title>Node1&#45;&gt;Node20</title>
<g id="a_edge33_Node000001_Node000020"><a xlink:title=" ">
<path fill="none" stroke="#63b8ff" d="M741.98,-237.34C791.55,-226.99 861.09,-211.59 921.32,-195 924.09,-194.24 926.95,-193.41 929.81,-192.54"/>
<polygon fill="#63b8ff" stroke="#63b8ff" points="930.93,-195.86 939.43,-189.53 928.84,-189.18 930.93,-195.86"/>
</a>
</g>
</g>
<!-- Node21 -->
<g id="Node000021" class="node">
<title>Node21</title>
<g id="a_Node000021"><a xlink:title=" ">
<polygon fill="#e0e0e0" stroke="#999999" points="1067.32,-189.5 1011.32,-189.5 1011.32,-170.5 1067.32,-170.5 1067.32,-189.5"/>
<text text-anchor="middle" x="1039.32" y="-177.5" font-family="Helvetica,sans-Serif" font-size="10.00">optional</text>
</a>
</g>
</g>
<!-- Node1&#45;&gt;Node21 -->
<g id="edge34_Node000001_Node000021" class="edge">
<title>Node1&#45;&gt;Node21</title>
<g id="a_edge34_Node000001_Node000021"><a xlink:title=" ">
<path fill="none" stroke="#63b8ff" d="M742.07,-243.1C808.49,-234.74 913.68,-219.07 1002.32,-195 1004.62,-194.38 1006.97,-193.67 1009.31,-192.9"/>
<polygon fill="#63b8ff" stroke="#63b8ff" points="1010.54,-196.18 1018.81,-189.57 1008.22,-189.58 1010.54,-196.18"/>
</a>
</g>
</g>
<!-- Node3 -->
<g id="Node000003" class="node">
<title>Node3</title>
<g id="a_Node000003"><a xlink:href="../../d7/dd8/concepts_8hpp.html" target="_top" xlink:title="Declaration of concepts.">
<polygon fill="white" stroke="#666666" points="561.32,-129 449.32,-129 449.32,-110 561.32,-110 561.32,-129"/>
<text text-anchor="middle" x="505.32" y="-117" font-family="Helvetica,sans-Serif" font-size="10.00">qugar/concepts.hpp</text>
</a>
</g>
</g>
<!-- Node2&#45;&gt;Node3 -->
<g id="edge2_Node000002_Node000003" class="edge">
<title>Node2&#45;&gt;Node3</title>
<g id="a_edge2_Node000002_Node000003"><a xlink:title=" ">
<path fill="none" stroke="#63b8ff" d="M505.32,-170.37C505.32,-162.25 505.32,-149.81 505.32,-139.39"/>
<polygon fill="#63b8ff" stroke="#63b8ff" points="508.82,-139.17 505.32,-129.17 501.82,-139.17 508.82,-139.17"/>
</a>
</g>
</g>
<!-- Node2&#45;&gt;Node4 -->
<g id="edge3_Node000002_Node000004" class="edge">
<title>Node2&#45;&gt;Node4</title>
<g id="a_edge3_Node000002_Node000004"><a xlink:title=" ">
<path fill="none" stroke="#63b8ff" d="M463.59,-170.49C412.37,-160.05 325.5,-142.35 270.07,-131.05"/>
<polygon fill="#63b8ff" stroke="#63b8ff" points="270.6,-127.58 260.11,-129.02 269.21,-134.44 270.6,-127.58"/>
</a>
</g>
</g>
<!-- Node2&#45;&gt;Node5 -->
<g id="edge10_Node000002_Node000005" class="edge">
<title>Node2&#45;&gt;Node5</title>
<g id="a_edge10_Node000002_Node000005"><a xlink:title=" ">
<path fill="none" stroke="#63b8ff" d="M459.28,-178.25C376.23,-175.96 205.93,-166.66 162.32,-129 149.54,-117.96 145.17,-98.71 143.77,-84.29"/>
<polygon fill="#63b8ff" stroke="#63b8ff" points="147.25,-83.79 143.18,-74.01 140.26,-84.19 147.25,-83.79"/>
</a>
</g>
</g>
<!-- Node2&#45;&gt;Node6 -->
<g id="edge13_Node000002_Node000006" class="edge">
<title>Node2&#45;&gt;Node6</title>
<g id="a_edge13_Node000002_Node000006"><a xlink:title=" ">
<path fill="none" stroke="#63b8ff" d="M520.1,-170.48C534.44,-161.61 556.06,-146.58 570.32,-129 595.65,-97.79 613.1,-53.47 621.53,-28.83"/>
<polygon fill="#63b8ff" stroke="#63b8ff" points="624.96,-29.6 624.76,-19.01 618.31,-27.41 624.96,-29.6"/>
</a>
</g>
</g>
<!-- Node10 -->
<g id="Node000010" class="node">
<title>Node10</title>
<g id="a_Node000010"><a xlink:title=" ">
<polygon fill="#e0e0e0" stroke="#999999" points="431.32,-129 283.32,-129 283.32,-110 431.32,-110 431.32,-129"/>
<text text-anchor="middle" x="357.32" y="-117" font-family="Helvetica,sans-Serif" font-size="10.00">algoim/hyperrectangle.hpp</text>
</a>
</g>
</g>
<!-- Node2&#45;&gt;Node10 -->
<g id="edge11_Node000002_Node000010" class="edge">
<title>Node2&#45;&gt;Node10</title>
<g id="a_edge11_Node000002_Node000010"><a xlink:title=" ">
<path fill="none" stroke="#63b8ff" d="M483.8,-170.49C458.7,-160.57 417.01,-144.09 388.4,-132.78"/>
<polygon fill="#63b8ff" stroke="#63b8ff" points="389.46,-129.44 378.87,-129.02 386.88,-135.95 389.46,-129.44"/>
</a>
</g>
</g>
<!-- Node2&#45;&gt;Node11 -->
<g id="edge12_Node000002_Node000011" class="edge">
<title>Node2&#45;&gt;Node11</title>
<g id="a_edge12_Node000002_Node000011"><a xlink:title=" ">
<path fill="none" stroke="#63b8ff" d="M530.19,-170.49C560.75,-160.04 612.59,-142.3 645.61,-131.01"/>
<polygon fill="#63b8ff" stroke="#63b8ff" points="646.87,-134.27 655.2,-127.73 644.61,-127.65 646.87,-134.27"/>
</a>
</g>
</g>
<!-- Node4&#45;&gt;Node5 -->
<g id="edge4_Node000004_Node000005" class="edge">
<title>Node4&#45;&gt;Node5</title>
<g id="a_edge4_Node000004_Node000005"><a xlink:title=" ">
<path fill="none" stroke="#63b8ff" d="M206.27,-109.98C194.86,-101.92 177.49,-89.65 163.89,-80.03"/>
<polygon fill="#63b8ff" stroke="#63b8ff" points="165.78,-77.08 155.59,-74.17 161.74,-82.8 165.78,-77.08"/>
</a>
</g>
</g>
<!-- Node4&#45;&gt;Node6 -->
<g id="edge8_Node000004_Node000006" class="edge">
<title>Node4&#45;&gt;Node6</title>
<g id="a_edge8_Node000004_Node000006"><a xlink:title=" ">
<path fill="none" stroke="#63b8ff" d="M218.27,-109.92C218.7,-96 221.74,-68.68 238.32,-55 291.43,-11.19 504.02,-8.85 590.48,-9.78"/>
<polygon fill="#63b8ff" stroke="#63b8ff" points="590.57,-13.28 600.62,-9.91 590.66,-6.28 590.57,-13.28"/>
</a>
</g>
</g>
<!-- Node7 -->
<g id="Node000007" class="node">
<title>Node7</title>
<g id="a_Node000007"><a xlink:href="../../da/d16/vector_8hpp.html" target="_top" xlink:title=" ">
<polygon fill="white" stroke="#666666" points="986.32,-74 888.32,-74 888.32,-55 986.32,-55 986.32,-74"/>
<text text-anchor="middle" x="937.32" y="-62" font-family="Helvetica,sans-Serif" font-size="10.00">qugar/vector.hpp</text>
</a>
</g>
</g>
<!-- Node4&#45;&gt;Node7 -->
<g id="edge6_Node000004_Node000007" class="edge">
<title>Node4&#45;&gt;Node7</title>
<g id="a_edge6_Node000004_Node000007"><a xlink:title=" ">
<path fill="none" stroke="#63b8ff" d="M265.04,-111.11C268.18,-110.71 271.29,-110.33 274.32,-110 496.41,-85.74 761.89,-72.72 878.03,-67.81"/>
<polygon fill="#63b8ff" stroke="#63b8ff" points="878.28,-71.31 888.13,-67.39 877.99,-64.31 878.28,-71.31"/>
</a>
</g>
</g>
<!-- Node4&#45;&gt;Node9 -->
<g id="edge9_Node000004_Node000009" class="edge">
<title>Node4&#45;&gt;Node9</title>
<g id="a_edge9_Node000004_Node000009"><a xlink:title=" ">
<path fill="none" stroke="#63b8ff" d="M227.08,-109.75C234.79,-102.03 246.23,-90.6 255.54,-81.28"/>
<polygon fill="#63b8ff" stroke="#63b8ff" points="258.14,-83.64 262.74,-74.09 253.19,-78.69 258.14,-83.64"/>
</a>
</g>
</g>
<!-- Node5&#45;&gt;Node6 -->
<g id="edge5_Node000005_Node000006" class="edge">
<title>Node5&#45;&gt;Node6</title>
<g id="a_edge5_Node000005_Node000006"><a xlink:title=" ">
<path fill="none" stroke="#63b8ff" d="M191.03,-56.81C195.86,-56.18 200.69,-55.56 205.32,-55 347.53,-37.76 517.16,-21.04 590.52,-13.99"/>
<polygon fill="#63b8ff" stroke="#63b8ff" points="591.01,-17.46 600.63,-13.02 590.34,-10.49 591.01,-17.46"/>
</a>
</g>
</g>
<!-- Node8 -->
<g id="Node000008" class="node">
<title>Node8</title>
<g id="a_Node000008"><a xlink:title=" ">
<polygon fill="#e0e0e0" stroke="#999999" points="992.32,-19 882.32,-19 882.32,0 992.32,0 992.32,-19"/>
<text text-anchor="middle" x="937.32" y="-7" font-family="Helvetica,sans-Serif" font-size="10.00">algoim/uvector.hpp</text>
</a>
</g>
</g>
<!-- Node7&#45;&gt;Node8 -->
<g id="edge7_Node000007_Node000008" class="edge">
<title>Node7&#45;&gt;Node8</title>
<g id="a_edge7_Node000007_Node000008"><a xlink:title=" ">
<path fill="none" stroke="#63b8ff" d="M937.32,-54.75C937.32,-47.8 937.32,-37.85 937.32,-29.13"/>
<polygon fill="#63b8ff" stroke="#63b8ff" points="940.82,-29.09 937.32,-19.09 933.82,-29.09 940.82,-29.09"/>
</a>
</g>
</g>
<!-- Node12&#45;&gt;Node6 -->
<g id="edge20_Node000012_Node000006" class="edge">
<title>Node12&#45;&gt;Node6</title>
<g id="a_edge20_Node000012_Node000006"><a xlink:title=" ">
<path fill="none" stroke="#63b8ff" d="M811.52,-164.58C803.11,-154.83 792.09,-141.5 783.32,-129 761.35,-97.67 768.43,-79.83 739.32,-55 717.6,-36.46 687.2,-25.04 663.55,-18.42"/>
<polygon fill="#63b8ff" stroke="#63b8ff" points="664.44,-15.03 653.88,-15.87 662.65,-21.8 664.44,-15.03"/>
</a>
</g>
</g>
<!-- Node12&#45;&gt;Node7 -->
<g id="edge17_Node000012_Node000007" class="edge">
<title>Node12&#45;&gt;Node7</title>
<g id="a_edge17_Node000012_Node000007"><a xlink:title=" ">
<path fill="none" stroke="#63b8ff" d="M879.44,-166.31C934.32,-153.4 1011.04,-134.55 1015.32,-129 1031.65,-107.86 1000.61,-89.31 972.99,-77.8"/>
<polygon fill="#63b8ff" stroke="#63b8ff" points="974.03,-74.45 963.45,-74.04 971.46,-80.96 974.03,-74.45"/>
</a>
</g>
</g>
<!-- Node12&#45;&gt;Node11 -->
<g id="edge18_Node000012_Node000011" class="edge">
<title>Node12&#45;&gt;Node11</title>
<g id="a_edge18_Node000012_Node000011"><a xlink:title=" ">
<path fill="none" stroke="#63b8ff" d="M788.87,-164.99C764.03,-155.17 731.15,-142.17 707.34,-132.76"/>
<polygon fill="#63b8ff" stroke="#63b8ff" points="708.33,-129.39 697.75,-128.97 705.76,-135.9 708.33,-129.39"/>
</a>
</g>
</g>
<!-- Node13 -->
<g id="Node000013" class="node">
<title>Node13</title>
<g id="a_Node000013"><a xlink:title=" ">
<polygon fill="#e0e0e0" stroke="#999999" points="1006.32,-129 962.32,-129 962.32,-110 1006.32,-110 1006.32,-129"/>
<text text-anchor="middle" x="984.32" y="-117" font-family="Helvetica,sans-Serif" font-size="10.00">limits</text>
</a>
</g>
</g>
<!-- Node12&#45;&gt;Node13 -->
<g id="edge16_Node000012_Node000013" class="edge">
<title>Node12&#45;&gt;Node13</title>
<g id="a_edge16_Node000012_Node000013"><a xlink:title=" ">
<path fill="none" stroke="#63b8ff" d="M862.65,-164.99C890.07,-154.96 926.56,-141.62 952.4,-132.17"/>
<polygon fill="#63b8ff" stroke="#63b8ff" points="953.9,-135.35 962.09,-128.63 951.49,-128.78 953.9,-135.35"/>
</a>
</g>
</g>
<!-- Node14 -->
<g id="Node000014" class="node">
<title>Node14</title>
<g id="a_Node000014"><a xlink:title=" ">
<polygon fill="#e0e0e0" stroke="#999999" points="1114.32,-129 1062.32,-129 1062.32,-110 1114.32,-110 1114.32,-129"/>
<text text-anchor="middle" x="1088.32" y="-117" font-family="Helvetica,sans-Serif" font-size="10.00">cassert</text>
</a>
</g>
</g>
<!-- Node12&#45;&gt;Node14 -->
<g id="edge19_Node000012_Node000014" class="edge">
<title>Node12&#45;&gt;Node14</title>
<g id="a_edge19_Node000012_Node000014"><a xlink:title=" ">
<path fill="none" stroke="#63b8ff" d="M879.35,-166.81C931.36,-155.28 1007.88,-138.33 1052.45,-128.45"/>
<polygon fill="#63b8ff" stroke="#63b8ff" points="1053.26,-131.86 1062.26,-126.28 1051.74,-125.02 1053.26,-131.86"/>
</a>
</g>
</g>
<!-- Node12&#45;&gt;Node15 -->
<g id="edge21_Node000012_Node000015" class="edge">
<title>Node12&#45;&gt;Node15</title>
<g id="a_edge21_Node000012_Node000015"><a xlink:title=" ">
<path fill="none" stroke="#63b8ff" d="M879.64,-167.55C884.27,-166.66 888.87,-165.8 893.32,-165 991.98,-147.28 1020.18,-149.41 1122.04,-129.1"/>
<polygon fill="#63b8ff" stroke="#63b8ff" points="1123.02,-132.47 1132.13,-127.07 1121.64,-125.61 1123.02,-132.47"/>
</a>
</g>
</g>
<!-- Node16 -->
<g id="Node000016" class="node">
<title>Node16</title>
<g id="a_Node000016"><a xlink:title=" ">
<polygon fill="#e0e0e0" stroke="#999999" points="856.82,-129 791.82,-129 791.82,-110 856.82,-110 856.82,-129"/>
<text text-anchor="middle" x="824.32" y="-117" font-family="Helvetica,sans-Serif" font-size="10.00">functional</text>
</a>
</g>
</g>
<!-- Node12&#45;&gt;Node16 -->
<g id="edge22_Node000012_Node000016" class="edge">
<title>Node12&#45;&gt;Node16</title>
<g id="a_edge22_Node000012_Node000016"><a xlink:title=" ">
<path fill="none" stroke="#63b8ff" d="M824.32,-164.84C824.32,-157.21 824.32,-147.7 824.32,-139.45"/>
<polygon fill="#63b8ff" stroke="#63b8ff" points="827.82,-139.27 824.32,-129.27 820.82,-139.27 827.82,-139.27"/>
</a>
</g>
</g>
<!-- Node17 -->
<g id="Node000017" class="node">
<title>Node17</title>
<g id="a_Node000017"><a xlink:title=" ">
<polygon fill="#e0e0e0" stroke="#999999" points="943.82,-129 874.82,-129 874.82,-110 943.82,-110 943.82,-129"/>
<text text-anchor="middle" x="909.32" y="-117" font-family="Helvetica,sans-Serif" font-size="10.00">type_traits</text>
</a>
</g>
</g>
<!-- Node12&#45;&gt;Node17 -->
<g id="edge23_Node000012_Node000017" class="edge">
<title>Node12&#45;&gt;Node17</title>
<g id="a_edge23_Node000012_Node000017"><a xlink:title=" ">
<path fill="none" stroke="#63b8ff" d="M844.9,-164.84C857.99,-155.83 874.91,-144.18 888.12,-135.09"/>
<polygon fill="#63b8ff" stroke="#63b8ff" points="890.33,-137.82 896.59,-129.27 886.37,-132.05 890.33,-137.82"/>
</a>
</g>
</g>
<!-- Node18&#45;&gt;Node4 -->
<g id="edge25_Node000018_Node000004" class="edge">
<title>Node18&#45;&gt;Node4</title>
<g id="a_edge25_Node000018_Node000004"><a xlink:title=" ">
<path fill="none" stroke="#63b8ff" d="M122,-170.37C140.61,-160.73 170.95,-145.03 192.6,-133.81"/>
<polygon fill="#63b8ff" stroke="#63b8ff" points="194.31,-136.87 201.58,-129.17 191.09,-130.66 194.31,-136.87"/>
</a>
</g>
</g>
<!-- Node18&#45;&gt;Node5 -->
<g id="edge26_Node000018_Node000005" class="edge">
<title>Node18&#45;&gt;Node5</title>
<g id="a_edge26_Node000018_Node000005"><a xlink:title=" ">
<path fill="none" stroke="#63b8ff" d="M77.48,-170.44C45.32,-159.06 -0.85,-137.17 18.32,-110 33.74,-88.15 60.88,-76.96 85.94,-71.27"/>
<polygon fill="#63b8ff" stroke="#63b8ff" points="86.67,-74.69 95.78,-69.27 85.28,-67.83 86.67,-74.69"/>
</a>
</g>
</g>
<!-- Node18&#45;&gt;Node9 -->
<g id="edge28_Node000018_Node000009" class="edge">
<title>Node18&#45;&gt;Node9</title>
<g id="a_edge28_Node000018_Node000009"><a xlink:title=" ">
<path fill="none" stroke="#63b8ff" d="M110.56,-170.18C119.5,-155.79 139.04,-127.12 162.32,-110 185.13,-93.23 215.17,-81.58 237.93,-74.42"/>
<polygon fill="#63b8ff" stroke="#63b8ff" points="238.95,-77.77 247.51,-71.53 236.93,-71.07 238.95,-77.77"/>
</a>
</g>
</g>
<!-- Node19 -->
<g id="Node000019" class="node">
<title>Node19</title>
<g id="a_Node000019"><a xlink:title=" ">
<polygon fill="#e0e0e0" stroke="#999999" points="76.82,-129 27.82,-129 27.82,-110 76.82,-110 76.82,-129"/>
<text text-anchor="middle" x="52.32" y="-117" font-family="Helvetica,sans-Serif" font-size="10.00">cstdlib</text>
</a>
</g>
</g>
<!-- Node18&#45;&gt;Node19 -->
<g id="edge27_Node000018_Node000019" class="edge">
<title>Node18&#45;&gt;Node19</title>
<g id="a_edge27_Node000018_Node000019"><a xlink:title=" ">
<path fill="none" stroke="#63b8ff" d="M97.5,-170.37C89.52,-161.55 76.93,-147.66 67.07,-136.77"/>
<polygon fill="#63b8ff" stroke="#63b8ff" points="69.48,-134.23 60.18,-129.17 64.3,-138.93 69.48,-134.23"/>
</a>
</g>
</g>
</g>
</svg>
