<?xml version="1.0" encoding="UTF-8" standalone="no"?>
<!DOCTYPE svg PUBLIC "-//W3C//DTD SVG 1.1//EN"
 "http://www.w3.org/Graphics/SVG/1.1/DTD/svg11.dtd">
<!-- Generated by graphviz version 2.43.0 (0)
 -->
<!-- Title: /__w/qugar/qugar/cpp/include/qugar/tolerance.hpp Pages: 1 -->
<svg width="925pt" height="500pt"
 viewBox="0.00 0.00 924.50 500.00" xmlns="http://www.w3.org/2000/svg" xmlns:xlink="http://www.w3.org/1999/xlink">
<g id="graph0" class="graph" transform="scale(1 1) rotate(0) translate(4 496)">
<title>/__w/qugar/qugar/cpp/include/qugar/tolerance.hpp</title>
<!-- Node1 -->
<g id="Node000001" class="node">
<title>Node1</title>
<g id="a_Node000001"><a xlink:title="Definition of tolerance related functionalities.">
<polygon fill="#999999" stroke="#666666" points="726.5,-492 571.5,-492 571.5,-462 726.5,-462 726.5,-492"/>
<text text-anchor="start" x="579.5" y="-480" font-family="Helvetica,sans-Serif" font-size="10.00">/__w/qugar/qugar/cpp</text>
<text text-anchor="middle" x="649" y="-469" font-family="Helvetica,sans-Serif" font-size="10.00">/include/qugar/tolerance.hpp</text>
</a>
</g>
</g>
<!-- Node2 -->
<g id="Node000002" class="node">
<title>Node2</title>
<g id="a_Node000002"><a xlink:href="../../d6/d49/cart__grid__tp_8hpp.html" target="_top" xlink:title="Definition of Cartesian grid class.">
<polygon fill="white" stroke="#666666" points="409.5,-426 278.5,-426 278.5,-385 409.5,-385 409.5,-426"/>
<text text-anchor="start" x="286.5" y="-414" font-family="Helvetica,sans-Serif" font-size="10.00">/__w/qugar/qugar/cpp</text>
<text text-anchor="start" x="286.5" y="-403" font-family="Helvetica,sans-Serif" font-size="10.00">/include/qugar/cart_grid</text>
<text text-anchor="middle" x="344" y="-392" font-family="Helvetica,sans-Serif" font-size="10.00">_tp.hpp</text>
</a>
</g>
</g>
<!-- Node1&#45;&gt;Node2 -->
<g id="edge1_Node000001_Node000002" class="edge">
<title>Node1&#45;&gt;Node2</title>
<g id="a_edge1_Node000001_Node000002"><a xlink:title=" ">
<path fill="none" stroke="#63b8ff" d="M577.36,-459.67C526.57,-448.1 458.96,-432.69 409.59,-421.44"/>
<polygon fill="#63b8ff" stroke="#63b8ff" points="576.75,-463.13 587.28,-461.94 578.31,-456.3 576.75,-463.13"/>
</a>
</g>
</g>
<!-- Node6 -->
<g id="Node000006" class="node">
<title>Node6</title>
<g id="a_Node000006"><a xlink:href="../../d3/d42/impl__reparam__mesh_8hpp.html" target="_top" xlink:title="Declaration of reparameterization class.">
<polygon fill="white" stroke="#666666" points="680.5,-195 523.5,-195 523.5,-154 680.5,-154 680.5,-195"/>
<text text-anchor="start" x="531.5" y="-183" font-family="Helvetica,sans-Serif" font-size="10.00">/__w/qugar/qugar/cpp</text>
<text text-anchor="start" x="531.5" y="-172" font-family="Helvetica,sans-Serif" font-size="10.00">/include/qugar/impl_reparam</text>
<text text-anchor="middle" x="602" y="-161" font-family="Helvetica,sans-Serif" font-size="10.00">_mesh.hpp</text>
</a>
</g>
</g>
<!-- Node1&#45;&gt;Node6 -->
<g id="edge24_Node000001_Node000006" class="edge">
<title>Node1&#45;&gt;Node6</title>
<g id="a_edge24_Node000001_Node000006"><a xlink:title=" ">
<path fill="none" stroke="#63b8ff" d="M655.39,-452.03C666.18,-406.9 684.04,-307 654,-231 648.52,-217.12 637.74,-204.68 627.42,-195.12"/>
<polygon fill="#63b8ff" stroke="#63b8ff" points="651.98,-451.24 652.96,-461.79 658.78,-452.93 651.98,-451.24"/>
</a>
</g>
</g>
<!-- Node11 -->
<g id="Node000011" class="node">
<title>Node11</title>
<g id="a_Node000011"><a xlink:href="../../d8/ddc/reparam__mesh_8hpp.html" target="_top" xlink:title="Declaration of reparameterization class.">
<polygon fill="white" stroke="#666666" points="645,-272 515,-272 515,-231 645,-231 645,-272"/>
<text text-anchor="start" x="523" y="-260" font-family="Helvetica,sans-Serif" font-size="10.00">/__w/qugar/qugar/cpp</text>
<text text-anchor="start" x="523" y="-249" font-family="Helvetica,sans-Serif" font-size="10.00">/include/qugar/reparam</text>
<text text-anchor="middle" x="580" y="-238" font-family="Helvetica,sans-Serif" font-size="10.00">_mesh.hpp</text>
</a>
</g>
</g>
<!-- Node1&#45;&gt;Node11 -->
<g id="edge26_Node000001_Node000011" class="edge">
<title>Node1&#45;&gt;Node11</title>
<g id="a_edge26_Node000001_Node000011"><a xlink:title=" ">
<path fill="none" stroke="#63b8ff" d="M641.59,-452.01C627.88,-407.59 598.78,-313.33 586.11,-272.28"/>
<polygon fill="#63b8ff" stroke="#63b8ff" points="638.28,-453.16 644.58,-461.68 644.97,-451.09 638.28,-453.16"/>
</a>
</g>
</g>
<!-- Node14 -->
<g id="Node000014" class="node">
<title>Node14</title>
<g id="a_Node000014"><a xlink:href="../../df/dc4/impl__utils_8hpp.html" target="_top" xlink:title="Declaration of utility functions for implicit geometries.">
<polygon fill="white" stroke="#666666" points="859,-420.5 701,-420.5 701,-390.5 859,-390.5 859,-420.5"/>
<text text-anchor="start" x="709" y="-408.5" font-family="Helvetica,sans-Serif" font-size="10.00">/__w/qugar/qugar/cpp</text>
<text text-anchor="middle" x="780" y="-397.5" font-family="Helvetica,sans-Serif" font-size="10.00">/include/qugar/impl_utils.hpp</text>
</a>
</g>
</g>
<!-- Node1&#45;&gt;Node14 -->
<g id="edge25_Node000001_Node000014" class="edge">
<title>Node1&#45;&gt;Node14</title>
<g id="a_edge25_Node000001_Node000014"><a xlink:title=" ">
<path fill="none" stroke="#63b8ff" d="M684.46,-457.19C706.23,-445.64 733.65,-431.09 753.53,-420.54"/>
<polygon fill="#63b8ff" stroke="#63b8ff" points="682.7,-454.16 675.51,-461.94 685.98,-460.34 682.7,-454.16"/>
</a>
</g>
</g>
<!-- Node3 -->
<g id="Node000003" class="node">
<title>Node3</title>
<g id="a_Node000003"><a xlink:href="../../d0/d6f/demo__quad__sphere_2main_8cpp.html" target="_top" xlink:title=" ">
<polygon fill="white" stroke="#666666" points="223,-118 77,-118 77,-77 223,-77 223,-118"/>
<text text-anchor="start" x="85" y="-106" font-family="Helvetica,sans-Serif" font-size="10.00">/__w/qugar/qugar/cpp</text>
<text text-anchor="start" x="85" y="-95" font-family="Helvetica,sans-Serif" font-size="10.00">/demo/demo_quad_sphere</text>
<text text-anchor="middle" x="150" y="-84" font-family="Helvetica,sans-Serif" font-size="10.00">/main.cpp</text>
</a>
</g>
</g>
<!-- Node2&#45;&gt;Node3 -->
<g id="edge2_Node000002_Node000003" class="edge">
<title>Node2&#45;&gt;Node3</title>
<g id="a_edge2_Node000002_Node000003"><a xlink:title=" ">
<path fill="none" stroke="#63b8ff" d="M268.22,-401.37C221.64,-395.9 163.2,-382.23 122,-349 53.33,-293.62 47.54,-233.87 85,-154 91.8,-139.49 104.44,-127.35 116.77,-118.15"/>
<polygon fill="#63b8ff" stroke="#63b8ff" points="267.95,-404.87 278.27,-402.45 268.7,-397.91 267.95,-404.87"/>
</a>
</g>
</g>
<!-- Node4 -->
<g id="Node000004" class="node">
<title>Node4</title>
<g id="a_Node000004"><a xlink:href="../../d2/d66/demo__reparam__gyroid_2main_8cpp.html" target="_top" xlink:title=" ">
<polygon fill="white" stroke="#666666" points="440.5,-41 279.5,-41 279.5,0 440.5,0 440.5,-41"/>
<text text-anchor="start" x="287.5" y="-29" font-family="Helvetica,sans-Serif" font-size="10.00">/__w/qugar/qugar/cpp</text>
<text text-anchor="start" x="287.5" y="-18" font-family="Helvetica,sans-Serif" font-size="10.00">/demo/demo_reparam_gyroid</text>
<text text-anchor="middle" x="360" y="-7" font-family="Helvetica,sans-Serif" font-size="10.00">/main.cpp</text>
</a>
</g>
</g>
<!-- Node2&#45;&gt;Node4 -->
<g id="edge3_Node000002_Node000004" class="edge">
<title>Node2&#45;&gt;Node4</title>
<g id="a_edge3_Node000002_Node000004"><a xlink:title=" ">
<path fill="none" stroke="#63b8ff" d="M268.29,-403.17C167.01,-396.93 0,-368.96 0,-252.5 0,-252.5 0,-252.5 0,-173.5 0,-53.08 173.07,-26.57 279.21,-21.64"/>
<polygon fill="#63b8ff" stroke="#63b8ff" points="268.31,-406.68 278.49,-403.74 268.7,-399.69 268.31,-406.68"/>
</a>
</g>
</g>
<!-- Node5 -->
<g id="Node000005" class="node">
<title>Node5</title>
<g id="a_Node000005"><a xlink:href="../../d6/dc8/impl__quadrature_8hpp.html" target="_top" xlink:title="Declaration of quadratures for general implicit functions on grids.">
<polygon fill="white" stroke="#666666" points="294,-189.5 104,-189.5 104,-159.5 294,-159.5 294,-189.5"/>
<text text-anchor="start" x="112" y="-177.5" font-family="Helvetica,sans-Serif" font-size="10.00">/__w/qugar/qugar/cpp</text>
<text text-anchor="middle" x="199" y="-166.5" font-family="Helvetica,sans-Serif" font-size="10.00">/include/qugar/impl_quadrature.hpp</text>
</a>
</g>
</g>
<!-- Node2&#45;&gt;Node5 -->
<g id="edge4_Node000002_Node000005" class="edge">
<title>Node2&#45;&gt;Node5</title>
<g id="a_edge4_Node000002_Node000005"><a xlink:title=" ">
<path fill="none" stroke="#63b8ff" d="M268.66,-386.91C209.97,-368.82 132.38,-334.23 95,-272 85.62,-256.38 85.63,-246.63 95,-231 106.9,-211.17 128.55,-198.03 149.04,-189.54"/>
<polygon fill="#63b8ff" stroke="#63b8ff" points="267.69,-390.28 278.28,-389.78 269.7,-383.57 267.69,-390.28"/>
</a>
</g>
</g>
<!-- Node2&#45;&gt;Node6 -->
<g id="edge6_Node000002_Node000006" class="edge">
<title>Node2&#45;&gt;Node6</title>
<g id="a_edge6_Node000002_Node000006"><a xlink:title=" ">
<path fill="none" stroke="#63b8ff" d="M416.91,-380.42C433.02,-372.43 448.88,-362.11 461,-349 499.1,-307.78 469.61,-273.73 506,-231 518.86,-215.9 536.91,-203.97 553.89,-195.1"/>
<polygon fill="#63b8ff" stroke="#63b8ff" points="414.99,-377.46 407.42,-384.87 417.96,-383.8 414.99,-377.46"/>
</a>
</g>
</g>
<!-- Node10 -->
<g id="Node000010" class="node">
<title>Node10</title>
<g id="a_Node000010"><a xlink:href="../../d6/d03/impl__unfitted__domain_8hpp.html" target="_top" xlink:title="Declaration of of UnfittedImplDomain class.">
<polygon fill="white" stroke="#666666" points="458.5,-272 305.5,-272 305.5,-231 458.5,-231 458.5,-272"/>
<text text-anchor="start" x="313.5" y="-260" font-family="Helvetica,sans-Serif" font-size="10.00">/__w/qugar/qugar/cpp</text>
<text text-anchor="start" x="313.5" y="-249" font-family="Helvetica,sans-Serif" font-size="10.00">/include/qugar/impl_unfitted</text>
<text text-anchor="middle" x="382" y="-238" font-family="Helvetica,sans-Serif" font-size="10.00">_domain.hpp</text>
</a>
</g>
</g>
<!-- Node2&#45;&gt;Node10 -->
<g id="edge11_Node000002_Node000010" class="edge">
<title>Node2&#45;&gt;Node10</title>
<g id="a_edge11_Node000002_Node000010"><a xlink:title=" ">
<path fill="none" stroke="#63b8ff" d="M325.7,-375.84C315.59,-356.19 306.94,-329.82 317,-308 323.71,-293.45 336.33,-281.3 348.67,-272.11"/>
<polygon fill="#63b8ff" stroke="#63b8ff" points="322.65,-377.56 330.54,-384.63 328.78,-374.18 322.65,-377.56"/>
</a>
</g>
</g>
<!-- Node2&#45;&gt;Node11 -->
<g id="edge16_Node000002_Node000011" class="edge">
<title>Node2&#45;&gt;Node11</title>
<g id="a_edge16_Node000002_Node000011"><a xlink:title=" ">
<path fill="none" stroke="#63b8ff" d="M419.55,-386.92C446.8,-378.3 476.77,-366.02 501,-349 530.41,-328.34 554.9,-293.9 568.48,-272.24"/>
<polygon fill="#63b8ff" stroke="#63b8ff" points="418.21,-383.67 409.66,-389.93 420.24,-390.37 418.21,-383.67"/>
</a>
</g>
</g>
<!-- Node12 -->
<g id="Node000012" class="node">
<title>Node12</title>
<g id="a_Node000012"><a xlink:href="../../d2/dfd/unfitted__domain_8hpp.html" target="_top" xlink:title="Declaration of of UnfittedDomain class.">
<polygon fill="white" stroke="#666666" points="452,-349 326,-349 326,-308 452,-308 452,-349"/>
<text text-anchor="start" x="334" y="-337" font-family="Helvetica,sans-Serif" font-size="10.00">/__w/qugar/qugar/cpp</text>
<text text-anchor="start" x="334" y="-326" font-family="Helvetica,sans-Serif" font-size="10.00">/include/qugar/unfitted</text>
<text text-anchor="middle" x="389" y="-315" font-family="Helvetica,sans-Serif" font-size="10.00">_domain.hpp</text>
</a>
</g>
</g>
<!-- Node2&#45;&gt;Node12 -->
<g id="edge18_Node000002_Node000012" class="edge">
<title>Node2&#45;&gt;Node12</title>
<g id="a_edge18_Node000002_Node000012"><a xlink:title=" ">
<path fill="none" stroke="#63b8ff" d="M361.03,-376.11C366.44,-367.09 372.3,-357.33 377.26,-349.07"/>
<polygon fill="#63b8ff" stroke="#63b8ff" points="357.97,-374.42 355.82,-384.79 363.97,-378.02 357.97,-374.42"/>
</a>
</g>
</g>
<!-- Node5&#45;&gt;Node3 -->
<g id="edge5_Node000005_Node000003" class="edge">
<title>Node5&#45;&gt;Node3</title>
<g id="a_edge5_Node000005_Node000003"><a xlink:title=" ">
<path fill="none" stroke="#63b8ff" d="M184.18,-150.82C177.39,-140.42 169.41,-128.21 162.87,-118.2"/>
<polygon fill="#63b8ff" stroke="#63b8ff" points="181.38,-152.94 189.78,-159.39 187.24,-149.11 181.38,-152.94"/>
</a>
</g>
</g>
<!-- Node7 -->
<g id="Node000007" class="node">
<title>Node7</title>
<g id="a_Node000007"><a xlink:href="../../d0/d4c/impl__reparam_8hpp.html" target="_top" xlink:title="Declaration of reparameterization generization tools implicit functions on grids.">
<polygon fill="white" stroke="#666666" points="566,-112.5 388,-112.5 388,-82.5 566,-82.5 566,-112.5"/>
<text text-anchor="start" x="396" y="-100.5" font-family="Helvetica,sans-Serif" font-size="10.00">/__w/qugar/qugar/cpp</text>
<text text-anchor="middle" x="477" y="-89.5" font-family="Helvetica,sans-Serif" font-size="10.00">/include/qugar/impl_reparam.hpp</text>
</a>
</g>
</g>
<!-- Node6&#45;&gt;Node7 -->
<g id="edge7_Node000006_Node000007" class="edge">
<title>Node6&#45;&gt;Node7</title>
<g id="a_edge7_Node000006_Node000007"><a xlink:title=" ">
<path fill="none" stroke="#63b8ff" d="M560.87,-148.82C540.9,-136.84 517.62,-122.87 500.67,-112.7"/>
<polygon fill="#63b8ff" stroke="#63b8ff" points="559.11,-151.85 569.48,-153.99 562.71,-145.84 559.11,-151.85"/>
</a>
</g>
</g>
<!-- Node8 -->
<g id="Node000008" class="node">
<title>Node8</title>
<g id="a_Node000008"><a xlink:href="../../d6/d87/impl__reparam__bezier_8hpp.html" target="_top" xlink:title="Declaration of tools for creating Bezier reparameterizations.">
<polygon fill="white" stroke="#666666" points="741.5,-118 584.5,-118 584.5,-77 741.5,-77 741.5,-118"/>
<text text-anchor="start" x="592.5" y="-106" font-family="Helvetica,sans-Serif" font-size="10.00">/__w/qugar/qugar/cpp</text>
<text text-anchor="start" x="592.5" y="-95" font-family="Helvetica,sans-Serif" font-size="10.00">/include/qugar/impl_reparam</text>
<text text-anchor="middle" x="663" y="-84" font-family="Helvetica,sans-Serif" font-size="10.00">_bezier.hpp</text>
</a>
</g>
</g>
<!-- Node6&#45;&gt;Node8 -->
<g id="edge9_Node000006_Node000008" class="edge">
<title>Node6&#45;&gt;Node8</title>
<g id="a_edge9_Node000006_Node000008"><a xlink:title=" ">
<path fill="none" stroke="#63b8ff" d="M624.4,-145.95C631.93,-136.7 640.16,-126.58 647.08,-118.07"/>
<polygon fill="#63b8ff" stroke="#63b8ff" points="621.62,-143.83 618.03,-153.79 627.05,-148.25 621.62,-143.83"/>
</a>
</g>
</g>
<!-- Node9 -->
<g id="Node000009" class="node">
<title>Node9</title>
<g id="a_Node000009"><a xlink:href="../../d5/da9/impl__reparam__general_8hpp.html" target="_top" xlink:title="Declaration of tools for creating reparameterizations of general functions.">
<polygon fill="white" stroke="#666666" points="916.5,-118 759.5,-118 759.5,-77 916.5,-77 916.5,-118"/>
<text text-anchor="start" x="767.5" y="-106" font-family="Helvetica,sans-Serif" font-size="10.00">/__w/qugar/qugar/cpp</text>
<text text-anchor="start" x="767.5" y="-95" font-family="Helvetica,sans-Serif" font-size="10.00">/include/qugar/impl_reparam</text>
<text text-anchor="middle" x="838" y="-84" font-family="Helvetica,sans-Serif" font-size="10.00">_general.hpp</text>
</a>
</g>
</g>
<!-- Node6&#45;&gt;Node9 -->
<g id="edge10_Node000006_Node000009" class="edge">
<title>Node6&#45;&gt;Node9</title>
<g id="a_edge10_Node000006_Node000009"><a xlink:title=" ">
<path fill="none" stroke="#63b8ff" d="M672.97,-150.94C705.95,-140.46 744.8,-128.12 776.51,-118.04"/>
<polygon fill="#63b8ff" stroke="#63b8ff" points="671.86,-147.63 663.39,-153.99 673.98,-154.3 671.86,-147.63"/>
</a>
</g>
</g>
<!-- Node7&#45;&gt;Node4 -->
<g id="edge8_Node000007_Node000004" class="edge">
<title>Node7&#45;&gt;Node4</title>
<g id="a_edge8_Node000007_Node000004"><a xlink:title=" ">
<path fill="none" stroke="#63b8ff" d="M446.45,-76.91C429.28,-65.91 407.93,-52.22 390.74,-41.2"/>
<polygon fill="#63b8ff" stroke="#63b8ff" points="444.69,-79.94 454.99,-82.39 448.46,-74.05 444.69,-79.94"/>
</a>
</g>
</g>
<!-- Node10&#45;&gt;Node3 -->
<g id="edge12_Node000010_Node000003" class="edge">
<title>Node10&#45;&gt;Node3</title>
<g id="a_edge12_Node000010_Node000003"><a xlink:title=" ">
<path fill="none" stroke="#63b8ff" d="M364.84,-222.15C350.64,-200.8 328.66,-172.18 303,-154 279.25,-137.18 249.85,-124.91 223.18,-116.25"/>
<polygon fill="#63b8ff" stroke="#63b8ff" points="362.08,-224.32 370.45,-230.81 367.95,-220.51 362.08,-224.32"/>
</a>
</g>
</g>
<!-- Node10&#45;&gt;Node4 -->
<g id="edge13_Node000010_Node000004" class="edge">
<title>Node10&#45;&gt;Node4</title>
<g id="a_edge13_Node000010_Node000004"><a xlink:title=" ">
<path fill="none" stroke="#63b8ff" d="M379.14,-220.73C374.58,-173.23 365.77,-81.57 361.9,-41.3"/>
<polygon fill="#63b8ff" stroke="#63b8ff" points="375.68,-221.36 380.12,-230.98 382.65,-220.69 375.68,-221.36"/>
</a>
</g>
</g>
<!-- Node10&#45;&gt;Node5 -->
<g id="edge14_Node000010_Node000005" class="edge">
<title>Node10&#45;&gt;Node5</title>
<g id="a_edge14_Node000010_Node000005"><a xlink:title=" ">
<path fill="none" stroke="#63b8ff" d="M324.88,-227.09C294.87,-214.79 259.09,-200.13 233.36,-189.58"/>
<polygon fill="#63b8ff" stroke="#63b8ff" points="323.82,-230.44 334.4,-230.99 326.47,-223.96 323.82,-230.44"/>
</a>
</g>
</g>
<!-- Node10&#45;&gt;Node7 -->
<g id="edge15_Node000010_Node000007" class="edge">
<title>Node10&#45;&gt;Node7</title>
<g id="a_edge15_Node000010_Node000007"><a xlink:title=" ">
<path fill="none" stroke="#63b8ff" d="M399.61,-222.32C419.96,-189.76 452.64,-137.47 468.21,-112.57"/>
<polygon fill="#63b8ff" stroke="#63b8ff" points="396.56,-220.6 394.23,-230.94 402.49,-224.31 396.56,-220.6"/>
</a>
</g>
</g>
<!-- Node11&#45;&gt;Node6 -->
<g id="edge17_Node000011_Node000006" class="edge">
<title>Node11&#45;&gt;Node6</title>
<g id="a_edge17_Node000011_Node000006"><a xlink:title=" ">
<path fill="none" stroke="#63b8ff" d="M588.66,-220.98C591.21,-212.28 593.94,-202.98 596.26,-195.07"/>
<polygon fill="#63b8ff" stroke="#63b8ff" points="585.24,-220.21 585.78,-230.79 591.95,-222.18 585.24,-220.21"/>
</a>
</g>
</g>
<!-- Node12&#45;&gt;Node10 -->
<g id="edge22_Node000012_Node000010" class="edge">
<title>Node12&#45;&gt;Node10</title>
<g id="a_edge22_Node000012_Node000010"><a xlink:title=" ">
<path fill="none" stroke="#63b8ff" d="M386.22,-297.69C385.41,-289.08 384.56,-279.9 383.83,-272.07"/>
<polygon fill="#63b8ff" stroke="#63b8ff" points="382.75,-298.16 387.16,-307.79 389.72,-297.51 382.75,-298.16"/>
</a>
</g>
</g>
<!-- Node12&#45;&gt;Node11 -->
<g id="edge23_Node000012_Node000011" class="edge">
<title>Node12&#45;&gt;Node11</title>
<g id="a_edge23_Node000012_Node000011"><a xlink:title=" ">
<path fill="none" stroke="#63b8ff" d="M448.17,-304.27C474.48,-293.94 505.12,-281.9 530.23,-272.04"/>
<polygon fill="#63b8ff" stroke="#63b8ff" points="446.71,-301.08 438.68,-307.99 449.27,-307.59 446.71,-301.08"/>
</a>
</g>
</g>
<!-- Node13 -->
<g id="Node000013" class="node">
<title>Node13</title>
<g id="a_Node000013"><a xlink:href="../../d1/daf/cut__quadrature_8hpp.html" target="_top" xlink:title="Definition of cut quadrature for unfitted domains.">
<polygon fill="white" stroke="#666666" points="287.5,-266.5 104.5,-266.5 104.5,-236.5 287.5,-236.5 287.5,-266.5"/>
<text text-anchor="start" x="112.5" y="-254.5" font-family="Helvetica,sans-Serif" font-size="10.00">/__w/qugar/qugar/cpp</text>
<text text-anchor="middle" x="196" y="-243.5" font-family="Helvetica,sans-Serif" font-size="10.00">/include/qugar/cut_quadrature.hpp</text>
</a>
</g>
</g>
<!-- Node12&#45;&gt;Node13 -->
<g id="edge19_Node000012_Node000013" class="edge">
<title>Node12&#45;&gt;Node13</title>
<g id="a_edge19_Node000012_Node000013"><a xlink:title=" ">
<path fill="none" stroke="#63b8ff" d="M329.17,-304.25C297.44,-291.92 259.49,-277.17 232.24,-266.58"/>
<polygon fill="#63b8ff" stroke="#63b8ff" points="328.21,-307.63 338.8,-307.99 330.74,-301.11 328.21,-307.63"/>
</a>
</g>
</g>
<!-- Node13&#45;&gt;Node3 -->
<g id="edge20_Node000013_Node000003" class="edge">
<title>Node13&#45;&gt;Node3</title>
<g id="a_edge20_Node000013_Node000003"><a xlink:title=" ">
<path fill="none" stroke="#63b8ff" d="M138.74,-232.09C121.64,-223.62 104.84,-211.64 95,-195 85.72,-179.32 88.06,-170.85 95,-154 100.78,-139.95 112.03,-127.57 122.86,-118.09"/>
<polygon fill="#63b8ff" stroke="#63b8ff" points="137.68,-235.46 148.23,-236.45 140.6,-229.1 137.68,-235.46"/>
</a>
</g>
</g>
<!-- Node13&#45;&gt;Node5 -->
<g id="edge21_Node000013_Node000005" class="edge">
<title>Node13&#45;&gt;Node5</title>
<g id="a_edge21_Node000013_Node000005"><a xlink:title=" ">
<path fill="none" stroke="#63b8ff" d="M196.98,-226.04C197.46,-213.95 198.03,-199.79 198.44,-189.54"/>
<polygon fill="#63b8ff" stroke="#63b8ff" points="193.47,-226.26 196.56,-236.39 200.46,-226.54 193.47,-226.26"/>
</a>
</g>
</g>
</g>
</svg>
