<?xml version="1.0" encoding="UTF-8" standalone="no"?>
<!DOCTYPE svg PUBLIC "-//W3C//DTD SVG 1.1//EN"
 "http://www.w3.org/Graphics/SVG/1.1/DTD/svg11.dtd">
<!-- Generated by graphviz version 2.43.0 (0)
 -->
<!-- Title: qugar::UnfittedDomain::UnfittedDomain Pages: 1 -->
<svg width="300pt" height="182pt"
 viewBox="0.00 0.00 300.00 182.00" xmlns="http://www.w3.org/2000/svg" xmlns:xlink="http://www.w3.org/1999/xlink">
<g id="graph0" class="graph" transform="scale(1 1) rotate(0) translate(4 178)">
<title>qugar::UnfittedDomain::UnfittedDomain</title>
<!-- Node1 -->
<g id="Node000001" class="node">
<title>Node1</title>
<g id="a_Node000001"><a xlink:title=" ">
<polygon fill="#999999" stroke="#666666" points="292,-102 164,-102 164,-72 292,-72 292,-102"/>
<text text-anchor="start" x="172" y="-90" font-family="Helvetica,sans-Serif" font-size="10.00">qugar::UnfittedDomain</text>
<text text-anchor="middle" x="228" y="-79" font-family="Helvetica,sans-Serif" font-size="10.00">::UnfittedDomain</text>
</a>
</g>
</g>
<!-- Node2 -->
<g id="Node000002" class="node">
<title>Node2</title>
<g id="a_Node000002"><a xlink:href="../../df/d58/classqugar_1_1UnfittedDomain.html#af7ff828a1e69735e32a8c29abbad1e4c" target="_top" xlink:title="Copy assignment operator.">
<polygon fill="white" stroke="#666666" points="128,-174 0,-174 0,-144 128,-144 128,-174"/>
<text text-anchor="start" x="8" y="-162" font-family="Helvetica,sans-Serif" font-size="10.00">qugar::UnfittedDomain</text>
<text text-anchor="middle" x="64" y="-151" font-family="Helvetica,sans-Serif" font-size="10.00">::operator=</text>
</a>
</g>
</g>
<!-- Node1&#45;&gt;Node2 -->
<g id="edge1_Node000001_Node000002" class="edge">
<title>Node1&#45;&gt;Node2</title>
<g id="a_edge1_Node000001_Node000002"><a xlink:title=" ">
<path fill="none" stroke="#63b8ff" d="M188.32,-106.73C170.18,-115.73 148.16,-126.29 128,-135 121.02,-138.02 113.52,-141.05 106.21,-143.89"/>
<polygon fill="#63b8ff" stroke="#63b8ff" points="190.04,-109.78 197.42,-102.18 186.91,-103.52 190.04,-109.78"/>
</a>
</g>
</g>
<!-- Node3 -->
<g id="Node000003" class="node">
<title>Node3</title>
<g id="a_Node000003"><a xlink:href="../../df/d58/classqugar_1_1UnfittedDomain.html#a334e02e57aee47573192c5663dbef992" target="_top" xlink:title="Move assignment operator.">
<polygon fill="white" stroke="#666666" points="128,-126 0,-126 0,-96 128,-96 128,-126"/>
<text text-anchor="start" x="8" y="-114" font-family="Helvetica,sans-Serif" font-size="10.00">qugar::UnfittedDomain</text>
<text text-anchor="middle" x="64" y="-103" font-family="Helvetica,sans-Serif" font-size="10.00">::operator=</text>
</a>
</g>
</g>
<!-- Node1&#45;&gt;Node3 -->
<g id="edge2_Node000001_Node000003" class="edge">
<title>Node1&#45;&gt;Node3</title>
<g id="a_edge2_Node000001_Node000003"><a xlink:title=" ">
<path fill="none" stroke="#63b8ff" d="M153.91,-97.83C145.32,-99.1 136.62,-100.39 128.19,-101.64"/>
<polygon fill="#63b8ff" stroke="#63b8ff" points="154.52,-101.28 163.9,-96.35 153.5,-94.35 154.52,-101.28"/>
</a>
</g>
</g>
<!-- Node4 -->
<g id="Node000004" class="node">
<title>Node4</title>
<g id="a_Node000004"><a xlink:href="../../df/d58/classqugar_1_1UnfittedDomain.html#a8de0551c32e337ac9a099c8ebe6cb0e3" target="_top" xlink:title="Copy constructor.">
<polygon fill="white" stroke="#666666" points="128,-78 0,-78 0,-48 128,-48 128,-78"/>
<text text-anchor="start" x="8" y="-66" font-family="Helvetica,sans-Serif" font-size="10.00">qugar::UnfittedDomain</text>
<text text-anchor="middle" x="64" y="-55" font-family="Helvetica,sans-Serif" font-size="10.00">::UnfittedDomain</text>
</a>
</g>
</g>
<!-- Node1&#45;&gt;Node4 -->
<g id="edge3_Node000001_Node000004" class="edge">
<title>Node1&#45;&gt;Node4</title>
<g id="a_edge3_Node000001_Node000004"><a xlink:title=" ">
<path fill="none" stroke="#63b8ff" d="M153.91,-76.17C145.32,-74.9 136.62,-73.61 128.19,-72.36"/>
<polygon fill="#63b8ff" stroke="#63b8ff" points="153.5,-79.65 163.9,-77.65 154.52,-72.72 153.5,-79.65"/>
</a>
</g>
</g>
<!-- Node5 -->
<g id="Node000005" class="node">
<title>Node5</title>
<g id="a_Node000005"><a xlink:href="../../df/d58/classqugar_1_1UnfittedDomain.html#a9428bf7a2fc0a280dd6ad8d420c7a7ff" target="_top" xlink:title="Move constructor.">
<polygon fill="white" stroke="#666666" points="128,-30 0,-30 0,0 128,0 128,-30"/>
<text text-anchor="start" x="8" y="-18" font-family="Helvetica,sans-Serif" font-size="10.00">qugar::UnfittedDomain</text>
<text text-anchor="middle" x="64" y="-7" font-family="Helvetica,sans-Serif" font-size="10.00">::UnfittedDomain</text>
</a>
</g>
</g>
<!-- Node1&#45;&gt;Node5 -->
<g id="edge4_Node000001_Node000005" class="edge">
<title>Node1&#45;&gt;Node5</title>
<g id="a_edge4_Node000001_Node000005"><a xlink:title=" ">
<path fill="none" stroke="#63b8ff" d="M188.32,-67.27C170.18,-58.27 148.16,-47.71 128,-39 121.02,-35.98 113.52,-32.95 106.21,-30.11"/>
<polygon fill="#63b8ff" stroke="#63b8ff" points="186.91,-70.48 197.42,-71.82 190.04,-64.22 186.91,-70.48"/>
</a>
</g>
</g>
</g>
</svg>
