<?xml version="1.0" encoding="UTF-8" standalone="no"?>
<!DOCTYPE svg PUBLIC "-//W3C//DTD SVG 1.1//EN"
 "http://www.w3.org/Graphics/SVG/1.1/DTD/svg11.dtd">
<!-- Generated by graphviz version 2.43.0 (0)
 -->
<!-- Title: qugar::impl::funcs::PlaneBase&lt; dim &gt; Pages: 1 -->
<svg width="238pt" height="104pt"
 viewBox="0.00 0.00 237.50 104.00" xmlns="http://www.w3.org/2000/svg" xmlns:xlink="http://www.w3.org/1999/xlink">
<g id="graph0" class="graph" transform="scale(1 1) rotate(0) translate(4 100)">
<title>qugar::impl::funcs::PlaneBase&lt; dim &gt;</title>
<!-- Node1 -->
<g id="Node000001" class="node">
<title>Node1</title>
<g id="a_Node000001"><a xlink:title="Plane base class.">
<polygon fill="#999999" stroke="#666666" points="171.5,-96 56.5,-96 56.5,-66 171.5,-66 171.5,-96"/>
<text text-anchor="start" x="64.5" y="-84" font-family="Helvetica,sans-Serif" font-size="10.00">qugar::impl::funcs</text>
<text text-anchor="middle" x="114" y="-73" font-family="Helvetica,sans-Serif" font-size="10.00">::PlaneBase&lt; dim &gt;</text>
</a>
</g>
</g>
<!-- Node2 -->
<g id="Node000002" class="node">
<title>Node2</title>
<g id="a_Node000002"><a xlink:href="../../d2/d3b/classqugar_1_1impl_1_1funcs_1_1Plane.html" target="_top" xlink:title="Plane function.">
<polygon fill="white" stroke="#666666" points="104,-30 0,-30 0,0 104,0 104,-30"/>
<text text-anchor="start" x="8" y="-18" font-family="Helvetica,sans-Serif" font-size="10.00">qugar::impl::funcs</text>
<text text-anchor="middle" x="52" y="-7" font-family="Helvetica,sans-Serif" font-size="10.00">::Plane&lt; dim &gt;</text>
</a>
</g>
</g>
<!-- Node1&#45;&gt;Node2 -->
<g id="edge1_Node000001_Node000002" class="edge">
<title>Node1&#45;&gt;Node2</title>
<g id="a_edge1_Node000001_Node000002"><a xlink:title=" ">
<path fill="none" stroke="#63b8ff" d="M93.04,-58.37C84.03,-49.06 73.74,-38.44 65.72,-30.16"/>
<polygon fill="#63b8ff" stroke="#63b8ff" points="90.77,-61.05 100.24,-65.8 95.8,-56.18 90.77,-61.05"/>
</a>
</g>
</g>
<!-- Node3 -->
<g id="Node000003" class="node">
<title>Node3</title>
<g id="a_Node000003"><a xlink:href="../../dd/d35/classqugar_1_1impl_1_1funcs_1_1PlaneBzr.html" target="_top" xlink:title="Plane function.">
<polygon fill="white" stroke="#666666" points="229.5,-30 122.5,-30 122.5,0 229.5,0 229.5,-30"/>
<text text-anchor="start" x="130.5" y="-18" font-family="Helvetica,sans-Serif" font-size="10.00">qugar::impl::funcs</text>
<text text-anchor="middle" x="176" y="-7" font-family="Helvetica,sans-Serif" font-size="10.00">::PlaneBzr&lt; dim &gt;</text>
</a>
</g>
</g>
<!-- Node1&#45;&gt;Node3 -->
<g id="edge2_Node000001_Node000003" class="edge">
<title>Node1&#45;&gt;Node3</title>
<g id="a_edge2_Node000001_Node000003"><a xlink:title=" ">
<path fill="none" stroke="#63b8ff" d="M134.96,-58.37C143.97,-49.06 154.26,-38.44 162.28,-30.16"/>
<polygon fill="#63b8ff" stroke="#63b8ff" points="132.2,-56.18 127.76,-65.8 137.23,-61.05 132.2,-56.18"/>
</a>
</g>
</g>
</g>
</svg>
