<?xml version="1.0" encoding="UTF-8" standalone="no"?>
<!DOCTYPE svg PUBLIC "-//W3C//DTD SVG 1.1//EN"
 "http://www.w3.org/Graphics/SVG/1.1/DTD/svg11.dtd">
<!-- Generated by graphviz version 2.43.0 (0)
 -->
<!-- Title: Graphical Class Hierarchy Pages: 1 -->
<svg width="667pt" height="934pt"
 viewBox="0.00 0.00 667.00 934.05" xmlns="http://www.w3.org/2000/svg" xmlns:xlink="http://www.w3.org/1999/xlink">
<g id="graph0" class="graph" transform="scale(1 1) rotate(0) translate(4 930.05)">
<title>Graphical Class Hierarchy</title>
<!-- Node0 -->
<g id="Node000000" class="node">
<title>Node0</title>
<g id="a_Node000000"><a xlink:href="db/ded/classqugar_1_1impl_1_1funcs_1_1AnnulusBase.html" target="_top" xlink:title="2D annulus base class. The function is defined by the annulus center and major and inner radii....">
<polygon fill="white" stroke="#666666" points="121.5,-899.57 17.5,-899.57 17.5,-869.57 121.5,-869.57 121.5,-899.57"/>
<text text-anchor="start" x="25.5" y="-887.57" font-family="Helvetica,sans-Serif" font-size="10.00">qugar::impl::funcs</text>
<text text-anchor="middle" x="69.5" y="-876.57" font-family="Helvetica,sans-Serif" font-size="10.00">::AnnulusBase</text>
</a>
</g>
</g>
<!-- Node1 -->
<g id="Node000001" class="node">
<title>Node1</title>
<g id="a_Node000001"><a xlink:href="da/dd6/classqugar_1_1impl_1_1funcs_1_1Annulus.html" target="_top" xlink:title="2D annulus function. The function is defined by the annulus center and outer and inner radii....">
<polygon fill="white" stroke="#666666" points="299.5,-810.57 195.5,-810.57 195.5,-780.57 299.5,-780.57 299.5,-810.57"/>
<text text-anchor="start" x="203.5" y="-798.57" font-family="Helvetica,sans-Serif" font-size="10.00">qugar::impl::funcs</text>
<text text-anchor="middle" x="247.5" y="-787.57" font-family="Helvetica,sans-Serif" font-size="10.00">::Annulus</text>
</a>
</g>
</g>
<!-- Node0&#45;&gt;Node1 -->
<g id="edge1_Node000000_Node000001" class="edge">
<title>Node0&#45;&gt;Node1</title>
<g id="a_edge1_Node000000_Node000001"><a xlink:title=" ">
<path fill="none" stroke="#63b8ff" d="M109.54,-864.83C141.93,-848.45 187.3,-825.51 216.79,-810.6"/>
<polygon fill="#63b8ff" stroke="#63b8ff" points="107.7,-861.84 100.36,-869.48 110.86,-868.09 107.7,-861.84"/>
</a>
</g>
</g>
<!-- Node7 -->
<g id="Node000007" class="node">
<title>Node7</title>
<g id="a_Node000007"><a xlink:href="dc/d68/classqugar_1_1impl_1_1funcs_1_1AnnulusBzr.html" target="_top" xlink:title="2D annulus function. The function is defined by the annulus center and outer and inner radii....">
<polygon fill="white" stroke="#666666" points="649.5,-701.57 545.5,-701.57 545.5,-671.57 649.5,-671.57 649.5,-701.57"/>
<text text-anchor="start" x="553.5" y="-689.57" font-family="Helvetica,sans-Serif" font-size="10.00">qugar::impl::funcs</text>
<text text-anchor="middle" x="597.5" y="-678.57" font-family="Helvetica,sans-Serif" font-size="10.00">::AnnulusBzr</text>
</a>
</g>
</g>
<!-- Node0&#45;&gt;Node7 -->
<g id="edge2_Node000000_Node000007" class="edge">
<title>Node0&#45;&gt;Node7</title>
<g id="a_edge2_Node000000_Node000007"><a xlink:title=" ">
<path fill="none" stroke="#63b8ff" d="M130.71,-902.15C219.11,-924.18 385.89,-951.02 500,-879.57 565.09,-838.82 587.82,-739.57 594.29,-701.65"/>
<polygon fill="#63b8ff" stroke="#63b8ff" points="131.4,-898.71 120.84,-899.63 129.66,-905.5 131.4,-898.71"/>
</a>
</g>
</g>
<!-- Node10 -->
<g id="Node000010" class="node">
<title>Node10</title>
<g id="a_Node000010"><a xlink:href="d1/d78/classqugar_1_1impl_1_1funcs_1_1ConstantBase.html" target="_top" xlink:title="Dimension independent constant function.">
<polygon fill="white" stroke="#666666" points="121.5,-792.57 17.5,-792.57 17.5,-762.57 121.5,-762.57 121.5,-792.57"/>
<text text-anchor="start" x="25.5" y="-780.57" font-family="Helvetica,sans-Serif" font-size="10.00">qugar::impl::funcs</text>
<text text-anchor="middle" x="69.5" y="-769.57" font-family="Helvetica,sans-Serif" font-size="10.00">::ConstantBase</text>
</a>
</g>
</g>
<!-- Node11 -->
<g id="Node000011" class="node">
<title>Node11</title>
<g id="a_Node000011"><a xlink:href="d7/d02/classqugar_1_1impl_1_1funcs_1_1Constant.html" target="_top" xlink:title="Dimension independent constant function.">
<polygon fill="white" stroke="#666666" points="301,-762.57 194,-762.57 194,-732.57 301,-732.57 301,-762.57"/>
<text text-anchor="start" x="202" y="-750.57" font-family="Helvetica,sans-Serif" font-size="10.00">qugar::impl::funcs</text>
<text text-anchor="middle" x="247.5" y="-739.57" font-family="Helvetica,sans-Serif" font-size="10.00">::Constant&lt; dim &gt;</text>
</a>
</g>
</g>
<!-- Node10&#45;&gt;Node11 -->
<g id="edge3_Node000010_Node000011" class="edge">
<title>Node10&#45;&gt;Node11</title>
<g id="a_edge3_Node000010_Node000011"><a xlink:title=" ">
<path fill="none" stroke="#63b8ff" d="M131.91,-767.11C152.1,-763.66 174.35,-759.87 193.83,-756.55"/>
<polygon fill="#63b8ff" stroke="#63b8ff" points="131.15,-763.69 121.88,-768.82 132.33,-770.59 131.15,-763.69"/>
</a>
</g>
</g>
<!-- Node9 -->
<g id="Node000009" class="node">
<title>Node9</title>
<g id="a_Node000009"><a xlink:href="dd/da4/classqugar_1_1impl_1_1funcs_1_1ConstantBzr.html" target="_top" xlink:title="Dimension independent constant function.">
<polygon fill="white" stroke="#666666" points="659,-653.57 536,-653.57 536,-623.57 659,-623.57 659,-653.57"/>
<text text-anchor="start" x="544" y="-641.57" font-family="Helvetica,sans-Serif" font-size="10.00">qugar::impl::funcs</text>
<text text-anchor="middle" x="597.5" y="-630.57" font-family="Helvetica,sans-Serif" font-size="10.00">::ConstantBzr&lt; dim &gt;</text>
</a>
</g>
</g>
<!-- Node10&#45;&gt;Node9 -->
<g id="edge4_Node000010_Node000009" class="edge">
<title>Node10&#45;&gt;Node9</title>
<g id="a_edge4_Node000010_Node000009"><a xlink:title=" ">
<path fill="none" stroke="#63b8ff" d="M92.55,-799.8C112.24,-817.95 142.86,-842.24 175,-852.57 243.75,-874.69 444.38,-898.64 500,-852.57 566.19,-797.75 481.28,-728.85 536,-662.57 538.81,-659.18 542.16,-656.26 545.83,-653.75"/>
<polygon fill="#63b8ff" stroke="#63b8ff" points="94.72,-797.04 85.06,-792.7 89.91,-802.12 94.72,-797.04"/>
</a>
</g>
</g>
<!-- Node23 -->
<g id="Node000023" class="node">
<title>Node23</title>
<g id="a_Node000023"><a xlink:href="d5/d65/classqugar_1_1impl_1_1funcs_1_1CylinderBase.html" target="_top" xlink:title="Infinite cylinder base class.">
<polygon fill="white" stroke="#666666" points="121.5,-134.57 17.5,-134.57 17.5,-104.57 121.5,-104.57 121.5,-134.57"/>
<text text-anchor="start" x="25.5" y="-122.57" font-family="Helvetica,sans-Serif" font-size="10.00">qugar::impl::funcs</text>
<text text-anchor="middle" x="69.5" y="-111.57" font-family="Helvetica,sans-Serif" font-size="10.00">::CylinderBase</text>
</a>
</g>
</g>
<!-- Node24 -->
<g id="Node000024" class="node">
<title>Node24</title>
<g id="a_Node000024"><a xlink:href="d6/dcd/classqugar_1_1impl_1_1funcs_1_1Cylinder.html" target="_top" xlink:title="Infinite cylinder.">
<polygon fill="white" stroke="#666666" points="299.5,-134.57 195.5,-134.57 195.5,-104.57 299.5,-104.57 299.5,-134.57"/>
<text text-anchor="start" x="203.5" y="-122.57" font-family="Helvetica,sans-Serif" font-size="10.00">qugar::impl::funcs</text>
<text text-anchor="middle" x="247.5" y="-111.57" font-family="Helvetica,sans-Serif" font-size="10.00">::Cylinder</text>
</a>
</g>
</g>
<!-- Node23&#45;&gt;Node24 -->
<g id="edge5_Node000023_Node000024" class="edge">
<title>Node23&#45;&gt;Node24</title>
<g id="a_edge5_Node000023_Node000024"><a xlink:title=" ">
<path fill="none" stroke="#63b8ff" d="M132.14,-119.57C152.8,-119.57 175.6,-119.57 195.36,-119.57"/>
<polygon fill="#63b8ff" stroke="#63b8ff" points="131.88,-116.07 121.88,-119.57 131.88,-123.07 131.88,-116.07"/>
</a>
</g>
</g>
<!-- Node22 -->
<g id="Node000022" class="node">
<title>Node22</title>
<g id="a_Node000022"><a xlink:href="dc/de2/classqugar_1_1impl_1_1funcs_1_1CylinderBzr.html" target="_top" xlink:title="Infinite cylinder.">
<polygon fill="white" stroke="#666666" points="649.5,-298.57 545.5,-298.57 545.5,-268.57 649.5,-268.57 649.5,-298.57"/>
<text text-anchor="start" x="553.5" y="-286.57" font-family="Helvetica,sans-Serif" font-size="10.00">qugar::impl::funcs</text>
<text text-anchor="middle" x="597.5" y="-275.57" font-family="Helvetica,sans-Serif" font-size="10.00">::CylinderBzr</text>
</a>
</g>
</g>
<!-- Node23&#45;&gt;Node22 -->
<g id="edge6_Node000023_Node000022" class="edge">
<title>Node23&#45;&gt;Node22</title>
<g id="a_edge6_Node000023_Node000022"><a xlink:title=" ">
<path fill="none" stroke="#63b8ff" d="M93.41,-97.61C113.23,-80.24 143.57,-57.35 175,-47.57 236.53,-28.43 257.65,-31.28 320,-47.57 408.75,-70.77 431.69,-87.35 500,-148.57 540.76,-185.11 574.17,-241.78 588.69,-268.57"/>
<polygon fill="#63b8ff" stroke="#63b8ff" points="90.94,-95.13 85.85,-104.42 95.62,-100.33 90.94,-95.13"/>
</a>
</g>
</g>
<!-- Node2 -->
<g id="Node000002" class="node">
<title>Node2</title>
<g id="a_Node000002"><a xlink:href="dd/d80/classqugar_1_1impl_1_1DomainFunc.html" target="_top" xlink:title="Domain functions.">
<polygon fill="white" stroke="#666666" points="139,-495.57 0,-495.57 0,-465.57 139,-465.57 139,-495.57"/>
<text text-anchor="start" x="8" y="-483.57" font-family="Helvetica,sans-Serif" font-size="10.00">qugar::impl::DomainFunc</text>
<text text-anchor="middle" x="69.5" y="-472.57" font-family="Helvetica,sans-Serif" font-size="10.00">&lt; dim, range &gt;</text>
</a>
</g>
</g>
<!-- Node2&#45;&gt;Node1 -->
<g id="edge22_Node000002_Node000001" class="edge">
<title>Node2&#45;&gt;Node1</title>
<g id="a_edge22_Node000002_Node000001"><a xlink:title=" ">
<path fill="none" stroke="#63b8ff" d="M78.08,-505.49C98.6,-572.35 155.07,-752.06 175,-771.57 180.71,-777.16 187.75,-781.45 195.18,-784.74"/>
<polygon fill="#63b8ff" stroke="#63b8ff" points="81.37,-504.3 75.1,-495.76 74.68,-506.35 81.37,-504.3"/>
</a>
</g>
</g>
<!-- Node2&#45;&gt;Node11 -->
<g id="edge23_Node000002_Node000011" class="edge">
<title>Node2&#45;&gt;Node11</title>
<g id="a_edge23_Node000002_Node000011"><a xlink:title=" ">
<path fill="none" stroke="#63b8ff" d="M74.41,-505.93C83.29,-554.97 109.52,-663.27 175,-723.57 180.39,-728.54 186.85,-732.48 193.64,-735.61"/>
<polygon fill="#63b8ff" stroke="#63b8ff" points="77.82,-505.13 72.68,-495.87 70.92,-506.32 77.82,-505.13"/>
</a>
</g>
</g>
<!-- Node2&#45;&gt;Node24 -->
<g id="edge24_Node000002_Node000024" class="edge">
<title>Node2&#45;&gt;Node24</title>
<g id="a_edge24_Node000002_Node000024"><a xlink:title=" ">
<path fill="none" stroke="#63b8ff" d="M81.16,-455.67C94.87,-423.46 119.26,-365.55 139,-315.57 155.74,-273.19 153.56,-259.79 175,-219.57 192.17,-187.37 218.3,-153.57 233.76,-134.68"/>
<polygon fill="#63b8ff" stroke="#63b8ff" points="77.8,-454.61 77.1,-465.18 84.24,-457.35 77.8,-454.61"/>
</a>
</g>
</g>
<!-- Node3 -->
<g id="Node000003" class="node">
<title>Node3</title>
<g id="a_Node000003"><a xlink:href="d2/d05/classqugar_1_1impl_1_1PolynomialTP.html" target="_top" xlink:title=" ">
<polygon fill="white" stroke="#666666" points="320,-666.57 175,-666.57 175,-636.57 320,-636.57 320,-666.57"/>
<text text-anchor="start" x="183" y="-654.57" font-family="Helvetica,sans-Serif" font-size="10.00">qugar::impl::PolynomialTP</text>
<text text-anchor="middle" x="247.5" y="-643.57" font-family="Helvetica,sans-Serif" font-size="10.00">&lt; dim, 1 &gt;</text>
</a>
</g>
</g>
<!-- Node2&#45;&gt;Node3 -->
<g id="edge7_Node000002_Node000003" class="edge">
<title>Node2&#45;&gt;Node3</title>
<g id="a_edge7_Node000002_Node000003"><a xlink:title=" ">
<path fill="none" stroke="#63b8ff" d="M81.82,-505.15C98.02,-537.69 130.79,-594.77 175,-627.57 179.63,-631.01 184.78,-633.97 190.13,-636.52"/>
<polygon fill="#63b8ff" stroke="#63b8ff" points="84.85,-503.37 77.33,-495.9 78.55,-506.42 84.85,-503.37"/>
</a>
</g>
</g>
<!-- Node5 -->
<g id="Node000005" class="node">
<title>Node5</title>
<g id="a_Node000005"><a xlink:href="d2/d05/classqugar_1_1impl_1_1PolynomialTP.html" target="_top" xlink:title="Base class for tensor&#45;product polynomial functions.">
<polygon fill="white" stroke="#666666" points="320,-618.57 175,-618.57 175,-588.57 320,-588.57 320,-618.57"/>
<text text-anchor="start" x="183" y="-606.57" font-family="Helvetica,sans-Serif" font-size="10.00">qugar::impl::PolynomialTP</text>
<text text-anchor="middle" x="247.5" y="-595.57" font-family="Helvetica,sans-Serif" font-size="10.00">&lt; dim, range &gt;</text>
</a>
</g>
</g>
<!-- Node2&#45;&gt;Node5 -->
<g id="edge9_Node000002_Node000005" class="edge">
<title>Node2&#45;&gt;Node5</title>
<g id="a_edge9_Node000002_Node000005"><a xlink:title=" ">
<path fill="none" stroke="#63b8ff" d="M89.32,-503.45C108.71,-525.7 140.85,-559.05 175,-579.57 180.61,-582.95 186.76,-585.92 193.02,-588.51"/>
<polygon fill="#63b8ff" stroke="#63b8ff" points="91.93,-501.12 82.77,-495.8 86.61,-505.67 91.93,-501.12"/>
</a>
</g>
</g>
<!-- Node29 -->
<g id="Node000029" class="node">
<title>Node29</title>
<g id="a_Node000029"><a xlink:href="d3/deb/classqugar_1_1impl_1_1funcs_1_1AddFunctions.html" target="_top" xlink:title="This function adds two functions together.">
<polygon fill="white" stroke="#666666" points="312,-570.57 183,-570.57 183,-540.57 312,-540.57 312,-570.57"/>
<text text-anchor="start" x="191" y="-558.57" font-family="Helvetica,sans-Serif" font-size="10.00">qugar::impl::funcs</text>
<text text-anchor="middle" x="247.5" y="-547.57" font-family="Helvetica,sans-Serif" font-size="10.00">::AddFunctions&lt; dim &gt;</text>
</a>
</g>
</g>
<!-- Node2&#45;&gt;Node29 -->
<g id="edge21_Node000002_Node000029" class="edge">
<title>Node2&#45;&gt;Node29</title>
<g id="a_edge21_Node000002_Node000029"><a xlink:title=" ">
<path fill="none" stroke="#63b8ff" d="M107.82,-500.26C127.52,-510.27 152.26,-522.26 175,-531.57 182.63,-534.7 190.84,-537.74 198.87,-540.55"/>
<polygon fill="#63b8ff" stroke="#63b8ff" points="109.37,-497.12 98.87,-495.67 106.17,-503.35 109.37,-497.12"/>
</a>
</g>
</g>
<!-- Node14 -->
<g id="Node000014" class="node">
<title>Node14</title>
<g id="a_Node000014"><a xlink:href="d7/d1f/classqugar_1_1impl_1_1funcs_1_1Ellipsoid.html" target="_top" xlink:title="Dimension independent ellipsoidal function. The function is defined by the ellipsoid&#39;s semi&#45;axes and ...">
<polygon fill="white" stroke="#666666" points="300,-714.57 195,-714.57 195,-684.57 300,-684.57 300,-714.57"/>
<text text-anchor="start" x="203" y="-702.57" font-family="Helvetica,sans-Serif" font-size="10.00">qugar::impl::funcs</text>
<text text-anchor="middle" x="247.5" y="-691.57" font-family="Helvetica,sans-Serif" font-size="10.00">::Ellipsoid&lt; dim &gt;</text>
</a>
</g>
</g>
<!-- Node2&#45;&gt;Node14 -->
<g id="edge25_Node000002_Node000014" class="edge">
<title>Node2&#45;&gt;Node14</title>
<g id="a_edge25_Node000002_Node000014"><a xlink:title=" ">
<path fill="none" stroke="#63b8ff" d="M77.27,-505.51C89.74,-546.77 120.2,-629.29 175,-675.57 180.8,-680.47 187.65,-684.39 194.76,-687.51"/>
<polygon fill="#63b8ff" stroke="#63b8ff" points="80.58,-504.34 74.42,-495.72 73.86,-506.3 80.58,-504.34"/>
</a>
</g>
</g>
<!-- Node30 -->
<g id="Node000030" class="node">
<title>Node30</title>
<g id="a_Node000030"><a xlink:href="d0/de9/classqugar_1_1impl_1_1funcs_1_1FuncWithAffineTransf.html" target="_top" xlink:title="Function containing an affine transformation.">
<polygon fill="white" stroke="#666666" points="310,-366.07 185,-366.07 185,-325.07 310,-325.07 310,-366.07"/>
<text text-anchor="start" x="193" y="-354.07" font-family="Helvetica,sans-Serif" font-size="10.00">qugar::impl::funcs</text>
<text text-anchor="start" x="193" y="-343.07" font-family="Helvetica,sans-Serif" font-size="10.00">::FuncWithAffineTransf</text>
<text text-anchor="middle" x="247.5" y="-332.07" font-family="Helvetica,sans-Serif" font-size="10.00">&lt; dim &gt;</text>
</a>
</g>
</g>
<!-- Node2&#45;&gt;Node30 -->
<g id="edge26_Node000002_Node000030" class="edge">
<title>Node2&#45;&gt;Node30</title>
<g id="a_edge26_Node000002_Node000030"><a xlink:title=" ">
<path fill="none" stroke="#63b8ff" d="M88.73,-457.57C108.09,-434.36 140.61,-398.73 175,-375.57 180.03,-372.19 185.49,-369.07 191.09,-366.22"/>
<polygon fill="#63b8ff" stroke="#63b8ff" points="85.85,-455.56 82.21,-465.51 91.26,-460 85.85,-455.56"/>
</a>
</g>
</g>
<!-- Node34 -->
<g id="Node000034" class="node">
<title>Node34</title>
<g id="a_Node000034"><a xlink:href="d2/d90/classqugar_1_1impl_1_1funcs_1_1Negative.html" target="_top" xlink:title="This function computes the negative of a given function.">
<polygon fill="white" stroke="#666666" points="301.5,-522.57 193.5,-522.57 193.5,-492.57 301.5,-492.57 301.5,-522.57"/>
<text text-anchor="start" x="201.5" y="-510.57" font-family="Helvetica,sans-Serif" font-size="10.00">qugar::impl::funcs</text>
<text text-anchor="middle" x="247.5" y="-499.57" font-family="Helvetica,sans-Serif" font-size="10.00">::Negative&lt; dim &gt;</text>
</a>
</g>
</g>
<!-- Node2&#45;&gt;Node34 -->
<g id="edge30_Node000002_Node000034" class="edge">
<title>Node2&#45;&gt;Node34</title>
<g id="a_edge30_Node000002_Node000034"><a xlink:title=" ">
<path fill="none" stroke="#63b8ff" d="M149.3,-492.66C164.22,-494.95 179.5,-497.3 193.4,-499.43"/>
<polygon fill="#63b8ff" stroke="#63b8ff" points="149.47,-489.15 139.05,-491.09 148.4,-496.07 149.47,-489.15"/>
</a>
</g>
</g>
<!-- Node17 -->
<g id="Node000017" class="node">
<title>Node17</title>
<g id="a_Node000017"><a xlink:href="d2/d3b/classqugar_1_1impl_1_1funcs_1_1Plane.html" target="_top" xlink:title="Plane function.">
<polygon fill="white" stroke="#666666" points="299.5,-306.57 195.5,-306.57 195.5,-276.57 299.5,-276.57 299.5,-306.57"/>
<text text-anchor="start" x="203.5" y="-294.57" font-family="Helvetica,sans-Serif" font-size="10.00">qugar::impl::funcs</text>
<text text-anchor="middle" x="247.5" y="-283.57" font-family="Helvetica,sans-Serif" font-size="10.00">::Plane&lt; dim &gt;</text>
</a>
</g>
</g>
<!-- Node2&#45;&gt;Node17 -->
<g id="edge31_Node000002_Node000017" class="edge">
<title>Node2&#45;&gt;Node17</title>
<g id="a_edge31_Node000002_Node000017"><a xlink:title=" ">
<path fill="none" stroke="#63b8ff" d="M79.91,-455.67C94.75,-419.67 126.92,-353.28 175,-315.57 181.08,-310.81 188.15,-306.96 195.44,-303.87"/>
<polygon fill="#63b8ff" stroke="#63b8ff" points="76.49,-454.8 76.03,-465.38 82.99,-457.4 76.49,-454.8"/>
</a>
</g>
</g>
<!-- Node20 -->
<g id="Node000020" class="node">
<title>Node20</title>
<g id="a_Node000020"><a xlink:href="d1/def/classqugar_1_1impl_1_1funcs_1_1Sphere.html" target="_top" xlink:title="Dimension independent spherical function. The function is defined by its center and radius....">
<polygon fill="white" stroke="#666666" points="299.5,-258.57 195.5,-258.57 195.5,-228.57 299.5,-228.57 299.5,-258.57"/>
<text text-anchor="start" x="203.5" y="-246.57" font-family="Helvetica,sans-Serif" font-size="10.00">qugar::impl::funcs</text>
<text text-anchor="middle" x="247.5" y="-235.57" font-family="Helvetica,sans-Serif" font-size="10.00">::Sphere&lt; dim &gt;</text>
</a>
</g>
</g>
<!-- Node2&#45;&gt;Node20 -->
<g id="edge32_Node000002_Node000020" class="edge">
<title>Node2&#45;&gt;Node20</title>
<g id="a_edge32_Node000002_Node000020"><a xlink:title=" ">
<path fill="none" stroke="#63b8ff" d="M79.75,-456.06C99.08,-405.95 144.49,-294.3 175,-267.57 180.91,-262.4 187.98,-258.33 195.34,-255.13"/>
<polygon fill="#63b8ff" stroke="#63b8ff" points="76.45,-454.9 76.14,-465.49 82.98,-457.4 76.45,-454.9"/>
</a>
</g>
</g>
<!-- Node35 -->
<g id="Node000035" class="node">
<title>Node35</title>
<g id="a_Node000035"><a xlink:href="dc/dde/classqugar_1_1impl_1_1funcs_1_1SubtractFunctions.html" target="_top" xlink:title="This function subtracts two functions.">
<polygon fill="white" stroke="#666666" points="302.5,-474.07 192.5,-474.07 192.5,-433.07 302.5,-433.07 302.5,-474.07"/>
<text text-anchor="start" x="200.5" y="-462.07" font-family="Helvetica,sans-Serif" font-size="10.00">qugar::impl::funcs</text>
<text text-anchor="start" x="200.5" y="-451.07" font-family="Helvetica,sans-Serif" font-size="10.00">::SubtractFunctions</text>
<text text-anchor="middle" x="247.5" y="-440.07" font-family="Helvetica,sans-Serif" font-size="10.00">&lt; dim &gt;</text>
</a>
</g>
</g>
<!-- Node2&#45;&gt;Node35 -->
<g id="edge33_Node000002_Node000035" class="edge">
<title>Node2&#45;&gt;Node35</title>
<g id="a_edge33_Node000002_Node000035"><a xlink:title=" ">
<path fill="none" stroke="#63b8ff" d="M149.08,-468.52C163.68,-466.28 178.63,-463.99 192.3,-461.89"/>
<polygon fill="#63b8ff" stroke="#63b8ff" points="148.4,-465.08 139.05,-470.06 149.47,-472 148.4,-465.08"/>
</a>
</g>
</g>
<!-- Node27 -->
<g id="Node000027" class="node">
<title>Node27</title>
<g id="a_Node000027"><a xlink:href="db/d99/classqugar_1_1impl_1_1funcs_1_1Torus.html" target="_top" xlink:title="3D torus function. The function is defined by the torus center, axis, and major and inner radii....">
<polygon fill="white" stroke="#666666" points="299.5,-86.57 195.5,-86.57 195.5,-56.57 299.5,-56.57 299.5,-86.57"/>
<text text-anchor="start" x="203.5" y="-74.57" font-family="Helvetica,sans-Serif" font-size="10.00">qugar::impl::funcs</text>
<text text-anchor="middle" x="247.5" y="-63.57" font-family="Helvetica,sans-Serif" font-size="10.00">::Torus</text>
</a>
</g>
</g>
<!-- Node2&#45;&gt;Node27 -->
<g id="edge34_Node000002_Node000027" class="edge">
<title>Node2&#45;&gt;Node27</title>
<g id="a_edge34_Node000002_Node000027"><a xlink:title=" ">
<path fill="none" stroke="#63b8ff" d="M82.72,-456.2C98.1,-424.55 124.26,-367.25 139,-315.57 166.18,-220.3 110.83,-171.06 175,-95.57 180.43,-89.19 187.61,-84.5 195.33,-81.05"/>
<polygon fill="#63b8ff" stroke="#63b8ff" points="79.41,-455.01 78.14,-465.53 85.69,-458.1 79.41,-455.01"/>
</a>
</g>
</g>
<!-- Node36 -->
<g id="Node000036" class="node">
<title>Node36</title>
<g id="a_Node000036"><a xlink:href="dc/df7/classqugar_1_1impl_1_1tpms_1_1TPMSBase.html" target="_top" xlink:title=" ">
<polygon fill="white" stroke="#666666" points="302,-414.57 193,-414.57 193,-384.57 302,-384.57 302,-414.57"/>
<text text-anchor="start" x="201" y="-402.57" font-family="Helvetica,sans-Serif" font-size="10.00">qugar::impl::tpms::</text>
<text text-anchor="middle" x="247.5" y="-391.57" font-family="Helvetica,sans-Serif" font-size="10.00">TPMSBase&lt; dim &gt;</text>
</a>
</g>
</g>
<!-- Node2&#45;&gt;Node36 -->
<g id="edge35_Node000002_Node000036" class="edge">
<title>Node2&#45;&gt;Node36</title>
<g id="a_edge35_Node000002_Node000036"><a xlink:title=" ">
<path fill="none" stroke="#63b8ff" d="M104.91,-460.39C124.97,-449.06 150.98,-435.13 175,-424.57 182.95,-421.08 191.55,-417.73 199.94,-414.67"/>
<polygon fill="#63b8ff" stroke="#63b8ff" points="103.09,-457.39 96.14,-465.38 106.56,-463.47 103.09,-457.39"/>
</a>
</g>
</g>
<!-- Node4 -->
<g id="Node000004" class="node">
<title>Node4</title>
<g id="a_Node000004"><a xlink:href="d2/d87/classqugar_1_1impl_1_1MonomialsTP.html" target="_top" xlink:title="dim&#45;dimensional tensor&#45;product monomials function.">
<polygon fill="white" stroke="#666666" points="500,-714.57 356,-714.57 356,-684.57 500,-684.57 500,-714.57"/>
<text text-anchor="start" x="364" y="-702.57" font-family="Helvetica,sans-Serif" font-size="10.00">qugar::impl::MonomialsTP</text>
<text text-anchor="middle" x="428" y="-691.57" font-family="Helvetica,sans-Serif" font-size="10.00">&lt; dim, range &gt;</text>
</a>
</g>
</g>
<!-- Node3&#45;&gt;Node4 -->
<g id="edge8_Node000003_Node000004" class="edge">
<title>Node3&#45;&gt;Node4</title>
<g id="a_edge8_Node000003_Node000004"><a xlink:title=" ">
<path fill="none" stroke="#63b8ff" d="M314.39,-669.29C333.06,-674.31 353.2,-679.73 371.21,-684.57"/>
<polygon fill="#63b8ff" stroke="#63b8ff" points="315.05,-665.85 304.49,-666.63 313.24,-672.61 315.05,-665.85"/>
</a>
</g>
</g>
<!-- Node6 -->
<g id="Node000006" class="node">
<title>Node6</title>
<g id="a_Node000006"><a xlink:href="de/dca/classqugar_1_1impl_1_1BezierTP.html" target="_top" xlink:title=" ">
<polygon fill="white" stroke="#666666" points="488.5,-666.57 367.5,-666.57 367.5,-636.57 488.5,-636.57 488.5,-666.57"/>
<text text-anchor="start" x="375.5" y="-654.57" font-family="Helvetica,sans-Serif" font-size="10.00">qugar::impl::BezierTP</text>
<text text-anchor="middle" x="428" y="-643.57" font-family="Helvetica,sans-Serif" font-size="10.00">&lt; 2, 1 &gt;</text>
</a>
</g>
</g>
<!-- Node5&#45;&gt;Node6 -->
<g id="edge10_Node000005_Node000006" class="edge">
<title>Node5&#45;&gt;Node6</title>
<g id="a_edge10_Node000005_Node000006"><a xlink:title=" ">
<path fill="none" stroke="#63b8ff" d="M314.39,-621.29C333.06,-626.31 353.2,-631.73 371.21,-636.57"/>
<polygon fill="#63b8ff" stroke="#63b8ff" points="315.05,-617.85 304.49,-618.63 313.24,-624.61 315.05,-617.85"/>
</a>
</g>
</g>
<!-- Node8 -->
<g id="Node000008" class="node">
<title>Node8</title>
<g id="a_Node000008"><a xlink:href="de/dca/classqugar_1_1impl_1_1BezierTP.html" target="_top" xlink:title=" ">
<polygon fill="white" stroke="#666666" points="488.5,-570.57 367.5,-570.57 367.5,-540.57 488.5,-540.57 488.5,-570.57"/>
<text text-anchor="start" x="375.5" y="-558.57" font-family="Helvetica,sans-Serif" font-size="10.00">qugar::impl::BezierTP</text>
<text text-anchor="middle" x="428" y="-547.57" font-family="Helvetica,sans-Serif" font-size="10.00">&lt; dim, 1 &gt;</text>
</a>
</g>
</g>
<!-- Node5&#45;&gt;Node8 -->
<g id="edge12_Node000005_Node000008" class="edge">
<title>Node5&#45;&gt;Node8</title>
<g id="a_edge12_Node000005_Node000008"><a xlink:title=" ">
<path fill="none" stroke="#63b8ff" d="M314.39,-585.86C333.06,-580.83 353.2,-575.42 371.21,-570.58"/>
<polygon fill="#63b8ff" stroke="#63b8ff" points="313.24,-582.54 304.49,-588.52 315.05,-589.3 313.24,-582.54"/>
</a>
</g>
</g>
<!-- Node21 -->
<g id="Node000021" class="node">
<title>Node21</title>
<g id="a_Node000021"><a xlink:href="de/dca/classqugar_1_1impl_1_1BezierTP.html" target="_top" xlink:title=" ">
<polygon fill="white" stroke="#666666" points="488.5,-438.57 367.5,-438.57 367.5,-408.57 488.5,-408.57 488.5,-438.57"/>
<text text-anchor="start" x="375.5" y="-426.57" font-family="Helvetica,sans-Serif" font-size="10.00">qugar::impl::BezierTP</text>
<text text-anchor="middle" x="428" y="-415.57" font-family="Helvetica,sans-Serif" font-size="10.00">&lt; 3, 1 &gt;</text>
</a>
</g>
</g>
<!-- Node5&#45;&gt;Node21 -->
<g id="edge17_Node000005_Node000021" class="edge">
<title>Node5&#45;&gt;Node21</title>
<g id="a_edge17_Node000005_Node000021"><a xlink:title=" ">
<path fill="none" stroke="#63b8ff" d="M314.29,-583.48C316.27,-582.25 318.17,-580.95 320,-579.57 326.73,-574.49 391.61,-477.05 416.94,-438.8"/>
<polygon fill="#63b8ff" stroke="#63b8ff" points="312.38,-580.54 305.29,-588.42 315.74,-586.68 312.38,-580.54"/>
</a>
</g>
</g>
<!-- Node28 -->
<g id="Node000028" class="node">
<title>Node28</title>
<g id="a_Node000028"><a xlink:href="de/dca/classqugar_1_1impl_1_1BezierTP.html" target="_top" xlink:title="dim&#45;dimensional tensor&#45;product Bezier polynomial function.">
<polygon fill="white" stroke="#666666" points="488.5,-618.57 367.5,-618.57 367.5,-588.57 488.5,-588.57 488.5,-618.57"/>
<text text-anchor="start" x="375.5" y="-606.57" font-family="Helvetica,sans-Serif" font-size="10.00">qugar::impl::BezierTP</text>
<text text-anchor="middle" x="428" y="-595.57" font-family="Helvetica,sans-Serif" font-size="10.00">&lt; dim, range &gt;</text>
</a>
</g>
</g>
<!-- Node5&#45;&gt;Node28 -->
<g id="edge20_Node000005_Node000028" class="edge">
<title>Node5&#45;&gt;Node28</title>
<g id="a_edge20_Node000005_Node000028"><a xlink:title=" ">
<path fill="none" stroke="#63b8ff" d="M330.1,-603.57C342.68,-603.57 355.46,-603.57 367.44,-603.57"/>
<polygon fill="#63b8ff" stroke="#63b8ff" points="330.07,-600.07 320.07,-603.57 330.07,-607.07 330.07,-600.07"/>
</a>
</g>
</g>
<!-- Node6&#45;&gt;Node7 -->
<g id="edge11_Node000006_Node000007" class="edge">
<title>Node6&#45;&gt;Node7</title>
<g id="a_edge11_Node000006_Node000007"><a xlink:title=" ">
<path fill="none" stroke="#63b8ff" d="M498.71,-666.14C514.39,-669.42 530.74,-672.83 545.49,-675.91"/>
<polygon fill="#63b8ff" stroke="#63b8ff" points="499.03,-662.63 488.53,-664.01 497.6,-669.48 499.03,-662.63"/>
</a>
</g>
</g>
<!-- Node8&#45;&gt;Node9 -->
<g id="edge13_Node000008_Node000009" class="edge">
<title>Node8&#45;&gt;Node9</title>
<g id="a_edge13_Node000008_Node000009"><a xlink:title=" ">
<path fill="none" stroke="#63b8ff" d="M491.32,-574.79C494.31,-576.28 497.22,-577.88 500,-579.57 519.04,-591.21 517.27,-602.45 536,-614.57 541.12,-617.89 546.78,-620.87 552.51,-623.52"/>
<polygon fill="#63b8ff" stroke="#63b8ff" points="492.7,-571.57 482.15,-570.59 489.79,-577.94 492.7,-571.57"/>
</a>
</g>
</g>
<!-- Node12 -->
<g id="Node000012" class="node">
<title>Node12</title>
<g id="a_Node000012"><a xlink:href="d6/d06/classqugar_1_1impl_1_1funcs_1_1EllipsoidBzr.html" target="_top" xlink:title="Dimension independent ellipsoidal function. The function is defined by the ellipsoid&#39;s semi&#45;axes and ...">
<polygon fill="white" stroke="#666666" points="658,-605.57 537,-605.57 537,-575.57 658,-575.57 658,-605.57"/>
<text text-anchor="start" x="545" y="-593.57" font-family="Helvetica,sans-Serif" font-size="10.00">qugar::impl::funcs</text>
<text text-anchor="middle" x="597.5" y="-582.57" font-family="Helvetica,sans-Serif" font-size="10.00">::EllipsoidBzr&lt; dim &gt;</text>
</a>
</g>
</g>
<!-- Node8&#45;&gt;Node12 -->
<g id="edge14_Node000008_Node000012" class="edge">
<title>Node8&#45;&gt;Node12</title>
<g id="a_edge14_Node000008_Node000012"><a xlink:title=" ">
<path fill="none" stroke="#63b8ff" d="M498.61,-570.12C511.32,-572.78 524.49,-575.53 536.88,-578.12"/>
<polygon fill="#63b8ff" stroke="#63b8ff" points="499.03,-566.63 488.53,-568.01 497.6,-573.48 499.03,-566.63"/>
</a>
</g>
</g>
<!-- Node15 -->
<g id="Node000015" class="node">
<title>Node15</title>
<g id="a_Node000015"><a xlink:href="dd/d35/classqugar_1_1impl_1_1funcs_1_1PlaneBzr.html" target="_top" xlink:title="Plane function.">
<polygon fill="white" stroke="#666666" points="651,-534.57 544,-534.57 544,-504.57 651,-504.57 651,-534.57"/>
<text text-anchor="start" x="552" y="-522.57" font-family="Helvetica,sans-Serif" font-size="10.00">qugar::impl::funcs</text>
<text text-anchor="middle" x="597.5" y="-511.57" font-family="Helvetica,sans-Serif" font-size="10.00">::PlaneBzr&lt; dim &gt;</text>
</a>
</g>
</g>
<!-- Node8&#45;&gt;Node15 -->
<g id="edge15_Node000008_Node000015" class="edge">
<title>Node8&#45;&gt;Node15</title>
<g id="a_edge15_Node000008_Node000015"><a xlink:title=" ">
<path fill="none" stroke="#63b8ff" d="M498.4,-540.66C513.59,-537.39 529.43,-533.99 543.85,-530.89"/>
<polygon fill="#63b8ff" stroke="#63b8ff" points="497.57,-537.26 488.53,-542.78 499.04,-544.1 497.57,-537.26"/>
</a>
</g>
</g>
<!-- Node18 -->
<g id="Node000018" class="node">
<title>Node18</title>
<g id="a_Node000018"><a xlink:href="d1/dfc/classqugar_1_1impl_1_1funcs_1_1SphereBzr.html" target="_top" xlink:title="Dimension independent spherical function. The function is defined by its center and radius....">
<polygon fill="white" stroke="#666666" points="654,-439.57 541,-439.57 541,-409.57 654,-409.57 654,-439.57"/>
<text text-anchor="start" x="549" y="-427.57" font-family="Helvetica,sans-Serif" font-size="10.00">qugar::impl::funcs</text>
<text text-anchor="middle" x="597.5" y="-416.57" font-family="Helvetica,sans-Serif" font-size="10.00">::SphereBzr&lt; dim &gt;</text>
</a>
</g>
</g>
<!-- Node8&#45;&gt;Node18 -->
<g id="edge16_Node000008_Node000018" class="edge">
<title>Node8&#45;&gt;Node18</title>
<g id="a_edge16_Node000008_Node000018"><a xlink:title=" ">
<path fill="none" stroke="#63b8ff" d="M456.33,-534.2C490.33,-507.61 547.53,-462.88 577.25,-439.63"/>
<polygon fill="#63b8ff" stroke="#63b8ff" points="453.94,-531.63 448.21,-540.55 458.25,-537.14 453.94,-531.63"/>
</a>
</g>
</g>
<!-- Node21&#45;&gt;Node22 -->
<g id="edge18_Node000021_Node000022" class="edge">
<title>Node21&#45;&gt;Node22</title>
<g id="a_edge18_Node000021_Node000022"><a xlink:title=" ">
<path fill="none" stroke="#63b8ff" d="M493,-403.91C495.42,-402.55 497.76,-401.11 500,-399.57 540.18,-372 572.91,-323.26 587.81,-298.67"/>
<polygon fill="#63b8ff" stroke="#63b8ff" points="491.34,-400.83 483.98,-408.46 494.49,-407.08 491.34,-400.83"/>
</a>
</g>
</g>
<!-- Node25 -->
<g id="Node000025" class="node">
<title>Node25</title>
<g id="a_Node000025"><a xlink:href="d0/dc9/classqugar_1_1impl_1_1funcs_1_1TorusBzr.html" target="_top" xlink:title="3D torus function. The function is defined by the torus center, axis, and major and inner radii....">
<polygon fill="white" stroke="#666666" points="649.5,-64.57 545.5,-64.57 545.5,-34.57 649.5,-34.57 649.5,-64.57"/>
<text text-anchor="start" x="553.5" y="-52.57" font-family="Helvetica,sans-Serif" font-size="10.00">qugar::impl::funcs</text>
<text text-anchor="middle" x="597.5" y="-41.57" font-family="Helvetica,sans-Serif" font-size="10.00">::TorusBzr</text>
</a>
</g>
</g>
<!-- Node21&#45;&gt;Node25 -->
<g id="edge19_Node000021_Node000025" class="edge">
<title>Node21&#45;&gt;Node25</title>
<g id="a_edge19_Node000021_Node000025"><a xlink:title=" ">
<path fill="none" stroke="#63b8ff" d="M497.11,-402.43C498.12,-401.52 499.08,-400.57 500,-399.57 543.71,-352.49 519.11,-321.56 536,-259.57 555.95,-186.36 581.66,-99.37 591.95,-64.81"/>
<polygon fill="#63b8ff" stroke="#63b8ff" points="494.68,-399.88 488.79,-408.68 498.89,-405.48 494.68,-399.88"/>
</a>
</g>
</g>
<!-- Node31 -->
<g id="Node000031" class="node">
<title>Node31</title>
<g id="a_Node000031"><a xlink:href="d8/dba/classqugar_1_1impl_1_1funcs_1_1DimLinear.html" target="_top" xlink:title="dim&#45;linear function.">
<polygon fill="white" stroke="#666666" points="485,-282.57 371,-282.57 371,-252.57 485,-252.57 485,-282.57"/>
<text text-anchor="start" x="379" y="-270.57" font-family="Helvetica,sans-Serif" font-size="10.00">qugar::impl::funcs</text>
<text text-anchor="middle" x="428" y="-259.57" font-family="Helvetica,sans-Serif" font-size="10.00">::DimLinear&lt; dim &gt;</text>
</a>
</g>
</g>
<!-- Node30&#45;&gt;Node31 -->
<g id="edge27_Node000030_Node000031" class="edge">
<title>Node30&#45;&gt;Node31</title>
<g id="a_edge27_Node000030_Node000031"><a xlink:title=" ">
<path fill="none" stroke="#63b8ff" d="M310.06,-320.65C313.45,-319 316.79,-317.3 320,-315.57 336.94,-306.48 338.74,-300.06 356,-291.57 362.66,-288.3 369.87,-285.3 377.06,-282.6"/>
<polygon fill="#63b8ff" stroke="#63b8ff" points="308.54,-317.5 300.98,-324.92 311.52,-323.83 308.54,-317.5"/>
</a>
</g>
</g>
<!-- Node32 -->
<g id="Node000032" class="node">
<title>Node32</title>
<g id="a_Node000032"><a xlink:href="da/d38/classqugar_1_1impl_1_1funcs_1_1Square.html" target="_top" xlink:title="Dimension independent square function in domain [&#45;1,1]^dim.">
<polygon fill="white" stroke="#666666" points="480,-390.57 376,-390.57 376,-360.57 480,-360.57 480,-390.57"/>
<text text-anchor="start" x="384" y="-378.57" font-family="Helvetica,sans-Serif" font-size="10.00">qugar::impl::funcs</text>
<text text-anchor="middle" x="428" y="-367.57" font-family="Helvetica,sans-Serif" font-size="10.00">::Square&lt; dim &gt;</text>
</a>
</g>
</g>
<!-- Node30&#45;&gt;Node32 -->
<g id="edge28_Node000030_Node000032" class="edge">
<title>Node30&#45;&gt;Node32</title>
<g id="a_edge28_Node000030_Node000032"><a xlink:title=" ">
<path fill="none" stroke="#63b8ff" d="M320.13,-357.61C338.83,-360.76 358.59,-364.08 375.97,-367"/>
<polygon fill="#63b8ff" stroke="#63b8ff" points="320.62,-354.15 310.18,-355.94 319.46,-361.05 320.62,-354.15"/>
</a>
</g>
</g>
<!-- Node33 -->
<g id="Node000033" class="node">
<title>Node33</title>
<g id="a_Node000033"><a xlink:href="da/db2/classqugar_1_1impl_1_1funcs_1_1TransformedFunction.html" target="_top" xlink:title="Creates a new implicit function that is just a base function to which an affine transformation is app...">
<polygon fill="white" stroke="#666666" points="490.5,-342.07 365.5,-342.07 365.5,-301.07 490.5,-301.07 490.5,-342.07"/>
<text text-anchor="start" x="373.5" y="-330.07" font-family="Helvetica,sans-Serif" font-size="10.00">qugar::impl::funcs</text>
<text text-anchor="start" x="373.5" y="-319.07" font-family="Helvetica,sans-Serif" font-size="10.00">::TransformedFunction</text>
<text text-anchor="middle" x="428" y="-308.07" font-family="Helvetica,sans-Serif" font-size="10.00">&lt; dim &gt;</text>
</a>
</g>
</g>
<!-- Node30&#45;&gt;Node33 -->
<g id="edge29_Node000030_Node000033" class="edge">
<title>Node30&#45;&gt;Node33</title>
<g id="a_edge29_Node000030_Node000033"><a xlink:title=" ">
<path fill="none" stroke="#63b8ff" d="M320.36,-335.91C335.26,-333.91 350.83,-331.82 365.32,-329.87"/>
<polygon fill="#63b8ff" stroke="#63b8ff" points="319.62,-332.48 310.18,-337.28 320.56,-339.42 319.62,-332.48"/>
</a>
</g>
</g>
<!-- Node13 -->
<g id="Node000013" class="node">
<title>Node13</title>
<g id="a_Node000013"><a xlink:href="d9/d7e/classqugar_1_1impl_1_1funcs_1_1EllipsoidBase.html" target="_top" xlink:title="Dimension independent ellipsoidal function (base cass). The function is defined by the ellipsoid&#39;s se...">
<polygon fill="white" stroke="#666666" points="134,-744.57 5,-744.57 5,-714.57 134,-714.57 134,-744.57"/>
<text text-anchor="start" x="13" y="-732.57" font-family="Helvetica,sans-Serif" font-size="10.00">qugar::impl::funcs</text>
<text text-anchor="middle" x="69.5" y="-721.57" font-family="Helvetica,sans-Serif" font-size="10.00">::EllipsoidBase&lt; dim &gt;</text>
</a>
</g>
</g>
<!-- Node13&#45;&gt;Node12 -->
<g id="edge37_Node000013_Node000012" class="edge">
<title>Node13&#45;&gt;Node12</title>
<g id="a_edge37_Node000013_Node000012"><a xlink:title=" ">
<path fill="none" stroke="#63b8ff" d="M134.26,-749.92C135.9,-751.07 137.49,-752.29 139,-753.57 164.46,-775.21 146.27,-802.52 175,-819.57 230.42,-852.47 257.48,-835.2 320,-819.57 407.96,-797.58 441.6,-792.92 500,-723.57 532.86,-684.55 501,-651.69 536,-614.57 539.26,-611.12 543.07,-608.16 547.18,-605.61"/>
<polygon fill="#63b8ff" stroke="#63b8ff" points="135.98,-746.87 125.62,-744.66 132.34,-752.85 135.98,-746.87"/>
</a>
</g>
</g>
<!-- Node13&#45;&gt;Node14 -->
<g id="edge36_Node000013_Node000014" class="edge">
<title>Node13&#45;&gt;Node14</title>
<g id="a_edge36_Node000013_Node000014"><a xlink:title=" ">
<path fill="none" stroke="#63b8ff" d="M144.01,-717.04C161.11,-714.13 178.97,-711.08 194.9,-708.37"/>
<polygon fill="#63b8ff" stroke="#63b8ff" points="143.31,-713.61 134.04,-718.74 144.49,-720.51 143.31,-713.61"/>
</a>
</g>
</g>
<!-- Node16 -->
<g id="Node000016" class="node">
<title>Node16</title>
<g id="a_Node000016"><a xlink:href="db/d5b/classqugar_1_1impl_1_1funcs_1_1PlaneBase.html" target="_top" xlink:title="Plane base class.">
<polygon fill="white" stroke="#666666" points="127,-306.57 12,-306.57 12,-276.57 127,-276.57 127,-306.57"/>
<text text-anchor="start" x="20" y="-294.57" font-family="Helvetica,sans-Serif" font-size="10.00">qugar::impl::funcs</text>
<text text-anchor="middle" x="69.5" y="-283.57" font-family="Helvetica,sans-Serif" font-size="10.00">::PlaneBase&lt; dim &gt;</text>
</a>
</g>
</g>
<!-- Node16&#45;&gt;Node15 -->
<g id="edge39_Node000016_Node000015" class="edge">
<title>Node16&#45;&gt;Node15</title>
<g id="a_edge39_Node000016_Node000015"><a xlink:title=" ">
<path fill="none" stroke="#63b8ff" d="M93.41,-269.61C113.23,-252.24 143.57,-229.35 175,-219.57 244.15,-198.06 447.75,-193.43 500,-243.57 566.75,-307.62 496.62,-364.87 536,-448.57 546.34,-470.55 565.34,-491.15 579.29,-504.44"/>
<polygon fill="#63b8ff" stroke="#63b8ff" points="90.94,-267.13 85.85,-276.42 95.62,-272.33 90.94,-267.13"/>
</a>
</g>
</g>
<!-- Node16&#45;&gt;Node17 -->
<g id="edge38_Node000016_Node000017" class="edge">
<title>Node16&#45;&gt;Node17</title>
<g id="a_edge38_Node000016_Node000017"><a xlink:title=" ">
<path fill="none" stroke="#63b8ff" d="M137.35,-291.57C156.56,-291.57 177.2,-291.57 195.31,-291.57"/>
<polygon fill="#63b8ff" stroke="#63b8ff" points="137.16,-288.07 127.16,-291.57 137.16,-295.07 137.16,-288.07"/>
</a>
</g>
</g>
<!-- Node19 -->
<g id="Node000019" class="node">
<title>Node19</title>
<g id="a_Node000019"><a xlink:href="d7/d90/classqugar_1_1impl_1_1funcs_1_1SphereBase.html" target="_top" xlink:title="Dimension independent spherical function.">
<polygon fill="white" stroke="#666666" points="130.5,-220.57 8.5,-220.57 8.5,-190.57 130.5,-190.57 130.5,-220.57"/>
<text text-anchor="start" x="16.5" y="-208.57" font-family="Helvetica,sans-Serif" font-size="10.00">qugar::impl::funcs</text>
<text text-anchor="middle" x="69.5" y="-197.57" font-family="Helvetica,sans-Serif" font-size="10.00">::SphereBase&lt; dim &gt;</text>
</a>
</g>
</g>
<!-- Node19&#45;&gt;Node18 -->
<g id="edge41_Node000019_Node000018" class="edge">
<title>Node19&#45;&gt;Node18</title>
<g id="a_edge41_Node000019_Node000018"><a xlink:title=" ">
<path fill="none" stroke="#63b8ff" d="M140.56,-192.11C247.54,-173.24 445.01,-145.56 500,-186.57 544.98,-220.12 515.02,-255.54 536,-307.57 551.3,-345.54 574.79,-387.61 587.53,-409.49"/>
<polygon fill="#63b8ff" stroke="#63b8ff" points="139.73,-188.71 130.5,-193.91 140.96,-195.6 139.73,-188.71"/>
</a>
</g>
</g>
<!-- Node19&#45;&gt;Node20 -->
<g id="edge40_Node000019_Node000020" class="edge">
<title>Node19&#45;&gt;Node20</title>
<g id="a_edge40_Node000019_Node000020"><a xlink:title=" ">
<path fill="none" stroke="#63b8ff" d="M140.37,-220.66C158.77,-224.63 178.28,-228.85 195.49,-232.56"/>
<polygon fill="#63b8ff" stroke="#63b8ff" points="141.09,-217.23 130.58,-218.55 139.61,-224.08 141.09,-217.23"/>
</a>
</g>
</g>
<!-- Node26 -->
<g id="Node000026" class="node">
<title>Node26</title>
<g id="a_Node000026"><a xlink:href="db/dc8/classqugar_1_1impl_1_1funcs_1_1TorusBase.html" target="_top" xlink:title="3D torus function base class. The function is defined by the torus center, axis, and major and inner ...">
<polygon fill="white" stroke="#666666" points="121.5,-46.57 17.5,-46.57 17.5,-16.57 121.5,-16.57 121.5,-46.57"/>
<text text-anchor="start" x="25.5" y="-34.57" font-family="Helvetica,sans-Serif" font-size="10.00">qugar::impl::funcs</text>
<text text-anchor="middle" x="69.5" y="-23.57" font-family="Helvetica,sans-Serif" font-size="10.00">::TorusBase</text>
</a>
</g>
</g>
<!-- Node26&#45;&gt;Node25 -->
<g id="edge43_Node000026_Node000025" class="edge">
<title>Node26&#45;&gt;Node25</title>
<g id="a_edge43_Node000026_Node000025"><a xlink:title=" ">
<path fill="none" stroke="#63b8ff" d="M131.72,-19.92C145.88,-17.7 160.92,-15.71 175,-14.57 318.98,-2.94 357.74,10.43 500,-14.57 521.94,-18.43 545.46,-26.87 563.79,-34.49"/>
<polygon fill="#63b8ff" stroke="#63b8ff" points="130.9,-16.51 121.59,-21.57 132.02,-23.42 130.9,-16.51"/>
</a>
</g>
</g>
<!-- Node26&#45;&gt;Node27 -->
<g id="edge42_Node000026_Node000027" class="edge">
<title>Node26&#45;&gt;Node27</title>
<g id="a_edge42_Node000026_Node000027"><a xlink:title=" ">
<path fill="none" stroke="#63b8ff" d="M131.86,-45.52C152.59,-50.23 175.51,-55.44 195.36,-59.95"/>
<polygon fill="#63b8ff" stroke="#63b8ff" points="132.41,-42.05 121.88,-43.25 130.86,-48.88 132.41,-42.05"/>
</a>
</g>
</g>
</g>
</svg>
