<?xml version="1.0" encoding="UTF-8" standalone="no"?>
<!DOCTYPE svg PUBLIC "-//W3C//DTD SVG 1.1//EN"
 "http://www.w3.org/Graphics/SVG/1.1/DTD/svg11.dtd">
<!-- Generated by graphviz version 2.43.0 (0)
 -->
<!-- Title: qugar::impl::funcs::SphereBase&lt; dim &gt; Pages: 1 -->
<svg width="244pt" height="104pt"
 viewBox="0.00 0.00 243.50 104.00" xmlns="http://www.w3.org/2000/svg" xmlns:xlink="http://www.w3.org/1999/xlink">
<g id="graph0" class="graph" transform="scale(1 1) rotate(0) translate(4 100)">
<title>qugar::impl::funcs::SphereBase&lt; dim &gt;</title>
<!-- Node1 -->
<g id="Node000001" class="node">
<title>Node1</title>
<g id="a_Node000001"><a xlink:title="Dimension independent spherical function.">
<polygon fill="#999999" stroke="#666666" points="176,-96 54,-96 54,-66 176,-66 176,-96"/>
<text text-anchor="start" x="62" y="-84" font-family="Helvetica,sans-Serif" font-size="10.00">qugar::impl::funcs</text>
<text text-anchor="middle" x="115" y="-73" font-family="Helvetica,sans-Serif" font-size="10.00">::SphereBase&lt; dim &gt;</text>
</a>
</g>
</g>
<!-- Node2 -->
<g id="Node000002" class="node">
<title>Node2</title>
<g id="a_Node000002"><a xlink:href="../../d1/def/classqugar_1_1impl_1_1funcs_1_1Sphere.html" target="_top" xlink:title="Dimension independent spherical function. The function is defined by its center and radius....">
<polygon fill="white" stroke="#666666" points="104,-30 0,-30 0,0 104,0 104,-30"/>
<text text-anchor="start" x="8" y="-18" font-family="Helvetica,sans-Serif" font-size="10.00">qugar::impl::funcs</text>
<text text-anchor="middle" x="52" y="-7" font-family="Helvetica,sans-Serif" font-size="10.00">::Sphere&lt; dim &gt;</text>
</a>
</g>
</g>
<!-- Node1&#45;&gt;Node2 -->
<g id="edge1_Node000001_Node000002" class="edge">
<title>Node1&#45;&gt;Node2</title>
<g id="a_edge1_Node000001_Node000002"><a xlink:title=" ">
<path fill="none" stroke="#63b8ff" d="M93.98,-58.65C84.75,-49.27 74.17,-38.53 65.94,-30.16"/>
<polygon fill="#63b8ff" stroke="#63b8ff" points="91.51,-61.13 101.02,-65.8 96.5,-56.21 91.51,-61.13"/>
</a>
</g>
</g>
<!-- Node3 -->
<g id="Node000003" class="node">
<title>Node3</title>
<g id="a_Node000003"><a xlink:href="../../d1/dfc/classqugar_1_1impl_1_1funcs_1_1SphereBzr.html" target="_top" xlink:title="Dimension independent spherical function. The function is defined by its center and radius....">
<polygon fill="white" stroke="#666666" points="235.5,-30 122.5,-30 122.5,0 235.5,0 235.5,-30"/>
<text text-anchor="start" x="130.5" y="-18" font-family="Helvetica,sans-Serif" font-size="10.00">qugar::impl::funcs</text>
<text text-anchor="middle" x="179" y="-7" font-family="Helvetica,sans-Serif" font-size="10.00">::SphereBzr&lt; dim &gt;</text>
</a>
</g>
</g>
<!-- Node1&#45;&gt;Node3 -->
<g id="edge2_Node000001_Node000003" class="edge">
<title>Node1&#45;&gt;Node3</title>
<g id="a_edge2_Node000001_Node000003"><a xlink:title=" ">
<path fill="none" stroke="#63b8ff" d="M136.35,-58.65C145.73,-49.27 156.47,-38.53 164.84,-30.16"/>
<polygon fill="#63b8ff" stroke="#63b8ff" points="133.8,-56.25 129.2,-65.8 138.75,-61.2 133.8,-56.25"/>
</a>
</g>
</g>
</g>
</svg>
