<?xml version="1.0" encoding="UTF-8" standalone="no"?>
<!DOCTYPE svg PUBLIC "-//W3C//DTD SVG 1.1//EN"
 "http://www.w3.org/Graphics/SVG/1.1/DTD/svg11.dtd">
<!-- Generated by graphviz version 2.43.0 (0)
 -->
<!-- Title: /__w/qugar/qugar/cpp/include/qugar/numbers.hpp Pages: 1 -->
<svg width="353pt" height="192pt"
 viewBox="0.00 0.00 353.00 192.00" xmlns="http://www.w3.org/2000/svg" xmlns:xlink="http://www.w3.org/1999/xlink">
<g id="graph0" class="graph" transform="scale(1 1) rotate(0) translate(4 188)">
<title>/__w/qugar/qugar/cpp/include/qugar/numbers.hpp</title>
<!-- Node1 -->
<g id="Node000001" class="node">
<title>Node1</title>
<g id="a_Node000001"><a xlink:title="Declaration of constant values.">
<polygon fill="#999999" stroke="#666666" points="205,-184 53,-184 53,-154 205,-154 205,-184"/>
<text text-anchor="start" x="61" y="-172" font-family="Helvetica,sans-Serif" font-size="10.00">/__w/qugar/qugar/cpp</text>
<text text-anchor="middle" x="129" y="-161" font-family="Helvetica,sans-Serif" font-size="10.00">/include/qugar/numbers.hpp</text>
</a>
</g>
</g>
<!-- Node2 -->
<g id="Node000002" class="node">
<title>Node2</title>
<g id="a_Node000002"><a xlink:href="../../d0/d6f/demo__quad__sphere_2main_8cpp.html" target="_top" xlink:title=" ">
<polygon fill="white" stroke="#666666" points="146,-41 0,-41 0,0 146,0 146,-41"/>
<text text-anchor="start" x="8" y="-29" font-family="Helvetica,sans-Serif" font-size="10.00">/__w/qugar/qugar/cpp</text>
<text text-anchor="start" x="8" y="-18" font-family="Helvetica,sans-Serif" font-size="10.00">/demo/demo_quad_sphere</text>
<text text-anchor="middle" x="73" y="-7" font-family="Helvetica,sans-Serif" font-size="10.00">/main.cpp</text>
</a>
</g>
</g>
<!-- Node1&#45;&gt;Node2 -->
<g id="edge1_Node000001_Node000002" class="edge">
<title>Node1&#45;&gt;Node2</title>
<g id="a_edge1_Node000001_Node000002"><a xlink:title=" ">
<path fill="none" stroke="#63b8ff" d="M84.42,-148.81C71.99,-141.14 60,-130.98 53,-118 39.85,-93.6 51.35,-61.44 61.57,-41.11"/>
<polygon fill="#63b8ff" stroke="#63b8ff" points="83.05,-152.06 93.47,-153.96 86.51,-145.98 83.05,-152.06"/>
</a>
</g>
</g>
<!-- Node3 -->
<g id="Node000003" class="node">
<title>Node3</title>
<g id="a_Node000003"><a xlink:href="../../d6/d17/affine__transf_8hpp.html" target="_top" xlink:title="Declaration of affine transformation class.">
<polygon fill="white" stroke="#666666" points="334,-118 214,-118 214,-77 334,-77 334,-118"/>
<text text-anchor="start" x="222" y="-106" font-family="Helvetica,sans-Serif" font-size="10.00">/__w/qugar/qugar/cpp</text>
<text text-anchor="start" x="222" y="-95" font-family="Helvetica,sans-Serif" font-size="10.00">/include/qugar/affine</text>
<text text-anchor="middle" x="274" y="-84" font-family="Helvetica,sans-Serif" font-size="10.00">_transf.hpp</text>
</a>
</g>
</g>
<!-- Node1&#45;&gt;Node3 -->
<g id="edge2_Node000001_Node000003" class="edge">
<title>Node1&#45;&gt;Node3</title>
<g id="a_edge2_Node000001_Node000003"><a xlink:title=" ">
<path fill="none" stroke="#63b8ff" d="M167.58,-149.51C187.82,-139.81 212.6,-127.93 233.16,-118.07"/>
<polygon fill="#63b8ff" stroke="#63b8ff" points="165.85,-146.46 158.34,-153.94 168.87,-152.77 165.85,-146.46"/>
</a>
</g>
</g>
<!-- Node5 -->
<g id="Node000005" class="node">
<title>Node5</title>
<g id="a_Node000005"><a xlink:href="../../d7/d6f/primitive__funcs__lib_8hpp.html" target="_top" xlink:title="Declaration of a primitive implicit functions ready to be consumed by Algoim.">
<polygon fill="white" stroke="#666666" points="195.5,-118 62.5,-118 62.5,-77 195.5,-77 195.5,-118"/>
<text text-anchor="start" x="70.5" y="-106" font-family="Helvetica,sans-Serif" font-size="10.00">/__w/qugar/qugar/cpp</text>
<text text-anchor="start" x="70.5" y="-95" font-family="Helvetica,sans-Serif" font-size="10.00">/include/qugar/primitive</text>
<text text-anchor="middle" x="129" y="-84" font-family="Helvetica,sans-Serif" font-size="10.00">_funcs_lib.hpp</text>
</a>
</g>
</g>
<!-- Node1&#45;&gt;Node5 -->
<g id="edge4_Node000001_Node000005" class="edge">
<title>Node1&#45;&gt;Node5</title>
<g id="a_edge4_Node000001_Node000005"><a xlink:title=" ">
<path fill="none" stroke="#63b8ff" d="M129,-143.91C129,-135.47 129,-126.1 129,-118.07"/>
<polygon fill="#63b8ff" stroke="#63b8ff" points="125.5,-143.94 129,-153.94 132.5,-143.94 125.5,-143.94"/>
</a>
</g>
</g>
<!-- Node4 -->
<g id="Node000004" class="node">
<title>Node4</title>
<g id="a_Node000004"><a xlink:href="../../d5/d2a/impl__funcs__lib_8hpp.html" target="_top" xlink:title="Declaration of a few implicit functions ready to be consumed by Algoim.">
<polygon fill="white" stroke="#666666" points="345,-41 203,-41 203,0 345,0 345,-41"/>
<text text-anchor="start" x="211" y="-29" font-family="Helvetica,sans-Serif" font-size="10.00">/__w/qugar/qugar/cpp</text>
<text text-anchor="start" x="211" y="-18" font-family="Helvetica,sans-Serif" font-size="10.00">/include/qugar/impl_funcs</text>
<text text-anchor="middle" x="274" y="-7" font-family="Helvetica,sans-Serif" font-size="10.00">_lib.hpp</text>
</a>
</g>
</g>
<!-- Node3&#45;&gt;Node4 -->
<g id="edge3_Node000003_Node000004" class="edge">
<title>Node3&#45;&gt;Node4</title>
<g id="a_edge3_Node000003_Node000004"><a xlink:title=" ">
<path fill="none" stroke="#63b8ff" d="M274,-66.69C274,-58.08 274,-48.9 274,-41.07"/>
<polygon fill="#63b8ff" stroke="#63b8ff" points="270.5,-66.79 274,-76.79 277.5,-66.79 270.5,-66.79"/>
</a>
</g>
</g>
<!-- Node5&#45;&gt;Node2 -->
<g id="edge5_Node000005_Node000002" class="edge">
<title>Node5&#45;&gt;Node2</title>
<g id="a_edge5_Node000005_Node000002"><a xlink:title=" ">
<path fill="none" stroke="#63b8ff" d="M108.22,-68.67C101.37,-59.5 93.9,-49.5 87.62,-41.07"/>
<polygon fill="#63b8ff" stroke="#63b8ff" points="105.5,-70.88 114.29,-76.79 111.11,-66.69 105.5,-70.88"/>
</a>
</g>
</g>
</g>
</svg>
