<?xml version="1.0" encoding="UTF-8" standalone="no"?>
<!DOCTYPE svg PUBLIC "-//W3C//DTD SVG 1.1//EN"
 "http://www.w3.org/Graphics/SVG/1.1/DTD/svg11.dtd">
<!-- Generated by graphviz version 2.43.0 (0)
 -->
<!-- Title: qugar::impl::MonomialsTP::MonomialsTP Pages: 1 -->
<svg width="341pt" height="134pt"
 viewBox="0.00 0.00 341.00 134.00" xmlns="http://www.w3.org/2000/svg" xmlns:xlink="http://www.w3.org/1999/xlink">
<g id="graph0" class="graph" transform="scale(1 1) rotate(0) translate(4 130)">
<title>qugar::impl::MonomialsTP::MonomialsTP</title>
<!-- Node1 -->
<g id="Node000001" class="node">
<title>Node1</title>
<g id="a_Node000001"><a xlink:title="Constructor.">
<polygon fill="#999999" stroke="#666666" points="333,-78 189,-78 189,-48 333,-48 333,-78"/>
<text text-anchor="start" x="197" y="-66" font-family="Helvetica,sans-Serif" font-size="10.00">qugar::impl::MonomialsTP</text>
<text text-anchor="middle" x="261" y="-55" font-family="Helvetica,sans-Serif" font-size="10.00">::MonomialsTP</text>
</a>
</g>
</g>
<!-- Node2 -->
<g id="Node000002" class="node">
<title>Node2</title>
<g id="a_Node000002"><a xlink:href="../../d2/d87/classqugar_1_1impl_1_1MonomialsTP.html#acb64e5ba0b4534eef0a1752adc979f9f" target="_top" xlink:title="Extracts a facet from the monomials tensor product.">
<polygon fill="white" stroke="#666666" points="148.5,-126 4.5,-126 4.5,-96 148.5,-96 148.5,-126"/>
<text text-anchor="start" x="12.5" y="-114" font-family="Helvetica,sans-Serif" font-size="10.00">qugar::impl::MonomialsTP</text>
<text text-anchor="middle" x="76.5" y="-103" font-family="Helvetica,sans-Serif" font-size="10.00">::extract_facet</text>
</a>
</g>
</g>
<!-- Node1&#45;&gt;Node2 -->
<g id="edge1_Node000001_Node000002" class="edge">
<title>Node1&#45;&gt;Node2</title>
<g id="a_edge1_Node000001_Node000002"><a xlink:title=" ">
<path fill="none" stroke="#63b8ff" d="M192.9,-80.65C173.73,-85.69 153.04,-91.13 134.54,-96"/>
<polygon fill="#63b8ff" stroke="#63b8ff" points="193.98,-83.98 202.76,-78.06 192.2,-77.21 193.98,-83.98"/>
</a>
</g>
</g>
<!-- Node3 -->
<g id="Node000003" class="node">
<title>Node3</title>
<g id="a_Node000003"><a xlink:href="../../d2/d87/classqugar_1_1impl_1_1MonomialsTP.html#a7104d6e93aaddd614c189b4407c7aacc" target="_top" xlink:title="Copy constructor.">
<polygon fill="white" stroke="#666666" points="148.5,-78 4.5,-78 4.5,-48 148.5,-48 148.5,-78"/>
<text text-anchor="start" x="12.5" y="-66" font-family="Helvetica,sans-Serif" font-size="10.00">qugar::impl::MonomialsTP</text>
<text text-anchor="middle" x="76.5" y="-55" font-family="Helvetica,sans-Serif" font-size="10.00">::MonomialsTP</text>
</a>
</g>
</g>
<!-- Node1&#45;&gt;Node3 -->
<g id="edge2_Node000001_Node000003" class="edge">
<title>Node1&#45;&gt;Node3</title>
<g id="a_edge2_Node000001_Node000003"><a xlink:title=" ">
<path fill="none" stroke="#63b8ff" d="M178.92,-63C168.84,-63 158.6,-63 148.69,-63"/>
<polygon fill="#63b8ff" stroke="#63b8ff" points="178.92,-66.5 188.92,-63 178.92,-59.5 178.92,-66.5"/>
</a>
</g>
</g>
<!-- Node4 -->
<g id="Node000004" class="node">
<title>Node4</title>
<g id="a_Node000004"><a xlink:href="../../d2/d87/classqugar_1_1impl_1_1MonomialsTP.html#ad662dc8c07d1fc67aedc2437c4a445ea" target="_top" xlink:title="Transforms the coefficients of monomials to Bezier form.">
<polygon fill="white" stroke="#666666" points="153,-30 0,-30 0,0 153,0 153,-30"/>
<text text-anchor="start" x="8" y="-18" font-family="Helvetica,sans-Serif" font-size="10.00">qugar::impl::MonomialsTP</text>
<text text-anchor="middle" x="76.5" y="-7" font-family="Helvetica,sans-Serif" font-size="10.00">::transform_coefs_to_Bezier</text>
</a>
</g>
</g>
<!-- Node1&#45;&gt;Node4 -->
<g id="edge3_Node000001_Node000004" class="edge">
<title>Node1&#45;&gt;Node4</title>
<g id="a_edge3_Node000001_Node000004"><a xlink:title=" ">
<path fill="none" stroke="#63b8ff" d="M192.9,-45.35C173.73,-40.31 153.04,-34.87 134.54,-30"/>
<polygon fill="#63b8ff" stroke="#63b8ff" points="192.2,-48.79 202.76,-47.94 193.98,-42.02 192.2,-48.79"/>
</a>
</g>
</g>
</g>
</svg>
