<?xml version="1.0" encoding="UTF-8" standalone="no"?>
<!DOCTYPE svg PUBLIC "-//W3C//DTD SVG 1.1//EN"
 "http://www.w3.org/Graphics/SVG/1.1/DTD/svg11.dtd">
<!-- Generated by graphviz version 2.43.0 (0)
 -->
<!-- Title: /__w/qugar/qugar/cpp/include/qugar/lagrange_tp_utils.hpp Pages: 1 -->
<svg width="792pt" height="225pt"
 viewBox="0.00 0.00 791.50 225.00" xmlns="http://www.w3.org/2000/svg" xmlns:xlink="http://www.w3.org/1999/xlink">
<g id="graph0" class="graph" transform="scale(1 1) rotate(0) translate(4 221)">
<title>/__w/qugar/qugar/cpp/include/qugar/lagrange_tp_utils.hpp</title>
<!-- Node1 -->
<g id="Node000001" class="node">
<title>Node1</title>
<g id="a_Node000001"><a xlink:title="Declaration of tensor&#45;product Lagrange utils.">
<polygon fill="#999999" stroke="#666666" points="254,-217 123,-217 123,-176 254,-176 254,-217"/>
<text text-anchor="start" x="131" y="-205" font-family="Helvetica,sans-Serif" font-size="10.00">/__w/qugar/qugar/cpp</text>
<text text-anchor="start" x="131" y="-194" font-family="Helvetica,sans-Serif" font-size="10.00">/include/qugar/lagrange</text>
<text text-anchor="middle" x="188.5" y="-183" font-family="Helvetica,sans-Serif" font-size="10.00">_tp_utils.hpp</text>
</a>
</g>
</g>
<!-- Node2 -->
<g id="Node000002" class="node">
<title>Node2</title>
<g id="a_Node000002"><a xlink:href="../../d0/de4/point_8hpp.html" target="_top" xlink:title="Definition and implementation of Point class.">
<polygon fill="white" stroke="#666666" points="235,-134.5 142,-134.5 142,-115.5 235,-115.5 235,-134.5"/>
<text text-anchor="middle" x="188.5" y="-122.5" font-family="Helvetica,sans-Serif" font-size="10.00">qugar/point.hpp</text>
</a>
</g>
</g>
<!-- Node1&#45;&gt;Node2 -->
<g id="edge1_Node000001_Node000002" class="edge">
<title>Node1&#45;&gt;Node2</title>
<g id="a_edge1_Node000001_Node000002"><a xlink:title=" ">
<path fill="none" stroke="#63b8ff" d="M188.5,-175.77C188.5,-166.08 188.5,-154.46 188.5,-144.88"/>
<polygon fill="#63b8ff" stroke="#63b8ff" points="192,-144.82 188.5,-134.82 185,-144.82 192,-144.82"/>
</a>
</g>
</g>
<!-- Node3 -->
<g id="Node000003" class="node">
<title>Node3</title>
<g id="a_Node000003"><a xlink:href="../../dd/de3/types_8hpp.html" target="_top" xlink:title="Declaration of types.">
<polygon fill="white" stroke="#666666" points="95,-74 0,-74 0,-55 95,-55 95,-74"/>
<text text-anchor="middle" x="47.5" y="-62" font-family="Helvetica,sans-Serif" font-size="10.00">qugar/types.hpp</text>
</a>
</g>
</g>
<!-- Node1&#45;&gt;Node3 -->
<g id="edge17_Node000001_Node000003" class="edge">
<title>Node1&#45;&gt;Node3</title>
<g id="a_edge17_Node000001_Node000003"><a xlink:title=" ">
<path fill="none" stroke="#63b8ff" d="M165.13,-175.76C152.89,-165.29 137.73,-152.12 124.5,-140 103.01,-120.31 78.98,-96.82 63.57,-81.55"/>
<polygon fill="#63b8ff" stroke="#63b8ff" points="65.92,-78.95 56.36,-74.38 60.98,-83.91 65.92,-78.95"/>
</a>
</g>
</g>
<!-- Node5 -->
<g id="Node000005" class="node">
<title>Node5</title>
<g id="a_Node000005"><a xlink:href="../../da/d16/vector_8hpp.html" target="_top" xlink:title=" ">
<polygon fill="white" stroke="#666666" points="314.5,-74 216.5,-74 216.5,-55 314.5,-55 314.5,-74"/>
<text text-anchor="middle" x="265.5" y="-62" font-family="Helvetica,sans-Serif" font-size="10.00">qugar/vector.hpp</text>
</a>
</g>
</g>
<!-- Node1&#45;&gt;Node5 -->
<g id="edge18_Node000001_Node000005" class="edge">
<title>Node1&#45;&gt;Node5</title>
<g id="a_edge18_Node000001_Node000005"><a xlink:title=" ">
<path fill="none" stroke="#63b8ff" d="M213.48,-175.88C224.4,-166.14 236.51,-153.56 244.5,-140 254.71,-122.67 260.16,-100.14 262.92,-84.41"/>
<polygon fill="#63b8ff" stroke="#63b8ff" points="266.41,-84.75 264.49,-74.33 259.5,-83.68 266.41,-84.75"/>
</a>
</g>
</g>
<!-- Node7 -->
<g id="Node000007" class="node">
<title>Node7</title>
<g id="a_Node000007"><a xlink:title=" ">
<polygon fill="#e0e0e0" stroke="#999999" points="160,-74 113,-74 113,-55 160,-55 160,-74"/>
<text text-anchor="middle" x="136.5" y="-62" font-family="Helvetica,sans-Serif" font-size="10.00">vector</text>
</a>
</g>
</g>
<!-- Node1&#45;&gt;Node7 -->
<g id="edge19_Node000001_Node000007" class="edge">
<title>Node1&#45;&gt;Node7</title>
<g id="a_edge19_Node000001_Node000007"><a xlink:title=" ">
<path fill="none" stroke="#63b8ff" d="M161.36,-175.91C150.53,-166.43 139.28,-154.05 133.5,-140 126.13,-122.08 128.4,-99.65 131.56,-84.11"/>
<polygon fill="#63b8ff" stroke="#63b8ff" points="135.02,-84.71 133.89,-74.17 128.2,-83.11 135.02,-84.71"/>
</a>
</g>
</g>
<!-- Node8 -->
<g id="Node000008" class="node">
<title>Node8</title>
<g id="a_Node000008"><a xlink:href="../../d9/d43/tensor__index__tp_8hpp.html" target="_top" xlink:title="Declaration of tensor&#45;product index and size related classes.">
<polygon fill="white" stroke="#666666" points="526.5,-140 416.5,-140 416.5,-110 526.5,-110 526.5,-140"/>
<text text-anchor="start" x="424.5" y="-128" font-family="Helvetica,sans-Serif" font-size="10.00">qugar/tensor_index</text>
<text text-anchor="middle" x="471.5" y="-117" font-family="Helvetica,sans-Serif" font-size="10.00">_tp.hpp</text>
</a>
</g>
</g>
<!-- Node1&#45;&gt;Node8 -->
<g id="edge8_Node000001_Node000008" class="edge">
<title>Node1&#45;&gt;Node8</title>
<g id="a_edge8_Node000001_Node000008"><a xlink:title=" ">
<path fill="none" stroke="#63b8ff" d="M254.14,-179.38C299.93,-168.14 360.76,-153.2 406.43,-141.98"/>
<polygon fill="#63b8ff" stroke="#63b8ff" points="407.34,-145.36 416.22,-139.58 405.67,-138.56 407.34,-145.36"/>
</a>
</g>
</g>
<!-- Node2&#45;&gt;Node3 -->
<g id="edge2_Node000002_Node000003" class="edge">
<title>Node2&#45;&gt;Node3</title>
<g id="a_edge2_Node000002_Node000003"><a xlink:title=" ">
<path fill="none" stroke="#63b8ff" d="M168,-115.49C144.19,-105.62 104.71,-89.23 77.46,-77.93"/>
<polygon fill="#63b8ff" stroke="#63b8ff" points="78.61,-74.62 68.03,-74.02 75.92,-81.08 78.61,-74.62"/>
</a>
</g>
</g>
<!-- Node4 -->
<g id="Node000004" class="node">
<title>Node4</title>
<g id="a_Node000004"><a xlink:title=" ">
<polygon fill="#e0e0e0" stroke="#999999" points="203,-19 150,-19 150,0 203,0 203,-19"/>
<text text-anchor="middle" x="176.5" y="-7" font-family="Helvetica,sans-Serif" font-size="10.00">cstddef</text>
</a>
</g>
</g>
<!-- Node2&#45;&gt;Node4 -->
<g id="edge6_Node000002_Node000004" class="edge">
<title>Node2&#45;&gt;Node4</title>
<g id="a_edge6_Node000002_Node000004"><a xlink:title=" ">
<path fill="none" stroke="#63b8ff" d="M187.6,-115.47C185.67,-97.23 181.11,-54.07 178.47,-29.14"/>
<polygon fill="#63b8ff" stroke="#63b8ff" points="181.94,-28.71 177.41,-19.13 174.98,-29.44 181.94,-28.71"/>
</a>
</g>
</g>
<!-- Node2&#45;&gt;Node5 -->
<g id="edge4_Node000002_Node000005" class="edge">
<title>Node2&#45;&gt;Node5</title>
<g id="a_edge4_Node000002_Node000005"><a xlink:title=" ">
<path fill="none" stroke="#63b8ff" d="M199.86,-115.37C211.92,-106.21 231.2,-91.56 245.75,-80.51"/>
<polygon fill="#63b8ff" stroke="#63b8ff" points="248.25,-83 254.09,-74.17 244.01,-77.43 248.25,-83"/>
</a>
</g>
</g>
<!-- Node2&#45;&gt;Node7 -->
<g id="edge7_Node000002_Node000007" class="edge">
<title>Node2&#45;&gt;Node7</title>
<g id="a_edge7_Node000002_Node000007"><a xlink:title=" ">
<path fill="none" stroke="#63b8ff" d="M180.83,-115.37C172.99,-106.55 160.64,-92.66 150.96,-81.77"/>
<polygon fill="#63b8ff" stroke="#63b8ff" points="153.46,-79.32 144.2,-74.17 148.23,-83.97 153.46,-79.32"/>
</a>
</g>
</g>
<!-- Node3&#45;&gt;Node4 -->
<g id="edge3_Node000003_Node000004" class="edge">
<title>Node3&#45;&gt;Node4</title>
<g id="a_edge3_Node000003_Node000004"><a xlink:title=" ">
<path fill="none" stroke="#63b8ff" d="M68.23,-54.98C89.26,-46.34 122.05,-32.87 146.04,-23.02"/>
<polygon fill="#63b8ff" stroke="#63b8ff" points="147.48,-26.21 155.4,-19.17 144.82,-19.73 147.48,-26.21"/>
</a>
</g>
</g>
<!-- Node6 -->
<g id="Node000006" class="node">
<title>Node6</title>
<g id="a_Node000006"><a xlink:title=" ">
<polygon fill="#e0e0e0" stroke="#999999" points="331.5,-19 221.5,-19 221.5,0 331.5,0 331.5,-19"/>
<text text-anchor="middle" x="276.5" y="-7" font-family="Helvetica,sans-Serif" font-size="10.00">algoim/uvector.hpp</text>
</a>
</g>
</g>
<!-- Node5&#45;&gt;Node6 -->
<g id="edge5_Node000005_Node000006" class="edge">
<title>Node5&#45;&gt;Node6</title>
<g id="a_edge5_Node000005_Node000006"><a xlink:title=" ">
<path fill="none" stroke="#63b8ff" d="M267.32,-54.75C268.76,-47.8 270.82,-37.85 272.63,-29.13"/>
<polygon fill="#63b8ff" stroke="#63b8ff" points="276.11,-29.59 274.72,-19.09 269.26,-28.17 276.11,-29.59"/>
</a>
</g>
</g>
<!-- Node8&#45;&gt;Node4 -->
<g id="edge13_Node000008_Node000004" class="edge">
<title>Node8&#45;&gt;Node4</title>
<g id="a_edge13_Node000008_Node000004"><a xlink:title=" ">
<path fill="none" stroke="#63b8ff" d="M439.59,-109.87C417.55,-100.02 387.63,-86.46 361.5,-74 344.46,-65.87 341.04,-61.98 323.5,-55 286.82,-40.4 243.41,-27.81 213.31,-19.78"/>
<polygon fill="#63b8ff" stroke="#63b8ff" points="213.81,-16.29 203.25,-17.13 212.03,-23.06 213.81,-16.29"/>
</a>
</g>
</g>
<!-- Node8&#45;&gt;Node5 -->
<g id="edge10_Node000008_Node000005" class="edge">
<title>Node8&#45;&gt;Node5</title>
<g id="a_edge10_Node000008_Node000005"><a xlink:title=" ">
<path fill="none" stroke="#63b8ff" d="M422.16,-109.99C386.45,-99.85 338.81,-86.32 305.48,-76.85"/>
<polygon fill="#63b8ff" stroke="#63b8ff" points="306.2,-73.42 295.62,-74.05 304.28,-80.15 306.2,-73.42"/>
</a>
</g>
</g>
<!-- Node9 -->
<g id="Node000009" class="node">
<title>Node9</title>
<g id="a_Node000009"><a xlink:title=" ">
<polygon fill="#e0e0e0" stroke="#999999" points="653.5,-74 609.5,-74 609.5,-55 653.5,-55 653.5,-74"/>
<text text-anchor="middle" x="631.5" y="-62" font-family="Helvetica,sans-Serif" font-size="10.00">limits</text>
</a>
</g>
</g>
<!-- Node8&#45;&gt;Node9 -->
<g id="edge9_Node000008_Node000009" class="edge">
<title>Node8&#45;&gt;Node9</title>
<g id="a_edge9_Node000008_Node000009"><a xlink:title=" ">
<path fill="none" stroke="#63b8ff" d="M509.82,-109.99C537.25,-99.96 573.73,-86.62 599.58,-77.17"/>
<polygon fill="#63b8ff" stroke="#63b8ff" points="601.07,-80.35 609.26,-73.63 598.67,-73.78 601.07,-80.35"/>
</a>
</g>
</g>
<!-- Node10 -->
<g id="Node000010" class="node">
<title>Node10</title>
<g id="a_Node000010"><a xlink:title=" ">
<polygon fill="#e0e0e0" stroke="#999999" points="713.5,-74 671.5,-74 671.5,-55 713.5,-55 713.5,-74"/>
<text text-anchor="middle" x="692.5" y="-62" font-family="Helvetica,sans-Serif" font-size="10.00">array</text>
</a>
</g>
</g>
<!-- Node8&#45;&gt;Node10 -->
<g id="edge11_Node000008_Node000010" class="edge">
<title>Node8&#45;&gt;Node10</title>
<g id="a_edge11_Node000008_Node000010"><a xlink:title=" ">
<path fill="none" stroke="#63b8ff" d="M526.33,-109.96C562.23,-100.69 610.43,-88.12 661.34,-74.28"/>
<polygon fill="#63b8ff" stroke="#63b8ff" points="662.48,-77.6 671.21,-71.59 660.64,-70.84 662.48,-77.6"/>
</a>
</g>
</g>
<!-- Node11 -->
<g id="Node000011" class="node">
<title>Node11</title>
<g id="a_Node000011"><a xlink:title=" ">
<polygon fill="#e0e0e0" stroke="#999999" points="783.5,-74 731.5,-74 731.5,-55 783.5,-55 783.5,-74"/>
<text text-anchor="middle" x="757.5" y="-62" font-family="Helvetica,sans-Serif" font-size="10.00">cassert</text>
</a>
</g>
</g>
<!-- Node8&#45;&gt;Node11 -->
<g id="edge12_Node000008_Node000011" class="edge">
<title>Node8&#45;&gt;Node11</title>
<g id="a_edge12_Node000008_Node000011"><a xlink:title=" ">
<path fill="none" stroke="#63b8ff" d="M526.97,-113.64C575.63,-104.39 648.55,-90.16 720.95,-74.27"/>
<polygon fill="#63b8ff" stroke="#63b8ff" points="722.14,-77.59 731.15,-72.02 720.63,-70.76 722.14,-77.59"/>
</a>
</g>
</g>
<!-- Node12 -->
<g id="Node000012" class="node">
<title>Node12</title>
<g id="a_Node000012"><a xlink:title=" ">
<polygon fill="#e0e0e0" stroke="#999999" points="420.5,-74 370.5,-74 370.5,-55 420.5,-55 420.5,-74"/>
<text text-anchor="middle" x="395.5" y="-62" font-family="Helvetica,sans-Serif" font-size="10.00">cstdint</text>
</a>
</g>
</g>
<!-- Node8&#45;&gt;Node12 -->
<g id="edge14_Node000008_Node000012" class="edge">
<title>Node8&#45;&gt;Node12</title>
<g id="a_edge14_Node000008_Node000012"><a xlink:title=" ">
<path fill="none" stroke="#63b8ff" d="M453.1,-109.84C441.62,-101 426.85,-89.63 415.14,-80.62"/>
<polygon fill="#63b8ff" stroke="#63b8ff" points="416.95,-77.59 406.89,-74.27 412.68,-83.14 416.95,-77.59"/>
</a>
</g>
</g>
<!-- Node13 -->
<g id="Node000013" class="node">
<title>Node13</title>
<g id="a_Node000013"><a xlink:title=" ">
<polygon fill="#e0e0e0" stroke="#999999" points="504,-74 439,-74 439,-55 504,-55 504,-74"/>
<text text-anchor="middle" x="471.5" y="-62" font-family="Helvetica,sans-Serif" font-size="10.00">functional</text>
</a>
</g>
</g>
<!-- Node8&#45;&gt;Node13 -->
<g id="edge15_Node000008_Node000013" class="edge">
<title>Node8&#45;&gt;Node13</title>
<g id="a_edge15_Node000008_Node000013"><a xlink:title=" ">
<path fill="none" stroke="#63b8ff" d="M471.5,-109.84C471.5,-102.21 471.5,-92.7 471.5,-84.45"/>
<polygon fill="#63b8ff" stroke="#63b8ff" points="475,-84.27 471.5,-74.27 468,-84.27 475,-84.27"/>
</a>
</g>
</g>
<!-- Node14 -->
<g id="Node000014" class="node">
<title>Node14</title>
<g id="a_Node000014"><a xlink:title=" ">
<polygon fill="#e0e0e0" stroke="#999999" points="591,-74 522,-74 522,-55 591,-55 591,-74"/>
<text text-anchor="middle" x="556.5" y="-62" font-family="Helvetica,sans-Serif" font-size="10.00">type_traits</text>
</a>
</g>
</g>
<!-- Node8&#45;&gt;Node14 -->
<g id="edge16_Node000008_Node000014" class="edge">
<title>Node8&#45;&gt;Node14</title>
<g id="a_edge16_Node000008_Node000014"><a xlink:title=" ">
<path fill="none" stroke="#63b8ff" d="M492.08,-109.84C505.17,-100.83 522.09,-89.18 535.3,-80.09"/>
<polygon fill="#63b8ff" stroke="#63b8ff" points="537.51,-82.82 543.76,-74.27 533.54,-77.05 537.51,-82.82"/>
</a>
</g>
</g>
</g>
</svg>
