<?xml version="1.0" encoding="UTF-8" standalone="no"?>
<!DOCTYPE svg PUBLIC "-//W3C//DTD SVG 1.1//EN"
 "http://www.w3.org/Graphics/SVG/1.1/DTD/svg11.dtd">
<!-- Generated by graphviz version 2.43.0 (0)
 -->
<!-- Title: qugar::TensorIndexRangeTP::Iterator::Iterator Pages: 1 -->
<svg width="348pt" height="182pt"
 viewBox="0.00 0.00 348.00 182.00" xmlns="http://www.w3.org/2000/svg" xmlns:xlink="http://www.w3.org/1999/xlink">
<g id="graph0" class="graph" transform="scale(1 1) rotate(0) translate(4 178)">
<title>qugar::TensorIndexRangeTP::Iterator::Iterator</title>
<!-- Node1 -->
<g id="Node000001" class="node">
<title>Node1</title>
<g id="a_Node000001"><a xlink:title="Constructs a new iterator object given and index and its lower and upper bounds.">
<polygon fill="#999999" stroke="#666666" points="340,-102 188,-102 188,-72 340,-72 340,-102"/>
<text text-anchor="start" x="196" y="-90" font-family="Helvetica,sans-Serif" font-size="10.00">qugar::TensorIndexRangeTP</text>
<text text-anchor="middle" x="264" y="-79" font-family="Helvetica,sans-Serif" font-size="10.00">::Iterator::Iterator</text>
</a>
</g>
</g>
<!-- Node2 -->
<g id="Node000002" class="node">
<title>Node2</title>
<g id="a_Node000002"><a xlink:href="../../d1/d02/classqugar_1_1TensorIndexRangeTP_1_1Iterator.html#a199c42c9e1858c3551d8e73419791f6b" target="_top" xlink:title="Compares if two iterators are different. They are considered to be different if at least one of the c...">
<polygon fill="white" stroke="#666666" points="152,-174 0,-174 0,-144 152,-144 152,-174"/>
<text text-anchor="start" x="8" y="-162" font-family="Helvetica,sans-Serif" font-size="10.00">qugar::TensorIndexRangeTP</text>
<text text-anchor="middle" x="76" y="-151" font-family="Helvetica,sans-Serif" font-size="10.00">::Iterator::operator!=</text>
</a>
</g>
</g>
<!-- Node1&#45;&gt;Node2 -->
<g id="edge1_Node000001_Node000002" class="edge">
<title>Node1&#45;&gt;Node2</title>
<g id="a_edge1_Node000001_Node000002"><a xlink:title=" ">
<path fill="none" stroke="#63b8ff" d="M220.92,-106.36C200.34,-115.53 175.08,-126.34 152,-135 143.81,-138.07 135.02,-141.11 126.46,-143.94"/>
<polygon fill="#63b8ff" stroke="#63b8ff" points="222.63,-109.43 230.32,-102.14 219.76,-103.04 222.63,-109.43"/>
</a>
</g>
</g>
<!-- Node3 -->
<g id="Node000003" class="node">
<title>Node3</title>
<g id="a_Node000003"><a xlink:href="../../d1/d02/classqugar_1_1TensorIndexRangeTP_1_1Iterator.html#a74ce0284b5e674a95e16754a3516d259" target="_top" xlink:title="Pre increments the iterator.">
<polygon fill="white" stroke="#666666" points="152,-126 0,-126 0,-96 152,-96 152,-126"/>
<text text-anchor="start" x="8" y="-114" font-family="Helvetica,sans-Serif" font-size="10.00">qugar::TensorIndexRangeTP</text>
<text text-anchor="middle" x="76" y="-103" font-family="Helvetica,sans-Serif" font-size="10.00">::Iterator::operator++</text>
</a>
</g>
</g>
<!-- Node1&#45;&gt;Node3 -->
<g id="edge2_Node000001_Node000003" class="edge">
<title>Node1&#45;&gt;Node3</title>
<g id="a_edge2_Node000001_Node000003"><a xlink:title=" ">
<path fill="none" stroke="#63b8ff" d="M177.85,-97.99C169.26,-99.1 160.57,-100.22 152.1,-101.31"/>
<polygon fill="#63b8ff" stroke="#63b8ff" points="178.41,-101.44 187.88,-96.69 177.52,-94.5 178.41,-101.44"/>
</a>
</g>
</g>
<!-- Node4 -->
<g id="Node000004" class="node">
<title>Node4</title>
<g id="a_Node000004"><a xlink:href="../../d1/d02/classqugar_1_1TensorIndexRangeTP_1_1Iterator.html#ae094cdac9e5ebe3beef1c88161260d1b" target="_top" xlink:title="Post increments the iterator.">
<polygon fill="white" stroke="#666666" points="152,-78 0,-78 0,-48 152,-48 152,-78"/>
<text text-anchor="start" x="8" y="-66" font-family="Helvetica,sans-Serif" font-size="10.00">qugar::TensorIndexRangeTP</text>
<text text-anchor="middle" x="76" y="-55" font-family="Helvetica,sans-Serif" font-size="10.00">::Iterator::operator++</text>
</a>
</g>
</g>
<!-- Node1&#45;&gt;Node4 -->
<g id="edge3_Node000001_Node000004" class="edge">
<title>Node1&#45;&gt;Node4</title>
<g id="a_edge3_Node000001_Node000004"><a xlink:title=" ">
<path fill="none" stroke="#63b8ff" d="M177.85,-76.01C169.26,-74.9 160.57,-73.78 152.1,-72.69"/>
<polygon fill="#63b8ff" stroke="#63b8ff" points="177.52,-79.5 187.88,-77.31 178.41,-72.56 177.52,-79.5"/>
</a>
</g>
</g>
<!-- Node5 -->
<g id="Node000005" class="node">
<title>Node5</title>
<g id="a_Node000005"><a xlink:href="../../d1/d02/classqugar_1_1TensorIndexRangeTP_1_1Iterator.html#a7efc27635f8c1047c0cf0d1a18be0654" target="_top" xlink:title="Compares if two iterators are equal. They are considered to be equal if their indices and bounds are ...">
<polygon fill="white" stroke="#666666" points="152,-30 0,-30 0,0 152,0 152,-30"/>
<text text-anchor="start" x="8" y="-18" font-family="Helvetica,sans-Serif" font-size="10.00">qugar::TensorIndexRangeTP</text>
<text text-anchor="middle" x="76" y="-7" font-family="Helvetica,sans-Serif" font-size="10.00">::Iterator::operator==</text>
</a>
</g>
</g>
<!-- Node1&#45;&gt;Node5 -->
<g id="edge4_Node000001_Node000005" class="edge">
<title>Node1&#45;&gt;Node5</title>
<g id="a_edge4_Node000001_Node000005"><a xlink:title=" ">
<path fill="none" stroke="#63b8ff" d="M220.92,-67.64C200.34,-58.47 175.08,-47.66 152,-39 143.81,-35.93 135.02,-32.89 126.46,-30.06"/>
<polygon fill="#63b8ff" stroke="#63b8ff" points="219.76,-70.96 230.32,-71.86 222.63,-64.57 219.76,-70.96"/>
</a>
</g>
</g>
</g>
</svg>
