<?xml version="1.0" encoding="UTF-8" standalone="no"?>
<!DOCTYPE svg PUBLIC "-//W3C//DTD SVG 1.1//EN"
 "http://www.w3.org/Graphics/SVG/1.1/DTD/svg11.dtd">
<!-- Generated by graphviz version 2.43.0 (0)
 -->
<!-- Title: /__w/qugar/qugar/cpp/include/qugar/quadrature.hpp Pages: 1 -->
<svg width="686pt" height="258pt"
 viewBox="0.00 0.00 686.00 258.00" xmlns="http://www.w3.org/2000/svg" xmlns:xlink="http://www.w3.org/1999/xlink">
<g id="graph0" class="graph" transform="scale(1 1) rotate(0) translate(4 254)">
<title>/__w/qugar/qugar/cpp/include/qugar/quadrature.hpp</title>
<!-- Node1 -->
<g id="Node000001" class="node">
<title>Node1</title>
<g id="a_Node000001"><a xlink:title="Definition of quadrature related functionalities.">
<polygon fill="#999999" stroke="#666666" points="494.5,-250 331.5,-250 331.5,-220 494.5,-220 494.5,-250"/>
<text text-anchor="start" x="339.5" y="-238" font-family="Helvetica,sans-Serif" font-size="10.00">/__w/qugar/qugar/cpp</text>
<text text-anchor="middle" x="413" y="-227" font-family="Helvetica,sans-Serif" font-size="10.00">/include/qugar/quadrature.hpp</text>
</a>
</g>
</g>
<!-- Node2 -->
<g id="Node000002" class="node">
<title>Node2</title>
<g id="a_Node000002"><a xlink:href="../../d5/d90/bbox_8hpp.html" target="_top" xlink:title="Definition of Cartesian bounding box class.">
<polygon fill="white" stroke="#666666" points="422,-184 330,-184 330,-165 422,-165 422,-184"/>
<text text-anchor="middle" x="376" y="-172" font-family="Helvetica,sans-Serif" font-size="10.00">qugar/bbox.hpp</text>
</a>
</g>
</g>
<!-- Node1&#45;&gt;Node2 -->
<g id="edge1_Node000001_Node000002" class="edge">
<title>Node1&#45;&gt;Node2</title>
<g id="a_edge1_Node000001_Node000002"><a xlink:title=" ">
<path fill="none" stroke="#63b8ff" d="M404.04,-219.84C398.89,-211.69 392.38,-201.4 386.93,-192.78"/>
<polygon fill="#63b8ff" stroke="#63b8ff" points="389.85,-190.85 381.54,-184.27 383.93,-194.59 389.85,-190.85"/>
</a>
</g>
</g>
<!-- Node4 -->
<g id="Node000004" class="node">
<title>Node4</title>
<g id="a_Node000004"><a xlink:href="../../d0/de4/point_8hpp.html" target="_top" xlink:title="Definition and implementation of Point class.">
<polygon fill="white" stroke="#666666" points="207.5,-129 114.5,-129 114.5,-110 207.5,-110 207.5,-129"/>
<text text-anchor="middle" x="161" y="-117" font-family="Helvetica,sans-Serif" font-size="10.00">qugar/point.hpp</text>
</a>
</g>
</g>
<!-- Node1&#45;&gt;Node4 -->
<g id="edge14_Node000001_Node000004" class="edge">
<title>Node1&#45;&gt;Node4</title>
<g id="a_edge14_Node000001_Node000004"><a xlink:title=" ">
<path fill="none" stroke="#63b8ff" d="M331.11,-222.78C295.81,-215.43 255.11,-203.43 222,-184 201.91,-172.21 184.13,-151.96 173.02,-137.49"/>
<polygon fill="#63b8ff" stroke="#63b8ff" points="175.77,-135.32 167,-129.36 170.14,-139.49 175.77,-135.32"/>
</a>
</g>
</g>
<!-- Node5 -->
<g id="Node000005" class="node">
<title>Node5</title>
<g id="a_Node000005"><a xlink:href="../../dd/de3/types_8hpp.html" target="_top" xlink:title="Declaration of types.">
<polygon fill="white" stroke="#666666" points="321.5,-74 226.5,-74 226.5,-55 321.5,-55 321.5,-74"/>
<text text-anchor="middle" x="274" y="-62" font-family="Helvetica,sans-Serif" font-size="10.00">qugar/types.hpp</text>
</a>
</g>
</g>
<!-- Node1&#45;&gt;Node5 -->
<g id="edge15_Node000001_Node000005" class="edge">
<title>Node1&#45;&gt;Node5</title>
<g id="a_edge15_Node000001_Node000005"><a xlink:title=" ">
<path fill="none" stroke="#63b8ff" d="M379.45,-219.86C361.04,-211.14 338.48,-198.8 321,-184 297.32,-163.95 289.02,-158 278,-129 272.54,-114.63 271.83,-97.11 272.33,-84.11"/>
<polygon fill="#63b8ff" stroke="#63b8ff" points="275.82,-84.26 272.98,-74.05 268.84,-83.8 275.82,-84.26"/>
</a>
</g>
</g>
<!-- Node11 -->
<g id="Node000011" class="node">
<title>Node11</title>
<g id="a_Node000011"><a xlink:title=" ">
<polygon fill="#e0e0e0" stroke="#999999" points="678,-129 636,-129 636,-110 678,-110 678,-129"/>
<text text-anchor="middle" x="657" y="-117" font-family="Helvetica,sans-Serif" font-size="10.00">array</text>
</a>
</g>
</g>
<!-- Node1&#45;&gt;Node11 -->
<g id="edge16_Node000001_Node000011" class="edge">
<title>Node1&#45;&gt;Node11</title>
<g id="a_edge16_Node000001_Node000011"><a xlink:title=" ">
<path fill="none" stroke="#63b8ff" d="M420.68,-219.74C429.99,-203.88 447.17,-178.69 469,-165 528.18,-127.89 554.06,-145.24 622,-129 623.27,-128.7 624.56,-128.39 625.86,-128.07"/>
<polygon fill="#63b8ff" stroke="#63b8ff" points="627.01,-131.4 635.91,-125.65 625.36,-124.59 627.01,-131.4"/>
</a>
</g>
</g>
<!-- Node12 -->
<g id="Node000012" class="node">
<title>Node12</title>
<g id="a_Node000012"><a xlink:title=" ">
<polygon fill="#e0e0e0" stroke="#999999" points="536,-184 478,-184 478,-165 536,-165 536,-184"/>
<text text-anchor="middle" x="507" y="-172" font-family="Helvetica,sans-Serif" font-size="10.00">memory</text>
</a>
</g>
</g>
<!-- Node1&#45;&gt;Node12 -->
<g id="edge17_Node000001_Node000012" class="edge">
<title>Node1&#45;&gt;Node12</title>
<g id="a_edge17_Node000001_Node000012"><a xlink:title=" ">
<path fill="none" stroke="#63b8ff" d="M435.75,-219.84C450.6,-210.6 469.9,-198.59 484.66,-189.4"/>
<polygon fill="#63b8ff" stroke="#63b8ff" points="486.55,-192.35 493.19,-184.09 482.85,-186.41 486.55,-192.35"/>
</a>
</g>
</g>
<!-- Node13 -->
<g id="Node000013" class="node">
<title>Node13</title>
<g id="a_Node000013"><a xlink:title=" ">
<polygon fill="#e0e0e0" stroke="#999999" points="623.5,-184 554.5,-184 554.5,-165 623.5,-165 623.5,-184"/>
<text text-anchor="middle" x="589" y="-172" font-family="Helvetica,sans-Serif" font-size="10.00">type_traits</text>
</a>
</g>
</g>
<!-- Node1&#45;&gt;Node13 -->
<g id="edge18_Node000001_Node000013" class="edge">
<title>Node1&#45;&gt;Node13</title>
<g id="a_edge18_Node000001_Node000013"><a xlink:title=" ">
<path fill="none" stroke="#63b8ff" d="M455.16,-219.99C485.27,-209.98 525.31,-196.67 553.73,-187.22"/>
<polygon fill="#63b8ff" stroke="#63b8ff" points="554.88,-190.53 563.27,-184.05 552.67,-183.89 554.88,-190.53"/>
</a>
</g>
</g>
<!-- Node3 -->
<g id="Node000003" class="node">
<title>Node3</title>
<g id="a_Node000003"><a xlink:href="../../d7/dd8/concepts_8hpp.html" target="_top" xlink:title="Declaration of concepts.">
<polygon fill="white" stroke="#666666" points="580,-129 468,-129 468,-110 580,-110 580,-129"/>
<text text-anchor="middle" x="524" y="-117" font-family="Helvetica,sans-Serif" font-size="10.00">qugar/concepts.hpp</text>
</a>
</g>
</g>
<!-- Node2&#45;&gt;Node3 -->
<g id="edge2_Node000002_Node000003" class="edge">
<title>Node2&#45;&gt;Node3</title>
<g id="a_edge2_Node000002_Node000003"><a xlink:title=" ">
<path fill="none" stroke="#63b8ff" d="M399.78,-164.98C424.23,-156.23 462.53,-142.51 490.15,-132.62"/>
<polygon fill="#63b8ff" stroke="#63b8ff" points="491.55,-135.84 499.79,-129.17 489.19,-129.25 491.55,-135.84"/>
</a>
</g>
</g>
<!-- Node2&#45;&gt;Node4 -->
<g id="edge3_Node000002_Node000004" class="edge">
<title>Node2&#45;&gt;Node4</title>
<g id="a_edge3_Node000002_Node000004"><a xlink:title=" ">
<path fill="none" stroke="#63b8ff" d="M341.46,-164.98C304.58,-155.89 246.01,-141.46 205.66,-131.51"/>
<polygon fill="#63b8ff" stroke="#63b8ff" points="206.36,-128.08 195.81,-129.08 204.69,-134.87 206.36,-128.08"/>
</a>
</g>
</g>
<!-- Node2&#45;&gt;Node5 -->
<g id="edge10_Node000002_Node000005" class="edge">
<title>Node2&#45;&gt;Node5</title>
<g id="a_edge10_Node000002_Node000005"><a xlink:title=" ">
<path fill="none" stroke="#63b8ff" d="M348.45,-164.99C330.27,-158.04 307.27,-146.48 293,-129 282.65,-116.33 277.94,-98.14 275.79,-84.48"/>
<polygon fill="#63b8ff" stroke="#63b8ff" points="279.23,-83.78 274.52,-74.28 272.28,-84.64 279.23,-83.78"/>
</a>
</g>
</g>
<!-- Node6 -->
<g id="Node000006" class="node">
<title>Node6</title>
<g id="a_Node000006"><a xlink:title=" ">
<polygon fill="#e0e0e0" stroke="#999999" points="300.5,-19 247.5,-19 247.5,0 300.5,0 300.5,-19"/>
<text text-anchor="middle" x="274" y="-7" font-family="Helvetica,sans-Serif" font-size="10.00">cstddef</text>
</a>
</g>
</g>
<!-- Node2&#45;&gt;Node6 -->
<g id="edge13_Node000002_Node000006" class="edge">
<title>Node2&#45;&gt;Node6</title>
<g id="a_edge13_Node000002_Node000006"><a xlink:title=" ">
<path fill="none" stroke="#63b8ff" d="M422.08,-167C481.5,-158.14 578.5,-141.92 589,-129 594.33,-122.45 593.99,-116.81 589,-110 555.53,-64.33 386.28,-29.91 310.63,-16.56"/>
<polygon fill="#63b8ff" stroke="#63b8ff" points="311.05,-13.09 300.6,-14.82 309.85,-19.98 311.05,-13.09"/>
</a>
</g>
</g>
<!-- Node10 -->
<g id="Node000010" class="node">
<title>Node10</title>
<g id="a_Node000010"><a xlink:title=" ">
<polygon fill="#e0e0e0" stroke="#999999" points="450,-129 302,-129 302,-110 450,-110 450,-129"/>
<text text-anchor="middle" x="376" y="-117" font-family="Helvetica,sans-Serif" font-size="10.00">algoim/hyperrectangle.hpp</text>
</a>
</g>
</g>
<!-- Node2&#45;&gt;Node10 -->
<g id="edge11_Node000002_Node000010" class="edge">
<title>Node2&#45;&gt;Node10</title>
<g id="a_edge11_Node000002_Node000010"><a xlink:title=" ">
<path fill="none" stroke="#63b8ff" d="M376,-164.75C376,-157.8 376,-147.85 376,-139.13"/>
<polygon fill="#63b8ff" stroke="#63b8ff" points="379.5,-139.09 376,-129.09 372.5,-139.09 379.5,-139.09"/>
</a>
</g>
</g>
<!-- Node2&#45;&gt;Node11 -->
<g id="edge12_Node000002_Node000011" class="edge">
<title>Node2&#45;&gt;Node11</title>
<g id="a_edge12_Node000002_Node000011"><a xlink:title=" ">
<path fill="none" stroke="#63b8ff" d="M422.41,-165.95C471.98,-157.69 552.79,-143.65 622,-129 623.27,-128.73 624.57,-128.45 625.88,-128.16"/>
<polygon fill="#63b8ff" stroke="#63b8ff" points="626.99,-131.49 635.95,-125.83 625.42,-124.67 626.99,-131.49"/>
</a>
</g>
</g>
<!-- Node4&#45;&gt;Node5 -->
<g id="edge4_Node000004_Node000005" class="edge">
<title>Node4&#45;&gt;Node5</title>
<g id="a_edge4_Node000004_Node000005"><a xlink:title=" ">
<path fill="none" stroke="#63b8ff" d="M179.16,-109.98C197.25,-101.5 225.28,-88.35 246.19,-78.54"/>
<polygon fill="#63b8ff" stroke="#63b8ff" points="247.95,-81.59 255.51,-74.17 244.97,-75.25 247.95,-81.59"/>
</a>
</g>
</g>
<!-- Node4&#45;&gt;Node6 -->
<g id="edge8_Node000004_Node000006" class="edge">
<title>Node4&#45;&gt;Node6</title>
<g id="a_edge8_Node000004_Node000006"><a xlink:title=" ">
<path fill="none" stroke="#63b8ff" d="M167.78,-109.83C177.88,-97.16 197.74,-73.14 217,-55 228.39,-44.27 242.21,-33.44 253.38,-25.15"/>
<polygon fill="#63b8ff" stroke="#63b8ff" points="255.67,-27.81 261.68,-19.09 251.54,-22.16 255.67,-27.81"/>
</a>
</g>
</g>
<!-- Node7 -->
<g id="Node000007" class="node">
<title>Node7</title>
<g id="a_Node000007"><a xlink:href="../../da/d16/vector_8hpp.html" target="_top" xlink:title=" ">
<polygon fill="white" stroke="#666666" points="104,-74 6,-74 6,-55 104,-55 104,-74"/>
<text text-anchor="middle" x="55" y="-62" font-family="Helvetica,sans-Serif" font-size="10.00">qugar/vector.hpp</text>
</a>
</g>
</g>
<!-- Node4&#45;&gt;Node7 -->
<g id="edge6_Node000004_Node000007" class="edge">
<title>Node4&#45;&gt;Node7</title>
<g id="a_edge6_Node000004_Node000007"><a xlink:title=" ">
<path fill="none" stroke="#63b8ff" d="M143.97,-109.98C127.07,-101.54 100.94,-88.47 81.36,-78.68"/>
<polygon fill="#63b8ff" stroke="#63b8ff" points="82.85,-75.51 72.34,-74.17 79.72,-81.77 82.85,-75.51"/>
</a>
</g>
</g>
<!-- Node9 -->
<g id="Node000009" class="node">
<title>Node9</title>
<g id="a_Node000009"><a xlink:title=" ">
<polygon fill="#e0e0e0" stroke="#999999" points="169.5,-74 122.5,-74 122.5,-55 169.5,-55 169.5,-74"/>
<text text-anchor="middle" x="146" y="-62" font-family="Helvetica,sans-Serif" font-size="10.00">vector</text>
</a>
</g>
</g>
<!-- Node4&#45;&gt;Node9 -->
<g id="edge9_Node000004_Node000009" class="edge">
<title>Node4&#45;&gt;Node9</title>
<g id="a_edge9_Node000004_Node000009"><a xlink:title=" ">
<path fill="none" stroke="#63b8ff" d="M158.52,-109.75C156.54,-102.72 153.68,-92.62 151.19,-83.84"/>
<polygon fill="#63b8ff" stroke="#63b8ff" points="154.52,-82.76 148.43,-74.09 147.79,-84.66 154.52,-82.76"/>
</a>
</g>
</g>
<!-- Node5&#45;&gt;Node6 -->
<g id="edge5_Node000005_Node000006" class="edge">
<title>Node5&#45;&gt;Node6</title>
<g id="a_edge5_Node000005_Node000006"><a xlink:title=" ">
<path fill="none" stroke="#63b8ff" d="M274,-54.75C274,-47.8 274,-37.85 274,-29.13"/>
<polygon fill="#63b8ff" stroke="#63b8ff" points="277.5,-29.09 274,-19.09 270.5,-29.09 277.5,-29.09"/>
</a>
</g>
</g>
<!-- Node8 -->
<g id="Node000008" class="node">
<title>Node8</title>
<g id="a_Node000008"><a xlink:title=" ">
<polygon fill="#e0e0e0" stroke="#999999" points="110,-19 0,-19 0,0 110,0 110,-19"/>
<text text-anchor="middle" x="55" y="-7" font-family="Helvetica,sans-Serif" font-size="10.00">algoim/uvector.hpp</text>
</a>
</g>
</g>
<!-- Node7&#45;&gt;Node8 -->
<g id="edge7_Node000007_Node000008" class="edge">
<title>Node7&#45;&gt;Node8</title>
<g id="a_edge7_Node000007_Node000008"><a xlink:title=" ">
<path fill="none" stroke="#63b8ff" d="M55,-54.75C55,-47.8 55,-37.85 55,-29.13"/>
<polygon fill="#63b8ff" stroke="#63b8ff" points="58.5,-29.09 55,-19.09 51.5,-29.09 58.5,-29.09"/>
</a>
</g>
</g>
</g>
</svg>
