<?xml version="1.0" encoding="UTF-8" standalone="no"?>
<!DOCTYPE svg PUBLIC "-//W3C//DTD SVG 1.1//EN"
 "http://www.w3.org/Graphics/SVG/1.1/DTD/svg11.dtd">
<!-- Generated by graphviz version 2.43.0 (0)
 -->
<!-- Title: qugar::impl::funcs::EllipsoidBzr&lt; dim &gt; Pages: 1 -->
<svg width="288pt" height="236pt"
 viewBox="0.00 0.00 288.00 236.00" xmlns="http://www.w3.org/2000/svg" xmlns:xlink="http://www.w3.org/1999/xlink">
<g id="graph0" class="graph" transform="scale(1 1) rotate(0) translate(4 232)">
<title>qugar::impl::funcs::EllipsoidBzr&lt; dim &gt;</title>
<!-- Node1 -->
<g id="Node000001" class="node">
<title>Node1</title>
<g id="a_Node000001"><a xlink:title="Dimension independent ellipsoidal function. The function is defined by the ellipsoid&#39;s semi&#45;axes and ...">
<polygon fill="#999999" stroke="#666666" points="196,-30 75,-30 75,0 196,0 196,-30"/>
<text text-anchor="start" x="83" y="-18" font-family="Helvetica,sans-Serif" font-size="10.00">qugar::impl::funcs</text>
<text text-anchor="middle" x="135.5" y="-7" font-family="Helvetica,sans-Serif" font-size="10.00">::EllipsoidBzr&lt; dim &gt;</text>
</a>
</g>
</g>
<!-- Node2 -->
<g id="Node000002" class="node">
<title>Node2</title>
<g id="a_Node000002"><a xlink:href="../../d9/d7e/classqugar_1_1impl_1_1funcs_1_1EllipsoidBase.html" target="_top" xlink:title="Dimension independent ellipsoidal function (base cass). The function is defined by the ellipsoid&#39;s se...">
<polygon fill="white" stroke="#666666" points="129,-96 0,-96 0,-66 129,-66 129,-96"/>
<text text-anchor="start" x="8" y="-84" font-family="Helvetica,sans-Serif" font-size="10.00">qugar::impl::funcs</text>
<text text-anchor="middle" x="64.5" y="-73" font-family="Helvetica,sans-Serif" font-size="10.00">::EllipsoidBase&lt; dim &gt;</text>
</a>
</g>
</g>
<!-- Node2&#45;&gt;Node1 -->
<g id="edge1_Node000001_Node000002" class="edge">
<title>Node2&#45;&gt;Node1</title>
<g id="a_edge1_Node000001_Node000002"><a xlink:title=" ">
<path fill="none" stroke="#63b8ff" d="M87.88,-58.92C98.35,-49.49 110.42,-38.61 119.79,-30.16"/>
<polygon fill="#63b8ff" stroke="#63b8ff" points="85.34,-56.5 80.26,-65.8 90.03,-61.7 85.34,-56.5"/>
</a>
</g>
</g>
<!-- Node3 -->
<g id="Node000003" class="node">
<title>Node3</title>
<g id="a_Node000003"><a xlink:href="../../de/dca/classqugar_1_1impl_1_1BezierTP.html" target="_top" xlink:title=" ">
<polygon fill="white" stroke="#666666" points="268,-96 147,-96 147,-66 268,-66 268,-96"/>
<text text-anchor="start" x="155" y="-84" font-family="Helvetica,sans-Serif" font-size="10.00">qugar::impl::BezierTP</text>
<text text-anchor="middle" x="207.5" y="-73" font-family="Helvetica,sans-Serif" font-size="10.00">&lt; dim, 1 &gt;</text>
</a>
</g>
</g>
<!-- Node3&#45;&gt;Node1 -->
<g id="edge2_Node000001_Node000003" class="edge">
<title>Node3&#45;&gt;Node1</title>
<g id="a_edge2_Node000001_Node000003"><a xlink:title=" ">
<path fill="none" stroke="#63b8ff" d="M183.79,-58.92C173.17,-49.49 160.93,-38.61 151.43,-30.16"/>
<polygon fill="#63b8ff" stroke="#63b8ff" points="181.72,-61.77 191.52,-65.8 186.37,-56.54 181.72,-61.77"/>
</a>
</g>
</g>
<!-- Node4 -->
<g id="Node000004" class="node">
<title>Node4</title>
<g id="a_Node000004"><a xlink:href="../../d2/d05/classqugar_1_1impl_1_1PolynomialTP.html" target="_top" xlink:title="Base class for tensor&#45;product polynomial functions.">
<polygon fill="white" stroke="#666666" points="280,-162 135,-162 135,-132 280,-132 280,-162"/>
<text text-anchor="start" x="143" y="-150" font-family="Helvetica,sans-Serif" font-size="10.00">qugar::impl::PolynomialTP</text>
<text text-anchor="middle" x="207.5" y="-139" font-family="Helvetica,sans-Serif" font-size="10.00">&lt; dim, range &gt;</text>
</a>
</g>
</g>
<!-- Node4&#45;&gt;Node3 -->
<g id="edge3_Node000003_Node000004" class="edge">
<title>Node4&#45;&gt;Node3</title>
<g id="a_edge3_Node000003_Node000004"><a xlink:title=" ">
<path fill="none" stroke="#63b8ff" d="M207.5,-121.54C207.5,-112.96 207.5,-103.61 207.5,-96.16"/>
<polygon fill="#63b8ff" stroke="#63b8ff" points="204,-121.8 207.5,-131.8 211,-121.8 204,-121.8"/>
</a>
</g>
</g>
<!-- Node5 -->
<g id="Node000005" class="node">
<title>Node5</title>
<g id="a_Node000005"><a xlink:href="../../dd/d80/classqugar_1_1impl_1_1DomainFunc.html" target="_top" xlink:title="Domain functions.">
<polygon fill="white" stroke="#666666" points="277,-228 138,-228 138,-198 277,-198 277,-228"/>
<text text-anchor="start" x="146" y="-216" font-family="Helvetica,sans-Serif" font-size="10.00">qugar::impl::DomainFunc</text>
<text text-anchor="middle" x="207.5" y="-205" font-family="Helvetica,sans-Serif" font-size="10.00">&lt; dim, range &gt;</text>
</a>
</g>
</g>
<!-- Node5&#45;&gt;Node4 -->
<g id="edge4_Node000004_Node000005" class="edge">
<title>Node5&#45;&gt;Node4</title>
<g id="a_edge4_Node000004_Node000005"><a xlink:title=" ">
<path fill="none" stroke="#63b8ff" d="M207.5,-187.54C207.5,-178.96 207.5,-169.61 207.5,-162.16"/>
<polygon fill="#63b8ff" stroke="#63b8ff" points="204,-187.8 207.5,-197.8 211,-187.8 204,-187.8"/>
</a>
</g>
</g>
</g>
</svg>
