<?xml version="1.0" encoding="UTF-8" standalone="no"?>
<!DOCTYPE svg PUBLIC "-//W3C//DTD SVG 1.1//EN"
 "http://www.w3.org/Graphics/SVG/1.1/DTD/svg11.dtd">
<!-- Generated by graphviz version 2.43.0 (0)
 -->
<!-- Title: qugar::impl::funcs::Annulus Pages: 1 -->
<svg width="234pt" height="104pt"
 viewBox="0.00 0.00 234.00 104.00" xmlns="http://www.w3.org/2000/svg" xmlns:xlink="http://www.w3.org/1999/xlink">
<g id="graph0" class="graph" transform="scale(1 1) rotate(0) translate(4 100)">
<title>qugar::impl::funcs::Annulus</title>
<!-- Node1 -->
<g id="Node000001" class="node">
<title>Node1</title>
<g id="a_Node000001"><a xlink:title="2D annulus function. The function is defined by the annulus center and outer and inner radii....">
<polygon fill="#999999" stroke="#666666" points="165,-30 61,-30 61,0 165,0 165,-30"/>
<text text-anchor="start" x="69" y="-18" font-family="Helvetica,sans-Serif" font-size="10.00">qugar::impl::funcs</text>
<text text-anchor="middle" x="113" y="-7" font-family="Helvetica,sans-Serif" font-size="10.00">::Annulus</text>
</a>
</g>
</g>
<!-- Node2 -->
<g id="Node000002" class="node">
<title>Node2</title>
<g id="a_Node000002"><a xlink:href="../../db/ded/classqugar_1_1impl_1_1funcs_1_1AnnulusBase.html" target="_top" xlink:title="2D annulus base class. The function is defined by the annulus center and major and inner radii....">
<polygon fill="white" stroke="#666666" points="104,-96 0,-96 0,-66 104,-66 104,-96"/>
<text text-anchor="start" x="8" y="-84" font-family="Helvetica,sans-Serif" font-size="10.00">qugar::impl::funcs</text>
<text text-anchor="middle" x="52" y="-73" font-family="Helvetica,sans-Serif" font-size="10.00">::AnnulusBase</text>
</a>
</g>
</g>
<!-- Node2&#45;&gt;Node1 -->
<g id="edge1_Node000001_Node000002" class="edge">
<title>Node2&#45;&gt;Node1</title>
<g id="a_edge1_Node000001_Node000002"><a xlink:title=" ">
<path fill="none" stroke="#63b8ff" d="M72.62,-58.37C81.49,-49.06 91.61,-38.44 99.5,-30.16"/>
<polygon fill="#63b8ff" stroke="#63b8ff" points="69.9,-56.14 65.54,-65.8 74.97,-60.97 69.9,-56.14"/>
</a>
</g>
</g>
<!-- Node3 -->
<g id="Node000003" class="node">
<title>Node3</title>
<g id="a_Node000003"><a xlink:href="../../dd/d80/classqugar_1_1impl_1_1DomainFunc.html" target="_top" xlink:title="Domain functions.">
<polygon fill="white" stroke="#666666" points="226,-90.5 122,-90.5 122,-71.5 226,-71.5 226,-90.5"/>
<text text-anchor="middle" x="174" y="-78.5" font-family="Helvetica,sans-Serif" font-size="10.00">ImplicitFunc&lt; 2 &gt;</text>
</a>
</g>
</g>
<!-- Node3&#45;&gt;Node1 -->
<g id="edge2_Node000001_Node000003" class="edge">
<title>Node3&#45;&gt;Node1</title>
<g id="a_edge2_Node000001_Node000003"><a xlink:title=" ">
<path fill="none" stroke="#63b8ff" d="M158.61,-63.85C148.78,-53.54 136.16,-40.3 126.69,-30.36"/>
<polygon fill="#63b8ff" stroke="#63b8ff" points="156.34,-66.54 165.77,-71.37 161.41,-61.72 156.34,-66.54"/>
</a>
</g>
</g>
</g>
</svg>
