<?xml version="1.0" encoding="UTF-8" standalone="no"?>
<!DOCTYPE svg PUBLIC "-//W3C//DTD SVG 1.1//EN"
 "http://www.w3.org/Graphics/SVG/1.1/DTD/svg11.dtd">
<!-- Generated by graphviz version 2.43.0 (0)
 -->
<!-- Title: /__w/qugar/qugar/cpp/include/qugar/domain_function.hpp Pages: 1 -->
<svg width="1156pt" height="434pt"
 viewBox="0.00 0.00 1156.00 434.00" xmlns="http://www.w3.org/2000/svg" xmlns:xlink="http://www.w3.org/1999/xlink">
<g id="graph0" class="graph" transform="scale(1 1) rotate(0) translate(4 430)">
<title>/__w/qugar/qugar/cpp/include/qugar/domain_function.hpp</title>
<!-- Node1 -->
<g id="Node000001" class="node">
<title>Node1</title>
<g id="a_Node000001"><a xlink:title="Declaration of a few implicit functions template class ready to be consumed by Algoim.">
<polygon fill="#999999" stroke="#666666" points="562.5,-426 437.5,-426 437.5,-385 562.5,-385 562.5,-426"/>
<text text-anchor="start" x="445.5" y="-414" font-family="Helvetica,sans-Serif" font-size="10.00">/__w/qugar/qugar/cpp</text>
<text text-anchor="start" x="445.5" y="-403" font-family="Helvetica,sans-Serif" font-size="10.00">/include/qugar/domain</text>
<text text-anchor="middle" x="500" y="-392" font-family="Helvetica,sans-Serif" font-size="10.00">_function.hpp</text>
</a>
</g>
</g>
<!-- Node2 -->
<g id="Node000002" class="node">
<title>Node2</title>
<g id="a_Node000002"><a xlink:href="../../d2/d6e/bezier__tp_8hpp.html" target="_top" xlink:title="Declaration of tensor&#45;product Bezier class.">
<polygon fill="white" stroke="#666666" points="153,-195 33,-195 33,-154 153,-154 153,-195"/>
<text text-anchor="start" x="41" y="-183" font-family="Helvetica,sans-Serif" font-size="10.00">/__w/qugar/qugar/cpp</text>
<text text-anchor="start" x="41" y="-172" font-family="Helvetica,sans-Serif" font-size="10.00">/include/qugar/bezier</text>
<text text-anchor="middle" x="93" y="-161" font-family="Helvetica,sans-Serif" font-size="10.00">_tp.hpp</text>
</a>
</g>
</g>
<!-- Node1&#45;&gt;Node2 -->
<g id="edge1_Node000001_Node000002" class="edge">
<title>Node1&#45;&gt;Node2</title>
<g id="a_edge1_Node000001_Node000002"><a xlink:title=" ">
<path fill="none" stroke="#63b8ff" d="M427.29,-401.44C298.44,-395.27 41.01,-379.27 14,-349 -27.76,-302.2 35.59,-229.62 71.32,-195.07"/>
<polygon fill="#63b8ff" stroke="#63b8ff" points="427.31,-404.95 437.46,-401.92 427.64,-397.95 427.31,-404.95"/>
</a>
</g>
</g>
<!-- Node5 -->
<g id="Node000005" class="node">
<title>Node5</title>
<g id="a_Node000005"><a xlink:href="../../d7/d6f/primitive__funcs__lib_8hpp.html" target="_top" xlink:title="Declaration of a primitive implicit functions ready to be consumed by Algoim.">
<polygon fill="white" stroke="#666666" points="299.5,-118 166.5,-118 166.5,-77 299.5,-77 299.5,-118"/>
<text text-anchor="start" x="174.5" y="-106" font-family="Helvetica,sans-Serif" font-size="10.00">/__w/qugar/qugar/cpp</text>
<text text-anchor="start" x="174.5" y="-95" font-family="Helvetica,sans-Serif" font-size="10.00">/include/qugar/primitive</text>
<text text-anchor="middle" x="233" y="-84" font-family="Helvetica,sans-Serif" font-size="10.00">_funcs_lib.hpp</text>
</a>
</g>
</g>
<!-- Node1&#45;&gt;Node5 -->
<g id="edge28_Node000001_Node000005" class="edge">
<title>Node1&#45;&gt;Node5</title>
<g id="a_edge28_Node000001_Node000005"><a xlink:title=" ">
<path fill="none" stroke="#63b8ff" d="M427.58,-389.43C367.28,-372.45 285.98,-338.11 252,-272 226.02,-221.47 227.9,-151.89 230.77,-118.27"/>
<polygon fill="#63b8ff" stroke="#63b8ff" points="426.88,-392.86 437.45,-392.11 428.71,-386.11 426.88,-392.86"/>
</a>
</g>
</g>
<!-- Node7 -->
<g id="Node000007" class="node">
<title>Node7</title>
<g id="a_Node000007"><a xlink:href="../../d5/d2a/impl__funcs__lib_8hpp.html" target="_top" xlink:title="Declaration of a few implicit functions ready to be consumed by Algoim.">
<polygon fill="white" stroke="#666666" points="972,-349 830,-349 830,-308 972,-308 972,-349"/>
<text text-anchor="start" x="838" y="-337" font-family="Helvetica,sans-Serif" font-size="10.00">/__w/qugar/qugar/cpp</text>
<text text-anchor="start" x="838" y="-326" font-family="Helvetica,sans-Serif" font-size="10.00">/include/qugar/impl_funcs</text>
<text text-anchor="middle" x="901" y="-315" font-family="Helvetica,sans-Serif" font-size="10.00">_lib.hpp</text>
</a>
</g>
</g>
<!-- Node1&#45;&gt;Node7 -->
<g id="edge6_Node000001_Node000007" class="edge">
<title>Node1&#45;&gt;Node7</title>
<g id="a_edge6_Node000001_Node000007"><a xlink:title=" ">
<path fill="none" stroke="#63b8ff" d="M572.55,-392.85C636.73,-382.29 732.82,-365.83 816,-349 820.45,-348.1 825.02,-347.14 829.63,-346.15"/>
<polygon fill="#63b8ff" stroke="#63b8ff" points="571.83,-389.42 562.53,-394.5 572.97,-396.33 571.83,-389.42"/>
</a>
</g>
</g>
<!-- Node8 -->
<g id="Node000008" class="node">
<title>Node8</title>
<g id="a_Node000008"><a xlink:href="../../d6/dc8/impl__quadrature_8hpp.html" target="_top" xlink:title="Declaration of quadratures for general implicit functions on grids.">
<polygon fill="white" stroke="#666666" points="1107,-266.5 917,-266.5 917,-236.5 1107,-236.5 1107,-266.5"/>
<text text-anchor="start" x="925" y="-254.5" font-family="Helvetica,sans-Serif" font-size="10.00">/__w/qugar/qugar/cpp</text>
<text text-anchor="middle" x="1012" y="-243.5" font-family="Helvetica,sans-Serif" font-size="10.00">/include/qugar/impl_quadrature.hpp</text>
</a>
</g>
</g>
<!-- Node1&#45;&gt;Node8 -->
<g id="edge7_Node000001_Node000008" class="edge">
<title>Node1&#45;&gt;Node8</title>
<g id="a_edge7_Node000001_Node000008"><a xlink:title=" ">
<path fill="none" stroke="#63b8ff" d="M572.69,-402.56C632.52,-398.18 717.78,-385.35 783,-349 804.7,-336.9 799.86,-321.05 821,-308 853.32,-288.05 893.13,-274.99 928.02,-266.6"/>
<polygon fill="#63b8ff" stroke="#63b8ff" points="572.31,-399.08 562.57,-403.24 572.78,-406.07 572.31,-399.08"/>
</a>
</g>
</g>
<!-- Node9 -->
<g id="Node000009" class="node">
<title>Node9</title>
<g id="a_Node000009"><a xlink:href="../../d0/d4c/impl__reparam_8hpp.html" target="_top" xlink:title="Declaration of reparameterization generization tools implicit functions on grids.">
<polygon fill="white" stroke="#666666" points="653,-266.5 475,-266.5 475,-236.5 653,-236.5 653,-266.5"/>
<text text-anchor="start" x="483" y="-254.5" font-family="Helvetica,sans-Serif" font-size="10.00">/__w/qugar/qugar/cpp</text>
<text text-anchor="middle" x="564" y="-243.5" font-family="Helvetica,sans-Serif" font-size="10.00">/include/qugar/impl_reparam.hpp</text>
</a>
</g>
</g>
<!-- Node1&#45;&gt;Node9 -->
<g id="edge9_Node000001_Node000009" class="edge">
<title>Node1&#45;&gt;Node9</title>
<g id="a_edge9_Node000001_Node000009"><a xlink:title=" ">
<path fill="none" stroke="#63b8ff" d="M519.08,-376.38C524.37,-367.83 529.81,-358.24 534,-349 546.74,-320.88 556.14,-285.81 560.77,-266.64"/>
<polygon fill="#63b8ff" stroke="#63b8ff" points="516.1,-374.55 513.68,-384.87 522.01,-378.31 516.1,-374.55"/>
</a>
</g>
</g>
<!-- Node11 -->
<g id="Node000011" class="node">
<title>Node11</title>
<g id="a_Node000011"><a xlink:href="../../d5/da9/impl__reparam__general_8hpp.html" target="_top" xlink:title="Declaration of tools for creating reparameterizations of general functions.">
<polygon fill="white" stroke="#666666" points="418.5,-272 261.5,-272 261.5,-231 418.5,-231 418.5,-272"/>
<text text-anchor="start" x="269.5" y="-260" font-family="Helvetica,sans-Serif" font-size="10.00">/__w/qugar/qugar/cpp</text>
<text text-anchor="start" x="269.5" y="-249" font-family="Helvetica,sans-Serif" font-size="10.00">/include/qugar/impl_reparam</text>
<text text-anchor="middle" x="340" y="-238" font-family="Helvetica,sans-Serif" font-size="10.00">_general.hpp</text>
</a>
</g>
</g>
<!-- Node1&#45;&gt;Node11 -->
<g id="edge11_Node000001_Node000011" class="edge">
<title>Node1&#45;&gt;Node11</title>
<g id="a_edge11_Node000001_Node000011"><a xlink:title=" ">
<path fill="none" stroke="#63b8ff" d="M427.27,-390.88C402.26,-382.71 376.25,-369.69 359,-349 340.95,-327.36 338.28,-293.53 338.65,-272.21"/>
<polygon fill="#63b8ff" stroke="#63b8ff" points="426.56,-394.32 437.15,-393.89 428.6,-387.63 426.56,-394.32"/>
</a>
</g>
</g>
<!-- Node12 -->
<g id="Node000012" class="node">
<title>Node12</title>
<g id="a_Node000012"><a xlink:href="../../d3/d42/impl__reparam__mesh_8hpp.html" target="_top" xlink:title="Declaration of reparameterization class.">
<polygon fill="white" stroke="#666666" points="525.5,-349 368.5,-349 368.5,-308 525.5,-308 525.5,-349"/>
<text text-anchor="start" x="376.5" y="-337" font-family="Helvetica,sans-Serif" font-size="10.00">/__w/qugar/qugar/cpp</text>
<text text-anchor="start" x="376.5" y="-326" font-family="Helvetica,sans-Serif" font-size="10.00">/include/qugar/impl_reparam</text>
<text text-anchor="middle" x="447" y="-315" font-family="Helvetica,sans-Serif" font-size="10.00">_mesh.hpp</text>
</a>
</g>
</g>
<!-- Node1&#45;&gt;Node12 -->
<g id="edge12_Node000001_Node000012" class="edge">
<title>Node1&#45;&gt;Node12</title>
<g id="a_edge12_Node000001_Node000012"><a xlink:title=" ">
<path fill="none" stroke="#63b8ff" d="M480.13,-376.39C473.71,-367.3 466.72,-357.41 460.83,-349.07"/>
<polygon fill="#63b8ff" stroke="#63b8ff" points="477.44,-378.65 486.07,-384.79 483.16,-374.61 477.44,-378.65"/>
</a>
</g>
</g>
<!-- Node13 -->
<g id="Node000013" class="node">
<title>Node13</title>
<g id="a_Node000013"><a xlink:href="../../d6/d03/impl__unfitted__domain_8hpp.html" target="_top" xlink:title="Declaration of of UnfittedImplDomain class.">
<polygon fill="white" stroke="#666666" points="773.5,-349 620.5,-349 620.5,-308 773.5,-308 773.5,-349"/>
<text text-anchor="start" x="628.5" y="-337" font-family="Helvetica,sans-Serif" font-size="10.00">/__w/qugar/qugar/cpp</text>
<text text-anchor="start" x="628.5" y="-326" font-family="Helvetica,sans-Serif" font-size="10.00">/include/qugar/impl_unfitted</text>
<text text-anchor="middle" x="697" y="-315" font-family="Helvetica,sans-Serif" font-size="10.00">_domain.hpp</text>
</a>
</g>
</g>
<!-- Node1&#45;&gt;Node13 -->
<g id="edge16_Node000001_Node000013" class="edge">
<title>Node1&#45;&gt;Node13</title>
<g id="a_edge16_Node000001_Node000013"><a xlink:title=" ">
<path fill="none" stroke="#63b8ff" d="M560.66,-381.4C587.88,-371.04 619.65,-358.95 645.67,-349.04"/>
<polygon fill="#63b8ff" stroke="#63b8ff" points="559.34,-378.16 551.24,-384.99 561.83,-384.7 559.34,-378.16"/>
</a>
</g>
</g>
<!-- Node14 -->
<g id="Node000014" class="node">
<title>Node14</title>
<g id="a_Node000014"><a xlink:href="../../df/dc4/impl__utils_8hpp.html" target="_top" xlink:title="Declaration of utility functions for implicit geometries.">
<polygon fill="white" stroke="#666666" points="1148,-343.5 990,-343.5 990,-313.5 1148,-313.5 1148,-343.5"/>
<text text-anchor="start" x="998" y="-331.5" font-family="Helvetica,sans-Serif" font-size="10.00">/__w/qugar/qugar/cpp</text>
<text text-anchor="middle" x="1069" y="-320.5" font-family="Helvetica,sans-Serif" font-size="10.00">/include/qugar/impl_utils.hpp</text>
</a>
</g>
</g>
<!-- Node1&#45;&gt;Node14 -->
<g id="edge21_Node000001_Node000014" class="edge">
<title>Node1&#45;&gt;Node14</title>
<g id="a_edge21_Node000001_Node000014"><a xlink:title=" ">
<path fill="none" stroke="#63b8ff" d="M572.57,-398.48C667.02,-390.1 837.02,-373.19 981,-349 990.26,-347.44 1000.01,-345.55 1009.52,-343.55"/>
<polygon fill="#63b8ff" stroke="#63b8ff" points="572.21,-395 562.55,-399.36 572.82,-401.97 572.21,-395"/>
</a>
</g>
</g>
<!-- Node15 -->
<g id="Node000015" class="node">
<title>Node15</title>
<g id="a_Node000015"><a xlink:href="../../d6/d82/monomials__tp_8hpp.html" target="_top" xlink:title="Declaration of tensor&#45;product monomials class.">
<polygon fill="white" stroke="#666666" points="204.5,-272 61.5,-272 61.5,-231 204.5,-231 204.5,-272"/>
<text text-anchor="start" x="69.5" y="-260" font-family="Helvetica,sans-Serif" font-size="10.00">/__w/qugar/qugar/cpp</text>
<text text-anchor="start" x="69.5" y="-249" font-family="Helvetica,sans-Serif" font-size="10.00">/include/qugar/monomials</text>
<text text-anchor="middle" x="133" y="-238" font-family="Helvetica,sans-Serif" font-size="10.00">_tp.hpp</text>
</a>
</g>
</g>
<!-- Node1&#45;&gt;Node15 -->
<g id="edge22_Node000001_Node000015" class="edge">
<title>Node1&#45;&gt;Node15</title>
<g id="a_edge22_Node000001_Node000015"><a xlink:title=" ">
<path fill="none" stroke="#63b8ff" d="M427.35,-402.77C367.84,-398.5 283.29,-385.72 219,-349 201.85,-339.21 167.63,-297.27 147.92,-272.01"/>
<polygon fill="#63b8ff" stroke="#63b8ff" points="427.21,-406.27 437.41,-403.43 427.66,-399.28 427.21,-406.27"/>
</a>
</g>
</g>
<!-- Node16 -->
<g id="Node000016" class="node">
<title>Node16</title>
<g id="a_Node000016"><a xlink:href="../../d2/dee/polynomial__tp_8hpp.html" target="_top" xlink:title="Declaration of tensor&#45;product polynomial class.">
<polygon fill="white" stroke="#666666" points="166.5,-349 23.5,-349 23.5,-308 166.5,-308 166.5,-349"/>
<text text-anchor="start" x="31.5" y="-337" font-family="Helvetica,sans-Serif" font-size="10.00">/__w/qugar/qugar/cpp</text>
<text text-anchor="start" x="31.5" y="-326" font-family="Helvetica,sans-Serif" font-size="10.00">/include/qugar/polynomial</text>
<text text-anchor="middle" x="95" y="-315" font-family="Helvetica,sans-Serif" font-size="10.00">_tp.hpp</text>
</a>
</g>
</g>
<!-- Node1&#45;&gt;Node16 -->
<g id="edge25_Node000001_Node000016" class="edge">
<title>Node1&#45;&gt;Node16</title>
<g id="a_edge25_Node000001_Node000016"><a xlink:title=" ">
<path fill="none" stroke="#63b8ff" d="M427.36,-392.94C362.58,-382.37 265.23,-365.87 181,-349 176.34,-348.07 171.56,-347.08 166.73,-346.05"/>
<polygon fill="#63b8ff" stroke="#63b8ff" points="427.04,-396.43 437.47,-394.58 428.17,-389.52 427.04,-396.43"/>
</a>
</g>
</g>
<!-- Node17 -->
<g id="Node000017" class="node">
<title>Node17</title>
<g id="a_Node000017"><a xlink:href="../../d4/d7f/tpms__lib_8hpp.html" target="_top" xlink:title="Declaration of TPMS functions to be consumed by Algoim.">
<polygon fill="white" stroke="#666666" points="823,-266.5 671,-266.5 671,-236.5 823,-236.5 823,-266.5"/>
<text text-anchor="start" x="679" y="-254.5" font-family="Helvetica,sans-Serif" font-size="10.00">/__w/qugar/qugar/cpp</text>
<text text-anchor="middle" x="747" y="-243.5" font-family="Helvetica,sans-Serif" font-size="10.00">/include/qugar/tpms_lib.hpp</text>
</a>
</g>
</g>
<!-- Node1&#45;&gt;Node17 -->
<g id="edge29_Node000001_Node000017" class="edge">
<title>Node1&#45;&gt;Node17</title>
<g id="a_edge29_Node000001_Node000017"><a xlink:title=" ">
<path fill="none" stroke="#63b8ff" d="M525.87,-377.91C547.43,-356.86 579.71,-327.82 612,-308 640.61,-290.43 675.77,-276.18 703.03,-266.52"/>
<polygon fill="#63b8ff" stroke="#63b8ff" points="523.36,-375.47 518.71,-384.99 528.28,-380.44 523.36,-375.47"/>
</a>
</g>
</g>
<!-- Node3 -->
<g id="Node000003" class="node">
<title>Node3</title>
<g id="a_Node000003"><a xlink:href="../../de/d62/bezier__tp__utils_8hpp.html" target="_top" xlink:title="Declaration of tensor&#45;product Bezier utils.">
<polygon fill="white" stroke="#666666" points="148,-118 28,-118 28,-77 148,-77 148,-118"/>
<text text-anchor="start" x="36" y="-106" font-family="Helvetica,sans-Serif" font-size="10.00">/__w/qugar/qugar/cpp</text>
<text text-anchor="start" x="36" y="-95" font-family="Helvetica,sans-Serif" font-size="10.00">/include/qugar/bezier</text>
<text text-anchor="middle" x="88" y="-84" font-family="Helvetica,sans-Serif" font-size="10.00">_tp_utils.hpp</text>
</a>
</g>
</g>
<!-- Node2&#45;&gt;Node3 -->
<g id="edge2_Node000002_Node000003" class="edge">
<title>Node2&#45;&gt;Node3</title>
<g id="a_edge2_Node000002_Node000003"><a xlink:title=" ">
<path fill="none" stroke="#63b8ff" d="M91.01,-143.69C90.44,-135.08 89.82,-125.9 89.3,-118.07"/>
<polygon fill="#63b8ff" stroke="#63b8ff" points="87.53,-144.05 91.68,-153.79 94.51,-143.58 87.53,-144.05"/>
</a>
</g>
</g>
<!-- Node4 -->
<g id="Node000004" class="node">
<title>Node4</title>
<g id="a_Node000004"><a xlink:href="../../d6/d87/impl__reparam__bezier_8hpp.html" target="_top" xlink:title="Declaration of tools for creating Bezier reparameterizations.">
<polygon fill="white" stroke="#666666" points="500.5,-118 343.5,-118 343.5,-77 500.5,-77 500.5,-118"/>
<text text-anchor="start" x="351.5" y="-106" font-family="Helvetica,sans-Serif" font-size="10.00">/__w/qugar/qugar/cpp</text>
<text text-anchor="start" x="351.5" y="-95" font-family="Helvetica,sans-Serif" font-size="10.00">/include/qugar/impl_reparam</text>
<text text-anchor="middle" x="422" y="-84" font-family="Helvetica,sans-Serif" font-size="10.00">_bezier.hpp</text>
</a>
</g>
</g>
<!-- Node2&#45;&gt;Node4 -->
<g id="edge3_Node000002_Node000004" class="edge">
<title>Node2&#45;&gt;Node4</title>
<g id="a_edge3_Node000002_Node000004"><a xlink:title=" ">
<path fill="none" stroke="#63b8ff" d="M163.31,-157.47C216.18,-145.42 288.62,-128.9 343.4,-116.42"/>
<polygon fill="#63b8ff" stroke="#63b8ff" points="162.31,-154.11 153.34,-159.74 163.87,-160.93 162.31,-154.11"/>
</a>
</g>
</g>
<!-- Node2&#45;&gt;Node5 -->
<g id="edge4_Node000002_Node000005" class="edge">
<title>Node2&#45;&gt;Node5</title>
<g id="a_edge4_Node000002_Node000005"><a xlink:title=" ">
<path fill="none" stroke="#63b8ff" d="M138.37,-149.19C157.11,-139.15 178.55,-127.67 196.27,-118.17"/>
<polygon fill="#63b8ff" stroke="#63b8ff" points="136.58,-146.18 129.41,-153.99 139.88,-152.35 136.58,-146.18"/>
</a>
</g>
</g>
<!-- Node6 -->
<g id="Node000006" class="node">
<title>Node6</title>
<g id="a_Node000006"><a xlink:href="../../d0/d6f/demo__quad__sphere_2main_8cpp.html" target="_top" xlink:title=" ">
<polygon fill="white" stroke="#666666" points="962,-41 816,-41 816,0 962,0 962,-41"/>
<text text-anchor="start" x="824" y="-29" font-family="Helvetica,sans-Serif" font-size="10.00">/__w/qugar/qugar/cpp</text>
<text text-anchor="start" x="824" y="-18" font-family="Helvetica,sans-Serif" font-size="10.00">/demo/demo_quad_sphere</text>
<text text-anchor="middle" x="889" y="-7" font-family="Helvetica,sans-Serif" font-size="10.00">/main.cpp</text>
</a>
</g>
</g>
<!-- Node5&#45;&gt;Node6 -->
<g id="edge5_Node000005_Node000006" class="edge">
<title>Node5&#45;&gt;Node6</title>
<g id="a_edge5_Node000005_Node000006"><a xlink:title=" ">
<path fill="none" stroke="#63b8ff" d="M309.64,-80.95C317.85,-79.51 326.08,-78.16 334,-77 505.75,-51.89 709.08,-34.73 815.57,-26.7"/>
<polygon fill="#63b8ff" stroke="#63b8ff" points="308.9,-77.52 299.67,-82.74 310.14,-84.41 308.9,-77.52"/>
</a>
</g>
</g>
<!-- Node8&#45;&gt;Node6 -->
<g id="edge8_Node000008_Node000006" class="edge">
<title>Node8&#45;&gt;Node6</title>
<g id="a_edge8_Node000008_Node000006"><a xlink:title=" ">
<path fill="none" stroke="#63b8ff" d="M999.45,-227.13C975.17,-181.93 922.18,-83.28 899.57,-41.18"/>
<polygon fill="#63b8ff" stroke="#63b8ff" points="996.49,-229.02 1004.3,-236.18 1002.65,-225.71 996.49,-229.02"/>
</a>
</g>
</g>
<!-- Node10 -->
<g id="Node000010" class="node">
<title>Node10</title>
<g id="a_Node000010"><a xlink:href="../../d2/d66/demo__reparam__gyroid_2main_8cpp.html" target="_top" xlink:title=" ">
<polygon fill="white" stroke="#666666" points="827.5,-195 666.5,-195 666.5,-154 827.5,-154 827.5,-195"/>
<text text-anchor="start" x="674.5" y="-183" font-family="Helvetica,sans-Serif" font-size="10.00">/__w/qugar/qugar/cpp</text>
<text text-anchor="start" x="674.5" y="-172" font-family="Helvetica,sans-Serif" font-size="10.00">/demo/demo_reparam_gyroid</text>
<text text-anchor="middle" x="747" y="-161" font-family="Helvetica,sans-Serif" font-size="10.00">/main.cpp</text>
</a>
</g>
</g>
<!-- Node9&#45;&gt;Node10 -->
<g id="edge10_Node000009_Node000010" class="edge">
<title>Node9&#45;&gt;Node10</title>
<g id="a_edge10_Node000009_Node000010"><a xlink:title=" ">
<path fill="none" stroke="#63b8ff" d="M607.81,-232.54C635.38,-221.24 670.98,-206.66 699.26,-195.06"/>
<polygon fill="#63b8ff" stroke="#63b8ff" points="606.34,-229.36 598.42,-236.39 609,-235.84 606.34,-229.36"/>
</a>
</g>
</g>
<!-- Node12&#45;&gt;Node4 -->
<g id="edge14_Node000012_Node000004" class="edge">
<title>Node12&#45;&gt;Node4</title>
<g id="a_edge14_Node000012_Node000004"><a xlink:title=" ">
<path fill="none" stroke="#63b8ff" d="M443.78,-298.02C438.6,-250.61 428.56,-158.66 424.16,-118.3"/>
<polygon fill="#63b8ff" stroke="#63b8ff" points="440.3,-298.41 444.87,-307.98 447.26,-297.65 440.3,-298.41"/>
</a>
</g>
</g>
<!-- Node12&#45;&gt;Node9 -->
<g id="edge13_Node000012_Node000009" class="edge">
<title>Node12&#45;&gt;Node9</title>
<g id="a_edge13_Node000012_Node000009"><a xlink:title=" ">
<path fill="none" stroke="#63b8ff" d="M486,-302.5C504.58,-290.59 526.11,-276.78 541.84,-266.7"/>
<polygon fill="#63b8ff" stroke="#63b8ff" points="483.96,-299.65 477.43,-307.99 487.74,-305.54 483.96,-299.65"/>
</a>
</g>
</g>
<!-- Node12&#45;&gt;Node11 -->
<g id="edge15_Node000012_Node000011" class="edge">
<title>Node12&#45;&gt;Node11</title>
<g id="a_edge15_Node000012_Node000011"><a xlink:title=" ">
<path fill="none" stroke="#63b8ff" d="M410.75,-302.09C396.81,-292.32 381.12,-281.32 368.06,-272.17"/>
<polygon fill="#63b8ff" stroke="#63b8ff" points="408.97,-305.12 419.16,-307.99 412.98,-299.38 408.97,-305.12"/>
</a>
</g>
</g>
<!-- Node13&#45;&gt;Node6 -->
<g id="edge17_Node000013_Node000006" class="edge">
<title>Node13&#45;&gt;Node6</title>
<g id="a_edge17_Node000013_Node000006"><a xlink:title=" ">
<path fill="none" stroke="#63b8ff" d="M781.5,-304.87C811.11,-295.28 839.4,-283.64 849,-272 905.59,-203.36 897.78,-87.08 891.96,-41.07"/>
<polygon fill="#63b8ff" stroke="#63b8ff" points="780.35,-301.56 771.86,-307.91 782.45,-308.24 780.35,-301.56"/>
</a>
</g>
</g>
<!-- Node13&#45;&gt;Node8 -->
<g id="edge19_Node000013_Node000008" class="edge">
<title>Node13&#45;&gt;Node8</title>
<g id="a_edge19_Node000013_Node000008"><a xlink:title=" ">
<path fill="none" stroke="#63b8ff" d="M783.55,-306.89C837.46,-294.06 905.39,-277.88 953.11,-266.52"/>
<polygon fill="#63b8ff" stroke="#63b8ff" points="782.57,-303.53 773.65,-309.25 784.19,-310.34 782.57,-303.53"/>
</a>
</g>
</g>
<!-- Node13&#45;&gt;Node9 -->
<g id="edge20_Node000013_Node000009" class="edge">
<title>Node13&#45;&gt;Node9</title>
<g id="a_edge20_Node000013_Node000009"><a xlink:title=" ">
<path fill="none" stroke="#63b8ff" d="M653.52,-302.98C632.21,-290.97 607.3,-276.92 589.18,-266.7"/>
<polygon fill="#63b8ff" stroke="#63b8ff" points="651.97,-306.13 662.4,-307.99 655.41,-300.03 651.97,-306.13"/>
</a>
</g>
</g>
<!-- Node13&#45;&gt;Node10 -->
<g id="edge18_Node000013_Node000010" class="edge">
<title>Node13&#45;&gt;Node10</title>
<g id="a_edge18_Node000013_Node000010"><a xlink:title=" ">
<path fill="none" stroke="#63b8ff" d="M783.24,-309.38C802.39,-301.18 820.42,-289.28 832,-272 842.14,-256.86 840.67,-247.02 832,-231 823.69,-215.66 809.1,-203.88 794.32,-195.21"/>
<polygon fill="#63b8ff" stroke="#63b8ff" points="781.78,-306.19 773.77,-313.12 784.35,-312.7 781.78,-306.19"/>
</a>
</g>
</g>
<!-- Node15&#45;&gt;Node2 -->
<g id="edge23_Node000015_Node000002" class="edge">
<title>Node15&#45;&gt;Node2</title>
<g id="a_edge23_Node000015_Node000002"><a xlink:title=" ">
<path fill="none" stroke="#63b8ff" d="M117.7,-221.83C112.94,-212.89 107.79,-203.24 103.44,-195.07"/>
<polygon fill="#63b8ff" stroke="#63b8ff" points="114.69,-223.62 122.49,-230.79 120.87,-220.32 114.69,-223.62"/>
</a>
</g>
</g>
<!-- Node15&#45;&gt;Node5 -->
<g id="edge24_Node000015_Node000005" class="edge">
<title>Node15&#45;&gt;Node5</title>
<g id="a_edge24_Node000015_Node000005"><a xlink:title=" ">
<path fill="none" stroke="#63b8ff" d="M151.39,-222.54C171.23,-192.38 202.34,-145.1 219.86,-118.47"/>
<polygon fill="#63b8ff" stroke="#63b8ff" points="148.44,-220.66 145.87,-230.94 154.29,-224.51 148.44,-220.66"/>
</a>
</g>
</g>
<!-- Node16&#45;&gt;Node2 -->
<g id="edge26_Node000016_Node000002" class="edge">
<title>Node16&#45;&gt;Node2</title>
<g id="a_edge26_Node000016_Node000002"><a xlink:title=" ">
<path fill="none" stroke="#63b8ff" d="M68.01,-299.99C61.49,-291.66 55.43,-282.03 52,-272 46.1,-254.76 46.3,-248.31 52,-231 56.38,-217.69 65.32,-204.95 73.74,-195.04"/>
<polygon fill="#63b8ff" stroke="#63b8ff" points="65.49,-302.44 74.59,-307.86 70.86,-297.95 65.49,-302.44"/>
</a>
</g>
</g>
<!-- Node16&#45;&gt;Node15 -->
<g id="edge27_Node000016_Node000015" class="edge">
<title>Node16&#45;&gt;Node15</title>
<g id="a_edge27_Node000016_Node000015"><a xlink:title=" ">
<path fill="none" stroke="#63b8ff" d="M109.52,-298.83C114.05,-289.89 118.94,-280.24 123.08,-272.07"/>
<polygon fill="#63b8ff" stroke="#63b8ff" points="106.38,-297.29 104.98,-307.79 112.62,-300.46 106.38,-297.29"/>
</a>
</g>
</g>
<!-- Node17&#45;&gt;Node10 -->
<g id="edge30_Node000017_Node000010" class="edge">
<title>Node17&#45;&gt;Node10</title>
<g id="a_edge30_Node000017_Node000010"><a xlink:title=" ">
<path fill="none" stroke="#63b8ff" d="M747,-226.23C747,-216.2 747,-204.71 747,-195.2"/>
<polygon fill="#63b8ff" stroke="#63b8ff" points="743.5,-226.39 747,-236.39 750.5,-226.39 743.5,-226.39"/>
</a>
</g>
</g>
</g>
</svg>
