<?xml version="1.0" encoding="UTF-8" standalone="no"?>
<!DOCTYPE svg PUBLIC "-//W3C//DTD SVG 1.1//EN"
 "http://www.w3.org/Graphics/SVG/1.1/DTD/svg11.dtd">
<!-- Generated by graphviz version 2.43.0 (0)
 -->
<!-- Title: qugar::impl::funcs::Annulus::Annulus Pages: 1 -->
<svg width="268pt" height="108pt"
 viewBox="0.00 0.00 268.00 108.00" xmlns="http://www.w3.org/2000/svg" xmlns:xlink="http://www.w3.org/1999/xlink">
<g id="graph0" class="graph" transform="scale(1 1) rotate(0) translate(4 104)">
<title>qugar::impl::funcs::Annulus::Annulus</title>
<!-- Node1 -->
<g id="Node000001" class="node">
<title>Node1</title>
<g id="a_Node000001"><a xlink:title="Constructor.">
<polygon fill="#999999" stroke="#666666" points="107,-64.5 0,-64.5 0,-34.5 107,-34.5 107,-64.5"/>
<text text-anchor="start" x="8" y="-52.5" font-family="Helvetica,sans-Serif" font-size="10.00">qugar::impl::funcs</text>
<text text-anchor="middle" x="53.5" y="-41.5" font-family="Helvetica,sans-Serif" font-size="10.00">::Annulus::Annulus</text>
</a>
</g>
</g>
<!-- Node2 -->
<g id="Node000002" class="node">
<title>Node2</title>
<g id="a_Node000002"><a xlink:href="../../db/ded/classqugar_1_1impl_1_1funcs_1_1AnnulusBase.html#a9d21165e747425d9ce9604310f34fbdd" target="_top" xlink:title="Gets the inner radius of the annulus.">
<polygon fill="white" stroke="#666666" points="259.5,-100 143.5,-100 143.5,-59 259.5,-59 259.5,-100"/>
<text text-anchor="start" x="151.5" y="-88" font-family="Helvetica,sans-Serif" font-size="10.00">qugar::impl::funcs</text>
<text text-anchor="start" x="151.5" y="-77" font-family="Helvetica,sans-Serif" font-size="10.00">::AnnulusBase::inner</text>
<text text-anchor="middle" x="201.5" y="-66" font-family="Helvetica,sans-Serif" font-size="10.00">_radius</text>
</a>
</g>
</g>
<!-- Node1&#45;&gt;Node2 -->
<g id="edge1_Node000001_Node000002" class="edge">
<title>Node1&#45;&gt;Node2</title>
<g id="a_edge1_Node000001_Node000002"><a xlink:title=" ">
<path fill="none" stroke="#63b8ff" d="M107.21,-60.33C115.76,-62.09 124.7,-63.93 133.53,-65.74"/>
<polygon fill="#63b8ff" stroke="#63b8ff" points="132.93,-69.19 143.43,-67.77 134.33,-62.33 132.93,-69.19"/>
</a>
</g>
</g>
<!-- Node3 -->
<g id="Node000003" class="node">
<title>Node3</title>
<g id="a_Node000003"><a xlink:href="../../db/ded/classqugar_1_1impl_1_1funcs_1_1AnnulusBase.html#a12cb3c770c083654e03d24449179649f" target="_top" xlink:title="Gets the outer radius of the annulus.">
<polygon fill="white" stroke="#666666" points="260,-41 143,-41 143,0 260,0 260,-41"/>
<text text-anchor="start" x="151" y="-29" font-family="Helvetica,sans-Serif" font-size="10.00">qugar::impl::funcs</text>
<text text-anchor="start" x="151" y="-18" font-family="Helvetica,sans-Serif" font-size="10.00">::AnnulusBase::outer</text>
<text text-anchor="middle" x="201.5" y="-7" font-family="Helvetica,sans-Serif" font-size="10.00">_radius</text>
</a>
</g>
</g>
<!-- Node1&#45;&gt;Node3 -->
<g id="edge2_Node000001_Node000003" class="edge">
<title>Node1&#45;&gt;Node3</title>
<g id="a_edge2_Node000001_Node000003"><a xlink:title=" ">
<path fill="none" stroke="#63b8ff" d="M107.21,-39.03C115.55,-37.37 124.27,-35.64 132.88,-33.93"/>
<polygon fill="#63b8ff" stroke="#63b8ff" points="133.8,-37.32 142.93,-31.94 132.44,-30.45 133.8,-37.32"/>
</a>
</g>
</g>
</g>
</svg>
