<?xml version="1.0" encoding="UTF-8" standalone="no"?>
<!DOCTYPE svg PUBLIC "-//W3C//DTD SVG 1.1//EN"
 "http://www.w3.org/Graphics/SVG/1.1/DTD/svg11.dtd">
<!-- Generated by graphviz version 2.43.0 (0)
 -->
<!-- Title: qugar::impl::funcs::Annulus::Annulus Pages: 1 -->
<svg width="273pt" height="157pt"
 viewBox="0.00 0.00 273.00 156.50" xmlns="http://www.w3.org/2000/svg" xmlns:xlink="http://www.w3.org/1999/xlink">
<g id="graph0" class="graph" transform="scale(1 1) rotate(0) translate(4 152.5)">
<title>qugar::impl::funcs::Annulus::Annulus</title>
<!-- Node1 -->
<g id="Node000001" class="node">
<title>Node1</title>
<g id="a_Node000001"><a xlink:title="Constructor.">
<polygon fill="#999999" stroke="#666666" points="107,-94.5 0,-94.5 0,-64.5 107,-64.5 107,-94.5"/>
<text text-anchor="start" x="8" y="-82.5" font-family="Helvetica,sans-Serif" font-size="10.00">qugar::impl::funcs</text>
<text text-anchor="middle" x="53.5" y="-71.5" font-family="Helvetica,sans-Serif" font-size="10.00">::Annulus::Annulus</text>
</a>
</g>
</g>
<!-- Node2 -->
<g id="Node000002" class="node">
<title>Node2</title>
<g id="a_Node000002"><a xlink:href="../../db/ded/classqugar_1_1impl_1_1funcs_1_1AnnulusBase.html#a8643fab693ba5b2a7722c663cd1af7a5" target="_top" xlink:title="Gets the center of the annulus.">
<polygon fill="white" stroke="#666666" points="265,-148.5 143,-148.5 143,-118.5 265,-118.5 265,-148.5"/>
<text text-anchor="start" x="151" y="-136.5" font-family="Helvetica,sans-Serif" font-size="10.00">qugar::impl::funcs</text>
<text text-anchor="middle" x="204" y="-125.5" font-family="Helvetica,sans-Serif" font-size="10.00">::AnnulusBase::center</text>
</a>
</g>
</g>
<!-- Node1&#45;&gt;Node2 -->
<g id="edge1_Node000001_Node000002" class="edge">
<title>Node1&#45;&gt;Node2</title>
<g id="a_edge1_Node000001_Node000002"><a xlink:title=" ">
<path fill="none" stroke="#63b8ff" d="M95.87,-94.54C113.25,-100.86 133.65,-108.28 151.96,-114.94"/>
<polygon fill="#63b8ff" stroke="#63b8ff" points="151,-118.32 161.6,-118.45 153.4,-111.74 151,-118.32"/>
</a>
</g>
</g>
<!-- Node3 -->
<g id="Node000003" class="node">
<title>Node3</title>
<g id="a_Node000003"><a xlink:href="../../db/ded/classqugar_1_1impl_1_1funcs_1_1AnnulusBase.html#a9d21165e747425d9ce9604310f34fbdd" target="_top" xlink:title="Gets the inner radius of the annulus.">
<polygon fill="white" stroke="#666666" points="262,-100 146,-100 146,-59 262,-59 262,-100"/>
<text text-anchor="start" x="154" y="-88" font-family="Helvetica,sans-Serif" font-size="10.00">qugar::impl::funcs</text>
<text text-anchor="start" x="154" y="-77" font-family="Helvetica,sans-Serif" font-size="10.00">::AnnulusBase::inner</text>
<text text-anchor="middle" x="204" y="-66" font-family="Helvetica,sans-Serif" font-size="10.00">_radius</text>
</a>
</g>
</g>
<!-- Node1&#45;&gt;Node3 -->
<g id="edge2_Node000001_Node000003" class="edge">
<title>Node1&#45;&gt;Node3</title>
<g id="a_edge2_Node000001_Node000003"><a xlink:title=" ">
<path fill="none" stroke="#63b8ff" d="M107.27,-79.5C116.46,-79.5 126.12,-79.5 135.63,-79.5"/>
<polygon fill="#63b8ff" stroke="#63b8ff" points="135.86,-83 145.86,-79.5 135.86,-76 135.86,-83"/>
</a>
</g>
</g>
<!-- Node4 -->
<g id="Node000004" class="node">
<title>Node4</title>
<g id="a_Node000004"><a xlink:href="../../db/ded/classqugar_1_1impl_1_1funcs_1_1AnnulusBase.html#a12cb3c770c083654e03d24449179649f" target="_top" xlink:title="Gets the outer radius of the annulus.">
<polygon fill="white" stroke="#666666" points="262.5,-41 145.5,-41 145.5,0 262.5,0 262.5,-41"/>
<text text-anchor="start" x="153.5" y="-29" font-family="Helvetica,sans-Serif" font-size="10.00">qugar::impl::funcs</text>
<text text-anchor="start" x="153.5" y="-18" font-family="Helvetica,sans-Serif" font-size="10.00">::AnnulusBase::outer</text>
<text text-anchor="middle" x="204" y="-7" font-family="Helvetica,sans-Serif" font-size="10.00">_radius</text>
</a>
</g>
</g>
<!-- Node1&#45;&gt;Node4 -->
<g id="edge3_Node000001_Node000004" class="edge">
<title>Node1&#45;&gt;Node4</title>
<g id="a_edge3_Node000001_Node000004"><a xlink:title=" ">
<path fill="none" stroke="#63b8ff" d="M92.36,-64.46C107.3,-58.52 124.85,-51.55 141.52,-44.93"/>
<polygon fill="#63b8ff" stroke="#63b8ff" points="143.2,-48.02 151.21,-41.08 140.62,-41.52 143.2,-48.02"/>
</a>
</g>
</g>
</g>
</svg>
