<?xml version="1.0" encoding="UTF-8" standalone="no"?>
<!DOCTYPE svg PUBLIC "-//W3C//DTD SVG 1.1//EN"
 "http://www.w3.org/Graphics/SVG/1.1/DTD/svg11.dtd">
<!-- Generated by graphviz version 2.43.0 (0)
 -->
<!-- Title: qugar::impl::funcs::SphereBase::radius Pages: 1 -->
<svg width="304pt" height="290pt"
 viewBox="0.00 0.00 304.00 289.50" xmlns="http://www.w3.org/2000/svg" xmlns:xlink="http://www.w3.org/1999/xlink">
<g id="graph0" class="graph" transform="scale(1 1) rotate(0) translate(4 285.5)">
<title>qugar::impl::funcs::SphereBase::radius</title>
<!-- Node1 -->
<g id="Node000001" class="node">
<title>Node1</title>
<g id="a_Node000001"><a xlink:title="Gets the radius of the sphere.">
<polygon fill="#999999" stroke="#666666" points="296,-150 180,-150 180,-120 296,-120 296,-150"/>
<text text-anchor="start" x="188" y="-138" font-family="Helvetica,sans-Serif" font-size="10.00">qugar::impl::funcs</text>
<text text-anchor="middle" x="238" y="-127" font-family="Helvetica,sans-Serif" font-size="10.00">::SphereBase::radius</text>
</a>
</g>
</g>
<!-- Node2 -->
<g id="Node000002" class="node">
<title>Node2</title>
<g id="a_Node000002"><a xlink:href="../../d1/dfc/classqugar_1_1impl_1_1funcs_1_1SphereBzr.html#a63afa907efd2765f838bc41963ac09b0" target="_top" xlink:title="Creates a polynomial representation based on monomials for the given center and radius.">
<polygon fill="white" stroke="#666666" points="126.5,-281.5 17.5,-281.5 17.5,-240.5 126.5,-240.5 126.5,-281.5"/>
<text text-anchor="start" x="25.5" y="-269.5" font-family="Helvetica,sans-Serif" font-size="10.00">qugar::impl::funcs</text>
<text text-anchor="start" x="25.5" y="-258.5" font-family="Helvetica,sans-Serif" font-size="10.00">::SphereBzr::create</text>
<text text-anchor="middle" x="72" y="-247.5" font-family="Helvetica,sans-Serif" font-size="10.00">_monomials</text>
</a>
</g>
</g>
<!-- Node1&#45;&gt;Node2 -->
<g id="edge1_Node000001_Node000002" class="edge">
<title>Node1&#45;&gt;Node2</title>
<g id="a_edge1_Node000001_Node000002"><a xlink:title=" ">
<path fill="none" stroke="#63b8ff" d="M219.27,-158.03C201.96,-179.27 173.92,-210.51 144,-231 138.59,-234.71 132.65,-238.09 126.58,-241.14"/>
<polygon fill="#63b8ff" stroke="#63b8ff" points="222.06,-160.15 225.58,-150.15 216.6,-155.77 222.06,-160.15"/>
</a>
</g>
</g>
<!-- Node3 -->
<g id="Node000003" class="node">
<title>Node3</title>
<g id="a_Node000003"><a xlink:href="../../d1/def/classqugar_1_1impl_1_1funcs_1_1Sphere.html#affbdb853708bb963e3c1d6e45e999d1a" target="_top" xlink:title="Constructs a Sphere with the given radius and centered at the origin.">
<polygon fill="white" stroke="#666666" points="124,-222 20,-222 20,-192 124,-192 124,-222"/>
<text text-anchor="start" x="28" y="-210" font-family="Helvetica,sans-Serif" font-size="10.00">qugar::impl::funcs</text>
<text text-anchor="middle" x="72" y="-199" font-family="Helvetica,sans-Serif" font-size="10.00">::Sphere::Sphere</text>
</a>
</g>
</g>
<!-- Node1&#45;&gt;Node3 -->
<g id="edge2_Node000001_Node000003" class="edge">
<title>Node1&#45;&gt;Node3</title>
<g id="a_edge2_Node000001_Node000003"><a xlink:title=" ">
<path fill="none" stroke="#63b8ff" d="M201.21,-155.08C184.17,-164.22 163.33,-174.8 144,-183 136.57,-186.15 128.58,-189.18 120.73,-191.97"/>
<polygon fill="#63b8ff" stroke="#63b8ff" points="203.13,-158.02 210.25,-150.17 199.79,-151.86 203.13,-158.02"/>
</a>
</g>
</g>
<!-- Node4 -->
<g id="Node000004" class="node">
<title>Node4</title>
<g id="a_Node000004"><a xlink:href="../../d1/def/classqugar_1_1impl_1_1funcs_1_1Sphere.html#a59f8c0b76ce8b7514a4233a2f9d3853e" target="_top" xlink:title="Constructs a Sphere object with a specified center and radius.">
<polygon fill="white" stroke="#666666" points="124,-174 20,-174 20,-144 124,-144 124,-174"/>
<text text-anchor="start" x="28" y="-162" font-family="Helvetica,sans-Serif" font-size="10.00">qugar::impl::funcs</text>
<text text-anchor="middle" x="72" y="-151" font-family="Helvetica,sans-Serif" font-size="10.00">::Sphere::Sphere</text>
</a>
</g>
</g>
<!-- Node1&#45;&gt;Node4 -->
<g id="edge3_Node000001_Node000004" class="edge">
<title>Node1&#45;&gt;Node4</title>
<g id="a_edge3_Node000001_Node000004"><a xlink:title=" ">
<path fill="none" stroke="#63b8ff" d="M169.73,-144.84C154.47,-147.08 138.5,-149.42 124.03,-151.53"/>
<polygon fill="#63b8ff" stroke="#63b8ff" points="170.25,-148.31 179.64,-143.39 169.24,-141.38 170.25,-148.31"/>
</a>
</g>
</g>
<!-- Node5 -->
<g id="Node000005" class="node">
<title>Node5</title>
<g id="a_Node000005"><a xlink:href="../../d7/d90/classqugar_1_1impl_1_1funcs_1_1SphereBase.html#a58cb04e72d70b8a32b64d766deec70e9" target="_top" xlink:title="Constructs a Sphere object with a specified center and radius.">
<polygon fill="white" stroke="#666666" points="144,-126 0,-126 0,-96 144,-96 144,-126"/>
<text text-anchor="start" x="8" y="-114" font-family="Helvetica,sans-Serif" font-size="10.00">qugar::impl::funcs</text>
<text text-anchor="middle" x="72" y="-103" font-family="Helvetica,sans-Serif" font-size="10.00">::SphereBase::SphereBase</text>
</a>
</g>
</g>
<!-- Node1&#45;&gt;Node5 -->
<g id="edge4_Node000001_Node000005" class="edge">
<title>Node1&#45;&gt;Node5</title>
<g id="a_edge4_Node000001_Node000005"><a xlink:title=" ">
<path fill="none" stroke="#63b8ff" d="M169.56,-125.13C161.18,-123.9 152.6,-122.65 144.17,-121.42"/>
<polygon fill="#63b8ff" stroke="#63b8ff" points="169.24,-128.62 179.64,-126.61 170.25,-121.69 169.24,-128.62"/>
</a>
</g>
</g>
<!-- Node6 -->
<g id="Node000006" class="node">
<title>Node6</title>
<g id="a_Node000006"><a xlink:href="../../d1/dfc/classqugar_1_1impl_1_1funcs_1_1SphereBzr.html#a9acdc0f854144e4d774e3f1549787785" target="_top" xlink:title="Constructs a Sphere with the given radius and centered at the origin.">
<polygon fill="white" stroke="#666666" points="136,-78 8,-78 8,-48 136,-48 136,-78"/>
<text text-anchor="start" x="16" y="-66" font-family="Helvetica,sans-Serif" font-size="10.00">qugar::impl::funcs</text>
<text text-anchor="middle" x="72" y="-55" font-family="Helvetica,sans-Serif" font-size="10.00">::SphereBzr::SphereBzr</text>
</a>
</g>
</g>
<!-- Node1&#45;&gt;Node6 -->
<g id="edge5_Node000001_Node000006" class="edge">
<title>Node1&#45;&gt;Node6</title>
<g id="a_edge5_Node000001_Node000006"><a xlink:title=" ">
<path fill="none" stroke="#63b8ff" d="M201.21,-114.92C184.17,-105.78 163.33,-95.2 144,-87 136.57,-83.85 128.58,-80.82 120.73,-78.03"/>
<polygon fill="#63b8ff" stroke="#63b8ff" points="199.79,-118.14 210.25,-119.83 203.13,-111.98 199.79,-118.14"/>
</a>
</g>
</g>
<!-- Node7 -->
<g id="Node000007" class="node">
<title>Node7</title>
<g id="a_Node000007"><a xlink:href="../../d1/dfc/classqugar_1_1impl_1_1funcs_1_1SphereBzr.html#aafeb16a2ea5df1ef884a428a3b99573e" target="_top" xlink:title="Constructs a Sphere object with a specified center and radius.">
<polygon fill="white" stroke="#666666" points="136,-30 8,-30 8,0 136,0 136,-30"/>
<text text-anchor="start" x="16" y="-18" font-family="Helvetica,sans-Serif" font-size="10.00">qugar::impl::funcs</text>
<text text-anchor="middle" x="72" y="-7" font-family="Helvetica,sans-Serif" font-size="10.00">::SphereBzr::SphereBzr</text>
</a>
</g>
</g>
<!-- Node1&#45;&gt;Node7 -->
<g id="edge6_Node000001_Node000007" class="edge">
<title>Node1&#45;&gt;Node7</title>
<g id="a_edge6_Node000001_Node000007"><a xlink:title=" ">
<path fill="none" stroke="#63b8ff" d="M219.9,-111.82C202.85,-90.22 174.82,-58.48 144,-39 138.61,-35.59 132.68,-32.61 126.62,-30.02"/>
<polygon fill="#63b8ff" stroke="#63b8ff" points="217.2,-114.06 226.08,-119.84 222.74,-109.79 217.2,-114.06"/>
</a>
</g>
</g>
</g>
</svg>
