<?xml version="1.0" encoding="UTF-8" standalone="no"?>
<!DOCTYPE svg PUBLIC "-//W3C//DTD SVG 1.1//EN"
 "http://www.w3.org/Graphics/SVG/1.1/DTD/svg11.dtd">
<!-- Generated by graphviz version 2.43.0 (0)
 -->
<!-- Title: qugar::impl::funcs::SphereBase::center Pages: 1 -->
<svg width="305pt" height="194pt"
 viewBox="0.00 0.00 305.00 193.50" xmlns="http://www.w3.org/2000/svg" xmlns:xlink="http://www.w3.org/1999/xlink">
<g id="graph0" class="graph" transform="scale(1 1) rotate(0) translate(4 189.5)">
<title>qugar::impl::funcs::SphereBase::center</title>
<!-- Node1 -->
<g id="Node000001" class="node">
<title>Node1</title>
<g id="a_Node000001"><a xlink:title="Gets the center of the sphere.">
<polygon fill="#999999" stroke="#666666" points="297,-102 180,-102 180,-72 297,-72 297,-102"/>
<text text-anchor="start" x="188" y="-90" font-family="Helvetica,sans-Serif" font-size="10.00">qugar::impl::funcs</text>
<text text-anchor="middle" x="238.5" y="-79" font-family="Helvetica,sans-Serif" font-size="10.00">::SphereBase::center</text>
</a>
</g>
</g>
<!-- Node2 -->
<g id="Node000002" class="node">
<title>Node2</title>
<g id="a_Node000002"><a xlink:href="../../d1/dfc/classqugar_1_1impl_1_1funcs_1_1SphereBzr.html#a63afa907efd2765f838bc41963ac09b0" target="_top" xlink:title="Creates a polynomial representation based on monomials for the given center and radius.">
<polygon fill="white" stroke="#666666" points="126.5,-185.5 17.5,-185.5 17.5,-144.5 126.5,-144.5 126.5,-185.5"/>
<text text-anchor="start" x="25.5" y="-173.5" font-family="Helvetica,sans-Serif" font-size="10.00">qugar::impl::funcs</text>
<text text-anchor="start" x="25.5" y="-162.5" font-family="Helvetica,sans-Serif" font-size="10.00">::SphereBzr::create</text>
<text text-anchor="middle" x="72" y="-151.5" font-family="Helvetica,sans-Serif" font-size="10.00">_monomials</text>
</a>
</g>
</g>
<!-- Node1&#45;&gt;Node2 -->
<g id="edge1_Node000001_Node000002" class="edge">
<title>Node1&#45;&gt;Node2</title>
<g id="a_edge1_Node000001_Node000002"><a xlink:title=" ">
<path fill="none" stroke="#63b8ff" d="M200.46,-106.82C183.41,-115.73 162.83,-126.2 144,-135 137.21,-138.17 129.99,-141.39 122.86,-144.49"/>
<polygon fill="#63b8ff" stroke="#63b8ff" points="202.32,-109.8 209.54,-102.05 199.06,-103.6 202.32,-109.8"/>
</a>
</g>
</g>
<!-- Node3 -->
<g id="Node000003" class="node">
<title>Node3</title>
<g id="a_Node000003"><a xlink:href="../../d1/def/classqugar_1_1impl_1_1funcs_1_1Sphere.html#a59f8c0b76ce8b7514a4233a2f9d3853e" target="_top" xlink:title="Constructs a Sphere object with a specified center and radius.">
<polygon fill="white" stroke="#666666" points="124,-126 20,-126 20,-96 124,-96 124,-126"/>
<text text-anchor="start" x="28" y="-114" font-family="Helvetica,sans-Serif" font-size="10.00">qugar::impl::funcs</text>
<text text-anchor="middle" x="72" y="-103" font-family="Helvetica,sans-Serif" font-size="10.00">::Sphere::Sphere</text>
</a>
</g>
</g>
<!-- Node1&#45;&gt;Node3 -->
<g id="edge2_Node000001_Node000003" class="edge">
<title>Node1&#45;&gt;Node3</title>
<g id="a_edge2_Node000001_Node000003"><a xlink:title=" ">
<path fill="none" stroke="#63b8ff" d="M170.03,-96.84C154.72,-99.08 138.7,-101.42 124.19,-103.53"/>
<polygon fill="#63b8ff" stroke="#63b8ff" points="170.58,-100.3 179.97,-95.39 169.57,-93.37 170.58,-100.3"/>
</a>
</g>
</g>
<!-- Node4 -->
<g id="Node000004" class="node">
<title>Node4</title>
<g id="a_Node000004"><a xlink:href="../../d7/d90/classqugar_1_1impl_1_1funcs_1_1SphereBase.html#a58cb04e72d70b8a32b64d766deec70e9" target="_top" xlink:title="Constructs a Sphere object with a specified center and radius.">
<polygon fill="white" stroke="#666666" points="144,-78 0,-78 0,-48 144,-48 144,-78"/>
<text text-anchor="start" x="8" y="-66" font-family="Helvetica,sans-Serif" font-size="10.00">qugar::impl::funcs</text>
<text text-anchor="middle" x="72" y="-55" font-family="Helvetica,sans-Serif" font-size="10.00">::SphereBase::SphereBase</text>
</a>
</g>
</g>
<!-- Node1&#45;&gt;Node4 -->
<g id="edge3_Node000001_Node000004" class="edge">
<title>Node1&#45;&gt;Node4</title>
<g id="a_edge3_Node000001_Node000004"><a xlink:title=" ">
<path fill="none" stroke="#63b8ff" d="M170.05,-77.16C161.49,-75.91 152.71,-74.63 144.1,-73.37"/>
<polygon fill="#63b8ff" stroke="#63b8ff" points="169.57,-80.63 179.97,-78.61 170.58,-73.7 169.57,-80.63"/>
</a>
</g>
</g>
<!-- Node5 -->
<g id="Node000005" class="node">
<title>Node5</title>
<g id="a_Node000005"><a xlink:href="../../d1/dfc/classqugar_1_1impl_1_1funcs_1_1SphereBzr.html#aafeb16a2ea5df1ef884a428a3b99573e" target="_top" xlink:title="Constructs a Sphere object with a specified center and radius.">
<polygon fill="white" stroke="#666666" points="136,-30 8,-30 8,0 136,0 136,-30"/>
<text text-anchor="start" x="16" y="-18" font-family="Helvetica,sans-Serif" font-size="10.00">qugar::impl::funcs</text>
<text text-anchor="middle" x="72" y="-7" font-family="Helvetica,sans-Serif" font-size="10.00">::SphereBzr::SphereBzr</text>
</a>
</g>
</g>
<!-- Node1&#45;&gt;Node5 -->
<g id="edge4_Node000001_Node000005" class="edge">
<title>Node1&#45;&gt;Node5</title>
<g id="a_edge4_Node000001_Node000005"><a xlink:title=" ">
<path fill="none" stroke="#63b8ff" d="M201.51,-66.94C184.37,-57.8 163.43,-47.22 144,-39 136.57,-35.86 128.57,-32.83 120.72,-30.04"/>
<polygon fill="#63b8ff" stroke="#63b8ff" points="200.13,-70.17 210.6,-71.84 203.46,-64.01 200.13,-70.17"/>
</a>
</g>
</g>
</g>
</svg>
