<?xml version="1.0" encoding="UTF-8" standalone="no"?>
<!DOCTYPE svg PUBLIC "-//W3C//DTD SVG 1.1//EN"
 "http://www.w3.org/Graphics/SVG/1.1/DTD/svg11.dtd">
<!-- Generated by graphviz version 2.43.0 (0)
 -->
<!-- Title: /__w/qugar/qugar/cpp/include/qugar/cart_grid_tp.hpp Pages: 1 -->
<svg width="922pt" height="434pt"
 viewBox="0.00 0.00 921.59 434.00" xmlns="http://www.w3.org/2000/svg" xmlns:xlink="http://www.w3.org/1999/xlink">
<g id="graph0" class="graph" transform="scale(1 1) rotate(0) translate(4 430)">
<title>/__w/qugar/qugar/cpp/include/qugar/cart_grid_tp.hpp</title>
<!-- Node1 -->
<g id="Node000001" class="node">
<title>Node1</title>
<g id="a_Node000001"><a xlink:title="Definition of Cartesian grid class.">
<polygon fill="#999999" stroke="#666666" points="550.75,-426 419.75,-426 419.75,-385 550.75,-385 550.75,-426"/>
<text text-anchor="start" x="427.75" y="-414" font-family="Helvetica,sans-Serif" font-size="10.00">/__w/qugar/qugar/cpp</text>
<text text-anchor="start" x="427.75" y="-403" font-family="Helvetica,sans-Serif" font-size="10.00">/include/qugar/cart_grid</text>
<text text-anchor="middle" x="485.25" y="-392" font-family="Helvetica,sans-Serif" font-size="10.00">_tp.hpp</text>
</a>
</g>
</g>
<!-- Node2 -->
<g id="Node000002" class="node">
<title>Node2</title>
<g id="a_Node000002"><a xlink:href="../../d0/d6f/demo__quad__sphere_2main_8cpp.html" target="_top" xlink:title=" ">
<polygon fill="white" stroke="#666666" points="884.25,-118 738.25,-118 738.25,-77 884.25,-77 884.25,-118"/>
<text text-anchor="start" x="746.25" y="-106" font-family="Helvetica,sans-Serif" font-size="10.00">/__w/qugar/qugar/cpp</text>
<text text-anchor="start" x="746.25" y="-95" font-family="Helvetica,sans-Serif" font-size="10.00">/demo/demo_quad_sphere</text>
<text text-anchor="middle" x="811.25" y="-84" font-family="Helvetica,sans-Serif" font-size="10.00">/main.cpp</text>
</a>
</g>
</g>
<!-- Node1&#45;&gt;Node2 -->
<g id="edge1_Node000001_Node000002" class="edge">
<title>Node1&#45;&gt;Node2</title>
<g id="a_edge1_Node000001_Node000002"><a xlink:title=" ">
<path fill="none" stroke="#63b8ff" d="M560.73,-391.55C669.61,-371.14 862.12,-327.98 902.25,-272 939.3,-220.3 873.67,-151.56 835.59,-118.25"/>
<polygon fill="#63b8ff" stroke="#63b8ff" points="559.98,-388.13 550.78,-393.39 561.25,-395.01 559.98,-388.13"/>
</a>
</g>
</g>
<!-- Node3 -->
<g id="Node000003" class="node">
<title>Node3</title>
<g id="a_Node000003"><a xlink:href="../../d2/d66/demo__reparam__gyroid_2main_8cpp.html" target="_top" xlink:title=" ">
<polygon fill="white" stroke="#666666" points="551.75,-41 390.75,-41 390.75,0 551.75,0 551.75,-41"/>
<text text-anchor="start" x="398.75" y="-29" font-family="Helvetica,sans-Serif" font-size="10.00">/__w/qugar/qugar/cpp</text>
<text text-anchor="start" x="398.75" y="-18" font-family="Helvetica,sans-Serif" font-size="10.00">/demo/demo_reparam_gyroid</text>
<text text-anchor="middle" x="471.25" y="-7" font-family="Helvetica,sans-Serif" font-size="10.00">/main.cpp</text>
</a>
</g>
</g>
<!-- Node1&#45;&gt;Node3 -->
<g id="edge2_Node000001_Node000003" class="edge">
<title>Node1&#45;&gt;Node3</title>
<g id="a_edge2_Node000001_Node000003"><a xlink:title=" ">
<path fill="none" stroke="#63b8ff" d="M409.41,-396.48C273.68,-380.01 3.25,-336.63 3.25,-252.5 3.25,-252.5 3.25,-252.5 3.25,-173.5 3.25,-129.79 -9.74,-106.79 22.25,-77 74.13,-28.7 276.06,-20.92 390.66,-20.53"/>
<polygon fill="#63b8ff" stroke="#63b8ff" points="409.4,-400 419.74,-397.71 410.23,-393.05 409.4,-400"/>
</a>
</g>
</g>
<!-- Node4 -->
<g id="Node000004" class="node">
<title>Node4</title>
<g id="a_Node000004"><a xlink:href="../../d6/dc8/impl__quadrature_8hpp.html" target="_top" xlink:title="Declaration of quadratures for general implicit functions on grids.">
<polygon fill="white" stroke="#666666" points="844.25,-189.5 654.25,-189.5 654.25,-159.5 844.25,-159.5 844.25,-189.5"/>
<text text-anchor="start" x="662.25" y="-177.5" font-family="Helvetica,sans-Serif" font-size="10.00">/__w/qugar/qugar/cpp</text>
<text text-anchor="middle" x="749.25" y="-166.5" font-family="Helvetica,sans-Serif" font-size="10.00">/include/qugar/impl_quadrature.hpp</text>
</a>
</g>
</g>
<!-- Node1&#45;&gt;Node4 -->
<g id="edge3_Node000001_Node000004" class="edge">
<title>Node1&#45;&gt;Node4</title>
<g id="a_edge3_Node000001_Node000004"><a xlink:title=" ">
<path fill="none" stroke="#63b8ff" d="M561.16,-392.25C591.2,-384.18 624.21,-370.87 648.25,-349 690.77,-310.3 670.34,-279.48 701.25,-231 710.97,-215.75 724.68,-200.34 734.96,-189.64"/>
<polygon fill="#63b8ff" stroke="#63b8ff" points="559.95,-388.95 551.11,-394.79 561.66,-395.73 559.95,-388.95"/>
</a>
</g>
</g>
<!-- Node5 -->
<g id="Node000005" class="node">
<title>Node5</title>
<g id="a_Node000005"><a xlink:href="../../d3/d42/impl__reparam__mesh_8hpp.html" target="_top" xlink:title="Declaration of reparameterization class.">
<polygon fill="white" stroke="#666666" points="401.75,-195 244.75,-195 244.75,-154 401.75,-154 401.75,-195"/>
<text text-anchor="start" x="252.75" y="-183" font-family="Helvetica,sans-Serif" font-size="10.00">/__w/qugar/qugar/cpp</text>
<text text-anchor="start" x="252.75" y="-172" font-family="Helvetica,sans-Serif" font-size="10.00">/include/qugar/impl_reparam</text>
<text text-anchor="middle" x="323.25" y="-161" font-family="Helvetica,sans-Serif" font-size="10.00">_mesh.hpp</text>
</a>
</g>
</g>
<!-- Node1&#45;&gt;Node5 -->
<g id="edge5_Node000001_Node000005" class="edge">
<title>Node1&#45;&gt;Node5</title>
<g id="a_edge5_Node000001_Node000005"><a xlink:title=" ">
<path fill="none" stroke="#63b8ff" d="M445.98,-378.87C412.98,-355.17 367.3,-316.9 342.25,-272 328.77,-247.84 324.74,-215.62 323.6,-195.21"/>
<polygon fill="#63b8ff" stroke="#63b8ff" points="444.31,-381.97 454.5,-384.87 448.34,-376.25 444.31,-381.97"/>
</a>
</g>
</g>
<!-- Node9 -->
<g id="Node000009" class="node">
<title>Node9</title>
<g id="a_Node000009"><a xlink:href="../../d6/d03/impl__unfitted__domain_8hpp.html" target="_top" xlink:title="Declaration of of UnfittedImplDomain class.">
<polygon fill="white" stroke="#666666" points="652.75,-272 499.75,-272 499.75,-231 652.75,-231 652.75,-272"/>
<text text-anchor="start" x="507.75" y="-260" font-family="Helvetica,sans-Serif" font-size="10.00">/__w/qugar/qugar/cpp</text>
<text text-anchor="start" x="507.75" y="-249" font-family="Helvetica,sans-Serif" font-size="10.00">/include/qugar/impl_unfitted</text>
<text text-anchor="middle" x="576.25" y="-238" font-family="Helvetica,sans-Serif" font-size="10.00">_domain.hpp</text>
</a>
</g>
</g>
<!-- Node1&#45;&gt;Node9 -->
<g id="edge10_Node000001_Node000009" class="edge">
<title>Node1&#45;&gt;Node9</title>
<g id="a_edge10_Node000001_Node000009"><a xlink:title=" ">
<path fill="none" stroke="#63b8ff" d="M485.73,-374.74C487.28,-354.58 491.83,-328.06 504.25,-308 513.22,-293.51 527.44,-281.36 540.87,-272.17"/>
<polygon fill="#63b8ff" stroke="#63b8ff" points="482.22,-374.73 485.15,-384.92 489.21,-375.13 482.22,-374.73"/>
</a>
</g>
</g>
<!-- Node10 -->
<g id="Node000010" class="node">
<title>Node10</title>
<g id="a_Node000010"><a xlink:href="../../d8/ddc/reparam__mesh_8hpp.html" target="_top" xlink:title="Declaration of reparameterization class.">
<polygon fill="white" stroke="#666666" points="481.25,-272 351.25,-272 351.25,-231 481.25,-231 481.25,-272"/>
<text text-anchor="start" x="359.25" y="-260" font-family="Helvetica,sans-Serif" font-size="10.00">/__w/qugar/qugar/cpp</text>
<text text-anchor="start" x="359.25" y="-249" font-family="Helvetica,sans-Serif" font-size="10.00">/include/qugar/reparam</text>
<text text-anchor="middle" x="416.25" y="-238" font-family="Helvetica,sans-Serif" font-size="10.00">_mesh.hpp</text>
</a>
</g>
</g>
<!-- Node1&#45;&gt;Node10 -->
<g id="edge15_Node000001_Node000010" class="edge">
<title>Node1&#45;&gt;Node10</title>
<g id="a_edge15_Node000001_Node000010"><a xlink:title=" ">
<path fill="none" stroke="#63b8ff" d="M472.2,-375.76C458.5,-345.57 437.3,-298.87 425.31,-272.47"/>
<polygon fill="#63b8ff" stroke="#63b8ff" points="469.05,-377.28 476.37,-384.94 475.42,-374.39 469.05,-377.28"/>
</a>
</g>
</g>
<!-- Node11 -->
<g id="Node000011" class="node">
<title>Node11</title>
<g id="a_Node000011"><a xlink:href="../../d2/dfd/unfitted__domain_8hpp.html" target="_top" xlink:title="Declaration of of UnfittedDomain class.">
<polygon fill="white" stroke="#666666" points="639.25,-349 513.25,-349 513.25,-308 639.25,-308 639.25,-349"/>
<text text-anchor="start" x="521.25" y="-337" font-family="Helvetica,sans-Serif" font-size="10.00">/__w/qugar/qugar/cpp</text>
<text text-anchor="start" x="521.25" y="-326" font-family="Helvetica,sans-Serif" font-size="10.00">/include/qugar/unfitted</text>
<text text-anchor="middle" x="576.25" y="-315" font-family="Helvetica,sans-Serif" font-size="10.00">_domain.hpp</text>
</a>
</g>
</g>
<!-- Node1&#45;&gt;Node11 -->
<g id="edge17_Node000001_Node000011" class="edge">
<title>Node1&#45;&gt;Node11</title>
<g id="a_edge17_Node000001_Node000011"><a xlink:title=" ">
<path fill="none" stroke="#63b8ff" d="M516.98,-378.35C528.65,-368.73 541.65,-358.01 552.5,-349.07"/>
<polygon fill="#63b8ff" stroke="#63b8ff" points="514.65,-375.73 509.16,-384.79 519.1,-381.14 514.65,-375.73"/>
</a>
</g>
</g>
<!-- Node4&#45;&gt;Node2 -->
<g id="edge4_Node000004_Node000002" class="edge">
<title>Node4&#45;&gt;Node2</title>
<g id="a_edge4_Node000004_Node000002"><a xlink:title=" ">
<path fill="none" stroke="#63b8ff" d="M767.48,-151.45C776.18,-140.92 786.52,-128.41 794.96,-118.2"/>
<polygon fill="#63b8ff" stroke="#63b8ff" points="764.58,-149.46 760.91,-159.39 769.98,-153.92 764.58,-149.46"/>
</a>
</g>
</g>
<!-- Node6 -->
<g id="Node000006" class="node">
<title>Node6</title>
<g id="a_Node000006"><a xlink:href="../../d0/d4c/impl__reparam_8hpp.html" target="_top" xlink:title="Declaration of reparameterization generization tools implicit functions on grids.">
<polygon fill="white" stroke="#666666" points="560.25,-112.5 382.25,-112.5 382.25,-82.5 560.25,-82.5 560.25,-112.5"/>
<text text-anchor="start" x="390.25" y="-100.5" font-family="Helvetica,sans-Serif" font-size="10.00">/__w/qugar/qugar/cpp</text>
<text text-anchor="middle" x="471.25" y="-89.5" font-family="Helvetica,sans-Serif" font-size="10.00">/include/qugar/impl_reparam.hpp</text>
</a>
</g>
</g>
<!-- Node5&#45;&gt;Node6 -->
<g id="edge6_Node000005_Node000006" class="edge">
<title>Node5&#45;&gt;Node6</title>
<g id="a_edge6_Node000005_Node000006"><a xlink:title=" ">
<path fill="none" stroke="#63b8ff" d="M370.68,-149.46C394.6,-137.34 422.79,-123.06 443.23,-112.7"/>
<polygon fill="#63b8ff" stroke="#63b8ff" points="369.09,-146.35 361.75,-153.99 372.25,-152.59 369.09,-146.35"/>
</a>
</g>
</g>
<!-- Node7 -->
<g id="Node000007" class="node">
<title>Node7</title>
<g id="a_Node000007"><a xlink:href="../../d6/d87/impl__reparam__bezier_8hpp.html" target="_top" xlink:title="Declaration of tools for creating Bezier reparameterizations.">
<polygon fill="white" stroke="#666666" points="363.75,-118 206.75,-118 206.75,-77 363.75,-77 363.75,-118"/>
<text text-anchor="start" x="214.75" y="-106" font-family="Helvetica,sans-Serif" font-size="10.00">/__w/qugar/qugar/cpp</text>
<text text-anchor="start" x="214.75" y="-95" font-family="Helvetica,sans-Serif" font-size="10.00">/include/qugar/impl_reparam</text>
<text text-anchor="middle" x="285.25" y="-84" font-family="Helvetica,sans-Serif" font-size="10.00">_bezier.hpp</text>
</a>
</g>
</g>
<!-- Node5&#45;&gt;Node7 -->
<g id="edge8_Node000005_Node000007" class="edge">
<title>Node5&#45;&gt;Node7</title>
<g id="a_edge8_Node000005_Node000007"><a xlink:title=" ">
<path fill="none" stroke="#63b8ff" d="M308.72,-144.83C304.19,-135.89 299.3,-126.24 295.17,-118.07"/>
<polygon fill="#63b8ff" stroke="#63b8ff" points="305.62,-146.46 313.26,-153.79 311.87,-143.29 305.62,-146.46"/>
</a>
</g>
</g>
<!-- Node8 -->
<g id="Node000008" class="node">
<title>Node8</title>
<g id="a_Node000008"><a xlink:href="../../d5/da9/impl__reparam__general_8hpp.html" target="_top" xlink:title="Declaration of tools for creating reparameterizations of general functions.">
<polygon fill="white" stroke="#666666" points="188.75,-118 31.75,-118 31.75,-77 188.75,-77 188.75,-118"/>
<text text-anchor="start" x="39.75" y="-106" font-family="Helvetica,sans-Serif" font-size="10.00">/__w/qugar/qugar/cpp</text>
<text text-anchor="start" x="39.75" y="-95" font-family="Helvetica,sans-Serif" font-size="10.00">/include/qugar/impl_reparam</text>
<text text-anchor="middle" x="110.25" y="-84" font-family="Helvetica,sans-Serif" font-size="10.00">_general.hpp</text>
</a>
</g>
</g>
<!-- Node5&#45;&gt;Node8 -->
<g id="edge9_Node000005_Node000008" class="edge">
<title>Node5&#45;&gt;Node8</title>
<g id="a_edge9_Node000005_Node000008"><a xlink:title=" ">
<path fill="none" stroke="#63b8ff" d="M258.04,-150.54C228.52,-140.15 194,-127.99 165.75,-118.04"/>
<polygon fill="#63b8ff" stroke="#63b8ff" points="257.25,-153.97 267.84,-153.99 259.57,-147.37 257.25,-153.97"/>
</a>
</g>
</g>
<!-- Node6&#45;&gt;Node3 -->
<g id="edge7_Node000006_Node000003" class="edge">
<title>Node6&#45;&gt;Node3</title>
<g id="a_edge7_Node000006_Node000003"><a xlink:title=" ">
<path fill="none" stroke="#63b8ff" d="M471.25,-72.23C471.25,-62.2 471.25,-50.71 471.25,-41.2"/>
<polygon fill="#63b8ff" stroke="#63b8ff" points="467.75,-72.39 471.25,-82.39 474.75,-72.39 467.75,-72.39"/>
</a>
</g>
</g>
<!-- Node9&#45;&gt;Node2 -->
<g id="edge11_Node000009_Node000002" class="edge">
<title>Node9&#45;&gt;Node2</title>
<g id="a_edge11_Node000009_Node000002"><a xlink:title=" ">
<path fill="none" stroke="#63b8ff" d="M590.47,-221.64C602.39,-200.19 621.3,-171.7 645.25,-154 672.38,-133.96 707.19,-120.86 737.92,-112.45"/>
<polygon fill="#63b8ff" stroke="#63b8ff" points="587.28,-220.17 585.64,-230.64 593.45,-223.48 587.28,-220.17"/>
</a>
</g>
</g>
<!-- Node9&#45;&gt;Node3 -->
<g id="edge12_Node000009_Node000003" class="edge">
<title>Node9&#45;&gt;Node3</title>
<g id="a_edge12_Node000009_Node000003"><a xlink:title=" ">
<path fill="none" stroke="#63b8ff" d="M583.26,-220.74C590.16,-184.05 596.19,-121.15 569.25,-77 559.62,-61.23 543.75,-49.54 527.55,-41.06"/>
<polygon fill="#63b8ff" stroke="#63b8ff" points="579.78,-220.3 581.22,-230.79 586.64,-221.69 579.78,-220.3"/>
</a>
</g>
</g>
<!-- Node9&#45;&gt;Node4 -->
<g id="edge13_Node000009_Node000004" class="edge">
<title>Node9&#45;&gt;Node4</title>
<g id="a_edge13_Node000009_Node000004"><a xlink:title=" ">
<path fill="none" stroke="#63b8ff" d="M630.62,-226.93C658.91,-214.66 692.55,-200.08 716.76,-189.58"/>
<polygon fill="#63b8ff" stroke="#63b8ff" points="629.03,-223.8 621.25,-230.99 631.82,-230.22 629.03,-223.8"/>
</a>
</g>
</g>
<!-- Node9&#45;&gt;Node6 -->
<g id="edge14_Node000009_Node000006" class="edge">
<title>Node9&#45;&gt;Node6</title>
<g id="a_edge14_Node000009_Node000006"><a xlink:title=" ">
<path fill="none" stroke="#63b8ff" d="M556.78,-222.32C534.29,-189.76 498.17,-137.47 480.97,-112.57"/>
<polygon fill="#63b8ff" stroke="#63b8ff" points="554.17,-224.7 562.74,-230.94 559.93,-220.72 554.17,-224.7"/>
</a>
</g>
</g>
<!-- Node10&#45;&gt;Node5 -->
<g id="edge16_Node000010_Node000005" class="edge">
<title>Node10&#45;&gt;Node5</title>
<g id="a_edge16_Node000010_Node000005"><a xlink:title=" ">
<path fill="none" stroke="#63b8ff" d="M383.82,-224.35C371.89,-214.73 358.6,-204.01 347.52,-195.07"/>
<polygon fill="#63b8ff" stroke="#63b8ff" points="381.83,-227.24 391.81,-230.79 386.23,-221.79 381.83,-227.24"/>
</a>
</g>
</g>
<!-- Node11&#45;&gt;Node9 -->
<g id="edge21_Node000011_Node000009" class="edge">
<title>Node11&#45;&gt;Node9</title>
<g id="a_edge21_Node000011_Node000009"><a xlink:title=" ">
<path fill="none" stroke="#63b8ff" d="M576.25,-297.69C576.25,-289.08 576.25,-279.9 576.25,-272.07"/>
<polygon fill="#63b8ff" stroke="#63b8ff" points="572.75,-297.79 576.25,-307.79 579.75,-297.79 572.75,-297.79"/>
</a>
</g>
</g>
<!-- Node11&#45;&gt;Node10 -->
<g id="edge22_Node000011_Node000010" class="edge">
<title>Node11&#45;&gt;Node10</title>
<g id="a_edge22_Node000011_Node000010"><a xlink:title=" ">
<path fill="none" stroke="#63b8ff" d="M525.52,-303.72C503.74,-293.51 478.61,-281.73 457.94,-272.04"/>
<polygon fill="#63b8ff" stroke="#63b8ff" points="524.09,-306.92 534.63,-307.99 527.06,-300.58 524.09,-306.92"/>
</a>
</g>
</g>
<!-- Node12 -->
<g id="Node000012" class="node">
<title>Node12</title>
<g id="a_Node000012"><a xlink:href="../../d1/daf/cut__quadrature_8hpp.html" target="_top" xlink:title="Definition of cut quadrature for unfitted domains.">
<polygon fill="white" stroke="#666666" points="892.75,-266.5 709.75,-266.5 709.75,-236.5 892.75,-236.5 892.75,-266.5"/>
<text text-anchor="start" x="717.75" y="-254.5" font-family="Helvetica,sans-Serif" font-size="10.00">/__w/qugar/qugar/cpp</text>
<text text-anchor="middle" x="801.25" y="-243.5" font-family="Helvetica,sans-Serif" font-size="10.00">/include/qugar/cut_quadrature.hpp</text>
</a>
</g>
</g>
<!-- Node11&#45;&gt;Node12 -->
<g id="edge18_Node000011_Node000012" class="edge">
<title>Node11&#45;&gt;Node12</title>
<g id="a_edge18_Node000011_Node000012"><a xlink:title=" ">
<path fill="none" stroke="#63b8ff" d="M644.57,-304.73C681.85,-292.3 726.82,-277.31 759,-266.58"/>
<polygon fill="#63b8ff" stroke="#63b8ff" points="643.16,-301.51 634.78,-307.99 645.37,-308.15 643.16,-301.51"/>
</a>
</g>
</g>
<!-- Node12&#45;&gt;Node2 -->
<g id="edge19_Node000012_Node000002" class="edge">
<title>Node12&#45;&gt;Node2</title>
<g id="a_edge19_Node000012_Node000002"><a xlink:title=" ">
<path fill="none" stroke="#63b8ff" d="M827.93,-229.69C837.86,-220.29 847.99,-208.31 853.25,-195 859.95,-178.05 859.05,-171.27 853.25,-154 848.79,-140.71 839.75,-128.07 831.19,-118.22"/>
<polygon fill="#63b8ff" stroke="#63b8ff" points="825.6,-227.09 820.46,-236.36 830.26,-232.31 825.6,-227.09"/>
</a>
</g>
</g>
<!-- Node12&#45;&gt;Node4 -->
<g id="edge20_Node000012_Node000004" class="edge">
<title>Node12&#45;&gt;Node4</title>
<g id="a_edge20_Node000012_Node000004"><a xlink:title=" ">
<path fill="none" stroke="#63b8ff" d="M785.56,-227.88C776.92,-215.41 766.45,-200.32 758.99,-189.54"/>
<polygon fill="#63b8ff" stroke="#63b8ff" points="782.89,-230.17 791.47,-236.39 788.65,-226.18 782.89,-230.17"/>
</a>
</g>
</g>
</g>
</svg>
