<?xml version="1.0" encoding="UTF-8" standalone="no"?>
<!DOCTYPE svg PUBLIC "-//W3C//DTD SVG 1.1//EN"
 "http://www.w3.org/Graphics/SVG/1.1/DTD/svg11.dtd">
<!-- Generated by graphviz version 2.43.0 (0)
 -->
<!-- Title: qugar::impl::funcs::AnnulusBzr::create_monomials Pages: 1 -->
<svg width="280pt" height="157pt"
 viewBox="0.00 0.00 280.00 156.50" xmlns="http://www.w3.org/2000/svg" xmlns:xlink="http://www.w3.org/1999/xlink">
<g id="graph0" class="graph" transform="scale(1 1) rotate(0) translate(4 152.5)">
<title>qugar::impl::funcs::AnnulusBzr::create_monomials</title>
<!-- Node1 -->
<g id="Node000001" class="node">
<title>Node1</title>
<g id="a_Node000001"><a xlink:title="Creates a polynomial representation based on monomials for the given radii and center.">
<polygon fill="#999999" stroke="#666666" points="114,-100 0,-100 0,-59 114,-59 114,-100"/>
<text text-anchor="start" x="8" y="-88" font-family="Helvetica,sans-Serif" font-size="10.00">qugar::impl::funcs</text>
<text text-anchor="start" x="8" y="-77" font-family="Helvetica,sans-Serif" font-size="10.00">::AnnulusBzr::create</text>
<text text-anchor="middle" x="57" y="-66" font-family="Helvetica,sans-Serif" font-size="10.00">_monomials</text>
</a>
</g>
</g>
<!-- Node2 -->
<g id="Node000002" class="node">
<title>Node2</title>
<g id="a_Node000002"><a xlink:href="../../db/ded/classqugar_1_1impl_1_1funcs_1_1AnnulusBase.html#a8643fab693ba5b2a7722c663cd1af7a5" target="_top" xlink:title="Gets the center of the annulus.">
<polygon fill="white" stroke="#666666" points="272,-148.5 150,-148.5 150,-118.5 272,-118.5 272,-148.5"/>
<text text-anchor="start" x="158" y="-136.5" font-family="Helvetica,sans-Serif" font-size="10.00">qugar::impl::funcs</text>
<text text-anchor="middle" x="211" y="-125.5" font-family="Helvetica,sans-Serif" font-size="10.00">::AnnulusBase::center</text>
</a>
</g>
</g>
<!-- Node1&#45;&gt;Node2 -->
<g id="edge1_Node000001_Node000002" class="edge">
<title>Node1&#45;&gt;Node2</title>
<g id="a_edge1_Node000001_Node000002"><a xlink:title=" ">
<path fill="none" stroke="#63b8ff" d="M114.17,-99.45C128.46,-104.53 143.76,-109.97 157.84,-114.97"/>
<polygon fill="#63b8ff" stroke="#63b8ff" points="156.77,-118.31 167.37,-118.35 159.12,-111.71 156.77,-118.31"/>
</a>
</g>
</g>
<!-- Node3 -->
<g id="Node000003" class="node">
<title>Node3</title>
<g id="a_Node000003"><a xlink:href="../../db/ded/classqugar_1_1impl_1_1funcs_1_1AnnulusBase.html#a9d21165e747425d9ce9604310f34fbdd" target="_top" xlink:title="Gets the inner radius of the annulus.">
<polygon fill="white" stroke="#666666" points="269,-100 153,-100 153,-59 269,-59 269,-100"/>
<text text-anchor="start" x="161" y="-88" font-family="Helvetica,sans-Serif" font-size="10.00">qugar::impl::funcs</text>
<text text-anchor="start" x="161" y="-77" font-family="Helvetica,sans-Serif" font-size="10.00">::AnnulusBase::inner</text>
<text text-anchor="middle" x="211" y="-66" font-family="Helvetica,sans-Serif" font-size="10.00">_radius</text>
</a>
</g>
</g>
<!-- Node1&#45;&gt;Node3 -->
<g id="edge2_Node000001_Node000003" class="edge">
<title>Node1&#45;&gt;Node3</title>
<g id="a_edge2_Node000001_Node000003"><a xlink:title=" ">
<path fill="none" stroke="#63b8ff" d="M114.17,-79.5C123.42,-79.5 133.1,-79.5 142.59,-79.5"/>
<polygon fill="#63b8ff" stroke="#63b8ff" points="142.79,-83 152.79,-79.5 142.79,-76 142.79,-83"/>
</a>
</g>
</g>
<!-- Node4 -->
<g id="Node000004" class="node">
<title>Node4</title>
<g id="a_Node000004"><a xlink:href="../../db/ded/classqugar_1_1impl_1_1funcs_1_1AnnulusBase.html#a12cb3c770c083654e03d24449179649f" target="_top" xlink:title="Gets the outer radius of the annulus.">
<polygon fill="white" stroke="#666666" points="269.5,-41 152.5,-41 152.5,0 269.5,0 269.5,-41"/>
<text text-anchor="start" x="160.5" y="-29" font-family="Helvetica,sans-Serif" font-size="10.00">qugar::impl::funcs</text>
<text text-anchor="start" x="160.5" y="-18" font-family="Helvetica,sans-Serif" font-size="10.00">::AnnulusBase::outer</text>
<text text-anchor="middle" x="211" y="-7" font-family="Helvetica,sans-Serif" font-size="10.00">_radius</text>
</a>
</g>
</g>
<!-- Node1&#45;&gt;Node4 -->
<g id="edge3_Node000001_Node000004" class="edge">
<title>Node1&#45;&gt;Node4</title>
<g id="a_edge3_Node000001_Node000004"><a xlink:title=" ">
<path fill="none" stroke="#63b8ff" d="M111.16,-58.86C122.92,-54.3 135.47,-49.43 147.56,-44.74"/>
<polygon fill="#63b8ff" stroke="#63b8ff" points="149.07,-47.91 157.12,-41.02 146.54,-41.38 149.07,-47.91"/>
</a>
</g>
</g>
</g>
</svg>
