<?xml version="1.0" encoding="UTF-8" standalone="no"?>
<!DOCTYPE svg PUBLIC "-//W3C//DTD SVG 1.1//EN"
 "http://www.w3.org/Graphics/SVG/1.1/DTD/svg11.dtd">
<!-- Generated by graphviz version 2.43.0 (0)
 -->
<!-- Title: qugar::impl::funcs::AnnulusBzr::AnnulusBzr Pages: 1 -->
<svg width="304pt" height="157pt"
 viewBox="0.00 0.00 304.00 156.50" xmlns="http://www.w3.org/2000/svg" xmlns:xlink="http://www.w3.org/1999/xlink">
<g id="graph0" class="graph" transform="scale(1 1) rotate(0) translate(4 152.5)">
<title>qugar::impl::funcs::AnnulusBzr::AnnulusBzr</title>
<!-- Node1 -->
<g id="Node000001" class="node">
<title>Node1</title>
<g id="a_Node000001"><a xlink:title="Constructor.">
<polygon fill="#999999" stroke="#666666" points="138,-94.5 0,-94.5 0,-64.5 138,-64.5 138,-94.5"/>
<text text-anchor="start" x="8" y="-82.5" font-family="Helvetica,sans-Serif" font-size="10.00">qugar::impl::funcs</text>
<text text-anchor="middle" x="69" y="-71.5" font-family="Helvetica,sans-Serif" font-size="10.00">::AnnulusBzr::AnnulusBzr</text>
</a>
</g>
</g>
<!-- Node2 -->
<g id="Node000002" class="node">
<title>Node2</title>
<g id="a_Node000002"><a xlink:href="../../db/ded/classqugar_1_1impl_1_1funcs_1_1AnnulusBase.html#a8643fab693ba5b2a7722c663cd1af7a5" target="_top" xlink:title="Gets the center of the annulus.">
<polygon fill="white" stroke="#666666" points="296,-148.5 174,-148.5 174,-118.5 296,-118.5 296,-148.5"/>
<text text-anchor="start" x="182" y="-136.5" font-family="Helvetica,sans-Serif" font-size="10.00">qugar::impl::funcs</text>
<text text-anchor="middle" x="235" y="-125.5" font-family="Helvetica,sans-Serif" font-size="10.00">::AnnulusBase::center</text>
</a>
</g>
</g>
<!-- Node1&#45;&gt;Node2 -->
<g id="edge1_Node000001_Node000002" class="edge">
<title>Node1&#45;&gt;Node2</title>
<g id="a_edge1_Node000001_Node000002"><a xlink:title=" ">
<path fill="none" stroke="#63b8ff" d="M115.68,-94.54C135.24,-100.98 158.25,-108.56 178.75,-115.31"/>
<polygon fill="#63b8ff" stroke="#63b8ff" points="177.68,-118.64 188.28,-118.45 179.87,-111.99 177.68,-118.64"/>
</a>
</g>
</g>
<!-- Node3 -->
<g id="Node000003" class="node">
<title>Node3</title>
<g id="a_Node000003"><a xlink:href="../../db/ded/classqugar_1_1impl_1_1funcs_1_1AnnulusBase.html#a9d21165e747425d9ce9604310f34fbdd" target="_top" xlink:title="Gets the inner radius of the annulus.">
<polygon fill="white" stroke="#666666" points="293,-100 177,-100 177,-59 293,-59 293,-100"/>
<text text-anchor="start" x="185" y="-88" font-family="Helvetica,sans-Serif" font-size="10.00">qugar::impl::funcs</text>
<text text-anchor="start" x="185" y="-77" font-family="Helvetica,sans-Serif" font-size="10.00">::AnnulusBase::inner</text>
<text text-anchor="middle" x="235" y="-66" font-family="Helvetica,sans-Serif" font-size="10.00">_radius</text>
</a>
</g>
</g>
<!-- Node1&#45;&gt;Node3 -->
<g id="edge2_Node000001_Node000003" class="edge">
<title>Node1&#45;&gt;Node3</title>
<g id="a_edge2_Node000001_Node000003"><a xlink:title=" ">
<path fill="none" stroke="#63b8ff" d="M138.13,-79.5C147.56,-79.5 157.25,-79.5 166.67,-79.5"/>
<polygon fill="#63b8ff" stroke="#63b8ff" points="166.76,-83 176.76,-79.5 166.76,-76 166.76,-83"/>
</a>
</g>
</g>
<!-- Node4 -->
<g id="Node000004" class="node">
<title>Node4</title>
<g id="a_Node000004"><a xlink:href="../../db/ded/classqugar_1_1impl_1_1funcs_1_1AnnulusBase.html#a12cb3c770c083654e03d24449179649f" target="_top" xlink:title="Gets the outer radius of the annulus.">
<polygon fill="white" stroke="#666666" points="293.5,-41 176.5,-41 176.5,0 293.5,0 293.5,-41"/>
<text text-anchor="start" x="184.5" y="-29" font-family="Helvetica,sans-Serif" font-size="10.00">qugar::impl::funcs</text>
<text text-anchor="start" x="184.5" y="-18" font-family="Helvetica,sans-Serif" font-size="10.00">::AnnulusBase::outer</text>
<text text-anchor="middle" x="235" y="-7" font-family="Helvetica,sans-Serif" font-size="10.00">_radius</text>
</a>
</g>
</g>
<!-- Node1&#45;&gt;Node4 -->
<g id="edge3_Node000001_Node000004" class="edge">
<title>Node1&#45;&gt;Node4</title>
<g id="a_edge3_Node000001_Node000004"><a xlink:title=" ">
<path fill="none" stroke="#63b8ff" d="M111.81,-64.46C128.62,-58.41 148.42,-51.29 167.13,-44.56"/>
<polygon fill="#63b8ff" stroke="#63b8ff" points="168.57,-47.76 176.8,-41.08 166.2,-41.17 168.57,-47.76"/>
</a>
</g>
</g>
</g>
</svg>
