<?xml version="1.0" encoding="UTF-8" standalone="no"?>
<!DOCTYPE svg PUBLIC "-//W3C//DTD SVG 1.1//EN"
 "http://www.w3.org/Graphics/SVG/1.1/DTD/svg11.dtd">
<!-- Generated by graphviz version 2.43.0 (0)
 -->
<!-- Title: qugar::TensorIndexTP::TensorIndexTP Pages: 1 -->
<svg width="286pt" height="230pt"
 viewBox="0.00 0.00 286.00 230.00" xmlns="http://www.w3.org/2000/svg" xmlns:xlink="http://www.w3.org/1999/xlink">
<g id="graph0" class="graph" transform="scale(1 1) rotate(0) translate(4 226)">
<title>qugar::TensorIndexTP::TensorIndexTP</title>
<!-- Node1 -->
<g id="Node000001" class="node">
<title>Node1</title>
<g id="a_Node000001"><a xlink:title="Default constructor. Initializes indices to zero.">
<polygon fill="#999999" stroke="#666666" points="278,-126 157,-126 157,-96 278,-96 278,-126"/>
<text text-anchor="start" x="165" y="-114" font-family="Helvetica,sans-Serif" font-size="10.00">qugar::TensorIndexTP</text>
<text text-anchor="middle" x="217.5" y="-103" font-family="Helvetica,sans-Serif" font-size="10.00">::TensorIndexTP</text>
</a>
</g>
</g>
<!-- Node2 -->
<g id="Node000002" class="node">
<title>Node2</title>
<g id="a_Node000002"><a xlink:href="../../de/d1b/classqugar_1_1TensorIndexTP.html#ab910e12eedffc73b366343e244468b46" target="_top" xlink:title="Checks if two tensor indices are different by comparing all its components. They are different if at ...">
<polygon fill="white" stroke="#666666" points="121,-222 0,-222 0,-192 121,-192 121,-222"/>
<text text-anchor="start" x="8" y="-210" font-family="Helvetica,sans-Serif" font-size="10.00">qugar::TensorIndexTP</text>
<text text-anchor="middle" x="60.5" y="-199" font-family="Helvetica,sans-Serif" font-size="10.00">::operator!=</text>
</a>
</g>
</g>
<!-- Node1&#45;&gt;Node2 -->
<g id="edge1_Node000001_Node000002" class="edge">
<title>Node1&#45;&gt;Node2</title>
<g id="a_edge1_Node000001_Node000002"><a xlink:title=" ">
<path fill="none" stroke="#63b8ff" d="M191.82,-132.49C173.24,-147.92 146.66,-168.49 121,-183 115.28,-186.24 109.04,-189.25 102.81,-191.98"/>
<polygon fill="#63b8ff" stroke="#63b8ff" points="194.12,-135.12 199.51,-126.01 189.61,-129.77 194.12,-135.12"/>
</a>
</g>
</g>
<!-- Node3 -->
<g id="Node000003" class="node">
<title>Node3</title>
<g id="a_Node000003"><a xlink:href="../../de/d1b/classqugar_1_1TensorIndexTP.html#a141a4218dae78d68011430ee4b2ab322" target="_top" xlink:title="Checks if the current tensor index is smaller than rhs. To determine if one is smaller than the other...">
<polygon fill="white" stroke="#666666" points="121,-174 0,-174 0,-144 121,-144 121,-174"/>
<text text-anchor="start" x="8" y="-162" font-family="Helvetica,sans-Serif" font-size="10.00">qugar::TensorIndexTP</text>
<text text-anchor="middle" x="60.5" y="-151" font-family="Helvetica,sans-Serif" font-size="10.00">::operator&lt;</text>
</a>
</g>
</g>
<!-- Node1&#45;&gt;Node3 -->
<g id="edge2_Node000001_Node000003" class="edge">
<title>Node1&#45;&gt;Node3</title>
<g id="a_edge2_Node000001_Node000003"><a xlink:title=" ">
<path fill="none" stroke="#63b8ff" d="M158.16,-129.07C142.27,-133.99 125.22,-139.27 109.95,-144"/>
<polygon fill="#63b8ff" stroke="#63b8ff" points="159.37,-132.36 167.88,-126.06 157.29,-125.67 159.37,-132.36"/>
</a>
</g>
</g>
<!-- Node4 -->
<g id="Node000004" class="node">
<title>Node4</title>
<g id="a_Node000004"><a xlink:href="../../de/d1b/classqugar_1_1TensorIndexTP.html#ac5131c71ad7601ffe1f322d71bf582df" target="_top" xlink:title="Checks if two tensor indices are equal by comparing all its components. They are equal if all the com...">
<polygon fill="white" stroke="#666666" points="121,-126 0,-126 0,-96 121,-96 121,-126"/>
<text text-anchor="start" x="8" y="-114" font-family="Helvetica,sans-Serif" font-size="10.00">qugar::TensorIndexTP</text>
<text text-anchor="middle" x="60.5" y="-103" font-family="Helvetica,sans-Serif" font-size="10.00">::operator==</text>
</a>
</g>
</g>
<!-- Node1&#45;&gt;Node4 -->
<g id="edge3_Node000001_Node000004" class="edge">
<title>Node1&#45;&gt;Node4</title>
<g id="a_edge3_Node000001_Node000004"><a xlink:title=" ">
<path fill="none" stroke="#63b8ff" d="M146.34,-111C137.88,-111 129.3,-111 121.01,-111"/>
<polygon fill="#63b8ff" stroke="#63b8ff" points="146.57,-114.5 156.57,-111 146.57,-107.5 146.57,-114.5"/>
</a>
</g>
</g>
<!-- Node5 -->
<g id="Node000005" class="node">
<title>Node5</title>
<g id="a_Node000005"><a xlink:href="../../de/d1b/classqugar_1_1TensorIndexTP.html#a4bced87157ee058c401ee8d95cbc59a8" target="_top" xlink:title="Creates a new index by removing one of its component.">
<polygon fill="white" stroke="#666666" points="121,-78 0,-78 0,-48 121,-48 121,-78"/>
<text text-anchor="start" x="8" y="-66" font-family="Helvetica,sans-Serif" font-size="10.00">qugar::TensorIndexTP</text>
<text text-anchor="middle" x="60.5" y="-55" font-family="Helvetica,sans-Serif" font-size="10.00">::remove_component</text>
</a>
</g>
</g>
<!-- Node1&#45;&gt;Node5 -->
<g id="edge4_Node000001_Node000005" class="edge">
<title>Node1&#45;&gt;Node5</title>
<g id="a_edge4_Node000001_Node000005"><a xlink:title=" ">
<path fill="none" stroke="#63b8ff" d="M158.16,-92.93C142.27,-88.01 125.22,-82.73 109.95,-78"/>
<polygon fill="#63b8ff" stroke="#63b8ff" points="157.29,-96.33 167.88,-95.94 159.37,-89.64 157.29,-96.33"/>
</a>
</g>
</g>
<!-- Node6 -->
<g id="Node000006" class="node">
<title>Node6</title>
<g id="a_Node000006"><a xlink:href="../../de/d1b/classqugar_1_1TensorIndexTP.html#a507bfec0c2719411254cf3fad5ad00b8" target="_top" xlink:title="Constructs a new TensorIndexTP object from a flat index and an associated tensor size following the l...">
<polygon fill="white" stroke="#666666" points="121,-30 0,-30 0,0 121,0 121,-30"/>
<text text-anchor="start" x="8" y="-18" font-family="Helvetica,sans-Serif" font-size="10.00">qugar::TensorIndexTP</text>
<text text-anchor="middle" x="60.5" y="-7" font-family="Helvetica,sans-Serif" font-size="10.00">::TensorIndexTP</text>
</a>
</g>
</g>
<!-- Node1&#45;&gt;Node6 -->
<g id="edge5_Node000001_Node000006" class="edge">
<title>Node1&#45;&gt;Node6</title>
<g id="a_edge5_Node000001_Node000006"><a xlink:title=" ">
<path fill="none" stroke="#63b8ff" d="M191.82,-89.51C173.24,-74.08 146.66,-53.51 121,-39 115.28,-35.76 109.04,-32.75 102.81,-30.02"/>
<polygon fill="#63b8ff" stroke="#63b8ff" points="189.61,-92.23 199.51,-95.99 194.12,-86.88 189.61,-92.23"/>
</a>
</g>
</g>
</g>
</svg>
