<?xml version="1.0" encoding="UTF-8" standalone="no"?>
<!DOCTYPE svg PUBLIC "-//W3C//DTD SVG 1.1//EN"
 "http://www.w3.org/Graphics/SVG/1.1/DTD/svg11.dtd">
<!-- Generated by graphviz version 2.43.0 (0)
 -->
<!-- Title: /__w/qugar/qugar/cpp/include/qugar/domain_function.hpp Pages: 1 -->
<svg width="528pt" height="214pt"
 viewBox="0.00 0.00 528.00 214.00" xmlns="http://www.w3.org/2000/svg" xmlns:xlink="http://www.w3.org/1999/xlink">
<g id="graph0" class="graph" transform="scale(1 1) rotate(0) translate(4 210)">
<title>/__w/qugar/qugar/cpp/include/qugar/domain_function.hpp</title>
<!-- Node1 -->
<g id="Node000001" class="node">
<title>Node1</title>
<g id="a_Node000001"><a xlink:title="Declaration of a few implicit functions template class ready to be consumed by Algoim.">
<polygon fill="#999999" stroke="#666666" points="329,-206 204,-206 204,-165 329,-165 329,-206"/>
<text text-anchor="start" x="212" y="-194" font-family="Helvetica,sans-Serif" font-size="10.00">/__w/qugar/qugar/cpp</text>
<text text-anchor="start" x="212" y="-183" font-family="Helvetica,sans-Serif" font-size="10.00">/include/qugar/domain</text>
<text text-anchor="middle" x="266.5" y="-172" font-family="Helvetica,sans-Serif" font-size="10.00">_function.hpp</text>
</a>
</g>
</g>
<!-- Node2 -->
<g id="Node000002" class="node">
<title>Node2</title>
<g id="a_Node000002"><a xlink:href="../../dd/de3/types_8hpp.html" target="_top" xlink:title="Declaration of types.">
<polygon fill="white" stroke="#666666" points="95,-74 0,-74 0,-55 95,-55 95,-74"/>
<text text-anchor="middle" x="47.5" y="-62" font-family="Helvetica,sans-Serif" font-size="10.00">qugar/types.hpp</text>
</a>
</g>
</g>
<!-- Node1&#45;&gt;Node2 -->
<g id="edge1_Node000001_Node000002" class="edge">
<title>Node1&#45;&gt;Node2</title>
<g id="a_edge1_Node000001_Node000002"><a xlink:title=" ">
<path fill="none" stroke="#63b8ff" d="M203.69,-174.33C168.77,-166.35 125.94,-152.51 93.5,-129 77.02,-117.06 64.1,-97.41 56.2,-83.12"/>
<polygon fill="#63b8ff" stroke="#63b8ff" points="59.3,-81.49 51.56,-74.26 53.1,-84.74 59.3,-81.49"/>
</a>
</g>
</g>
<!-- Node4 -->
<g id="Node000004" class="node">
<title>Node4</title>
<g id="a_Node000004"><a xlink:href="../../d0/de4/point_8hpp.html" target="_top" xlink:title="Definition and implementation of Point class.">
<polygon fill="white" stroke="#666666" points="196,-129 103,-129 103,-110 196,-110 196,-129"/>
<text text-anchor="middle" x="149.5" y="-117" font-family="Helvetica,sans-Serif" font-size="10.00">qugar/point.hpp</text>
</a>
</g>
</g>
<!-- Node1&#45;&gt;Node4 -->
<g id="edge3_Node000001_Node000004" class="edge">
<title>Node1&#45;&gt;Node4</title>
<g id="a_edge3_Node000001_Node000004"><a xlink:title=" ">
<path fill="none" stroke="#63b8ff" d="M230.76,-164.95C212.45,-154.93 190.61,-142.99 174.18,-134"/>
<polygon fill="#63b8ff" stroke="#63b8ff" points="175.66,-130.82 165.21,-129.09 172.3,-136.96 175.66,-130.82"/>
</a>
</g>
</g>
<!-- Node5 -->
<g id="Node000005" class="node">
<title>Node5</title>
<g id="a_Node000005"><a xlink:href="../../da/d16/vector_8hpp.html" target="_top" xlink:title=" ">
<polygon fill="white" stroke="#666666" points="315.5,-74 217.5,-74 217.5,-55 315.5,-55 315.5,-74"/>
<text text-anchor="middle" x="266.5" y="-62" font-family="Helvetica,sans-Serif" font-size="10.00">qugar/vector.hpp</text>
</a>
</g>
</g>
<!-- Node1&#45;&gt;Node5 -->
<g id="edge9_Node000001_Node000005" class="edge">
<title>Node1&#45;&gt;Node5</title>
<g id="a_edge9_Node000001_Node000005"><a xlink:title=" ">
<path fill="none" stroke="#63b8ff" d="M254.34,-164.76C246.64,-149.85 238.93,-128.81 243.5,-110 245.81,-100.51 250.52,-90.78 255.08,-82.85"/>
<polygon fill="#63b8ff" stroke="#63b8ff" points="258.14,-84.55 260.4,-74.2 252.18,-80.89 258.14,-84.55"/>
</a>
</g>
</g>
<!-- Node8 -->
<g id="Node000008" class="node">
<title>Node8</title>
<g id="a_Node000008"><a xlink:title=" ">
<polygon fill="#e0e0e0" stroke="#999999" points="364.5,-129 252.5,-129 252.5,-110 364.5,-110 364.5,-129"/>
<text text-anchor="middle" x="308.5" y="-117" font-family="Helvetica,sans-Serif" font-size="10.00">algoim/interval.hpp</text>
</a>
</g>
</g>
<!-- Node1&#45;&gt;Node8 -->
<g id="edge10_Node000001_Node000008" class="edge">
<title>Node1&#45;&gt;Node8</title>
<g id="a_edge10_Node000001_Node000008"><a xlink:title=" ">
<path fill="none" stroke="#63b8ff" d="M279.33,-164.95C285.01,-156.3 291.63,-146.2 297.13,-137.82"/>
<polygon fill="#63b8ff" stroke="#63b8ff" points="300.19,-139.54 302.75,-129.26 294.34,-135.7 300.19,-139.54"/>
</a>
</g>
</g>
<!-- Node9 -->
<g id="Node000009" class="node">
<title>Node9</title>
<g id="a_Node000009"><a xlink:title=" ">
<polygon fill="#e0e0e0" stroke="#999999" points="432.5,-129 382.5,-129 382.5,-110 432.5,-110 432.5,-129"/>
<text text-anchor="middle" x="407.5" y="-117" font-family="Helvetica,sans-Serif" font-size="10.00">cstdint</text>
</a>
</g>
</g>
<!-- Node1&#45;&gt;Node9 -->
<g id="edge11_Node000001_Node000009" class="edge">
<title>Node1&#45;&gt;Node9</title>
<g id="a_edge11_Node000001_Node000009"><a xlink:title=" ">
<path fill="none" stroke="#63b8ff" d="M309.57,-164.95C332.26,-154.65 359.44,-142.31 379.4,-133.25"/>
<polygon fill="#63b8ff" stroke="#63b8ff" points="380.91,-136.41 388.57,-129.09 378.02,-130.04 380.91,-136.41"/>
</a>
</g>
</g>
<!-- Node10 -->
<g id="Node000010" class="node">
<title>Node10</title>
<g id="a_Node000010"><a xlink:title=" ">
<polygon fill="#e0e0e0" stroke="#999999" points="520,-129 451,-129 451,-110 520,-110 520,-129"/>
<text text-anchor="middle" x="485.5" y="-117" font-family="Helvetica,sans-Serif" font-size="10.00">type_traits</text>
</a>
</g>
</g>
<!-- Node1&#45;&gt;Node10 -->
<g id="edge12_Node000001_Node000010" class="edge">
<title>Node1&#45;&gt;Node10</title>
<g id="a_edge12_Node000001_Node000010"><a xlink:title=" ">
<path fill="none" stroke="#63b8ff" d="M329.26,-166.16C367.17,-155.08 414.29,-141.31 446.81,-131.81"/>
<polygon fill="#63b8ff" stroke="#63b8ff" points="447.8,-135.17 456.41,-129 445.83,-128.45 447.8,-135.17"/>
</a>
</g>
</g>
<!-- Node3 -->
<g id="Node000003" class="node">
<title>Node3</title>
<g id="a_Node000003"><a xlink:title=" ">
<polygon fill="#e0e0e0" stroke="#999999" points="112,-19 59,-19 59,0 112,0 112,-19"/>
<text text-anchor="middle" x="85.5" y="-7" font-family="Helvetica,sans-Serif" font-size="10.00">cstddef</text>
</a>
</g>
</g>
<!-- Node2&#45;&gt;Node3 -->
<g id="edge2_Node000002_Node000003" class="edge">
<title>Node2&#45;&gt;Node3</title>
<g id="a_edge2_Node000002_Node000003"><a xlink:title=" ">
<path fill="none" stroke="#63b8ff" d="M53.77,-54.75C59.09,-47.34 66.86,-36.5 73.38,-27.41"/>
<polygon fill="#63b8ff" stroke="#63b8ff" points="76.36,-29.26 79.34,-19.09 70.67,-25.18 76.36,-29.26"/>
</a>
</g>
</g>
<!-- Node4&#45;&gt;Node2 -->
<g id="edge4_Node000004_Node000002" class="edge">
<title>Node4&#45;&gt;Node2</title>
<g id="a_edge4_Node000004_Node000002"><a xlink:title=" ">
<path fill="none" stroke="#63b8ff" d="M133.11,-109.98C116.93,-101.57 91.93,-88.59 73.12,-78.81"/>
<polygon fill="#63b8ff" stroke="#63b8ff" points="74.67,-75.68 64.19,-74.17 71.45,-81.89 74.67,-75.68"/>
</a>
</g>
</g>
<!-- Node4&#45;&gt;Node3 -->
<g id="edge7_Node000004_Node000003" class="edge">
<title>Node4&#45;&gt;Node3</title>
<g id="a_edge7_Node000004_Node000003"><a xlink:title=" ">
<path fill="none" stroke="#63b8ff" d="M144.26,-109.66C133.71,-91.85 109.72,-51.37 95.87,-28.01"/>
<polygon fill="#63b8ff" stroke="#63b8ff" points="98.74,-25.98 90.63,-19.16 92.72,-29.55 98.74,-25.98"/>
</a>
</g>
</g>
<!-- Node4&#45;&gt;Node5 -->
<g id="edge5_Node000004_Node000005" class="edge">
<title>Node4&#45;&gt;Node5</title>
<g id="a_edge5_Node000004_Node000005"><a xlink:title=" ">
<path fill="none" stroke="#63b8ff" d="M168.3,-109.98C187.12,-101.46 216.32,-88.23 238,-78.41"/>
<polygon fill="#63b8ff" stroke="#63b8ff" points="239.7,-81.48 247.36,-74.17 236.81,-75.11 239.7,-81.48"/>
</a>
</g>
</g>
<!-- Node7 -->
<g id="Node000007" class="node">
<title>Node7</title>
<g id="a_Node000007"><a xlink:title=" ">
<polygon fill="#e0e0e0" stroke="#999999" points="199,-74 152,-74 152,-55 199,-55 199,-74"/>
<text text-anchor="middle" x="175.5" y="-62" font-family="Helvetica,sans-Serif" font-size="10.00">vector</text>
</a>
</g>
</g>
<!-- Node4&#45;&gt;Node7 -->
<g id="edge8_Node000004_Node000007" class="edge">
<title>Node4&#45;&gt;Node7</title>
<g id="a_edge8_Node000004_Node000007"><a xlink:title=" ">
<path fill="none" stroke="#63b8ff" d="M153.79,-109.75C157.31,-102.57 162.41,-92.18 166.78,-83.27"/>
<polygon fill="#63b8ff" stroke="#63b8ff" points="170.02,-84.61 171.29,-74.09 163.74,-81.53 170.02,-84.61"/>
</a>
</g>
</g>
<!-- Node6 -->
<g id="Node000006" class="node">
<title>Node6</title>
<g id="a_Node000006"><a xlink:title=" ">
<polygon fill="#e0e0e0" stroke="#999999" points="321.5,-19 211.5,-19 211.5,0 321.5,0 321.5,-19"/>
<text text-anchor="middle" x="266.5" y="-7" font-family="Helvetica,sans-Serif" font-size="10.00">algoim/uvector.hpp</text>
</a>
</g>
</g>
<!-- Node5&#45;&gt;Node6 -->
<g id="edge6_Node000005_Node000006" class="edge">
<title>Node5&#45;&gt;Node6</title>
<g id="a_edge6_Node000005_Node000006"><a xlink:title=" ">
<path fill="none" stroke="#63b8ff" d="M266.5,-54.75C266.5,-47.8 266.5,-37.85 266.5,-29.13"/>
<polygon fill="#63b8ff" stroke="#63b8ff" points="270,-29.09 266.5,-19.09 263,-29.09 270,-29.09"/>
</a>
</g>
</g>
</g>
</svg>
