<?xml version="1.0" encoding="UTF-8" standalone="no"?>
<!DOCTYPE svg PUBLIC "-//W3C//DTD SVG 1.1//EN"
 "http://www.w3.org/Graphics/SVG/1.1/DTD/svg11.dtd">
<!-- Generated by graphviz version 2.43.0 (0)
 -->
<!-- Title: qugar::impl::funcs::Torus::Torus Pages: 1 -->
<svg width="290pt" height="182pt"
 viewBox="0.00 0.00 290.00 182.00" xmlns="http://www.w3.org/2000/svg" xmlns:xlink="http://www.w3.org/1999/xlink">
<g id="graph0" class="graph" transform="scale(1 1) rotate(0) translate(4 178)">
<title>qugar::impl::funcs::Torus::Torus</title>
<!-- Node1 -->
<g id="Node000001" class="node">
<title>Node1</title>
<g id="a_Node000001"><a xlink:title="Constructor.">
<polygon fill="#999999" stroke="#666666" points="104,-102 0,-102 0,-72 104,-72 104,-102"/>
<text text-anchor="start" x="8" y="-90" font-family="Helvetica,sans-Serif" font-size="10.00">qugar::impl::funcs</text>
<text text-anchor="middle" x="52" y="-79" font-family="Helvetica,sans-Serif" font-size="10.00">::Torus::Torus</text>
</a>
</g>
</g>
<!-- Node2 -->
<g id="Node000002" class="node">
<title>Node2</title>
<g id="a_Node000002"><a xlink:href="../../db/dc8/classqugar_1_1impl_1_1funcs_1_1TorusBase.html#ac9b0df6ba8326fa09c214ddf82d91d3c" target="_top" xlink:title="Gets the axis of the plane.">
<polygon fill="white" stroke="#666666" points="263,-174 159,-174 159,-144 263,-144 263,-174"/>
<text text-anchor="start" x="167" y="-162" font-family="Helvetica,sans-Serif" font-size="10.00">qugar::impl::funcs</text>
<text text-anchor="middle" x="211" y="-151" font-family="Helvetica,sans-Serif" font-size="10.00">::TorusBase::axis</text>
</a>
</g>
</g>
<!-- Node1&#45;&gt;Node2 -->
<g id="edge1_Node000001_Node000002" class="edge">
<title>Node1&#45;&gt;Node2</title>
<g id="a_edge1_Node000001_Node000002"><a xlink:title=" ">
<path fill="none" stroke="#63b8ff" d="M77.54,-102.04C94.66,-112.16 118.24,-125.35 140,-135 144.14,-136.84 148.47,-138.62 152.86,-140.34"/>
<polygon fill="#63b8ff" stroke="#63b8ff" points="151.91,-143.72 162.5,-143.97 154.37,-137.17 151.91,-143.72"/>
</a>
</g>
</g>
<!-- Node3 -->
<g id="Node000003" class="node">
<title>Node3</title>
<g id="a_Node000003"><a xlink:href="../../db/dc8/classqugar_1_1impl_1_1funcs_1_1TorusBase.html#a097ef719a844f0213bfcdd876046b7f7" target="_top" xlink:title="Gets the center of the plane.">
<polygon fill="white" stroke="#666666" points="265.5,-126 156.5,-126 156.5,-96 265.5,-96 265.5,-126"/>
<text text-anchor="start" x="164.5" y="-114" font-family="Helvetica,sans-Serif" font-size="10.00">qugar::impl::funcs</text>
<text text-anchor="middle" x="211" y="-103" font-family="Helvetica,sans-Serif" font-size="10.00">::TorusBase::center</text>
</a>
</g>
</g>
<!-- Node1&#45;&gt;Node3 -->
<g id="edge2_Node000001_Node000003" class="edge">
<title>Node1&#45;&gt;Node3</title>
<g id="a_edge2_Node000001_Node000003"><a xlink:title=" ">
<path fill="none" stroke="#63b8ff" d="M104.41,-94.86C117.79,-96.9 132.38,-99.13 146.31,-101.26"/>
<polygon fill="#63b8ff" stroke="#63b8ff" points="145.91,-104.74 156.32,-102.79 146.96,-97.82 145.91,-104.74"/>
</a>
</g>
</g>
<!-- Node4 -->
<g id="Node000004" class="node">
<title>Node4</title>
<g id="a_Node000004"><a xlink:href="../../db/dc8/classqugar_1_1impl_1_1funcs_1_1TorusBase.html#a07d898d07b21b70d9d3615f49cb45dd9" target="_top" xlink:title="Gets the major radius of the torus.">
<polygon fill="white" stroke="#666666" points="282,-78 140,-78 140,-48 282,-48 282,-78"/>
<text text-anchor="start" x="148" y="-66" font-family="Helvetica,sans-Serif" font-size="10.00">qugar::impl::funcs</text>
<text text-anchor="middle" x="211" y="-55" font-family="Helvetica,sans-Serif" font-size="10.00">::TorusBase::major_radius</text>
</a>
</g>
</g>
<!-- Node1&#45;&gt;Node4 -->
<g id="edge3_Node000001_Node000004" class="edge">
<title>Node1&#45;&gt;Node4</title>
<g id="a_edge3_Node000001_Node000004"><a xlink:title=" ">
<path fill="none" stroke="#63b8ff" d="M104.41,-79.14C112.57,-77.89 121.18,-76.58 129.82,-75.26"/>
<polygon fill="#63b8ff" stroke="#63b8ff" points="130.58,-78.68 139.94,-73.71 129.53,-71.76 130.58,-78.68"/>
</a>
</g>
</g>
<!-- Node5 -->
<g id="Node000005" class="node">
<title>Node5</title>
<g id="a_Node000005"><a xlink:href="../../db/dc8/classqugar_1_1impl_1_1funcs_1_1TorusBase.html#ac3bc8990d1ef8e5336df983c33cbee12" target="_top" xlink:title="Gets the minor radius of the torus.">
<polygon fill="white" stroke="#666666" points="282,-30 140,-30 140,0 282,0 282,-30"/>
<text text-anchor="start" x="148" y="-18" font-family="Helvetica,sans-Serif" font-size="10.00">qugar::impl::funcs</text>
<text text-anchor="middle" x="211" y="-7" font-family="Helvetica,sans-Serif" font-size="10.00">::TorusBase::minor_radius</text>
</a>
</g>
</g>
<!-- Node1&#45;&gt;Node5 -->
<g id="edge4_Node000001_Node000005" class="edge">
<title>Node1&#45;&gt;Node5</title>
<g id="a_edge4_Node000001_Node000005"><a xlink:title=" ">
<path fill="none" stroke="#63b8ff" d="M77.54,-71.96C94.66,-61.84 118.24,-48.65 140,-39 144.14,-37.16 148.47,-35.38 152.86,-33.66"/>
<polygon fill="#63b8ff" stroke="#63b8ff" points="154.37,-36.83 162.5,-30.03 151.91,-30.28 154.37,-36.83"/>
</a>
</g>
</g>
</g>
</svg>
