<?xml version="1.0" encoding="UTF-8" standalone="no"?>
<!DOCTYPE svg PUBLIC "-//W3C//DTD SVG 1.1//EN"
 "http://www.w3.org/Graphics/SVG/1.1/DTD/svg11.dtd">
<!-- Generated by graphviz version 2.43.0 (0)
 -->
<!-- Title: qugar::impl::funcs::Torus::Torus Pages: 1 -->
<svg width="290pt" height="134pt"
 viewBox="0.00 0.00 290.00 134.00" xmlns="http://www.w3.org/2000/svg" xmlns:xlink="http://www.w3.org/1999/xlink">
<g id="graph0" class="graph" transform="scale(1 1) rotate(0) translate(4 130)">
<title>qugar::impl::funcs::Torus::Torus</title>
<!-- Node1 -->
<g id="Node000001" class="node">
<title>Node1</title>
<g id="a_Node000001"><a xlink:title="Constructor.">
<polygon fill="#999999" stroke="#666666" points="104,-78 0,-78 0,-48 104,-48 104,-78"/>
<text text-anchor="start" x="8" y="-66" font-family="Helvetica,sans-Serif" font-size="10.00">qugar::impl::funcs</text>
<text text-anchor="middle" x="52" y="-55" font-family="Helvetica,sans-Serif" font-size="10.00">::Torus::Torus</text>
</a>
</g>
</g>
<!-- Node2 -->
<g id="Node000002" class="node">
<title>Node2</title>
<g id="a_Node000002"><a xlink:href="../../db/dc8/classqugar_1_1impl_1_1funcs_1_1TorusBase.html#a097ef719a844f0213bfcdd876046b7f7" target="_top" xlink:title="Gets the center of the plane.">
<polygon fill="white" stroke="#666666" points="265.5,-126 156.5,-126 156.5,-96 265.5,-96 265.5,-126"/>
<text text-anchor="start" x="164.5" y="-114" font-family="Helvetica,sans-Serif" font-size="10.00">qugar::impl::funcs</text>
<text text-anchor="middle" x="211" y="-103" font-family="Helvetica,sans-Serif" font-size="10.00">::TorusBase::center</text>
</a>
</g>
</g>
<!-- Node1&#45;&gt;Node2 -->
<g id="edge1_Node000001_Node000002" class="edge">
<title>Node1&#45;&gt;Node2</title>
<g id="a_edge1_Node000001_Node000002"><a xlink:title=" ">
<path fill="none" stroke="#63b8ff" d="M102.25,-78.06C117.74,-82.79 135,-88.07 151.09,-92.99"/>
<polygon fill="#63b8ff" stroke="#63b8ff" points="150.34,-96.42 160.93,-96 152.39,-89.73 150.34,-96.42"/>
</a>
</g>
</g>
<!-- Node3 -->
<g id="Node000003" class="node">
<title>Node3</title>
<g id="a_Node000003"><a xlink:href="../../db/dc8/classqugar_1_1impl_1_1funcs_1_1TorusBase.html#a07d898d07b21b70d9d3615f49cb45dd9" target="_top" xlink:title="Gets the major radius of the torus.">
<polygon fill="white" stroke="#666666" points="282,-78 140,-78 140,-48 282,-48 282,-78"/>
<text text-anchor="start" x="148" y="-66" font-family="Helvetica,sans-Serif" font-size="10.00">qugar::impl::funcs</text>
<text text-anchor="middle" x="211" y="-55" font-family="Helvetica,sans-Serif" font-size="10.00">::TorusBase::major_radius</text>
</a>
</g>
</g>
<!-- Node1&#45;&gt;Node3 -->
<g id="edge2_Node000001_Node000003" class="edge">
<title>Node1&#45;&gt;Node3</title>
<g id="a_edge2_Node000001_Node000003"><a xlink:title=" ">
<path fill="none" stroke="#63b8ff" d="M104.41,-63C112.57,-63 121.18,-63 129.82,-63"/>
<polygon fill="#63b8ff" stroke="#63b8ff" points="129.94,-66.5 139.94,-63 129.94,-59.5 129.94,-66.5"/>
</a>
</g>
</g>
<!-- Node4 -->
<g id="Node000004" class="node">
<title>Node4</title>
<g id="a_Node000004"><a xlink:href="../../db/dc8/classqugar_1_1impl_1_1funcs_1_1TorusBase.html#ac3bc8990d1ef8e5336df983c33cbee12" target="_top" xlink:title="Gets the minor radius of the torus.">
<polygon fill="white" stroke="#666666" points="282,-30 140,-30 140,0 282,0 282,-30"/>
<text text-anchor="start" x="148" y="-18" font-family="Helvetica,sans-Serif" font-size="10.00">qugar::impl::funcs</text>
<text text-anchor="middle" x="211" y="-7" font-family="Helvetica,sans-Serif" font-size="10.00">::TorusBase::minor_radius</text>
</a>
</g>
</g>
<!-- Node1&#45;&gt;Node4 -->
<g id="edge3_Node000001_Node000004" class="edge">
<title>Node1&#45;&gt;Node4</title>
<g id="a_edge3_Node000001_Node000004"><a xlink:title=" ">
<path fill="none" stroke="#63b8ff" d="M102.25,-47.94C117.74,-43.21 135,-37.93 151.09,-33.01"/>
<polygon fill="#63b8ff" stroke="#63b8ff" points="152.39,-36.27 160.93,-30 150.34,-29.58 152.39,-36.27"/>
</a>
</g>
</g>
</g>
</svg>
