<?xml version="1.0" encoding="UTF-8" standalone="no"?>
<!DOCTYPE svg PUBLIC "-//W3C//DTD SVG 1.1//EN"
 "http://www.w3.org/Graphics/SVG/1.1/DTD/svg11.dtd">
<!-- Generated by graphviz version 2.43.0 (0)
 -->
<!-- Title: qugar::impl::funcs::SphereBzr&lt; dim &gt; Pages: 1 -->
<svg width="282pt" height="236pt"
 viewBox="0.00 0.00 281.50 236.00" xmlns="http://www.w3.org/2000/svg" xmlns:xlink="http://www.w3.org/1999/xlink">
<g id="graph0" class="graph" transform="scale(1 1) rotate(0) translate(4 232)">
<title>qugar::impl::funcs::SphereBzr&lt; dim &gt;</title>
<!-- Node1 -->
<g id="Node000001" class="node">
<title>Node1</title>
<g id="a_Node000001"><a xlink:title="Dimension independent spherical function. The function is defined by its center and radius....">
<polygon fill="#999999" stroke="#666666" points="187.5,-30 74.5,-30 74.5,0 187.5,0 187.5,-30"/>
<text text-anchor="start" x="82.5" y="-18" font-family="Helvetica,sans-Serif" font-size="10.00">qugar::impl::funcs</text>
<text text-anchor="middle" x="131" y="-7" font-family="Helvetica,sans-Serif" font-size="10.00">::SphereBzr&lt; dim &gt;</text>
</a>
</g>
</g>
<!-- Node2 -->
<g id="Node000002" class="node">
<title>Node2</title>
<g id="a_Node000002"><a xlink:href="../../d7/d90/classqugar_1_1impl_1_1funcs_1_1SphereBase.html" target="_top" xlink:title="Dimension independent spherical function.">
<polygon fill="white" stroke="#666666" points="122,-96 0,-96 0,-66 122,-66 122,-96"/>
<text text-anchor="start" x="8" y="-84" font-family="Helvetica,sans-Serif" font-size="10.00">qugar::impl::funcs</text>
<text text-anchor="middle" x="61" y="-73" font-family="Helvetica,sans-Serif" font-size="10.00">::SphereBase&lt; dim &gt;</text>
</a>
</g>
</g>
<!-- Node2&#45;&gt;Node1 -->
<g id="edge1_Node000001_Node000002" class="edge">
<title>Node2&#45;&gt;Node1</title>
<g id="a_edge1_Node000001_Node000002"><a xlink:title=" ">
<path fill="none" stroke="#63b8ff" d="M84.05,-58.92C94.37,-49.49 106.27,-38.61 115.51,-30.16"/>
<polygon fill="#63b8ff" stroke="#63b8ff" points="81.55,-56.47 76.54,-65.8 86.28,-61.63 81.55,-56.47"/>
</a>
</g>
</g>
<!-- Node3 -->
<g id="Node000003" class="node">
<title>Node3</title>
<g id="a_Node000003"><a xlink:href="../../de/dca/classqugar_1_1impl_1_1BezierTP.html" target="_top" xlink:title=" ">
<polygon fill="white" stroke="#666666" points="261.5,-96 140.5,-96 140.5,-66 261.5,-66 261.5,-96"/>
<text text-anchor="start" x="148.5" y="-84" font-family="Helvetica,sans-Serif" font-size="10.00">qugar::impl::BezierTP</text>
<text text-anchor="middle" x="201" y="-73" font-family="Helvetica,sans-Serif" font-size="10.00">&lt; dim, 1 &gt;</text>
</a>
</g>
</g>
<!-- Node3&#45;&gt;Node1 -->
<g id="edge2_Node000001_Node000003" class="edge">
<title>Node3&#45;&gt;Node1</title>
<g id="a_edge2_Node000001_Node000003"><a xlink:title=" ">
<path fill="none" stroke="#63b8ff" d="M177.95,-58.92C167.63,-49.49 155.73,-38.61 146.49,-30.16"/>
<polygon fill="#63b8ff" stroke="#63b8ff" points="175.72,-61.63 185.46,-65.8 180.45,-56.47 175.72,-61.63"/>
</a>
</g>
</g>
<!-- Node4 -->
<g id="Node000004" class="node">
<title>Node4</title>
<g id="a_Node000004"><a xlink:href="../../d2/d05/classqugar_1_1impl_1_1PolynomialTP.html" target="_top" xlink:title="Base class for tensor&#45;product polynomial functions.">
<polygon fill="white" stroke="#666666" points="273.5,-162 128.5,-162 128.5,-132 273.5,-132 273.5,-162"/>
<text text-anchor="start" x="136.5" y="-150" font-family="Helvetica,sans-Serif" font-size="10.00">qugar::impl::PolynomialTP</text>
<text text-anchor="middle" x="201" y="-139" font-family="Helvetica,sans-Serif" font-size="10.00">&lt; dim, range &gt;</text>
</a>
</g>
</g>
<!-- Node4&#45;&gt;Node3 -->
<g id="edge3_Node000003_Node000004" class="edge">
<title>Node4&#45;&gt;Node3</title>
<g id="a_edge3_Node000003_Node000004"><a xlink:title=" ">
<path fill="none" stroke="#63b8ff" d="M201,-121.54C201,-112.96 201,-103.61 201,-96.16"/>
<polygon fill="#63b8ff" stroke="#63b8ff" points="197.5,-121.8 201,-131.8 204.5,-121.8 197.5,-121.8"/>
</a>
</g>
</g>
<!-- Node5 -->
<g id="Node000005" class="node">
<title>Node5</title>
<g id="a_Node000005"><a xlink:href="../../dd/d80/classqugar_1_1impl_1_1DomainFunc.html" target="_top" xlink:title="Domain functions.">
<polygon fill="white" stroke="#666666" points="270.5,-228 131.5,-228 131.5,-198 270.5,-198 270.5,-228"/>
<text text-anchor="start" x="139.5" y="-216" font-family="Helvetica,sans-Serif" font-size="10.00">qugar::impl::DomainFunc</text>
<text text-anchor="middle" x="201" y="-205" font-family="Helvetica,sans-Serif" font-size="10.00">&lt; dim, range &gt;</text>
</a>
</g>
</g>
<!-- Node5&#45;&gt;Node4 -->
<g id="edge4_Node000004_Node000005" class="edge">
<title>Node5&#45;&gt;Node4</title>
<g id="a_edge4_Node000004_Node000005"><a xlink:title=" ">
<path fill="none" stroke="#63b8ff" d="M201,-187.54C201,-178.96 201,-169.61 201,-162.16"/>
<polygon fill="#63b8ff" stroke="#63b8ff" points="197.5,-187.8 201,-197.8 204.5,-187.8 197.5,-187.8"/>
</a>
</g>
</g>
</g>
</svg>
