<?xml version="1.0" encoding="UTF-8" standalone="no"?>
<!DOCTYPE svg PUBLIC "-//W3C//DTD SVG 1.1//EN"
 "http://www.w3.org/Graphics/SVG/1.1/DTD/svg11.dtd">
<!-- Generated by graphviz version 2.43.0 (0)
 -->
<!-- Title: Graphical Class Hierarchy Pages: 1 -->
<svg width="834pt" height="926pt"
 viewBox="0.00 0.00 834.00 926.00" xmlns="http://www.w3.org/2000/svg" xmlns:xlink="http://www.w3.org/1999/xlink">
<g id="graph0" class="graph" transform="scale(1 1) rotate(0) translate(4 922)">
<title>Graphical Class Hierarchy</title>
<!-- Node0 -->
<g id="Node000000" class="node">
<title>Node0</title>
<g id="a_Node000000"><a xlink:href="db/ded/classqugar_1_1impl_1_1funcs_1_1AnnulusBase.html" target="_top" xlink:title="2D annulus base class. The function is defined by the annulus center and major and inner radii....">
<polygon fill="white" stroke="#666666" points="480,-846 376,-846 376,-816 480,-816 480,-846"/>
<text text-anchor="start" x="384" y="-834" font-family="Helvetica,sans-Serif" font-size="10.00">qugar::impl::funcs</text>
<text text-anchor="middle" x="428" y="-823" font-family="Helvetica,sans-Serif" font-size="10.00">::AnnulusBase</text>
</a>
</g>
</g>
<!-- Node1 -->
<g id="Node000001" class="node">
<title>Node1</title>
<g id="a_Node000001"><a xlink:href="da/dd6/classqugar_1_1impl_1_1funcs_1_1Annulus.html" target="_top" xlink:title="2D annulus function. The function is defined by the annulus center and outer and inner radii....">
<polygon fill="white" stroke="#666666" points="652.5,-822 548.5,-822 548.5,-792 652.5,-792 652.5,-822"/>
<text text-anchor="start" x="556.5" y="-810" font-family="Helvetica,sans-Serif" font-size="10.00">qugar::impl::funcs</text>
<text text-anchor="middle" x="600.5" y="-799" font-family="Helvetica,sans-Serif" font-size="10.00">::Annulus</text>
</a>
</g>
</g>
<!-- Node0&#45;&gt;Node1 -->
<g id="edge1_Node000000_Node000001" class="edge">
<title>Node0&#45;&gt;Node1</title>
<g id="a_edge1_Node000000_Node000001"><a xlink:title=" ">
<path fill="none" stroke="#63b8ff" d="M490.24,-822.38C509.29,-819.7 530.09,-816.77 548.38,-814.2"/>
<polygon fill="#63b8ff" stroke="#63b8ff" points="489.57,-818.94 480.16,-823.8 490.55,-825.87 489.57,-818.94"/>
</a>
</g>
</g>
<!-- Node19 -->
<g id="Node000019" class="node">
<title>Node19</title>
<g id="a_Node000019"><a xlink:href="dc/d68/classqugar_1_1impl_1_1funcs_1_1AnnulusBzr.html" target="_top" xlink:title="2D annulus function. The function is defined by the annulus center and outer and inner radii....">
<polygon fill="white" stroke="#666666" points="652.5,-918 548.5,-918 548.5,-888 652.5,-888 652.5,-918"/>
<text text-anchor="start" x="556.5" y="-906" font-family="Helvetica,sans-Serif" font-size="10.00">qugar::impl::funcs</text>
<text text-anchor="middle" x="600.5" y="-895" font-family="Helvetica,sans-Serif" font-size="10.00">::AnnulusBzr</text>
</a>
</g>
</g>
<!-- Node0&#45;&gt;Node19 -->
<g id="edge2_Node000000_Node000019" class="edge">
<title>Node0&#45;&gt;Node19</title>
<g id="a_edge2_Node000000_Node000019"><a xlink:title=" ">
<path fill="none" stroke="#63b8ff" d="M470.41,-850.28C490.15,-859.28 514.17,-869.99 536,-879 543.3,-882.01 551.13,-885.09 558.71,-888"/>
<polygon fill="#63b8ff" stroke="#63b8ff" points="471.64,-846.99 461.09,-846 468.72,-853.35 471.64,-846.99"/>
</a>
</g>
</g>
<!-- Node5 -->
<g id="Node000005" class="node">
<title>Node5</title>
<g id="a_Node000005"><a xlink:href="d1/d78/classqugar_1_1impl_1_1funcs_1_1ConstantBase.html" target="_top" xlink:title="Dimension independent constant function.">
<polygon fill="white" stroke="#666666" points="480,-366 376,-366 376,-336 480,-336 480,-366"/>
<text text-anchor="start" x="384" y="-354" font-family="Helvetica,sans-Serif" font-size="10.00">qugar::impl::funcs</text>
<text text-anchor="middle" x="428" y="-343" font-family="Helvetica,sans-Serif" font-size="10.00">::ConstantBase</text>
</a>
</g>
</g>
<!-- Node4 -->
<g id="Node000004" class="node">
<title>Node4</title>
<g id="a_Node000004"><a xlink:href="d7/d02/classqugar_1_1impl_1_1funcs_1_1Constant.html" target="_top" xlink:title="Dimension independent constant function.">
<polygon fill="white" stroke="#666666" points="654,-366 547,-366 547,-336 654,-336 654,-366"/>
<text text-anchor="start" x="555" y="-354" font-family="Helvetica,sans-Serif" font-size="10.00">qugar::impl::funcs</text>
<text text-anchor="middle" x="600.5" y="-343" font-family="Helvetica,sans-Serif" font-size="10.00">::Constant&lt; dim &gt;</text>
</a>
</g>
</g>
<!-- Node5&#45;&gt;Node4 -->
<g id="edge3_Node000005_Node000004" class="edge">
<title>Node5&#45;&gt;Node4</title>
<g id="a_edge3_Node000005_Node000004"><a xlink:title=" ">
<path fill="none" stroke="#63b8ff" d="M490.26,-351C508.8,-351 528.99,-351 546.9,-351"/>
<polygon fill="#63b8ff" stroke="#63b8ff" points="490.16,-347.5 480.16,-351 490.16,-354.5 490.16,-347.5"/>
</a>
</g>
</g>
<!-- Node6 -->
<g id="Node000006" class="node">
<title>Node6</title>
<g id="a_Node000006"><a xlink:href="dd/da4/classqugar_1_1impl_1_1funcs_1_1ConstantBzr.html" target="_top" xlink:title="Dimension independent constant function.">
<polygon fill="white" stroke="#666666" points="662,-174 539,-174 539,-144 662,-144 662,-174"/>
<text text-anchor="start" x="547" y="-162" font-family="Helvetica,sans-Serif" font-size="10.00">qugar::impl::funcs</text>
<text text-anchor="middle" x="600.5" y="-151" font-family="Helvetica,sans-Serif" font-size="10.00">::ConstantBzr&lt; dim &gt;</text>
</a>
</g>
</g>
<!-- Node5&#45;&gt;Node6 -->
<g id="edge4_Node000005_Node000006" class="edge">
<title>Node5&#45;&gt;Node6</title>
<g id="a_edge4_Node000005_Node000006"><a xlink:title=" ">
<path fill="none" stroke="#63b8ff" d="M489.2,-335.89C493.17,-333.37 496.84,-330.43 500,-327 544.72,-278.5 492.14,-232.28 536,-183 539.06,-179.57 542.65,-176.62 546.56,-174.1"/>
<polygon fill="#63b8ff" stroke="#63b8ff" points="487.27,-332.95 480.1,-340.76 490.57,-339.12 487.27,-332.95"/>
</a>
</g>
</g>
<!-- Node22 -->
<g id="Node000022" class="node">
<title>Node22</title>
<g id="a_Node000022"><a xlink:href="d5/d65/classqugar_1_1impl_1_1funcs_1_1CylinderBase.html" target="_top" xlink:title="Infinite cylinder base class.">
<polygon fill="white" stroke="#666666" points="480,-726 376,-726 376,-696 480,-696 480,-726"/>
<text text-anchor="start" x="384" y="-714" font-family="Helvetica,sans-Serif" font-size="10.00">qugar::impl::funcs</text>
<text text-anchor="middle" x="428" y="-703" font-family="Helvetica,sans-Serif" font-size="10.00">::CylinderBase</text>
</a>
</g>
</g>
<!-- Node23 -->
<g id="Node000023" class="node">
<title>Node23</title>
<g id="a_Node000023"><a xlink:href="d6/dcd/classqugar_1_1impl_1_1funcs_1_1Cylinder.html" target="_top" xlink:title="Infinite cylinder.">
<polygon fill="white" stroke="#666666" points="652.5,-726 548.5,-726 548.5,-696 652.5,-696 652.5,-726"/>
<text text-anchor="start" x="556.5" y="-714" font-family="Helvetica,sans-Serif" font-size="10.00">qugar::impl::funcs</text>
<text text-anchor="middle" x="600.5" y="-703" font-family="Helvetica,sans-Serif" font-size="10.00">::Cylinder</text>
</a>
</g>
</g>
<!-- Node22&#45;&gt;Node23 -->
<g id="edge5_Node000022_Node000023" class="edge">
<title>Node22&#45;&gt;Node23</title>
<g id="a_edge5_Node000022_Node000023"><a xlink:title=" ">
<path fill="none" stroke="#63b8ff" d="M490.24,-711C509.29,-711 530.09,-711 548.38,-711"/>
<polygon fill="#63b8ff" stroke="#63b8ff" points="490.16,-707.5 480.16,-711 490.16,-714.5 490.16,-707.5"/>
</a>
</g>
</g>
<!-- Node21 -->
<g id="Node000021" class="node">
<title>Node21</title>
<g id="a_Node000021"><a xlink:href="dc/de2/classqugar_1_1impl_1_1funcs_1_1CylinderBzr.html" target="_top" xlink:title="Infinite cylinder.">
<polygon fill="white" stroke="#666666" points="652.5,-870 548.5,-870 548.5,-840 652.5,-840 652.5,-870"/>
<text text-anchor="start" x="556.5" y="-858" font-family="Helvetica,sans-Serif" font-size="10.00">qugar::impl::funcs</text>
<text text-anchor="middle" x="600.5" y="-847" font-family="Helvetica,sans-Serif" font-size="10.00">::CylinderBzr</text>
</a>
</g>
</g>
<!-- Node22&#45;&gt;Node21 -->
<g id="edge6_Node000022_Node000021" class="edge">
<title>Node22&#45;&gt;Node21</title>
<g id="a_edge6_Node000022_Node000021"><a xlink:title=" ">
<path fill="none" stroke="#63b8ff" d="M489.17,-726.76C493.09,-729.13 496.76,-731.86 500,-735 532.75,-766.69 503.82,-798.74 536,-831 539.58,-834.59 543.75,-837.65 548.21,-840.26"/>
<polygon fill="#63b8ff" stroke="#63b8ff" points="490.75,-723.64 480.26,-722.12 487.51,-729.84 490.75,-723.64"/>
</a>
</g>
</g>
<!-- Node27 -->
<g id="Node000027" class="node">
<title>Node27</title>
<g id="a_Node000027"><a xlink:href="dd/d80/classqugar_1_1impl_1_1DomainFunc.html" target="_top" xlink:title="Domain functions.">
<polygon fill="white" stroke="#666666" points="139,-114 0,-114 0,-84 139,-84 139,-114"/>
<text text-anchor="start" x="8" y="-102" font-family="Helvetica,sans-Serif" font-size="10.00">qugar::impl::DomainFunc</text>
<text text-anchor="middle" x="69.5" y="-91" font-family="Helvetica,sans-Serif" font-size="10.00">&lt; dim, range &gt;</text>
</a>
</g>
</g>
<!-- Node28 -->
<g id="Node000028" class="node">
<title>Node28</title>
<g id="a_Node000028"><a xlink:href="d2/d05/classqugar_1_1impl_1_1PolynomialTP.html" target="_top" xlink:title=" ">
<polygon fill="white" stroke="#666666" points="320,-90 175,-90 175,-60 320,-60 320,-90"/>
<text text-anchor="start" x="183" y="-78" font-family="Helvetica,sans-Serif" font-size="10.00">qugar::impl::PolynomialTP</text>
<text text-anchor="middle" x="247.5" y="-67" font-family="Helvetica,sans-Serif" font-size="10.00">&lt; dim, 1 &gt;</text>
</a>
</g>
</g>
<!-- Node27&#45;&gt;Node28 -->
<g id="edge7_Node000027_Node000028" class="edge">
<title>Node27&#45;&gt;Node28</title>
<g id="a_edge7_Node000027_Node000028"><a xlink:title=" ">
<path fill="none" stroke="#63b8ff" d="M149.08,-88.28C157.69,-87.11 166.42,-85.92 174.94,-84.76"/>
<polygon fill="#63b8ff" stroke="#63b8ff" points="148.49,-84.83 139.05,-89.65 149.43,-91.77 148.49,-84.83"/>
</a>
</g>
</g>
<!-- Node17 -->
<g id="Node000017" class="node">
<title>Node17</title>
<g id="a_Node000017"><a xlink:href="d2/d05/classqugar_1_1impl_1_1PolynomialTP.html" target="_top" xlink:title="Base class for tensor&#45;product polynomial functions.">
<polygon fill="white" stroke="#666666" points="320,-462 175,-462 175,-432 320,-432 320,-462"/>
<text text-anchor="start" x="183" y="-450" font-family="Helvetica,sans-Serif" font-size="10.00">qugar::impl::PolynomialTP</text>
<text text-anchor="middle" x="247.5" y="-439" font-family="Helvetica,sans-Serif" font-size="10.00">&lt; dim, range &gt;</text>
</a>
</g>
</g>
<!-- Node27&#45;&gt;Node17 -->
<g id="edge10_Node000027_Node000017" class="edge">
<title>Node27&#45;&gt;Node17</title>
<g id="a_edge10_Node000027_Node000017"><a xlink:title=" ">
<path fill="none" stroke="#63b8ff" d="M82.85,-123.43C116.87,-190.68 211.17,-377.15 238.8,-431.78"/>
<polygon fill="#63b8ff" stroke="#63b8ff" points="85.93,-121.75 78.29,-114.4 79.68,-124.91 85.93,-121.75"/>
</a>
</g>
</g>
<!-- Node29 -->
<g id="Node000029" class="node">
<title>Node29</title>
<g id="a_Node000029"><a xlink:href="de/dca/classqugar_1_1impl_1_1BezierTP.html" target="_top" xlink:title="dim&#45;dimensional tensor&#45;product Bezier polynomial function.">
<polygon fill="white" stroke="#666666" points="488.5,-90 367.5,-90 367.5,-60 488.5,-60 488.5,-90"/>
<text text-anchor="start" x="375.5" y="-78" font-family="Helvetica,sans-Serif" font-size="10.00">qugar::impl::BezierTP</text>
<text text-anchor="middle" x="428" y="-67" font-family="Helvetica,sans-Serif" font-size="10.00">&lt; dim, range &gt;</text>
</a>
</g>
</g>
<!-- Node28&#45;&gt;Node29 -->
<g id="edge8_Node000028_Node000029" class="edge">
<title>Node28&#45;&gt;Node29</title>
<g id="a_edge8_Node000028_Node000029"><a xlink:title=" ">
<path fill="none" stroke="#63b8ff" d="M330.1,-75C342.68,-75 355.46,-75 367.44,-75"/>
<polygon fill="#63b8ff" stroke="#63b8ff" points="330.07,-71.5 320.07,-75 330.07,-78.5 330.07,-71.5"/>
</a>
</g>
</g>
<!-- Node30 -->
<g id="Node000030" class="node">
<title>Node30</title>
<g id="a_Node000030"><a xlink:href="d2/d87/classqugar_1_1impl_1_1MonomialsTP.html" target="_top" xlink:title="dim&#45;dimensional tensor&#45;product monomials function.">
<polygon fill="white" stroke="#666666" points="500,-42 356,-42 356,-12 500,-12 500,-42"/>
<text text-anchor="start" x="364" y="-30" font-family="Helvetica,sans-Serif" font-size="10.00">qugar::impl::MonomialsTP</text>
<text text-anchor="middle" x="428" y="-19" font-family="Helvetica,sans-Serif" font-size="10.00">&lt; dim, range &gt;</text>
</a>
</g>
</g>
<!-- Node28&#45;&gt;Node30 -->
<g id="edge9_Node000028_Node000030" class="edge">
<title>Node28&#45;&gt;Node30</title>
<g id="a_edge9_Node000028_Node000030"><a xlink:title=" ">
<path fill="none" stroke="#63b8ff" d="M314.39,-57.28C333.06,-52.26 353.2,-46.85 371.21,-42"/>
<polygon fill="#63b8ff" stroke="#63b8ff" points="313.24,-53.97 304.49,-59.94 315.05,-60.73 313.24,-53.97"/>
</a>
</g>
</g>
<!-- Node18 -->
<g id="Node000018" class="node">
<title>Node18</title>
<g id="a_Node000018"><a xlink:href="de/dca/classqugar_1_1impl_1_1BezierTP.html" target="_top" xlink:title=" ">
<polygon fill="white" stroke="#666666" points="488.5,-906 367.5,-906 367.5,-876 488.5,-876 488.5,-906"/>
<text text-anchor="start" x="375.5" y="-894" font-family="Helvetica,sans-Serif" font-size="10.00">qugar::impl::BezierTP</text>
<text text-anchor="middle" x="428" y="-883" font-family="Helvetica,sans-Serif" font-size="10.00">&lt; 2, 1 &gt;</text>
</a>
</g>
</g>
<!-- Node17&#45;&gt;Node18 -->
<g id="edge11_Node000017_Node000018" class="edge">
<title>Node17&#45;&gt;Node18</title>
<g id="a_edge11_Node000017_Node000018"><a xlink:title=" ">
<path fill="none" stroke="#63b8ff" d="M248.33,-472.7C249.18,-542.24 260.5,-736.8 356,-855 363.12,-863.82 372.97,-870.68 383.06,-875.93"/>
<polygon fill="#63b8ff" stroke="#63b8ff" points="251.83,-472.27 248.27,-462.29 244.83,-472.3 251.83,-472.27"/>
</a>
</g>
</g>
<!-- Node7 -->
<g id="Node000007" class="node">
<title>Node7</title>
<g id="a_Node000007"><a xlink:href="de/dca/classqugar_1_1impl_1_1BezierTP.html" target="_top" xlink:title=" ">
<polygon fill="white" stroke="#666666" points="488.5,-138 367.5,-138 367.5,-108 488.5,-108 488.5,-138"/>
<text text-anchor="start" x="375.5" y="-126" font-family="Helvetica,sans-Serif" font-size="10.00">qugar::impl::BezierTP</text>
<text text-anchor="middle" x="428" y="-115" font-family="Helvetica,sans-Serif" font-size="10.00">&lt; dim, 1 &gt;</text>
</a>
</g>
</g>
<!-- Node17&#45;&gt;Node7 -->
<g id="edge13_Node000017_Node000007" class="edge">
<title>Node17&#45;&gt;Node7</title>
<g id="a_edge13_Node000017_Node000007"><a xlink:title=" ">
<path fill="none" stroke="#63b8ff" d="M251.67,-421.76C259.7,-367.42 285.46,-237.92 356,-159 363.83,-150.24 374.29,-143.33 384.76,-138.01"/>
<polygon fill="#63b8ff" stroke="#63b8ff" points="248.17,-421.49 250.25,-431.88 255.1,-422.46 248.17,-421.49"/>
</a>
</g>
</g>
<!-- Node20 -->
<g id="Node000020" class="node">
<title>Node20</title>
<g id="a_Node000020"><a xlink:href="de/dca/classqugar_1_1impl_1_1BezierTP.html" target="_top" xlink:title=" ">
<polygon fill="white" stroke="#666666" points="488.5,-774 367.5,-774 367.5,-744 488.5,-744 488.5,-774"/>
<text text-anchor="start" x="375.5" y="-762" font-family="Helvetica,sans-Serif" font-size="10.00">qugar::impl::BezierTP</text>
<text text-anchor="middle" x="428" y="-751" font-family="Helvetica,sans-Serif" font-size="10.00">&lt; 3, 1 &gt;</text>
</a>
</g>
</g>
<!-- Node17&#45;&gt;Node20 -->
<g id="edge18_Node000017_Node000020" class="edge">
<title>Node17&#45;&gt;Node20</title>
<g id="a_edge18_Node000017_Node000020"><a xlink:title=" ">
<path fill="none" stroke="#63b8ff" d="M250.75,-472.3C257.03,-527.76 279.65,-661 356,-735 359.55,-738.44 363.61,-741.39 367.95,-743.92"/>
<polygon fill="#63b8ff" stroke="#63b8ff" points="254.23,-471.86 249.7,-462.28 247.26,-472.59 254.23,-471.86"/>
</a>
</g>
</g>
<!-- Node18&#45;&gt;Node19 -->
<g id="edge12_Node000018_Node000019" class="edge">
<title>Node18&#45;&gt;Node19</title>
<g id="a_edge12_Node000018_Node000019"><a xlink:title=" ">
<path fill="none" stroke="#63b8ff" d="M498.84,-895.92C515.43,-897.08 532.82,-898.31 548.4,-899.4"/>
<polygon fill="#63b8ff" stroke="#63b8ff" points="498.85,-892.41 488.63,-895.2 498.36,-899.39 498.85,-892.41"/>
</a>
</g>
</g>
<!-- Node7&#45;&gt;Node6 -->
<g id="edge14_Node000007_Node000006" class="edge">
<title>Node7&#45;&gt;Node6</title>
<g id="a_edge14_Node000007_Node000006"><a xlink:title=" ">
<path fill="none" stroke="#63b8ff" d="M498.67,-137.71C511.96,-140.52 525.77,-143.43 538.75,-146.17"/>
<polygon fill="#63b8ff" stroke="#63b8ff" points="499.14,-134.23 488.63,-135.59 497.69,-141.08 499.14,-134.23"/>
</a>
</g>
</g>
<!-- Node8 -->
<g id="Node000008" class="node">
<title>Node8</title>
<g id="a_Node000008"><a xlink:href="d6/d06/classqugar_1_1impl_1_1funcs_1_1EllipsoidBzr.html" target="_top" xlink:title="Dimension independent ellipsoidal function. The function is defined by the ellipsoid&#39;s semi&#45;axes and ...">
<polygon fill="white" stroke="#666666" points="661,-126 540,-126 540,-96 661,-96 661,-126"/>
<text text-anchor="start" x="548" y="-114" font-family="Helvetica,sans-Serif" font-size="10.00">qugar::impl::funcs</text>
<text text-anchor="middle" x="600.5" y="-103" font-family="Helvetica,sans-Serif" font-size="10.00">::EllipsoidBzr&lt; dim &gt;</text>
</a>
</g>
</g>
<!-- Node7&#45;&gt;Node8 -->
<g id="edge15_Node000007_Node000008" class="edge">
<title>Node7&#45;&gt;Node8</title>
<g id="a_edge15_Node000007_Node000008"><a xlink:title=" ">
<path fill="none" stroke="#63b8ff" d="M498.91,-118.08C512.52,-117.12 526.66,-116.13 539.9,-115.19"/>
<polygon fill="#63b8ff" stroke="#63b8ff" points="498.36,-114.61 488.63,-118.8 498.85,-121.59 498.36,-114.61"/>
</a>
</g>
</g>
<!-- Node11 -->
<g id="Node000011" class="node">
<title>Node11</title>
<g id="a_Node000011"><a xlink:href="dd/d35/classqugar_1_1impl_1_1funcs_1_1PlaneBzr.html" target="_top" xlink:title="Plane function.">
<polygon fill="white" stroke="#666666" points="654,-78 547,-78 547,-48 654,-48 654,-78"/>
<text text-anchor="start" x="555" y="-66" font-family="Helvetica,sans-Serif" font-size="10.00">qugar::impl::funcs</text>
<text text-anchor="middle" x="600.5" y="-55" font-family="Helvetica,sans-Serif" font-size="10.00">::PlaneBzr&lt; dim &gt;</text>
</a>
</g>
</g>
<!-- Node7&#45;&gt;Node11 -->
<g id="edge16_Node000007_Node000011" class="edge">
<title>Node7&#45;&gt;Node11</title>
<g id="a_edge16_Node000007_Node000011"><a xlink:title=" ">
<path fill="none" stroke="#63b8ff" d="M483.89,-104.58C489.34,-102.71 494.78,-100.83 500,-99 519.25,-92.27 540.51,-84.6 558.42,-78.08"/>
<polygon fill="#63b8ff" stroke="#63b8ff" points="482.45,-101.37 474.12,-107.91 484.72,-107.99 482.45,-101.37"/>
</a>
</g>
</g>
<!-- Node14 -->
<g id="Node000014" class="node">
<title>Node14</title>
<g id="a_Node000014"><a xlink:href="d1/dfc/classqugar_1_1impl_1_1funcs_1_1SphereBzr.html" target="_top" xlink:title="Dimension independent spherical function. The function is defined by its center and radius....">
<polygon fill="white" stroke="#666666" points="657,-30 544,-30 544,0 657,0 657,-30"/>
<text text-anchor="start" x="552" y="-18" font-family="Helvetica,sans-Serif" font-size="10.00">qugar::impl::funcs</text>
<text text-anchor="middle" x="600.5" y="-7" font-family="Helvetica,sans-Serif" font-size="10.00">::SphereBzr&lt; dim &gt;</text>
</a>
</g>
</g>
<!-- Node7&#45;&gt;Node14 -->
<g id="edge17_Node000007_Node000014" class="edge">
<title>Node7&#45;&gt;Node14</title>
<g id="a_edge17_Node000007_Node000014"><a xlink:title=" ">
<path fill="none" stroke="#63b8ff" d="M495.01,-102.66C496.74,-101.5 498.4,-100.29 500,-99 524.22,-79.49 512.13,-58.94 536,-39 540.07,-35.6 544.67,-32.65 549.49,-30.11"/>
<polygon fill="#63b8ff" stroke="#63b8ff" points="492.86,-99.86 485.97,-107.91 496.38,-105.91 492.86,-99.86"/>
</a>
</g>
</g>
<!-- Node20&#45;&gt;Node21 -->
<g id="edge19_Node000020_Node000021" class="edge">
<title>Node20&#45;&gt;Node21</title>
<g id="a_edge19_Node000020_Node000021"><a xlink:title=" ">
<path fill="none" stroke="#63b8ff" d="M459.69,-779.78C490.58,-800.67 533.96,-829.95 536,-831 542.18,-834.19 548.88,-837.19 555.54,-839.91"/>
<polygon fill="#63b8ff" stroke="#63b8ff" points="461.6,-776.84 451.36,-774.14 457.68,-782.64 461.6,-776.84"/>
</a>
</g>
</g>
<!-- Node24 -->
<g id="Node000024" class="node">
<title>Node24</title>
<g id="a_Node000024"><a xlink:href="d0/dc9/classqugar_1_1impl_1_1funcs_1_1TorusBzr.html" target="_top" xlink:title="3D torus function. The function is defined by the torus center, axis, and major and inner radii....">
<polygon fill="white" stroke="#666666" points="652.5,-774 548.5,-774 548.5,-744 652.5,-744 652.5,-774"/>
<text text-anchor="start" x="556.5" y="-762" font-family="Helvetica,sans-Serif" font-size="10.00">qugar::impl::funcs</text>
<text text-anchor="middle" x="600.5" y="-751" font-family="Helvetica,sans-Serif" font-size="10.00">::TorusBzr</text>
</a>
</g>
</g>
<!-- Node20&#45;&gt;Node24 -->
<g id="edge20_Node000020_Node000024" class="edge">
<title>Node20&#45;&gt;Node24</title>
<g id="a_edge20_Node000020_Node000024"><a xlink:title=" ">
<path fill="none" stroke="#63b8ff" d="M498.84,-759C515.43,-759 532.82,-759 548.4,-759"/>
<polygon fill="#63b8ff" stroke="#63b8ff" points="498.63,-755.5 488.63,-759 498.63,-762.5 498.63,-755.5"/>
</a>
</g>
</g>
<!-- Node2 -->
<g id="Node000002" class="node">
<title>Node2</title>
<g id="a_Node000002"><a xlink:href="dd/d80/classqugar_1_1impl_1_1DomainFunc.html" target="_top" xlink:title=" ">
<polygon fill="white" stroke="#666666" points="497.5,-495 358.5,-495 358.5,-465 497.5,-465 497.5,-495"/>
<text text-anchor="start" x="366.5" y="-483" font-family="Helvetica,sans-Serif" font-size="10.00">qugar::impl::DomainFunc</text>
<text text-anchor="middle" x="428" y="-472" font-family="Helvetica,sans-Serif" font-size="10.00">&lt; dim, 1 &gt;</text>
</a>
</g>
</g>
<!-- Node2&#45;&gt;Node1 -->
<g id="edge22_Node000002_Node000001" class="edge">
<title>Node2&#45;&gt;Node1</title>
<g id="a_edge22_Node000002_Node000001"><a xlink:title=" ">
<path fill="none" stroke="#63b8ff" d="M441.58,-504.54C456.98,-535.32 483.08,-590.01 500,-639 521.53,-701.36 492.14,-733.72 536,-783 539.53,-786.96 543.77,-790.27 548.38,-793.04"/>
<polygon fill="#63b8ff" stroke="#63b8ff" points="444.61,-502.78 436.99,-495.43 438.36,-505.93 444.61,-502.78"/>
</a>
</g>
</g>
<!-- Node2&#45;&gt;Node4 -->
<g id="edge23_Node000002_Node000004" class="edge">
<title>Node2&#45;&gt;Node4</title>
<g id="a_edge23_Node000002_Node000004"><a xlink:title=" ">
<path fill="none" stroke="#63b8ff" d="M447.35,-457.07C467.1,-433.68 500.49,-397.69 536,-375 541.16,-371.7 546.85,-368.75 552.63,-366.14"/>
<polygon fill="#63b8ff" stroke="#63b8ff" points="444.65,-454.85 440.95,-464.78 450.03,-459.32 444.65,-454.85"/>
</a>
</g>
</g>
<!-- Node2&#45;&gt;Node23 -->
<g id="edge24_Node000002_Node000023" class="edge">
<title>Node2&#45;&gt;Node23</title>
<g id="a_edge24_Node000002_Node000023"><a xlink:title=" ">
<path fill="none" stroke="#63b8ff" d="M439.13,-504.75C459.6,-553.75 506.45,-660.69 536,-687 539.87,-690.45 544.29,-693.42 548.95,-695.98"/>
<polygon fill="#63b8ff" stroke="#63b8ff" points="442.24,-503.11 435.18,-495.22 435.77,-505.8 442.24,-503.11"/>
</a>
</g>
</g>
<!-- Node3 -->
<g id="Node000003" class="node">
<title>Node3</title>
<g id="a_Node000003"><a xlink:href="d3/deb/classqugar_1_1impl_1_1funcs_1_1AddFunctions.html" target="_top" xlink:title="This function adds two functions together.">
<polygon fill="white" stroke="#666666" points="665,-522 536,-522 536,-492 665,-492 665,-522"/>
<text text-anchor="start" x="544" y="-510" font-family="Helvetica,sans-Serif" font-size="10.00">qugar::impl::funcs</text>
<text text-anchor="middle" x="600.5" y="-499" font-family="Helvetica,sans-Serif" font-size="10.00">::AddFunctions&lt; dim &gt;</text>
</a>
</g>
</g>
<!-- Node2&#45;&gt;Node3 -->
<g id="edge21_Node000002_Node000003" class="edge">
<title>Node2&#45;&gt;Node3</title>
<g id="a_edge21_Node000002_Node000003"><a xlink:title=" ">
<path fill="none" stroke="#63b8ff" d="M507.96,-492.5C517.32,-493.99 526.79,-495.49 535.9,-496.93"/>
<polygon fill="#63b8ff" stroke="#63b8ff" points="508.28,-489.01 497.86,-490.9 507.19,-495.93 508.28,-489.01"/>
</a>
</g>
</g>
<!-- Node10 -->
<g id="Node000010" class="node">
<title>Node10</title>
<g id="a_Node000010"><a xlink:href="d7/d1f/classqugar_1_1impl_1_1funcs_1_1Ellipsoid.html" target="_top" xlink:title="Dimension independent ellipsoidal function. The function is defined by the ellipsoid&#39;s semi&#45;axes and ...">
<polygon fill="white" stroke="#666666" points="653,-318 548,-318 548,-288 653,-288 653,-318"/>
<text text-anchor="start" x="556" y="-306" font-family="Helvetica,sans-Serif" font-size="10.00">qugar::impl::funcs</text>
<text text-anchor="middle" x="600.5" y="-295" font-family="Helvetica,sans-Serif" font-size="10.00">::Ellipsoid&lt; dim &gt;</text>
</a>
</g>
</g>
<!-- Node2&#45;&gt;Node10 -->
<g id="edge25_Node000002_Node000010" class="edge">
<title>Node2&#45;&gt;Node10</title>
<g id="a_edge25_Node000002_Node000010"><a xlink:title=" ">
<path fill="none" stroke="#63b8ff" d="M445.02,-456.33C473.34,-414.57 529.89,-331.75 536,-327 540.37,-323.6 545.28,-320.64 550.38,-318.07"/>
<polygon fill="#63b8ff" stroke="#63b8ff" points="441.98,-454.57 439.27,-464.81 447.77,-458.5 441.98,-454.57"/>
</a>
</g>
</g>
<!-- Node31 -->
<g id="Node000031" class="node">
<title>Node31</title>
<g id="a_Node000031"><a xlink:href="d0/de9/classqugar_1_1impl_1_1funcs_1_1FuncWithAffineTransf.html" target="_top" xlink:title="Function containing an affine transformation.">
<polygon fill="white" stroke="#666666" points="663,-473.5 538,-473.5 538,-432.5 663,-432.5 663,-473.5"/>
<text text-anchor="start" x="546" y="-461.5" font-family="Helvetica,sans-Serif" font-size="10.00">qugar::impl::funcs</text>
<text text-anchor="start" x="546" y="-450.5" font-family="Helvetica,sans-Serif" font-size="10.00">::FuncWithAffineTransf</text>
<text text-anchor="middle" x="600.5" y="-439.5" font-family="Helvetica,sans-Serif" font-size="10.00">&lt; dim &gt;</text>
</a>
</g>
</g>
<!-- Node2&#45;&gt;Node31 -->
<g id="edge26_Node000002_Node000031" class="edge">
<title>Node2&#45;&gt;Node31</title>
<g id="a_edge26_Node000002_Node000031"><a xlink:title=" ">
<path fill="none" stroke="#63b8ff" d="M507.85,-467.51C517.91,-465.92 528.08,-464.31 537.81,-462.77"/>
<polygon fill="#63b8ff" stroke="#63b8ff" points="507.19,-464.07 497.86,-469.1 508.28,-470.99 507.19,-464.07"/>
</a>
</g>
</g>
<!-- Node35 -->
<g id="Node000035" class="node">
<title>Node35</title>
<g id="a_Node000035"><a xlink:href="d2/d90/classqugar_1_1impl_1_1funcs_1_1Negative.html" target="_top" xlink:title="This function computes the negative of a given function.">
<polygon fill="white" stroke="#666666" points="654.5,-414 546.5,-414 546.5,-384 654.5,-384 654.5,-414"/>
<text text-anchor="start" x="554.5" y="-402" font-family="Helvetica,sans-Serif" font-size="10.00">qugar::impl::funcs</text>
<text text-anchor="middle" x="600.5" y="-391" font-family="Helvetica,sans-Serif" font-size="10.00">::Negative&lt; dim &gt;</text>
</a>
</g>
</g>
<!-- Node2&#45;&gt;Node35 -->
<g id="edge30_Node000002_Node000035" class="edge">
<title>Node2&#45;&gt;Node35</title>
<g id="a_edge30_Node000002_Node000035"><a xlink:title=" ">
<path fill="none" stroke="#63b8ff" d="M463.65,-460.09C484.32,-448.57 511.28,-434.2 536,-423 542.76,-419.94 550.04,-416.93 557.18,-414.13"/>
<polygon fill="#63b8ff" stroke="#63b8ff" points="461.92,-457.04 454.91,-464.99 465.35,-463.15 461.92,-457.04"/>
</a>
</g>
</g>
<!-- Node13 -->
<g id="Node000013" class="node">
<title>Node13</title>
<g id="a_Node000013"><a xlink:href="d2/d3b/classqugar_1_1impl_1_1funcs_1_1Plane.html" target="_top" xlink:title="Plane function.">
<polygon fill="white" stroke="#666666" points="652.5,-270 548.5,-270 548.5,-240 652.5,-240 652.5,-270"/>
<text text-anchor="start" x="556.5" y="-258" font-family="Helvetica,sans-Serif" font-size="10.00">qugar::impl::funcs</text>
<text text-anchor="middle" x="600.5" y="-247" font-family="Helvetica,sans-Serif" font-size="10.00">::Plane&lt; dim &gt;</text>
</a>
</g>
</g>
<!-- Node2&#45;&gt;Node13 -->
<g id="edge31_Node000002_Node000013" class="edge">
<title>Node2&#45;&gt;Node13</title>
<g id="a_edge31_Node000002_Node000013"><a xlink:title=" ">
<path fill="none" stroke="#63b8ff" d="M447.23,-456.55C462.68,-435.91 484.72,-404.6 500,-375 520.91,-334.51 503.82,-311.26 536,-279 539.58,-275.41 543.75,-272.35 548.21,-269.74"/>
<polygon fill="#63b8ff" stroke="#63b8ff" points="444.29,-454.63 441.04,-464.71 449.87,-458.86 444.29,-454.63"/>
</a>
</g>
</g>
<!-- Node16 -->
<g id="Node000016" class="node">
<title>Node16</title>
<g id="a_Node000016"><a xlink:href="d1/def/classqugar_1_1impl_1_1funcs_1_1Sphere.html" target="_top" xlink:title="Dimension independent spherical function. The function is defined by its center and radius....">
<polygon fill="white" stroke="#666666" points="652.5,-222 548.5,-222 548.5,-192 652.5,-192 652.5,-222"/>
<text text-anchor="start" x="556.5" y="-210" font-family="Helvetica,sans-Serif" font-size="10.00">qugar::impl::funcs</text>
<text text-anchor="middle" x="600.5" y="-199" font-family="Helvetica,sans-Serif" font-size="10.00">::Sphere&lt; dim &gt;</text>
</a>
</g>
</g>
<!-- Node2&#45;&gt;Node16 -->
<g id="edge32_Node000002_Node000016" class="edge">
<title>Node2&#45;&gt;Node16</title>
<g id="a_edge32_Node000002_Node000016"><a xlink:title=" ">
<path fill="none" stroke="#63b8ff" d="M448.36,-456.61C464.34,-436.22 486.5,-405.24 500,-375 526.89,-314.76 492.14,-280.28 536,-231 539.53,-227.04 543.77,-223.73 548.38,-220.96"/>
<polygon fill="#63b8ff" stroke="#63b8ff" points="445.43,-454.67 441.93,-464.67 450.9,-459.03 445.43,-454.67"/>
</a>
</g>
</g>
<!-- Node36 -->
<g id="Node000036" class="node">
<title>Node36</title>
<g id="a_Node000036"><a xlink:href="dc/dde/classqugar_1_1impl_1_1funcs_1_1SubtractFunctions.html" target="_top" xlink:title="This function subtracts two functions.">
<polygon fill="white" stroke="#666666" points="655.5,-629.5 545.5,-629.5 545.5,-588.5 655.5,-588.5 655.5,-629.5"/>
<text text-anchor="start" x="553.5" y="-617.5" font-family="Helvetica,sans-Serif" font-size="10.00">qugar::impl::funcs</text>
<text text-anchor="start" x="553.5" y="-606.5" font-family="Helvetica,sans-Serif" font-size="10.00">::SubtractFunctions</text>
<text text-anchor="middle" x="600.5" y="-595.5" font-family="Helvetica,sans-Serif" font-size="10.00">&lt; dim &gt;</text>
</a>
</g>
</g>
<!-- Node2&#45;&gt;Node36 -->
<g id="edge33_Node000002_Node000036" class="edge">
<title>Node2&#45;&gt;Node36</title>
<g id="a_edge33_Node000002_Node000036"><a xlink:title=" ">
<path fill="none" stroke="#63b8ff" d="M449.61,-502.73C470.02,-524.3 502.94,-556.67 536,-579 540.95,-582.34 546.33,-585.51 551.8,-588.43"/>
<polygon fill="#63b8ff" stroke="#63b8ff" points="452.06,-500.22 442.67,-495.3 446.94,-505 452.06,-500.22"/>
</a>
</g>
</g>
<!-- Node26 -->
<g id="Node000026" class="node">
<title>Node26</title>
<g id="a_Node000026"><a xlink:href="db/d99/classqugar_1_1impl_1_1funcs_1_1Torus.html" target="_top" xlink:title="3D torus function. The function is defined by the torus center, axis, and major and inner radii....">
<polygon fill="white" stroke="#666666" points="652.5,-678 548.5,-678 548.5,-648 652.5,-648 652.5,-678"/>
<text text-anchor="start" x="556.5" y="-666" font-family="Helvetica,sans-Serif" font-size="10.00">qugar::impl::funcs</text>
<text text-anchor="middle" x="600.5" y="-655" font-family="Helvetica,sans-Serif" font-size="10.00">::Torus</text>
</a>
</g>
</g>
<!-- Node2&#45;&gt;Node26 -->
<g id="edge34_Node000002_Node000026" class="edge">
<title>Node2&#45;&gt;Node26</title>
<g id="a_edge34_Node000002_Node000026"><a xlink:title=" ">
<path fill="none" stroke="#63b8ff" d="M439.71,-504.82C455.83,-539.45 489.47,-602.15 536,-639 540.25,-642.37 545.02,-645.3 549.99,-647.84"/>
<polygon fill="#63b8ff" stroke="#63b8ff" points="442.77,-503.1 435.45,-495.44 436.4,-505.99 442.77,-503.1"/>
</a>
</g>
</g>
<!-- Node37 -->
<g id="Node000037" class="node">
<title>Node37</title>
<g id="a_Node000037"><a xlink:href="dc/df7/classqugar_1_1impl_1_1tpms_1_1TPMSBase.html" target="_top" xlink:title=" ">
<polygon fill="white" stroke="#666666" points="655,-570 546,-570 546,-540 655,-540 655,-570"/>
<text text-anchor="start" x="554" y="-558" font-family="Helvetica,sans-Serif" font-size="10.00">qugar::impl::tpms::</text>
<text text-anchor="middle" x="600.5" y="-547" font-family="Helvetica,sans-Serif" font-size="10.00">TPMSBase&lt; dim &gt;</text>
</a>
</g>
</g>
<!-- Node2&#45;&gt;Node37 -->
<g id="edge35_Node000002_Node000037" class="edge">
<title>Node2&#45;&gt;Node37</title>
<g id="a_edge35_Node000002_Node000037"><a xlink:title=" ">
<path fill="none" stroke="#63b8ff" d="M468.28,-499.69C488.36,-509.5 513.29,-521.31 536,-531 543.05,-534 550.61,-537.03 557.97,-539.87"/>
<polygon fill="#63b8ff" stroke="#63b8ff" points="469.65,-496.46 459.13,-495.19 466.56,-502.74 469.65,-496.46"/>
</a>
</g>
</g>
<!-- Node32 -->
<g id="Node000032" class="node">
<title>Node32</title>
<g id="a_Node000032"><a xlink:href="d8/dba/classqugar_1_1impl_1_1funcs_1_1DimLinear.html" target="_top" xlink:title="dim&#45;linear function.">
<polygon fill="white" stroke="#666666" points="820.5,-516 706.5,-516 706.5,-486 820.5,-486 820.5,-516"/>
<text text-anchor="start" x="714.5" y="-504" font-family="Helvetica,sans-Serif" font-size="10.00">qugar::impl::funcs</text>
<text text-anchor="middle" x="763.5" y="-493" font-family="Helvetica,sans-Serif" font-size="10.00">::DimLinear&lt; dim &gt;</text>
</a>
</g>
</g>
<!-- Node31&#45;&gt;Node32 -->
<g id="edge27_Node000031_Node000032" class="edge">
<title>Node31&#45;&gt;Node32</title>
<g id="a_edge27_Node000031_Node000032"><a xlink:title=" ">
<path fill="none" stroke="#63b8ff" d="M673.23,-474.39C686.34,-478.29 699.77,-482.3 712.1,-485.97"/>
<polygon fill="#63b8ff" stroke="#63b8ff" points="673.87,-470.92 663.29,-471.42 671.87,-477.63 673.87,-470.92"/>
</a>
</g>
</g>
<!-- Node33 -->
<g id="Node000033" class="node">
<title>Node33</title>
<g id="a_Node000033"><a xlink:href="da/d38/classqugar_1_1impl_1_1funcs_1_1Square.html" target="_top" xlink:title="Dimension independent square function in domain [&#45;1,1]^dim.">
<polygon fill="white" stroke="#666666" points="815.5,-468 711.5,-468 711.5,-438 815.5,-438 815.5,-468"/>
<text text-anchor="start" x="719.5" y="-456" font-family="Helvetica,sans-Serif" font-size="10.00">qugar::impl::funcs</text>
<text text-anchor="middle" x="763.5" y="-445" font-family="Helvetica,sans-Serif" font-size="10.00">::Square&lt; dim &gt;</text>
</a>
</g>
</g>
<!-- Node31&#45;&gt;Node33 -->
<g id="edge28_Node000031_Node000033" class="edge">
<title>Node31&#45;&gt;Node33</title>
<g id="a_edge28_Node000031_Node000033"><a xlink:title=" ">
<path fill="none" stroke="#63b8ff" d="M673.44,-453C686.22,-453 699.28,-453 711.33,-453"/>
<polygon fill="#63b8ff" stroke="#63b8ff" points="673.29,-449.5 663.29,-453 673.29,-456.5 673.29,-449.5"/>
</a>
</g>
</g>
<!-- Node34 -->
<g id="Node000034" class="node">
<title>Node34</title>
<g id="a_Node000034"><a xlink:href="da/db2/classqugar_1_1impl_1_1funcs_1_1TransformedFunction.html" target="_top" xlink:title="Creates a new implicit function that is just a base function to which an affine transformation is app...">
<polygon fill="white" stroke="#666666" points="826,-419.5 701,-419.5 701,-378.5 826,-378.5 826,-419.5"/>
<text text-anchor="start" x="709" y="-407.5" font-family="Helvetica,sans-Serif" font-size="10.00">qugar::impl::funcs</text>
<text text-anchor="start" x="709" y="-396.5" font-family="Helvetica,sans-Serif" font-size="10.00">::TransformedFunction</text>
<text text-anchor="middle" x="763.5" y="-385.5" font-family="Helvetica,sans-Serif" font-size="10.00">&lt; dim &gt;</text>
</a>
</g>
</g>
<!-- Node31&#45;&gt;Node34 -->
<g id="edge29_Node000031_Node000034" class="edge">
<title>Node31&#45;&gt;Node34</title>
<g id="a_edge29_Node000031_Node000034"><a xlink:title=" ">
<path fill="none" stroke="#63b8ff" d="M672.39,-429.22C682.05,-425.98 691.88,-422.68 701.34,-419.51"/>
<polygon fill="#63b8ff" stroke="#63b8ff" points="671.19,-425.93 662.83,-432.43 673.42,-432.57 671.19,-425.93"/>
</a>
</g>
</g>
<!-- Node9 -->
<g id="Node000009" class="node">
<title>Node9</title>
<g id="a_Node000009"><a xlink:href="d9/d7e/classqugar_1_1impl_1_1funcs_1_1EllipsoidBase.html" target="_top" xlink:title="Dimension independent ellipsoidal function (base cass). The function is defined by the ellipsoid&#39;s se...">
<polygon fill="white" stroke="#666666" points="492.5,-318 363.5,-318 363.5,-288 492.5,-288 492.5,-318"/>
<text text-anchor="start" x="371.5" y="-306" font-family="Helvetica,sans-Serif" font-size="10.00">qugar::impl::funcs</text>
<text text-anchor="middle" x="428" y="-295" font-family="Helvetica,sans-Serif" font-size="10.00">::EllipsoidBase&lt; dim &gt;</text>
</a>
</g>
</g>
<!-- Node9&#45;&gt;Node8 -->
<g id="edge37_Node000009_Node000008" class="edge">
<title>Node9&#45;&gt;Node8</title>
<g id="a_edge37_Node000009_Node000008"><a xlink:title=" ">
<path fill="none" stroke="#63b8ff" d="M497.2,-281.79C498.17,-280.9 499.11,-279.97 500,-279 544.72,-230.5 492.14,-184.28 536,-135 539.06,-131.57 542.65,-128.62 546.56,-126.1"/>
<polygon fill="#63b8ff" stroke="#63b8ff" points="494.99,-279.08 489.15,-287.92 499.23,-284.65 494.99,-279.08"/>
</a>
</g>
</g>
<!-- Node9&#45;&gt;Node10 -->
<g id="edge36_Node000009_Node000010" class="edge">
<title>Node9&#45;&gt;Node10</title>
<g id="a_edge36_Node000009_Node000010"><a xlink:title=" ">
<path fill="none" stroke="#63b8ff" d="M503.3,-303C518.36,-303 533.88,-303 547.94,-303"/>
<polygon fill="#63b8ff" stroke="#63b8ff" points="502.97,-299.5 492.97,-303 502.97,-306.5 502.97,-299.5"/>
</a>
</g>
</g>
<!-- Node12 -->
<g id="Node000012" class="node">
<title>Node12</title>
<g id="a_Node000012"><a xlink:href="db/d5b/classqugar_1_1impl_1_1funcs_1_1PlaneBase.html" target="_top" xlink:title="Plane base class.">
<polygon fill="white" stroke="#666666" points="485.5,-270 370.5,-270 370.5,-240 485.5,-240 485.5,-270"/>
<text text-anchor="start" x="378.5" y="-258" font-family="Helvetica,sans-Serif" font-size="10.00">qugar::impl::funcs</text>
<text text-anchor="middle" x="428" y="-247" font-family="Helvetica,sans-Serif" font-size="10.00">::PlaneBase&lt; dim &gt;</text>
</a>
</g>
</g>
<!-- Node12&#45;&gt;Node11 -->
<g id="edge39_Node000012_Node000011" class="edge">
<title>Node12&#45;&gt;Node11</title>
<g id="a_edge39_Node000012_Node000011"><a xlink:title=" ">
<path fill="none" stroke="#63b8ff" d="M469.23,-234.63C480.53,-227.26 491.92,-217.99 500,-207 532.98,-162.14 498.03,-127.72 536,-87 539.21,-83.55 542.98,-80.6 547.03,-78.06"/>
<polygon fill="#63b8ff" stroke="#63b8ff" points="467.35,-231.68 460.67,-239.9 471.02,-237.65 467.35,-231.68"/>
</a>
</g>
</g>
<!-- Node12&#45;&gt;Node13 -->
<g id="edge38_Node000012_Node000013" class="edge">
<title>Node12&#45;&gt;Node13</title>
<g id="a_edge38_Node000012_Node000013"><a xlink:title=" ">
<path fill="none" stroke="#63b8ff" d="M495.91,-255C513.38,-255 531.93,-255 548.43,-255"/>
<polygon fill="#63b8ff" stroke="#63b8ff" points="495.77,-251.5 485.77,-255 495.77,-258.5 495.77,-251.5"/>
</a>
</g>
</g>
<!-- Node15 -->
<g id="Node000015" class="node">
<title>Node15</title>
<g id="a_Node000015"><a xlink:href="d7/d90/classqugar_1_1impl_1_1funcs_1_1SphereBase.html" target="_top" xlink:title="Dimension independent spherical function.">
<polygon fill="white" stroke="#666666" points="489,-198 367,-198 367,-168 489,-168 489,-198"/>
<text text-anchor="start" x="375" y="-186" font-family="Helvetica,sans-Serif" font-size="10.00">qugar::impl::funcs</text>
<text text-anchor="middle" x="428" y="-175" font-family="Helvetica,sans-Serif" font-size="10.00">::SphereBase&lt; dim &gt;</text>
</a>
</g>
</g>
<!-- Node15&#45;&gt;Node14 -->
<g id="edge41_Node000015_Node000014" class="edge">
<title>Node15&#45;&gt;Node14</title>
<g id="a_edge41_Node000015_Node000014"><a xlink:title=" ">
<path fill="none" stroke="#63b8ff" d="M480.94,-162.84C488.02,-158.43 494.67,-153.18 500,-147 533.04,-108.68 500.94,-75.48 536,-39 539.27,-35.6 543.06,-32.68 547.14,-30.17"/>
<polygon fill="#63b8ff" stroke="#63b8ff" points="478.8,-160.03 471.82,-167.99 482.25,-166.12 478.8,-160.03"/>
</a>
</g>
</g>
<!-- Node15&#45;&gt;Node16 -->
<g id="edge40_Node000015_Node000016" class="edge">
<title>Node15&#45;&gt;Node16</title>
<g id="a_edge40_Node000015_Node000016"><a xlink:title=" ">
<path fill="none" stroke="#63b8ff" d="M499.24,-192.89C515.71,-195.21 532.95,-197.63 548.4,-199.81"/>
<polygon fill="#63b8ff" stroke="#63b8ff" points="499.5,-189.39 489.11,-191.46 498.53,-196.32 499.5,-189.39"/>
</a>
</g>
</g>
<!-- Node25 -->
<g id="Node000025" class="node">
<title>Node25</title>
<g id="a_Node000025"><a xlink:href="db/dc8/classqugar_1_1impl_1_1funcs_1_1TorusBase.html" target="_top" xlink:title="3D torus function base class. The function is defined by the torus center, axis, and major and inner ...">
<polygon fill="white" stroke="#666666" points="480,-678 376,-678 376,-648 480,-648 480,-678"/>
<text text-anchor="start" x="384" y="-666" font-family="Helvetica,sans-Serif" font-size="10.00">qugar::impl::funcs</text>
<text text-anchor="middle" x="428" y="-655" font-family="Helvetica,sans-Serif" font-size="10.00">::TorusBase</text>
</a>
</g>
</g>
<!-- Node25&#45;&gt;Node24 -->
<g id="edge43_Node000025_Node000024" class="edge">
<title>Node25&#45;&gt;Node24</title>
<g id="a_edge43_Node000025_Node000024"><a xlink:title=" ">
<path fill="none" stroke="#63b8ff" d="M489.18,-680.35C492.97,-682.34 496.62,-684.55 500,-687 521.6,-702.64 514.68,-718.98 536,-735 540.52,-738.4 545.58,-741.37 550.82,-743.94"/>
<polygon fill="#63b8ff" stroke="#63b8ff" points="490.66,-677.17 480.12,-676.08 487.67,-683.51 490.66,-677.17"/>
</a>
</g>
</g>
<!-- Node25&#45;&gt;Node26 -->
<g id="edge42_Node000025_Node000026" class="edge">
<title>Node25&#45;&gt;Node26</title>
<g id="a_edge42_Node000025_Node000026"><a xlink:title=" ">
<path fill="none" stroke="#63b8ff" d="M490.24,-663C509.29,-663 530.09,-663 548.38,-663"/>
<polygon fill="#63b8ff" stroke="#63b8ff" points="490.16,-659.5 480.16,-663 490.16,-666.5 490.16,-659.5"/>
</a>
</g>
</g>
</g>
</svg>
