<?xml version="1.0" encoding="UTF-8" standalone="no"?>
<!DOCTYPE svg PUBLIC "-//W3C//DTD SVG 1.1//EN"
 "http://www.w3.org/Graphics/SVG/1.1/DTD/svg11.dtd">
<!-- Generated by graphviz version 2.43.0 (0)
 -->
<!-- Title: /__w/qugar/qugar/cpp/include/qugar/numbers.hpp Pages: 1 -->
<svg width="529pt" height="192pt"
 viewBox="0.00 0.00 528.50 192.00" xmlns="http://www.w3.org/2000/svg" xmlns:xlink="http://www.w3.org/1999/xlink">
<g id="graph0" class="graph" transform="scale(1 1) rotate(0) translate(4 188)">
<title>/__w/qugar/qugar/cpp/include/qugar/numbers.hpp</title>
<!-- Node1 -->
<g id="Node000001" class="node">
<title>Node1</title>
<g id="a_Node000001"><a xlink:title="Declaration of constant values.">
<polygon fill="#999999" stroke="#666666" points="277,-184 125,-184 125,-154 277,-154 277,-184"/>
<text text-anchor="start" x="133" y="-172" font-family="Helvetica,sans-Serif" font-size="10.00">/__w/qugar/qugar/cpp</text>
<text text-anchor="middle" x="201" y="-161" font-family="Helvetica,sans-Serif" font-size="10.00">/include/qugar/numbers.hpp</text>
</a>
</g>
</g>
<!-- Node2 -->
<g id="Node000002" class="node">
<title>Node2</title>
<g id="a_Node000002"><a xlink:href="../../d0/d6f/demo__quad__sphere_2main_8cpp.html" target="_top" xlink:title=" ">
<polygon fill="white" stroke="#666666" points="146,-41 0,-41 0,0 146,0 146,-41"/>
<text text-anchor="start" x="8" y="-29" font-family="Helvetica,sans-Serif" font-size="10.00">/__w/qugar/qugar/cpp</text>
<text text-anchor="start" x="8" y="-18" font-family="Helvetica,sans-Serif" font-size="10.00">/demo/demo_quad_sphere</text>
<text text-anchor="middle" x="73" y="-7" font-family="Helvetica,sans-Serif" font-size="10.00">/main.cpp</text>
</a>
</g>
</g>
<!-- Node1&#45;&gt;Node2 -->
<g id="edge1_Node000001_Node000002" class="edge">
<title>Node1&#45;&gt;Node2</title>
<g id="a_edge1_Node000001_Node000002"><a xlink:title=" ">
<path fill="none" stroke="#63b8ff" d="M115.08,-157.86C91.12,-150.62 67.66,-138.43 53,-118 36.64,-95.2 49.45,-62.01 60.77,-41.1"/>
<polygon fill="#63b8ff" stroke="#63b8ff" points="114.42,-161.31 124.99,-160.58 116.27,-154.56 114.42,-161.31"/>
</a>
</g>
</g>
<!-- Node3 -->
<g id="Node000003" class="node">
<title>Node3</title>
<g id="a_Node000003"><a xlink:href="../../d6/d17/affine__transf_8hpp.html" target="_top" xlink:title="Declaration of affine transformation class.">
<polygon fill="white" stroke="#666666" points="334,-118 214,-118 214,-77 334,-77 334,-118"/>
<text text-anchor="start" x="222" y="-106" font-family="Helvetica,sans-Serif" font-size="10.00">/__w/qugar/qugar/cpp</text>
<text text-anchor="start" x="222" y="-95" font-family="Helvetica,sans-Serif" font-size="10.00">/include/qugar/affine</text>
<text text-anchor="middle" x="274" y="-84" font-family="Helvetica,sans-Serif" font-size="10.00">_transf.hpp</text>
</a>
</g>
</g>
<!-- Node1&#45;&gt;Node3 -->
<g id="edge2_Node000001_Node000003" class="edge">
<title>Node1&#45;&gt;Node3</title>
<g id="a_edge2_Node000001_Node000003"><a xlink:title=" ">
<path fill="none" stroke="#63b8ff" d="M223.1,-146.96C232.74,-137.78 243.98,-127.08 253.44,-118.07"/>
<polygon fill="#63b8ff" stroke="#63b8ff" points="220.6,-144.51 215.77,-153.94 225.43,-149.58 220.6,-144.51"/>
</a>
</g>
</g>
<!-- Node5 -->
<g id="Node000005" class="node">
<title>Node5</title>
<g id="a_Node000005"><a xlink:href="../../d7/d6f/primitive__funcs__lib_8hpp.html" target="_top" xlink:title="Declaration of a primitive implicit functions ready to be consumed by Algoim.">
<polygon fill="white" stroke="#666666" points="195.5,-118 62.5,-118 62.5,-77 195.5,-77 195.5,-118"/>
<text text-anchor="start" x="70.5" y="-106" font-family="Helvetica,sans-Serif" font-size="10.00">/__w/qugar/qugar/cpp</text>
<text text-anchor="start" x="70.5" y="-95" font-family="Helvetica,sans-Serif" font-size="10.00">/include/qugar/primitive</text>
<text text-anchor="middle" x="129" y="-84" font-family="Helvetica,sans-Serif" font-size="10.00">_funcs_lib.hpp</text>
</a>
</g>
</g>
<!-- Node1&#45;&gt;Node5 -->
<g id="edge4_Node000001_Node000005" class="edge">
<title>Node1&#45;&gt;Node5</title>
<g id="a_edge4_Node000001_Node000005"><a xlink:title=" ">
<path fill="none" stroke="#63b8ff" d="M179.2,-146.96C169.69,-137.78 158.61,-127.08 149.28,-118.07"/>
<polygon fill="#63b8ff" stroke="#63b8ff" points="176.8,-149.51 186.43,-153.94 181.67,-144.47 176.8,-149.51"/>
</a>
</g>
</g>
<!-- Node6 -->
<g id="Node000006" class="node">
<title>Node6</title>
<g id="a_Node000006"><a xlink:href="../../d4/d7f/tpms__lib_8hpp.html" target="_top" xlink:title="Declaration of TPMS functions to be consumed by Algoim.">
<polygon fill="white" stroke="#666666" points="512,-112.5 360,-112.5 360,-82.5 512,-82.5 512,-112.5"/>
<text text-anchor="start" x="368" y="-100.5" font-family="Helvetica,sans-Serif" font-size="10.00">/__w/qugar/qugar/cpp</text>
<text text-anchor="middle" x="436" y="-89.5" font-family="Helvetica,sans-Serif" font-size="10.00">/include/qugar/tpms_lib.hpp</text>
</a>
</g>
</g>
<!-- Node1&#45;&gt;Node6 -->
<g id="edge6_Node000001_Node000006" class="edge">
<title>Node1&#45;&gt;Node6</title>
<g id="a_edge6_Node000001_Node000006"><a xlink:title=" ">
<path fill="none" stroke="#63b8ff" d="M258.16,-151.09C298.13,-139.28 350.87,-123.68 388.51,-112.54"/>
<polygon fill="#63b8ff" stroke="#63b8ff" points="257.15,-147.74 248.56,-153.94 259.14,-154.46 257.15,-147.74"/>
</a>
</g>
</g>
<!-- Node4 -->
<g id="Node000004" class="node">
<title>Node4</title>
<g id="a_Node000004"><a xlink:href="../../d5/d2a/impl__funcs__lib_8hpp.html" target="_top" xlink:title="Declaration of a few implicit functions ready to be consumed by Algoim.">
<polygon fill="white" stroke="#666666" points="341,-41 199,-41 199,0 341,0 341,-41"/>
<text text-anchor="start" x="207" y="-29" font-family="Helvetica,sans-Serif" font-size="10.00">/__w/qugar/qugar/cpp</text>
<text text-anchor="start" x="207" y="-18" font-family="Helvetica,sans-Serif" font-size="10.00">/include/qugar/impl_funcs</text>
<text text-anchor="middle" x="270" y="-7" font-family="Helvetica,sans-Serif" font-size="10.00">_lib.hpp</text>
</a>
</g>
</g>
<!-- Node3&#45;&gt;Node4 -->
<g id="edge3_Node000003_Node000004" class="edge">
<title>Node3&#45;&gt;Node4</title>
<g id="a_edge3_Node000003_Node000004"><a xlink:title=" ">
<path fill="none" stroke="#63b8ff" d="M272.41,-66.69C271.95,-58.08 271.46,-48.9 271.04,-41.07"/>
<polygon fill="#63b8ff" stroke="#63b8ff" points="268.92,-67 272.95,-76.79 275.91,-66.62 268.92,-67"/>
</a>
</g>
</g>
<!-- Node5&#45;&gt;Node2 -->
<g id="edge5_Node000005_Node000002" class="edge">
<title>Node5&#45;&gt;Node2</title>
<g id="a_edge5_Node000005_Node000002"><a xlink:title=" ">
<path fill="none" stroke="#63b8ff" d="M108.22,-68.67C101.37,-59.5 93.9,-49.5 87.62,-41.07"/>
<polygon fill="#63b8ff" stroke="#63b8ff" points="105.5,-70.88 114.29,-76.79 111.11,-66.69 105.5,-70.88"/>
</a>
</g>
</g>
<!-- Node7 -->
<g id="Node000007" class="node">
<title>Node7</title>
<g id="a_Node000007"><a xlink:href="../../d2/d66/demo__reparam__gyroid_2main_8cpp.html" target="_top" xlink:title=" ">
<polygon fill="white" stroke="#666666" points="520.5,-41 359.5,-41 359.5,0 520.5,0 520.5,-41"/>
<text text-anchor="start" x="367.5" y="-29" font-family="Helvetica,sans-Serif" font-size="10.00">/__w/qugar/qugar/cpp</text>
<text text-anchor="start" x="367.5" y="-18" font-family="Helvetica,sans-Serif" font-size="10.00">/demo/demo_reparam_gyroid</text>
<text text-anchor="middle" x="440" y="-7" font-family="Helvetica,sans-Serif" font-size="10.00">/main.cpp</text>
</a>
</g>
</g>
<!-- Node6&#45;&gt;Node7 -->
<g id="edge7_Node000006_Node000007" class="edge">
<title>Node6&#45;&gt;Node7</title>
<g id="a_edge7_Node000006_Node000007"><a xlink:title=" ">
<path fill="none" stroke="#63b8ff" d="M437.29,-72.23C437.83,-62.2 438.44,-50.71 438.95,-41.2"/>
<polygon fill="#63b8ff" stroke="#63b8ff" points="433.79,-72.22 436.75,-82.39 440.78,-72.59 433.79,-72.22"/>
</a>
</g>
</g>
</g>
</svg>
