<?xml version="1.0" encoding="UTF-8" standalone="no"?>
<!DOCTYPE svg PUBLIC "-//W3C//DTD SVG 1.1//EN"
 "http://www.w3.org/Graphics/SVG/1.1/DTD/svg11.dtd">
<!-- Generated by graphviz version 2.43.0 (0)
 -->
<!-- Title: qugar::impl::funcs::Plane&lt; dim &gt; Pages: 1 -->
<svg width="258pt" height="104pt"
 viewBox="0.00 0.00 258.00 104.00" xmlns="http://www.w3.org/2000/svg" xmlns:xlink="http://www.w3.org/1999/xlink">
<g id="graph0" class="graph" transform="scale(1 1) rotate(0) translate(4 100)">
<title>qugar::impl::funcs::Plane&lt; dim &gt;</title>
<!-- Node1 -->
<g id="Node000001" class="node">
<title>Node1</title>
<g id="a_Node000001"><a xlink:title="Plane function.">
<polygon fill="#999999" stroke="#666666" points="176.5,-30 72.5,-30 72.5,0 176.5,0 176.5,-30"/>
<text text-anchor="start" x="80.5" y="-18" font-family="Helvetica,sans-Serif" font-size="10.00">qugar::impl::funcs</text>
<text text-anchor="middle" x="124.5" y="-7" font-family="Helvetica,sans-Serif" font-size="10.00">::Plane&lt; dim &gt;</text>
</a>
</g>
</g>
<!-- Node2 -->
<g id="Node000002" class="node">
<title>Node2</title>
<g id="a_Node000002"><a xlink:href="../../db/d5b/classqugar_1_1impl_1_1funcs_1_1PlaneBase.html" target="_top" xlink:title="Plane base class.">
<polygon fill="white" stroke="#666666" points="115,-96 0,-96 0,-66 115,-66 115,-96"/>
<text text-anchor="start" x="8" y="-84" font-family="Helvetica,sans-Serif" font-size="10.00">qugar::impl::funcs</text>
<text text-anchor="middle" x="57.5" y="-73" font-family="Helvetica,sans-Serif" font-size="10.00">::PlaneBase&lt; dim &gt;</text>
</a>
</g>
</g>
<!-- Node2&#45;&gt;Node1 -->
<g id="edge1_Node000001_Node000002" class="edge">
<title>Node2&#45;&gt;Node1</title>
<g id="a_edge1_Node000001_Node000002"><a xlink:title=" ">
<path fill="none" stroke="#63b8ff" d="M79.85,-58.65C89.67,-49.27 100.92,-38.53 109.67,-30.16"/>
<polygon fill="#63b8ff" stroke="#63b8ff" points="77.18,-56.36 72.37,-65.8 82.02,-61.42 77.18,-56.36"/>
</a>
</g>
</g>
<!-- Node3 -->
<g id="Node000003" class="node">
<title>Node3</title>
<g id="a_Node000003"><a xlink:href="../../dd/d80/classqugar_1_1impl_1_1DomainFunc.html" target="_top" xlink:title="Domain functions.">
<polygon fill="white" stroke="#666666" points="250,-90.5 133,-90.5 133,-71.5 250,-71.5 250,-90.5"/>
<text text-anchor="middle" x="191.5" y="-78.5" font-family="Helvetica,sans-Serif" font-size="10.00">ImplicitFunc&lt; dim &gt;</text>
</a>
</g>
</g>
<!-- Node3&#45;&gt;Node1 -->
<g id="edge2_Node000001_Node000003" class="edge">
<title>Node3&#45;&gt;Node1</title>
<g id="a_edge2_Node000001_Node000003"><a xlink:title=" ">
<path fill="none" stroke="#63b8ff" d="M175.18,-64.41C164.22,-53.94 149.9,-40.26 139.28,-30.12"/>
<polygon fill="#63b8ff" stroke="#63b8ff" points="172.82,-66.99 182.46,-71.37 177.65,-61.93 172.82,-66.99"/>
</a>
</g>
</g>
</g>
</svg>
