<?xml version="1.0" encoding="UTF-8" standalone="no"?>
<!DOCTYPE svg PUBLIC "-//W3C//DTD SVG 1.1//EN"
 "http://www.w3.org/Graphics/SVG/1.1/DTD/svg11.dtd">
<!-- Generated by graphviz version 2.43.0 (0)
 -->
<!-- Title: /__w/qugar/qugar/cpp/include/qugar/tensor_index_tp.hpp Pages: 1 -->
<svg width="1050pt" height="588pt"
 viewBox="0.00 0.00 1050.46 588.00" xmlns="http://www.w3.org/2000/svg" xmlns:xlink="http://www.w3.org/1999/xlink">
<g id="graph0" class="graph" transform="scale(1 1) rotate(0) translate(4 584)">
<title>/__w/qugar/qugar/cpp/include/qugar/tensor_index_tp.hpp</title>
<!-- Node1 -->
<g id="Node000001" class="node">
<title>Node1</title>
<g id="a_Node000001"><a xlink:title="Declaration of tensor&#45;product index and size related classes.">
<polygon fill="#999999" stroke="#666666" points="693.96,-580 573.96,-580 573.96,-539 693.96,-539 693.96,-580"/>
<text text-anchor="start" x="581.96" y="-568" font-family="Helvetica,sans-Serif" font-size="10.00">/__w/qugar/qugar/cpp</text>
<text text-anchor="start" x="581.96" y="-557" font-family="Helvetica,sans-Serif" font-size="10.00">/include/qugar/tensor</text>
<text text-anchor="middle" x="633.96" y="-546" font-family="Helvetica,sans-Serif" font-size="10.00">_index_tp.hpp</text>
</a>
</g>
</g>
<!-- Node2 -->
<g id="Node000002" class="node">
<title>Node2</title>
<g id="a_Node000002"><a xlink:href="../../d2/d6e/bezier__tp_8hpp.html" target="_top" xlink:title="Declaration of tensor&#45;product Bezier class.">
<polygon fill="white" stroke="#666666" points="871.96,-349 751.96,-349 751.96,-308 871.96,-308 871.96,-349"/>
<text text-anchor="start" x="759.96" y="-337" font-family="Helvetica,sans-Serif" font-size="10.00">/__w/qugar/qugar/cpp</text>
<text text-anchor="start" x="759.96" y="-326" font-family="Helvetica,sans-Serif" font-size="10.00">/include/qugar/bezier</text>
<text text-anchor="middle" x="811.96" y="-315" font-family="Helvetica,sans-Serif" font-size="10.00">_tp.hpp</text>
</a>
</g>
</g>
<!-- Node1&#45;&gt;Node2 -->
<g id="edge1_Node000001_Node000002" class="edge">
<title>Node1&#45;&gt;Node2</title>
<g id="a_edge1_Node000001_Node000002"><a xlink:title=" ">
<path fill="none" stroke="#63b8ff" d="M704.11,-549.3C734.01,-541.75 766.61,-528.01 786.96,-503 823.45,-458.15 819.54,-384.3 815.1,-349.21"/>
<polygon fill="#63b8ff" stroke="#63b8ff" points="703.05,-545.95 694.1,-551.63 704.63,-552.77 703.05,-545.95"/>
</a>
</g>
</g>
<!-- Node7 -->
<g id="Node000007" class="node">
<title>Node7</title>
<g id="a_Node000007"><a xlink:href="../../d6/d49/cart__grid__tp_8hpp.html" target="_top" xlink:title="Definition of Cartesian grid class.">
<polygon fill="white" stroke="#666666" points="456.46,-503 325.46,-503 325.46,-462 456.46,-462 456.46,-503"/>
<text text-anchor="start" x="333.46" y="-491" font-family="Helvetica,sans-Serif" font-size="10.00">/__w/qugar/qugar/cpp</text>
<text text-anchor="start" x="333.46" y="-480" font-family="Helvetica,sans-Serif" font-size="10.00">/include/qugar/cart_grid</text>
<text text-anchor="middle" x="390.96" y="-469" font-family="Helvetica,sans-Serif" font-size="10.00">_tp.hpp</text>
</a>
</g>
</g>
<!-- Node1&#45;&gt;Node7 -->
<g id="edge6_Node000001_Node000007" class="edge">
<title>Node1&#45;&gt;Node7</title>
<g id="a_edge6_Node000001_Node000007"><a xlink:title=" ">
<path fill="none" stroke="#63b8ff" d="M564.3,-537C529.58,-526.29 487.93,-513.43 454.15,-503"/>
<polygon fill="#63b8ff" stroke="#63b8ff" points="563.3,-540.36 573.89,-539.96 565.37,-533.67 563.3,-540.36"/>
</a>
</g>
</g>
<!-- Node10 -->
<g id="Node000010" class="node">
<title>Node10</title>
<g id="a_Node000010"><a xlink:href="../../d3/d42/impl__reparam__mesh_8hpp.html" target="_top" xlink:title="Declaration of reparameterization class.">
<polygon fill="white" stroke="#666666" points="227.46,-195 70.46,-195 70.46,-154 227.46,-154 227.46,-195"/>
<text text-anchor="start" x="78.46" y="-183" font-family="Helvetica,sans-Serif" font-size="10.00">/__w/qugar/qugar/cpp</text>
<text text-anchor="start" x="78.46" y="-172" font-family="Helvetica,sans-Serif" font-size="10.00">/include/qugar/impl_reparam</text>
<text text-anchor="middle" x="148.96" y="-161" font-family="Helvetica,sans-Serif" font-size="10.00">_mesh.hpp</text>
</a>
</g>
</g>
<!-- Node1&#45;&gt;Node10 -->
<g id="edge32_Node000001_Node000010" class="edge">
<title>Node1&#45;&gt;Node10</title>
<g id="a_edge32_Node000001_Node000010"><a xlink:title=" ">
<path fill="none" stroke="#63b8ff" d="M563.6,-551.85C498.45,-544.37 399.48,-529.63 316.96,-503 242.23,-478.89 210.23,-484.59 157.96,-426 99.17,-360.12 98.9,-316.75 119.96,-231 123.07,-218.33 129.63,-205.34 135.73,-195.12"/>
<polygon fill="#63b8ff" stroke="#63b8ff" points="563.43,-555.35 573.75,-552.99 564.21,-548.39 563.43,-555.35"/>
</a>
</g>
</g>
<!-- Node18 -->
<g id="Node000018" class="node">
<title>Node18</title>
<g id="a_Node000018"><a xlink:href="../../d7/d78/lagrange__tp__utils_8hpp.html" target="_top" xlink:title="Declaration of tensor&#45;product Lagrange utils.">
<polygon fill="white" stroke="#666666" points="777.46,-503 646.46,-503 646.46,-462 777.46,-462 777.46,-503"/>
<text text-anchor="start" x="654.46" y="-491" font-family="Helvetica,sans-Serif" font-size="10.00">/__w/qugar/qugar/cpp</text>
<text text-anchor="start" x="654.46" y="-480" font-family="Helvetica,sans-Serif" font-size="10.00">/include/qugar/lagrange</text>
<text text-anchor="middle" x="711.96" y="-469" font-family="Helvetica,sans-Serif" font-size="10.00">_tp_utils.hpp</text>
</a>
</g>
</g>
<!-- Node1&#45;&gt;Node18 -->
<g id="edge33_Node000001_Node000018" class="edge">
<title>Node1&#45;&gt;Node18</title>
<g id="a_edge33_Node000001_Node000018"><a xlink:title=" ">
<path fill="none" stroke="#63b8ff" d="M661.73,-531.79C671.59,-522.32 682.48,-511.84 691.6,-503.07"/>
<polygon fill="#63b8ff" stroke="#63b8ff" points="659.23,-529.34 654.45,-538.79 664.08,-534.39 659.23,-529.34"/>
</a>
</g>
</g>
<!-- Node19 -->
<g id="Node000019" class="node">
<title>Node19</title>
<g id="a_Node000019"><a xlink:href="../../d6/d82/monomials__tp_8hpp.html" target="_top" xlink:title="Declaration of tensor&#45;product monomials class.">
<polygon fill="white" stroke="#666666" points="977.46,-426 834.46,-426 834.46,-385 977.46,-385 977.46,-426"/>
<text text-anchor="start" x="842.46" y="-414" font-family="Helvetica,sans-Serif" font-size="10.00">/__w/qugar/qugar/cpp</text>
<text text-anchor="start" x="842.46" y="-403" font-family="Helvetica,sans-Serif" font-size="10.00">/include/qugar/monomials</text>
<text text-anchor="middle" x="905.96" y="-392" font-family="Helvetica,sans-Serif" font-size="10.00">_tp.hpp</text>
</a>
</g>
</g>
<!-- Node1&#45;&gt;Node19 -->
<g id="edge34_Node000001_Node000019" class="edge">
<title>Node1&#45;&gt;Node19</title>
<g id="a_edge34_Node000001_Node000019"><a xlink:title=" ">
<path fill="none" stroke="#63b8ff" d="M704.13,-547.12C740.72,-538.91 785,-525.23 819.96,-503 851.58,-482.89 878.54,-447.95 893.47,-426.09"/>
<polygon fill="#63b8ff" stroke="#63b8ff" points="703.07,-543.77 694.03,-549.3 704.55,-550.61 703.07,-543.77"/>
</a>
</g>
</g>
<!-- Node20 -->
<g id="Node000020" class="node">
<title>Node20</title>
<g id="a_Node000020"><a xlink:href="../../d2/dee/polynomial__tp_8hpp.html" target="_top" xlink:title="Declaration of tensor&#45;product polynomial class.">
<polygon fill="white" stroke="#666666" points="628.46,-503 485.46,-503 485.46,-462 628.46,-462 628.46,-503"/>
<text text-anchor="start" x="493.46" y="-491" font-family="Helvetica,sans-Serif" font-size="10.00">/__w/qugar/qugar/cpp</text>
<text text-anchor="start" x="493.46" y="-480" font-family="Helvetica,sans-Serif" font-size="10.00">/include/qugar/polynomial</text>
<text text-anchor="middle" x="556.96" y="-469" font-family="Helvetica,sans-Serif" font-size="10.00">_tp.hpp</text>
</a>
</g>
</g>
<!-- Node1&#45;&gt;Node20 -->
<g id="edge37_Node000001_Node000020" class="edge">
<title>Node1&#45;&gt;Node20</title>
<g id="a_edge37_Node000001_Node000020"><a xlink:title=" ">
<path fill="none" stroke="#63b8ff" d="M606.54,-531.79C596.81,-522.32 586.05,-511.84 577.05,-503.07"/>
<polygon fill="#63b8ff" stroke="#63b8ff" points="604.12,-534.32 613.73,-538.79 609,-529.31 604.12,-534.32"/>
</a>
</g>
</g>
<!-- Node3 -->
<g id="Node000003" class="node">
<title>Node3</title>
<g id="a_Node000003"><a xlink:href="../../de/d62/bezier__tp__utils_8hpp.html" target="_top" xlink:title="Declaration of tensor&#45;product Bezier utils.">
<polygon fill="white" stroke="#666666" points="890.96,-272 770.96,-272 770.96,-231 890.96,-231 890.96,-272"/>
<text text-anchor="start" x="778.96" y="-260" font-family="Helvetica,sans-Serif" font-size="10.00">/__w/qugar/qugar/cpp</text>
<text text-anchor="start" x="778.96" y="-249" font-family="Helvetica,sans-Serif" font-size="10.00">/include/qugar/bezier</text>
<text text-anchor="middle" x="830.96" y="-238" font-family="Helvetica,sans-Serif" font-size="10.00">_tp_utils.hpp</text>
</a>
</g>
</g>
<!-- Node2&#45;&gt;Node3 -->
<g id="edge2_Node000002_Node000003" class="edge">
<title>Node2&#45;&gt;Node3</title>
<g id="a_edge2_Node000002_Node000003"><a xlink:title=" ">
<path fill="none" stroke="#63b8ff" d="M819.43,-297.98C821.64,-289.28 823.99,-279.98 826,-272.07"/>
<polygon fill="#63b8ff" stroke="#63b8ff" points="816.01,-297.24 816.95,-307.79 822.8,-298.96 816.01,-297.24"/>
</a>
</g>
</g>
<!-- Node4 -->
<g id="Node000004" class="node">
<title>Node4</title>
<g id="a_Node000004"><a xlink:href="../../d6/d87/impl__reparam__bezier_8hpp.html" target="_top" xlink:title="Declaration of tools for creating Bezier reparameterizations.">
<polygon fill="white" stroke="#666666" points="598.46,-118 441.46,-118 441.46,-77 598.46,-77 598.46,-118"/>
<text text-anchor="start" x="449.46" y="-106" font-family="Helvetica,sans-Serif" font-size="10.00">/__w/qugar/qugar/cpp</text>
<text text-anchor="start" x="449.46" y="-95" font-family="Helvetica,sans-Serif" font-size="10.00">/include/qugar/impl_reparam</text>
<text text-anchor="middle" x="519.96" y="-84" font-family="Helvetica,sans-Serif" font-size="10.00">_bezier.hpp</text>
</a>
</g>
</g>
<!-- Node2&#45;&gt;Node4 -->
<g id="edge3_Node000002_Node000004" class="edge">
<title>Node2&#45;&gt;Node4</title>
<g id="a_edge3_Node000002_Node000004"><a xlink:title=" ">
<path fill="none" stroke="#63b8ff" d="M783.83,-300.47C776,-291.91 767.99,-282.04 761.96,-272 733.19,-224.16 759.92,-191.91 718.96,-154 709.66,-145.4 650.04,-129.39 598.46,-116.77"/>
<polygon fill="#63b8ff" stroke="#63b8ff" points="781.49,-303.09 790.91,-307.94 786.57,-298.27 781.49,-303.09"/>
</a>
</g>
</g>
<!-- Node5 -->
<g id="Node000005" class="node">
<title>Node5</title>
<g id="a_Node000005"><a xlink:href="../../d7/d6f/primitive__funcs__lib_8hpp.html" target="_top" xlink:title="Declaration of a primitive implicit functions ready to be consumed by Algoim.">
<polygon fill="white" stroke="#666666" points="1042.46,-272 909.46,-272 909.46,-231 1042.46,-231 1042.46,-272"/>
<text text-anchor="start" x="917.46" y="-260" font-family="Helvetica,sans-Serif" font-size="10.00">/__w/qugar/qugar/cpp</text>
<text text-anchor="start" x="917.46" y="-249" font-family="Helvetica,sans-Serif" font-size="10.00">/include/qugar/primitive</text>
<text text-anchor="middle" x="975.96" y="-238" font-family="Helvetica,sans-Serif" font-size="10.00">_funcs_lib.hpp</text>
</a>
</g>
</g>
<!-- Node2&#45;&gt;Node5 -->
<g id="edge4_Node000002_Node000005" class="edge">
<title>Node2&#45;&gt;Node5</title>
<g id="a_edge4_Node000002_Node000005"><a xlink:title=" ">
<path fill="none" stroke="#63b8ff" d="M863.95,-303.72C886.27,-293.51 912.04,-281.73 933.22,-272.04"/>
<polygon fill="#63b8ff" stroke="#63b8ff" points="862.26,-300.65 854.62,-307.99 865.17,-307.01 862.26,-300.65"/>
</a>
</g>
</g>
<!-- Node6 -->
<g id="Node000006" class="node">
<title>Node6</title>
<g id="a_Node000006"><a xlink:href="../../d0/d6f/demo__quad__sphere_2main_8cpp.html" target="_top" xlink:title=" ">
<polygon fill="white" stroke="#666666" points="762.96,-118 616.96,-118 616.96,-77 762.96,-77 762.96,-118"/>
<text text-anchor="start" x="624.96" y="-106" font-family="Helvetica,sans-Serif" font-size="10.00">/__w/qugar/qugar/cpp</text>
<text text-anchor="start" x="624.96" y="-95" font-family="Helvetica,sans-Serif" font-size="10.00">/demo/demo_quad_sphere</text>
<text text-anchor="middle" x="689.96" y="-84" font-family="Helvetica,sans-Serif" font-size="10.00">/main.cpp</text>
</a>
</g>
</g>
<!-- Node5&#45;&gt;Node6 -->
<g id="edge5_Node000005_Node000006" class="edge">
<title>Node5&#45;&gt;Node6</title>
<g id="a_edge5_Node000005_Node000006"><a xlink:title=" ">
<path fill="none" stroke="#63b8ff" d="M930.11,-226.13C873.72,-196.17 779.12,-145.89 727.07,-118.23"/>
<polygon fill="#63b8ff" stroke="#63b8ff" points="928.68,-229.34 939.15,-230.94 931.96,-223.16 928.68,-229.34"/>
</a>
</g>
</g>
<!-- Node7&#45;&gt;Node6 -->
<g id="edge7_Node000007_Node000006" class="edge">
<title>Node7&#45;&gt;Node6</title>
<g id="a_edge7_Node000007_Node000006"><a xlink:title=" ">
<path fill="none" stroke="#63b8ff" d="M466.2,-459.91C490.68,-451.24 517.34,-439.93 539.96,-426 582.79,-399.6 590.92,-387.8 622.96,-349 674.31,-286.8 696.77,-272.54 718.96,-195 723.97,-177.48 723.3,-171.7 718.96,-154 715.85,-141.33 709.28,-128.34 703.18,-118.12"/>
<polygon fill="#63b8ff" stroke="#63b8ff" points="464.9,-456.66 456.58,-463.23 467.18,-463.28 464.9,-456.66"/>
</a>
</g>
</g>
<!-- Node8 -->
<g id="Node000008" class="node">
<title>Node8</title>
<g id="a_Node000008"><a xlink:href="../../d2/d66/demo__reparam__gyroid_2main_8cpp.html" target="_top" xlink:title=" ">
<polygon fill="white" stroke="#666666" points="376.46,-41 215.46,-41 215.46,0 376.46,0 376.46,-41"/>
<text text-anchor="start" x="223.46" y="-29" font-family="Helvetica,sans-Serif" font-size="10.00">/__w/qugar/qugar/cpp</text>
<text text-anchor="start" x="223.46" y="-18" font-family="Helvetica,sans-Serif" font-size="10.00">/demo/demo_reparam_gyroid</text>
<text text-anchor="middle" x="295.96" y="-7" font-family="Helvetica,sans-Serif" font-size="10.00">/main.cpp</text>
</a>
</g>
</g>
<!-- Node7&#45;&gt;Node8 -->
<g id="edge8_Node000007_Node000008" class="edge">
<title>Node7&#45;&gt;Node8</title>
<g id="a_edge8_Node000007_Node000008"><a xlink:title=" ">
<path fill="none" stroke="#63b8ff" d="M315.16,-471.33C202.23,-451.43 2.96,-396 2.96,-252.5 2.96,-252.5 2.96,-252.5 2.96,-173.5 2.96,-129.79 -8.87,-107.99 21.96,-77 48.65,-50.16 144.56,-35.42 215.41,-28"/>
<polygon fill="#63b8ff" stroke="#63b8ff" points="314.69,-474.8 325.14,-473.03 315.87,-467.9 314.69,-474.8"/>
</a>
</g>
</g>
<!-- Node9 -->
<g id="Node000009" class="node">
<title>Node9</title>
<g id="a_Node000009"><a xlink:href="../../d6/dc8/impl__quadrature_8hpp.html" target="_top" xlink:title="Declaration of quadratures for general implicit functions on grids.">
<polygon fill="white" stroke="#666666" points="709.96,-189.5 519.96,-189.5 519.96,-159.5 709.96,-159.5 709.96,-189.5"/>
<text text-anchor="start" x="527.96" y="-177.5" font-family="Helvetica,sans-Serif" font-size="10.00">/__w/qugar/qugar/cpp</text>
<text text-anchor="middle" x="614.96" y="-166.5" font-family="Helvetica,sans-Serif" font-size="10.00">/include/qugar/impl_quadrature.hpp</text>
</a>
</g>
</g>
<!-- Node7&#45;&gt;Node9 -->
<g id="edge9_Node000007_Node000009" class="edge">
<title>Node7&#45;&gt;Node9</title>
<g id="a_edge9_Node000007_Node000009"><a xlink:title=" ">
<path fill="none" stroke="#63b8ff" d="M442.68,-457.21C504.71,-424.85 605.61,-361.15 647.96,-272 661.33,-243.85 640.71,-208.8 626.53,-189.63"/>
<polygon fill="#63b8ff" stroke="#63b8ff" points="440.75,-454.27 433.45,-461.94 443.95,-460.5 440.75,-454.27"/>
</a>
</g>
</g>
<!-- Node7&#45;&gt;Node10 -->
<g id="edge11_Node000007_Node000010" class="edge">
<title>Node7&#45;&gt;Node10</title>
<g id="a_edge11_Node000007_Node000010"><a xlink:title=" ">
<path fill="none" stroke="#63b8ff" d="M315.21,-474.03C277.31,-466.91 232.83,-453.04 200.96,-426 143.05,-376.88 143.82,-346.04 126.96,-272 122.91,-254.23 123.54,-248.9 126.96,-231 129.31,-218.68 134.35,-205.61 139.02,-195.25"/>
<polygon fill="#63b8ff" stroke="#63b8ff" points="314.75,-477.5 325.21,-475.78 315.96,-470.61 314.75,-477.5"/>
</a>
</g>
</g>
<!-- Node13 -->
<g id="Node000013" class="node">
<title>Node13</title>
<g id="a_Node000013"><a xlink:href="../../d6/d03/impl__unfitted__domain_8hpp.html" target="_top" xlink:title="Declaration of of UnfittedImplDomain class.">
<polygon fill="white" stroke="#666666" points="437.46,-272 284.46,-272 284.46,-231 437.46,-231 437.46,-272"/>
<text text-anchor="start" x="292.46" y="-260" font-family="Helvetica,sans-Serif" font-size="10.00">/__w/qugar/qugar/cpp</text>
<text text-anchor="start" x="292.46" y="-249" font-family="Helvetica,sans-Serif" font-size="10.00">/include/qugar/impl_unfitted</text>
<text text-anchor="middle" x="360.96" y="-238" font-family="Helvetica,sans-Serif" font-size="10.00">_domain.hpp</text>
</a>
</g>
</g>
<!-- Node7&#45;&gt;Node13 -->
<g id="edge16_Node000007_Node000013" class="edge">
<title>Node7&#45;&gt;Node13</title>
<g id="a_edge16_Node000007_Node000013"><a xlink:title=" ">
<path fill="none" stroke="#63b8ff" d="M409.27,-452.96C429.54,-417.47 456.43,-355.74 432.96,-308 425.64,-293.13 412.22,-281.12 398.92,-272.13"/>
<polygon fill="#63b8ff" stroke="#63b8ff" points="406.11,-451.43 404.04,-461.82 412.14,-454.99 406.11,-451.43"/>
</a>
</g>
</g>
<!-- Node14 -->
<g id="Node000014" class="node">
<title>Node14</title>
<g id="a_Node000014"><a xlink:href="../../d8/ddc/reparam__mesh_8hpp.html" target="_top" xlink:title="Declaration of reparameterization class.">
<polygon fill="white" stroke="#666666" points="265.96,-272 135.96,-272 135.96,-231 265.96,-231 265.96,-272"/>
<text text-anchor="start" x="143.96" y="-260" font-family="Helvetica,sans-Serif" font-size="10.00">/__w/qugar/qugar/cpp</text>
<text text-anchor="start" x="143.96" y="-249" font-family="Helvetica,sans-Serif" font-size="10.00">/include/qugar/reparam</text>
<text text-anchor="middle" x="200.96" y="-238" font-family="Helvetica,sans-Serif" font-size="10.00">_mesh.hpp</text>
</a>
</g>
</g>
<!-- Node7&#45;&gt;Node14 -->
<g id="edge21_Node000007_Node000014" class="edge">
<title>Node7&#45;&gt;Node14</title>
<g id="a_edge21_Node000007_Node000014"><a xlink:title=" ">
<path fill="none" stroke="#63b8ff" d="M314.98,-472.98C283.58,-465.55 249.55,-451.72 227.96,-426 190.61,-381.53 193.9,-307.17 198.02,-272.03"/>
<polygon fill="#63b8ff" stroke="#63b8ff" points="314.54,-476.47 325.06,-475.17 316.03,-469.63 314.54,-476.47"/>
</a>
</g>
</g>
<!-- Node15 -->
<g id="Node000015" class="node">
<title>Node15</title>
<g id="a_Node000015"><a xlink:href="../../d2/dfd/unfitted__domain_8hpp.html" target="_top" xlink:title="Declaration of of UnfittedDomain class.">
<polygon fill="white" stroke="#666666" points="423.96,-349 297.96,-349 297.96,-308 423.96,-308 423.96,-349"/>
<text text-anchor="start" x="305.96" y="-337" font-family="Helvetica,sans-Serif" font-size="10.00">/__w/qugar/qugar/cpp</text>
<text text-anchor="start" x="305.96" y="-326" font-family="Helvetica,sans-Serif" font-size="10.00">/include/qugar/unfitted</text>
<text text-anchor="middle" x="360.96" y="-315" font-family="Helvetica,sans-Serif" font-size="10.00">_domain.hpp</text>
</a>
</g>
</g>
<!-- Node7&#45;&gt;Node15 -->
<g id="edge23_Node000007_Node000015" class="edge">
<title>Node7&#45;&gt;Node15</title>
<g id="a_edge23_Node000007_Node000015"><a xlink:title=" ">
<path fill="none" stroke="#63b8ff" d="M385.16,-452C381.4,-432.89 376.4,-407.47 371.96,-385 369.6,-373.05 366.94,-359.66 364.83,-349.02"/>
<polygon fill="#63b8ff" stroke="#63b8ff" points="381.74,-452.77 387.11,-461.91 388.61,-451.42 381.74,-452.77"/>
</a>
</g>
</g>
<!-- Node17 -->
<g id="Node000017" class="node">
<title>Node17</title>
<g id="a_Node000017"><a xlink:href="../../d8/d90/unfitted__domain__kd__tree_8hpp.html" target="_top" xlink:title="Declaration of of UnfittedDomain class.">
<polygon fill="white" stroke="#666666" points="362.96,-426 236.96,-426 236.96,-385 362.96,-385 362.96,-426"/>
<text text-anchor="start" x="244.96" y="-414" font-family="Helvetica,sans-Serif" font-size="10.00">/__w/qugar/qugar/cpp</text>
<text text-anchor="start" x="244.96" y="-403" font-family="Helvetica,sans-Serif" font-size="10.00">/include/qugar/unfitted</text>
<text text-anchor="middle" x="299.96" y="-392" font-family="Helvetica,sans-Serif" font-size="10.00">_domain_kd_tree.hpp</text>
</a>
</g>
</g>
<!-- Node7&#45;&gt;Node17 -->
<g id="edge29_Node000007_Node000017" class="edge">
<title>Node7&#45;&gt;Node17</title>
<g id="a_edge29_Node000007_Node000017"><a xlink:title=" ">
<path fill="none" stroke="#63b8ff" d="M359.22,-455.35C347.56,-445.73 334.55,-435.01 323.71,-426.07"/>
<polygon fill="#63b8ff" stroke="#63b8ff" points="357.1,-458.14 367.05,-461.79 361.56,-452.73 357.1,-458.14"/>
</a>
</g>
</g>
<!-- Node9&#45;&gt;Node6 -->
<g id="edge10_Node000009_Node000006" class="edge">
<title>Node9&#45;&gt;Node6</title>
<g id="a_edge10_Node000009_Node000006"><a xlink:title=" ">
<path fill="none" stroke="#63b8ff" d="M636.38,-152.07C647.04,-141.41 659.84,-128.62 670.25,-118.2"/>
<polygon fill="#63b8ff" stroke="#63b8ff" points="633.66,-149.85 629.06,-159.39 638.61,-154.8 633.66,-149.85"/>
</a>
</g>
</g>
<!-- Node10&#45;&gt;Node4 -->
<g id="edge14_Node000010_Node000004" class="edge">
<title>Node10&#45;&gt;Node4</title>
<g id="a_edge14_Node000010_Node000004"><a xlink:title=" ">
<path fill="none" stroke="#63b8ff" d="M237.8,-155.54C299.79,-143.01 381.78,-126.43 441.39,-114.38"/>
<polygon fill="#63b8ff" stroke="#63b8ff" points="236.74,-152.18 227.64,-157.59 238.13,-159.04 236.74,-152.18"/>
</a>
</g>
</g>
<!-- Node11 -->
<g id="Node000011" class="node">
<title>Node11</title>
<g id="a_Node000011"><a xlink:href="../../d0/d4c/impl__reparam_8hpp.html" target="_top" xlink:title="Declaration of reparameterization generization tools implicit functions on grids.">
<polygon fill="white" stroke="#666666" points="384.96,-112.5 206.96,-112.5 206.96,-82.5 384.96,-82.5 384.96,-112.5"/>
<text text-anchor="start" x="214.96" y="-100.5" font-family="Helvetica,sans-Serif" font-size="10.00">/__w/qugar/qugar/cpp</text>
<text text-anchor="middle" x="295.96" y="-89.5" font-family="Helvetica,sans-Serif" font-size="10.00">/include/qugar/impl_reparam.hpp</text>
</a>
</g>
</g>
<!-- Node10&#45;&gt;Node11 -->
<g id="edge12_Node000010_Node000011" class="edge">
<title>Node10&#45;&gt;Node11</title>
<g id="a_edge12_Node000010_Node000011"><a xlink:title=" ">
<path fill="none" stroke="#63b8ff" d="M196.38,-149.3C220.07,-137.22 247.91,-123.01 268.12,-112.7"/>
<polygon fill="#63b8ff" stroke="#63b8ff" points="194.51,-146.33 187.2,-153.99 197.69,-152.56 194.51,-146.33"/>
</a>
</g>
</g>
<!-- Node12 -->
<g id="Node000012" class="node">
<title>Node12</title>
<g id="a_Node000012"><a xlink:href="../../d5/da9/impl__reparam__general_8hpp.html" target="_top" xlink:title="Declaration of tools for creating reparameterizations of general functions.">
<polygon fill="white" stroke="#666666" points="188.46,-118 31.46,-118 31.46,-77 188.46,-77 188.46,-118"/>
<text text-anchor="start" x="39.46" y="-106" font-family="Helvetica,sans-Serif" font-size="10.00">/__w/qugar/qugar/cpp</text>
<text text-anchor="start" x="39.46" y="-95" font-family="Helvetica,sans-Serif" font-size="10.00">/include/qugar/impl_reparam</text>
<text text-anchor="middle" x="109.96" y="-84" font-family="Helvetica,sans-Serif" font-size="10.00">_general.hpp</text>
</a>
</g>
</g>
<!-- Node10&#45;&gt;Node12 -->
<g id="edge15_Node000010_Node000012" class="edge">
<title>Node10&#45;&gt;Node12</title>
<g id="a_edge15_Node000010_Node000012"><a xlink:title=" ">
<path fill="none" stroke="#63b8ff" d="M134.05,-144.83C129.4,-135.89 124.38,-126.24 120.13,-118.07"/>
<polygon fill="#63b8ff" stroke="#63b8ff" points="130.99,-146.54 138.71,-153.79 137.2,-143.31 130.99,-146.54"/>
</a>
</g>
</g>
<!-- Node11&#45;&gt;Node8 -->
<g id="edge13_Node000011_Node000008" class="edge">
<title>Node11&#45;&gt;Node8</title>
<g id="a_edge13_Node000011_Node000008"><a xlink:title=" ">
<path fill="none" stroke="#63b8ff" d="M295.96,-72.23C295.96,-62.2 295.96,-50.71 295.96,-41.2"/>
<polygon fill="#63b8ff" stroke="#63b8ff" points="292.46,-72.39 295.96,-82.39 299.46,-72.39 292.46,-72.39"/>
</a>
</g>
</g>
<!-- Node13&#45;&gt;Node6 -->
<g id="edge17_Node000013_Node000006" class="edge">
<title>Node13&#45;&gt;Node6</title>
<g id="a_edge17_Node000013_Node000006"><a xlink:title=" ">
<path fill="none" stroke="#63b8ff" d="M392.03,-224.52C419.07,-203.03 460.08,-173.04 499.96,-154 520.89,-144 572.58,-129.12 616.77,-117.28"/>
<polygon fill="#63b8ff" stroke="#63b8ff" points="389.7,-221.9 384.1,-230.9 394.09,-227.36 389.7,-221.9"/>
</a>
</g>
</g>
<!-- Node13&#45;&gt;Node8 -->
<g id="edge18_Node000013_Node000008" class="edge">
<title>Node13&#45;&gt;Node8</title>
<g id="a_edge18_Node000013_Node000008"><a xlink:title=" ">
<path fill="none" stroke="#63b8ff" d="M377.67,-221.8C396.33,-185.64 420.6,-122.72 393.96,-77 384.75,-61.21 369.2,-49.54 353.16,-41.11"/>
<polygon fill="#63b8ff" stroke="#63b8ff" points="374.48,-220.35 372.85,-230.82 380.65,-223.65 374.48,-220.35"/>
</a>
</g>
</g>
<!-- Node13&#45;&gt;Node9 -->
<g id="edge19_Node000013_Node000009" class="edge">
<title>Node13&#45;&gt;Node9</title>
<g id="a_edge19_Node000013_Node000009"><a xlink:title=" ">
<path fill="none" stroke="#63b8ff" d="M436.75,-228.12C479.09,-215.62 530.55,-200.42 567.26,-189.58"/>
<polygon fill="#63b8ff" stroke="#63b8ff" points="435.63,-224.8 427.03,-230.99 437.61,-231.52 435.63,-224.8"/>
</a>
</g>
</g>
<!-- Node13&#45;&gt;Node11 -->
<g id="edge20_Node000013_Node000011" class="edge">
<title>Node13&#45;&gt;Node11</title>
<g id="a_edge20_Node000013_Node000011"><a xlink:title=" ">
<path fill="none" stroke="#63b8ff" d="M348.55,-221.48C334.6,-188.86 312.53,-137.26 301.97,-112.57"/>
<polygon fill="#63b8ff" stroke="#63b8ff" points="345.44,-223.12 352.59,-230.94 351.88,-220.37 345.44,-223.12"/>
</a>
</g>
</g>
<!-- Node14&#45;&gt;Node10 -->
<g id="edge22_Node000014_Node000010" class="edge">
<title>Node14&#45;&gt;Node10</title>
<g id="a_edge22_Node000014_Node000010"><a xlink:title=" ">
<path fill="none" stroke="#63b8ff" d="M181.47,-222.39C175.16,-213.3 168.31,-203.41 162.53,-195.07"/>
<polygon fill="#63b8ff" stroke="#63b8ff" points="178.72,-224.57 187.29,-230.79 184.47,-220.58 178.72,-224.57"/>
</a>
</g>
</g>
<!-- Node15&#45;&gt;Node13 -->
<g id="edge27_Node000015_Node000013" class="edge">
<title>Node15&#45;&gt;Node13</title>
<g id="a_edge27_Node000015_Node000013"><a xlink:title=" ">
<path fill="none" stroke="#63b8ff" d="M360.96,-297.69C360.96,-289.08 360.96,-279.9 360.96,-272.07"/>
<polygon fill="#63b8ff" stroke="#63b8ff" points="357.46,-297.79 360.96,-307.79 364.46,-297.79 357.46,-297.79"/>
</a>
</g>
</g>
<!-- Node15&#45;&gt;Node14 -->
<g id="edge28_Node000015_Node000014" class="edge">
<title>Node15&#45;&gt;Node14</title>
<g id="a_edge28_Node000015_Node000014"><a xlink:title=" ">
<path fill="none" stroke="#63b8ff" d="M310.23,-303.72C288.45,-293.51 263.32,-281.73 242.65,-272.04"/>
<polygon fill="#63b8ff" stroke="#63b8ff" points="308.8,-306.92 319.34,-307.99 311.77,-300.58 308.8,-306.92"/>
</a>
</g>
</g>
<!-- Node16 -->
<g id="Node000016" class="node">
<title>Node16</title>
<g id="a_Node000016"><a xlink:href="../../d1/daf/cut__quadrature_8hpp.html" target="_top" xlink:title="Definition of cut quadrature for unfitted domains.">
<polygon fill="white" stroke="#666666" points="638.46,-266.5 455.46,-266.5 455.46,-236.5 638.46,-236.5 638.46,-266.5"/>
<text text-anchor="start" x="463.46" y="-254.5" font-family="Helvetica,sans-Serif" font-size="10.00">/__w/qugar/qugar/cpp</text>
<text text-anchor="middle" x="546.96" y="-243.5" font-family="Helvetica,sans-Serif" font-size="10.00">/include/qugar/cut_quadrature.hpp</text>
</a>
</g>
</g>
<!-- Node15&#45;&gt;Node16 -->
<g id="edge24_Node000015_Node000016" class="edge">
<title>Node15&#45;&gt;Node16</title>
<g id="a_edge24_Node000015_Node000016"><a xlink:title=" ">
<path fill="none" stroke="#63b8ff" d="M418.62,-304.25C449.2,-291.92 485.77,-277.17 512.03,-266.58"/>
<polygon fill="#63b8ff" stroke="#63b8ff" points="417.31,-301 409.34,-307.99 419.92,-307.5 417.31,-301"/>
</a>
</g>
</g>
<!-- Node16&#45;&gt;Node6 -->
<g id="edge25_Node000016_Node000006" class="edge">
<title>Node16&#45;&gt;Node6</title>
<g id="a_edge25_Node000016_Node000006"><a xlink:title=" ">
<path fill="none" stroke="#63b8ff" d="M527.33,-228.29C511.49,-207.55 494.36,-176.52 510.96,-154 517.69,-144.87 570.24,-129.21 616.67,-116.85"/>
<polygon fill="#63b8ff" stroke="#63b8ff" points="524.71,-230.62 533.71,-236.22 530.17,-226.23 524.71,-230.62"/>
</a>
</g>
</g>
<!-- Node16&#45;&gt;Node9 -->
<g id="edge26_Node000016_Node000009" class="edge">
<title>Node16&#45;&gt;Node9</title>
<g id="a_edge26_Node000016_Node000009"><a xlink:title=" ">
<path fill="none" stroke="#63b8ff" d="M566.49,-228.96C577.98,-216.29 592.17,-200.63 602.22,-189.54"/>
<polygon fill="#63b8ff" stroke="#63b8ff" points="563.87,-226.63 559.75,-236.39 569.06,-231.34 563.87,-226.63"/>
</a>
</g>
</g>
<!-- Node17&#45;&gt;Node13 -->
<g id="edge30_Node000017_Node000013" class="edge">
<title>Node17&#45;&gt;Node13</title>
<g id="a_edge30_Node000017_Node000013"><a xlink:title=" ">
<path fill="none" stroke="#63b8ff" d="M288.55,-375.18C282.68,-355.27 278.69,-328.87 288.96,-308 296.27,-293.13 309.7,-281.12 322.99,-272.13"/>
<polygon fill="#63b8ff" stroke="#63b8ff" points="285.3,-376.51 291.72,-384.94 291.96,-374.35 285.3,-376.51"/>
</a>
</g>
</g>
<!-- Node17&#45;&gt;Node15 -->
<g id="edge31_Node000017_Node000015" class="edge">
<title>Node17&#45;&gt;Node15</title>
<g id="a_edge31_Node000017_Node000015"><a xlink:title=" ">
<path fill="none" stroke="#63b8ff" d="M322.36,-376.95C329.88,-367.7 338.12,-357.58 345.04,-349.07"/>
<polygon fill="#63b8ff" stroke="#63b8ff" points="319.58,-374.83 315.98,-384.79 325.01,-379.25 319.58,-374.83"/>
</a>
</g>
</g>
<!-- Node19&#45;&gt;Node2 -->
<g id="edge35_Node000019_Node000002" class="edge">
<title>Node19&#45;&gt;Node2</title>
<g id="a_edge35_Node000019_Node000002"><a xlink:title=" ">
<path fill="none" stroke="#63b8ff" d="M873.18,-378.35C861.12,-368.73 847.69,-358.01 836.49,-349.07"/>
<polygon fill="#63b8ff" stroke="#63b8ff" points="871.26,-381.29 881.26,-384.79 875.62,-375.82 871.26,-381.29"/>
</a>
</g>
</g>
<!-- Node19&#45;&gt;Node5 -->
<g id="edge36_Node000019_Node000005" class="edge">
<title>Node19&#45;&gt;Node5</title>
<g id="a_edge36_Node000019_Node000005"><a xlink:title=" ">
<path fill="none" stroke="#63b8ff" d="M919.19,-375.76C933.1,-345.57 954.6,-298.87 966.76,-272.47"/>
<polygon fill="#63b8ff" stroke="#63b8ff" points="915.97,-374.39 914.96,-384.94 922.33,-377.32 915.97,-374.39"/>
</a>
</g>
</g>
<!-- Node20&#45;&gt;Node2 -->
<g id="edge38_Node000020_Node000002" class="edge">
<title>Node20&#45;&gt;Node2</title>
<g id="a_edge38_Node000020_Node000002"><a xlink:title=" ">
<path fill="none" stroke="#63b8ff" d="M633.81,-458.94C668.08,-448.12 704.06,-435.49 718.96,-426 751.54,-405.26 780.97,-370.84 797.64,-349.2"/>
<polygon fill="#63b8ff" stroke="#63b8ff" points="632.71,-455.62 624.21,-461.94 634.8,-462.3 632.71,-455.62"/>
</a>
</g>
</g>
<!-- Node20&#45;&gt;Node19 -->
<g id="edge39_Node000020_Node000019" class="edge">
<title>Node20&#45;&gt;Node19</title>
<g id="a_edge39_Node000020_Node000019"><a xlink:title=" ">
<path fill="none" stroke="#63b8ff" d="M638.26,-461.96C710.87,-445.8 782.7,-431.06 834.44,-420.66"/>
<polygon fill="#63b8ff" stroke="#63b8ff" points="637.48,-458.55 628.48,-464.15 639,-465.38 637.48,-458.55"/>
</a>
</g>
</g>
</g>
</svg>
