<?xml version="1.0" encoding="UTF-8" standalone="no"?>
<!DOCTYPE svg PUBLIC "-//W3C//DTD SVG 1.1//EN"
 "http://www.w3.org/Graphics/SVG/1.1/DTD/svg11.dtd">
<!-- Generated by graphviz version 2.43.0 (0)
 -->
<!-- Title: /__w/qugar/qugar/cpp/include/qugar/tensor_index_tp.hpp Pages: 1 -->
<svg width="1030pt" height="511pt"
 viewBox="0.00 0.00 1029.95 511.00" xmlns="http://www.w3.org/2000/svg" xmlns:xlink="http://www.w3.org/1999/xlink">
<g id="graph0" class="graph" transform="scale(1 1) rotate(0) translate(4 507)">
<title>/__w/qugar/qugar/cpp/include/qugar/tensor_index_tp.hpp</title>
<!-- Node1 -->
<g id="Node000001" class="node">
<title>Node1</title>
<g id="a_Node000001"><a xlink:title="Declaration of tensor&#45;product index and size related classes.">
<polygon fill="#999999" stroke="#666666" points="316.45,-503 196.45,-503 196.45,-462 316.45,-462 316.45,-503"/>
<text text-anchor="start" x="204.45" y="-491" font-family="Helvetica,sans-Serif" font-size="10.00">/__w/qugar/qugar/cpp</text>
<text text-anchor="start" x="204.45" y="-480" font-family="Helvetica,sans-Serif" font-size="10.00">/include/qugar/tensor</text>
<text text-anchor="middle" x="256.45" y="-469" font-family="Helvetica,sans-Serif" font-size="10.00">_index_tp.hpp</text>
</a>
</g>
</g>
<!-- Node2 -->
<g id="Node000002" class="node">
<title>Node2</title>
<g id="a_Node000002"><a xlink:href="../../d2/d6e/bezier__tp_8hpp.html" target="_top" xlink:title="Declaration of tensor&#45;product Bezier class.">
<polygon fill="white" stroke="#666666" points="135.45,-272 15.45,-272 15.45,-231 135.45,-231 135.45,-272"/>
<text text-anchor="start" x="23.45" y="-260" font-family="Helvetica,sans-Serif" font-size="10.00">/__w/qugar/qugar/cpp</text>
<text text-anchor="start" x="23.45" y="-249" font-family="Helvetica,sans-Serif" font-size="10.00">/include/qugar/bezier</text>
<text text-anchor="middle" x="75.45" y="-238" font-family="Helvetica,sans-Serif" font-size="10.00">_tp.hpp</text>
</a>
</g>
</g>
<!-- Node1&#45;&gt;Node2 -->
<g id="edge1_Node000001_Node000002" class="edge">
<title>Node1&#45;&gt;Node2</title>
<g id="a_edge1_Node000001_Node000002"><a xlink:title=" ">
<path fill="none" stroke="#63b8ff" d="M186.24,-471.17C135.19,-462.05 72.37,-446.94 56.45,-426 21.6,-380.17 48.95,-306.8 65.36,-272.01"/>
<polygon fill="#63b8ff" stroke="#63b8ff" points="185.82,-474.65 196.27,-472.91 187.02,-467.75 185.82,-474.65"/>
</a>
</g>
</g>
<!-- Node7 -->
<g id="Node000007" class="node">
<title>Node7</title>
<g id="a_Node000007"><a xlink:href="../../d6/d49/cart__grid__tp_8hpp.html" target="_top" xlink:title="Definition of Cartesian grid class.">
<polygon fill="white" stroke="#666666" points="646.95,-426 515.95,-426 515.95,-385 646.95,-385 646.95,-426"/>
<text text-anchor="start" x="523.95" y="-414" font-family="Helvetica,sans-Serif" font-size="10.00">/__w/qugar/qugar/cpp</text>
<text text-anchor="start" x="523.95" y="-403" font-family="Helvetica,sans-Serif" font-size="10.00">/include/qugar/cart_grid</text>
<text text-anchor="middle" x="581.45" y="-392" font-family="Helvetica,sans-Serif" font-size="10.00">_tp.hpp</text>
</a>
</g>
</g>
<!-- Node1&#45;&gt;Node7 -->
<g id="edge6_Node000001_Node000007" class="edge">
<title>Node1&#45;&gt;Node7</title>
<g id="a_edge6_Node000001_Node000007"><a xlink:title=" ">
<path fill="none" stroke="#63b8ff" d="M326.68,-465.29C382.82,-452.34 460.93,-434.31 515.82,-421.64"/>
<polygon fill="#63b8ff" stroke="#63b8ff" points="325.77,-461.91 316.82,-467.57 327.35,-468.73 325.77,-461.91"/>
</a>
</g>
</g>
<!-- Node10 -->
<g id="Node000010" class="node">
<title>Node10</title>
<g id="a_Node000010"><a xlink:href="../../d3/d42/impl__reparam__mesh_8hpp.html" target="_top" xlink:title="Declaration of reparameterization class.">
<polygon fill="white" stroke="#666666" points="461.95,-195 304.95,-195 304.95,-154 461.95,-154 461.95,-195"/>
<text text-anchor="start" x="312.95" y="-183" font-family="Helvetica,sans-Serif" font-size="10.00">/__w/qugar/qugar/cpp</text>
<text text-anchor="start" x="312.95" y="-172" font-family="Helvetica,sans-Serif" font-size="10.00">/include/qugar/impl_reparam</text>
<text text-anchor="middle" x="383.45" y="-161" font-family="Helvetica,sans-Serif" font-size="10.00">_mesh.hpp</text>
</a>
</g>
</g>
<!-- Node1&#45;&gt;Node10 -->
<g id="edge29_Node000001_Node000010" class="edge">
<title>Node1&#45;&gt;Node10</title>
<g id="a_edge29_Node000001_Node000010"><a xlink:title=" ">
<path fill="none" stroke="#63b8ff" d="M258.8,-451.86C263.83,-402.71 279,-302.65 322.45,-231 330.84,-217.17 343.7,-204.73 355.46,-195.16"/>
<polygon fill="#63b8ff" stroke="#63b8ff" points="255.31,-451.54 257.85,-461.82 262.28,-452.2 255.31,-451.54"/>
</a>
</g>
</g>
<!-- Node17 -->
<g id="Node000017" class="node">
<title>Node17</title>
<g id="a_Node000017"><a xlink:href="../../d7/d78/lagrange__tp__utils_8hpp.html" target="_top" xlink:title="Declaration of tensor&#45;product Lagrange utils.">
<polygon fill="white" stroke="#666666" points="795.95,-426 664.95,-426 664.95,-385 795.95,-385 795.95,-426"/>
<text text-anchor="start" x="672.95" y="-414" font-family="Helvetica,sans-Serif" font-size="10.00">/__w/qugar/qugar/cpp</text>
<text text-anchor="start" x="672.95" y="-403" font-family="Helvetica,sans-Serif" font-size="10.00">/include/qugar/lagrange</text>
<text text-anchor="middle" x="730.45" y="-392" font-family="Helvetica,sans-Serif" font-size="10.00">_tp_utils.hpp</text>
</a>
</g>
</g>
<!-- Node1&#45;&gt;Node17 -->
<g id="edge30_Node000001_Node000017" class="edge">
<title>Node1&#45;&gt;Node17</title>
<g id="a_edge30_Node000001_Node000017"><a xlink:title=" ">
<path fill="none" stroke="#63b8ff" d="M326.44,-474.36C406.63,-465.59 541.74,-448.99 656.45,-426 659.18,-425.45 661.97,-424.86 664.78,-424.24"/>
<polygon fill="#63b8ff" stroke="#63b8ff" points="326.02,-470.88 316.46,-475.44 326.78,-477.84 326.02,-470.88"/>
</a>
</g>
</g>
<!-- Node18 -->
<g id="Node000018" class="node">
<title>Node18</title>
<g id="a_Node000018"><a xlink:href="../../d6/d82/monomials__tp_8hpp.html" target="_top" xlink:title="Declaration of tensor&#45;product monomials class.">
<polygon fill="white" stroke="#666666" points="246.95,-349 103.95,-349 103.95,-308 246.95,-308 246.95,-349"/>
<text text-anchor="start" x="111.95" y="-337" font-family="Helvetica,sans-Serif" font-size="10.00">/__w/qugar/qugar/cpp</text>
<text text-anchor="start" x="111.95" y="-326" font-family="Helvetica,sans-Serif" font-size="10.00">/include/qugar/monomials</text>
<text text-anchor="middle" x="175.45" y="-315" font-family="Helvetica,sans-Serif" font-size="10.00">_tp.hpp</text>
</a>
</g>
</g>
<!-- Node1&#45;&gt;Node18 -->
<g id="edge31_Node000001_Node000018" class="edge">
<title>Node1&#45;&gt;Node18</title>
<g id="a_edge31_Node000001_Node000018"><a xlink:title=" ">
<path fill="none" stroke="#63b8ff" d="M247.37,-452.27C240.68,-432.61 230.65,-406.46 218.45,-385 211.22,-372.29 201.32,-359.3 192.84,-349.08"/>
<polygon fill="#63b8ff" stroke="#63b8ff" points="244.09,-453.51 250.55,-461.91 250.74,-451.31 244.09,-453.51"/>
</a>
</g>
</g>
<!-- Node19 -->
<g id="Node000019" class="node">
<title>Node19</title>
<g id="a_Node000019"><a xlink:href="../../d2/dee/polynomial__tp_8hpp.html" target="_top" xlink:title="Declaration of tensor&#45;product polynomial class.">
<polygon fill="white" stroke="#666666" points="208.95,-426 65.95,-426 65.95,-385 208.95,-385 208.95,-426"/>
<text text-anchor="start" x="73.95" y="-414" font-family="Helvetica,sans-Serif" font-size="10.00">/__w/qugar/qugar/cpp</text>
<text text-anchor="start" x="73.95" y="-403" font-family="Helvetica,sans-Serif" font-size="10.00">/include/qugar/polynomial</text>
<text text-anchor="middle" x="137.45" y="-392" font-family="Helvetica,sans-Serif" font-size="10.00">_tp.hpp</text>
</a>
</g>
</g>
<!-- Node1&#45;&gt;Node19 -->
<g id="edge34_Node000001_Node000019" class="edge">
<title>Node1&#45;&gt;Node19</title>
<g id="a_edge34_Node000001_Node000019"><a xlink:title=" ">
<path fill="none" stroke="#63b8ff" d="M217.01,-456.64C201.29,-446.74 183.46,-435.5 168.66,-426.17"/>
<polygon fill="#63b8ff" stroke="#63b8ff" points="215.17,-459.62 225.49,-461.99 218.9,-453.7 215.17,-459.62"/>
</a>
</g>
</g>
<!-- Node3 -->
<g id="Node000003" class="node">
<title>Node3</title>
<g id="a_Node000003"><a xlink:href="../../de/d62/bezier__tp__utils_8hpp.html" target="_top" xlink:title="Declaration of tensor&#45;product Bezier utils.">
<polygon fill="white" stroke="#666666" points="135.45,-195 15.45,-195 15.45,-154 135.45,-154 135.45,-195"/>
<text text-anchor="start" x="23.45" y="-183" font-family="Helvetica,sans-Serif" font-size="10.00">/__w/qugar/qugar/cpp</text>
<text text-anchor="start" x="23.45" y="-172" font-family="Helvetica,sans-Serif" font-size="10.00">/include/qugar/bezier</text>
<text text-anchor="middle" x="75.45" y="-161" font-family="Helvetica,sans-Serif" font-size="10.00">_tp_utils.hpp</text>
</a>
</g>
</g>
<!-- Node2&#45;&gt;Node3 -->
<g id="edge2_Node000002_Node000003" class="edge">
<title>Node2&#45;&gt;Node3</title>
<g id="a_edge2_Node000002_Node000003"><a xlink:title=" ">
<path fill="none" stroke="#63b8ff" d="M75.45,-220.69C75.45,-212.08 75.45,-202.9 75.45,-195.07"/>
<polygon fill="#63b8ff" stroke="#63b8ff" points="71.95,-220.79 75.45,-230.79 78.95,-220.79 71.95,-220.79"/>
</a>
</g>
</g>
<!-- Node4 -->
<g id="Node000004" class="node">
<title>Node4</title>
<g id="a_Node000004"><a xlink:href="../../d6/d87/impl__reparam__bezier_8hpp.html" target="_top" xlink:title="Declaration of tools for creating Bezier reparameterizations.">
<polygon fill="white" stroke="#666666" points="176.95,-118 19.95,-118 19.95,-77 176.95,-77 176.95,-118"/>
<text text-anchor="start" x="27.95" y="-106" font-family="Helvetica,sans-Serif" font-size="10.00">/__w/qugar/qugar/cpp</text>
<text text-anchor="start" x="27.95" y="-95" font-family="Helvetica,sans-Serif" font-size="10.00">/include/qugar/impl_reparam</text>
<text text-anchor="middle" x="98.45" y="-84" font-family="Helvetica,sans-Serif" font-size="10.00">_bezier.hpp</text>
</a>
</g>
</g>
<!-- Node2&#45;&gt;Node4 -->
<g id="edge3_Node000002_Node000004" class="edge">
<title>Node2&#45;&gt;Node4</title>
<g id="a_edge3_Node000002_Node000004"><a xlink:title=" ">
<path fill="none" stroke="#63b8ff" d="M31.29,-224.67C21.29,-216.54 12,-206.6 6.45,-195 -1.42,-178.57 -2.51,-169.87 6.45,-154 15.25,-138.41 30.39,-126.7 45.87,-118.17"/>
<polygon fill="#63b8ff" stroke="#63b8ff" points="29.3,-227.56 39.39,-230.8 33.53,-221.98 29.3,-227.56"/>
</a>
</g>
</g>
<!-- Node5 -->
<g id="Node000005" class="node">
<title>Node5</title>
<g id="a_Node000005"><a xlink:href="../../d7/d6f/primitive__funcs__lib_8hpp.html" target="_top" xlink:title="Declaration of a primitive implicit functions ready to be consumed by Algoim.">
<polygon fill="white" stroke="#666666" points="286.95,-195 153.95,-195 153.95,-154 286.95,-154 286.95,-195"/>
<text text-anchor="start" x="161.95" y="-183" font-family="Helvetica,sans-Serif" font-size="10.00">/__w/qugar/qugar/cpp</text>
<text text-anchor="start" x="161.95" y="-172" font-family="Helvetica,sans-Serif" font-size="10.00">/include/qugar/primitive</text>
<text text-anchor="middle" x="220.45" y="-161" font-family="Helvetica,sans-Serif" font-size="10.00">_funcs_lib.hpp</text>
</a>
</g>
</g>
<!-- Node2&#45;&gt;Node5 -->
<g id="edge4_Node000002_Node000005" class="edge">
<title>Node2&#45;&gt;Node5</title>
<g id="a_edge4_Node000002_Node000005"><a xlink:title=" ">
<path fill="none" stroke="#63b8ff" d="M122.21,-226.31C141.76,-216.2 164.19,-204.6 182.67,-195.04"/>
<polygon fill="#63b8ff" stroke="#63b8ff" points="120.44,-223.29 113.17,-230.99 123.66,-229.5 120.44,-223.29"/>
</a>
</g>
</g>
<!-- Node6 -->
<g id="Node000006" class="node">
<title>Node6</title>
<g id="a_Node000006"><a xlink:href="../../d0/d6f/demo__quad__sphere_2main_8cpp.html" target="_top" xlink:title=" ">
<polygon fill="white" stroke="#666666" points="878.45,-118 732.45,-118 732.45,-77 878.45,-77 878.45,-118"/>
<text text-anchor="start" x="740.45" y="-106" font-family="Helvetica,sans-Serif" font-size="10.00">/__w/qugar/qugar/cpp</text>
<text text-anchor="start" x="740.45" y="-95" font-family="Helvetica,sans-Serif" font-size="10.00">/demo/demo_quad_sphere</text>
<text text-anchor="middle" x="805.45" y="-84" font-family="Helvetica,sans-Serif" font-size="10.00">/main.cpp</text>
</a>
</g>
</g>
<!-- Node5&#45;&gt;Node6 -->
<g id="edge5_Node000005_Node000006" class="edge">
<title>Node5&#45;&gt;Node6</title>
<g id="a_edge5_Node000005_Node000006"><a xlink:title=" ">
<path fill="none" stroke="#63b8ff" d="M297.02,-154.08C486.02,-123.09 538.61,-147.6 723.45,-118 726.34,-117.54 729.28,-117.03 732.24,-116.48"/>
<polygon fill="#63b8ff" stroke="#63b8ff" points="296.33,-150.64 287.04,-155.74 297.48,-157.55 296.33,-150.64"/>
</a>
</g>
</g>
<!-- Node7&#45;&gt;Node6 -->
<g id="edge7_Node000007_Node000006" class="edge">
<title>Node7&#45;&gt;Node6</title>
<g id="a_edge7_Node000007_Node000006"><a xlink:title=" ">
<path fill="none" stroke="#63b8ff" d="M657.01,-383.47C740.71,-358.39 867.24,-314.48 892.45,-272 924.43,-218.1 864.01,-150.93 828.58,-118.23"/>
<polygon fill="#63b8ff" stroke="#63b8ff" points="655.87,-380.16 647.28,-386.36 657.86,-386.87 655.87,-380.16"/>
</a>
</g>
</g>
<!-- Node8 -->
<g id="Node000008" class="node">
<title>Node8</title>
<g id="a_Node000008"><a xlink:href="../../d2/d66/demo__reparam__gyroid_2main_8cpp.html" target="_top" xlink:title=" ">
<polygon fill="white" stroke="#666666" points="1021.95,-41 860.95,-41 860.95,0 1021.95,0 1021.95,-41"/>
<text text-anchor="start" x="868.95" y="-29" font-family="Helvetica,sans-Serif" font-size="10.00">/__w/qugar/qugar/cpp</text>
<text text-anchor="start" x="868.95" y="-18" font-family="Helvetica,sans-Serif" font-size="10.00">/demo/demo_reparam_gyroid</text>
<text text-anchor="middle" x="941.45" y="-7" font-family="Helvetica,sans-Serif" font-size="10.00">/main.cpp</text>
</a>
</g>
</g>
<!-- Node7&#45;&gt;Node8 -->
<g id="edge8_Node000007_Node000008" class="edge">
<title>Node7&#45;&gt;Node8</title>
<g id="a_edge8_Node000007_Node000008"><a xlink:title=" ">
<path fill="none" stroke="#63b8ff" d="M657.12,-384.99C814.28,-350.97 979.45,-404.48 979.45,-252.5 979.45,-252.5 979.45,-252.5 979.45,-173.5 979.45,-124.81 960.87,-69.9 949.69,-41.27"/>
<polygon fill="#63b8ff" stroke="#63b8ff" points="656.23,-381.6 647.26,-387.25 657.79,-388.43 656.23,-381.6"/>
</a>
</g>
</g>
<!-- Node9 -->
<g id="Node000009" class="node">
<title>Node9</title>
<g id="a_Node000009"><a xlink:href="../../d6/dc8/impl__quadrature_8hpp.html" target="_top" xlink:title="Declaration of quadratures for general implicit functions on grids.">
<polygon fill="white" stroke="#666666" points="785.45,-189.5 595.45,-189.5 595.45,-159.5 785.45,-159.5 785.45,-189.5"/>
<text text-anchor="start" x="603.45" y="-177.5" font-family="Helvetica,sans-Serif" font-size="10.00">/__w/qugar/qugar/cpp</text>
<text text-anchor="middle" x="690.45" y="-166.5" font-family="Helvetica,sans-Serif" font-size="10.00">/include/qugar/impl_quadrature.hpp</text>
</a>
</g>
</g>
<!-- Node7&#45;&gt;Node9 -->
<g id="edge9_Node000007_Node000009" class="edge">
<title>Node7&#45;&gt;Node9</title>
<g id="a_edge9_Node000007_Node000009"><a xlink:title=" ">
<path fill="none" stroke="#63b8ff" d="M622.93,-378.72C633.98,-370.31 645.14,-360.22 653.45,-349 690.09,-299.49 692.06,-221.44 691.17,-189.67"/>
<polygon fill="#63b8ff" stroke="#63b8ff" points="620.58,-376.1 614.55,-384.81 624.69,-381.76 620.58,-376.1"/>
</a>
</g>
</g>
<!-- Node7&#45;&gt;Node10 -->
<g id="edge11_Node000007_Node000010" class="edge">
<title>Node7&#45;&gt;Node10</title>
<g id="a_edge11_Node000007_Node000010"><a xlink:title=" ">
<path fill="none" stroke="#63b8ff" d="M506.14,-387.65C446.87,-369.91 368.46,-335.43 332.45,-272 323.45,-256.15 325.83,-247.98 332.45,-231 337.82,-217.22 348.38,-204.79 358.51,-195.21"/>
<polygon fill="#63b8ff" stroke="#63b8ff" points="505.27,-391.04 515.85,-390.46 507.22,-384.31 505.27,-391.04"/>
</a>
</g>
</g>
<!-- Node13 -->
<g id="Node000013" class="node">
<title>Node13</title>
<g id="a_Node000013"><a xlink:href="../../d6/d03/impl__unfitted__domain_8hpp.html" target="_top" xlink:title="Declaration of of UnfittedImplDomain class.">
<polygon fill="white" stroke="#666666" points="882.95,-272 729.95,-272 729.95,-231 882.95,-231 882.95,-272"/>
<text text-anchor="start" x="737.95" y="-260" font-family="Helvetica,sans-Serif" font-size="10.00">/__w/qugar/qugar/cpp</text>
<text text-anchor="start" x="737.95" y="-249" font-family="Helvetica,sans-Serif" font-size="10.00">/include/qugar/impl_unfitted</text>
<text text-anchor="middle" x="806.45" y="-238" font-family="Helvetica,sans-Serif" font-size="10.00">_domain.hpp</text>
</a>
</g>
</g>
<!-- Node7&#45;&gt;Node13 -->
<g id="edge16_Node000007_Node000013" class="edge">
<title>Node7&#45;&gt;Node13</title>
<g id="a_edge16_Node000007_Node000013"><a xlink:title=" ">
<path fill="none" stroke="#63b8ff" d="M653.44,-381.16C674.39,-372.69 696.66,-361.95 715.45,-349 746.73,-327.43 775.49,-293.58 791.98,-272.24"/>
<polygon fill="#63b8ff" stroke="#63b8ff" points="651.96,-377.98 643.93,-384.89 654.52,-384.5 651.96,-377.98"/>
</a>
</g>
</g>
<!-- Node14 -->
<g id="Node000014" class="node">
<title>Node14</title>
<g id="a_Node000014"><a xlink:href="../../d8/ddc/reparam__mesh_8hpp.html" target="_top" xlink:title="Declaration of reparameterization class.">
<polygon fill="white" stroke="#666666" points="471.45,-272 341.45,-272 341.45,-231 471.45,-231 471.45,-272"/>
<text text-anchor="start" x="349.45" y="-260" font-family="Helvetica,sans-Serif" font-size="10.00">/__w/qugar/qugar/cpp</text>
<text text-anchor="start" x="349.45" y="-249" font-family="Helvetica,sans-Serif" font-size="10.00">/include/qugar/reparam</text>
<text text-anchor="middle" x="406.45" y="-238" font-family="Helvetica,sans-Serif" font-size="10.00">_mesh.hpp</text>
</a>
</g>
</g>
<!-- Node7&#45;&gt;Node14 -->
<g id="edge21_Node000007_Node000014" class="edge">
<title>Node7&#45;&gt;Node14</title>
<g id="a_edge21_Node000007_Node000014"><a xlink:title=" ">
<path fill="none" stroke="#63b8ff" d="M546.6,-378.71C534.63,-369.57 521.27,-359.05 509.45,-349 479.58,-323.6 446.81,-292.25 426.44,-272.32"/>
<polygon fill="#63b8ff" stroke="#63b8ff" points="544.55,-381.55 554.63,-384.8 548.78,-375.97 544.55,-381.55"/>
</a>
</g>
</g>
<!-- Node15 -->
<g id="Node000015" class="node">
<title>Node15</title>
<g id="a_Node000015"><a xlink:href="../../d2/dfd/unfitted__domain_8hpp.html" target="_top" xlink:title="Declaration of of UnfittedDomain class.">
<polygon fill="white" stroke="#666666" points="644.45,-349 518.45,-349 518.45,-308 644.45,-308 644.45,-349"/>
<text text-anchor="start" x="526.45" y="-337" font-family="Helvetica,sans-Serif" font-size="10.00">/__w/qugar/qugar/cpp</text>
<text text-anchor="start" x="526.45" y="-326" font-family="Helvetica,sans-Serif" font-size="10.00">/include/qugar/unfitted</text>
<text text-anchor="middle" x="581.45" y="-315" font-family="Helvetica,sans-Serif" font-size="10.00">_domain.hpp</text>
</a>
</g>
</g>
<!-- Node7&#45;&gt;Node15 -->
<g id="edge23_Node000007_Node000015" class="edge">
<title>Node7&#45;&gt;Node15</title>
<g id="a_edge23_Node000007_Node000015"><a xlink:title=" ">
<path fill="none" stroke="#63b8ff" d="M581.45,-374.69C581.45,-366.08 581.45,-356.9 581.45,-349.07"/>
<polygon fill="#63b8ff" stroke="#63b8ff" points="577.95,-374.79 581.45,-384.79 584.95,-374.79 577.95,-374.79"/>
</a>
</g>
</g>
<!-- Node9&#45;&gt;Node6 -->
<g id="edge10_Node000009_Node000006" class="edge">
<title>Node9&#45;&gt;Node6</title>
<g id="a_edge10_Node000009_Node000006"><a xlink:title=" ">
<path fill="none" stroke="#63b8ff" d="M720.48,-153.91C737.35,-142.91 758.34,-129.22 775.23,-118.2"/>
<polygon fill="#63b8ff" stroke="#63b8ff" points="718.54,-151 712.08,-159.39 722.37,-156.86 718.54,-151"/>
</a>
</g>
</g>
<!-- Node10&#45;&gt;Node4 -->
<g id="edge14_Node000010_Node000004" class="edge">
<title>Node10&#45;&gt;Node4</title>
<g id="a_edge14_Node000010_Node000004"><a xlink:title=" ">
<path fill="none" stroke="#63b8ff" d="M299.53,-151.42C259.32,-140.84 211.58,-128.27 172.71,-118.04"/>
<polygon fill="#63b8ff" stroke="#63b8ff" points="298.75,-154.83 309.31,-153.99 300.53,-148.06 298.75,-154.83"/>
</a>
</g>
</g>
<!-- Node11 -->
<g id="Node000011" class="node">
<title>Node11</title>
<g id="a_Node000011"><a xlink:href="../../d0/d4c/impl__reparam_8hpp.html" target="_top" xlink:title="Declaration of reparameterization generization tools implicit functions on grids.">
<polygon fill="white" stroke="#666666" points="714.45,-112.5 536.45,-112.5 536.45,-82.5 714.45,-82.5 714.45,-112.5"/>
<text text-anchor="start" x="544.45" y="-100.5" font-family="Helvetica,sans-Serif" font-size="10.00">/__w/qugar/qugar/cpp</text>
<text text-anchor="middle" x="625.45" y="-89.5" font-family="Helvetica,sans-Serif" font-size="10.00">/include/qugar/impl_reparam.hpp</text>
</a>
</g>
</g>
<!-- Node10&#45;&gt;Node11 -->
<g id="edge12_Node000010_Node000011" class="edge">
<title>Node10&#45;&gt;Node11</title>
<g id="a_edge12_Node000010_Node000011"><a xlink:title=" ">
<path fill="none" stroke="#63b8ff" d="M456.17,-150.96C496.41,-138.49 545.17,-123.38 580.01,-112.58"/>
<polygon fill="#63b8ff" stroke="#63b8ff" points="454.91,-147.69 446.4,-153.99 456.99,-154.37 454.91,-147.69"/>
</a>
</g>
</g>
<!-- Node12 -->
<g id="Node000012" class="node">
<title>Node12</title>
<g id="a_Node000012"><a xlink:href="../../d5/da9/impl__reparam__general_8hpp.html" target="_top" xlink:title="Declaration of tools for creating reparameterizations of general functions.">
<polygon fill="white" stroke="#666666" points="461.95,-118 304.95,-118 304.95,-77 461.95,-77 461.95,-118"/>
<text text-anchor="start" x="312.95" y="-106" font-family="Helvetica,sans-Serif" font-size="10.00">/__w/qugar/qugar/cpp</text>
<text text-anchor="start" x="312.95" y="-95" font-family="Helvetica,sans-Serif" font-size="10.00">/include/qugar/impl_reparam</text>
<text text-anchor="middle" x="383.45" y="-84" font-family="Helvetica,sans-Serif" font-size="10.00">_general.hpp</text>
</a>
</g>
</g>
<!-- Node10&#45;&gt;Node12 -->
<g id="edge15_Node000010_Node000012" class="edge">
<title>Node10&#45;&gt;Node12</title>
<g id="a_edge15_Node000010_Node000012"><a xlink:title=" ">
<path fill="none" stroke="#63b8ff" d="M383.45,-143.69C383.45,-135.08 383.45,-125.9 383.45,-118.07"/>
<polygon fill="#63b8ff" stroke="#63b8ff" points="379.95,-143.79 383.45,-153.79 386.95,-143.79 379.95,-143.79"/>
</a>
</g>
</g>
<!-- Node11&#45;&gt;Node8 -->
<g id="edge13_Node000011_Node000008" class="edge">
<title>Node11&#45;&gt;Node8</title>
<g id="a_edge13_Node000011_Node000008"><a xlink:title=" ">
<path fill="none" stroke="#63b8ff" d="M694.4,-80.14C743.43,-68.5 809.46,-52.83 860.92,-40.61"/>
<polygon fill="#63b8ff" stroke="#63b8ff" points="693.44,-76.77 684.51,-82.48 695.05,-83.58 693.44,-76.77"/>
</a>
</g>
</g>
<!-- Node13&#45;&gt;Node6 -->
<g id="edge17_Node000013_Node000006" class="edge">
<title>Node13&#45;&gt;Node6</title>
<g id="a_edge17_Node000013_Node000006"><a xlink:title=" ">
<path fill="none" stroke="#63b8ff" d="M819.64,-221.6C822.85,-213.2 825.82,-203.89 827.45,-195 830.73,-177.08 830.87,-171.9 827.45,-154 825.09,-141.68 820.05,-128.61 815.39,-118.25"/>
<polygon fill="#63b8ff" stroke="#63b8ff" points="816.35,-220.38 815.83,-230.96 822.84,-223.02 816.35,-220.38"/>
</a>
</g>
</g>
<!-- Node13&#45;&gt;Node8 -->
<g id="edge18_Node000013_Node000008" class="edge">
<title>Node13&#45;&gt;Node8</title>
<g id="a_edge18_Node000013_Node000008"><a xlink:title=" ">
<path fill="none" stroke="#63b8ff" d="M825.15,-222.22C830.79,-213.54 836.95,-203.93 842.45,-195 876.28,-140.08 913.21,-73.38 930.88,-41"/>
<polygon fill="#63b8ff" stroke="#63b8ff" points="822.04,-220.58 819.5,-230.86 827.9,-224.41 822.04,-220.58"/>
</a>
</g>
</g>
<!-- Node13&#45;&gt;Node9 -->
<g id="edge19_Node000013_Node000009" class="edge">
<title>Node13&#45;&gt;Node9</title>
<g id="a_edge19_Node000013_Node000009"><a xlink:title=" ">
<path fill="none" stroke="#63b8ff" d="M767.78,-225.5C749.36,-213.59 728.01,-199.78 712.41,-189.7"/>
<polygon fill="#63b8ff" stroke="#63b8ff" points="765.97,-228.5 776.27,-230.99 769.78,-222.62 765.97,-228.5"/>
</a>
</g>
</g>
<!-- Node13&#45;&gt;Node11 -->
<g id="edge20_Node000013_Node000011" class="edge">
<title>Node13&#45;&gt;Node11</title>
<g id="a_edge20_Node000013_Node000011"><a xlink:title=" ">
<path fill="none" stroke="#63b8ff" d="M810.51,-220.77C811.68,-199.85 809.59,-172.4 794.45,-154 780.91,-137.55 732.86,-122.7 691.43,-112.52"/>
<polygon fill="#63b8ff" stroke="#63b8ff" points="807.02,-220.49 809.69,-230.74 814,-221.06 807.02,-220.49"/>
</a>
</g>
</g>
<!-- Node14&#45;&gt;Node10 -->
<g id="edge22_Node000014_Node000010" class="edge">
<title>Node14&#45;&gt;Node10</title>
<g id="a_edge22_Node000014_Node000010"><a xlink:title=" ">
<path fill="none" stroke="#63b8ff" d="M397.39,-220.98C394.73,-212.28 391.88,-202.98 389.45,-195.07"/>
<polygon fill="#63b8ff" stroke="#63b8ff" points="394.13,-222.26 400.4,-230.79 400.82,-220.21 394.13,-222.26"/>
</a>
</g>
</g>
<!-- Node15&#45;&gt;Node13 -->
<g id="edge27_Node000015_Node000013" class="edge">
<title>Node15&#45;&gt;Node13</title>
<g id="a_edge27_Node000015_Node000013"><a xlink:title=" ">
<path fill="none" stroke="#63b8ff" d="M649.52,-304.81C680.87,-294.36 717.72,-282.08 747.82,-272.04"/>
<polygon fill="#63b8ff" stroke="#63b8ff" points="648.36,-301.51 639.98,-307.99 650.57,-308.15 648.36,-301.51"/>
</a>
</g>
</g>
<!-- Node15&#45;&gt;Node14 -->
<g id="edge28_Node000015_Node000014" class="edge">
<title>Node15&#45;&gt;Node14</title>
<g id="a_edge28_Node000015_Node000014"><a xlink:title=" ">
<path fill="none" stroke="#63b8ff" d="M526.6,-304C502.64,-293.72 474.85,-281.82 452.05,-272.04"/>
<polygon fill="#63b8ff" stroke="#63b8ff" points="525.35,-307.27 535.93,-307.99 528.11,-300.83 525.35,-307.27"/>
</a>
</g>
</g>
<!-- Node16 -->
<g id="Node000016" class="node">
<title>Node16</title>
<g id="a_Node000016"><a xlink:href="../../d1/daf/cut__quadrature_8hpp.html" target="_top" xlink:title="Definition of cut quadrature for unfitted domains.">
<polygon fill="white" stroke="#666666" points="672.95,-266.5 489.95,-266.5 489.95,-236.5 672.95,-236.5 672.95,-266.5"/>
<text text-anchor="start" x="497.95" y="-254.5" font-family="Helvetica,sans-Serif" font-size="10.00">/__w/qugar/qugar/cpp</text>
<text text-anchor="middle" x="581.45" y="-243.5" font-family="Helvetica,sans-Serif" font-size="10.00">/include/qugar/cut_quadrature.hpp</text>
</a>
</g>
</g>
<!-- Node15&#45;&gt;Node16 -->
<g id="edge24_Node000015_Node000016" class="edge">
<title>Node15&#45;&gt;Node16</title>
<g id="a_edge24_Node000015_Node000016"><a xlink:title=" ">
<path fill="none" stroke="#63b8ff" d="M581.45,-297.61C581.45,-287.01 581.45,-275.57 581.45,-266.86"/>
<polygon fill="#63b8ff" stroke="#63b8ff" points="577.95,-297.79 581.45,-307.79 584.95,-297.79 577.95,-297.79"/>
</a>
</g>
</g>
<!-- Node16&#45;&gt;Node6 -->
<g id="edge25_Node000016_Node000006" class="edge">
<title>Node16&#45;&gt;Node6</title>
<g id="a_edge25_Node000016_Node000006"><a xlink:title=" ">
<path fill="none" stroke="#63b8ff" d="M575.39,-226.25C571.58,-204.83 570.06,-173.97 586.45,-154 588.87,-151.04 669.67,-131.08 732.41,-115.94"/>
<polygon fill="#63b8ff" stroke="#63b8ff" points="571.99,-227.12 577.44,-236.21 578.85,-225.71 571.99,-227.12"/>
</a>
</g>
</g>
<!-- Node16&#45;&gt;Node9 -->
<g id="edge26_Node000016_Node000009" class="edge">
<title>Node16&#45;&gt;Node9</title>
<g id="a_edge26_Node000016_Node000009"><a xlink:title=" ">
<path fill="none" stroke="#63b8ff" d="M610.43,-230.55C629.22,-217.63 653.24,-201.1 670.04,-189.54"/>
<polygon fill="#63b8ff" stroke="#63b8ff" points="608.2,-227.84 601.95,-236.39 612.17,-233.61 608.2,-227.84"/>
</a>
</g>
</g>
<!-- Node18&#45;&gt;Node2 -->
<g id="edge32_Node000018_Node000002" class="edge">
<title>Node18&#45;&gt;Node2</title>
<g id="a_edge32_Node000018_Node000002"><a xlink:title=" ">
<path fill="none" stroke="#63b8ff" d="M141.2,-301.82C128.27,-292.11 113.76,-281.24 101.68,-272.17"/>
<polygon fill="#63b8ff" stroke="#63b8ff" points="139.33,-304.79 149.43,-307.99 143.53,-299.19 139.33,-304.79"/>
</a>
</g>
</g>
<!-- Node18&#45;&gt;Node5 -->
<g id="edge33_Node000018_Node000005" class="edge">
<title>Node18&#45;&gt;Node5</title>
<g id="a_edge33_Node000018_Node000005"><a xlink:title=" ">
<path fill="none" stroke="#63b8ff" d="M184.19,-297.98C193.13,-267.76 206.79,-221.64 214.54,-195.47"/>
<polygon fill="#63b8ff" stroke="#63b8ff" points="180.72,-297.36 181.24,-307.94 187.43,-299.34 180.72,-297.36"/>
</a>
</g>
</g>
<!-- Node19&#45;&gt;Node2 -->
<g id="edge35_Node000019_Node000002" class="edge">
<title>Node19&#45;&gt;Node2</title>
<g id="a_edge35_Node000019_Node000002"><a xlink:title=" ">
<path fill="none" stroke="#63b8ff" d="M112.25,-377.19C105.57,-368.68 98.96,-358.92 94.45,-349 83.07,-323.97 78.49,-292.26 76.65,-272.17"/>
<polygon fill="#63b8ff" stroke="#63b8ff" points="109.56,-379.43 118.62,-384.92 114.97,-374.98 109.56,-379.43"/>
</a>
</g>
</g>
<!-- Node19&#45;&gt;Node18 -->
<g id="edge36_Node000019_Node000018" class="edge">
<title>Node19&#45;&gt;Node18</title>
<g id="a_edge36_Node000019_Node000018"><a xlink:title=" ">
<path fill="none" stroke="#63b8ff" d="M151.97,-375.83C156.5,-366.89 161.39,-357.24 165.53,-349.07"/>
<polygon fill="#63b8ff" stroke="#63b8ff" points="148.83,-374.29 147.43,-384.79 155.07,-377.46 148.83,-374.29"/>
</a>
</g>
</g>
</g>
</svg>
