<?xml version="1.0" encoding="UTF-8" standalone="no"?>
<!DOCTYPE svg PUBLIC "-//W3C//DTD SVG 1.1//EN"
 "http://www.w3.org/Graphics/SVG/1.1/DTD/svg11.dtd">
<!-- Generated by graphviz version 2.43.0 (0)
 -->
<!-- Title: /__w/qugar/qugar/cpp/include/qugar/bezier_tp_utils.hpp Pages: 1 -->
<svg width="1334pt" height="445pt"
 viewBox="0.00 0.00 1334.00 445.00" xmlns="http://www.w3.org/2000/svg" xmlns:xlink="http://www.w3.org/1999/xlink">
<g id="graph0" class="graph" transform="scale(1 1) rotate(0) translate(4 441)">
<title>/__w/qugar/qugar/cpp/include/qugar/bezier_tp_utils.hpp</title>
<!-- Node1 -->
<g id="Node000001" class="node">
<title>Node1</title>
<g id="a_Node000001"><a xlink:title="Declaration of tensor&#45;product Bezier utils.">
<polygon fill="#999999" stroke="#666666" points="959,-437 839,-437 839,-396 959,-396 959,-437"/>
<text text-anchor="start" x="847" y="-425" font-family="Helvetica,sans-Serif" font-size="10.00">/__w/qugar/qugar/cpp</text>
<text text-anchor="start" x="847" y="-414" font-family="Helvetica,sans-Serif" font-size="10.00">/include/qugar/bezier</text>
<text text-anchor="middle" x="899" y="-403" font-family="Helvetica,sans-Serif" font-size="10.00">_tp_utils.hpp</text>
</a>
</g>
</g>
<!-- Node2 -->
<g id="Node000002" class="node">
<title>Node2</title>
<g id="a_Node000002"><a xlink:href="../../d2/d6e/bezier__tp_8hpp.html" target="_top" xlink:title="Declaration of tensor&#45;product Bezier class.">
<polygon fill="white" stroke="#666666" points="955.5,-360 842.5,-360 842.5,-341 955.5,-341 955.5,-360"/>
<text text-anchor="middle" x="899" y="-348" font-family="Helvetica,sans-Serif" font-size="10.00">qugar/bezier_tp.hpp</text>
</a>
</g>
</g>
<!-- Node1&#45;&gt;Node2 -->
<g id="edge1_Node000001_Node000002" class="edge">
<title>Node1&#45;&gt;Node2</title>
<g id="a_edge1_Node000001_Node000002"><a xlink:title=" ">
<path fill="none" stroke="#63b8ff" d="M899,-395.95C899,-387.85 899,-378.5 899,-370.47"/>
<polygon fill="#63b8ff" stroke="#63b8ff" points="902.5,-370.26 899,-360.26 895.5,-370.26 902.5,-370.26"/>
</a>
</g>
</g>
<!-- Node3 -->
<g id="Node000003" class="node">
<title>Node3</title>
<g id="a_Node000003"><a xlink:href="../../d5/d90/bbox_8hpp.html" target="_top" xlink:title="Definition of Cartesian bounding box class.">
<polygon fill="white" stroke="#666666" points="713,-189.5 621,-189.5 621,-170.5 713,-170.5 713,-189.5"/>
<text text-anchor="middle" x="667" y="-177.5" font-family="Helvetica,sans-Serif" font-size="10.00">qugar/bbox.hpp</text>
</a>
</g>
</g>
<!-- Node2&#45;&gt;Node3 -->
<g id="edge2_Node000002_Node000003" class="edge">
<title>Node2&#45;&gt;Node3</title>
<g id="a_edge2_Node000002_Node000003"><a xlink:title=" ">
<path fill="none" stroke="#63b8ff" d="M865.61,-340.97C821.56,-328.13 744.11,-299.88 697,-250 683.58,-235.79 675.59,-214.61 671.28,-199.47"/>
<polygon fill="#63b8ff" stroke="#63b8ff" points="674.65,-198.5 668.76,-189.69 667.87,-200.25 674.65,-198.5"/>
</a>
</g>
</g>
<!-- Node6 -->
<g id="Node000006" class="node">
<title>Node6</title>
<g id="a_Node000006"><a xlink:href="../../dd/de3/types_8hpp.html" target="_top" xlink:title="Declaration of types.">
<polygon fill="white" stroke="#666666" points="359.5,-74 264.5,-74 264.5,-55 359.5,-55 359.5,-74"/>
<text text-anchor="middle" x="312" y="-62" font-family="Helvetica,sans-Serif" font-size="10.00">qugar/types.hpp</text>
</a>
</g>
</g>
<!-- Node2&#45;&gt;Node6 -->
<g id="edge46_Node000002_Node000006" class="edge">
<title>Node2&#45;&gt;Node6</title>
<g id="a_edge46_Node000002_Node000006"><a xlink:title=" ">
<path fill="none" stroke="#63b8ff" d="M842.42,-348.68C645.21,-345.06 0,-326.73 0,-241.5 0,-241.5 0,-241.5 0,-179 0,-133.38 35.16,-130.33 76,-110 132.45,-81.91 204.58,-71.47 254.15,-67.64"/>
<polygon fill="#63b8ff" stroke="#63b8ff" points="254.64,-71.12 264.37,-66.92 254.15,-64.13 254.64,-71.12"/>
</a>
</g>
</g>
<!-- Node10 -->
<g id="Node000010" class="node">
<title>Node10</title>
<g id="a_Node000010"><a xlink:title=" ">
<polygon fill="#e0e0e0" stroke="#999999" points="1292.5,-74 1245.5,-74 1245.5,-55 1292.5,-55 1292.5,-74"/>
<text text-anchor="middle" x="1269" y="-62" font-family="Helvetica,sans-Serif" font-size="10.00">vector</text>
</a>
</g>
</g>
<!-- Node2&#45;&gt;Node10 -->
<g id="edge49_Node000002_Node000010" class="edge">
<title>Node2&#45;&gt;Node10</title>
<g id="a_edge49_Node000002_Node000010"><a xlink:title=" ">
<path fill="none" stroke="#63b8ff" d="M955.7,-346.99C1071.85,-340.29 1326,-317.01 1326,-241.5 1326,-241.5 1326,-241.5 1326,-179 1326,-141.18 1300.42,-103.1 1283.53,-82.07"/>
<polygon fill="#63b8ff" stroke="#63b8ff" points="1286.02,-79.59 1276.93,-74.16 1280.65,-84.08 1286.02,-79.59"/>
</a>
</g>
</g>
<!-- Node13 -->
<g id="Node000013" class="node">
<title>Node13</title>
<g id="a_Node000013"><a xlink:href="../../dc/d7c/domain__function_8hpp.html" target="_top" xlink:title="Declaration of a few implicit functions template class ready to be consumed by Algoim.">
<polygon fill="white" stroke="#666666" points="501,-189.5 351,-189.5 351,-170.5 501,-170.5 501,-189.5"/>
<text text-anchor="middle" x="426" y="-177.5" font-family="Helvetica,sans-Serif" font-size="10.00">qugar/domain_function.hpp</text>
</a>
</g>
</g>
<!-- Node2&#45;&gt;Node13 -->
<g id="edge15_Node000002_Node000013" class="edge">
<title>Node2&#45;&gt;Node13</title>
<g id="a_edge15_Node000002_Node000013"><a xlink:title=" ">
<path fill="none" stroke="#63b8ff" d="M864.57,-340.96C832.15,-332.66 782.38,-319.26 740,-305 633.31,-269.11 509.99,-217.29 455.02,-193.63"/>
<polygon fill="#63b8ff" stroke="#63b8ff" points="456.14,-190.3 445.58,-189.55 453.37,-196.73 456.14,-190.3"/>
</a>
</g>
</g>
<!-- Node17 -->
<g id="Node000017" class="node">
<title>Node17</title>
<g id="a_Node000017"><a xlink:href="../../d6/d82/monomials__tp_8hpp.html" target="_top" xlink:title="Declaration of tensor&#45;product monomials class.">
<polygon fill="white" stroke="#666666" points="968,-305 830,-305 830,-286 968,-286 968,-305"/>
<text text-anchor="middle" x="899" y="-293" font-family="Helvetica,sans-Serif" font-size="10.00">qugar/monomials_tp.hpp</text>
</a>
</g>
</g>
<!-- Node2&#45;&gt;Node17 -->
<g id="edge22_Node000002_Node000017" class="edge">
<title>Node2&#45;&gt;Node17</title>
<g id="a_edge22_Node000002_Node000017"><a xlink:title=" ">
<path fill="none" stroke="#63b8ff" d="M899,-340.75C899,-333.8 899,-323.85 899,-315.13"/>
<polygon fill="#63b8ff" stroke="#63b8ff" points="902.5,-315.09 899,-305.09 895.5,-315.09 902.5,-315.09"/>
</a>
</g>
</g>
<!-- Node18 -->
<g id="Node000018" class="node">
<title>Node18</title>
<g id="a_Node000018"><a xlink:href="../../d2/dee/polynomial__tp_8hpp.html" target="_top" xlink:title="Declaration of tensor&#45;product polynomial class.">
<polygon fill="white" stroke="#666666" points="871,-250 733,-250 733,-231 871,-231 871,-250"/>
<text text-anchor="middle" x="802" y="-238" font-family="Helvetica,sans-Serif" font-size="10.00">qugar/polynomial_tp.hpp</text>
</a>
</g>
</g>
<!-- Node2&#45;&gt;Node18 -->
<g id="edge44_Node000002_Node000018" class="edge">
<title>Node2&#45;&gt;Node18</title>
<g id="a_edge44_Node000002_Node000018"><a xlink:title=" ">
<path fill="none" stroke="#63b8ff" d="M873.83,-340.89C856.63,-333.79 834.58,-322.09 821,-305 810.82,-292.19 806.09,-274.02 803.89,-260.4"/>
<polygon fill="#63b8ff" stroke="#63b8ff" points="807.33,-259.71 802.58,-250.24 800.39,-260.61 807.33,-259.71"/>
</a>
</g>
</g>
<!-- Node19 -->
<g id="Node000019" class="node">
<title>Node19</title>
<g id="a_Node000019"><a xlink:href="../../d9/d43/tensor__index__tp_8hpp.html" target="_top" xlink:title="Declaration of tensor&#45;product index and size related classes.">
<polygon fill="white" stroke="#666666" points="1091,-195 981,-195 981,-165 1091,-165 1091,-195"/>
<text text-anchor="start" x="989" y="-183" font-family="Helvetica,sans-Serif" font-size="10.00">qugar/tensor_index</text>
<text text-anchor="middle" x="1036" y="-172" font-family="Helvetica,sans-Serif" font-size="10.00">_tp.hpp</text>
</a>
</g>
</g>
<!-- Node2&#45;&gt;Node19 -->
<g id="edge45_Node000002_Node000019" class="edge">
<title>Node2&#45;&gt;Node19</title>
<g id="a_edge45_Node000002_Node000019"><a xlink:title=" ">
<path fill="none" stroke="#63b8ff" d="M955.72,-345.74C1016.82,-338.27 1111.05,-316.03 1154,-250 1171.64,-222.88 1137.03,-205.08 1100.82,-194.36"/>
<polygon fill="#63b8ff" stroke="#63b8ff" points="1101.68,-190.97 1091.11,-191.65 1099.81,-197.71 1101.68,-190.97"/>
</a>
</g>
</g>
<!-- Node22 -->
<g id="Node000022" class="node">
<title>Node22</title>
<g id="a_Node000022"><a xlink:title=" ">
<polygon fill="#e0e0e0" stroke="#999999" points="1069,-250 965,-250 965,-231 1069,-231 1069,-250"/>
<text text-anchor="middle" x="1017" y="-238" font-family="Helvetica,sans-Serif" font-size="10.00">algoim/xarray.hpp</text>
</a>
</g>
</g>
<!-- Node2&#45;&gt;Node22 -->
<g id="edge47_Node000002_Node000022" class="edge">
<title>Node2&#45;&gt;Node22</title>
<g id="a_edge47_Node000002_Node000022"><a xlink:title=" ">
<path fill="none" stroke="#63b8ff" d="M920.03,-340.94C936.87,-333.34 960.33,-320.96 977,-305 990.65,-291.93 1001.67,-273.29 1008.66,-259.58"/>
<polygon fill="#63b8ff" stroke="#63b8ff" points="1011.98,-260.76 1013.2,-250.24 1005.68,-257.71 1011.98,-260.76"/>
</a>
</g>
</g>
<!-- Node23 -->
<g id="Node000023" class="node">
<title>Node23</title>
<g id="a_Node000023"><a xlink:title=" ">
<polygon fill="#e0e0e0" stroke="#999999" points="1145,-250 1087,-250 1087,-231 1145,-231 1145,-250"/>
<text text-anchor="middle" x="1116" y="-238" font-family="Helvetica,sans-Serif" font-size="10.00">memory</text>
</a>
</g>
</g>
<!-- Node2&#45;&gt;Node23 -->
<g id="edge48_Node000002_Node000023" class="edge">
<title>Node2&#45;&gt;Node23</title>
<g id="a_edge48_Node000002_Node000023"><a xlink:title=" ">
<path fill="none" stroke="#63b8ff" d="M919.29,-340.88C939.45,-332.21 971.13,-318.25 998,-305 1031.01,-288.72 1068.29,-268.31 1091.95,-255.1"/>
<polygon fill="#63b8ff" stroke="#63b8ff" points="1093.9,-258.02 1100.91,-250.07 1090.47,-251.91 1093.9,-258.02"/>
</a>
</g>
</g>
<!-- Node4 -->
<g id="Node000004" class="node">
<title>Node4</title>
<g id="a_Node000004"><a xlink:href="../../d7/dd8/concepts_8hpp.html" target="_top" xlink:title="Declaration of concepts.">
<polygon fill="white" stroke="#666666" points="844,-129 732,-129 732,-110 844,-110 844,-129"/>
<text text-anchor="middle" x="788" y="-117" font-family="Helvetica,sans-Serif" font-size="10.00">qugar/concepts.hpp</text>
</a>
</g>
</g>
<!-- Node3&#45;&gt;Node4 -->
<g id="edge3_Node000003_Node000004" class="edge">
<title>Node3&#45;&gt;Node4</title>
<g id="a_edge3_Node000003_Node000004"><a xlink:title=" ">
<path fill="none" stroke="#63b8ff" d="M684.59,-170.49C704.76,-160.75 738.02,-144.66 761.36,-133.38"/>
<polygon fill="#63b8ff" stroke="#63b8ff" points="762.9,-136.52 770.38,-129.02 759.86,-130.22 762.9,-136.52"/>
</a>
</g>
</g>
<!-- Node5 -->
<g id="Node000005" class="node">
<title>Node5</title>
<g id="a_Node000005"><a xlink:href="../../d0/de4/point_8hpp.html" target="_top" xlink:title="Definition and implementation of Point class.">
<polygon fill="white" stroke="#666666" points="713.5,-129 620.5,-129 620.5,-110 713.5,-110 713.5,-129"/>
<text text-anchor="middle" x="667" y="-117" font-family="Helvetica,sans-Serif" font-size="10.00">qugar/point.hpp</text>
</a>
</g>
</g>
<!-- Node3&#45;&gt;Node5 -->
<g id="edge4_Node000003_Node000005" class="edge">
<title>Node3&#45;&gt;Node5</title>
<g id="a_edge4_Node000003_Node000005"><a xlink:title=" ">
<path fill="none" stroke="#63b8ff" d="M667,-170.37C667,-162.25 667,-149.81 667,-139.39"/>
<polygon fill="#63b8ff" stroke="#63b8ff" points="670.5,-139.17 667,-129.17 663.5,-139.17 670.5,-139.17"/>
</a>
</g>
</g>
<!-- Node3&#45;&gt;Node6 -->
<g id="edge11_Node000003_Node000006" class="edge">
<title>Node3&#45;&gt;Node6</title>
<g id="a_edge11_Node000003_Node000006"><a xlink:title=" ">
<path fill="none" stroke="#63b8ff" d="M620.77,-174.62C549.37,-167.28 416.1,-151.09 374,-129 352.98,-117.97 334.81,-97.23 323.67,-82.45"/>
<polygon fill="#63b8ff" stroke="#63b8ff" points="326.37,-80.21 317.68,-74.16 320.7,-84.32 326.37,-80.21"/>
</a>
</g>
</g>
<!-- Node7 -->
<g id="Node000007" class="node">
<title>Node7</title>
<g id="a_Node000007"><a xlink:title=" ">
<polygon fill="#e0e0e0" stroke="#999999" points="513.5,-19 460.5,-19 460.5,0 513.5,0 513.5,-19"/>
<text text-anchor="middle" x="487" y="-7" font-family="Helvetica,sans-Serif" font-size="10.00">cstddef</text>
</a>
</g>
</g>
<!-- Node3&#45;&gt;Node7 -->
<g id="edge14_Node000003_Node000007" class="edge">
<title>Node3&#45;&gt;Node7</title>
<g id="a_edge14_Node000003_Node000007"><a xlink:title=" ">
<path fill="none" stroke="#63b8ff" d="M620.87,-175.26C562.4,-169.45 466.59,-156 445,-129 420.24,-98.05 451.74,-51.38 472.14,-26.87"/>
<polygon fill="#63b8ff" stroke="#63b8ff" points="474.89,-29.04 478.79,-19.18 469.6,-24.46 474.89,-29.04"/>
</a>
</g>
</g>
<!-- Node11 -->
<g id="Node000011" class="node">
<title>Node11</title>
<g id="a_Node000011"><a xlink:title=" ">
<polygon fill="#e0e0e0" stroke="#999999" points="602,-129 454,-129 454,-110 602,-110 602,-129"/>
<text text-anchor="middle" x="528" y="-117" font-family="Helvetica,sans-Serif" font-size="10.00">algoim/hyperrectangle.hpp</text>
</a>
</g>
</g>
<!-- Node3&#45;&gt;Node11 -->
<g id="edge12_Node000003_Node000011" class="edge">
<title>Node3&#45;&gt;Node11</title>
<g id="a_edge12_Node000003_Node000011"><a xlink:title=" ">
<path fill="none" stroke="#63b8ff" d="M646.79,-170.49C623.32,-160.62 584.39,-144.23 557.54,-132.93"/>
<polygon fill="#63b8ff" stroke="#63b8ff" points="558.81,-129.67 548.24,-129.02 556.1,-136.12 558.81,-129.67"/>
</a>
</g>
</g>
<!-- Node12 -->
<g id="Node000012" class="node">
<title>Node12</title>
<g id="a_Node000012"><a xlink:title=" ">
<polygon fill="#e0e0e0" stroke="#999999" points="992,-129 950,-129 950,-110 992,-110 992,-129"/>
<text text-anchor="middle" x="971" y="-117" font-family="Helvetica,sans-Serif" font-size="10.00">array</text>
</a>
</g>
</g>
<!-- Node3&#45;&gt;Node12 -->
<g id="edge13_Node000003_Node000012" class="edge">
<title>Node3&#45;&gt;Node12</title>
<g id="a_edge13_Node000003_Node000012"><a xlink:title=" ">
<path fill="none" stroke="#63b8ff" d="M713.33,-171.93C766.01,-163.59 854.74,-148.6 939.93,-129.07"/>
<polygon fill="#63b8ff" stroke="#63b8ff" points="940.81,-132.46 949.76,-126.79 939.23,-125.64 940.81,-132.46"/>
</a>
</g>
</g>
<!-- Node5&#45;&gt;Node6 -->
<g id="edge5_Node000005_Node000006" class="edge">
<title>Node5&#45;&gt;Node6</title>
<g id="a_edge5_Node000005_Node000006"><a xlink:title=" ">
<path fill="none" stroke="#63b8ff" d="M620.25,-111.39C617.12,-110.92 614.01,-110.45 611,-110 527.11,-97.39 429.94,-82.96 369.72,-74.04"/>
<polygon fill="#63b8ff" stroke="#63b8ff" points="370.05,-70.55 359.65,-72.55 369.03,-77.48 370.05,-70.55"/>
</a>
</g>
</g>
<!-- Node5&#45;&gt;Node7 -->
<g id="edge9_Node000005_Node000007" class="edge">
<title>Node5&#45;&gt;Node7</title>
<g id="a_edge9_Node000005_Node000007"><a xlink:title=" ">
<path fill="none" stroke="#63b8ff" d="M652.57,-109.84C621.5,-91.2 548.02,-47.11 510.27,-24.46"/>
<polygon fill="#63b8ff" stroke="#63b8ff" points="511.87,-21.34 501.49,-19.2 508.27,-27.34 511.87,-21.34"/>
</a>
</g>
</g>
<!-- Node8 -->
<g id="Node000008" class="node">
<title>Node8</title>
<g id="a_Node000008"><a xlink:href="../../da/d16/vector_8hpp.html" target="_top" xlink:title=" ">
<polygon fill="white" stroke="#666666" points="716,-74 618,-74 618,-55 716,-55 716,-74"/>
<text text-anchor="middle" x="667" y="-62" font-family="Helvetica,sans-Serif" font-size="10.00">qugar/vector.hpp</text>
</a>
</g>
</g>
<!-- Node5&#45;&gt;Node8 -->
<g id="edge7_Node000005_Node000008" class="edge">
<title>Node5&#45;&gt;Node8</title>
<g id="a_edge7_Node000005_Node000008"><a xlink:title=" ">
<path fill="none" stroke="#63b8ff" d="M667,-109.75C667,-102.8 667,-92.85 667,-84.13"/>
<polygon fill="#63b8ff" stroke="#63b8ff" points="670.5,-84.09 667,-74.09 663.5,-84.09 670.5,-84.09"/>
</a>
</g>
</g>
<!-- Node5&#45;&gt;Node10 -->
<g id="edge10_Node000005_Node000010" class="edge">
<title>Node5&#45;&gt;Node10</title>
<g id="a_edge10_Node000005_Node000010"><a xlink:title=" ">
<path fill="none" stroke="#63b8ff" d="M713.72,-111.16C716.86,-110.74 719.97,-110.35 723,-110 916.19,-87.49 1149.15,-72.55 1235.06,-67.45"/>
<polygon fill="#63b8ff" stroke="#63b8ff" points="1235.48,-70.93 1245.26,-66.84 1235.07,-63.94 1235.48,-70.93"/>
</a>
</g>
</g>
<!-- Node6&#45;&gt;Node7 -->
<g id="edge6_Node000006_Node000007" class="edge">
<title>Node6&#45;&gt;Node7</title>
<g id="a_edge6_Node000006_Node000007"><a xlink:title=" ">
<path fill="none" stroke="#63b8ff" d="M340.12,-54.98C370.15,-45.89 417.86,-31.44 450.71,-21.49"/>
<polygon fill="#63b8ff" stroke="#63b8ff" points="451.83,-24.81 460.39,-18.56 449.8,-18.11 451.83,-24.81"/>
</a>
</g>
</g>
<!-- Node9 -->
<g id="Node000009" class="node">
<title>Node9</title>
<g id="a_Node000009"><a xlink:title=" ">
<polygon fill="#e0e0e0" stroke="#999999" points="722,-19 612,-19 612,0 722,0 722,-19"/>
<text text-anchor="middle" x="667" y="-7" font-family="Helvetica,sans-Serif" font-size="10.00">algoim/uvector.hpp</text>
</a>
</g>
</g>
<!-- Node8&#45;&gt;Node9 -->
<g id="edge8_Node000008_Node000009" class="edge">
<title>Node8&#45;&gt;Node9</title>
<g id="a_edge8_Node000008_Node000009"><a xlink:title=" ">
<path fill="none" stroke="#63b8ff" d="M667,-54.75C667,-47.8 667,-37.85 667,-29.13"/>
<polygon fill="#63b8ff" stroke="#63b8ff" points="670.5,-29.09 667,-19.09 663.5,-29.09 670.5,-29.09"/>
</a>
</g>
</g>
<!-- Node13&#45;&gt;Node5 -->
<g id="edge17_Node000013_Node000005" class="edge">
<title>Node13&#45;&gt;Node5</title>
<g id="a_edge17_Node000013_Node000005"><a xlink:title=" ">
<path fill="none" stroke="#63b8ff" d="M461.04,-170.49C503.61,-160.16 575.49,-142.71 622.09,-131.4"/>
<polygon fill="#63b8ff" stroke="#63b8ff" points="623.02,-134.78 631.91,-129.02 621.37,-127.97 623.02,-134.78"/>
</a>
</g>
</g>
<!-- Node13&#45;&gt;Node6 -->
<g id="edge16_Node000013_Node000006" class="edge">
<title>Node13&#45;&gt;Node6</title>
<g id="a_edge16_Node000013_Node000006"><a xlink:title=" ">
<path fill="none" stroke="#63b8ff" d="M400.29,-170.34C380.3,-162.42 353.18,-148.88 336,-129 324.94,-116.19 318.73,-97.77 315.42,-84.07"/>
<polygon fill="#63b8ff" stroke="#63b8ff" points="318.84,-83.34 313.34,-74.28 311.99,-84.79 318.84,-83.34"/>
</a>
</g>
</g>
<!-- Node13&#45;&gt;Node8 -->
<g id="edge18_Node000013_Node000008" class="edge">
<title>Node13&#45;&gt;Node8</title>
<g id="a_edge18_Node000013_Node000008"><a xlink:title=" ">
<path fill="none" stroke="#63b8ff" d="M425.69,-170.35C425.67,-155.67 427.91,-125.92 445,-110 468.2,-88.39 550.31,-76.34 607.88,-70.39"/>
<polygon fill="#63b8ff" stroke="#63b8ff" points="608.36,-73.86 617.96,-69.38 607.66,-66.89 608.36,-73.86"/>
</a>
</g>
</g>
<!-- Node14 -->
<g id="Node000014" class="node">
<title>Node14</title>
<g id="a_Node000014"><a xlink:title=" ">
<polygon fill="#e0e0e0" stroke="#999999" points="284,-129 172,-129 172,-110 284,-110 284,-129"/>
<text text-anchor="middle" x="228" y="-117" font-family="Helvetica,sans-Serif" font-size="10.00">algoim/interval.hpp</text>
</a>
</g>
</g>
<!-- Node13&#45;&gt;Node14 -->
<g id="edge19_Node000013_Node000014" class="edge">
<title>Node13&#45;&gt;Node14</title>
<g id="a_edge19_Node000013_Node000014"><a xlink:title=" ">
<path fill="none" stroke="#63b8ff" d="M397.21,-170.49C362.75,-160.31 304.91,-143.22 266.6,-131.9"/>
<polygon fill="#63b8ff" stroke="#63b8ff" points="267.41,-128.49 256.83,-129.02 265.42,-135.21 267.41,-128.49"/>
</a>
</g>
</g>
<!-- Node15 -->
<g id="Node000015" class="node">
<title>Node15</title>
<g id="a_Node000015"><a xlink:title=" ">
<polygon fill="#e0e0e0" stroke="#999999" points="154,-129 104,-129 104,-110 154,-110 154,-129"/>
<text text-anchor="middle" x="129" y="-117" font-family="Helvetica,sans-Serif" font-size="10.00">cstdint</text>
</a>
</g>
</g>
<!-- Node13&#45;&gt;Node15 -->
<g id="edge20_Node000013_Node000015" class="edge">
<title>Node13&#45;&gt;Node15</title>
<g id="a_edge20_Node000013_Node000015"><a xlink:title=" ">
<path fill="none" stroke="#63b8ff" d="M376.39,-170.44C325.56,-161.47 244.02,-146.56 164.41,-129.21"/>
<polygon fill="#63b8ff" stroke="#63b8ff" points="164.73,-125.7 154.21,-126.97 163.23,-132.54 164.73,-125.7"/>
</a>
</g>
</g>
<!-- Node16 -->
<g id="Node000016" class="node">
<title>Node16</title>
<g id="a_Node000016"><a xlink:title=" ">
<polygon fill="#e0e0e0" stroke="#999999" points="931.5,-129 862.5,-129 862.5,-110 931.5,-110 931.5,-129"/>
<text text-anchor="middle" x="897" y="-117" font-family="Helvetica,sans-Serif" font-size="10.00">type_traits</text>
</a>
</g>
</g>
<!-- Node13&#45;&gt;Node16 -->
<g id="edge21_Node000013_Node000016" class="edge">
<title>Node13&#45;&gt;Node16</title>
<g id="a_edge21_Node000013_Node000016"><a xlink:title=" ">
<path fill="none" stroke="#63b8ff" d="M501.05,-171.92C584.34,-163.67 722.93,-148.8 852.36,-128.98"/>
<polygon fill="#63b8ff" stroke="#63b8ff" points="853.11,-132.41 862.46,-127.42 852.04,-125.49 853.11,-132.41"/>
</a>
</g>
</g>
<!-- Node17&#45;&gt;Node3 -->
<g id="edge23_Node000017_Node000003" class="edge">
<title>Node17&#45;&gt;Node3</title>
<g id="a_edge23_Node000017_Node000003"><a xlink:title=" ">
<path fill="none" stroke="#63b8ff" d="M829.79,-287.14C795.88,-281.08 755.65,-270.05 724,-250 703.56,-237.05 686.9,-214.33 676.98,-198.52"/>
<polygon fill="#63b8ff" stroke="#63b8ff" points="679.85,-196.49 671.71,-189.71 673.84,-200.09 679.85,-196.49"/>
</a>
</g>
</g>
<!-- Node17&#45;&gt;Node6 -->
<g id="edge40_Node000017_Node000006" class="edge">
<title>Node17&#45;&gt;Node6</title>
<g id="a_edge40_Node000017_Node000006"><a xlink:title=" ">
<path fill="none" stroke="#63b8ff" d="M829.74,-291.78C666.1,-284.35 260.55,-259.75 143,-195 103.59,-173.29 59.45,-144.78 88,-110 108.66,-84.83 195.02,-73.64 254.27,-68.85"/>
<polygon fill="#63b8ff" stroke="#63b8ff" points="254.56,-72.34 264.26,-68.08 254.02,-65.36 254.56,-72.34"/>
</a>
</g>
</g>
<!-- Node17&#45;&gt;Node10 -->
<g id="edge43_Node000017_Node000010" class="edge">
<title>Node17&#45;&gt;Node10</title>
<g id="a_edge43_Node000017_Node000010"><a xlink:title=" ">
<path fill="none" stroke="#63b8ff" d="M904.06,-285.87C912.75,-271.87 931.94,-244.43 956,-231 1034.48,-187.19 1071.81,-229.02 1155,-195 1203.26,-175.26 1221.81,-171.52 1252,-129 1261.39,-115.77 1265.6,-97.65 1267.48,-84.15"/>
<polygon fill="#63b8ff" stroke="#63b8ff" points="1270.97,-84.43 1268.57,-74.1 1264.01,-83.67 1270.97,-84.43"/>
</a>
</g>
</g>
<!-- Node17&#45;&gt;Node13 -->
<g id="edge24_Node000017_Node000013" class="edge">
<title>Node17&#45;&gt;Node13</title>
<g id="a_edge24_Node000017_Node000013"><a xlink:title=" ">
<path fill="none" stroke="#63b8ff" d="M858.29,-285.94C817.43,-277.25 752.73,-263.23 697,-250 615.57,-230.67 520.92,-206.08 467.78,-192.09"/>
<polygon fill="#63b8ff" stroke="#63b8ff" points="468.6,-188.68 458.04,-189.52 466.82,-195.45 468.6,-188.68"/>
</a>
</g>
</g>
<!-- Node17&#45;&gt;Node18 -->
<g id="edge25_Node000017_Node000018" class="edge">
<title>Node17&#45;&gt;Node18</title>
<g id="a_edge25_Node000017_Node000018"><a xlink:title=" ">
<path fill="none" stroke="#63b8ff" d="M883.42,-285.98C868.23,-277.69 844.9,-264.94 827.1,-255.22"/>
<polygon fill="#63b8ff" stroke="#63b8ff" points="828.32,-251.89 817.87,-250.17 824.97,-258.04 828.32,-251.89"/>
</a>
</g>
</g>
<!-- Node17&#45;&gt;Node19 -->
<g id="edge39_Node000017_Node000019" class="edge">
<title>Node17&#45;&gt;Node19</title>
<g id="a_edge39_Node000017_Node000019"><a xlink:title=" ">
<path fill="none" stroke="#63b8ff" d="M900.09,-285.99C902.22,-272.66 908.1,-246.75 923,-231 936.5,-216.74 954.79,-206.28 972.73,-198.73"/>
<polygon fill="#63b8ff" stroke="#63b8ff" points="974.03,-201.98 982.04,-195.04 971.46,-195.47 974.03,-201.98"/>
</a>
</g>
</g>
<!-- Node17&#45;&gt;Node22 -->
<g id="edge41_Node000017_Node000022" class="edge">
<title>Node17&#45;&gt;Node22</title>
<g id="a_edge41_Node000017_Node000022"><a xlink:title=" ">
<path fill="none" stroke="#63b8ff" d="M917.96,-285.98C937.03,-277.42 966.66,-264.11 988.55,-254.28"/>
<polygon fill="#63b8ff" stroke="#63b8ff" points="990.01,-257.46 997.7,-250.17 987.14,-251.07 990.01,-257.46"/>
</a>
</g>
</g>
<!-- Node17&#45;&gt;Node23 -->
<g id="edge42_Node000017_Node000023" class="edge">
<title>Node17&#45;&gt;Node23</title>
<g id="a_edge42_Node000017_Node000023"><a xlink:title=" ">
<path fill="none" stroke="#63b8ff" d="M933.86,-285.98C972.96,-276.44 1036.21,-260.99 1076.95,-251.04"/>
<polygon fill="#63b8ff" stroke="#63b8ff" points="1077.9,-254.41 1086.79,-248.63 1076.24,-247.61 1077.9,-254.41"/>
</a>
</g>
</g>
<!-- Node18&#45;&gt;Node3 -->
<g id="edge26_Node000018_Node000003" class="edge">
<title>Node18&#45;&gt;Node3</title>
<g id="a_edge26_Node000018_Node000003"><a xlink:title=" ">
<path fill="none" stroke="#63b8ff" d="M782.37,-230.99C759.67,-221.16 722.1,-204.88 696.03,-193.58"/>
<polygon fill="#63b8ff" stroke="#63b8ff" points="697.22,-190.28 686.65,-189.52 694.44,-196.7 697.22,-190.28"/>
</a>
</g>
</g>
<!-- Node18&#45;&gt;Node5 -->
<g id="edge28_Node000018_Node000005" class="edge">
<title>Node18&#45;&gt;Node5</title>
<g id="a_edge28_Node000018_Node000005"><a xlink:title=" ">
<path fill="none" stroke="#63b8ff" d="M792.83,-230.57C778.16,-216.37 748.37,-187.9 722,-165 710.29,-154.83 696.75,-143.87 686.04,-135.37"/>
<polygon fill="#63b8ff" stroke="#63b8ff" points="688.16,-132.59 678.14,-129.14 683.83,-138.08 688.16,-132.59"/>
</a>
</g>
</g>
<!-- Node18&#45;&gt;Node6 -->
<g id="edge36_Node000018_Node000006" class="edge">
<title>Node18&#45;&gt;Node6</title>
<g id="a_edge36_Node000018_Node000006"><a xlink:title=" ">
<path fill="none" stroke="#63b8ff" d="M732.91,-240.11C570.38,-239.87 171.7,-228.89 95,-129 89.86,-122.3 89.66,-116.54 95,-110 114.78,-85.75 197.09,-74.35 254.45,-69.26"/>
<polygon fill="#63b8ff" stroke="#63b8ff" points="254.82,-72.74 264.49,-68.41 254.23,-65.77 254.82,-72.74"/>
</a>
</g>
</g>
<!-- Node18&#45;&gt;Node10 -->
<g id="edge38_Node000018_Node000010" class="edge">
<title>Node18&#45;&gt;Node10</title>
<g id="a_edge38_Node000018_Node000010"><a xlink:title=" ">
<path fill="none" stroke="#63b8ff" d="M871.16,-235.42C932.47,-230.35 1023.84,-219.18 1100,-195 1162.14,-175.27 1183.26,-173.4 1231,-129 1244.64,-116.31 1255.03,-97.62 1261.46,-83.8"/>
<polygon fill="#63b8ff" stroke="#63b8ff" points="1264.79,-84.92 1265.6,-74.36 1258.38,-82.11 1264.79,-84.92"/>
</a>
</g>
</g>
<!-- Node18&#45;&gt;Node13 -->
<g id="edge27_Node000018_Node000013" class="edge">
<title>Node18&#45;&gt;Node13</title>
<g id="a_edge27_Node000018_Node000013"><a xlink:title=" ">
<path fill="none" stroke="#63b8ff" d="M747.33,-230.99C679.24,-220.4 563.09,-202.33 490.66,-191.06"/>
<polygon fill="#63b8ff" stroke="#63b8ff" points="491.16,-187.6 480.74,-189.52 490.08,-194.51 491.16,-187.6"/>
</a>
</g>
</g>
<!-- Node18&#45;&gt;Node19 -->
<g id="edge29_Node000018_Node000019" class="edge">
<title>Node18&#45;&gt;Node19</title>
<g id="a_edge29_Node000018_Node000019"><a xlink:title=" ">
<path fill="none" stroke="#63b8ff" d="M836.03,-230.99C871.26,-222.18 927.18,-208.2 970.94,-197.26"/>
<polygon fill="#63b8ff" stroke="#63b8ff" points="971.79,-200.66 980.65,-194.84 970.1,-193.87 971.79,-200.66"/>
</a>
</g>
</g>
<!-- Node20 -->
<g id="Node000020" class="node">
<title>Node20</title>
<g id="a_Node000020"><a xlink:title=" ">
<polygon fill="#e0e0e0" stroke="#999999" points="1062,-129 1010,-129 1010,-110 1062,-110 1062,-129"/>
<text text-anchor="middle" x="1036" y="-117" font-family="Helvetica,sans-Serif" font-size="10.00">cassert</text>
</a>
</g>
</g>
<!-- Node18&#45;&gt;Node20 -->
<g id="edge37_Node000018_Node000020" class="edge">
<title>Node18&#45;&gt;Node20</title>
<g id="a_edge37_Node000018_Node000020"><a xlink:title=" ">
<path fill="none" stroke="#63b8ff" d="M818.83,-230.94C859.12,-210.45 961.38,-158.45 1009.8,-133.82"/>
<polygon fill="#63b8ff" stroke="#63b8ff" points="1011.68,-136.79 1019.01,-129.14 1008.51,-130.55 1011.68,-136.79"/>
</a>
</g>
</g>
<!-- Node19&#45;&gt;Node7 -->
<g id="edge33_Node000019_Node000007" class="edge">
<title>Node19&#45;&gt;Node7</title>
<g id="a_edge33_Node000019_Node000007"><a xlink:title=" ">
<path fill="none" stroke="#63b8ff" d="M1058.64,-164.84C1078.64,-150.59 1102.41,-128.18 1087,-110 1050.13,-66.52 648.49,-25.59 523.74,-13.85"/>
<polygon fill="#63b8ff" stroke="#63b8ff" points="523.84,-10.34 513.56,-12.9 523.19,-17.31 523.84,-10.34"/>
</a>
</g>
</g>
<!-- Node19&#45;&gt;Node8 -->
<g id="edge30_Node000019_Node000008" class="edge">
<title>Node19&#45;&gt;Node8</title>
<g id="a_edge30_Node000019_Node000008"><a xlink:title=" ">
<path fill="none" stroke="#63b8ff" d="M1052.29,-164.75C1067.43,-149.82 1085.61,-126.31 1071,-110 1048.44,-84.82 833.31,-72.4 726.52,-67.75"/>
<polygon fill="#63b8ff" stroke="#63b8ff" points="726.37,-64.24 716.23,-67.31 726.07,-71.23 726.37,-64.24"/>
</a>
</g>
</g>
<!-- Node19&#45;&gt;Node12 -->
<g id="edge31_Node000019_Node000012" class="edge">
<title>Node19&#45;&gt;Node12</title>
<g id="a_edge31_Node000019_Node000012"><a xlink:title=" ">
<path fill="none" stroke="#63b8ff" d="M1020.27,-164.84C1010.64,-156.17 998.31,-145.08 988.39,-136.15"/>
<polygon fill="#63b8ff" stroke="#63b8ff" points="990.51,-133.35 980.74,-129.27 985.83,-138.56 990.51,-133.35"/>
</a>
</g>
</g>
<!-- Node19&#45;&gt;Node16 -->
<g id="edge35_Node000019_Node000016" class="edge">
<title>Node19&#45;&gt;Node16</title>
<g id="a_edge35_Node000019_Node000016"><a xlink:title=" ">
<path fill="none" stroke="#63b8ff" d="M1002.71,-164.99C979.62,-155.27 949.13,-142.44 926.84,-133.06"/>
<polygon fill="#63b8ff" stroke="#63b8ff" points="928.1,-129.79 917.53,-129.14 925.39,-136.24 928.1,-129.79"/>
</a>
</g>
</g>
<!-- Node19&#45;&gt;Node20 -->
<g id="edge32_Node000019_Node000020" class="edge">
<title>Node19&#45;&gt;Node20</title>
<g id="a_edge32_Node000019_Node000020"><a xlink:title=" ">
<path fill="none" stroke="#63b8ff" d="M1036,-164.84C1036,-157.21 1036,-147.7 1036,-139.45"/>
<polygon fill="#63b8ff" stroke="#63b8ff" points="1039.5,-139.27 1036,-129.27 1032.5,-139.27 1039.5,-139.27"/>
</a>
</g>
</g>
<!-- Node21 -->
<g id="Node000021" class="node">
<title>Node21</title>
<g id="a_Node000021"><a xlink:title=" ">
<polygon fill="#e0e0e0" stroke="#999999" points="1221.5,-129 1156.5,-129 1156.5,-110 1221.5,-110 1221.5,-129"/>
<text text-anchor="middle" x="1189" y="-117" font-family="Helvetica,sans-Serif" font-size="10.00">functional</text>
</a>
</g>
</g>
<!-- Node19&#45;&gt;Node21 -->
<g id="edge34_Node000019_Node000021" class="edge">
<title>Node19&#45;&gt;Node21</title>
<g id="a_edge34_Node000019_Node000021"><a xlink:title=" ">
<path fill="none" stroke="#63b8ff" d="M1072.65,-164.99C1098.29,-155.18 1132.22,-142.21 1156.82,-132.81"/>
<polygon fill="#63b8ff" stroke="#63b8ff" points="1158.31,-135.98 1166.41,-129.14 1155.81,-129.44 1158.31,-135.98"/>
</a>
</g>
</g>
</g>
</svg>
