<?xml version="1.0" encoding="UTF-8" standalone="no"?>
<!DOCTYPE svg PUBLIC "-//W3C//DTD SVG 1.1//EN"
 "http://www.w3.org/Graphics/SVG/1.1/DTD/svg11.dtd">
<!-- Generated by graphviz version 2.43.0 (0)
 -->
<!-- Title: /__w/qugar/qugar/cpp/include/qugar/polynomial_tp.hpp Pages: 1 -->
<svg width="1176pt" height="280pt"
 viewBox="0.00 0.00 1176.02 280.00" xmlns="http://www.w3.org/2000/svg" xmlns:xlink="http://www.w3.org/1999/xlink">
<g id="graph0" class="graph" transform="scale(1 1) rotate(0) translate(4 276)">
<title>/__w/qugar/qugar/cpp/include/qugar/polynomial_tp.hpp</title>
<!-- Node1 -->
<g id="Node000001" class="node">
<title>Node1</title>
<g id="a_Node000001"><a xlink:title="Declaration of tensor&#45;product polynomial class.">
<polygon fill="#999999" stroke="#666666" points="638.52,-272 495.52,-272 495.52,-231 638.52,-231 638.52,-272"/>
<text text-anchor="start" x="503.52" y="-260" font-family="Helvetica,sans-Serif" font-size="10.00">/__w/qugar/qugar/cpp</text>
<text text-anchor="start" x="503.52" y="-249" font-family="Helvetica,sans-Serif" font-size="10.00">/include/qugar/polynomial</text>
<text text-anchor="middle" x="567.02" y="-238" font-family="Helvetica,sans-Serif" font-size="10.00">_tp.hpp</text>
</a>
</g>
</g>
<!-- Node2 -->
<g id="Node000002" class="node">
<title>Node2</title>
<g id="a_Node000002"><a xlink:href="../../d5/d90/bbox_8hpp.html" target="_top" xlink:title="Definition of Cartesian bounding box class.">
<polygon fill="white" stroke="#666666" points="339.02,-189.5 247.02,-189.5 247.02,-170.5 339.02,-170.5 339.02,-189.5"/>
<text text-anchor="middle" x="293.02" y="-177.5" font-family="Helvetica,sans-Serif" font-size="10.00">qugar/bbox.hpp</text>
</a>
</g>
</g>
<!-- Node1&#45;&gt;Node2 -->
<g id="edge1_Node000001_Node000002" class="edge">
<title>Node1&#45;&gt;Node2</title>
<g id="a_edge1_Node000001_Node000002"><a xlink:title=" ">
<path fill="none" stroke="#63b8ff" d="M495.39,-232.33C445.04,-219.56 379.3,-202.89 336.63,-192.06"/>
<polygon fill="#63b8ff" stroke="#63b8ff" points="337.39,-188.64 326.84,-189.58 335.67,-195.43 337.39,-188.64"/>
</a>
</g>
</g>
<!-- Node4 -->
<g id="Node000004" class="node">
<title>Node4</title>
<g id="a_Node000004"><a xlink:href="../../d0/de4/point_8hpp.html" target="_top" xlink:title="Definition and implementation of Point class.">
<polygon fill="white" stroke="#666666" points="478.52,-129 385.52,-129 385.52,-110 478.52,-110 478.52,-129"/>
<text text-anchor="middle" x="432.02" y="-117" font-family="Helvetica,sans-Serif" font-size="10.00">qugar/point.hpp</text>
</a>
</g>
</g>
<!-- Node1&#45;&gt;Node4 -->
<g id="edge21_Node000001_Node000004" class="edge">
<title>Node1&#45;&gt;Node4</title>
<g id="a_edge21_Node000001_Node000004"><a xlink:title=" ">
<path fill="none" stroke="#63b8ff" d="M546.52,-230.76C519.61,-204.85 472.93,-159.89 448.31,-136.18"/>
<polygon fill="#63b8ff" stroke="#63b8ff" points="450.49,-133.43 440.86,-129.01 445.64,-138.47 450.49,-133.43"/>
</a>
</g>
</g>
<!-- Node5 -->
<g id="Node000005" class="node">
<title>Node5</title>
<g id="a_Node000005"><a xlink:href="../../dd/de3/types_8hpp.html" target="_top" xlink:title="Declaration of types.">
<polygon fill="white" stroke="#666666" points="555.52,-74 460.52,-74 460.52,-55 555.52,-55 555.52,-74"/>
<text text-anchor="middle" x="508.02" y="-62" font-family="Helvetica,sans-Serif" font-size="10.00">qugar/types.hpp</text>
</a>
</g>
</g>
<!-- Node1&#45;&gt;Node5 -->
<g id="edge29_Node000001_Node000005" class="edge">
<title>Node1&#45;&gt;Node5</title>
<g id="a_edge29_Node000001_Node000005"><a xlink:title=" ">
<path fill="none" stroke="#63b8ff" d="M567.92,-230.87C568.44,-202.75 566.52,-149.99 548.02,-110 542.99,-99.11 534.35,-88.99 526.39,-81.16"/>
<polygon fill="#63b8ff" stroke="#63b8ff" points="528.53,-78.37 518.81,-74.15 523.78,-83.51 528.53,-78.37"/>
</a>
</g>
</g>
<!-- Node9 -->
<g id="Node000009" class="node">
<title>Node9</title>
<g id="a_Node000009"><a xlink:title=" ">
<polygon fill="#e0e0e0" stroke="#999999" points="316.52,-74 269.52,-74 269.52,-55 316.52,-55 316.52,-74"/>
<text text-anchor="middle" x="293.02" y="-62" font-family="Helvetica,sans-Serif" font-size="10.00">vector</text>
</a>
</g>
</g>
<!-- Node1&#45;&gt;Node9 -->
<g id="edge31_Node000001_Node000009" class="edge">
<title>Node1&#45;&gt;Node9</title>
<g id="a_edge31_Node000001_Node000009"><a xlink:title=" ">
<path fill="none" stroke="#63b8ff" d="M495.32,-246.26C357.21,-236.39 62.71,-206.53 4.02,-129 -1.07,-122.27 -1.47,-116.41 4.02,-110 36.49,-72.15 189.37,-66.18 258.7,-65.46"/>
<polygon fill="#63b8ff" stroke="#63b8ff" points="259.1,-68.96 269.07,-65.38 259.05,-61.96 259.1,-68.96"/>
</a>
</g>
</g>
<!-- Node12 -->
<g id="Node000012" class="node">
<title>Node12</title>
<g id="a_Node000012"><a xlink:href="../../dc/d7c/domain__function_8hpp.html" target="_top" xlink:title="Declaration of a few implicit functions template class ready to be consumed by Algoim.">
<polygon fill="white" stroke="#666666" points="794.02,-189.5 644.02,-189.5 644.02,-170.5 794.02,-170.5 794.02,-189.5"/>
<text text-anchor="middle" x="719.02" y="-177.5" font-family="Helvetica,sans-Serif" font-size="10.00">qugar/domain_function.hpp</text>
</a>
</g>
</g>
<!-- Node1&#45;&gt;Node12 -->
<g id="edge14_Node000001_Node000012" class="edge">
<title>Node1&#45;&gt;Node12</title>
<g id="a_edge14_Node000001_Node000012"><a xlink:title=" ">
<path fill="none" stroke="#63b8ff" d="M609.77,-230.96C635.89,-219.01 668.54,-204.08 691.32,-193.67"/>
<polygon fill="#63b8ff" stroke="#63b8ff" points="692.79,-196.84 700.43,-189.5 689.88,-190.48 692.79,-196.84"/>
</a>
</g>
</g>
<!-- Node16 -->
<g id="Node000016" class="node">
<title>Node16</title>
<g id="a_Node000016"><a xlink:href="../../d9/d43/tensor__index__tp_8hpp.html" target="_top" xlink:title="Declaration of tensor&#45;product index and size related classes.">
<polygon fill="white" stroke="#666666" points="1044.02,-195 934.02,-195 934.02,-165 1044.02,-165 1044.02,-195"/>
<text text-anchor="start" x="942.02" y="-183" font-family="Helvetica,sans-Serif" font-size="10.00">qugar/tensor_index</text>
<text text-anchor="middle" x="989.02" y="-172" font-family="Helvetica,sans-Serif" font-size="10.00">_tp.hpp</text>
</a>
</g>
</g>
<!-- Node1&#45;&gt;Node16 -->
<g id="edge22_Node000001_Node000016" class="edge">
<title>Node1&#45;&gt;Node16</title>
<g id="a_edge22_Node000001_Node000016"><a xlink:title=" ">
<path fill="none" stroke="#63b8ff" d="M638.61,-238.71C718.5,-225.55 846.66,-204.45 923.85,-191.73"/>
<polygon fill="#63b8ff" stroke="#63b8ff" points="924.63,-195.15 933.93,-190.07 923.5,-188.24 924.63,-195.15"/>
</a>
</g>
</g>
<!-- Node17 -->
<g id="Node000017" class="node">
<title>Node17</title>
<g id="a_Node000017"><a xlink:title=" ">
<polygon fill="#e0e0e0" stroke="#999999" points="1168.02,-129 1116.02,-129 1116.02,-110 1168.02,-110 1168.02,-129"/>
<text text-anchor="middle" x="1142.02" y="-117" font-family="Helvetica,sans-Serif" font-size="10.00">cassert</text>
</a>
</g>
</g>
<!-- Node1&#45;&gt;Node17 -->
<g id="edge30_Node000001_Node000017" class="edge">
<title>Node1&#45;&gt;Node17</title>
<g id="a_edge30_Node000001_Node000017"><a xlink:title=" ">
<path fill="none" stroke="#63b8ff" d="M638.94,-247.35C755.57,-241.41 980.25,-226.23 1053.02,-195 1083.58,-181.89 1111.72,-154.73 1127.86,-137.08"/>
<polygon fill="#63b8ff" stroke="#63b8ff" points="1130.76,-139.08 1134.78,-129.28 1125.53,-134.44 1130.76,-139.08"/>
</a>
</g>
</g>
<!-- Node3 -->
<g id="Node000003" class="node">
<title>Node3</title>
<g id="a_Node000003"><a xlink:href="../../d7/dd8/concepts_8hpp.html" target="_top" xlink:title="Declaration of concepts.">
<polygon fill="white" stroke="#666666" points="125.02,-129 13.02,-129 13.02,-110 125.02,-110 125.02,-129"/>
<text text-anchor="middle" x="69.02" y="-117" font-family="Helvetica,sans-Serif" font-size="10.00">qugar/concepts.hpp</text>
</a>
</g>
</g>
<!-- Node2&#45;&gt;Node3 -->
<g id="edge2_Node000002_Node000003" class="edge">
<title>Node2&#45;&gt;Node3</title>
<g id="a_edge2_Node000002_Node000003"><a xlink:title=" ">
<path fill="none" stroke="#63b8ff" d="M260.45,-170.49C221.05,-160.2 154.63,-142.86 111.31,-131.54"/>
<polygon fill="#63b8ff" stroke="#63b8ff" points="112.19,-128.16 101.63,-129.02 110.43,-134.93 112.19,-128.16"/>
</a>
</g>
</g>
<!-- Node2&#45;&gt;Node4 -->
<g id="edge3_Node000002_Node000004" class="edge">
<title>Node2&#45;&gt;Node4</title>
<g id="a_edge3_Node000002_Node000004"><a xlink:title=" ">
<path fill="none" stroke="#63b8ff" d="M313.23,-170.49C336.71,-160.62 375.63,-144.23 402.49,-132.93"/>
<polygon fill="#63b8ff" stroke="#63b8ff" points="403.93,-136.12 411.79,-129.02 401.21,-129.67 403.93,-136.12"/>
</a>
</g>
</g>
<!-- Node2&#45;&gt;Node5 -->
<g id="edge10_Node000002_Node000005" class="edge">
<title>Node2&#45;&gt;Node5</title>
<g id="a_edge10_Node000002_Node000005"><a xlink:title=" ">
<path fill="none" stroke="#63b8ff" d="M267.73,-170.42C236.07,-158.36 188.43,-135.05 210.02,-110 225.48,-92.07 368.06,-77.25 450.27,-70.1"/>
<polygon fill="#63b8ff" stroke="#63b8ff" points="450.81,-73.57 460.47,-69.23 450.21,-66.59 450.81,-73.57"/>
</a>
</g>
</g>
<!-- Node6 -->
<g id="Node000006" class="node">
<title>Node6</title>
<g id="a_Node000006"><a xlink:title=" ">
<polygon fill="#e0e0e0" stroke="#999999" points="496.52,-19 443.52,-19 443.52,0 496.52,0 496.52,-19"/>
<text text-anchor="middle" x="470.02" y="-7" font-family="Helvetica,sans-Serif" font-size="10.00">cstddef</text>
</a>
</g>
</g>
<!-- Node2&#45;&gt;Node6 -->
<g id="edge13_Node000002_Node000006" class="edge">
<title>Node2&#45;&gt;Node6</title>
<g id="a_edge13_Node000002_Node000006"><a xlink:title=" ">
<path fill="none" stroke="#63b8ff" d="M261.43,-170.49C229.9,-160.14 187.88,-140.21 201.02,-110 238.74,-23.28 368.56,-10.47 433.05,-9.63"/>
<polygon fill="#63b8ff" stroke="#63b8ff" points="433.2,-13.13 443.19,-9.59 433.18,-6.13 433.2,-13.13"/>
</a>
</g>
</g>
<!-- Node10 -->
<g id="Node000010" class="node">
<title>Node10</title>
<g id="a_Node000010"><a xlink:title=" ">
<polygon fill="#e0e0e0" stroke="#999999" points="367.02,-129 219.02,-129 219.02,-110 367.02,-110 367.02,-129"/>
<text text-anchor="middle" x="293.02" y="-117" font-family="Helvetica,sans-Serif" font-size="10.00">algoim/hyperrectangle.hpp</text>
</a>
</g>
</g>
<!-- Node2&#45;&gt;Node10 -->
<g id="edge11_Node000002_Node000010" class="edge">
<title>Node2&#45;&gt;Node10</title>
<g id="a_edge11_Node000002_Node000010"><a xlink:title=" ">
<path fill="none" stroke="#63b8ff" d="M293.02,-170.37C293.02,-162.25 293.02,-149.81 293.02,-139.39"/>
<polygon fill="#63b8ff" stroke="#63b8ff" points="296.52,-139.17 293.02,-129.17 289.52,-139.17 296.52,-139.17"/>
</a>
</g>
</g>
<!-- Node11 -->
<g id="Node000011" class="node">
<title>Node11</title>
<g id="a_Node000011"><a xlink:title=" ">
<polygon fill="#e0e0e0" stroke="#999999" points="539.02,-129 497.02,-129 497.02,-110 539.02,-110 539.02,-129"/>
<text text-anchor="middle" x="518.02" y="-117" font-family="Helvetica,sans-Serif" font-size="10.00">array</text>
</a>
</g>
</g>
<!-- Node2&#45;&gt;Node11 -->
<g id="edge12_Node000002_Node000011" class="edge">
<title>Node2&#45;&gt;Node11</title>
<g id="a_edge12_Node000002_Node000011"><a xlink:title=" ">
<path fill="none" stroke="#63b8ff" d="M327.26,-170.5C364.27,-161.25 425.25,-145.83 486.85,-129.27"/>
<polygon fill="#63b8ff" stroke="#63b8ff" points="487.99,-132.59 496.74,-126.6 486.17,-125.83 487.99,-132.59"/>
</a>
</g>
</g>
<!-- Node4&#45;&gt;Node5 -->
<g id="edge4_Node000004_Node000005" class="edge">
<title>Node4&#45;&gt;Node5</title>
<g id="a_edge4_Node000004_Node000005"><a xlink:title=" ">
<path fill="none" stroke="#63b8ff" d="M444.23,-109.98C455.8,-101.92 473.4,-89.65 487.18,-80.03"/>
<polygon fill="#63b8ff" stroke="#63b8ff" points="489.39,-82.76 495.59,-74.17 485.39,-77.02 489.39,-82.76"/>
</a>
</g>
</g>
<!-- Node4&#45;&gt;Node6 -->
<g id="edge8_Node000004_Node000006" class="edge">
<title>Node4&#45;&gt;Node6</title>
<g id="a_edge8_Node000004_Node000006"><a xlink:title=" ">
<path fill="none" stroke="#63b8ff" d="M434.53,-109.8C438.12,-97.5 445.07,-74.36 452.02,-55 455.16,-46.27 458.97,-36.73 462.27,-28.72"/>
<polygon fill="#63b8ff" stroke="#63b8ff" points="465.59,-29.86 466.23,-19.29 459.13,-27.15 465.59,-29.86"/>
</a>
</g>
</g>
<!-- Node7 -->
<g id="Node000007" class="node">
<title>Node7</title>
<g id="a_Node000007"><a xlink:href="../../da/d16/vector_8hpp.html" target="_top" xlink:title=" ">
<polygon fill="white" stroke="#666666" points="890.02,-74 792.02,-74 792.02,-55 890.02,-55 890.02,-74"/>
<text text-anchor="middle" x="841.02" y="-62" font-family="Helvetica,sans-Serif" font-size="10.00">qugar/vector.hpp</text>
</a>
</g>
</g>
<!-- Node4&#45;&gt;Node7 -->
<g id="edge6_Node000004_Node000007" class="edge">
<title>Node4&#45;&gt;Node7</title>
<g id="a_edge6_Node000004_Node000007"><a xlink:title=" ">
<path fill="none" stroke="#63b8ff" d="M478.76,-111.32C481.89,-110.86 485,-110.42 488.02,-110 591.24,-95.66 711.72,-80.9 781.88,-72.49"/>
<polygon fill="#63b8ff" stroke="#63b8ff" points="782.35,-75.96 791.86,-71.3 781.52,-69.01 782.35,-75.96"/>
</a>
</g>
</g>
<!-- Node4&#45;&gt;Node9 -->
<g id="edge9_Node000004_Node000009" class="edge">
<title>Node4&#45;&gt;Node9</title>
<g id="a_edge9_Node000004_Node000009"><a xlink:title=" ">
<path fill="none" stroke="#63b8ff" d="M409.69,-109.98C386.83,-101.27 351.07,-87.63 325.16,-77.75"/>
<polygon fill="#63b8ff" stroke="#63b8ff" points="326.35,-74.46 315.76,-74.17 323.86,-81 326.35,-74.46"/>
</a>
</g>
</g>
<!-- Node5&#45;&gt;Node6 -->
<g id="edge5_Node000005_Node000006" class="edge">
<title>Node5&#45;&gt;Node6</title>
<g id="a_edge5_Node000005_Node000006"><a xlink:title=" ">
<path fill="none" stroke="#63b8ff" d="M501.75,-54.75C496.44,-47.34 488.67,-36.5 482.15,-27.41"/>
<polygon fill="#63b8ff" stroke="#63b8ff" points="484.85,-25.18 476.18,-19.09 479.16,-29.26 484.85,-25.18"/>
</a>
</g>
</g>
<!-- Node8 -->
<g id="Node000008" class="node">
<title>Node8</title>
<g id="a_Node000008"><a xlink:title=" ">
<polygon fill="#e0e0e0" stroke="#999999" points="896.02,-19 786.02,-19 786.02,0 896.02,0 896.02,-19"/>
<text text-anchor="middle" x="841.02" y="-7" font-family="Helvetica,sans-Serif" font-size="10.00">algoim/uvector.hpp</text>
</a>
</g>
</g>
<!-- Node7&#45;&gt;Node8 -->
<g id="edge7_Node000007_Node000008" class="edge">
<title>Node7&#45;&gt;Node8</title>
<g id="a_edge7_Node000007_Node000008"><a xlink:title=" ">
<path fill="none" stroke="#63b8ff" d="M841.02,-54.75C841.02,-47.8 841.02,-37.85 841.02,-29.13"/>
<polygon fill="#63b8ff" stroke="#63b8ff" points="844.52,-29.09 841.02,-19.09 837.52,-29.09 844.52,-29.09"/>
</a>
</g>
</g>
<!-- Node12&#45;&gt;Node4 -->
<g id="edge16_Node000012_Node000004" class="edge">
<title>Node12&#45;&gt;Node4</title>
<g id="a_edge16_Node000012_Node000004"><a xlink:title=" ">
<path fill="none" stroke="#63b8ff" d="M677.29,-170.49C626.07,-160.05 539.2,-142.35 483.77,-131.05"/>
<polygon fill="#63b8ff" stroke="#63b8ff" points="484.3,-127.58 473.81,-129.02 482.91,-134.44 484.3,-127.58"/>
</a>
</g>
</g>
<!-- Node12&#45;&gt;Node5 -->
<g id="edge15_Node000012_Node000005" class="edge">
<title>Node12&#45;&gt;Node5</title>
<g id="a_edge15_Node000012_Node000005"><a xlink:title=" ">
<path fill="none" stroke="#63b8ff" d="M737.89,-170.33C763.29,-157.5 803.23,-132.55 784.02,-110 756.58,-77.78 638.41,-68.8 565.88,-66.36"/>
<polygon fill="#63b8ff" stroke="#63b8ff" points="565.63,-62.85 555.53,-66.04 565.42,-69.85 565.63,-62.85"/>
</a>
</g>
</g>
<!-- Node12&#45;&gt;Node7 -->
<g id="edge17_Node000012_Node000007" class="edge">
<title>Node12&#45;&gt;Node7</title>
<g id="a_edge17_Node000012_Node000007"><a xlink:title=" ">
<path fill="none" stroke="#63b8ff" d="M748.35,-170.43C769.96,-162.75 798.68,-149.49 817.02,-129 828.31,-116.39 834.49,-97.94 837.74,-84.18"/>
<polygon fill="#63b8ff" stroke="#63b8ff" points="841.17,-84.84 839.75,-74.34 834.31,-83.44 841.17,-84.84"/>
</a>
</g>
</g>
<!-- Node13 -->
<g id="Node000013" class="node">
<title>Node13</title>
<g id="a_Node000013"><a xlink:title=" ">
<polygon fill="#e0e0e0" stroke="#999999" points="775.02,-129 663.02,-129 663.02,-110 775.02,-110 775.02,-129"/>
<text text-anchor="middle" x="719.02" y="-117" font-family="Helvetica,sans-Serif" font-size="10.00">algoim/interval.hpp</text>
</a>
</g>
</g>
<!-- Node12&#45;&gt;Node13 -->
<g id="edge18_Node000012_Node000013" class="edge">
<title>Node12&#45;&gt;Node13</title>
<g id="a_edge18_Node000012_Node000013"><a xlink:title=" ">
<path fill="none" stroke="#63b8ff" d="M719.02,-170.37C719.02,-162.25 719.02,-149.81 719.02,-139.39"/>
<polygon fill="#63b8ff" stroke="#63b8ff" points="722.52,-139.17 719.02,-129.17 715.52,-139.17 722.52,-139.17"/>
</a>
</g>
</g>
<!-- Node14 -->
<g id="Node000014" class="node">
<title>Node14</title>
<g id="a_Node000014"><a xlink:title=" ">
<polygon fill="#e0e0e0" stroke="#999999" points="645.02,-129 595.02,-129 595.02,-110 645.02,-110 645.02,-129"/>
<text text-anchor="middle" x="620.02" y="-117" font-family="Helvetica,sans-Serif" font-size="10.00">cstdint</text>
</a>
</g>
</g>
<!-- Node12&#45;&gt;Node14 -->
<g id="edge19_Node000012_Node000014" class="edge">
<title>Node12&#45;&gt;Node14</title>
<g id="a_edge19_Node000012_Node000014"><a xlink:title=" ">
<path fill="none" stroke="#63b8ff" d="M704.42,-170.37C688.33,-160.86 662.24,-145.45 643.33,-134.27"/>
<polygon fill="#63b8ff" stroke="#63b8ff" points="645.08,-131.24 634.69,-129.17 641.52,-137.27 645.08,-131.24"/>
</a>
</g>
</g>
<!-- Node15 -->
<g id="Node000015" class="node">
<title>Node15</title>
<g id="a_Node000015"><a xlink:title=" ">
<polygon fill="#e0e0e0" stroke="#999999" points="938.52,-129 869.52,-129 869.52,-110 938.52,-110 938.52,-129"/>
<text text-anchor="middle" x="904.02" y="-117" font-family="Helvetica,sans-Serif" font-size="10.00">type_traits</text>
</a>
</g>
</g>
<!-- Node12&#45;&gt;Node15 -->
<g id="edge20_Node000012_Node000015" class="edge">
<title>Node12&#45;&gt;Node15</title>
<g id="a_edge20_Node000012_Node000015"><a xlink:title=" ">
<path fill="none" stroke="#63b8ff" d="M745.92,-170.49C777.98,-160.36 831.71,-143.37 867.5,-132.05"/>
<polygon fill="#63b8ff" stroke="#63b8ff" points="868.61,-135.37 877.09,-129.02 866.5,-128.69 868.61,-135.37"/>
</a>
</g>
</g>
<!-- Node16&#45;&gt;Node6 -->
<g id="edge26_Node000016_Node000006" class="edge">
<title>Node16&#45;&gt;Node6</title>
<g id="a_edge26_Node000016_Node000006"><a xlink:title=" ">
<path fill="none" stroke="#63b8ff" d="M1015.04,-164.82C1036.37,-151.28 1060.96,-130.04 1047.02,-110 984.99,-20.77 624.04,-11.18 506.79,-10.45"/>
<polygon fill="#63b8ff" stroke="#63b8ff" points="506.56,-6.95 496.54,-10.4 506.53,-13.95 506.56,-6.95"/>
</a>
</g>
</g>
<!-- Node16&#45;&gt;Node7 -->
<g id="edge23_Node000016_Node000007" class="edge">
<title>Node16&#45;&gt;Node7</title>
<g id="a_edge23_Node000016_Node000007"><a xlink:title=" ">
<path fill="none" stroke="#63b8ff" d="M1007.88,-164.86C1024.82,-150.42 1045.05,-127.69 1031.02,-110 1014.88,-89.63 949.84,-77.7 900.31,-71.4"/>
<polygon fill="#63b8ff" stroke="#63b8ff" points="900.67,-67.92 890.31,-70.18 899.82,-74.86 900.67,-67.92"/>
</a>
</g>
</g>
<!-- Node16&#45;&gt;Node11 -->
<g id="edge24_Node000016_Node000011" class="edge">
<title>Node16&#45;&gt;Node11</title>
<g id="a_edge24_Node000016_Node000011"><a xlink:title=" ">
<path fill="none" stroke="#63b8ff" d="M933.94,-172.18C856.33,-162.57 710.38,-144.49 586.02,-129 574,-127.5 560.78,-125.85 549.23,-124.41"/>
<polygon fill="#63b8ff" stroke="#63b8ff" points="549.51,-120.92 539.16,-123.15 548.65,-127.86 549.51,-120.92"/>
</a>
</g>
</g>
<!-- Node16&#45;&gt;Node15 -->
<g id="edge28_Node000016_Node000015" class="edge">
<title>Node16&#45;&gt;Node15</title>
<g id="a_edge28_Node000016_Node000015"><a xlink:title=" ">
<path fill="none" stroke="#63b8ff" d="M968.45,-164.84C955.35,-155.83 938.44,-144.18 925.22,-135.09"/>
<polygon fill="#63b8ff" stroke="#63b8ff" points="926.98,-132.05 916.76,-129.27 923.01,-137.82 926.98,-132.05"/>
</a>
</g>
</g>
<!-- Node16&#45;&gt;Node17 -->
<g id="edge25_Node000016_Node000017" class="edge">
<title>Node16&#45;&gt;Node17</title>
<g id="a_edge25_Node000016_Node000017"><a xlink:title=" ">
<path fill="none" stroke="#63b8ff" d="M1025.67,-164.99C1051.31,-155.18 1085.24,-142.21 1109.84,-132.81"/>
<polygon fill="#63b8ff" stroke="#63b8ff" points="1111.34,-135.98 1119.43,-129.14 1108.84,-129.44 1111.34,-135.98"/>
</a>
</g>
</g>
<!-- Node18 -->
<g id="Node000018" class="node">
<title>Node18</title>
<g id="a_Node000018"><a xlink:title=" ">
<polygon fill="#e0e0e0" stroke="#999999" points="1021.52,-129 956.52,-129 956.52,-110 1021.52,-110 1021.52,-129"/>
<text text-anchor="middle" x="989.02" y="-117" font-family="Helvetica,sans-Serif" font-size="10.00">functional</text>
</a>
</g>
</g>
<!-- Node16&#45;&gt;Node18 -->
<g id="edge27_Node000016_Node000018" class="edge">
<title>Node16&#45;&gt;Node18</title>
<g id="a_edge27_Node000016_Node000018"><a xlink:title=" ">
<path fill="none" stroke="#63b8ff" d="M989.02,-164.84C989.02,-157.21 989.02,-147.7 989.02,-139.45"/>
<polygon fill="#63b8ff" stroke="#63b8ff" points="992.52,-139.27 989.02,-129.27 985.52,-139.27 992.52,-139.27"/>
</a>
</g>
</g>
</g>
</svg>
