<?xml version="1.0" encoding="UTF-8" standalone="no"?>
<!DOCTYPE svg PUBLIC "-//W3C//DTD SVG 1.1//EN"
 "http://www.w3.org/Graphics/SVG/1.1/DTD/svg11.dtd">
<!-- Generated by graphviz version 2.43.0 (0)
 -->
<!-- Title: /__w/qugar/qugar/cpp/include/qugar/polynomial_tp.hpp Pages: 1 -->
<svg width="1150pt" height="280pt"
 viewBox="0.00 0.00 1149.85 280.00" xmlns="http://www.w3.org/2000/svg" xmlns:xlink="http://www.w3.org/1999/xlink">
<g id="graph0" class="graph" transform="scale(1 1) rotate(0) translate(4 276)">
<title>/__w/qugar/qugar/cpp/include/qugar/polynomial_tp.hpp</title>
<!-- Node1 -->
<g id="Node000001" class="node">
<title>Node1</title>
<g id="a_Node000001"><a xlink:title="Declaration of tensor&#45;product polynomial class.">
<polygon fill="#999999" stroke="#666666" points="701.47,-272 558.47,-272 558.47,-231 701.47,-231 701.47,-272"/>
<text text-anchor="start" x="566.47" y="-260" font-family="Helvetica,sans-Serif" font-size="10.00">/__w/qugar/qugar/cpp</text>
<text text-anchor="start" x="566.47" y="-249" font-family="Helvetica,sans-Serif" font-size="10.00">/include/qugar/polynomial</text>
<text text-anchor="middle" x="629.97" y="-238" font-family="Helvetica,sans-Serif" font-size="10.00">_tp.hpp</text>
</a>
</g>
</g>
<!-- Node2 -->
<g id="Node000002" class="node">
<title>Node2</title>
<g id="a_Node000002"><a xlink:href="../../d5/d90/bbox_8hpp.html" target="_top" xlink:title="Definition of Cartesian bounding box class.">
<polygon fill="white" stroke="#666666" points="293.97,-189.5 201.97,-189.5 201.97,-170.5 293.97,-170.5 293.97,-189.5"/>
<text text-anchor="middle" x="247.97" y="-177.5" font-family="Helvetica,sans-Serif" font-size="10.00">qugar/bbox.hpp</text>
</a>
</g>
</g>
<!-- Node1&#45;&gt;Node2 -->
<g id="edge1_Node000001_Node000002" class="edge">
<title>Node1&#45;&gt;Node2</title>
<g id="a_edge1_Node000001_Node000002"><a xlink:title=" ">
<path fill="none" stroke="#63b8ff" d="M558.12,-237.43C484.42,-224.02 371.32,-203.44 303.99,-191.19"/>
<polygon fill="#63b8ff" stroke="#63b8ff" points="304.46,-187.72 293.99,-189.37 303.21,-194.61 304.46,-187.72"/>
</a>
</g>
</g>
<!-- Node4 -->
<g id="Node000004" class="node">
<title>Node4</title>
<g id="a_Node000004"><a xlink:href="../../d0/de4/point_8hpp.html" target="_top" xlink:title="Definition and implementation of Point class.">
<polygon fill="white" stroke="#666666" points="415.47,-129 322.47,-129 322.47,-110 415.47,-110 415.47,-129"/>
<text text-anchor="middle" x="368.97" y="-117" font-family="Helvetica,sans-Serif" font-size="10.00">qugar/point.hpp</text>
</a>
</g>
</g>
<!-- Node1&#45;&gt;Node4 -->
<g id="edge21_Node000001_Node000004" class="edge">
<title>Node1&#45;&gt;Node4</title>
<g id="a_edge21_Node000001_Node000004"><a xlink:title=" ">
<path fill="none" stroke="#63b8ff" d="M590.61,-230.9C536.64,-204.01 441.11,-156.43 395.13,-133.53"/>
<polygon fill="#63b8ff" stroke="#63b8ff" points="396.61,-130.36 386.1,-129.03 393.49,-136.62 396.61,-130.36"/>
</a>
</g>
</g>
<!-- Node5 -->
<g id="Node000005" class="node">
<title>Node5</title>
<g id="a_Node000005"><a xlink:href="../../dd/de3/types_8hpp.html" target="_top" xlink:title="Declaration of types.">
<polygon fill="white" stroke="#666666" points="340.47,-74 245.47,-74 245.47,-55 340.47,-55 340.47,-74"/>
<text text-anchor="middle" x="292.97" y="-62" font-family="Helvetica,sans-Serif" font-size="10.00">qugar/types.hpp</text>
</a>
</g>
</g>
<!-- Node1&#45;&gt;Node5 -->
<g id="edge31_Node000001_Node000005" class="edge">
<title>Node1&#45;&gt;Node5</title>
<g id="a_edge31_Node000001_Node000005"><a xlink:title=" ">
<path fill="none" stroke="#63b8ff" d="M558.19,-248.39C407.63,-242.21 67.46,-218.42 3.97,-129 -0.92,-122.11 -1.53,-116.41 3.97,-110 33.13,-76.01 159.39,-67.73 235.04,-65.87"/>
<polygon fill="#63b8ff" stroke="#63b8ff" points="235.45,-69.37 245.37,-65.65 235.3,-62.37 235.45,-69.37"/>
</a>
</g>
</g>
<!-- Node9 -->
<g id="Node000009" class="node">
<title>Node9</title>
<g id="a_Node000009"><a xlink:title=" ">
<polygon fill="#e0e0e0" stroke="#999999" points="872.47,-74 825.47,-74 825.47,-55 872.47,-55 872.47,-74"/>
<text text-anchor="middle" x="848.97" y="-62" font-family="Helvetica,sans-Serif" font-size="10.00">vector</text>
</a>
</g>
</g>
<!-- Node1&#45;&gt;Node9 -->
<g id="edge33_Node000001_Node000009" class="edge">
<title>Node1&#45;&gt;Node9</title>
<g id="a_edge33_Node000001_Node000009"><a xlink:title=" ">
<path fill="none" stroke="#63b8ff" d="M701.65,-245.24C830.38,-234 1091.68,-202.46 1137.97,-129 1142.47,-121.86 1143.47,-116.41 1137.97,-110 1105.5,-72.15 952.62,-66.18 883.3,-65.46"/>
<polygon fill="#63b8ff" stroke="#63b8ff" points="882.95,-61.96 872.92,-65.38 882.9,-68.96 882.95,-61.96"/>
</a>
</g>
</g>
<!-- Node12 -->
<g id="Node000012" class="node">
<title>Node12</title>
<g id="a_Node000012"><a xlink:href="../../dc/d7c/domain__function_8hpp.html" target="_top" xlink:title="Declaration of a few implicit functions template class ready to be consumed by Algoim.">
<polygon fill="white" stroke="#666666" points="704.97,-189.5 554.97,-189.5 554.97,-170.5 704.97,-170.5 704.97,-189.5"/>
<text text-anchor="middle" x="629.97" y="-177.5" font-family="Helvetica,sans-Serif" font-size="10.00">qugar/domain_function.hpp</text>
</a>
</g>
</g>
<!-- Node1&#45;&gt;Node12 -->
<g id="edge14_Node000001_Node000012" class="edge">
<title>Node1&#45;&gt;Node12</title>
<g id="a_edge14_Node000001_Node000012"><a xlink:title=" ">
<path fill="none" stroke="#63b8ff" d="M629.97,-230.77C629.97,-221.08 629.97,-209.46 629.97,-199.88"/>
<polygon fill="#63b8ff" stroke="#63b8ff" points="633.47,-199.82 629.97,-189.82 626.47,-199.82 633.47,-199.82"/>
</a>
</g>
</g>
<!-- Node16 -->
<g id="Node000016" class="node">
<title>Node16</title>
<g id="a_Node000016"><a xlink:href="../../d9/d43/tensor__index__tp_8hpp.html" target="_top" xlink:title="Declaration of tensor&#45;product index and size related classes.">
<polygon fill="white" stroke="#666666" points="942.97,-195 832.97,-195 832.97,-165 942.97,-165 942.97,-195"/>
<text text-anchor="start" x="840.97" y="-183" font-family="Helvetica,sans-Serif" font-size="10.00">qugar/tensor_index</text>
<text text-anchor="middle" x="887.97" y="-172" font-family="Helvetica,sans-Serif" font-size="10.00">_tp.hpp</text>
</a>
</g>
</g>
<!-- Node1&#45;&gt;Node16 -->
<g id="edge22_Node000001_Node000016" class="edge">
<title>Node1&#45;&gt;Node16</title>
<g id="a_edge22_Node000001_Node000016"><a xlink:title=" ">
<path fill="none" stroke="#63b8ff" d="M701.5,-231.23C740.65,-220.69 788.68,-207.75 826.19,-197.64"/>
<polygon fill="#63b8ff" stroke="#63b8ff" points="827.23,-200.99 835.98,-195.01 825.41,-194.23 827.23,-200.99"/>
</a>
</g>
</g>
<!-- Node18 -->
<g id="Node000018" class="node">
<title>Node18</title>
<g id="a_Node000018"><a xlink:title=" ">
<polygon fill="#e0e0e0" stroke="#999999" points="1128.97,-129 1076.97,-129 1076.97,-110 1128.97,-110 1128.97,-129"/>
<text text-anchor="middle" x="1102.97" y="-117" font-family="Helvetica,sans-Serif" font-size="10.00">cassert</text>
</a>
</g>
</g>
<!-- Node1&#45;&gt;Node18 -->
<g id="edge32_Node000001_Node000018" class="edge">
<title>Node1&#45;&gt;Node18</title>
<g id="a_edge32_Node000001_Node000018"><a xlink:title=" ">
<path fill="none" stroke="#63b8ff" d="M701.74,-244.1C767.95,-236.81 868.36,-222.2 951.97,-195 999.67,-179.48 1051.27,-151.29 1080.11,-134.39"/>
<polygon fill="#63b8ff" stroke="#63b8ff" points="1082.17,-137.24 1088.98,-129.13 1078.59,-131.22 1082.17,-137.24"/>
</a>
</g>
</g>
<!-- Node3 -->
<g id="Node000003" class="node">
<title>Node3</title>
<g id="a_Node000003"><a xlink:href="../../d7/dd8/concepts_8hpp.html" target="_top" xlink:title="Declaration of concepts.">
<polygon fill="white" stroke="#666666" points="303.97,-129 191.97,-129 191.97,-110 303.97,-110 303.97,-129"/>
<text text-anchor="middle" x="247.97" y="-117" font-family="Helvetica,sans-Serif" font-size="10.00">qugar/concepts.hpp</text>
</a>
</g>
</g>
<!-- Node2&#45;&gt;Node3 -->
<g id="edge2_Node000002_Node000003" class="edge">
<title>Node2&#45;&gt;Node3</title>
<g id="a_edge2_Node000002_Node000003"><a xlink:title=" ">
<path fill="none" stroke="#63b8ff" d="M247.97,-170.37C247.97,-162.25 247.97,-149.81 247.97,-139.39"/>
<polygon fill="#63b8ff" stroke="#63b8ff" points="251.47,-139.17 247.97,-129.17 244.47,-139.17 251.47,-139.17"/>
</a>
</g>
</g>
<!-- Node2&#45;&gt;Node4 -->
<g id="edge3_Node000002_Node000004" class="edge">
<title>Node2&#45;&gt;Node4</title>
<g id="a_edge3_Node000002_Node000004"><a xlink:title=" ">
<path fill="none" stroke="#63b8ff" d="M265.57,-170.49C285.73,-160.75 318.99,-144.66 342.33,-133.38"/>
<polygon fill="#63b8ff" stroke="#63b8ff" points="343.88,-136.52 351.36,-129.02 340.83,-130.22 343.88,-136.52"/>
</a>
</g>
</g>
<!-- Node2&#45;&gt;Node5 -->
<g id="edge10_Node000002_Node000005" class="edge">
<title>Node2&#45;&gt;Node5</title>
<g id="a_edge10_Node000002_Node000005"><a xlink:title=" ">
<path fill="none" stroke="#63b8ff" d="M201.79,-179.69C120.45,-179.38 -35.07,-171.1 16.97,-110 44.42,-77.78 162.59,-68.8 235.11,-66.36"/>
<polygon fill="#63b8ff" stroke="#63b8ff" points="235.58,-69.85 245.47,-66.04 235.36,-62.85 235.58,-69.85"/>
</a>
</g>
</g>
<!-- Node6 -->
<g id="Node000006" class="node">
<title>Node6</title>
<g id="a_Node000006"><a xlink:title=" ">
<polygon fill="#e0e0e0" stroke="#999999" points="357.47,-19 304.47,-19 304.47,0 357.47,0 357.47,-19"/>
<text text-anchor="middle" x="330.97" y="-7" font-family="Helvetica,sans-Serif" font-size="10.00">cstddef</text>
</a>
</g>
</g>
<!-- Node2&#45;&gt;Node6 -->
<g id="edge13_Node000002_Node000006" class="edge">
<title>Node2&#45;&gt;Node6</title>
<g id="a_edge13_Node000002_Node000006"><a xlink:title=" ">
<path fill="none" stroke="#63b8ff" d="M201.93,-176.31C138.29,-171.52 28.47,-159.03 3.97,-129 -1.37,-122.46 -1.06,-116.78 3.97,-110 39.02,-62.7 216.18,-28.95 294.1,-16.16"/>
<polygon fill="#63b8ff" stroke="#63b8ff" points="295.1,-19.54 304.41,-14.49 293.98,-12.63 295.1,-19.54"/>
</a>
</g>
</g>
<!-- Node10 -->
<g id="Node000010" class="node">
<title>Node10</title>
<g id="a_Node000010"><a xlink:title=" ">
<polygon fill="#e0e0e0" stroke="#999999" points="173.97,-129 25.97,-129 25.97,-110 173.97,-110 173.97,-129"/>
<text text-anchor="middle" x="99.97" y="-117" font-family="Helvetica,sans-Serif" font-size="10.00">algoim/hyperrectangle.hpp</text>
</a>
</g>
</g>
<!-- Node2&#45;&gt;Node10 -->
<g id="edge11_Node000002_Node000010" class="edge">
<title>Node2&#45;&gt;Node10</title>
<g id="a_edge11_Node000002_Node000010"><a xlink:title=" ">
<path fill="none" stroke="#63b8ff" d="M226.45,-170.49C201.35,-160.57 159.65,-144.09 131.04,-132.78"/>
<polygon fill="#63b8ff" stroke="#63b8ff" points="132.1,-129.44 121.52,-129.02 129.53,-135.95 132.1,-129.44"/>
</a>
</g>
</g>
<!-- Node11 -->
<g id="Node000011" class="node">
<title>Node11</title>
<g id="a_Node000011"><a xlink:title=" ">
<polygon fill="#e0e0e0" stroke="#999999" points="475.97,-129 433.97,-129 433.97,-110 475.97,-110 475.97,-129"/>
<text text-anchor="middle" x="454.97" y="-117" font-family="Helvetica,sans-Serif" font-size="10.00">array</text>
</a>
</g>
</g>
<!-- Node2&#45;&gt;Node11 -->
<g id="edge12_Node000002_Node000011" class="edge">
<title>Node2&#45;&gt;Node11</title>
<g id="a_edge12_Node000002_Node000011"><a xlink:title=" ">
<path fill="none" stroke="#63b8ff" d="M278.07,-170.49C317.08,-159.47 384.76,-140.34 424.13,-129.22"/>
<polygon fill="#63b8ff" stroke="#63b8ff" points="425.29,-132.52 433.97,-126.44 423.39,-125.79 425.29,-132.52"/>
</a>
</g>
</g>
<!-- Node4&#45;&gt;Node5 -->
<g id="edge4_Node000004_Node000005" class="edge">
<title>Node4&#45;&gt;Node5</title>
<g id="a_edge4_Node000004_Node000005"><a xlink:title=" ">
<path fill="none" stroke="#63b8ff" d="M356.76,-109.98C345.2,-101.92 327.6,-89.65 313.81,-80.03"/>
<polygon fill="#63b8ff" stroke="#63b8ff" points="315.61,-77.02 305.4,-74.17 311.6,-82.76 315.61,-77.02"/>
</a>
</g>
</g>
<!-- Node4&#45;&gt;Node6 -->
<g id="edge8_Node000004_Node000006" class="edge">
<title>Node4&#45;&gt;Node6</title>
<g id="a_edge8_Node000004_Node000006"><a xlink:title=" ">
<path fill="none" stroke="#63b8ff" d="M366.47,-109.8C362.88,-97.5 355.92,-74.36 348.97,-55 345.84,-46.27 342.03,-36.73 338.72,-28.72"/>
<polygon fill="#63b8ff" stroke="#63b8ff" points="341.86,-27.15 334.77,-19.29 335.4,-29.86 341.86,-27.15"/>
</a>
</g>
</g>
<!-- Node7 -->
<g id="Node000007" class="node">
<title>Node7</title>
<g id="a_Node000007"><a xlink:href="../../da/d16/vector_8hpp.html" target="_top" xlink:title=" ">
<polygon fill="white" stroke="#666666" points="720.97,-74 622.97,-74 622.97,-55 720.97,-55 720.97,-74"/>
<text text-anchor="middle" x="671.97" y="-62" font-family="Helvetica,sans-Serif" font-size="10.00">qugar/vector.hpp</text>
</a>
</g>
</g>
<!-- Node4&#45;&gt;Node7 -->
<g id="edge6_Node000004_Node000007" class="edge">
<title>Node4&#45;&gt;Node7</title>
<g id="a_edge6_Node000004_Node000007"><a xlink:title=" ">
<path fill="none" stroke="#63b8ff" d="M415.65,-110.33C468.74,-101.05 555.51,-85.87 613.17,-75.79"/>
<polygon fill="#63b8ff" stroke="#63b8ff" points="613.98,-79.2 623.23,-74.03 612.78,-72.3 613.98,-79.2"/>
</a>
</g>
</g>
<!-- Node4&#45;&gt;Node9 -->
<g id="edge9_Node000004_Node000009" class="edge">
<title>Node4&#45;&gt;Node9</title>
<g id="a_edge9_Node000004_Node000009"><a xlink:title=" ">
<path fill="none" stroke="#63b8ff" d="M415.7,-111.24C418.84,-110.81 421.95,-110.39 424.97,-110 569.52,-91.45 742.53,-75.11 814.72,-68.56"/>
<polygon fill="#63b8ff" stroke="#63b8ff" points="815.37,-72.01 825.02,-67.62 814.74,-65.04 815.37,-72.01"/>
</a>
</g>
</g>
<!-- Node5&#45;&gt;Node6 -->
<g id="edge5_Node000005_Node000006" class="edge">
<title>Node5&#45;&gt;Node6</title>
<g id="a_edge5_Node000005_Node000006"><a xlink:title=" ">
<path fill="none" stroke="#63b8ff" d="M299.25,-54.75C304.56,-47.34 312.33,-36.5 318.85,-27.41"/>
<polygon fill="#63b8ff" stroke="#63b8ff" points="321.83,-29.26 324.81,-19.09 316.14,-25.18 321.83,-29.26"/>
</a>
</g>
</g>
<!-- Node8 -->
<g id="Node000008" class="node">
<title>Node8</title>
<g id="a_Node000008"><a xlink:title=" ">
<polygon fill="#e0e0e0" stroke="#999999" points="726.97,-19 616.97,-19 616.97,0 726.97,0 726.97,-19"/>
<text text-anchor="middle" x="671.97" y="-7" font-family="Helvetica,sans-Serif" font-size="10.00">algoim/uvector.hpp</text>
</a>
</g>
</g>
<!-- Node7&#45;&gt;Node8 -->
<g id="edge7_Node000007_Node000008" class="edge">
<title>Node7&#45;&gt;Node8</title>
<g id="a_edge7_Node000007_Node000008"><a xlink:title=" ">
<path fill="none" stroke="#63b8ff" d="M671.97,-54.75C671.97,-47.8 671.97,-37.85 671.97,-29.13"/>
<polygon fill="#63b8ff" stroke="#63b8ff" points="675.47,-29.09 671.97,-19.09 668.47,-29.09 675.47,-29.09"/>
</a>
</g>
</g>
<!-- Node12&#45;&gt;Node4 -->
<g id="edge16_Node000012_Node000004" class="edge">
<title>Node12&#45;&gt;Node4</title>
<g id="a_edge16_Node000012_Node000004"><a xlink:title=" ">
<path fill="none" stroke="#63b8ff" d="M592.02,-170.49C545.73,-160.12 467.42,-142.57 416.98,-131.26"/>
<polygon fill="#63b8ff" stroke="#63b8ff" points="417.49,-127.79 406.97,-129.02 415.96,-134.62 417.49,-127.79"/>
</a>
</g>
</g>
<!-- Node12&#45;&gt;Node5 -->
<g id="edge15_Node000012_Node000005" class="edge">
<title>Node12&#45;&gt;Node5</title>
<g id="a_edge15_Node000012_Node000005"><a xlink:title=" ">
<path fill="none" stroke="#63b8ff" d="M611.34,-170.48C589.94,-160.64 553.8,-143.91 522.97,-129 505.97,-120.78 502.74,-116.4 484.97,-110 441.09,-94.19 389.5,-82.6 350.85,-75.22"/>
<polygon fill="#63b8ff" stroke="#63b8ff" points="351.29,-71.74 340.82,-73.34 350,-78.62 351.29,-71.74"/>
</a>
</g>
</g>
<!-- Node12&#45;&gt;Node7 -->
<g id="edge17_Node000012_Node000007" class="edge">
<title>Node12&#45;&gt;Node7</title>
<g id="a_edge17_Node000012_Node000007"><a xlink:title=" ">
<path fill="none" stroke="#63b8ff" d="M634.42,-170.31C639.36,-160.46 647.37,-143.84 652.97,-129 658.57,-114.18 663.64,-96.93 667.13,-84.16"/>
<polygon fill="#63b8ff" stroke="#63b8ff" points="670.58,-84.82 669.77,-74.26 663.81,-83.02 670.58,-84.82"/>
</a>
</g>
</g>
<!-- Node13 -->
<g id="Node000013" class="node">
<title>Node13</title>
<g id="a_Node000013"><a xlink:title=" ">
<polygon fill="#e0e0e0" stroke="#999999" points="643.97,-129 531.97,-129 531.97,-110 643.97,-110 643.97,-129"/>
<text text-anchor="middle" x="587.97" y="-117" font-family="Helvetica,sans-Serif" font-size="10.00">algoim/interval.hpp</text>
</a>
</g>
</g>
<!-- Node12&#45;&gt;Node13 -->
<g id="edge18_Node000012_Node000013" class="edge">
<title>Node12&#45;&gt;Node13</title>
<g id="a_edge18_Node000012_Node000013"><a xlink:title=" ">
<path fill="none" stroke="#63b8ff" d="M623.77,-170.37C617.57,-161.73 607.86,-148.2 600.12,-137.42"/>
<polygon fill="#63b8ff" stroke="#63b8ff" points="602.87,-135.25 594.19,-129.17 597.18,-139.33 602.87,-135.25"/>
</a>
</g>
</g>
<!-- Node14 -->
<g id="Node000014" class="node">
<title>Node14</title>
<g id="a_Node000014"><a xlink:title=" ">
<polygon fill="#e0e0e0" stroke="#999999" points="749.97,-129 699.97,-129 699.97,-110 749.97,-110 749.97,-129"/>
<text text-anchor="middle" x="724.97" y="-117" font-family="Helvetica,sans-Serif" font-size="10.00">cstdint</text>
</a>
</g>
</g>
<!-- Node12&#45;&gt;Node14 -->
<g id="edge19_Node000012_Node000014" class="edge">
<title>Node12&#45;&gt;Node14</title>
<g id="a_edge19_Node000012_Node000014"><a xlink:title=" ">
<path fill="none" stroke="#63b8ff" d="M643.99,-170.37C659.28,-160.95 684,-145.73 702.11,-134.58"/>
<polygon fill="#63b8ff" stroke="#63b8ff" points="704.22,-137.39 710.9,-129.17 700.55,-131.43 704.22,-137.39"/>
</a>
</g>
</g>
<!-- Node15 -->
<g id="Node000015" class="node">
<title>Node15</title>
<g id="a_Node000015"><a xlink:title=" ">
<polygon fill="#e0e0e0" stroke="#999999" points="837.47,-129 768.47,-129 768.47,-110 837.47,-110 837.47,-129"/>
<text text-anchor="middle" x="802.97" y="-117" font-family="Helvetica,sans-Serif" font-size="10.00">type_traits</text>
</a>
</g>
</g>
<!-- Node12&#45;&gt;Node15 -->
<g id="edge20_Node000012_Node000015" class="edge">
<title>Node12&#45;&gt;Node15</title>
<g id="a_edge20_Node000012_Node000015"><a xlink:title=" ">
<path fill="none" stroke="#63b8ff" d="M655.13,-170.49C684.85,-160.44 734.49,-143.66 767.96,-132.34"/>
<polygon fill="#63b8ff" stroke="#63b8ff" points="769.43,-135.54 777.79,-129.02 767.19,-128.9 769.43,-135.54"/>
</a>
</g>
</g>
<!-- Node16&#45;&gt;Node6 -->
<g id="edge27_Node000016_Node000006" class="edge">
<title>Node16&#45;&gt;Node6</title>
<g id="a_edge27_Node000016_Node000006"><a xlink:title=" ">
<path fill="none" stroke="#63b8ff" d="M912.55,-164.99C925.06,-156.38 939.05,-144.11 945.97,-129 966.63,-83.91 881.99,-55.01 881.97,-55 834.73,-35.29 483.56,-17.53 367.84,-12.15"/>
<polygon fill="#63b8ff" stroke="#63b8ff" points="367.86,-8.65 357.71,-11.69 367.53,-15.64 367.86,-8.65"/>
</a>
</g>
</g>
<!-- Node16&#45;&gt;Node7 -->
<g id="edge24_Node000016_Node000007" class="edge">
<title>Node16&#45;&gt;Node7</title>
<g id="a_edge24_Node000016_Node000007"><a xlink:title=" ">
<path fill="none" stroke="#63b8ff" d="M906.72,-164.95C923.9,-150.39 944.61,-127.38 929.97,-110 905.08,-80.45 799.45,-70.52 731.3,-67.19"/>
<polygon fill="#63b8ff" stroke="#63b8ff" points="731.27,-63.68 721.12,-66.72 730.95,-70.67 731.27,-63.68"/>
</a>
</g>
</g>
<!-- Node16&#45;&gt;Node11 -->
<g id="edge25_Node000016_Node000011" class="edge">
<title>Node16&#45;&gt;Node11</title>
<g id="a_edge25_Node000016_Node000011"><a xlink:title=" ">
<path fill="none" stroke="#63b8ff" d="M832.69,-171.53C740.74,-159.11 559.29,-134.59 486.39,-124.74"/>
<polygon fill="#63b8ff" stroke="#63b8ff" points="486.42,-121.22 476.04,-123.35 485.48,-128.15 486.42,-121.22"/>
</a>
</g>
</g>
<!-- Node16&#45;&gt;Node14 -->
<g id="edge28_Node000016_Node000014" class="edge">
<title>Node16&#45;&gt;Node14</title>
<g id="a_edge28_Node000016_Node000014"><a xlink:title=" ">
<path fill="none" stroke="#63b8ff" d="M848.93,-164.99C821.37,-155.1 784.82,-141.98 758.56,-132.56"/>
<polygon fill="#63b8ff" stroke="#63b8ff" points="759.64,-129.22 749.04,-129.14 757.27,-135.81 759.64,-129.22"/>
</a>
</g>
</g>
<!-- Node16&#45;&gt;Node15 -->
<g id="edge30_Node000016_Node000015" class="edge">
<title>Node16&#45;&gt;Node15</title>
<g id="a_edge30_Node000016_Node000015"><a xlink:title=" ">
<path fill="none" stroke="#63b8ff" d="M867.4,-164.84C854.3,-155.83 837.38,-144.18 824.17,-135.09"/>
<polygon fill="#63b8ff" stroke="#63b8ff" points="825.93,-132.05 815.71,-129.27 821.96,-137.82 825.93,-132.05"/>
</a>
</g>
</g>
<!-- Node17 -->
<g id="Node000017" class="node">
<title>Node17</title>
<g id="a_Node000017"><a xlink:title=" ">
<polygon fill="#e0e0e0" stroke="#999999" points="1058.97,-129 1014.97,-129 1014.97,-110 1058.97,-110 1058.97,-129"/>
<text text-anchor="middle" x="1036.97" y="-117" font-family="Helvetica,sans-Serif" font-size="10.00">limits</text>
</a>
</g>
</g>
<!-- Node16&#45;&gt;Node17 -->
<g id="edge23_Node000016_Node000017" class="edge">
<title>Node16&#45;&gt;Node17</title>
<g id="a_edge23_Node000016_Node000017"><a xlink:title=" ">
<path fill="none" stroke="#63b8ff" d="M923.66,-164.99C948.63,-155.18 981.67,-142.21 1005.63,-132.81"/>
<polygon fill="#63b8ff" stroke="#63b8ff" points="1006.94,-136.05 1014.97,-129.14 1004.38,-129.54 1006.94,-136.05"/>
</a>
</g>
</g>
<!-- Node16&#45;&gt;Node18 -->
<g id="edge26_Node000016_Node000018" class="edge">
<title>Node16&#45;&gt;Node18</title>
<g id="a_edge26_Node000016_Node000018"><a xlink:title=" ">
<path fill="none" stroke="#63b8ff" d="M939.47,-164.99C978.82,-154.28 1032.05,-139.8 1066.94,-130.3"/>
<polygon fill="#63b8ff" stroke="#63b8ff" points="1067.97,-133.65 1076.7,-127.65 1066.13,-126.9 1067.97,-133.65"/>
</a>
</g>
</g>
<!-- Node19 -->
<g id="Node000019" class="node">
<title>Node19</title>
<g id="a_Node000019"><a xlink:title=" ">
<polygon fill="#e0e0e0" stroke="#999999" points="920.47,-129 855.47,-129 855.47,-110 920.47,-110 920.47,-129"/>
<text text-anchor="middle" x="887.97" y="-117" font-family="Helvetica,sans-Serif" font-size="10.00">functional</text>
</a>
</g>
</g>
<!-- Node16&#45;&gt;Node19 -->
<g id="edge29_Node000016_Node000019" class="edge">
<title>Node16&#45;&gt;Node19</title>
<g id="a_edge29_Node000016_Node000019"><a xlink:title=" ">
<path fill="none" stroke="#63b8ff" d="M887.97,-164.84C887.97,-157.21 887.97,-147.7 887.97,-139.45"/>
<polygon fill="#63b8ff" stroke="#63b8ff" points="891.47,-139.27 887.97,-129.27 884.47,-139.27 891.47,-139.27"/>
</a>
</g>
</g>
</g>
</svg>
