<?xml version="1.0" encoding="UTF-8" standalone="no"?>
<!DOCTYPE svg PUBLIC "-//W3C//DTD SVG 1.1//EN"
 "http://www.w3.org/Graphics/SVG/1.1/DTD/svg11.dtd">
<!-- Generated by graphviz version 2.43.0 (0)
 -->
<!-- Title: /__w/qugar/qugar/cpp/include/qugar/impl_reparam_mesh.hpp Pages: 1 -->
<svg width="1868pt" height="511pt"
 viewBox="0.00 0.00 1868.02 511.00" xmlns="http://www.w3.org/2000/svg" xmlns:xlink="http://www.w3.org/1999/xlink">
<g id="graph0" class="graph" transform="scale(1 1) rotate(0) translate(4 507)">
<title>/__w/qugar/qugar/cpp/include/qugar/impl_reparam_mesh.hpp</title>
<!-- Node1 -->
<g id="Node000001" class="node">
<title>Node1</title>
<g id="a_Node000001"><a xlink:title="Declaration of reparameterization class.">
<polygon fill="#999999" stroke="#666666" points="1066.52,-503 909.52,-503 909.52,-462 1066.52,-462 1066.52,-503"/>
<text text-anchor="start" x="917.52" y="-491" font-family="Helvetica,sans-Serif" font-size="10.00">/__w/qugar/qugar/cpp</text>
<text text-anchor="start" x="917.52" y="-480" font-family="Helvetica,sans-Serif" font-size="10.00">/include/qugar/impl_reparam</text>
<text text-anchor="middle" x="988.02" y="-469" font-family="Helvetica,sans-Serif" font-size="10.00">_mesh.hpp</text>
</a>
</g>
</g>
<!-- Node2 -->
<g id="Node000002" class="node">
<title>Node2</title>
<g id="a_Node000002"><a xlink:href="../../d5/d90/bbox_8hpp.html" target="_top" xlink:title="Definition of Cartesian bounding box class.">
<polygon fill="white" stroke="#666666" points="756.02,-189.5 664.02,-189.5 664.02,-170.5 756.02,-170.5 756.02,-189.5"/>
<text text-anchor="middle" x="710.02" y="-177.5" font-family="Helvetica,sans-Serif" font-size="10.00">qugar/bbox.hpp</text>
</a>
</g>
</g>
<!-- Node1&#45;&gt;Node2 -->
<g id="edge1_Node000001_Node000002" class="edge">
<title>Node1&#45;&gt;Node2</title>
<g id="a_edge1_Node000001_Node000002"><a xlink:title=" ">
<path fill="none" stroke="#63b8ff" d="M909.52,-477.37C833.94,-468.65 731.02,-442.15 731.02,-362.5 731.02,-362.5 731.02,-362.5 731.02,-300 731.02,-263.94 721.56,-222.66 715.33,-199.42"/>
<polygon fill="#63b8ff" stroke="#63b8ff" points="718.65,-198.27 712.6,-189.57 711.9,-200.14 718.65,-198.27"/>
</a>
</g>
</g>
<!-- Node4 -->
<g id="Node000004" class="node">
<title>Node4</title>
<g id="a_Node000004"><a xlink:href="../../d0/de4/point_8hpp.html" target="_top" xlink:title="Definition and implementation of Point class.">
<polygon fill="white" stroke="#666666" points="279.52,-129 186.52,-129 186.52,-110 279.52,-110 279.52,-129"/>
<text text-anchor="middle" x="233.02" y="-117" font-family="Helvetica,sans-Serif" font-size="10.00">qugar/point.hpp</text>
</a>
</g>
</g>
<!-- Node1&#45;&gt;Node4 -->
<g id="edge45_Node000001_Node000004" class="edge">
<title>Node1&#45;&gt;Node4</title>
<g id="a_edge45_Node000001_Node000004"><a xlink:title=" ">
<path fill="none" stroke="#63b8ff" d="M909.21,-476.01C728.76,-462.38 301.02,-423.63 301.02,-362.5 301.02,-362.5 301.02,-362.5 301.02,-239.5 301.02,-205.33 299.64,-194.28 282.02,-165 275.06,-153.42 264.16,-143.1 254.4,-135.31"/>
<polygon fill="#63b8ff" stroke="#63b8ff" points="256.34,-132.39 246.25,-129.15 252.12,-137.98 256.34,-132.39"/>
</a>
</g>
</g>
<!-- Node6 -->
<g id="Node000006" class="node">
<title>Node6</title>
<g id="a_Node000006"><a xlink:title=" ">
<polygon fill="#e0e0e0" stroke="#999999" points="1112.52,-19 1059.52,-19 1059.52,0 1112.52,0 1112.52,-19"/>
<text text-anchor="middle" x="1086.02" y="-7" font-family="Helvetica,sans-Serif" font-size="10.00">cstddef</text>
</a>
</g>
</g>
<!-- Node1&#45;&gt;Node6 -->
<g id="edge77_Node000001_Node000006" class="edge">
<title>Node1&#45;&gt;Node6</title>
<g id="a_edge77_Node000001_Node000006"><a xlink:title=" ">
<path fill="none" stroke="#63b8ff" d="M1066.63,-480.31C1235.09,-477.03 1625.85,-465.31 1752.02,-426 1805.18,-409.44 1860.02,-418.18 1860.02,-362.5 1860.02,-362.5 1860.02,-362.5 1860.02,-118.5 1860.02,-43.14 1277.08,-17.24 1123,-11.71"/>
<polygon fill="#63b8ff" stroke="#63b8ff" points="1122.78,-8.2 1112.66,-11.35 1122.53,-15.2 1122.78,-8.2"/>
</a>
</g>
</g>
<!-- Node9 -->
<g id="Node000009" class="node">
<title>Node9</title>
<g id="a_Node000009"><a xlink:title=" ">
<polygon fill="#e0e0e0" stroke="#999999" points="1313.52,-74 1266.52,-74 1266.52,-55 1313.52,-55 1313.52,-74"/>
<text text-anchor="middle" x="1290.02" y="-62" font-family="Helvetica,sans-Serif" font-size="10.00">vector</text>
</a>
</g>
</g>
<!-- Node1&#45;&gt;Node9 -->
<g id="edge81_Node000001_Node000009" class="edge">
<title>Node1&#45;&gt;Node9</title>
<g id="a_edge81_Node000001_Node000009"><a xlink:title=" ">
<path fill="none" stroke="#63b8ff" d="M1066.58,-478.55C1222.5,-472.16 1565.88,-455.18 1680.02,-426 1747,-408.88 1822.02,-431.63 1822.02,-362.5 1822.02,-362.5 1822.02,-362.5 1822.02,-239.5 1822.02,-134.19 1440.7,-82.48 1323.73,-69.09"/>
<polygon fill="#63b8ff" stroke="#63b8ff" points="1323.9,-65.59 1313.57,-67.95 1323.11,-72.55 1323.9,-65.59"/>
</a>
</g>
</g>
<!-- Node12 -->
<g id="Node000012" class="node">
<title>Node12</title>
<g id="a_Node000012"><a xlink:href="../../d6/d49/cart__grid__tp_8hpp.html" target="_top" xlink:title="Definition of Cartesian grid class.">
<polygon fill="white" stroke="#666666" points="1031.02,-250 905.02,-250 905.02,-231 1031.02,-231 1031.02,-250"/>
<text text-anchor="middle" x="968.02" y="-238" font-family="Helvetica,sans-Serif" font-size="10.00">qugar/cart_grid_tp.hpp</text>
</a>
</g>
</g>
<!-- Node1&#45;&gt;Node12 -->
<g id="edge14_Node000001_Node000012" class="edge">
<title>Node1&#45;&gt;Node12</title>
<g id="a_edge14_Node000001_Node000012"><a xlink:title=" ">
<path fill="none" stroke="#63b8ff" d="M986.38,-461.86C982.61,-416.55 973.33,-305.16 969.6,-260.49"/>
<polygon fill="#63b8ff" stroke="#63b8ff" points="973.08,-260.1 968.76,-250.43 966.11,-260.68 973.08,-260.1"/>
</a>
</g>
</g>
<!-- Node13 -->
<g id="Node000013" class="node">
<title>Node13</title>
<g id="a_Node000013"><a xlink:href="../../d9/d43/tensor__index__tp_8hpp.html" target="_top" xlink:title="Declaration of tensor&#45;product index and size related classes.">
<polygon fill="white" stroke="#666666" points="884.02,-195 774.02,-195 774.02,-165 884.02,-165 884.02,-195"/>
<text text-anchor="start" x="782.02" y="-183" font-family="Helvetica,sans-Serif" font-size="10.00">qugar/tensor_index</text>
<text text-anchor="middle" x="829.02" y="-172" font-family="Helvetica,sans-Serif" font-size="10.00">_tp.hpp</text>
</a>
</g>
</g>
<!-- Node1&#45;&gt;Node13 -->
<g id="edge75_Node000001_Node000013" class="edge">
<title>Node1&#45;&gt;Node13</title>
<g id="a_edge75_Node000001_Node000013"><a xlink:title=" ">
<path fill="none" stroke="#63b8ff" d="M926.76,-461.9C883.44,-443.77 833.02,-412.03 833.02,-362.5 833.02,-362.5 833.02,-362.5 833.02,-300 833.02,-267.2 831.48,-229.33 830.32,-205.29"/>
<polygon fill="#63b8ff" stroke="#63b8ff" points="833.81,-205.09 829.81,-195.28 826.82,-205.45 833.81,-205.09"/>
</a>
</g>
</g>
<!-- Node17 -->
<g id="Node000017" class="node">
<title>Node17</title>
<g id="a_Node000017"><a xlink:title=" ">
<polygon fill="#e0e0e0" stroke="#999999" points="1491.52,-129 1426.52,-129 1426.52,-110 1491.52,-110 1491.52,-129"/>
<text text-anchor="middle" x="1459.02" y="-117" font-family="Helvetica,sans-Serif" font-size="10.00">functional</text>
</a>
</g>
</g>
<!-- Node1&#45;&gt;Node17 -->
<g id="edge78_Node000001_Node000017" class="edge">
<title>Node1&#45;&gt;Node17</title>
<g id="a_edge78_Node000001_Node000017"><a xlink:title=" ">
<path fill="none" stroke="#63b8ff" d="M1066.52,-477.93C1267.34,-467.75 1784.02,-434.55 1784.02,-362.5 1784.02,-362.5 1784.02,-362.5 1784.02,-239.5 1784.02,-180.04 1589.77,-141.39 1501.62,-126.92"/>
<polygon fill="#63b8ff" stroke="#63b8ff" points="1502.1,-123.45 1491.67,-125.31 1500.99,-130.36 1502.1,-123.45"/>
</a>
</g>
</g>
<!-- Node19 -->
<g id="Node000019" class="node">
<title>Node19</title>
<g id="a_Node000019"><a xlink:href="../../d0/d55/tolerance_8hpp.html" target="_top" xlink:title="Definition of tolerance related functionalities.">
<polygon fill="white" stroke="#666666" points="519.02,-189.5 405.02,-189.5 405.02,-170.5 519.02,-170.5 519.02,-189.5"/>
<text text-anchor="middle" x="462.02" y="-177.5" font-family="Helvetica,sans-Serif" font-size="10.00">qugar/tolerance.hpp</text>
</a>
</g>
</g>
<!-- Node1&#45;&gt;Node19 -->
<g id="edge76_Node000001_Node000019" class="edge">
<title>Node1&#45;&gt;Node19</title>
<g id="a_edge76_Node000001_Node000019"><a xlink:title=" ">
<path fill="none" stroke="#63b8ff" d="M909.26,-474.82C789.92,-462.5 577.02,-430.93 577.02,-362.5 577.02,-362.5 577.02,-362.5 577.02,-300 577.02,-249.84 523.54,-212.75 489.52,-194.23"/>
<polygon fill="#63b8ff" stroke="#63b8ff" points="490.98,-191.05 480.5,-189.51 487.73,-197.25 490.98,-191.05"/>
</a>
</g>
</g>
<!-- Node23 -->
<g id="Node000023" class="node">
<title>Node23</title>
<g id="a_Node000023"><a xlink:href="../../dc/d7c/domain__function_8hpp.html" target="_top" xlink:title="Declaration of a few implicit functions template class ready to be consumed by Algoim.">
<polygon fill="white" stroke="#666666" points="273.02,-189.5 123.02,-189.5 123.02,-170.5 273.02,-170.5 273.02,-189.5"/>
<text text-anchor="middle" x="198.02" y="-177.5" font-family="Helvetica,sans-Serif" font-size="10.00">qugar/domain_function.hpp</text>
</a>
</g>
</g>
<!-- Node1&#45;&gt;Node23 -->
<g id="edge38_Node000001_Node000023" class="edge">
<title>Node1&#45;&gt;Node23</title>
<g id="a_edge38_Node000001_Node000023"><a xlink:title=" ">
<path fill="none" stroke="#63b8ff" d="M909.26,-478.59C737.77,-471.77 341.55,-453.26 287.02,-426 253.36,-409.18 231.02,-400.13 231.02,-362.5 231.02,-362.5 231.02,-362.5 231.02,-300 231.02,-263 216.03,-221.81 206.25,-198.89"/>
<polygon fill="#63b8ff" stroke="#63b8ff" points="209.44,-197.46 202.2,-189.73 203.04,-200.29 209.44,-197.46"/>
</a>
</g>
</g>
<!-- Node25 -->
<g id="Node000025" class="node">
<title>Node25</title>
<g id="a_Node000025"><a xlink:href="../../d8/ddc/reparam__mesh_8hpp.html" target="_top" xlink:title="Declaration of reparameterization class.">
<polygon fill="white" stroke="#666666" points="1135.02,-426 993.02,-426 993.02,-407 1135.02,-407 1135.02,-426"/>
<text text-anchor="middle" x="1064.02" y="-414" font-family="Helvetica,sans-Serif" font-size="10.00">qugar/reparam_mesh.hpp</text>
</a>
</g>
</g>
<!-- Node1&#45;&gt;Node25 -->
<g id="edge46_Node000001_Node000025" class="edge">
<title>Node1&#45;&gt;Node25</title>
<g id="a_edge46_Node000001_Node000025"><a xlink:title=" ">
<path fill="none" stroke="#63b8ff" d="M1011.24,-461.95C1022.4,-452.55 1035.57,-441.46 1045.97,-432.7"/>
<polygon fill="#63b8ff" stroke="#63b8ff" points="1048.22,-435.38 1053.62,-426.26 1043.71,-430.02 1048.22,-435.38"/>
</a>
</g>
</g>
<!-- Node29 -->
<g id="Node000029" class="node">
<title>Node29</title>
<g id="a_Node000029"><a xlink:title=" ">
<polygon fill="#e0e0e0" stroke="#999999" points="1694.02,-371 1654.02,-371 1654.02,-352 1694.02,-352 1694.02,-371"/>
<text text-anchor="middle" x="1674.02" y="-359" font-family="Helvetica,sans-Serif" font-size="10.00">span</text>
</a>
</g>
</g>
<!-- Node1&#45;&gt;Node29 -->
<g id="edge79_Node000001_Node000029" class="edge">
<title>Node1&#45;&gt;Node29</title>
<g id="a_edge79_Node000001_Node000029"><a xlink:title=" ">
<path fill="none" stroke="#63b8ff" d="M1066.67,-470.17C1189.57,-452.03 1434.38,-414.06 1640.02,-371 1641.29,-370.73 1642.59,-370.45 1643.9,-370.16"/>
<polygon fill="#63b8ff" stroke="#63b8ff" points="1645.01,-373.49 1653.94,-367.79 1643.41,-366.68 1645.01,-373.49"/>
</a>
</g>
</g>
<!-- Node30 -->
<g id="Node000030" class="node">
<title>Node30</title>
<g id="a_Node000030"><a xlink:title=" ">
<polygon fill="#e0e0e0" stroke="#999999" points="1756.02,-371 1712.02,-371 1712.02,-352 1756.02,-352 1756.02,-371"/>
<text text-anchor="middle" x="1734.02" y="-359" font-family="Helvetica,sans-Serif" font-size="10.00">string</text>
</a>
</g>
</g>
<!-- Node1&#45;&gt;Node30 -->
<g id="edge80_Node000001_Node000030" class="edge">
<title>Node1&#45;&gt;Node30</title>
<g id="a_edge80_Node000001_Node000030"><a xlink:title=" ">
<path fill="none" stroke="#63b8ff" d="M1066.77,-473.2C1197.45,-458.59 1467.15,-424.81 1701.98,-371.09"/>
<polygon fill="#63b8ff" stroke="#63b8ff" points="1702.77,-374.5 1711.72,-368.84 1701.19,-367.68 1702.77,-374.5"/>
</a>
</g>
</g>
<!-- Node3 -->
<g id="Node000003" class="node">
<title>Node3</title>
<g id="a_Node000003"><a xlink:href="../../d7/dd8/concepts_8hpp.html" target="_top" xlink:title="Declaration of concepts.">
<polygon fill="white" stroke="#666666" points="920.02,-129 808.02,-129 808.02,-110 920.02,-110 920.02,-129"/>
<text text-anchor="middle" x="864.02" y="-117" font-family="Helvetica,sans-Serif" font-size="10.00">qugar/concepts.hpp</text>
</a>
</g>
</g>
<!-- Node2&#45;&gt;Node3 -->
<g id="edge2_Node000002_Node000003" class="edge">
<title>Node2&#45;&gt;Node3</title>
<g id="a_edge2_Node000002_Node000003"><a xlink:title=" ">
<path fill="none" stroke="#63b8ff" d="M732.41,-170.49C758.65,-160.53 802.3,-143.95 832.08,-132.63"/>
<polygon fill="#63b8ff" stroke="#63b8ff" points="833.5,-135.84 841.6,-129.02 831.01,-129.3 833.5,-135.84"/>
</a>
</g>
</g>
<!-- Node2&#45;&gt;Node4 -->
<g id="edge3_Node000002_Node000004" class="edge">
<title>Node2&#45;&gt;Node4</title>
<g id="a_edge3_Node000002_Node000004"><a xlink:title=" ">
<path fill="none" stroke="#63b8ff" d="M663.74,-174.06C587.84,-165.84 431.88,-148.45 290,-129.23"/>
<polygon fill="#63b8ff" stroke="#63b8ff" points="290.19,-125.73 279.81,-127.85 289.25,-132.66 290.19,-125.73"/>
</a>
</g>
</g>
<!-- Node5 -->
<g id="Node000005" class="node">
<title>Node5</title>
<g id="a_Node000005"><a xlink:href="../../dd/de3/types_8hpp.html" target="_top" xlink:title="Declaration of types.">
<polygon fill="white" stroke="#666666" points="528.52,-74 433.52,-74 433.52,-55 528.52,-55 528.52,-74"/>
<text text-anchor="middle" x="481.02" y="-62" font-family="Helvetica,sans-Serif" font-size="10.00">qugar/types.hpp</text>
</a>
</g>
</g>
<!-- Node2&#45;&gt;Node5 -->
<g id="edge10_Node000002_Node000005" class="edge">
<title>Node2&#45;&gt;Node5</title>
<g id="a_edge10_Node000002_Node000005"><a xlink:title=" ">
<path fill="none" stroke="#63b8ff" d="M689.97,-170.34C667.78,-160.66 631.06,-144.32 600.02,-129 566.8,-112.61 529.19,-92.22 505.31,-79.04"/>
<polygon fill="#63b8ff" stroke="#63b8ff" points="506.71,-75.82 496.26,-74.03 503.32,-81.94 506.71,-75.82"/>
</a>
</g>
</g>
<!-- Node2&#45;&gt;Node6 -->
<g id="edge13_Node000002_Node000006" class="edge">
<title>Node2&#45;&gt;Node6</title>
<g id="a_edge13_Node000002_Node000006"><a xlink:title=" ">
<path fill="none" stroke="#63b8ff" d="M686.86,-170.42C657.54,-158.27 613.11,-134.76 633.02,-110 685.42,-44.84 950.94,-19.92 1049.3,-12.83"/>
<polygon fill="#63b8ff" stroke="#63b8ff" points="1049.64,-16.32 1059.37,-12.13 1049.15,-9.33 1049.64,-16.32"/>
</a>
</g>
</g>
<!-- Node10 -->
<g id="Node000010" class="node">
<title>Node10</title>
<g id="a_Node000010"><a xlink:title=" ">
<polygon fill="#e0e0e0" stroke="#999999" points="790.02,-129 642.02,-129 642.02,-110 790.02,-110 790.02,-129"/>
<text text-anchor="middle" x="716.02" y="-117" font-family="Helvetica,sans-Serif" font-size="10.00">algoim/hyperrectangle.hpp</text>
</a>
</g>
</g>
<!-- Node2&#45;&gt;Node10 -->
<g id="edge11_Node000002_Node000010" class="edge">
<title>Node2&#45;&gt;Node10</title>
<g id="a_edge11_Node000002_Node000010"><a xlink:title=" ">
<path fill="none" stroke="#63b8ff" d="M710.91,-170.37C711.74,-162.25 713.02,-149.81 714.08,-139.39"/>
<polygon fill="#63b8ff" stroke="#63b8ff" points="717.59,-139.47 715.13,-129.17 710.63,-138.76 717.59,-139.47"/>
</a>
</g>
</g>
<!-- Node11 -->
<g id="Node000011" class="node">
<title>Node11</title>
<g id="a_Node000011"><a xlink:title=" ">
<polygon fill="#e0e0e0" stroke="#999999" points="1224.02,-129 1182.02,-129 1182.02,-110 1224.02,-110 1224.02,-129"/>
<text text-anchor="middle" x="1203.02" y="-117" font-family="Helvetica,sans-Serif" font-size="10.00">array</text>
</a>
</g>
</g>
<!-- Node2&#45;&gt;Node11 -->
<g id="edge12_Node000002_Node000011" class="edge">
<title>Node2&#45;&gt;Node11</title>
<g id="a_edge12_Node000002_Node000011"><a xlink:title=" ">
<path fill="none" stroke="#63b8ff" d="M739.81,-170.49C747.93,-168.42 756.76,-166.41 765.02,-165 941.23,-135 992.16,-160.98 1171.79,-128.87"/>
<polygon fill="#63b8ff" stroke="#63b8ff" points="1172.62,-132.27 1181.83,-127.04 1171.37,-125.39 1172.62,-132.27"/>
</a>
</g>
</g>
<!-- Node4&#45;&gt;Node5 -->
<g id="edge4_Node000004_Node000005" class="edge">
<title>Node4&#45;&gt;Node5</title>
<g id="a_edge4_Node000004_Node000005"><a xlink:title=" ">
<path fill="none" stroke="#63b8ff" d="M272.87,-109.98C315.85,-100.8 384.39,-86.15 430.98,-76.19"/>
<polygon fill="#63b8ff" stroke="#63b8ff" points="431.82,-79.59 440.86,-74.08 430.35,-72.75 431.82,-79.59"/>
</a>
</g>
</g>
<!-- Node4&#45;&gt;Node6 -->
<g id="edge8_Node000004_Node000006" class="edge">
<title>Node4&#45;&gt;Node6</title>
<g id="a_edge8_Node000004_Node000006"><a xlink:title=" ">
<path fill="none" stroke="#63b8ff" d="M253.3,-109.9C287.84,-95.68 360.59,-67.61 425.02,-55 546.09,-31.3 928.42,-16.07 1049.13,-11.76"/>
<polygon fill="#63b8ff" stroke="#63b8ff" points="1049.46,-15.25 1059.33,-11.4 1049.21,-8.25 1049.46,-15.25"/>
</a>
</g>
</g>
<!-- Node7 -->
<g id="Node000007" class="node">
<title>Node7</title>
<g id="a_Node000007"><a xlink:href="../../da/d16/vector_8hpp.html" target="_top" xlink:title=" ">
<polygon fill="white" stroke="#666666" points="282.02,-74 184.02,-74 184.02,-55 282.02,-55 282.02,-74"/>
<text text-anchor="middle" x="233.02" y="-62" font-family="Helvetica,sans-Serif" font-size="10.00">qugar/vector.hpp</text>
</a>
</g>
</g>
<!-- Node4&#45;&gt;Node7 -->
<g id="edge6_Node000004_Node000007" class="edge">
<title>Node4&#45;&gt;Node7</title>
<g id="a_edge6_Node000004_Node000007"><a xlink:title=" ">
<path fill="none" stroke="#63b8ff" d="M233.02,-109.75C233.02,-102.8 233.02,-92.85 233.02,-84.13"/>
<polygon fill="#63b8ff" stroke="#63b8ff" points="236.52,-84.09 233.02,-74.09 229.52,-84.09 236.52,-84.09"/>
</a>
</g>
</g>
<!-- Node4&#45;&gt;Node9 -->
<g id="edge9_Node000004_Node000009" class="edge">
<title>Node4&#45;&gt;Node9</title>
<g id="a_edge9_Node000004_Node000009"><a xlink:title=" ">
<path fill="none" stroke="#63b8ff" d="M279.78,-110.92C282.57,-110.58 285.33,-110.27 288.02,-110 666.44,-72.47 1128.4,-66.59 1255.99,-65.67"/>
<polygon fill="#63b8ff" stroke="#63b8ff" points="1256.31,-69.17 1266.28,-65.6 1256.26,-62.17 1256.31,-69.17"/>
</a>
</g>
</g>
<!-- Node5&#45;&gt;Node6 -->
<g id="edge5_Node000005_Node000006" class="edge">
<title>Node5&#45;&gt;Node6</title>
<g id="a_edge5_Node000005_Node000006"><a xlink:title=" ">
<path fill="none" stroke="#63b8ff" d="M528.75,-59.32C645.69,-49.07 944.58,-22.89 1049.19,-13.73"/>
<polygon fill="#63b8ff" stroke="#63b8ff" points="1049.61,-17.2 1059.27,-12.84 1049,-10.23 1049.61,-17.2"/>
</a>
</g>
</g>
<!-- Node8 -->
<g id="Node000008" class="node">
<title>Node8</title>
<g id="a_Node000008"><a xlink:title=" ">
<polygon fill="#e0e0e0" stroke="#999999" points="288.02,-19 178.02,-19 178.02,0 288.02,0 288.02,-19"/>
<text text-anchor="middle" x="233.02" y="-7" font-family="Helvetica,sans-Serif" font-size="10.00">algoim/uvector.hpp</text>
</a>
</g>
</g>
<!-- Node7&#45;&gt;Node8 -->
<g id="edge7_Node000007_Node000008" class="edge">
<title>Node7&#45;&gt;Node8</title>
<g id="a_edge7_Node000007_Node000008"><a xlink:title=" ">
<path fill="none" stroke="#63b8ff" d="M233.02,-54.75C233.02,-47.8 233.02,-37.85 233.02,-29.13"/>
<polygon fill="#63b8ff" stroke="#63b8ff" points="236.52,-29.09 233.02,-19.09 229.52,-29.09 236.52,-29.09"/>
</a>
</g>
</g>
<!-- Node12&#45;&gt;Node2 -->
<g id="edge15_Node000012_Node000002" class="edge">
<title>Node12&#45;&gt;Node2</title>
<g id="a_edge15_Node000012_Node000002"><a xlink:title=" ">
<path fill="none" stroke="#63b8ff" d="M927.1,-230.95C886.04,-222.27 821.02,-208.26 765.02,-195 760.98,-194.04 756.77,-193.02 752.57,-191.98"/>
<polygon fill="#63b8ff" stroke="#63b8ff" points="753.39,-188.58 742.84,-189.55 751.69,-195.37 753.39,-188.58"/>
</a>
</g>
</g>
<!-- Node12&#45;&gt;Node4 -->
<g id="edge16_Node000012_Node000004" class="edge">
<title>Node12&#45;&gt;Node4</title>
<g id="a_edge16_Node000012_Node000004"><a xlink:title=" ">
<path fill="none" stroke="#63b8ff" d="M904.62,-238.75C775.86,-236.53 488.17,-227.95 396.02,-195 374.08,-187.15 373.67,-175.8 353.02,-165 327.18,-151.48 296.3,-140.12 272.33,-132.27"/>
<polygon fill="#63b8ff" stroke="#63b8ff" points="273.11,-128.84 262.52,-129.12 270.97,-135.51 273.11,-128.84"/>
</a>
</g>
</g>
<!-- Node12&#45;&gt;Node5 -->
<g id="edge31_Node000012_Node000005" class="edge">
<title>Node12&#45;&gt;Node5</title>
<g id="a_edge31_Node000012_Node000005"><a xlink:title=" ">
<path fill="none" stroke="#63b8ff" d="M905.02,-238.94C840.24,-236.45 737.48,-227.15 655.02,-195 588.28,-168.98 524.65,-110.13 496.36,-81.6"/>
<polygon fill="#63b8ff" stroke="#63b8ff" points="498.54,-78.82 489.05,-74.1 493.52,-83.7 498.54,-78.82"/>
</a>
</g>
</g>
<!-- Node12&#45;&gt;Node6 -->
<g id="edge33_Node000012_Node000006" class="edge">
<title>Node12&#45;&gt;Node6</title>
<g id="a_edge33_Node000012_Node000006"><a xlink:title=" ">
<path fill="none" stroke="#63b8ff" d="M957.82,-230.84C941.88,-216.29 914.55,-186.4 931.02,-165 969.16,-115.45 1025.07,-175.36 1067.02,-129 1091.86,-101.55 1091.37,-55.11 1088.75,-29.27"/>
<polygon fill="#63b8ff" stroke="#63b8ff" points="1092.21,-28.78 1087.52,-19.28 1085.27,-29.63 1092.21,-28.78"/>
</a>
</g>
</g>
<!-- Node12&#45;&gt;Node9 -->
<g id="edge37_Node000012_Node000009" class="edge">
<title>Node12&#45;&gt;Node9</title>
<g id="a_edge37_Node000012_Node000009"><a xlink:title=" ">
<path fill="none" stroke="#63b8ff" d="M1003.08,-230.99C1056.71,-216.71 1160.52,-183.94 1233.02,-129 1250.65,-115.64 1267.1,-96.27 1277.76,-82.44"/>
<polygon fill="#63b8ff" stroke="#63b8ff" points="1280.68,-84.37 1283.87,-74.27 1275.08,-80.17 1280.68,-84.37"/>
</a>
</g>
</g>
<!-- Node12&#45;&gt;Node11 -->
<g id="edge32_Node000012_Node000011" class="edge">
<title>Node12&#45;&gt;Node11</title>
<g id="a_edge32_Node000012_Node000011"><a xlink:title=" ">
<path fill="none" stroke="#63b8ff" d="M984.92,-230.94C1025.47,-210.41 1128.51,-158.23 1177.02,-133.67"/>
<polygon fill="#63b8ff" stroke="#63b8ff" points="1178.62,-136.78 1185.96,-129.14 1175.46,-130.54 1178.62,-136.78"/>
</a>
</g>
</g>
<!-- Node12&#45;&gt;Node13 -->
<g id="edge17_Node000012_Node000013" class="edge">
<title>Node12&#45;&gt;Node13</title>
<g id="a_edge17_Node000012_Node000013"><a xlink:title=" ">
<path fill="none" stroke="#63b8ff" d="M947.81,-230.99C927.98,-222.65 897.12,-209.66 871.83,-199.02"/>
<polygon fill="#63b8ff" stroke="#63b8ff" points="873.01,-195.72 862.44,-195.06 870.3,-202.17 873.01,-195.72"/>
</a>
</g>
</g>
<!-- Node16 -->
<g id="Node000016" class="node">
<title>Node16</title>
<g id="a_Node000016"><a xlink:title=" ">
<polygon fill="#e0e0e0" stroke="#999999" points="1164.02,-129 1114.02,-129 1114.02,-110 1164.02,-110 1164.02,-129"/>
<text text-anchor="middle" x="1139.02" y="-117" font-family="Helvetica,sans-Serif" font-size="10.00">cstdint</text>
</a>
</g>
</g>
<!-- Node12&#45;&gt;Node16 -->
<g id="edge34_Node000012_Node000016" class="edge">
<title>Node12&#45;&gt;Node16</title>
<g id="a_edge34_Node000012_Node000016"><a xlink:title=" ">
<path fill="none" stroke="#63b8ff" d="M975.73,-230.8C989.26,-215.92 1018.62,-185.21 1048.02,-165 1066.61,-152.22 1089.41,-141.08 1107.54,-133.14"/>
<polygon fill="#63b8ff" stroke="#63b8ff" points="1109.25,-136.21 1117.07,-129.07 1106.5,-129.78 1109.25,-136.21"/>
</a>
</g>
</g>
<!-- Node12&#45;&gt;Node19 -->
<g id="edge26_Node000012_Node000019" class="edge">
<title>Node12&#45;&gt;Node19</title>
<g id="a_edge26_Node000012_Node000019"><a xlink:title=" ">
<path fill="none" stroke="#63b8ff" d="M904.76,-234.88C819.89,-228.26 664.6,-214.66 533.02,-195 526.18,-193.98 518.99,-192.75 511.92,-191.44"/>
<polygon fill="#63b8ff" stroke="#63b8ff" points="512.19,-187.93 501.71,-189.5 510.88,-194.81 512.19,-187.93"/>
</a>
</g>
</g>
<!-- Node21 -->
<g id="Node000021" class="node">
<title>Node21</title>
<g id="a_Node000021"><a xlink:title=" ">
<polygon fill="#e0e0e0" stroke="#999999" points="1566.02,-189.5 1508.02,-189.5 1508.02,-170.5 1566.02,-170.5 1566.02,-189.5"/>
<text text-anchor="middle" x="1537.02" y="-177.5" font-family="Helvetica,sans-Serif" font-size="10.00">memory</text>
</a>
</g>
</g>
<!-- Node12&#45;&gt;Node21 -->
<g id="edge35_Node000012_Node000021" class="edge">
<title>Node12&#45;&gt;Node21</title>
<g id="a_edge35_Node000012_Node000021"><a xlink:title=" ">
<path fill="none" stroke="#63b8ff" d="M1031.09,-233.02C1149.32,-220.86 1401.07,-194.98 1497.93,-185.02"/>
<polygon fill="#63b8ff" stroke="#63b8ff" points="1498.29,-188.5 1507.88,-184 1497.58,-181.54 1498.29,-188.5"/>
</a>
</g>
</g>
<!-- Node22 -->
<g id="Node000022" class="node">
<title>Node22</title>
<g id="a_Node000022"><a xlink:title=" ">
<polygon fill="#e0e0e0" stroke="#999999" points="996.02,-189.5 940.02,-189.5 940.02,-170.5 996.02,-170.5 996.02,-189.5"/>
<text text-anchor="middle" x="968.02" y="-177.5" font-family="Helvetica,sans-Serif" font-size="10.00">optional</text>
</a>
</g>
</g>
<!-- Node12&#45;&gt;Node22 -->
<g id="edge36_Node000012_Node000022" class="edge">
<title>Node12&#45;&gt;Node22</title>
<g id="a_edge36_Node000012_Node000022"><a xlink:title=" ">
<path fill="none" stroke="#63b8ff" d="M968.02,-230.87C968.02,-222.75 968.02,-210.31 968.02,-199.89"/>
<polygon fill="#63b8ff" stroke="#63b8ff" points="971.52,-199.67 968.02,-189.67 964.52,-199.67 971.52,-199.67"/>
</a>
</g>
</g>
<!-- Node13&#45;&gt;Node6 -->
<g id="edge22_Node000013_Node000006" class="edge">
<title>Node13&#45;&gt;Node6</title>
<g id="a_edge22_Node000013_Node000006"><a xlink:title=" ">
<path fill="none" stroke="#63b8ff" d="M870.02,-164.93C893.17,-156.16 922.15,-143.74 946.02,-129 995.65,-98.36 1045.94,-50.9 1070.53,-26.37"/>
<polygon fill="#63b8ff" stroke="#63b8ff" points="1073.02,-28.83 1077.58,-19.27 1068.05,-23.9 1073.02,-28.83"/>
</a>
</g>
</g>
<!-- Node13&#45;&gt;Node7 -->
<g id="edge19_Node000013_Node000007" class="edge">
<title>Node13&#45;&gt;Node7</title>
<g id="a_edge19_Node000013_Node000007"><a xlink:title=" ">
<path fill="none" stroke="#63b8ff" d="M878.1,-164.93C913.12,-152.54 950.52,-132.92 929.02,-110 918.17,-98.43 458.47,-75.97 292.23,-68.21"/>
<polygon fill="#63b8ff" stroke="#63b8ff" points="292.33,-64.72 282.18,-67.75 292.01,-71.71 292.33,-64.72"/>
</a>
</g>
</g>
<!-- Node13&#45;&gt;Node11 -->
<g id="edge20_Node000013_Node000011" class="edge">
<title>Node13&#45;&gt;Node11</title>
<g id="a_edge20_Node000013_Node000011"><a xlink:title=" ">
<path fill="none" stroke="#63b8ff" d="M884.15,-171.39C967.63,-159.82 1121.06,-138.31 1171.88,-128.86"/>
<polygon fill="#63b8ff" stroke="#63b8ff" points="1172.68,-132.27 1181.8,-126.89 1171.31,-125.41 1172.68,-132.27"/>
</a>
</g>
</g>
<!-- Node14 -->
<g id="Node000014" class="node">
<title>Node14</title>
<g id="a_Node000014"><a xlink:title=" ">
<polygon fill="#e0e0e0" stroke="#999999" points="1058.02,-129 1014.02,-129 1014.02,-110 1058.02,-110 1058.02,-129"/>
<text text-anchor="middle" x="1036.02" y="-117" font-family="Helvetica,sans-Serif" font-size="10.00">limits</text>
</a>
</g>
</g>
<!-- Node13&#45;&gt;Node14 -->
<g id="edge18_Node000013_Node000014" class="edge">
<title>Node13&#45;&gt;Node14</title>
<g id="a_edge18_Node000013_Node000014"><a xlink:title=" ">
<path fill="none" stroke="#63b8ff" d="M878.6,-164.99C917.52,-153.99 970.54,-139.01 1004.03,-129.54"/>
<polygon fill="#63b8ff" stroke="#63b8ff" points="1005.08,-132.88 1013.75,-126.79 1003.18,-126.14 1005.08,-132.88"/>
</a>
</g>
</g>
<!-- Node15 -->
<g id="Node000015" class="node">
<title>Node15</title>
<g id="a_Node000015"><a xlink:title=" ">
<polygon fill="#e0e0e0" stroke="#999999" points="1370.02,-129 1318.02,-129 1318.02,-110 1370.02,-110 1370.02,-129"/>
<text text-anchor="middle" x="1344.02" y="-117" font-family="Helvetica,sans-Serif" font-size="10.00">cassert</text>
</a>
</g>
</g>
<!-- Node13&#45;&gt;Node15 -->
<g id="edge21_Node000013_Node000015" class="edge">
<title>Node13&#45;&gt;Node15</title>
<g id="a_edge21_Node000013_Node000015"><a xlink:title=" ">
<path fill="none" stroke="#63b8ff" d="M884.04,-171.15C899.25,-169.06 915.76,-166.87 931.02,-165 1069.92,-147.99 1235.53,-131.2 1307.56,-124.07"/>
<polygon fill="#63b8ff" stroke="#63b8ff" points="1308.29,-127.51 1317.9,-123.05 1307.6,-120.55 1308.29,-127.51"/>
</a>
</g>
</g>
<!-- Node13&#45;&gt;Node16 -->
<g id="edge23_Node000013_Node000016" class="edge">
<title>Node13&#45;&gt;Node16</title>
<g id="a_edge23_Node000013_Node000016"><a xlink:title=" ">
<path fill="none" stroke="#63b8ff" d="M884.09,-168.61C947.54,-156.63 1049.94,-137.31 1103.61,-127.18"/>
<polygon fill="#63b8ff" stroke="#63b8ff" points="1104.49,-130.58 1113.67,-125.28 1103.19,-123.7 1104.49,-130.58"/>
</a>
</g>
</g>
<!-- Node13&#45;&gt;Node17 -->
<g id="edge24_Node000013_Node000017" class="edge">
<title>Node13&#45;&gt;Node17</title>
<g id="a_edge24_Node000013_Node000017"><a xlink:title=" ">
<path fill="none" stroke="#63b8ff" d="M884.27,-170.84C899.41,-168.76 915.83,-166.65 931.02,-165 1129.6,-143.41 1180.13,-147.55 1379.02,-129 1391.07,-127.88 1404.12,-126.54 1416.12,-125.26"/>
<polygon fill="#63b8ff" stroke="#63b8ff" points="1416.78,-128.71 1426.34,-124.16 1416.03,-121.75 1416.78,-128.71"/>
</a>
</g>
</g>
<!-- Node18 -->
<g id="Node000018" class="node">
<title>Node18</title>
<g id="a_Node000018"><a xlink:title=" ">
<polygon fill="#e0e0e0" stroke="#999999" points="366.52,-129 297.52,-129 297.52,-110 366.52,-110 366.52,-129"/>
<text text-anchor="middle" x="332.02" y="-117" font-family="Helvetica,sans-Serif" font-size="10.00">type_traits</text>
</a>
</g>
</g>
<!-- Node13&#45;&gt;Node18 -->
<g id="edge25_Node000013_Node000018" class="edge">
<title>Node13&#45;&gt;Node18</title>
<g id="a_edge25_Node000013_Node000018"><a xlink:title=" ">
<path fill="none" stroke="#63b8ff" d="M773.94,-166.5C770.93,-165.96 767.94,-165.45 765.02,-165 596.63,-138.89 549.65,-152.95 376.51,-128.91"/>
<polygon fill="#63b8ff" stroke="#63b8ff" points="376.95,-125.44 366.55,-127.5 375.97,-132.37 376.95,-125.44"/>
</a>
</g>
</g>
<!-- Node19&#45;&gt;Node4 -->
<g id="edge27_Node000019_Node000004" class="edge">
<title>Node19&#45;&gt;Node4</title>
<g id="a_edge27_Node000019_Node000004"><a xlink:title=" ">
<path fill="none" stroke="#63b8ff" d="M428.72,-170.49C388.44,-160.2 320.54,-142.86 276.26,-131.54"/>
<polygon fill="#63b8ff" stroke="#63b8ff" points="276.92,-128.1 266.36,-129.02 275.18,-134.88 276.92,-128.1"/>
</a>
</g>
</g>
<!-- Node19&#45;&gt;Node5 -->
<g id="edge28_Node000019_Node000005" class="edge">
<title>Node19&#45;&gt;Node5</title>
<g id="a_edge28_Node000019_Node000005"><a xlink:title=" ">
<path fill="none" stroke="#63b8ff" d="M463.45,-170.47C466.5,-152.23 473.73,-109.07 477.9,-84.14"/>
<polygon fill="#63b8ff" stroke="#63b8ff" points="481.38,-84.57 479.58,-74.13 474.47,-83.41 481.38,-84.57"/>
</a>
</g>
</g>
<!-- Node19&#45;&gt;Node9 -->
<g id="edge30_Node000019_Node000009" class="edge">
<title>Node19&#45;&gt;Node9</title>
<g id="a_edge30_Node000019_Node000009"><a xlink:title=" ">
<path fill="none" stroke="#63b8ff" d="M478.44,-170.32C508.26,-155.02 573.74,-123.6 633.02,-110 753.5,-82.35 1139.24,-69.66 1256.13,-66.39"/>
<polygon fill="#63b8ff" stroke="#63b8ff" points="1256.38,-69.88 1266.28,-66.11 1256.18,-62.88 1256.38,-69.88"/>
</a>
</g>
</g>
<!-- Node20 -->
<g id="Node000020" class="node">
<title>Node20</title>
<g id="a_Node000020"><a xlink:title=" ">
<polygon fill="#e0e0e0" stroke="#999999" points="433.52,-129 384.52,-129 384.52,-110 433.52,-110 433.52,-129"/>
<text text-anchor="middle" x="409.02" y="-117" font-family="Helvetica,sans-Serif" font-size="10.00">cstdlib</text>
</a>
</g>
</g>
<!-- Node19&#45;&gt;Node20 -->
<g id="edge29_Node000019_Node000020" class="edge">
<title>Node19&#45;&gt;Node20</title>
<g id="a_edge29_Node000019_Node000020"><a xlink:title=" ">
<path fill="none" stroke="#63b8ff" d="M454.2,-170.37C446.22,-161.55 433.63,-147.66 423.76,-136.77"/>
<polygon fill="#63b8ff" stroke="#63b8ff" points="426.18,-134.23 416.87,-129.17 420.99,-138.93 426.18,-134.23"/>
</a>
</g>
</g>
<!-- Node23&#45;&gt;Node4 -->
<g id="edge40_Node000023_Node000004" class="edge">
<title>Node23&#45;&gt;Node4</title>
<g id="a_edge40_Node000023_Node000004"><a xlink:title=" ">
<path fill="none" stroke="#63b8ff" d="M203.19,-170.37C208.25,-161.9 216.12,-148.74 222.51,-138.07"/>
<polygon fill="#63b8ff" stroke="#63b8ff" points="225.7,-139.55 227.84,-129.17 219.7,-135.95 225.7,-139.55"/>
</a>
</g>
</g>
<!-- Node23&#45;&gt;Node5 -->
<g id="edge39_Node000023_Node000005" class="edge">
<title>Node23&#45;&gt;Node5</title>
<g id="a_edge39_Node000023_Node000005"><a xlink:title=" ">
<path fill="none" stroke="#63b8ff" d="M190.75,-170.3C179.78,-156.06 161.79,-127.62 177.02,-110 192.88,-91.65 339.71,-76.91 423.36,-69.91"/>
<polygon fill="#63b8ff" stroke="#63b8ff" points="423.8,-73.39 433.48,-69.08 423.23,-66.41 423.8,-73.39"/>
</a>
</g>
</g>
<!-- Node23&#45;&gt;Node7 -->
<g id="edge41_Node000023_Node000007" class="edge">
<title>Node23&#45;&gt;Node7</title>
<g id="a_edge41_Node000023_Node000007"><a xlink:title=" ">
<path fill="none" stroke="#63b8ff" d="M122.95,-175.36C56,-169.3 -26.38,-153.13 9.02,-110 29.53,-85.01 114.8,-73.8 174,-68.96"/>
<polygon fill="#63b8ff" stroke="#63b8ff" points="174.3,-72.44 184,-68.18 173.76,-65.47 174.3,-72.44"/>
</a>
</g>
</g>
<!-- Node23&#45;&gt;Node16 -->
<g id="edge43_Node000023_Node000016" class="edge">
<title>Node23&#45;&gt;Node16</title>
<g id="a_edge43_Node000023_Node000016"><a xlink:title=" ">
<path fill="none" stroke="#63b8ff" d="M273.22,-173.38C310.2,-170.7 355.44,-167.52 396.02,-165 694.1,-146.47 769.46,-154.52 1067.02,-129 1078.93,-127.98 1091.9,-126.55 1103.52,-125.15"/>
<polygon fill="#63b8ff" stroke="#63b8ff" points="1104.24,-128.59 1113.74,-123.89 1103.38,-121.64 1104.24,-128.59"/>
</a>
</g>
</g>
<!-- Node23&#45;&gt;Node18 -->
<g id="edge44_Node000023_Node000018" class="edge">
<title>Node23&#45;&gt;Node18</title>
<g id="a_edge44_Node000023_Node000018"><a xlink:title=" ">
<path fill="none" stroke="#63b8ff" d="M217.51,-170.49C240.03,-160.66 277.33,-144.38 303.21,-133.08"/>
<polygon fill="#63b8ff" stroke="#63b8ff" points="304.75,-136.23 312.51,-129.02 301.95,-129.81 304.75,-136.23"/>
</a>
</g>
</g>
<!-- Node24 -->
<g id="Node000024" class="node">
<title>Node24</title>
<g id="a_Node000024"><a xlink:title=" ">
<polygon fill="#e0e0e0" stroke="#999999" points="130.02,-129 18.02,-129 18.02,-110 130.02,-110 130.02,-129"/>
<text text-anchor="middle" x="74.02" y="-117" font-family="Helvetica,sans-Serif" font-size="10.00">algoim/interval.hpp</text>
</a>
</g>
</g>
<!-- Node23&#45;&gt;Node24 -->
<g id="edge42_Node000023_Node000024" class="edge">
<title>Node23&#45;&gt;Node24</title>
<g id="a_edge42_Node000023_Node000024"><a xlink:title=" ">
<path fill="none" stroke="#63b8ff" d="M179.99,-170.49C159.33,-160.75 125.24,-144.66 101.32,-133.38"/>
<polygon fill="#63b8ff" stroke="#63b8ff" points="102.61,-130.12 92.07,-129.02 99.62,-136.45 102.61,-130.12"/>
</a>
</g>
</g>
<!-- Node25&#45;&gt;Node2 -->
<g id="edge47_Node000025_Node000002" class="edge">
<title>Node25&#45;&gt;Node2</title>
<g id="a_edge47_Node000025_Node000002"><a xlink:title=" ">
<path fill="none" stroke="#63b8ff" d="M1052.22,-406.89C1015.14,-379.96 897.42,-295.25 796.02,-231 775.59,-218.05 751.77,-204.31 734.39,-194.51"/>
<polygon fill="#63b8ff" stroke="#63b8ff" points="735.89,-191.34 725.46,-189.5 732.47,-197.45 735.89,-191.34"/>
</a>
</g>
</g>
<!-- Node25&#45;&gt;Node4 -->
<g id="edge49_Node000025_Node000004" class="edge">
<title>Node25&#45;&gt;Node4</title>
<g id="a_edge49_Node000025_Node000004"><a xlink:title=" ">
<path fill="none" stroke="#63b8ff" d="M992.85,-411.77C810.19,-401.25 339.02,-367.73 339.02,-302 339.02,-302 339.02,-302 339.02,-239.5 339.02,-204.71 337.23,-191.77 315.02,-165 303.12,-150.65 285.34,-140.21 269.38,-133.06"/>
<polygon fill="#63b8ff" stroke="#63b8ff" points="270.32,-129.66 259.74,-129.03 267.62,-136.12 270.32,-129.66"/>
</a>
</g>
</g>
<!-- Node25&#45;&gt;Node6 -->
<g id="edge70_Node000025_Node000006" class="edge">
<title>Node25&#45;&gt;Node6</title>
<g id="a_edge70_Node000025_Node000006"><a xlink:title=" ">
<path fill="none" stroke="#63b8ff" d="M1135.3,-414C1223.79,-410.85 1378.82,-401.11 1508.02,-371 1575.96,-355.17 1596.36,-353.74 1655.02,-316 1735.99,-263.91 1776.05,-189.69 1722.02,-110 1684.97,-55.35 1648.24,-70.32 1584.02,-55 1415.17,-14.72 1206.22,-10.22 1122.86,-10.17"/>
<polygon fill="#63b8ff" stroke="#63b8ff" points="1122.63,-6.67 1112.64,-10.19 1122.65,-13.67 1122.63,-6.67"/>
</a>
</g>
</g>
<!-- Node25&#45;&gt;Node9 -->
<g id="edge74_Node000025_Node000009" class="edge">
<title>Node25&#45;&gt;Node9</title>
<g id="a_edge74_Node000025_Node000009"><a xlink:title=" ">
<path fill="none" stroke="#63b8ff" d="M1070.4,-406.83C1095.53,-372.49 1189.63,-242.43 1257.02,-129 1265.93,-114 1275,-96.34 1281.37,-83.46"/>
<polygon fill="#63b8ff" stroke="#63b8ff" points="1284.6,-84.82 1285.84,-74.3 1278.31,-81.75 1284.6,-84.82"/>
</a>
</g>
</g>
<!-- Node25&#45;&gt;Node12 -->
<g id="edge48_Node000025_Node000012" class="edge">
<title>Node25&#45;&gt;Node12</title>
<g id="a_edge48_Node000025_Node000012"><a xlink:title=" ">
<path fill="none" stroke="#63b8ff" d="M1059.13,-406.63C1044.04,-379.29 998.03,-295.9 977.77,-259.18"/>
<polygon fill="#63b8ff" stroke="#63b8ff" points="980.69,-257.21 972.79,-250.14 974.56,-260.59 980.69,-257.21"/>
</a>
</g>
</g>
<!-- Node25&#45;&gt;Node19 -->
<g id="edge50_Node000025_Node000019" class="edge">
<title>Node25&#45;&gt;Node19</title>
<g id="a_edge50_Node000025_Node000019"><a xlink:title=" ">
<path fill="none" stroke="#63b8ff" d="M1041.86,-406.84C974.28,-380.42 764.77,-298.56 591.02,-231 557.87,-218.11 519.91,-203.4 493.79,-193.29"/>
<polygon fill="#63b8ff" stroke="#63b8ff" points="494.99,-190 484.4,-189.66 492.46,-196.53 494.99,-190"/>
</a>
</g>
</g>
<!-- Node25&#45;&gt;Node21 -->
<g id="edge71_Node000025_Node000021" class="edge">
<title>Node25&#45;&gt;Node21</title>
<g id="a_edge71_Node000025_Node000021"><a xlink:title=" ">
<path fill="none" stroke="#63b8ff" d="M1135.21,-413C1263.19,-406.77 1523.65,-385.64 1575.02,-316 1601.77,-279.74 1569.98,-225.35 1550.31,-197.99"/>
<polygon fill="#63b8ff" stroke="#63b8ff" points="1553,-195.74 1544.21,-189.82 1547.39,-199.93 1553,-195.74"/>
</a>
</g>
</g>
<!-- Node26 -->
<g id="Node000026" class="node">
<title>Node26</title>
<g id="a_Node000026"><a xlink:href="../../d2/dfd/unfitted__domain_8hpp.html" target="_top" xlink:title="Declaration of of UnfittedDomain class.">
<polygon fill="white" stroke="#666666" points="1388.02,-371 1240.02,-371 1240.02,-352 1388.02,-352 1388.02,-371"/>
<text text-anchor="middle" x="1314.02" y="-359" font-family="Helvetica,sans-Serif" font-size="10.00">qugar/unfitted_domain.hpp</text>
</a>
</g>
</g>
<!-- Node25&#45;&gt;Node26 -->
<g id="edge51_Node000025_Node000026" class="edge">
<title>Node25&#45;&gt;Node26</title>
<g id="a_edge51_Node000025_Node000026"><a xlink:title=" ">
<path fill="none" stroke="#63b8ff" d="M1104.19,-406.98C1147.52,-397.8 1216.61,-383.15 1263.58,-373.19"/>
<polygon fill="#63b8ff" stroke="#63b8ff" points="1264.48,-376.58 1273.54,-371.08 1263.03,-369.73 1264.48,-376.58"/>
</a>
</g>
</g>
<!-- Node25&#45;&gt;Node29 -->
<g id="edge72_Node000025_Node000029" class="edge">
<title>Node25&#45;&gt;Node29</title>
<g id="a_edge72_Node000025_Node000029"><a xlink:title=" ">
<path fill="none" stroke="#63b8ff" d="M1135.42,-413.83C1244.73,-410.41 1459.84,-400.27 1640.02,-371 1641.3,-370.79 1642.61,-370.56 1643.93,-370.31"/>
<polygon fill="#63b8ff" stroke="#63b8ff" points="1644.98,-373.66 1654,-368.1 1643.48,-366.82 1644.98,-373.66"/>
</a>
</g>
</g>
<!-- Node25&#45;&gt;Node30 -->
<g id="edge73_Node000025_Node000030" class="edge">
<title>Node25&#45;&gt;Node30</title>
<g id="a_edge73_Node000025_Node000030"><a xlink:title=" ">
<path fill="none" stroke="#63b8ff" d="M1135.49,-415.12C1252.33,-413.5 1491.49,-405.94 1701.8,-370.85"/>
<polygon fill="#63b8ff" stroke="#63b8ff" points="1702.51,-374.28 1711.79,-369.16 1701.34,-367.38 1702.51,-374.28"/>
</a>
</g>
</g>
<!-- Node26&#45;&gt;Node6 -->
<g id="edge64_Node000026_Node000006" class="edge">
<title>Node26&#45;&gt;Node6</title>
<g id="a_edge64_Node000026_Node000006"><a xlink:title=" ">
<path fill="none" stroke="#63b8ff" d="M1388.11,-357.75C1446.82,-353.5 1530,-342.8 1598.02,-316 1652.96,-294.35 1708.02,-300.55 1708.02,-241.5 1708.02,-241.5 1708.02,-241.5 1708.02,-118.5 1708.02,-58.74 1256.58,-22.42 1122.89,-12.97"/>
<polygon fill="#63b8ff" stroke="#63b8ff" points="1122.97,-9.47 1112.75,-12.26 1122.48,-16.45 1122.97,-9.47"/>
</a>
</g>
</g>
<!-- Node26&#45;&gt;Node9 -->
<g id="edge69_Node000026_Node000009" class="edge">
<title>Node26&#45;&gt;Node9</title>
<g id="a_edge69_Node000026_Node000009"><a xlink:title=" ">
<path fill="none" stroke="#63b8ff" d="M1339.22,-351.98C1361.6,-343.99 1394.88,-331.03 1422.02,-316 1442.09,-304.89 1444.4,-297.89 1464.02,-286 1494.28,-267.67 1508.09,-272.94 1535.02,-250 1566.8,-222.92 1593.77,-202.3 1575.02,-165 1556.62,-128.39 1538.38,-126.84 1501.02,-110 1442.18,-83.48 1366.91,-72.5 1324.01,-68.15"/>
<polygon fill="#63b8ff" stroke="#63b8ff" points="1324.12,-64.65 1313.83,-67.19 1323.46,-71.62 1324.12,-64.65"/>
</a>
</g>
</g>
<!-- Node26&#45;&gt;Node11 -->
<g id="edge62_Node000026_Node000011" class="edge">
<title>Node26&#45;&gt;Node11</title>
<g id="a_edge62_Node000026_Node000011"><a xlink:title=" ">
<path fill="none" stroke="#63b8ff" d="M1285.54,-351.86C1267.89,-345 1246.32,-333.58 1234.02,-316 1195.65,-261.13 1197.73,-176.53 1200.91,-139.25"/>
<polygon fill="#63b8ff" stroke="#63b8ff" points="1204.4,-139.57 1201.89,-129.28 1197.43,-138.89 1204.4,-139.57"/>
</a>
</g>
</g>
<!-- Node26&#45;&gt;Node12 -->
<g id="edge52_Node000026_Node000012" class="edge">
<title>Node26&#45;&gt;Node12</title>
<g id="a_edge52_Node000026_Node000012"><a xlink:title=" ">
<path fill="none" stroke="#63b8ff" d="M1239.86,-352.76C1194.8,-346.39 1136.77,-335.19 1088.02,-316 1049.55,-300.86 1009.7,-273.34 986.97,-256.32"/>
<polygon fill="#63b8ff" stroke="#63b8ff" points="988.95,-253.43 978.87,-250.15 984.71,-259 988.95,-253.43"/>
</a>
</g>
</g>
<!-- Node26&#45;&gt;Node15 -->
<g id="edge63_Node000026_Node000015" class="edge">
<title>Node26&#45;&gt;Node15</title>
<g id="a_edge63_Node000026_Node000015"><a xlink:title=" ">
<path fill="none" stroke="#63b8ff" d="M1288.17,-351.99C1271.76,-345.09 1251.82,-333.58 1242.02,-316 1235.53,-304.35 1238.09,-298.74 1242.02,-286 1256.44,-239.23 1278.63,-236.84 1304.02,-195 1315.41,-176.24 1327.14,-153.98 1334.92,-138.71"/>
<polygon fill="#63b8ff" stroke="#63b8ff" points="1338.25,-139.89 1339.63,-129.38 1332,-136.73 1338.25,-139.89"/>
</a>
</g>
</g>
<!-- Node26&#45;&gt;Node16 -->
<g id="edge65_Node000026_Node000016" class="edge">
<title>Node26&#45;&gt;Node16</title>
<g id="a_edge65_Node000026_Node000016"><a xlink:title=" ">
<path fill="none" stroke="#63b8ff" d="M1278.03,-351.95C1256.94,-345.29 1231.16,-334.06 1214.02,-316 1165.04,-264.38 1147.11,-177.4 1141.39,-139.31"/>
<polygon fill="#63b8ff" stroke="#63b8ff" points="1144.82,-138.58 1139.98,-129.16 1137.89,-139.54 1144.82,-138.58"/>
</a>
</g>
</g>
<!-- Node26&#45;&gt;Node17 -->
<g id="edge66_Node000026_Node000017" class="edge">
<title>Node26&#45;&gt;Node17</title>
<g id="a_edge66_Node000026_Node000017"><a xlink:title=" ">
<path fill="none" stroke="#63b8ff" d="M1388.21,-358.19C1456.78,-354.3 1551.49,-343.88 1575.02,-316 1618.3,-264.71 1613.04,-220.3 1575.02,-165 1558.62,-141.15 1527.55,-130.07 1501.68,-124.94"/>
<polygon fill="#63b8ff" stroke="#63b8ff" points="1502.16,-121.47 1491.7,-123.19 1500.95,-128.36 1502.16,-121.47"/>
</a>
</g>
</g>
<!-- Node26&#45;&gt;Node21 -->
<g id="edge67_Node000026_Node000021" class="edge">
<title>Node26&#45;&gt;Node21</title>
<g id="a_edge67_Node000026_Node000021"><a xlink:title=" ">
<path fill="none" stroke="#63b8ff" d="M1328.73,-351.9C1343.59,-343.12 1367.13,-328.98 1387.02,-316 1406.53,-303.26 1409.6,-297.23 1430.02,-286 1466.33,-266.03 1488.24,-280.74 1516.02,-250 1528.47,-236.23 1533.54,-215.28 1535.61,-200.07"/>
<polygon fill="#63b8ff" stroke="#63b8ff" points="1539.12,-200.09 1536.67,-189.78 1532.16,-199.37 1539.12,-200.09"/>
</a>
</g>
</g>
<!-- Node27 -->
<g id="Node000027" class="node">
<title>Node27</title>
<g id="a_Node000027"><a xlink:href="../../d8/daf/unfitted__domain__binary__part_8hpp.html" target="_top" xlink:title="Declaration of of UnfittedDomain class.">
<polygon fill="white" stroke="#666666" points="1377.52,-316 1250.52,-316 1250.52,-286 1377.52,-286 1377.52,-316"/>
<text text-anchor="start" x="1258.52" y="-304" font-family="Helvetica,sans-Serif" font-size="10.00">qugar/unfitted_domain</text>
<text text-anchor="middle" x="1314.02" y="-293" font-family="Helvetica,sans-Serif" font-size="10.00">_binary_part.hpp</text>
</a>
</g>
</g>
<!-- Node26&#45;&gt;Node27 -->
<g id="edge53_Node000026_Node000027" class="edge">
<title>Node26&#45;&gt;Node27</title>
<g id="a_edge53_Node000026_Node000027"><a xlink:title=" ">
<path fill="none" stroke="#63b8ff" d="M1314.02,-351.87C1314.02,-345.11 1314.02,-335.35 1314.02,-326.26"/>
<polygon fill="#63b8ff" stroke="#63b8ff" points="1317.52,-326.11 1314.02,-316.11 1310.52,-326.11 1317.52,-326.11"/>
</a>
</g>
</g>
<!-- Node28 -->
<g id="Node000028" class="node">
<title>Node28</title>
<g id="a_Node000028"><a xlink:title=" ">
<polygon fill="#e0e0e0" stroke="#999999" points="1565.52,-310.5 1472.52,-310.5 1472.52,-291.5 1565.52,-291.5 1565.52,-310.5"/>
<text text-anchor="middle" x="1519.02" y="-298.5" font-family="Helvetica,sans-Serif" font-size="10.00">unordered_map</text>
</a>
</g>
</g>
<!-- Node26&#45;&gt;Node28 -->
<g id="edge68_Node000026_Node000028" class="edge">
<title>Node26&#45;&gt;Node28</title>
<g id="a_edge68_Node000026_Node000028"><a xlink:title=" ">
<path fill="none" stroke="#63b8ff" d="M1343.83,-351.99C1379.58,-341.79 1439.65,-324.65 1479.31,-313.33"/>
<polygon fill="#63b8ff" stroke="#63b8ff" points="1480.52,-316.63 1489.18,-310.52 1478.6,-309.9 1480.52,-316.63"/>
</a>
</g>
</g>
<!-- Node27&#45;&gt;Node6 -->
<g id="edge57_Node000027_Node000006" class="edge">
<title>Node27&#45;&gt;Node6</title>
<g id="a_edge57_Node000027_Node000006"><a xlink:title=" ">
<path fill="none" stroke="#63b8ff" d="M1372.14,-285.97C1394.72,-278.27 1419.54,-266.77 1438.02,-250 1463.28,-227.07 1521.27,-137.45 1501.02,-110 1455.81,-48.71 1215.59,-21.69 1122.72,-13.43"/>
<polygon fill="#63b8ff" stroke="#63b8ff" points="1122.92,-9.93 1112.66,-12.55 1122.32,-16.91 1122.92,-9.93"/>
</a>
</g>
</g>
<!-- Node27&#45;&gt;Node9 -->
<g id="edge61_Node000027_Node000009" class="edge">
<title>Node27&#45;&gt;Node9</title>
<g id="a_edge61_Node000027_Node000009"><a xlink:title=" ">
<path fill="none" stroke="#63b8ff" d="M1326.83,-285.71C1354.78,-252.74 1415.86,-169.61 1379.02,-110 1366.9,-90.39 1343.23,-79.13 1323.35,-72.85"/>
<polygon fill="#63b8ff" stroke="#63b8ff" points="1324.24,-69.46 1313.67,-70.07 1322.31,-76.19 1324.24,-69.46"/>
</a>
</g>
</g>
<!-- Node27&#45;&gt;Node11 -->
<g id="edge55_Node000027_Node000011" class="edge">
<title>Node27&#45;&gt;Node11</title>
<g id="a_edge55_Node000027_Node000011"><a xlink:title=" ">
<path fill="none" stroke="#63b8ff" d="M1305.31,-285.91C1285.22,-253.43 1235.7,-173.34 1213.77,-137.88"/>
<polygon fill="#63b8ff" stroke="#63b8ff" points="1216.6,-135.8 1208.36,-129.13 1210.64,-139.48 1216.6,-135.8"/>
</a>
</g>
</g>
<!-- Node27&#45;&gt;Node12 -->
<g id="edge54_Node000027_Node000012" class="edge">
<title>Node27&#45;&gt;Node12</title>
<g id="a_edge54_Node000027_Node000012"><a xlink:title=" ">
<path fill="none" stroke="#63b8ff" d="M1250.16,-289.2C1186.81,-278.49 1090.45,-262.2 1028.36,-251.7"/>
<polygon fill="#63b8ff" stroke="#63b8ff" points="1028.77,-248.22 1018.32,-250 1027.6,-255.12 1028.77,-248.22"/>
</a>
</g>
</g>
<!-- Node27&#45;&gt;Node15 -->
<g id="edge56_Node000027_Node000015" class="edge">
<title>Node27&#45;&gt;Node15</title>
<g id="a_edge56_Node000027_Node000015"><a xlink:title=" ">
<path fill="none" stroke="#63b8ff" d="M1318.9,-285.95C1325.55,-266.02 1337.21,-228.24 1342.02,-195 1344.74,-176.22 1345,-154.52 1344.73,-139.4"/>
<polygon fill="#63b8ff" stroke="#63b8ff" points="1348.22,-139.17 1344.44,-129.27 1341.22,-139.37 1348.22,-139.17"/>
</a>
</g>
</g>
<!-- Node27&#45;&gt;Node16 -->
<g id="edge58_Node000027_Node000016" class="edge">
<title>Node27&#45;&gt;Node16</title>
<g id="a_edge58_Node000027_Node000016"><a xlink:title=" ">
<path fill="none" stroke="#63b8ff" d="M1300.29,-285.91C1268.21,-253.01 1188.53,-171.28 1154.65,-136.54"/>
<polygon fill="#63b8ff" stroke="#63b8ff" points="1156.93,-133.85 1147.44,-129.13 1151.91,-138.74 1156.93,-133.85"/>
</a>
</g>
</g>
<!-- Node27&#45;&gt;Node17 -->
<g id="edge59_Node000027_Node000017" class="edge">
<title>Node27&#45;&gt;Node17</title>
<g id="a_edge59_Node000027_Node000017"><a xlink:title=" ">
<path fill="none" stroke="#63b8ff" d="M1363.09,-285.9C1382.54,-278.11 1403.64,-266.57 1418.02,-250 1445.88,-217.89 1454.83,-166.8 1457.69,-139.37"/>
<polygon fill="#63b8ff" stroke="#63b8ff" points="1461.2,-139.46 1458.58,-129.19 1454.23,-138.85 1461.2,-139.46"/>
</a>
</g>
</g>
<!-- Node27&#45;&gt;Node21 -->
<g id="edge60_Node000027_Node000021" class="edge">
<title>Node27&#45;&gt;Node21</title>
<g id="a_edge60_Node000027_Node000021"><a xlink:title=" ">
<path fill="none" stroke="#63b8ff" d="M1377.88,-287.39C1421.84,-277.77 1475.52,-263.84 1494.02,-250 1511.29,-237.09 1523.26,-215.02 1530.1,-199.32"/>
<polygon fill="#63b8ff" stroke="#63b8ff" points="1533.51,-200.24 1534.03,-189.65 1527.02,-197.6 1533.51,-200.24"/>
</a>
</g>
</g>
</g>
</svg>
