<?xml version="1.0" encoding="UTF-8" standalone="no"?>
<!DOCTYPE svg PUBLIC "-//W3C//DTD SVG 1.1//EN"
 "http://www.w3.org/Graphics/SVG/1.1/DTD/svg11.dtd">
<!-- Generated by graphviz version 2.43.0 (0)
 -->
<!-- Title: /__w/qugar/qugar/cpp/include/qugar/ref_system.hpp Pages: 1 -->
<svg width="172pt" height="192pt"
 viewBox="0.00 0.00 172.00 192.00" xmlns="http://www.w3.org/2000/svg" xmlns:xlink="http://www.w3.org/1999/xlink">
<g id="graph0" class="graph" transform="scale(1 1) rotate(0) translate(4 188)">
<title>/__w/qugar/qugar/cpp/include/qugar/ref_system.hpp</title>
<!-- Node1 -->
<g id="Node000001" class="node">
<title>Node1</title>
<g id="a_Node000001"><a xlink:title="Declaration of reference system class.">
<polygon fill="#999999" stroke="#666666" points="164,-184 0,-184 0,-154 164,-154 164,-184"/>
<text text-anchor="start" x="8" y="-172" font-family="Helvetica,sans-Serif" font-size="10.00">/__w/qugar/qugar/cpp</text>
<text text-anchor="middle" x="82" y="-161" font-family="Helvetica,sans-Serif" font-size="10.00">/include/qugar/ref_system.hpp</text>
</a>
</g>
</g>
<!-- Node2 -->
<g id="Node000002" class="node">
<title>Node2</title>
<g id="a_Node000002"><a xlink:href="../../d7/d6f/primitive__funcs__lib_8hpp.html" target="_top" xlink:title="Declaration of a primitive implicit functions ready to be consumed by Algoim.">
<polygon fill="white" stroke="#666666" points="148.5,-118 15.5,-118 15.5,-77 148.5,-77 148.5,-118"/>
<text text-anchor="start" x="23.5" y="-106" font-family="Helvetica,sans-Serif" font-size="10.00">/__w/qugar/qugar/cpp</text>
<text text-anchor="start" x="23.5" y="-95" font-family="Helvetica,sans-Serif" font-size="10.00">/include/qugar/primitive</text>
<text text-anchor="middle" x="82" y="-84" font-family="Helvetica,sans-Serif" font-size="10.00">_funcs_lib.hpp</text>
</a>
</g>
</g>
<!-- Node1&#45;&gt;Node2 -->
<g id="edge1_Node000001_Node000002" class="edge">
<title>Node1&#45;&gt;Node2</title>
<g id="a_edge1_Node000001_Node000002"><a xlink:title=" ">
<path fill="none" stroke="#63b8ff" d="M82,-143.91C82,-135.47 82,-126.1 82,-118.07"/>
<polygon fill="#63b8ff" stroke="#63b8ff" points="78.5,-143.94 82,-153.94 85.5,-143.94 78.5,-143.94"/>
</a>
</g>
</g>
<!-- Node3 -->
<g id="Node000003" class="node">
<title>Node3</title>
<g id="a_Node000003"><a xlink:href="../../d0/d6f/demo__quad__sphere_2main_8cpp.html" target="_top" xlink:title=" ">
<polygon fill="white" stroke="#666666" points="155,-41 9,-41 9,0 155,0 155,-41"/>
<text text-anchor="start" x="17" y="-29" font-family="Helvetica,sans-Serif" font-size="10.00">/__w/qugar/qugar/cpp</text>
<text text-anchor="start" x="17" y="-18" font-family="Helvetica,sans-Serif" font-size="10.00">/demo/demo_quad_sphere</text>
<text text-anchor="middle" x="82" y="-7" font-family="Helvetica,sans-Serif" font-size="10.00">/main.cpp</text>
</a>
</g>
</g>
<!-- Node2&#45;&gt;Node3 -->
<g id="edge2_Node000002_Node000003" class="edge">
<title>Node2&#45;&gt;Node3</title>
<g id="a_edge2_Node000002_Node000003"><a xlink:title=" ">
<path fill="none" stroke="#63b8ff" d="M82,-66.69C82,-58.08 82,-48.9 82,-41.07"/>
<polygon fill="#63b8ff" stroke="#63b8ff" points="78.5,-66.79 82,-76.79 85.5,-66.79 78.5,-66.79"/>
</a>
</g>
</g>
</g>
</svg>
