<?xml version="1.0" encoding="UTF-8" standalone="no"?>
<!DOCTYPE svg PUBLIC "-//W3C//DTD SVG 1.1//EN"
 "http://www.w3.org/Graphics/SVG/1.1/DTD/svg11.dtd">
<!-- Generated by graphviz version 2.43.0 (0)
 -->
<!-- Title: qugar::impl::funcs::CylinderBase::CylinderBase Pages: 1 -->
<svg width="325pt" height="134pt"
 viewBox="0.00 0.00 325.00 134.00" xmlns="http://www.w3.org/2000/svg" xmlns:xlink="http://www.w3.org/1999/xlink">
<g id="graph0" class="graph" transform="scale(1 1) rotate(0) translate(4 130)">
<title>qugar::impl::funcs::CylinderBase::CylinderBase</title>
<!-- Node1 -->
<g id="Node000001" class="node">
<title>Node1</title>
<g id="a_Node000001"><a xlink:title="Constructor.">
<polygon fill="#999999" stroke="#666666" points="158,-78 0,-78 0,-48 158,-48 158,-78"/>
<text text-anchor="start" x="8" y="-66" font-family="Helvetica,sans-Serif" font-size="10.00">qugar::impl::funcs</text>
<text text-anchor="middle" x="79" y="-55" font-family="Helvetica,sans-Serif" font-size="10.00">::CylinderBase::CylinderBase</text>
</a>
</g>
</g>
<!-- Node2 -->
<g id="Node000002" class="node">
<title>Node2</title>
<g id="a_Node000002"><a xlink:href="../../d5/d65/classqugar_1_1impl_1_1funcs_1_1CylinderBase.html#a1229c227a2e1c326d27d16446002c0cb" target="_top" xlink:title="Gets the axis of the cylinder.">
<polygon fill="white" stroke="#666666" points="312,-126 199,-126 199,-96 312,-96 312,-126"/>
<text text-anchor="start" x="207" y="-114" font-family="Helvetica,sans-Serif" font-size="10.00">qugar::impl::funcs</text>
<text text-anchor="middle" x="255.5" y="-103" font-family="Helvetica,sans-Serif" font-size="10.00">::CylinderBase::axis</text>
</a>
</g>
</g>
<!-- Node1&#45;&gt;Node2 -->
<g id="edge1_Node000001_Node000002" class="edge">
<title>Node1&#45;&gt;Node2</title>
<g id="a_edge1_Node000001_Node000002"><a xlink:title=" ">
<path fill="none" stroke="#63b8ff" d="M134.73,-78.06C152.36,-82.9 172.04,-88.32 190.29,-93.34"/>
<polygon fill="#63b8ff" stroke="#63b8ff" points="189.39,-96.72 199.96,-96 191.25,-89.97 189.39,-96.72"/>
</a>
</g>
</g>
<!-- Node3 -->
<g id="Node000003" class="node">
<title>Node3</title>
<g id="a_Node000003"><a xlink:href="../../d5/d65/classqugar_1_1impl_1_1funcs_1_1CylinderBase.html#aa8f2f25af45beb10e9c6ca76c3ebaf09" target="_top" xlink:title="Gets the origin of the cylinder.">
<polygon fill="white" stroke="#666666" points="316,-78 195,-78 195,-48 316,-48 316,-78"/>
<text text-anchor="start" x="203" y="-66" font-family="Helvetica,sans-Serif" font-size="10.00">qugar::impl::funcs</text>
<text text-anchor="middle" x="255.5" y="-55" font-family="Helvetica,sans-Serif" font-size="10.00">::CylinderBase::origin</text>
</a>
</g>
</g>
<!-- Node1&#45;&gt;Node3 -->
<g id="edge2_Node000001_Node000003" class="edge">
<title>Node1&#45;&gt;Node3</title>
<g id="a_edge2_Node000001_Node000003"><a xlink:title=" ">
<path fill="none" stroke="#63b8ff" d="M158.06,-63C166.93,-63 175.93,-63 184.69,-63"/>
<polygon fill="#63b8ff" stroke="#63b8ff" points="184.83,-66.5 194.83,-63 184.83,-59.5 184.83,-66.5"/>
</a>
</g>
</g>
<!-- Node4 -->
<g id="Node000004" class="node">
<title>Node4</title>
<g id="a_Node000004"><a xlink:href="../../d5/d65/classqugar_1_1impl_1_1funcs_1_1CylinderBase.html#a3c0c18a5a821c192c527d6188fec6eaa" target="_top" xlink:title="Gets the radius of the cylinder.">
<polygon fill="white" stroke="#666666" points="317,-30 194,-30 194,0 317,0 317,-30"/>
<text text-anchor="start" x="202" y="-18" font-family="Helvetica,sans-Serif" font-size="10.00">qugar::impl::funcs</text>
<text text-anchor="middle" x="255.5" y="-7" font-family="Helvetica,sans-Serif" font-size="10.00">::CylinderBase::radius</text>
</a>
</g>
</g>
<!-- Node1&#45;&gt;Node4 -->
<g id="edge3_Node000001_Node000004" class="edge">
<title>Node1&#45;&gt;Node4</title>
<g id="a_edge3_Node000001_Node000004"><a xlink:title=" ">
<path fill="none" stroke="#63b8ff" d="M134.73,-47.94C152.36,-43.1 172.04,-37.68 190.29,-32.66"/>
<polygon fill="#63b8ff" stroke="#63b8ff" points="191.25,-36.03 199.96,-30 189.39,-29.28 191.25,-36.03"/>
</a>
</g>
</g>
</g>
</svg>
