<?xml version="1.0" encoding="UTF-8" standalone="no"?>
<!DOCTYPE svg PUBLIC "-//W3C//DTD SVG 1.1//EN"
 "http://www.w3.org/Graphics/SVG/1.1/DTD/svg11.dtd">
<!-- Generated by graphviz version 2.43.0 (0)
 -->
<!-- Title: qugar::impl::funcs::CylinderBase::axis Pages: 1 -->
<svg width="315pt" height="194pt"
 viewBox="0.00 0.00 315.00 193.50" xmlns="http://www.w3.org/2000/svg" xmlns:xlink="http://www.w3.org/1999/xlink">
<g id="graph0" class="graph" transform="scale(1 1) rotate(0) translate(4 189.5)">
<title>qugar::impl::funcs::CylinderBase::axis</title>
<!-- Node1 -->
<g id="Node000001" class="node">
<title>Node1</title>
<g id="a_Node000001"><a xlink:title="Gets the axis of the cylinder.">
<polygon fill="#999999" stroke="#666666" points="307,-102 194,-102 194,-72 307,-72 307,-102"/>
<text text-anchor="start" x="202" y="-90" font-family="Helvetica,sans-Serif" font-size="10.00">qugar::impl::funcs</text>
<text text-anchor="middle" x="250.5" y="-79" font-family="Helvetica,sans-Serif" font-size="10.00">::CylinderBase::axis</text>
</a>
</g>
</g>
<!-- Node2 -->
<g id="Node000002" class="node">
<title>Node2</title>
<g id="a_Node000002"><a xlink:href="../../dc/de2/classqugar_1_1impl_1_1funcs_1_1CylinderBzr.html#a9dbdd1c588c7fbdf76c349373bd2a8c1" target="_top" xlink:title="Creates a polynomial representation based on monomials for the given center, radius,...">
<polygon fill="white" stroke="#666666" points="137,-185.5 21,-185.5 21,-144.5 137,-144.5 137,-185.5"/>
<text text-anchor="start" x="29" y="-173.5" font-family="Helvetica,sans-Serif" font-size="10.00">qugar::impl::funcs</text>
<text text-anchor="start" x="29" y="-162.5" font-family="Helvetica,sans-Serif" font-size="10.00">::CylinderBzr::create</text>
<text text-anchor="middle" x="79" y="-151.5" font-family="Helvetica,sans-Serif" font-size="10.00">_monomials</text>
</a>
</g>
</g>
<!-- Node1&#45;&gt;Node2 -->
<g id="edge1_Node000001_Node000002" class="edge">
<title>Node1&#45;&gt;Node2</title>
<g id="a_edge1_Node000001_Node000002"><a xlink:title=" ">
<path fill="none" stroke="#63b8ff" d="M213.8,-106.96C197.08,-115.99 176.75,-126.51 158,-135 150.86,-138.23 143.27,-141.43 135.72,-144.48"/>
<polygon fill="#63b8ff" stroke="#63b8ff" points="215.58,-109.98 222.68,-102.12 212.23,-103.83 215.58,-109.98"/>
</a>
</g>
</g>
<!-- Node3 -->
<g id="Node000003" class="node">
<title>Node3</title>
<g id="a_Node000003"><a xlink:href="../../d6/dcd/classqugar_1_1impl_1_1funcs_1_1Cylinder.html#a51acf0eb4c48793fdff0f87c0eee6d50" target="_top" xlink:title="Constructor.">
<polygon fill="white" stroke="#666666" points="134,-126 24,-126 24,-96 134,-96 134,-126"/>
<text text-anchor="start" x="32" y="-114" font-family="Helvetica,sans-Serif" font-size="10.00">qugar::impl::funcs</text>
<text text-anchor="middle" x="79" y="-103" font-family="Helvetica,sans-Serif" font-size="10.00">::Cylinder::Cylinder</text>
</a>
</g>
</g>
<!-- Node1&#45;&gt;Node3 -->
<g id="edge2_Node000001_Node000003" class="edge">
<title>Node1&#45;&gt;Node3</title>
<g id="a_edge2_Node000001_Node000003"><a xlink:title=" ">
<path fill="none" stroke="#63b8ff" d="M183.91,-96.29C167.47,-98.62 150,-101.09 134.18,-103.33"/>
<polygon fill="#63b8ff" stroke="#63b8ff" points="184.59,-99.73 194,-94.86 183.61,-92.8 184.59,-99.73"/>
</a>
</g>
</g>
<!-- Node4 -->
<g id="Node000004" class="node">
<title>Node4</title>
<g id="a_Node000004"><a xlink:href="../../d5/d65/classqugar_1_1impl_1_1funcs_1_1CylinderBase.html#a78c44e6c623e1568fb2359e052a16176" target="_top" xlink:title="Constructor.">
<polygon fill="white" stroke="#666666" points="158,-78 0,-78 0,-48 158,-48 158,-78"/>
<text text-anchor="start" x="8" y="-66" font-family="Helvetica,sans-Serif" font-size="10.00">qugar::impl::funcs</text>
<text text-anchor="middle" x="79" y="-55" font-family="Helvetica,sans-Serif" font-size="10.00">::CylinderBase::CylinderBase</text>
</a>
</g>
</g>
<!-- Node1&#45;&gt;Node4 -->
<g id="edge3_Node000001_Node000004" class="edge">
<title>Node1&#45;&gt;Node4</title>
<g id="a_edge3_Node000001_Node000004"><a xlink:title=" ">
<path fill="none" stroke="#63b8ff" d="M183.86,-77.71C175.41,-76.51 166.7,-75.28 158.08,-74.06"/>
<polygon fill="#63b8ff" stroke="#63b8ff" points="183.61,-81.2 194,-79.14 184.59,-74.27 183.61,-81.2"/>
</a>
</g>
</g>
<!-- Node5 -->
<g id="Node000005" class="node">
<title>Node5</title>
<g id="a_Node000005"><a xlink:href="../../dc/de2/classqugar_1_1impl_1_1funcs_1_1CylinderBzr.html#aafb226e16a8edf2c5ec3bcd3f664510a" target="_top" xlink:title="Constructor.">
<polygon fill="white" stroke="#666666" points="149.5,-30 8.5,-30 8.5,0 149.5,0 149.5,-30"/>
<text text-anchor="start" x="16.5" y="-18" font-family="Helvetica,sans-Serif" font-size="10.00">qugar::impl::funcs</text>
<text text-anchor="middle" x="79" y="-7" font-family="Helvetica,sans-Serif" font-size="10.00">::CylinderBzr::CylinderBzr</text>
</a>
</g>
</g>
<!-- Node1&#45;&gt;Node5 -->
<g id="edge4_Node000001_Node000005" class="edge">
<title>Node1&#45;&gt;Node5</title>
<g id="a_edge4_Node000001_Node000005"><a xlink:title=" ">
<path fill="none" stroke="#63b8ff" d="M214.79,-66.85C197.99,-57.61 177.31,-46.96 158,-39 150.27,-35.82 141.96,-32.82 133.75,-30.11"/>
<polygon fill="#63b8ff" stroke="#63b8ff" points="213.25,-70 223.69,-71.82 216.66,-63.89 213.25,-70"/>
</a>
</g>
</g>
</g>
</svg>
