<?xml version="1.0" encoding="UTF-8" standalone="no"?>
<!DOCTYPE svg PUBLIC "-//W3C//DTD SVG 1.1//EN"
 "http://www.w3.org/Graphics/SVG/1.1/DTD/svg11.dtd">
<!-- Generated by graphviz version 2.43.0 (0)
 -->
<!-- Title: qugar::impl::funcs::CylinderBase::origin Pages: 1 -->
<svg width="323pt" height="290pt"
 viewBox="0.00 0.00 323.00 289.50" xmlns="http://www.w3.org/2000/svg" xmlns:xlink="http://www.w3.org/1999/xlink">
<g id="graph0" class="graph" transform="scale(1 1) rotate(0) translate(4 285.5)">
<title>qugar::impl::funcs::CylinderBase::origin</title>
<!-- Node1 -->
<g id="Node000001" class="node">
<title>Node1</title>
<g id="a_Node000001"><a xlink:title="Gets the origin of the cylinder.">
<polygon fill="#999999" stroke="#666666" points="315,-150 194,-150 194,-120 315,-120 315,-150"/>
<text text-anchor="start" x="202" y="-138" font-family="Helvetica,sans-Serif" font-size="10.00">qugar::impl::funcs</text>
<text text-anchor="middle" x="254.5" y="-127" font-family="Helvetica,sans-Serif" font-size="10.00">::CylinderBase::origin</text>
</a>
</g>
</g>
<!-- Node2 -->
<g id="Node000002" class="node">
<title>Node2</title>
<g id="a_Node000002"><a xlink:href="../../dc/de2/classqugar_1_1impl_1_1funcs_1_1CylinderBzr.html#a9dbdd1c588c7fbdf76c349373bd2a8c1" target="_top" xlink:title="Creates a polynomial representation based on monomials for the given center, radius,...">
<polygon fill="white" stroke="#666666" points="137,-281.5 21,-281.5 21,-240.5 137,-240.5 137,-281.5"/>
<text text-anchor="start" x="29" y="-269.5" font-family="Helvetica,sans-Serif" font-size="10.00">qugar::impl::funcs</text>
<text text-anchor="start" x="29" y="-258.5" font-family="Helvetica,sans-Serif" font-size="10.00">::CylinderBzr::create</text>
<text text-anchor="middle" x="79" y="-247.5" font-family="Helvetica,sans-Serif" font-size="10.00">_monomials</text>
</a>
</g>
</g>
<!-- Node1&#45;&gt;Node2 -->
<g id="edge1_Node000001_Node000002" class="edge">
<title>Node1&#45;&gt;Node2</title>
<g id="a_edge1_Node000001_Node000002"><a xlink:title=" ">
<path fill="none" stroke="#63b8ff" d="M235.32,-158.23C217.56,-179.6 188.78,-210.94 158,-231 151.56,-235.2 144.44,-238.94 137.2,-242.25"/>
<polygon fill="#63b8ff" stroke="#63b8ff" points="238.18,-160.26 241.79,-150.29 232.76,-155.83 238.18,-160.26"/>
</a>
</g>
</g>
<!-- Node3 -->
<g id="Node000003" class="node">
<title>Node3</title>
<g id="a_Node000003"><a xlink:href="../../d6/dcd/classqugar_1_1impl_1_1funcs_1_1Cylinder.html#aec3e4b9468f75664cc7b98b28bc66f47" target="_top" xlink:title="Constructor.">
<polygon fill="white" stroke="#666666" points="134,-222 24,-222 24,-192 134,-192 134,-222"/>
<text text-anchor="start" x="32" y="-210" font-family="Helvetica,sans-Serif" font-size="10.00">qugar::impl::funcs</text>
<text text-anchor="middle" x="79" y="-199" font-family="Helvetica,sans-Serif" font-size="10.00">::Cylinder::Cylinder</text>
</a>
</g>
</g>
<!-- Node1&#45;&gt;Node3 -->
<g id="edge2_Node000001_Node000003" class="edge">
<title>Node1&#45;&gt;Node3</title>
<g id="a_edge2_Node000001_Node000003"><a xlink:title=" ">
<path fill="none" stroke="#63b8ff" d="M217.17,-155.06C199.62,-164.29 178.05,-174.94 158,-183 150.11,-186.17 141.64,-189.17 133.28,-191.91"/>
<polygon fill="#63b8ff" stroke="#63b8ff" points="219.3,-157.89 226.48,-150.11 216.01,-151.72 219.3,-157.89"/>
</a>
</g>
</g>
<!-- Node4 -->
<g id="Node000004" class="node">
<title>Node4</title>
<g id="a_Node000004"><a xlink:href="../../d6/dcd/classqugar_1_1impl_1_1funcs_1_1Cylinder.html#a51acf0eb4c48793fdff0f87c0eee6d50" target="_top" xlink:title="Constructor.">
<polygon fill="white" stroke="#666666" points="134,-174 24,-174 24,-144 134,-144 134,-174"/>
<text text-anchor="start" x="32" y="-162" font-family="Helvetica,sans-Serif" font-size="10.00">qugar::impl::funcs</text>
<text text-anchor="middle" x="79" y="-151" font-family="Helvetica,sans-Serif" font-size="10.00">::Cylinder::Cylinder</text>
</a>
</g>
</g>
<!-- Node1&#45;&gt;Node4 -->
<g id="edge3_Node000001_Node000004" class="edge">
<title>Node1&#45;&gt;Node4</title>
<g id="a_edge3_Node000001_Node000004"><a xlink:title=" ">
<path fill="none" stroke="#63b8ff" d="M183.63,-144.67C167.09,-146.95 149.71,-149.36 134,-151.53"/>
<polygon fill="#63b8ff" stroke="#63b8ff" points="184.37,-148.1 193.79,-143.26 183.41,-141.16 184.37,-148.1"/>
</a>
</g>
</g>
<!-- Node5 -->
<g id="Node000005" class="node">
<title>Node5</title>
<g id="a_Node000005"><a xlink:href="../../d5/d65/classqugar_1_1impl_1_1funcs_1_1CylinderBase.html#a78c44e6c623e1568fb2359e052a16176" target="_top" xlink:title="Constructor.">
<polygon fill="white" stroke="#666666" points="158,-126 0,-126 0,-96 158,-96 158,-126"/>
<text text-anchor="start" x="8" y="-114" font-family="Helvetica,sans-Serif" font-size="10.00">qugar::impl::funcs</text>
<text text-anchor="middle" x="79" y="-103" font-family="Helvetica,sans-Serif" font-size="10.00">::CylinderBase::CylinderBase</text>
</a>
</g>
</g>
<!-- Node1&#45;&gt;Node5 -->
<g id="edge4_Node000001_Node000005" class="edge">
<title>Node1&#45;&gt;Node5</title>
<g id="a_edge4_Node000001_Node000005"><a xlink:title=" ">
<path fill="none" stroke="#63b8ff" d="M183.69,-125.34C175.31,-124.18 166.7,-122.99 158.2,-121.82"/>
<polygon fill="#63b8ff" stroke="#63b8ff" points="183.41,-128.84 193.79,-126.74 184.37,-121.9 183.41,-128.84"/>
</a>
</g>
</g>
<!-- Node6 -->
<g id="Node000006" class="node">
<title>Node6</title>
<g id="a_Node000006"><a xlink:href="../../dc/de2/classqugar_1_1impl_1_1funcs_1_1CylinderBzr.html#a71aaf72c25271a7949a4a2abcb75ab74" target="_top" xlink:title="Constructor.">
<polygon fill="white" stroke="#666666" points="149.5,-78 8.5,-78 8.5,-48 149.5,-48 149.5,-78"/>
<text text-anchor="start" x="16.5" y="-66" font-family="Helvetica,sans-Serif" font-size="10.00">qugar::impl::funcs</text>
<text text-anchor="middle" x="79" y="-55" font-family="Helvetica,sans-Serif" font-size="10.00">::CylinderBzr::CylinderBzr</text>
</a>
</g>
</g>
<!-- Node1&#45;&gt;Node6 -->
<g id="edge5_Node000001_Node000006" class="edge">
<title>Node1&#45;&gt;Node6</title>
<g id="a_edge5_Node000001_Node000006"><a xlink:title=" ">
<path fill="none" stroke="#63b8ff" d="M217.17,-114.94C199.62,-105.71 178.05,-95.06 158,-87 150.11,-83.83 141.64,-80.83 133.28,-78.09"/>
<polygon fill="#63b8ff" stroke="#63b8ff" points="216.01,-118.28 226.48,-119.89 219.3,-112.11 216.01,-118.28"/>
</a>
</g>
</g>
<!-- Node7 -->
<g id="Node000007" class="node">
<title>Node7</title>
<g id="a_Node000007"><a xlink:href="../../dc/de2/classqugar_1_1impl_1_1funcs_1_1CylinderBzr.html#aafb226e16a8edf2c5ec3bcd3f664510a" target="_top" xlink:title="Constructor.">
<polygon fill="white" stroke="#666666" points="149.5,-30 8.5,-30 8.5,0 149.5,0 149.5,-30"/>
<text text-anchor="start" x="16.5" y="-18" font-family="Helvetica,sans-Serif" font-size="10.00">qugar::impl::funcs</text>
<text text-anchor="middle" x="79" y="-7" font-family="Helvetica,sans-Serif" font-size="10.00">::CylinderBzr::CylinderBzr</text>
</a>
</g>
</g>
<!-- Node1&#45;&gt;Node7 -->
<g id="edge6_Node000001_Node000007" class="edge">
<title>Node1&#45;&gt;Node7</title>
<g id="a_edge6_Node000001_Node000007"><a xlink:title=" ">
<path fill="none" stroke="#63b8ff" d="M235.92,-111.65C218.41,-89.92 189.62,-58.1 158,-39 152.42,-35.63 146.33,-32.7 140.09,-30.15"/>
<polygon fill="#63b8ff" stroke="#63b8ff" points="233.34,-114.03 242.28,-119.72 238.84,-109.7 233.34,-114.03"/>
</a>
</g>
</g>
</g>
</svg>
