<?xml version="1.0" encoding="UTF-8" standalone="no"?>
<!DOCTYPE svg PUBLIC "-//W3C//DTD SVG 1.1//EN"
 "http://www.w3.org/Graphics/SVG/1.1/DTD/svg11.dtd">
<!-- Generated by graphviz version 2.43.0 (0)
 -->
<!-- Title: qugar::impl::funcs::CylinderBase::radius Pages: 1 -->
<svg width="325pt" height="386pt"
 viewBox="0.00 0.00 325.00 385.50" xmlns="http://www.w3.org/2000/svg" xmlns:xlink="http://www.w3.org/1999/xlink">
<g id="graph0" class="graph" transform="scale(1 1) rotate(0) translate(4 381.5)">
<title>qugar::impl::funcs::CylinderBase::radius</title>
<!-- Node1 -->
<g id="Node000001" class="node">
<title>Node1</title>
<g id="a_Node000001"><a xlink:title="Gets the radius of the cylinder.">
<polygon fill="#999999" stroke="#666666" points="317,-198 194,-198 194,-168 317,-168 317,-198"/>
<text text-anchor="start" x="202" y="-186" font-family="Helvetica,sans-Serif" font-size="10.00">qugar::impl::funcs</text>
<text text-anchor="middle" x="255.5" y="-175" font-family="Helvetica,sans-Serif" font-size="10.00">::CylinderBase::radius</text>
</a>
</g>
</g>
<!-- Node2 -->
<g id="Node000002" class="node">
<title>Node2</title>
<g id="a_Node000002"><a xlink:href="../../dc/de2/classqugar_1_1impl_1_1funcs_1_1CylinderBzr.html#a9dbdd1c588c7fbdf76c349373bd2a8c1" target="_top" xlink:title="Creates a polynomial representation based on monomials for the given center, radius,...">
<polygon fill="white" stroke="#666666" points="137,-377.5 21,-377.5 21,-336.5 137,-336.5 137,-377.5"/>
<text text-anchor="start" x="29" y="-365.5" font-family="Helvetica,sans-Serif" font-size="10.00">qugar::impl::funcs</text>
<text text-anchor="start" x="29" y="-354.5" font-family="Helvetica,sans-Serif" font-size="10.00">::CylinderBzr::create</text>
<text text-anchor="middle" x="79" y="-343.5" font-family="Helvetica,sans-Serif" font-size="10.00">_monomials</text>
</a>
</g>
</g>
<!-- Node1&#45;&gt;Node2 -->
<g id="edge1_Node000001_Node000002" class="edge">
<title>Node1&#45;&gt;Node2</title>
<g id="a_edge1_Node000001_Node000002"><a xlink:title=" ">
<path fill="none" stroke="#63b8ff" d="M243.77,-207.72C228.85,-239.45 198.96,-294.3 158,-327 151.76,-331.98 144.61,-336.2 137.21,-339.77"/>
<polygon fill="#63b8ff" stroke="#63b8ff" points="247.11,-208.84 248.09,-198.29 240.75,-205.92 247.11,-208.84"/>
</a>
</g>
</g>
<!-- Node3 -->
<g id="Node000003" class="node">
<title>Node3</title>
<g id="a_Node000003"><a xlink:href="../../d6/dcd/classqugar_1_1impl_1_1funcs_1_1Cylinder.html#a0aa240d7e699ea082345c8c9fd79f2e1" target="_top" xlink:title="Constructor.">
<polygon fill="white" stroke="#666666" points="134,-318 24,-318 24,-288 134,-288 134,-318"/>
<text text-anchor="start" x="32" y="-306" font-family="Helvetica,sans-Serif" font-size="10.00">qugar::impl::funcs</text>
<text text-anchor="middle" x="79" y="-295" font-family="Helvetica,sans-Serif" font-size="10.00">::Cylinder::Cylinder</text>
</a>
</g>
</g>
<!-- Node1&#45;&gt;Node3 -->
<g id="edge2_Node000001_Node000003" class="edge">
<title>Node1&#45;&gt;Node3</title>
<g id="a_edge2_Node000001_Node000003"><a xlink:title=" ">
<path fill="none" stroke="#63b8ff" d="M236.69,-206.34C218.95,-228.07 189.84,-259.89 158,-279 150.71,-283.38 142.55,-287.02 134.34,-290.03"/>
<polygon fill="#63b8ff" stroke="#63b8ff" points="239.62,-208.27 243.13,-198.28 234.15,-203.91 239.62,-208.27"/>
</a>
</g>
</g>
<!-- Node4 -->
<g id="Node000004" class="node">
<title>Node4</title>
<g id="a_Node000004"><a xlink:href="../../d6/dcd/classqugar_1_1impl_1_1funcs_1_1Cylinder.html#aec3e4b9468f75664cc7b98b28bc66f47" target="_top" xlink:title="Constructor.">
<polygon fill="white" stroke="#666666" points="134,-270 24,-270 24,-240 134,-240 134,-270"/>
<text text-anchor="start" x="32" y="-258" font-family="Helvetica,sans-Serif" font-size="10.00">qugar::impl::funcs</text>
<text text-anchor="middle" x="79" y="-247" font-family="Helvetica,sans-Serif" font-size="10.00">::Cylinder::Cylinder</text>
</a>
</g>
</g>
<!-- Node1&#45;&gt;Node4 -->
<g id="edge3_Node000001_Node000004" class="edge">
<title>Node1&#45;&gt;Node4</title>
<g id="a_edge3_Node000001_Node000004"><a xlink:title=" ">
<path fill="none" stroke="#63b8ff" d="M218.26,-202.78C200.43,-212.06 178.42,-222.84 158,-231 150.11,-234.15 141.63,-237.15 133.27,-239.88"/>
<polygon fill="#63b8ff" stroke="#63b8ff" points="219.96,-205.84 227.18,-198.09 216.7,-199.65 219.96,-205.84"/>
</a>
</g>
</g>
<!-- Node5 -->
<g id="Node000005" class="node">
<title>Node5</title>
<g id="a_Node000005"><a xlink:href="../../d6/dcd/classqugar_1_1impl_1_1funcs_1_1Cylinder.html#a51acf0eb4c48793fdff0f87c0eee6d50" target="_top" xlink:title="Constructor.">
<polygon fill="white" stroke="#666666" points="134,-222 24,-222 24,-192 134,-192 134,-222"/>
<text text-anchor="start" x="32" y="-210" font-family="Helvetica,sans-Serif" font-size="10.00">qugar::impl::funcs</text>
<text text-anchor="middle" x="79" y="-199" font-family="Helvetica,sans-Serif" font-size="10.00">::Cylinder::Cylinder</text>
</a>
</g>
</g>
<!-- Node1&#45;&gt;Node5 -->
<g id="edge4_Node000001_Node000005" class="edge">
<title>Node1&#45;&gt;Node5</title>
<g id="a_edge4_Node000001_Node000005"><a xlink:title=" ">
<path fill="none" stroke="#63b8ff" d="M183.76,-192.73C167.16,-195.01 149.75,-197.41 134.02,-199.57"/>
<polygon fill="#63b8ff" stroke="#63b8ff" points="184.53,-196.16 193.96,-191.33 183.57,-189.22 184.53,-196.16"/>
</a>
</g>
</g>
<!-- Node6 -->
<g id="Node000006" class="node">
<title>Node6</title>
<g id="a_Node000006"><a xlink:href="../../d5/d65/classqugar_1_1impl_1_1funcs_1_1CylinderBase.html#a78c44e6c623e1568fb2359e052a16176" target="_top" xlink:title="Constructor.">
<polygon fill="white" stroke="#666666" points="158,-174 0,-174 0,-144 158,-144 158,-174"/>
<text text-anchor="start" x="8" y="-162" font-family="Helvetica,sans-Serif" font-size="10.00">qugar::impl::funcs</text>
<text text-anchor="middle" x="79" y="-151" font-family="Helvetica,sans-Serif" font-size="10.00">::CylinderBase::CylinderBase</text>
</a>
</g>
</g>
<!-- Node1&#45;&gt;Node6 -->
<g id="edge5_Node000001_Node000006" class="edge">
<title>Node1&#45;&gt;Node6</title>
<g id="a_edge5_Node000001_Node000006"><a xlink:title=" ">
<path fill="none" stroke="#63b8ff" d="M183.82,-173.28C175.4,-172.12 166.77,-170.93 158.26,-169.76"/>
<polygon fill="#63b8ff" stroke="#63b8ff" points="183.57,-176.78 193.96,-174.67 184.53,-169.84 183.57,-176.78"/>
</a>
</g>
</g>
<!-- Node7 -->
<g id="Node000007" class="node">
<title>Node7</title>
<g id="a_Node000007"><a xlink:href="../../dc/de2/classqugar_1_1impl_1_1funcs_1_1CylinderBzr.html#a9df1a86d0ea5a83c433d4662f099e450" target="_top" xlink:title="Constructor.">
<polygon fill="white" stroke="#666666" points="149.5,-126 8.5,-126 8.5,-96 149.5,-96 149.5,-126"/>
<text text-anchor="start" x="16.5" y="-114" font-family="Helvetica,sans-Serif" font-size="10.00">qugar::impl::funcs</text>
<text text-anchor="middle" x="79" y="-103" font-family="Helvetica,sans-Serif" font-size="10.00">::CylinderBzr::CylinderBzr</text>
</a>
</g>
</g>
<!-- Node1&#45;&gt;Node7 -->
<g id="edge6_Node000001_Node000007" class="edge">
<title>Node1&#45;&gt;Node7</title>
<g id="a_edge6_Node000001_Node000007"><a xlink:title=" ">
<path fill="none" stroke="#63b8ff" d="M218.26,-163.22C200.43,-153.94 178.42,-143.16 158,-135 150.11,-131.85 141.63,-128.85 133.27,-126.12"/>
<polygon fill="#63b8ff" stroke="#63b8ff" points="216.7,-166.35 227.18,-167.91 219.96,-160.16 216.7,-166.35"/>
</a>
</g>
</g>
<!-- Node8 -->
<g id="Node000008" class="node">
<title>Node8</title>
<g id="a_Node000008"><a xlink:href="../../dc/de2/classqugar_1_1impl_1_1funcs_1_1CylinderBzr.html#a71aaf72c25271a7949a4a2abcb75ab74" target="_top" xlink:title="Constructor.">
<polygon fill="white" stroke="#666666" points="149.5,-78 8.5,-78 8.5,-48 149.5,-48 149.5,-78"/>
<text text-anchor="start" x="16.5" y="-66" font-family="Helvetica,sans-Serif" font-size="10.00">qugar::impl::funcs</text>
<text text-anchor="middle" x="79" y="-55" font-family="Helvetica,sans-Serif" font-size="10.00">::CylinderBzr::CylinderBzr</text>
</a>
</g>
</g>
<!-- Node1&#45;&gt;Node8 -->
<g id="edge7_Node000001_Node000008" class="edge">
<title>Node1&#45;&gt;Node8</title>
<g id="a_edge7_Node000001_Node000008"><a xlink:title=" ">
<path fill="none" stroke="#63b8ff" d="M236.69,-159.66C218.95,-137.93 189.84,-106.11 158,-87 152.29,-83.57 146.05,-80.59 139.66,-78.02"/>
<polygon fill="#63b8ff" stroke="#63b8ff" points="234.15,-162.09 243.13,-167.72 239.62,-157.73 234.15,-162.09"/>
</a>
</g>
</g>
<!-- Node9 -->
<g id="Node000009" class="node">
<title>Node9</title>
<g id="a_Node000009"><a xlink:href="../../dc/de2/classqugar_1_1impl_1_1funcs_1_1CylinderBzr.html#aafb226e16a8edf2c5ec3bcd3f664510a" target="_top" xlink:title="Constructor.">
<polygon fill="white" stroke="#666666" points="149.5,-30 8.5,-30 8.5,0 149.5,0 149.5,-30"/>
<text text-anchor="start" x="16.5" y="-18" font-family="Helvetica,sans-Serif" font-size="10.00">qugar::impl::funcs</text>
<text text-anchor="middle" x="79" y="-7" font-family="Helvetica,sans-Serif" font-size="10.00">::CylinderBzr::CylinderBzr</text>
</a>
</g>
</g>
<!-- Node1&#45;&gt;Node9 -->
<g id="edge8_Node000001_Node000009" class="edge">
<title>Node1&#45;&gt;Node9</title>
<g id="a_edge8_Node000001_Node000009"><a xlink:title=" ">
<path fill="none" stroke="#63b8ff" d="M244.34,-158.34C229.86,-126.21 200.27,-70.44 158,-39 153.34,-35.53 148.17,-32.56 142.78,-30.02"/>
<polygon fill="#63b8ff" stroke="#63b8ff" points="241.29,-160.12 248.5,-167.88 247.71,-157.32 241.29,-160.12"/>
</a>
</g>
</g>
</g>
</svg>
