<?xml version="1.0" encoding="UTF-8" standalone="no"?>
<!DOCTYPE svg PUBLIC "-//W3C//DTD SVG 1.1//EN"
 "http://www.w3.org/Graphics/SVG/1.1/DTD/svg11.dtd">
<!-- Generated by graphviz version 2.43.0 (0)
 -->
<!-- Title: /__w/qugar/qugar/cpp/include/qugar/impl_funcs_lib_macros.hpp Pages: 1 -->
<svg width="308pt" height="203pt"
 viewBox="0.00 0.00 308.00 203.00" xmlns="http://www.w3.org/2000/svg" xmlns:xlink="http://www.w3.org/1999/xlink">
<g id="graph0" class="graph" transform="scale(1 1) rotate(0) translate(4 199)">
<title>/__w/qugar/qugar/cpp/include/qugar/impl_funcs_lib_macros.hpp</title>
<!-- Node1 -->
<g id="Node000001" class="node">
<title>Node1</title>
<g id="a_Node000001"><a xlink:title="Declaration of macros to ease the definition/implementation of implicit functions.">
<polygon fill="#999999" stroke="#666666" points="220,-195 78,-195 78,-154 220,-154 220,-195"/>
<text text-anchor="start" x="86" y="-183" font-family="Helvetica,sans-Serif" font-size="10.00">/__w/qugar/qugar/cpp</text>
<text text-anchor="start" x="86" y="-172" font-family="Helvetica,sans-Serif" font-size="10.00">/include/qugar/impl_funcs</text>
<text text-anchor="middle" x="149" y="-161" font-family="Helvetica,sans-Serif" font-size="10.00">_lib_macros.hpp</text>
</a>
</g>
</g>
<!-- Node2 -->
<g id="Node000002" class="node">
<title>Node2</title>
<g id="a_Node000002"><a xlink:href="../../d5/d2a/impl__funcs__lib_8hpp.html" target="_top" xlink:title="Declaration of a few implicit functions ready to be consumed by Algoim.">
<polygon fill="white" stroke="#666666" points="142,-118 0,-118 0,-77 142,-77 142,-118"/>
<text text-anchor="start" x="8" y="-106" font-family="Helvetica,sans-Serif" font-size="10.00">/__w/qugar/qugar/cpp</text>
<text text-anchor="start" x="8" y="-95" font-family="Helvetica,sans-Serif" font-size="10.00">/include/qugar/impl_funcs</text>
<text text-anchor="middle" x="71" y="-84" font-family="Helvetica,sans-Serif" font-size="10.00">_lib.hpp</text>
</a>
</g>
</g>
<!-- Node1&#45;&gt;Node2 -->
<g id="edge1_Node000001_Node000002" class="edge">
<title>Node1&#45;&gt;Node2</title>
<g id="a_edge1_Node000001_Node000002"><a xlink:title=" ">
<path fill="none" stroke="#63b8ff" d="M121.22,-146.79C111.37,-137.32 100.47,-126.84 91.36,-118.07"/>
<polygon fill="#63b8ff" stroke="#63b8ff" points="118.87,-149.39 128.51,-153.79 123.72,-144.34 118.87,-149.39"/>
</a>
</g>
</g>
<!-- Node3 -->
<g id="Node000003" class="node">
<title>Node3</title>
<g id="a_Node000003"><a xlink:href="../../d7/d6f/primitive__funcs__lib_8hpp.html" target="_top" xlink:title="Declaration of a primitive implicit functions ready to be consumed by Algoim.">
<polygon fill="white" stroke="#666666" points="293.5,-118 160.5,-118 160.5,-77 293.5,-77 293.5,-118"/>
<text text-anchor="start" x="168.5" y="-106" font-family="Helvetica,sans-Serif" font-size="10.00">/__w/qugar/qugar/cpp</text>
<text text-anchor="start" x="168.5" y="-95" font-family="Helvetica,sans-Serif" font-size="10.00">/include/qugar/primitive</text>
<text text-anchor="middle" x="227" y="-84" font-family="Helvetica,sans-Serif" font-size="10.00">_funcs_lib.hpp</text>
</a>
</g>
</g>
<!-- Node1&#45;&gt;Node3 -->
<g id="edge2_Node000001_Node000003" class="edge">
<title>Node1&#45;&gt;Node3</title>
<g id="a_edge2_Node000001_Node000003"><a xlink:title=" ">
<path fill="none" stroke="#63b8ff" d="M176.78,-146.79C186.63,-137.32 197.53,-126.84 206.64,-118.07"/>
<polygon fill="#63b8ff" stroke="#63b8ff" points="174.28,-144.34 169.49,-153.79 179.13,-149.39 174.28,-144.34"/>
</a>
</g>
</g>
<!-- Node4 -->
<g id="Node000004" class="node">
<title>Node4</title>
<g id="a_Node000004"><a xlink:href="../../d0/d6f/demo__quad__sphere_2main_8cpp.html" target="_top" xlink:title=" ">
<polygon fill="white" stroke="#666666" points="300,-41 154,-41 154,0 300,0 300,-41"/>
<text text-anchor="start" x="162" y="-29" font-family="Helvetica,sans-Serif" font-size="10.00">/__w/qugar/qugar/cpp</text>
<text text-anchor="start" x="162" y="-18" font-family="Helvetica,sans-Serif" font-size="10.00">/demo/demo_quad_sphere</text>
<text text-anchor="middle" x="227" y="-7" font-family="Helvetica,sans-Serif" font-size="10.00">/main.cpp</text>
</a>
</g>
</g>
<!-- Node3&#45;&gt;Node4 -->
<g id="edge3_Node000003_Node000004" class="edge">
<title>Node3&#45;&gt;Node4</title>
<g id="a_edge3_Node000003_Node000004"><a xlink:title=" ">
<path fill="none" stroke="#63b8ff" d="M227,-66.69C227,-58.08 227,-48.9 227,-41.07"/>
<polygon fill="#63b8ff" stroke="#63b8ff" points="223.5,-66.79 227,-76.79 230.5,-66.79 223.5,-66.79"/>
</a>
</g>
</g>
</g>
</svg>
