<?xml version="1.0" encoding="UTF-8" standalone="no"?>
<!DOCTYPE svg PUBLIC "-//W3C//DTD SVG 1.1//EN"
 "http://www.w3.org/Graphics/SVG/1.1/DTD/svg11.dtd">
<!-- Generated by graphviz version 2.43.0 (0)
 -->
<!-- Title: /__w/qugar/qugar/cpp/include/qugar/tolerance.hpp Pages: 1 -->
<svg width="1014pt" height="577pt"
 viewBox="0.00 0.00 1013.50 577.00" xmlns="http://www.w3.org/2000/svg" xmlns:xlink="http://www.w3.org/1999/xlink">
<g id="graph0" class="graph" transform="scale(1 1) rotate(0) translate(4 573)">
<title>/__w/qugar/qugar/cpp/include/qugar/tolerance.hpp</title>
<!-- Node1 -->
<g id="Node000001" class="node">
<title>Node1</title>
<g id="a_Node000001"><a xlink:title="Definition of tolerance related functionalities.">
<polygon fill="#999999" stroke="#666666" points="726.5,-569 571.5,-569 571.5,-539 726.5,-539 726.5,-569"/>
<text text-anchor="start" x="579.5" y="-557" font-family="Helvetica,sans-Serif" font-size="10.00">/__w/qugar/qugar/cpp</text>
<text text-anchor="middle" x="649" y="-546" font-family="Helvetica,sans-Serif" font-size="10.00">/include/qugar/tolerance.hpp</text>
</a>
</g>
</g>
<!-- Node2 -->
<g id="Node000002" class="node">
<title>Node2</title>
<g id="a_Node000002"><a xlink:href="../../d6/d49/cart__grid__tp_8hpp.html" target="_top" xlink:title="Definition of Cartesian grid class.">
<polygon fill="white" stroke="#666666" points="476.5,-503 345.5,-503 345.5,-462 476.5,-462 476.5,-503"/>
<text text-anchor="start" x="353.5" y="-491" font-family="Helvetica,sans-Serif" font-size="10.00">/__w/qugar/qugar/cpp</text>
<text text-anchor="start" x="353.5" y="-480" font-family="Helvetica,sans-Serif" font-size="10.00">/include/qugar/cart_grid</text>
<text text-anchor="middle" x="411" y="-469" font-family="Helvetica,sans-Serif" font-size="10.00">_tp.hpp</text>
</a>
</g>
</g>
<!-- Node1&#45;&gt;Node2 -->
<g id="edge1_Node000001_Node000002" class="edge">
<title>Node1&#45;&gt;Node2</title>
<g id="a_edge1_Node000001_Node000002"><a xlink:title=" ">
<path fill="none" stroke="#63b8ff" d="M590.9,-536.03C556.37,-525.95 512.47,-513.13 476.68,-502.68"/>
<polygon fill="#63b8ff" stroke="#63b8ff" points="590.26,-539.49 600.84,-538.94 592.22,-532.77 590.26,-539.49"/>
</a>
</g>
</g>
<!-- Node6 -->
<g id="Node000006" class="node">
<title>Node6</title>
<g id="a_Node000006"><a xlink:href="../../d3/d42/impl__reparam__mesh_8hpp.html" target="_top" xlink:title="Declaration of reparameterization class.">
<polygon fill="white" stroke="#666666" points="704.5,-195 547.5,-195 547.5,-154 704.5,-154 704.5,-195"/>
<text text-anchor="start" x="555.5" y="-183" font-family="Helvetica,sans-Serif" font-size="10.00">/__w/qugar/qugar/cpp</text>
<text text-anchor="start" x="555.5" y="-172" font-family="Helvetica,sans-Serif" font-size="10.00">/include/qugar/impl_reparam</text>
<text text-anchor="middle" x="626" y="-161" font-family="Helvetica,sans-Serif" font-size="10.00">_mesh.hpp</text>
</a>
</g>
</g>
<!-- Node1&#45;&gt;Node6 -->
<g id="edge27_Node000001_Node000006" class="edge">
<title>Node1&#45;&gt;Node6</title>
<g id="a_edge27_Node000001_Node000006"><a xlink:title=" ">
<path fill="none" stroke="#63b8ff" d="M655.39,-529.02C662.5,-500.16 673,-450.15 673,-406.5 673,-406.5 673,-406.5 673,-327.5 673,-283.79 668.2,-272.34 654,-231 649.76,-218.65 643.27,-205.58 637.61,-195.22"/>
<polygon fill="#63b8ff" stroke="#63b8ff" points="651.92,-528.43 652.86,-538.98 658.71,-530.15 651.92,-528.43"/>
</a>
</g>
</g>
<!-- Node11 -->
<g id="Node000011" class="node">
<title>Node11</title>
<g id="a_Node000011"><a xlink:href="../../d8/ddc/reparam__mesh_8hpp.html" target="_top" xlink:title="Declaration of reparameterization class.">
<polygon fill="white" stroke="#666666" points="645,-272 515,-272 515,-231 645,-231 645,-272"/>
<text text-anchor="start" x="523" y="-260" font-family="Helvetica,sans-Serif" font-size="10.00">/__w/qugar/qugar/cpp</text>
<text text-anchor="start" x="523" y="-249" font-family="Helvetica,sans-Serif" font-size="10.00">/include/qugar/reparam</text>
<text text-anchor="middle" x="580" y="-238" font-family="Helvetica,sans-Serif" font-size="10.00">_mesh.hpp</text>
</a>
</g>
</g>
<!-- Node1&#45;&gt;Node11 -->
<g id="edge29_Node000001_Node000011" class="edge">
<title>Node1&#45;&gt;Node11</title>
<g id="a_edge29_Node000001_Node000011"><a xlink:title=" ">
<path fill="none" stroke="#63b8ff" d="M643.46,-528.87C630.17,-471 596.7,-325.25 584.52,-272.2"/>
<polygon fill="#63b8ff" stroke="#63b8ff" points="640.12,-529.95 645.76,-538.91 646.94,-528.38 640.12,-529.95"/>
</a>
</g>
</g>
<!-- Node15 -->
<g id="Node000015" class="node">
<title>Node15</title>
<g id="a_Node000015"><a xlink:href="../../df/dc4/impl__utils_8hpp.html" target="_top" xlink:title="Declaration of utility functions for implicit geometries.">
<polygon fill="white" stroke="#666666" points="859,-497.5 701,-497.5 701,-467.5 859,-467.5 859,-497.5"/>
<text text-anchor="start" x="709" y="-485.5" font-family="Helvetica,sans-Serif" font-size="10.00">/__w/qugar/qugar/cpp</text>
<text text-anchor="middle" x="780" y="-474.5" font-family="Helvetica,sans-Serif" font-size="10.00">/include/qugar/impl_utils.hpp</text>
</a>
</g>
</g>
<!-- Node1&#45;&gt;Node15 -->
<g id="edge28_Node000001_Node000015" class="edge">
<title>Node1&#45;&gt;Node15</title>
<g id="a_edge28_Node000001_Node000015"><a xlink:title=" ">
<path fill="none" stroke="#63b8ff" d="M684.46,-534.19C706.23,-522.64 733.65,-508.09 753.53,-497.54"/>
<polygon fill="#63b8ff" stroke="#63b8ff" points="682.7,-531.16 675.51,-538.94 685.98,-537.34 682.7,-531.16"/>
</a>
</g>
</g>
<!-- Node3 -->
<g id="Node000003" class="node">
<title>Node3</title>
<g id="a_Node000003"><a xlink:href="../../d0/d6f/demo__quad__sphere_2main_8cpp.html" target="_top" xlink:title=" ">
<polygon fill="white" stroke="#666666" points="193,-118 47,-118 47,-77 193,-77 193,-118"/>
<text text-anchor="start" x="55" y="-106" font-family="Helvetica,sans-Serif" font-size="10.00">/__w/qugar/qugar/cpp</text>
<text text-anchor="start" x="55" y="-95" font-family="Helvetica,sans-Serif" font-size="10.00">/demo/demo_quad_sphere</text>
<text text-anchor="middle" x="120" y="-84" font-family="Helvetica,sans-Serif" font-size="10.00">/main.cpp</text>
</a>
</g>
</g>
<!-- Node2&#45;&gt;Node3 -->
<g id="edge2_Node000002_Node000003" class="edge">
<title>Node2&#45;&gt;Node3</title>
<g id="a_edge2_Node000002_Node000003"><a xlink:title=" ">
<path fill="none" stroke="#63b8ff" d="M335.3,-469.43C216.58,-448.35 0,-400.19 0,-329.5 0,-329.5 0,-329.5 0,-250.5 0,-192.67 54.17,-143.93 89.72,-118.18"/>
<polygon fill="#63b8ff" stroke="#63b8ff" points="334.97,-472.93 345.42,-471.21 336.18,-466.03 334.97,-472.93"/>
</a>
</g>
</g>
<!-- Node4 -->
<g id="Node000004" class="node">
<title>Node4</title>
<g id="a_Node000004"><a xlink:href="../../d2/d66/demo__reparam__gyroid_2main_8cpp.html" target="_top" xlink:title=" ">
<polygon fill="white" stroke="#666666" points="529.5,-41 368.5,-41 368.5,0 529.5,0 529.5,-41"/>
<text text-anchor="start" x="376.5" y="-29" font-family="Helvetica,sans-Serif" font-size="10.00">/__w/qugar/qugar/cpp</text>
<text text-anchor="start" x="376.5" y="-18" font-family="Helvetica,sans-Serif" font-size="10.00">/demo/demo_reparam_gyroid</text>
<text text-anchor="middle" x="449" y="-7" font-family="Helvetica,sans-Serif" font-size="10.00">/main.cpp</text>
</a>
</g>
</g>
<!-- Node2&#45;&gt;Node4 -->
<g id="edge3_Node000002_Node000004" class="edge">
<title>Node2&#45;&gt;Node4</title>
<g id="a_edge3_Node000002_Node000004"><a xlink:title=" ">
<path fill="none" stroke="#63b8ff" d="M422.85,-452.23C434,-422.01 449,-373.24 449,-329.5 449,-329.5 449,-329.5 449,-173.5 449,-126 449,-70.15 449,-41.18"/>
<polygon fill="#63b8ff" stroke="#63b8ff" points="419.52,-451.14 419.25,-461.73 426.07,-453.63 419.52,-451.14"/>
</a>
</g>
</g>
<!-- Node5 -->
<g id="Node000005" class="node">
<title>Node5</title>
<g id="a_Node000005"><a xlink:href="../../d6/dc8/impl__quadrature_8hpp.html" target="_top" xlink:title="Declaration of quadratures for general implicit functions on grids.">
<polygon fill="white" stroke="#666666" points="276,-189.5 86,-189.5 86,-159.5 276,-159.5 276,-189.5"/>
<text text-anchor="start" x="94" y="-177.5" font-family="Helvetica,sans-Serif" font-size="10.00">/__w/qugar/qugar/cpp</text>
<text text-anchor="middle" x="181" y="-166.5" font-family="Helvetica,sans-Serif" font-size="10.00">/include/qugar/impl_quadrature.hpp</text>
</a>
</g>
</g>
<!-- Node2&#45;&gt;Node5 -->
<g id="edge4_Node000002_Node000005" class="edge">
<title>Node2&#45;&gt;Node5</title>
<g id="a_edge4_Node000002_Node000005"><a xlink:title=" ">
<path fill="none" stroke="#63b8ff" d="M335.65,-466.12C301.96,-457.33 262.59,-444.33 230,-426 140.28,-375.53 99.14,-365.92 57,-272 49.54,-255.37 47.09,-246.29 57,-231 70.15,-210.71 92.64,-197.77 114.9,-189.55"/>
<polygon fill="#63b8ff" stroke="#63b8ff" points="334.89,-469.54 345.45,-468.6 336.61,-462.75 334.89,-469.54"/>
</a>
</g>
</g>
<!-- Node2&#45;&gt;Node6 -->
<g id="edge6_Node000002_Node000006" class="edge">
<title>Node2&#45;&gt;Node6</title>
<g id="a_edge6_Node000002_Node000006"><a xlink:title=" ">
<path fill="none" stroke="#63b8ff" d="M441.78,-454.46C449.74,-446.06 457.58,-436.29 463,-426 504.37,-347.48 450.38,-300.16 506,-231 518.87,-214.99 537.41,-203.39 556.08,-195.08"/>
<polygon fill="#63b8ff" stroke="#63b8ff" points="439.08,-452.21 434.51,-461.76 444.04,-457.15 439.08,-452.21"/>
</a>
</g>
</g>
<!-- Node10 -->
<g id="Node000010" class="node">
<title>Node10</title>
<g id="a_Node000010"><a xlink:href="../../d6/d03/impl__unfitted__domain_8hpp.html" target="_top" xlink:title="Declaration of of UnfittedImplDomain class.">
<polygon fill="white" stroke="#666666" points="420.5,-272 267.5,-272 267.5,-231 420.5,-231 420.5,-272"/>
<text text-anchor="start" x="275.5" y="-260" font-family="Helvetica,sans-Serif" font-size="10.00">/__w/qugar/qugar/cpp</text>
<text text-anchor="start" x="275.5" y="-249" font-family="Helvetica,sans-Serif" font-size="10.00">/include/qugar/impl_unfitted</text>
<text text-anchor="middle" x="344" y="-238" font-family="Helvetica,sans-Serif" font-size="10.00">_domain.hpp</text>
</a>
</g>
</g>
<!-- Node2&#45;&gt;Node10 -->
<g id="edge11_Node000002_Node000010" class="edge">
<title>Node2&#45;&gt;Node10</title>
<g id="a_edge11_Node000002_Node000010"><a xlink:title=" ">
<path fill="none" stroke="#63b8ff" d="M335.42,-474.99C302.99,-468.02 268.03,-453.98 248,-426 216.5,-382 246.49,-351.99 278,-308 287.85,-294.25 301.86,-281.82 314.45,-272.23"/>
<polygon fill="#63b8ff" stroke="#63b8ff" points="334.89,-478.46 345.38,-476.94 336.24,-471.59 334.89,-478.46"/>
</a>
</g>
</g>
<!-- Node2&#45;&gt;Node11 -->
<g id="edge16_Node000002_Node000011" class="edge">
<title>Node2&#45;&gt;Node11</title>
<g id="a_edge16_Node000002_Node000011"><a xlink:title=" ">
<path fill="none" stroke="#63b8ff" d="M462.71,-456.75C476.41,-448.41 490.34,-438.08 501,-426 542.49,-378.96 565.84,-306.49 575.18,-272.02"/>
<polygon fill="#63b8ff" stroke="#63b8ff" points="460.65,-453.9 453.77,-461.95 464.17,-459.95 460.65,-453.9"/>
</a>
</g>
</g>
<!-- Node12 -->
<g id="Node000012" class="node">
<title>Node12</title>
<g id="a_Node000012"><a xlink:href="../../d2/dfd/unfitted__domain_8hpp.html" target="_top" xlink:title="Declaration of of UnfittedDomain class.">
<polygon fill="white" stroke="#666666" points="421,-349 295,-349 295,-308 421,-308 421,-349"/>
<text text-anchor="start" x="303" y="-337" font-family="Helvetica,sans-Serif" font-size="10.00">/__w/qugar/qugar/cpp</text>
<text text-anchor="start" x="303" y="-326" font-family="Helvetica,sans-Serif" font-size="10.00">/include/qugar/unfitted</text>
<text text-anchor="middle" x="358" y="-315" font-family="Helvetica,sans-Serif" font-size="10.00">_domain.hpp</text>
</a>
</g>
</g>
<!-- Node2&#45;&gt;Node12 -->
<g id="edge18_Node000002_Node000012" class="edge">
<title>Node2&#45;&gt;Node12</title>
<g id="a_edge18_Node000002_Node000012"><a xlink:title=" ">
<path fill="none" stroke="#63b8ff" d="M407.89,-451.6C405.2,-432.14 400.38,-406.47 392,-385 387.07,-372.37 379.29,-359.38 372.42,-349.15"/>
<polygon fill="#63b8ff" stroke="#63b8ff" points="404.45,-452.22 409.18,-461.7 411.39,-451.34 404.45,-452.22"/>
</a>
</g>
</g>
<!-- Node14 -->
<g id="Node000014" class="node">
<title>Node14</title>
<g id="a_Node000014"><a xlink:href="../../d8/d90/unfitted__domain__kd__tree_8hpp.html" target="_top" xlink:title="Declaration of of UnfittedDomain class.">
<polygon fill="white" stroke="#666666" points="383,-426 257,-426 257,-385 383,-385 383,-426"/>
<text text-anchor="start" x="265" y="-414" font-family="Helvetica,sans-Serif" font-size="10.00">/__w/qugar/qugar/cpp</text>
<text text-anchor="start" x="265" y="-403" font-family="Helvetica,sans-Serif" font-size="10.00">/include/qugar/unfitted</text>
<text text-anchor="middle" x="320" y="-392" font-family="Helvetica,sans-Serif" font-size="10.00">_domain_kd_tree.hpp</text>
</a>
</g>
</g>
<!-- Node2&#45;&gt;Node14 -->
<g id="edge24_Node000002_Node000014" class="edge">
<title>Node2&#45;&gt;Node14</title>
<g id="a_edge24_Node000002_Node000014"><a xlink:title=" ">
<path fill="none" stroke="#63b8ff" d="M379.27,-455.35C367.6,-445.73 354.6,-435.01 343.75,-426.07"/>
<polygon fill="#63b8ff" stroke="#63b8ff" points="377.15,-458.14 387.09,-461.79 381.6,-452.73 377.15,-458.14"/>
</a>
</g>
</g>
<!-- Node5&#45;&gt;Node3 -->
<g id="edge5_Node000005_Node000003" class="edge">
<title>Node5&#45;&gt;Node3</title>
<g id="a_edge5_Node000005_Node000003"><a xlink:title=" ">
<path fill="none" stroke="#63b8ff" d="M163.07,-151.45C154.5,-140.92 144.33,-128.41 136.03,-118.2"/>
<polygon fill="#63b8ff" stroke="#63b8ff" points="160.5,-153.84 169.53,-159.39 165.93,-149.43 160.5,-153.84"/>
</a>
</g>
</g>
<!-- Node7 -->
<g id="Node000007" class="node">
<title>Node7</title>
<g id="a_Node000007"><a xlink:href="../../d0/d4c/impl__reparam_8hpp.html" target="_top" xlink:title="Declaration of reparameterization generization tools implicit functions on grids.">
<polygon fill="white" stroke="#666666" points="655,-112.5 477,-112.5 477,-82.5 655,-82.5 655,-112.5"/>
<text text-anchor="start" x="485" y="-100.5" font-family="Helvetica,sans-Serif" font-size="10.00">/__w/qugar/qugar/cpp</text>
<text text-anchor="middle" x="566" y="-89.5" font-family="Helvetica,sans-Serif" font-size="10.00">/include/qugar/impl_reparam.hpp</text>
</a>
</g>
</g>
<!-- Node6&#45;&gt;Node7 -->
<g id="edge7_Node000006_Node000007" class="edge">
<title>Node6&#45;&gt;Node7</title>
<g id="a_edge7_Node000006_Node000007"><a xlink:title=" ">
<path fill="none" stroke="#63b8ff" d="M603.93,-145.92C594.96,-134.7 584.96,-122.21 577.49,-112.86"/>
<polygon fill="#63b8ff" stroke="#63b8ff" points="601.26,-148.17 610.24,-153.79 606.72,-143.8 601.26,-148.17"/>
</a>
</g>
</g>
<!-- Node8 -->
<g id="Node000008" class="node">
<title>Node8</title>
<g id="a_Node000008"><a xlink:href="../../d6/d87/impl__reparam__bezier_8hpp.html" target="_top" xlink:title="Declaration of tools for creating Bezier reparameterizations.">
<polygon fill="white" stroke="#666666" points="830.5,-118 673.5,-118 673.5,-77 830.5,-77 830.5,-118"/>
<text text-anchor="start" x="681.5" y="-106" font-family="Helvetica,sans-Serif" font-size="10.00">/__w/qugar/qugar/cpp</text>
<text text-anchor="start" x="681.5" y="-95" font-family="Helvetica,sans-Serif" font-size="10.00">/include/qugar/impl_reparam</text>
<text text-anchor="middle" x="752" y="-84" font-family="Helvetica,sans-Serif" font-size="10.00">_bezier.hpp</text>
</a>
</g>
</g>
<!-- Node6&#45;&gt;Node8 -->
<g id="edge9_Node000006_Node000008" class="edge">
<title>Node6&#45;&gt;Node8</title>
<g id="a_edge9_Node000006_Node000008"><a xlink:title=" ">
<path fill="none" stroke="#63b8ff" d="M667.76,-148.64C684.4,-138.74 703.29,-127.5 718.95,-118.17"/>
<polygon fill="#63b8ff" stroke="#63b8ff" points="665.58,-145.87 658.78,-153.99 669.16,-151.88 665.58,-145.87"/>
</a>
</g>
</g>
<!-- Node9 -->
<g id="Node000009" class="node">
<title>Node9</title>
<g id="a_Node000009"><a xlink:href="../../d5/da9/impl__reparam__general_8hpp.html" target="_top" xlink:title="Declaration of tools for creating reparameterizations of general functions.">
<polygon fill="white" stroke="#666666" points="1005.5,-118 848.5,-118 848.5,-77 1005.5,-77 1005.5,-118"/>
<text text-anchor="start" x="856.5" y="-106" font-family="Helvetica,sans-Serif" font-size="10.00">/__w/qugar/qugar/cpp</text>
<text text-anchor="start" x="856.5" y="-95" font-family="Helvetica,sans-Serif" font-size="10.00">/include/qugar/impl_reparam</text>
<text text-anchor="middle" x="927" y="-84" font-family="Helvetica,sans-Serif" font-size="10.00">_general.hpp</text>
</a>
</g>
</g>
<!-- Node6&#45;&gt;Node9 -->
<g id="edge10_Node000006_Node000009" class="edge">
<title>Node6&#45;&gt;Node9</title>
<g id="a_edge10_Node000006_Node000009"><a xlink:title=" ">
<path fill="none" stroke="#63b8ff" d="M714.09,-151.55C756.67,-140.94 807.34,-128.31 848.57,-118.04"/>
<polygon fill="#63b8ff" stroke="#63b8ff" points="713.16,-148.18 704.3,-153.99 714.85,-154.97 713.16,-148.18"/>
</a>
</g>
</g>
<!-- Node7&#45;&gt;Node4 -->
<g id="edge8_Node000007_Node000004" class="edge">
<title>Node7&#45;&gt;Node4</title>
<g id="a_edge8_Node000007_Node000004"><a xlink:title=" ">
<path fill="none" stroke="#63b8ff" d="M535.45,-76.91C518.28,-65.91 496.93,-52.22 479.74,-41.2"/>
<polygon fill="#63b8ff" stroke="#63b8ff" points="533.69,-79.94 543.99,-82.39 537.46,-74.05 533.69,-79.94"/>
</a>
</g>
</g>
<!-- Node10&#45;&gt;Node3 -->
<g id="edge12_Node000010_Node000003" class="edge">
<title>Node10&#45;&gt;Node3</title>
<g id="a_edge12_Node000010_Node000003"><a xlink:title=" ">
<path fill="none" stroke="#63b8ff" d="M332.69,-221.35C323,-199.94 307.1,-171.63 285,-154 258.65,-132.99 223.96,-119.75 193.18,-111.5"/>
<polygon fill="#63b8ff" stroke="#63b8ff" points="329.52,-222.85 336.7,-230.64 335.95,-220.07 329.52,-222.85"/>
</a>
</g>
</g>
<!-- Node10&#45;&gt;Node4 -->
<g id="edge13_Node000010_Node000004" class="edge">
<title>Node10&#45;&gt;Node4</title>
<g id="a_edge13_Node000010_Node000004"><a xlink:title=" ">
<path fill="none" stroke="#63b8ff" d="M357.24,-221.62C378.9,-174.39 421.34,-81.83 439.92,-41.3"/>
<polygon fill="#63b8ff" stroke="#63b8ff" points="353.94,-220.43 352.95,-230.98 360.3,-223.34 353.94,-220.43"/>
</a>
</g>
</g>
<!-- Node10&#45;&gt;Node5 -->
<g id="edge14_Node000010_Node000005" class="edge">
<title>Node10&#45;&gt;Node5</title>
<g id="a_edge14_Node000010_Node000005"><a xlink:title=" ">
<path fill="none" stroke="#63b8ff" d="M292.42,-226.77C265.84,-214.54 234.32,-200.04 211.61,-189.58"/>
<polygon fill="#63b8ff" stroke="#63b8ff" points="291.05,-229.99 301.6,-230.99 293.98,-223.63 291.05,-229.99"/>
</a>
</g>
</g>
<!-- Node10&#45;&gt;Node7 -->
<g id="edge15_Node000010_Node000007" class="edge">
<title>Node10&#45;&gt;Node7</title>
<g id="a_edge15_Node000010_Node000007"><a xlink:title=" ">
<path fill="none" stroke="#63b8ff" d="M380.97,-225.19C428.11,-192.91 507.99,-138.22 545.45,-112.57"/>
<polygon fill="#63b8ff" stroke="#63b8ff" points="378.84,-222.4 372.57,-230.94 382.8,-228.18 378.84,-222.4"/>
</a>
</g>
</g>
<!-- Node11&#45;&gt;Node6 -->
<g id="edge17_Node000011_Node000006" class="edge">
<title>Node11&#45;&gt;Node6</title>
<g id="a_edge17_Node000011_Node000006"><a xlink:title=" ">
<path fill="none" stroke="#63b8ff" d="M597.41,-222.11C602.94,-213.09 608.93,-203.33 613.99,-195.07"/>
<polygon fill="#63b8ff" stroke="#63b8ff" points="594.33,-220.44 592.09,-230.79 600.3,-224.1 594.33,-220.44"/>
</a>
</g>
</g>
<!-- Node12&#45;&gt;Node10 -->
<g id="edge22_Node000012_Node000010" class="edge">
<title>Node12&#45;&gt;Node10</title>
<g id="a_edge22_Node000012_Node000010"><a xlink:title=" ">
<path fill="none" stroke="#63b8ff" d="M352.44,-297.69C350.83,-289.08 349.11,-279.9 347.65,-272.07"/>
<polygon fill="#63b8ff" stroke="#63b8ff" points="349.05,-298.61 354.32,-307.79 355.93,-297.32 349.05,-298.61"/>
</a>
</g>
</g>
<!-- Node12&#45;&gt;Node11 -->
<g id="edge23_Node000012_Node000011" class="edge">
<title>Node12&#45;&gt;Node11</title>
<g id="a_edge23_Node000012_Node000011"><a xlink:title=" ">
<path fill="none" stroke="#63b8ff" d="M425.56,-304.67C456.41,-294.25 492.58,-282.03 522.16,-272.04"/>
<polygon fill="#63b8ff" stroke="#63b8ff" points="424.1,-301.47 415.75,-307.99 426.34,-308.11 424.1,-301.47"/>
</a>
</g>
</g>
<!-- Node13 -->
<g id="Node000013" class="node">
<title>Node13</title>
<g id="a_Node000013"><a xlink:href="../../d1/daf/cut__quadrature_8hpp.html" target="_top" xlink:title="Definition of cut quadrature for unfitted domains.">
<polygon fill="white" stroke="#666666" points="249.5,-266.5 66.5,-266.5 66.5,-236.5 249.5,-236.5 249.5,-266.5"/>
<text text-anchor="start" x="74.5" y="-254.5" font-family="Helvetica,sans-Serif" font-size="10.00">/__w/qugar/qugar/cpp</text>
<text text-anchor="middle" x="158" y="-243.5" font-family="Helvetica,sans-Serif" font-size="10.00">/include/qugar/cut_quadrature.hpp</text>
</a>
</g>
</g>
<!-- Node12&#45;&gt;Node13 -->
<g id="edge19_Node000012_Node000013" class="edge">
<title>Node12&#45;&gt;Node13</title>
<g id="a_edge19_Node000012_Node000013"><a xlink:title=" ">
<path fill="none" stroke="#63b8ff" d="M296.42,-304.41C263.45,-292.05 223.92,-277.22 195.55,-266.58"/>
<polygon fill="#63b8ff" stroke="#63b8ff" points="295.38,-307.76 305.97,-307.99 297.84,-301.2 295.38,-307.76"/>
</a>
</g>
</g>
<!-- Node13&#45;&gt;Node3 -->
<g id="edge20_Node000013_Node000003" class="edge">
<title>Node13&#45;&gt;Node3</title>
<g id="a_edge20_Node000013_Node000003"><a xlink:title=" ">
<path fill="none" stroke="#63b8ff" d="M114.42,-231.29C99.81,-222.48 85.16,-210.49 77,-195 68.5,-178.88 71.1,-171.24 77,-154 81.58,-140.62 90.83,-127.97 99.59,-118.14"/>
<polygon fill="#63b8ff" stroke="#63b8ff" points="113.03,-234.52 123.46,-236.36 116.46,-228.42 113.03,-234.52"/>
</a>
</g>
</g>
<!-- Node13&#45;&gt;Node5 -->
<g id="edge21_Node000013_Node000005" class="edge">
<title>Node13&#45;&gt;Node5</title>
<g id="a_edge21_Node000013_Node000005"><a xlink:title=" ">
<path fill="none" stroke="#63b8ff" d="M165.27,-226.78C169.03,-214.53 173.49,-200 176.69,-189.54"/>
<polygon fill="#63b8ff" stroke="#63b8ff" points="161.91,-225.81 162.33,-236.39 168.6,-227.86 161.91,-225.81"/>
</a>
</g>
</g>
<!-- Node14&#45;&gt;Node10 -->
<g id="edge25_Node000014_Node000010" class="edge">
<title>Node14&#45;&gt;Node10</title>
<g id="a_edge25_Node000014_Node000010"><a xlink:title=" ">
<path fill="none" stroke="#63b8ff" d="M299.04,-376.58C287.12,-357.11 276.32,-330.66 286,-308 292.08,-293.77 303.79,-281.45 315.11,-272.05"/>
<polygon fill="#63b8ff" stroke="#63b8ff" points="296.14,-378.53 304.53,-384.99 302,-374.7 296.14,-378.53"/>
</a>
</g>
</g>
<!-- Node14&#45;&gt;Node12 -->
<g id="edge26_Node000014_Node000012" class="edge">
<title>Node14&#45;&gt;Node12</title>
<g id="a_edge26_Node000014_Node000012"><a xlink:title=" ">
<path fill="none" stroke="#63b8ff" d="M334.53,-375.83C339.06,-366.89 343.95,-357.24 348.08,-349.07"/>
<polygon fill="#63b8ff" stroke="#63b8ff" points="331.38,-374.29 329.98,-384.79 337.63,-377.46 331.38,-374.29"/>
</a>
</g>
</g>
</g>
</svg>
