<?xml version="1.0" encoding="UTF-8" standalone="no"?>
<!DOCTYPE svg PUBLIC "-//W3C//DTD SVG 1.1//EN"
 "http://www.w3.org/Graphics/SVG/1.1/DTD/svg11.dtd">
<!-- Generated by graphviz version 2.43.0 (0)
 -->
<!-- Title: qugar::impl::funcs::FuncWithAffineTransf&lt; dim &gt; Pages: 1 -->
<svg width="447pt" height="146pt"
 viewBox="0.00 0.00 447.00 145.50" xmlns="http://www.w3.org/2000/svg" xmlns:xlink="http://www.w3.org/1999/xlink">
<g id="graph0" class="graph" transform="scale(1 1) rotate(0) translate(4 141.5)">
<title>qugar::impl::funcs::FuncWithAffineTransf&lt; dim &gt;</title>
<!-- Node1 -->
<g id="Node000001" class="node">
<title>Node1</title>
<g id="a_Node000001"><a xlink:title="Function containing an affine transformation.">
<polygon fill="#999999" stroke="#666666" points="278,-95 153,-95 153,-54 278,-54 278,-95"/>
<text text-anchor="start" x="161" y="-83" font-family="Helvetica,sans-Serif" font-size="10.00">qugar::impl::funcs</text>
<text text-anchor="start" x="161" y="-72" font-family="Helvetica,sans-Serif" font-size="10.00">::FuncWithAffineTransf</text>
<text text-anchor="middle" x="215.5" y="-61" font-family="Helvetica,sans-Serif" font-size="10.00">&lt; dim &gt;</text>
</a>
</g>
</g>
<!-- Node3 -->
<g id="Node000003" class="node">
<title>Node3</title>
<g id="a_Node000003"><a xlink:href="../../d8/dba/classqugar_1_1impl_1_1funcs_1_1DimLinear.html" target="_top" xlink:title="dim&#45;linear function.">
<polygon fill="white" stroke="#666666" points="433.5,-137.5 319.5,-137.5 319.5,-107.5 433.5,-107.5 433.5,-137.5"/>
<text text-anchor="start" x="327.5" y="-125.5" font-family="Helvetica,sans-Serif" font-size="10.00">qugar::impl::funcs</text>
<text text-anchor="middle" x="376.5" y="-114.5" font-family="Helvetica,sans-Serif" font-size="10.00">::DimLinear&lt; dim &gt;</text>
</a>
</g>
</g>
<!-- Node1&#45;&gt;Node3 -->
<g id="edge2_Node000001_Node000003" class="edge">
<title>Node1&#45;&gt;Node3</title>
<g id="a_edge2_Node000001_Node000003"><a xlink:title=" ">
<path fill="none" stroke="#63b8ff" d="M288.09,-96.11C300.82,-99.96 313.83,-103.88 325.78,-107.49"/>
<polygon fill="#63b8ff" stroke="#63b8ff" points="289.01,-92.73 278.43,-93.2 286.99,-99.44 289.01,-92.73"/>
</a>
</g>
</g>
<!-- Node4 -->
<g id="Node000004" class="node">
<title>Node4</title>
<g id="a_Node000004"><a xlink:href="../../da/d38/classqugar_1_1impl_1_1funcs_1_1Square.html" target="_top" xlink:title="Dimension independent square function in domain [&#45;1,1]^dim.">
<polygon fill="white" stroke="#666666" points="428.5,-89.5 324.5,-89.5 324.5,-59.5 428.5,-59.5 428.5,-89.5"/>
<text text-anchor="start" x="332.5" y="-77.5" font-family="Helvetica,sans-Serif" font-size="10.00">qugar::impl::funcs</text>
<text text-anchor="middle" x="376.5" y="-66.5" font-family="Helvetica,sans-Serif" font-size="10.00">::Square&lt; dim &gt;</text>
</a>
</g>
</g>
<!-- Node1&#45;&gt;Node4 -->
<g id="edge3_Node000001_Node000004" class="edge">
<title>Node1&#45;&gt;Node4</title>
<g id="a_edge3_Node000001_Node000004"><a xlink:title=" ">
<path fill="none" stroke="#63b8ff" d="M288.49,-74.5C300.56,-74.5 312.87,-74.5 324.28,-74.5"/>
<polygon fill="#63b8ff" stroke="#63b8ff" points="288.43,-71 278.43,-74.5 288.43,-78 288.43,-71"/>
</a>
</g>
</g>
<!-- Node5 -->
<g id="Node000005" class="node">
<title>Node5</title>
<g id="a_Node000005"><a xlink:href="../../da/db2/classqugar_1_1impl_1_1funcs_1_1TransformedFunction.html" target="_top" xlink:title="Creates a new implicit function that is just a base function to which an affine transformation is app...">
<polygon fill="white" stroke="#666666" points="439,-41 314,-41 314,0 439,0 439,-41"/>
<text text-anchor="start" x="322" y="-29" font-family="Helvetica,sans-Serif" font-size="10.00">qugar::impl::funcs</text>
<text text-anchor="start" x="322" y="-18" font-family="Helvetica,sans-Serif" font-size="10.00">::TransformedFunction</text>
<text text-anchor="middle" x="376.5" y="-7" font-family="Helvetica,sans-Serif" font-size="10.00">&lt; dim &gt;</text>
</a>
</g>
</g>
<!-- Node1&#45;&gt;Node5 -->
<g id="edge4_Node000001_Node000005" class="edge">
<title>Node1&#45;&gt;Node5</title>
<g id="a_edge4_Node000001_Node000005"><a xlink:title=" ">
<path fill="none" stroke="#63b8ff" d="M286.81,-50.62C296.25,-47.42 305.86,-44.15 315.1,-41.01"/>
<polygon fill="#63b8ff" stroke="#63b8ff" points="285.41,-47.4 277.06,-53.93 287.66,-54.03 285.41,-47.4"/>
</a>
</g>
</g>
<!-- Node2 -->
<g id="Node000002" class="node">
<title>Node2</title>
<g id="a_Node000002"><a xlink:href="../../dd/d80/classqugar_1_1impl_1_1DomainFunc.html" target="_top" xlink:title="Domain functions.">
<polygon fill="white" stroke="#666666" points="117,-84 0,-84 0,-65 117,-65 117,-84"/>
<text text-anchor="middle" x="58.5" y="-72" font-family="Helvetica,sans-Serif" font-size="10.00">ImplicitFunc&lt; dim &gt;</text>
</a>
</g>
</g>
<!-- Node2&#45;&gt;Node1 -->
<g id="edge1_Node000001_Node000002" class="edge">
<title>Node2&#45;&gt;Node1</title>
<g id="a_edge1_Node000001_Node000002"><a xlink:title=" ">
<path fill="none" stroke="#63b8ff" d="M127.42,-74.5C135.88,-74.5 144.49,-74.5 152.84,-74.5"/>
<polygon fill="#63b8ff" stroke="#63b8ff" points="127.22,-71 117.22,-74.5 127.22,-78 127.22,-71"/>
</a>
</g>
</g>
</g>
</svg>
