<?xml version="1.0" encoding="UTF-8" standalone="no"?>
<!DOCTYPE svg PUBLIC "-//W3C//DTD SVG 1.1//EN"
 "http://www.w3.org/Graphics/SVG/1.1/DTD/svg11.dtd">
<!-- Generated by graphviz version 2.43.0 (0)
 -->
<!-- Title: /__w/qugar/qugar/cpp/include/qugar/monomials_tp.hpp Pages: 1 -->
<svg width="1229pt" height="335pt"
 viewBox="0.00 0.00 1229.00 335.00" xmlns="http://www.w3.org/2000/svg" xmlns:xlink="http://www.w3.org/1999/xlink">
<g id="graph0" class="graph" transform="scale(1 1) rotate(0) translate(4 331)">
<title>/__w/qugar/qugar/cpp/include/qugar/monomials_tp.hpp</title>
<!-- Node1 -->
<g id="Node000001" class="node">
<title>Node1</title>
<g id="a_Node000001"><a xlink:title="Declaration of tensor&#45;product monomials class.">
<polygon fill="#999999" stroke="#666666" points="606,-327 463,-327 463,-286 606,-286 606,-327"/>
<text text-anchor="start" x="471" y="-315" font-family="Helvetica,sans-Serif" font-size="10.00">/__w/qugar/qugar/cpp</text>
<text text-anchor="start" x="471" y="-304" font-family="Helvetica,sans-Serif" font-size="10.00">/include/qugar/monomials</text>
<text text-anchor="middle" x="534.5" y="-293" font-family="Helvetica,sans-Serif" font-size="10.00">_tp.hpp</text>
</a>
</g>
</g>
<!-- Node2 -->
<g id="Node000002" class="node">
<title>Node2</title>
<g id="a_Node000002"><a xlink:href="../../d5/d90/bbox_8hpp.html" target="_top" xlink:title="Definition of Cartesian bounding box class.">
<polygon fill="white" stroke="#666666" points="419.5,-189.5 327.5,-189.5 327.5,-170.5 419.5,-170.5 419.5,-189.5"/>
<text text-anchor="middle" x="373.5" y="-177.5" font-family="Helvetica,sans-Serif" font-size="10.00">qugar/bbox.hpp</text>
</a>
</g>
</g>
<!-- Node1&#45;&gt;Node2 -->
<g id="edge1_Node000001_Node000002" class="edge">
<title>Node1&#45;&gt;Node2</title>
<g id="a_edge1_Node000001_Node000002"><a xlink:title=" ">
<path fill="none" stroke="#63b8ff" d="M467.57,-285.92C446.82,-277.4 425.08,-265.7 408.5,-250 393.9,-236.18 384.41,-214.93 379.04,-199.67"/>
<polygon fill="#63b8ff" stroke="#63b8ff" points="382.26,-198.24 375.85,-189.8 375.6,-200.39 382.26,-198.24"/>
</a>
</g>
</g>
<!-- Node5 -->
<g id="Node000005" class="node">
<title>Node5</title>
<g id="a_Node000005"><a xlink:href="../../dd/de3/types_8hpp.html" target="_top" xlink:title="Declaration of types.">
<polygon fill="white" stroke="#666666" points="494,-74 399,-74 399,-55 494,-55 494,-74"/>
<text text-anchor="middle" x="446.5" y="-62" font-family="Helvetica,sans-Serif" font-size="10.00">qugar/types.hpp</text>
</a>
</g>
</g>
<!-- Node1&#45;&gt;Node5 -->
<g id="edge36_Node000001_Node000005" class="edge">
<title>Node1&#45;&gt;Node5</title>
<g id="a_edge36_Node000001_Node000005"><a xlink:title=" ">
<path fill="none" stroke="#63b8ff" d="M462.58,-300.55C360.51,-289.21 176.91,-251.87 94.5,-129 60.95,-78.98 280.38,-68.3 388.64,-66.07"/>
<polygon fill="#63b8ff" stroke="#63b8ff" points="388.83,-69.56 398.76,-65.88 388.7,-62.57 388.83,-69.56"/>
</a>
</g>
</g>
<!-- Node9 -->
<g id="Node000009" class="node">
<title>Node9</title>
<g id="a_Node000009"><a xlink:title=" ">
<polygon fill="#e0e0e0" stroke="#999999" points="47,-74 0,-74 0,-55 47,-55 47,-74"/>
<text text-anchor="middle" x="23.5" y="-62" font-family="Helvetica,sans-Serif" font-size="10.00">vector</text>
</a>
</g>
</g>
<!-- Node1&#45;&gt;Node9 -->
<g id="edge39_Node000001_Node000009" class="edge">
<title>Node1&#45;&gt;Node9</title>
<g id="a_edge39_Node000001_Node000009"><a xlink:title=" ">
<path fill="none" stroke="#63b8ff" d="M462.8,-300.81C396.19,-294.69 295.14,-280.84 212.5,-250 168.22,-233.48 156.61,-226.63 121.5,-195 83.42,-160.7 50.01,-109.81 33.83,-83.19"/>
<polygon fill="#63b8ff" stroke="#63b8ff" points="36.64,-81.06 28.51,-74.26 30.62,-84.65 36.64,-81.06"/>
</a>
</g>
</g>
<!-- Node12 -->
<g id="Node000012" class="node">
<title>Node12</title>
<g id="a_Node000012"><a xlink:href="../../dc/d7c/domain__function_8hpp.html" target="_top" xlink:title="Declaration of a few implicit functions template class ready to be consumed by Algoim.">
<polygon fill="white" stroke="#666666" points="688.5,-189.5 538.5,-189.5 538.5,-170.5 688.5,-170.5 688.5,-189.5"/>
<text text-anchor="middle" x="613.5" y="-177.5" font-family="Helvetica,sans-Serif" font-size="10.00">qugar/domain_function.hpp</text>
</a>
</g>
</g>
<!-- Node1&#45;&gt;Node12 -->
<g id="edge14_Node000001_Node000012" class="edge">
<title>Node1&#45;&gt;Node12</title>
<g id="a_edge14_Node000001_Node000012"><a xlink:title=" ">
<path fill="none" stroke="#63b8ff" d="M547.02,-285.77C562.32,-261.65 587.98,-221.22 602.54,-198.28"/>
<polygon fill="#63b8ff" stroke="#63b8ff" points="605.63,-199.93 608.03,-189.61 599.72,-196.18 605.63,-199.93"/>
</a>
</g>
</g>
<!-- Node16 -->
<g id="Node000016" class="node">
<title>Node16</title>
<g id="a_Node000016"><a xlink:href="../../d2/dee/polynomial__tp_8hpp.html" target="_top" xlink:title="Declaration of tensor&#45;product polynomial class.">
<polygon fill="white" stroke="#666666" points="555.5,-250 417.5,-250 417.5,-231 555.5,-231 555.5,-250"/>
<text text-anchor="middle" x="486.5" y="-238" font-family="Helvetica,sans-Serif" font-size="10.00">qugar/polynomial_tp.hpp</text>
</a>
</g>
</g>
<!-- Node1&#45;&gt;Node16 -->
<g id="edge21_Node000001_Node000016" class="edge">
<title>Node1&#45;&gt;Node16</title>
<g id="a_edge21_Node000001_Node000016"><a xlink:title=" ">
<path fill="none" stroke="#63b8ff" d="M519.84,-285.95C513.21,-277.11 505.45,-266.77 499.09,-258.29"/>
<polygon fill="#63b8ff" stroke="#63b8ff" points="501.87,-256.16 493.07,-250.26 496.27,-260.36 501.87,-256.16"/>
</a>
</g>
</g>
<!-- Node17 -->
<g id="Node000017" class="node">
<title>Node17</title>
<g id="a_Node000017"><a xlink:href="../../d9/d43/tensor__index__tp_8hpp.html" target="_top" xlink:title="Declaration of tensor&#45;product index and size related classes.">
<polygon fill="white" stroke="#666666" points="1050.5,-195 940.5,-195 940.5,-165 1050.5,-165 1050.5,-195"/>
<text text-anchor="start" x="948.5" y="-183" font-family="Helvetica,sans-Serif" font-size="10.00">qugar/tensor_index</text>
<text text-anchor="middle" x="995.5" y="-172" font-family="Helvetica,sans-Serif" font-size="10.00">_tp.hpp</text>
</a>
</g>
</g>
<!-- Node1&#45;&gt;Node17 -->
<g id="edge35_Node000001_Node000017" class="edge">
<title>Node1&#45;&gt;Node17</title>
<g id="a_edge35_Node000001_Node000017"><a xlink:title=" ">
<path fill="none" stroke="#63b8ff" d="M555.84,-285.84C576.06,-268.42 608.07,-243.81 640.5,-231 691.87,-210.71 842.63,-194.52 930.28,-186.5"/>
<polygon fill="#63b8ff" stroke="#63b8ff" points="930.74,-189.97 940.39,-185.58 930.11,-183 930.74,-189.97"/>
</a>
</g>
</g>
<!-- Node20 -->
<g id="Node000020" class="node">
<title>Node20</title>
<g id="a_Node000020"><a xlink:title=" ">
<polygon fill="#e0e0e0" stroke="#999999" points="753.5,-250 649.5,-250 649.5,-231 753.5,-231 753.5,-250"/>
<text text-anchor="middle" x="701.5" y="-238" font-family="Helvetica,sans-Serif" font-size="10.00">algoim/xarray.hpp</text>
</a>
</g>
</g>
<!-- Node1&#45;&gt;Node20 -->
<g id="edge37_Node000001_Node000020" class="edge">
<title>Node1&#45;&gt;Node20</title>
<g id="a_edge37_Node000001_Node000020"><a xlink:title=" ">
<path fill="none" stroke="#63b8ff" d="M585.51,-285.95C612.87,-275.46 645.75,-262.87 669.5,-253.76"/>
<polygon fill="#63b8ff" stroke="#63b8ff" points="671,-256.94 679.08,-250.09 668.49,-250.4 671,-256.94"/>
</a>
</g>
</g>
<!-- Node21 -->
<g id="Node000021" class="node">
<title>Node21</title>
<g id="a_Node000021"><a xlink:title=" ">
<polygon fill="#e0e0e0" stroke="#999999" points="829.5,-250 771.5,-250 771.5,-231 829.5,-231 829.5,-250"/>
<text text-anchor="middle" x="800.5" y="-238" font-family="Helvetica,sans-Serif" font-size="10.00">memory</text>
</a>
</g>
</g>
<!-- Node1&#45;&gt;Node21 -->
<g id="edge38_Node000001_Node000021" class="edge">
<title>Node1&#45;&gt;Node21</title>
<g id="a_edge38_Node000001_Node000021"><a xlink:title=" ">
<path fill="none" stroke="#63b8ff" d="M606.13,-288.26C656.07,-276.25 720.78,-260.68 761.48,-250.89"/>
<polygon fill="#63b8ff" stroke="#63b8ff" points="762.38,-254.27 771.29,-248.53 760.75,-247.46 762.38,-254.27"/>
</a>
</g>
</g>
<!-- Node3 -->
<g id="Node000003" class="node">
<title>Node3</title>
<g id="a_Node000003"><a xlink:href="../../d7/dd8/concepts_8hpp.html" target="_top" xlink:title="Declaration of concepts.">
<polygon fill="white" stroke="#666666" points="215.5,-129 103.5,-129 103.5,-110 215.5,-110 215.5,-129"/>
<text text-anchor="middle" x="159.5" y="-117" font-family="Helvetica,sans-Serif" font-size="10.00">qugar/concepts.hpp</text>
</a>
</g>
</g>
<!-- Node2&#45;&gt;Node3 -->
<g id="edge2_Node000002_Node000003" class="edge">
<title>Node2&#45;&gt;Node3</title>
<g id="a_edge2_Node000002_Node000003"><a xlink:title=" ">
<path fill="none" stroke="#63b8ff" d="M342.38,-170.49C304.9,-160.25 241.82,-143 200.43,-131.69"/>
<polygon fill="#63b8ff" stroke="#63b8ff" points="201.22,-128.28 190.65,-129.02 199.38,-135.03 201.22,-128.28"/>
</a>
</g>
</g>
<!-- Node4 -->
<g id="Node000004" class="node">
<title>Node4</title>
<g id="a_Node000004"><a xlink:href="../../d0/de4/point_8hpp.html" target="_top" xlink:title="Definition and implementation of Point class.">
<polygon fill="white" stroke="#666666" points="569,-129 476,-129 476,-110 569,-110 569,-129"/>
<text text-anchor="middle" x="522.5" y="-117" font-family="Helvetica,sans-Serif" font-size="10.00">qugar/point.hpp</text>
</a>
</g>
</g>
<!-- Node2&#45;&gt;Node4 -->
<g id="edge3_Node000002_Node000004" class="edge">
<title>Node2&#45;&gt;Node4</title>
<g id="a_edge3_Node000002_Node000004"><a xlink:title=" ">
<path fill="none" stroke="#63b8ff" d="M395.17,-170.49C420.44,-160.57 462.41,-144.09 491.22,-132.78"/>
<polygon fill="#63b8ff" stroke="#63b8ff" points="492.78,-135.93 500.81,-129.02 490.22,-129.41 492.78,-135.93"/>
</a>
</g>
</g>
<!-- Node2&#45;&gt;Node5 -->
<g id="edge10_Node000002_Node000005" class="edge">
<title>Node2&#45;&gt;Node5</title>
<g id="a_edge10_Node000002_Node000005"><a xlink:title=" ">
<path fill="none" stroke="#63b8ff" d="M378.99,-170.47C390.93,-151.9 419.48,-107.51 435.36,-82.82"/>
<polygon fill="#63b8ff" stroke="#63b8ff" points="438.48,-84.43 440.95,-74.13 432.6,-80.65 438.48,-84.43"/>
</a>
</g>
</g>
<!-- Node6 -->
<g id="Node000006" class="node">
<title>Node6</title>
<g id="a_Node000006"><a xlink:title=" ">
<polygon fill="#e0e0e0" stroke="#999999" points="511,-19 458,-19 458,0 511,0 511,-19"/>
<text text-anchor="middle" x="484.5" y="-7" font-family="Helvetica,sans-Serif" font-size="10.00">cstddef</text>
</a>
</g>
</g>
<!-- Node2&#45;&gt;Node6 -->
<g id="edge13_Node000002_Node000006" class="edge">
<title>Node2&#45;&gt;Node6</title>
<g id="a_edge13_Node000002_Node000006"><a xlink:title=" ">
<path fill="none" stroke="#63b8ff" d="M327.47,-177.64C256.05,-174.45 123.67,-163.86 94.5,-129 89.08,-122.52 89.32,-116.67 94.5,-110 138.17,-53.79 359.31,-24.03 447.81,-14.22"/>
<polygon fill="#63b8ff" stroke="#63b8ff" points="448.36,-17.68 457.92,-13.12 447.61,-10.72 448.36,-17.68"/>
</a>
</g>
</g>
<!-- Node10 -->
<g id="Node000010" class="node">
<title>Node10</title>
<g id="a_Node000010"><a xlink:title=" ">
<polygon fill="#e0e0e0" stroke="#999999" points="381.5,-129 233.5,-129 233.5,-110 381.5,-110 381.5,-129"/>
<text text-anchor="middle" x="307.5" y="-117" font-family="Helvetica,sans-Serif" font-size="10.00">algoim/hyperrectangle.hpp</text>
</a>
</g>
</g>
<!-- Node2&#45;&gt;Node10 -->
<g id="edge11_Node000002_Node000010" class="edge">
<title>Node2&#45;&gt;Node10</title>
<g id="a_edge11_Node000002_Node000010"><a xlink:title=" ">
<path fill="none" stroke="#63b8ff" d="M363.76,-170.37C353.53,-161.3 337.21,-146.84 324.78,-135.82"/>
<polygon fill="#63b8ff" stroke="#63b8ff" points="327.08,-133.18 317.28,-129.17 322.44,-138.42 327.08,-133.18"/>
</a>
</g>
</g>
<!-- Node11 -->
<g id="Node000011" class="node">
<title>Node11</title>
<g id="a_Node000011"><a xlink:title=" ">
<polygon fill="#e0e0e0" stroke="#999999" points="797.5,-129 755.5,-129 755.5,-110 797.5,-110 797.5,-129"/>
<text text-anchor="middle" x="776.5" y="-117" font-family="Helvetica,sans-Serif" font-size="10.00">array</text>
</a>
</g>
</g>
<!-- Node2&#45;&gt;Node11 -->
<g id="edge12_Node000002_Node000011" class="edge">
<title>Node2&#45;&gt;Node11</title>
<g id="a_edge12_Node000002_Node000011"><a xlink:title=" ">
<path fill="none" stroke="#63b8ff" d="M419.5,-174.97C488.41,-168.46 622.59,-153.99 745.34,-128.97"/>
<polygon fill="#63b8ff" stroke="#63b8ff" points="746.2,-132.37 755.29,-126.92 744.79,-125.51 746.2,-132.37"/>
</a>
</g>
</g>
<!-- Node4&#45;&gt;Node5 -->
<g id="edge4_Node000004_Node000005" class="edge">
<title>Node4&#45;&gt;Node5</title>
<g id="a_edge4_Node000004_Node000005"><a xlink:title=" ">
<path fill="none" stroke="#63b8ff" d="M510.29,-109.98C498.72,-101.92 481.12,-89.65 467.34,-80.03"/>
<polygon fill="#63b8ff" stroke="#63b8ff" points="469.14,-77.02 458.93,-74.17 465.13,-82.76 469.14,-77.02"/>
</a>
</g>
</g>
<!-- Node4&#45;&gt;Node6 -->
<g id="edge8_Node000004_Node000006" class="edge">
<title>Node4&#45;&gt;Node6</title>
<g id="a_edge8_Node000004_Node000006"><a xlink:title=" ">
<path fill="none" stroke="#63b8ff" d="M520.22,-109.77C516.93,-97.44 510.47,-74.26 503.5,-55 500.28,-46.11 496.23,-36.44 492.69,-28.39"/>
<polygon fill="#63b8ff" stroke="#63b8ff" points="495.87,-26.94 488.58,-19.25 489.48,-29.8 495.87,-26.94"/>
</a>
</g>
</g>
<!-- Node7 -->
<g id="Node000007" class="node">
<title>Node7</title>
<g id="a_Node000007"><a xlink:href="../../da/d16/vector_8hpp.html" target="_top" xlink:title=" ">
<polygon fill="white" stroke="#666666" points="942.5,-74 844.5,-74 844.5,-55 942.5,-55 942.5,-74"/>
<text text-anchor="middle" x="893.5" y="-62" font-family="Helvetica,sans-Serif" font-size="10.00">qugar/vector.hpp</text>
</a>
</g>
</g>
<!-- Node4&#45;&gt;Node7 -->
<g id="edge6_Node000004_Node000007" class="edge">
<title>Node4&#45;&gt;Node7</title>
<g id="a_edge6_Node000004_Node000007"><a xlink:title=" ">
<path fill="none" stroke="#63b8ff" d="M569.11,-111.84C636.4,-102.23 760.73,-84.47 834.38,-73.95"/>
<polygon fill="#63b8ff" stroke="#63b8ff" points="835.02,-77.39 844.43,-72.51 834.03,-70.46 835.02,-77.39"/>
</a>
</g>
</g>
<!-- Node4&#45;&gt;Node9 -->
<g id="edge9_Node000004_Node000009" class="edge">
<title>Node4&#45;&gt;Node9</title>
<g id="a_edge9_Node000004_Node000009"><a xlink:title=" ">
<path fill="none" stroke="#63b8ff" d="M475.56,-113.51C375.64,-102.9 143.99,-78.3 57.17,-69.08"/>
<polygon fill="#63b8ff" stroke="#63b8ff" points="57.4,-65.58 47.08,-68 56.66,-72.54 57.4,-65.58"/>
</a>
</g>
</g>
<!-- Node5&#45;&gt;Node6 -->
<g id="edge5_Node000005_Node000006" class="edge">
<title>Node5&#45;&gt;Node6</title>
<g id="a_edge5_Node000005_Node000006"><a xlink:title=" ">
<path fill="none" stroke="#63b8ff" d="M452.77,-54.75C458.09,-47.34 465.86,-36.5 472.38,-27.41"/>
<polygon fill="#63b8ff" stroke="#63b8ff" points="475.36,-29.26 478.34,-19.09 469.67,-25.18 475.36,-29.26"/>
</a>
</g>
</g>
<!-- Node8 -->
<g id="Node000008" class="node">
<title>Node8</title>
<g id="a_Node000008"><a xlink:title=" ">
<polygon fill="#e0e0e0" stroke="#999999" points="948.5,-19 838.5,-19 838.5,0 948.5,0 948.5,-19"/>
<text text-anchor="middle" x="893.5" y="-7" font-family="Helvetica,sans-Serif" font-size="10.00">algoim/uvector.hpp</text>
</a>
</g>
</g>
<!-- Node7&#45;&gt;Node8 -->
<g id="edge7_Node000007_Node000008" class="edge">
<title>Node7&#45;&gt;Node8</title>
<g id="a_edge7_Node000007_Node000008"><a xlink:title=" ">
<path fill="none" stroke="#63b8ff" d="M893.5,-54.75C893.5,-47.8 893.5,-37.85 893.5,-29.13"/>
<polygon fill="#63b8ff" stroke="#63b8ff" points="897,-29.09 893.5,-19.09 890,-29.09 897,-29.09"/>
</a>
</g>
</g>
<!-- Node12&#45;&gt;Node4 -->
<g id="edge16_Node000012_Node000004" class="edge">
<title>Node12&#45;&gt;Node4</title>
<g id="a_edge16_Node000012_Node000004"><a xlink:title=" ">
<path fill="none" stroke="#63b8ff" d="M600.07,-170.37C585.42,-160.95 561.74,-145.73 544.4,-134.58"/>
<polygon fill="#63b8ff" stroke="#63b8ff" points="546.29,-131.63 535.98,-129.17 542.5,-137.52 546.29,-131.63"/>
</a>
</g>
</g>
<!-- Node12&#45;&gt;Node5 -->
<g id="edge15_Node000012_Node000005" class="edge">
<title>Node12&#45;&gt;Node5</title>
<g id="a_edge15_Node000012_Node000005"><a xlink:title=" ">
<path fill="none" stroke="#63b8ff" d="M611.45,-170.48C607.52,-155.99 597.6,-126.52 578.5,-110 557.67,-91.98 529.25,-81.19 504.12,-74.76"/>
<polygon fill="#63b8ff" stroke="#63b8ff" points="504.85,-71.33 494.31,-72.42 503.22,-78.14 504.85,-71.33"/>
</a>
</g>
</g>
<!-- Node12&#45;&gt;Node7 -->
<g id="edge17_Node000012_Node000007" class="edge">
<title>Node12&#45;&gt;Node7</title>
<g id="a_edge17_Node000012_Node000007"><a xlink:title=" ">
<path fill="none" stroke="#63b8ff" d="M688.67,-173.21C755.84,-166.54 847.67,-153.24 874.5,-129 886.9,-117.8 891.34,-98.88 892.87,-84.6"/>
<polygon fill="#63b8ff" stroke="#63b8ff" points="896.38,-84.59 893.57,-74.38 889.4,-84.12 896.38,-84.59"/>
</a>
</g>
</g>
<!-- Node13 -->
<g id="Node000013" class="node">
<title>Node13</title>
<g id="a_Node000013"><a xlink:title=" ">
<polygon fill="#e0e0e0" stroke="#999999" points="737.5,-129 625.5,-129 625.5,-110 737.5,-110 737.5,-129"/>
<text text-anchor="middle" x="681.5" y="-117" font-family="Helvetica,sans-Serif" font-size="10.00">algoim/interval.hpp</text>
</a>
</g>
</g>
<!-- Node12&#45;&gt;Node13 -->
<g id="edge18_Node000012_Node000013" class="edge">
<title>Node12&#45;&gt;Node13</title>
<g id="a_edge18_Node000012_Node000013"><a xlink:title=" ">
<path fill="none" stroke="#63b8ff" d="M623.53,-170.37C634.08,-161.3 650.89,-146.84 663.69,-135.82"/>
<polygon fill="#63b8ff" stroke="#63b8ff" points="666.13,-138.34 671.43,-129.17 661.56,-133.04 666.13,-138.34"/>
</a>
</g>
</g>
<!-- Node14 -->
<g id="Node000014" class="node">
<title>Node14</title>
<g id="a_Node000014"><a xlink:title=" ">
<polygon fill="#e0e0e0" stroke="#999999" points="865.5,-129 815.5,-129 815.5,-110 865.5,-110 865.5,-129"/>
<text text-anchor="middle" x="840.5" y="-117" font-family="Helvetica,sans-Serif" font-size="10.00">cstdint</text>
</a>
</g>
</g>
<!-- Node12&#45;&gt;Node14 -->
<g id="edge19_Node000012_Node000014" class="edge">
<title>Node12&#45;&gt;Node14</title>
<g id="a_edge19_Node000012_Node000014"><a xlink:title=" ">
<path fill="none" stroke="#63b8ff" d="M646.51,-170.49C688.86,-159.58 762,-140.73 805.36,-129.56"/>
<polygon fill="#63b8ff" stroke="#63b8ff" points="806.37,-132.91 815.18,-127.03 804.62,-126.13 806.37,-132.91"/>
</a>
</g>
</g>
<!-- Node15 -->
<g id="Node000015" class="node">
<title>Node15</title>
<g id="a_Node000015"><a xlink:title=" ">
<polygon fill="#e0e0e0" stroke="#999999" points="991,-129 922,-129 922,-110 991,-110 991,-129"/>
<text text-anchor="middle" x="956.5" y="-117" font-family="Helvetica,sans-Serif" font-size="10.00">type_traits</text>
</a>
</g>
</g>
<!-- Node12&#45;&gt;Node15 -->
<g id="edge20_Node000012_Node000015" class="edge">
<title>Node12&#45;&gt;Node15</title>
<g id="a_edge20_Node000012_Node000015"><a xlink:title=" ">
<path fill="none" stroke="#63b8ff" d="M663.97,-170.47C722.54,-160.56 822.03,-143.68 907.5,-129 908.96,-128.75 910.45,-128.49 911.95,-128.23"/>
<polygon fill="#63b8ff" stroke="#63b8ff" points="912.71,-131.66 921.97,-126.5 911.52,-124.76 912.71,-131.66"/>
</a>
</g>
</g>
<!-- Node16&#45;&gt;Node2 -->
<g id="edge22_Node000016_Node000002" class="edge">
<title>Node16&#45;&gt;Node2</title>
<g id="a_edge22_Node000016_Node000002"><a xlink:title=" ">
<path fill="none" stroke="#63b8ff" d="M469.83,-230.87C451.22,-221.23 420.88,-205.53 399.22,-194.31"/>
<polygon fill="#63b8ff" stroke="#63b8ff" points="400.73,-191.16 390.24,-189.67 397.51,-197.37 400.73,-191.16"/>
</a>
</g>
</g>
<!-- Node16&#45;&gt;Node4 -->
<g id="edge24_Node000016_Node000004" class="edge">
<title>Node16&#45;&gt;Node4</title>
<g id="a_edge24_Node000016_Node000004"><a xlink:title=" ">
<path fill="none" stroke="#63b8ff" d="M489.09,-230.94C494.87,-211.82 508.95,-165.27 516.87,-139.12"/>
<polygon fill="#63b8ff" stroke="#63b8ff" points="520.29,-139.89 519.84,-129.3 513.59,-137.86 520.29,-139.89"/>
</a>
</g>
</g>
<!-- Node16&#45;&gt;Node5 -->
<g id="edge32_Node000016_Node000005" class="edge">
<title>Node16&#45;&gt;Node5</title>
<g id="a_edge32_Node000016_Node000005"><a xlink:title=" ">
<path fill="none" stroke="#63b8ff" d="M484.46,-230.63C478.23,-203.52 459.33,-121.32 450.78,-84.13"/>
<polygon fill="#63b8ff" stroke="#63b8ff" points="454.14,-83.11 448.49,-74.14 447.32,-84.67 454.14,-83.11"/>
</a>
</g>
</g>
<!-- Node16&#45;&gt;Node9 -->
<g id="edge34_Node000016_Node000009" class="edge">
<title>Node16&#45;&gt;Node9</title>
<g id="a_edge34_Node000016_Node000009"><a xlink:title=" ">
<path fill="none" stroke="#63b8ff" d="M417.36,-231.38C334.29,-219.22 192.94,-190.76 87.5,-129 66.92,-116.95 48.17,-96.74 36.35,-82.36"/>
<polygon fill="#63b8ff" stroke="#63b8ff" points="38.9,-79.94 29.94,-74.29 33.42,-84.3 38.9,-79.94"/>
</a>
</g>
</g>
<!-- Node16&#45;&gt;Node12 -->
<g id="edge23_Node000016_Node000012" class="edge">
<title>Node16&#45;&gt;Node12</title>
<g id="a_edge23_Node000016_Node000012"><a xlink:title=" ">
<path fill="none" stroke="#63b8ff" d="M504.97,-230.99C526.22,-221.2 561.35,-205.02 585.87,-193.73"/>
<polygon fill="#63b8ff" stroke="#63b8ff" points="587.39,-196.88 595.01,-189.52 584.46,-190.52 587.39,-196.88"/>
</a>
</g>
</g>
<!-- Node16&#45;&gt;Node17 -->
<g id="edge25_Node000016_Node000017" class="edge">
<title>Node16&#45;&gt;Node17</title>
<g id="a_edge25_Node000016_Node000017"><a xlink:title=" ">
<path fill="none" stroke="#63b8ff" d="M555.68,-231.55C654.15,-220.23 833.49,-199.62 929.94,-188.53"/>
<polygon fill="#63b8ff" stroke="#63b8ff" points="930.61,-191.98 940.15,-187.36 929.81,-185.03 930.61,-191.98"/>
</a>
</g>
</g>
<!-- Node18 -->
<g id="Node000018" class="node">
<title>Node18</title>
<g id="a_Node000018"><a xlink:title=" ">
<polygon fill="#e0e0e0" stroke="#999999" points="1061.5,-129 1009.5,-129 1009.5,-110 1061.5,-110 1061.5,-129"/>
<text text-anchor="middle" x="1035.5" y="-117" font-family="Helvetica,sans-Serif" font-size="10.00">cassert</text>
</a>
</g>
</g>
<!-- Node16&#45;&gt;Node18 -->
<g id="edge33_Node000016_Node000018" class="edge">
<title>Node16&#45;&gt;Node18</title>
<g id="a_edge33_Node000016_Node000018"><a xlink:title=" ">
<path fill="none" stroke="#63b8ff" d="M527.36,-230.97C569.88,-222.07 638.38,-207.67 697.5,-195 829.1,-166.79 864.55,-160.23 999.27,-129.25"/>
<polygon fill="#63b8ff" stroke="#63b8ff" points="1000.18,-132.63 1009.14,-126.97 998.61,-125.81 1000.18,-132.63"/>
</a>
</g>
</g>
<!-- Node17&#45;&gt;Node6 -->
<g id="edge29_Node000017_Node000006" class="edge">
<title>Node17&#45;&gt;Node6</title>
<g id="a_edge29_Node000017_Node000006"><a xlink:title=" ">
<path fill="none" stroke="#63b8ff" d="M1040.72,-164.91C1071,-152.96 1102.6,-133.94 1086.5,-110 1023.03,-15.6 642.36,-9.56 521.38,-10.07"/>
<polygon fill="#63b8ff" stroke="#63b8ff" points="521.13,-6.57 511.15,-10.13 521.17,-13.57 521.13,-6.57"/>
</a>
</g>
</g>
<!-- Node17&#45;&gt;Node7 -->
<g id="edge26_Node000017_Node000007" class="edge">
<title>Node17&#45;&gt;Node7</title>
<g id="a_edge26_Node000017_Node000007"><a xlink:title=" ">
<path fill="none" stroke="#63b8ff" d="M1029.97,-164.97C1056.91,-151.96 1087.2,-131.42 1070.5,-110 1056.01,-91.42 998.6,-79.4 953.04,-72.6"/>
<polygon fill="#63b8ff" stroke="#63b8ff" points="953.32,-69.11 942.93,-71.15 952.33,-76.04 953.32,-69.11"/>
</a>
</g>
</g>
<!-- Node17&#45;&gt;Node11 -->
<g id="edge27_Node000017_Node000011" class="edge">
<title>Node17&#45;&gt;Node11</title>
<g id="a_edge27_Node000017_Node000011"><a xlink:title=" ">
<path fill="none" stroke="#63b8ff" d="M941.26,-164.92C905.73,-155.63 858.04,-143.05 807.58,-129.26"/>
<polygon fill="#63b8ff" stroke="#63b8ff" points="808.36,-125.85 797.79,-126.58 806.51,-132.6 808.36,-125.85"/>
</a>
</g>
</g>
<!-- Node17&#45;&gt;Node15 -->
<g id="edge31_Node000017_Node000015" class="edge">
<title>Node17&#45;&gt;Node15</title>
<g id="a_edge31_Node000017_Node000015"><a xlink:title=" ">
<path fill="none" stroke="#63b8ff" d="M986.06,-164.84C980.63,-156.69 973.77,-146.4 968.02,-137.78"/>
<polygon fill="#63b8ff" stroke="#63b8ff" points="970.8,-135.65 962.34,-129.27 964.98,-139.53 970.8,-135.65"/>
</a>
</g>
</g>
<!-- Node17&#45;&gt;Node18 -->
<g id="edge28_Node000017_Node000018" class="edge">
<title>Node17&#45;&gt;Node18</title>
<g id="a_edge28_Node000017_Node000018"><a xlink:title=" ">
<path fill="none" stroke="#63b8ff" d="M1005.18,-164.84C1010.75,-156.69 1017.79,-146.4 1023.68,-137.78"/>
<polygon fill="#63b8ff" stroke="#63b8ff" points="1026.75,-139.5 1029.51,-129.27 1020.97,-135.55 1026.75,-139.5"/>
</a>
</g>
</g>
<!-- Node19 -->
<g id="Node000019" class="node">
<title>Node19</title>
<g id="a_Node000019"><a xlink:title=" ">
<polygon fill="#e0e0e0" stroke="#999999" points="1221,-129 1156,-129 1156,-110 1221,-110 1221,-129"/>
<text text-anchor="middle" x="1188.5" y="-117" font-family="Helvetica,sans-Serif" font-size="10.00">functional</text>
</a>
</g>
</g>
<!-- Node17&#45;&gt;Node19 -->
<g id="edge30_Node000017_Node000019" class="edge">
<title>Node17&#45;&gt;Node19</title>
<g id="a_edge30_Node000017_Node000019"><a xlink:title=" ">
<path fill="none" stroke="#63b8ff" d="M1041.73,-164.99C1075.04,-154.89 1119.43,-141.44 1150.64,-131.98"/>
<polygon fill="#63b8ff" stroke="#63b8ff" points="1151.73,-135.3 1160.28,-129.05 1149.7,-128.6 1151.73,-135.3"/>
</a>
</g>
</g>
</g>
</svg>
