<?xml version="1.0" encoding="UTF-8" standalone="no"?>
<!DOCTYPE svg PUBLIC "-//W3C//DTD SVG 1.1//EN"
 "http://www.w3.org/Graphics/SVG/1.1/DTD/svg11.dtd">
<!-- Generated by graphviz version 2.43.0 (0)
 -->
<!-- Title: /__w/qugar/qugar/cpp/include/qugar/monomials_tp.hpp Pages: 1 -->
<svg width="1475pt" height="335pt"
 viewBox="0.00 0.00 1475.12 335.00" xmlns="http://www.w3.org/2000/svg" xmlns:xlink="http://www.w3.org/1999/xlink">
<g id="graph0" class="graph" transform="scale(1 1) rotate(0) translate(4 331)">
<title>/__w/qugar/qugar/cpp/include/qugar/monomials_tp.hpp</title>
<!-- Node1 -->
<g id="Node000001" class="node">
<title>Node1</title>
<g id="a_Node000001"><a xlink:title="Declaration of tensor&#45;product monomials class.">
<polygon fill="#999999" stroke="#666666" points="917.62,-327 774.62,-327 774.62,-286 917.62,-286 917.62,-327"/>
<text text-anchor="start" x="782.62" y="-315" font-family="Helvetica,sans-Serif" font-size="10.00">/__w/qugar/qugar/cpp</text>
<text text-anchor="start" x="782.62" y="-304" font-family="Helvetica,sans-Serif" font-size="10.00">/include/qugar/monomials</text>
<text text-anchor="middle" x="846.12" y="-293" font-family="Helvetica,sans-Serif" font-size="10.00">_tp.hpp</text>
</a>
</g>
</g>
<!-- Node2 -->
<g id="Node000002" class="node">
<title>Node2</title>
<g id="a_Node000002"><a xlink:href="../../d5/d90/bbox_8hpp.html" target="_top" xlink:title="Definition of Cartesian bounding box class.">
<polygon fill="white" stroke="#666666" points="329.12,-189.5 237.12,-189.5 237.12,-170.5 329.12,-170.5 329.12,-189.5"/>
<text text-anchor="middle" x="283.12" y="-177.5" font-family="Helvetica,sans-Serif" font-size="10.00">qugar/bbox.hpp</text>
</a>
</g>
</g>
<!-- Node1&#45;&gt;Node2 -->
<g id="edge1_Node000001_Node000002" class="edge">
<title>Node1&#45;&gt;Node2</title>
<g id="a_edge1_Node000001_Node000002"><a xlink:title=" ">
<path fill="none" stroke="#63b8ff" d="M774.4,-295.93C707.42,-286.39 604.89,-270.27 517.12,-250 445.57,-233.48 363.6,-207.68 318.15,-192.76"/>
<polygon fill="#63b8ff" stroke="#63b8ff" points="319.07,-189.38 308.48,-189.57 316.88,-196.02 319.07,-189.38"/>
</a>
</g>
</g>
<!-- Node5 -->
<g id="Node000005" class="node">
<title>Node5</title>
<g id="a_Node000005"><a xlink:href="../../dd/de3/types_8hpp.html" target="_top" xlink:title="Declaration of types.">
<polygon fill="white" stroke="#666666" points="555.62,-74 460.62,-74 460.62,-55 555.62,-55 555.62,-74"/>
<text text-anchor="middle" x="508.12" y="-62" font-family="Helvetica,sans-Serif" font-size="10.00">qugar/types.hpp</text>
</a>
</g>
</g>
<!-- Node1&#45;&gt;Node5 -->
<g id="edge38_Node000001_Node000005" class="edge">
<title>Node1&#45;&gt;Node5</title>
<g id="a_edge38_Node000001_Node000005"><a xlink:title=" ">
<path fill="none" stroke="#63b8ff" d="M917.81,-296.28C1057.25,-275.69 1342.69,-218.99 1240.12,-110 1238.68,-108.47 738.58,-79.01 565.93,-68.88"/>
<polygon fill="#63b8ff" stroke="#63b8ff" points="565.95,-65.38 555.76,-68.29 565.54,-72.37 565.95,-65.38"/>
</a>
</g>
</g>
<!-- Node9 -->
<g id="Node000009" class="node">
<title>Node9</title>
<g id="a_Node000009"><a xlink:title=" ">
<polygon fill="#e0e0e0" stroke="#999999" points="380.62,-74 333.62,-74 333.62,-55 380.62,-55 380.62,-74"/>
<text text-anchor="middle" x="357.12" y="-62" font-family="Helvetica,sans-Serif" font-size="10.00">vector</text>
</a>
</g>
</g>
<!-- Node1&#45;&gt;Node9 -->
<g id="edge41_Node000001_Node000009" class="edge">
<title>Node1&#45;&gt;Node9</title>
<g id="a_edge41_Node000001_Node000009"><a xlink:title=" ">
<path fill="none" stroke="#63b8ff" d="M774.55,-302.13C588.3,-291.65 96.54,-252.57 4.12,-129 -35.06,-76.61 227.9,-67.44 323.4,-65.84"/>
<polygon fill="#63b8ff" stroke="#63b8ff" points="323.47,-69.34 333.41,-65.69 323.36,-62.34 323.47,-69.34"/>
</a>
</g>
</g>
<!-- Node12 -->
<g id="Node000012" class="node">
<title>Node12</title>
<g id="a_Node000012"><a xlink:href="../../dc/d7c/domain__function_8hpp.html" target="_top" xlink:title="Declaration of a few implicit functions template class ready to be consumed by Algoim.">
<polygon fill="white" stroke="#666666" points="769.12,-189.5 619.12,-189.5 619.12,-170.5 769.12,-170.5 769.12,-189.5"/>
<text text-anchor="middle" x="694.12" y="-177.5" font-family="Helvetica,sans-Serif" font-size="10.00">qugar/domain_function.hpp</text>
</a>
</g>
</g>
<!-- Node1&#45;&gt;Node12 -->
<g id="edge14_Node000001_Node000012" class="edge">
<title>Node1&#45;&gt;Node12</title>
<g id="a_edge14_Node000001_Node000012"><a xlink:title=" ">
<path fill="none" stroke="#63b8ff" d="M822.04,-285.77C791.67,-260.9 740.13,-218.68 712.66,-196.18"/>
<polygon fill="#63b8ff" stroke="#63b8ff" points="714.59,-193.24 704.64,-189.61 710.16,-198.66 714.59,-193.24"/>
</a>
</g>
</g>
<!-- Node16 -->
<g id="Node000016" class="node">
<title>Node16</title>
<g id="a_Node000016"><a xlink:href="../../d2/dee/polynomial__tp_8hpp.html" target="_top" xlink:title="Declaration of tensor&#45;product polynomial class.">
<polygon fill="white" stroke="#666666" points="664.12,-250 526.12,-250 526.12,-231 664.12,-231 664.12,-250"/>
<text text-anchor="middle" x="595.12" y="-238" font-family="Helvetica,sans-Serif" font-size="10.00">qugar/polynomial_tp.hpp</text>
</a>
</g>
</g>
<!-- Node1&#45;&gt;Node16 -->
<g id="edge21_Node000001_Node000016" class="edge">
<title>Node1&#45;&gt;Node16</title>
<g id="a_edge21_Node000001_Node000016"><a xlink:title=" ">
<path fill="none" stroke="#63b8ff" d="M774.53,-287.25C730.69,-276.07 676.02,-262.13 638.62,-252.59"/>
<polygon fill="#63b8ff" stroke="#63b8ff" points="639.11,-249.1 628.55,-250.02 637.38,-255.89 639.11,-249.1"/>
</a>
</g>
</g>
<!-- Node17 -->
<g id="Node000017" class="node">
<title>Node17</title>
<g id="a_Node000017"><a xlink:href="../../d9/d43/tensor__index__tp_8hpp.html" target="_top" xlink:title="Declaration of tensor&#45;product index and size related classes.">
<polygon fill="white" stroke="#666666" points="1003.12,-195 893.12,-195 893.12,-165 1003.12,-165 1003.12,-195"/>
<text text-anchor="start" x="901.12" y="-183" font-family="Helvetica,sans-Serif" font-size="10.00">qugar/tensor_index</text>
<text text-anchor="middle" x="948.12" y="-172" font-family="Helvetica,sans-Serif" font-size="10.00">_tp.hpp</text>
</a>
</g>
</g>
<!-- Node1&#45;&gt;Node17 -->
<g id="edge37_Node000001_Node000017" class="edge">
<title>Node1&#45;&gt;Node17</title>
<g id="a_edge37_Node000001_Node000017"><a xlink:title=" ">
<path fill="none" stroke="#63b8ff" d="M862.29,-285.77C880.7,-263.3 910.71,-226.67 929.93,-203.21"/>
<polygon fill="#63b8ff" stroke="#63b8ff" points="932.85,-205.17 936.48,-195.21 927.43,-200.73 932.85,-205.17"/>
</a>
</g>
</g>
<!-- Node21 -->
<g id="Node000021" class="node">
<title>Node21</title>
<g id="a_Node000021"><a xlink:title=" ">
<polygon fill="#e0e0e0" stroke="#999999" points="1391.12,-250 1287.12,-250 1287.12,-231 1391.12,-231 1391.12,-250"/>
<text text-anchor="middle" x="1339.12" y="-238" font-family="Helvetica,sans-Serif" font-size="10.00">algoim/xarray.hpp</text>
</a>
</g>
</g>
<!-- Node1&#45;&gt;Node21 -->
<g id="edge39_Node000001_Node000021" class="edge">
<title>Node1&#45;&gt;Node21</title>
<g id="a_edge39_Node000001_Node000021"><a xlink:title=" ">
<path fill="none" stroke="#63b8ff" d="M917.81,-296.19C1014.59,-283.63 1185.46,-261.45 1277.03,-249.56"/>
<polygon fill="#63b8ff" stroke="#63b8ff" points="1277.52,-253.03 1286.99,-248.27 1276.62,-246.08 1277.52,-253.03"/>
</a>
</g>
</g>
<!-- Node22 -->
<g id="Node000022" class="node">
<title>Node22</title>
<g id="a_Node000022"><a xlink:title=" ">
<polygon fill="#e0e0e0" stroke="#999999" points="1467.12,-250 1409.12,-250 1409.12,-231 1467.12,-231 1467.12,-250"/>
<text text-anchor="middle" x="1438.12" y="-238" font-family="Helvetica,sans-Serif" font-size="10.00">memory</text>
</a>
</g>
</g>
<!-- Node1&#45;&gt;Node22 -->
<g id="edge40_Node000001_Node000022" class="edge">
<title>Node1&#45;&gt;Node22</title>
<g id="a_edge40_Node000001_Node000022"><a xlink:title=" ">
<path fill="none" stroke="#63b8ff" d="M917.75,-301.09C1021.71,-294.07 1220.56,-278.35 1398.65,-250.06"/>
<polygon fill="#63b8ff" stroke="#63b8ff" points="1399.41,-253.48 1408.73,-248.44 1398.3,-246.57 1399.41,-253.48"/>
</a>
</g>
</g>
<!-- Node3 -->
<g id="Node000003" class="node">
<title>Node3</title>
<g id="a_Node000003"><a xlink:href="../../d7/dd8/concepts_8hpp.html" target="_top" xlink:title="Declaration of concepts.">
<polygon fill="white" stroke="#666666" points="125.12,-129 13.12,-129 13.12,-110 125.12,-110 125.12,-129"/>
<text text-anchor="middle" x="69.12" y="-117" font-family="Helvetica,sans-Serif" font-size="10.00">qugar/concepts.hpp</text>
</a>
</g>
</g>
<!-- Node2&#45;&gt;Node3 -->
<g id="edge2_Node000002_Node000003" class="edge">
<title>Node2&#45;&gt;Node3</title>
<g id="a_edge2_Node000002_Node000003"><a xlink:title=" ">
<path fill="none" stroke="#63b8ff" d="M252.01,-170.49C214.52,-160.25 151.45,-143 110.05,-131.69"/>
<polygon fill="#63b8ff" stroke="#63b8ff" points="110.85,-128.28 100.28,-129.02 109,-135.03 110.85,-128.28"/>
</a>
</g>
</g>
<!-- Node4 -->
<g id="Node000004" class="node">
<title>Node4</title>
<g id="a_Node000004"><a xlink:href="../../d0/de4/point_8hpp.html" target="_top" xlink:title="Definition and implementation of Point class.">
<polygon fill="white" stroke="#666666" points="478.62,-129 385.62,-129 385.62,-110 478.62,-110 478.62,-129"/>
<text text-anchor="middle" x="432.12" y="-117" font-family="Helvetica,sans-Serif" font-size="10.00">qugar/point.hpp</text>
</a>
</g>
</g>
<!-- Node2&#45;&gt;Node4 -->
<g id="edge3_Node000002_Node000004" class="edge">
<title>Node2&#45;&gt;Node4</title>
<g id="a_edge3_Node000002_Node000004"><a xlink:title=" ">
<path fill="none" stroke="#63b8ff" d="M304.79,-170.49C330.06,-160.57 372.04,-144.09 400.84,-132.78"/>
<polygon fill="#63b8ff" stroke="#63b8ff" points="402.4,-135.93 410.43,-129.02 399.84,-129.41 402.4,-135.93"/>
</a>
</g>
</g>
<!-- Node2&#45;&gt;Node5 -->
<g id="edge10_Node000002_Node000005" class="edge">
<title>Node2&#45;&gt;Node5</title>
<g id="a_edge10_Node000002_Node000005"><a xlink:title=" ">
<path fill="none" stroke="#63b8ff" d="M292.61,-170.48C308.87,-156.25 343.55,-127.49 377.12,-110 404.79,-95.58 438.11,-84.34 464.23,-76.76"/>
<polygon fill="#63b8ff" stroke="#63b8ff" points="465.18,-80.13 473.85,-74.04 463.28,-73.39 465.18,-80.13"/>
</a>
</g>
</g>
<!-- Node6 -->
<g id="Node000006" class="node">
<title>Node6</title>
<g id="a_Node000006"><a xlink:title=" ">
<polygon fill="#e0e0e0" stroke="#999999" points="496.62,-19 443.62,-19 443.62,0 496.62,0 496.62,-19"/>
<text text-anchor="middle" x="470.12" y="-7" font-family="Helvetica,sans-Serif" font-size="10.00">cstddef</text>
</a>
</g>
</g>
<!-- Node2&#45;&gt;Node6 -->
<g id="edge13_Node000002_Node000006" class="edge">
<title>Node2&#45;&gt;Node6</title>
<g id="a_edge13_Node000002_Node000006"><a xlink:title=" ">
<path fill="none" stroke="#63b8ff" d="M237.1,-177.64C165.67,-174.45 33.29,-163.86 4.12,-129 -1.3,-122.52 -1.19,-116.57 4.12,-110 58.28,-43.06 332.48,-19.19 433.07,-12.61"/>
<polygon fill="#63b8ff" stroke="#63b8ff" points="433.59,-16.09 443.35,-11.96 433.15,-9.1 433.59,-16.09"/>
</a>
</g>
</g>
<!-- Node10 -->
<g id="Node000010" class="node">
<title>Node10</title>
<g id="a_Node000010"><a xlink:title=" ">
<polygon fill="#e0e0e0" stroke="#999999" points="291.12,-129 143.12,-129 143.12,-110 291.12,-110 291.12,-129"/>
<text text-anchor="middle" x="217.12" y="-117" font-family="Helvetica,sans-Serif" font-size="10.00">algoim/hyperrectangle.hpp</text>
</a>
</g>
</g>
<!-- Node2&#45;&gt;Node10 -->
<g id="edge11_Node000002_Node000010" class="edge">
<title>Node2&#45;&gt;Node10</title>
<g id="a_edge11_Node000002_Node000010"><a xlink:title=" ">
<path fill="none" stroke="#63b8ff" d="M273.38,-170.37C263.15,-161.3 246.84,-146.84 234.41,-135.82"/>
<polygon fill="#63b8ff" stroke="#63b8ff" points="236.71,-133.18 226.9,-129.17 232.06,-138.42 236.71,-133.18"/>
</a>
</g>
</g>
<!-- Node11 -->
<g id="Node000011" class="node">
<title>Node11</title>
<g id="a_Node000011"><a xlink:title=" ">
<polygon fill="#e0e0e0" stroke="#999999" points="783.12,-129 741.12,-129 741.12,-110 783.12,-110 783.12,-129"/>
<text text-anchor="middle" x="762.12" y="-117" font-family="Helvetica,sans-Serif" font-size="10.00">array</text>
</a>
</g>
</g>
<!-- Node2&#45;&gt;Node11 -->
<g id="edge12_Node000002_Node000011" class="edge">
<title>Node2&#45;&gt;Node11</title>
<g id="a_edge12_Node000002_Node000011"><a xlink:title=" ">
<path fill="none" stroke="#63b8ff" d="M329.49,-173.34C426.54,-161.48 648.9,-134.33 730.96,-124.31"/>
<polygon fill="#63b8ff" stroke="#63b8ff" points="731.41,-127.78 740.92,-123.09 730.56,-120.83 731.41,-127.78"/>
</a>
</g>
</g>
<!-- Node4&#45;&gt;Node5 -->
<g id="edge4_Node000004_Node000005" class="edge">
<title>Node4&#45;&gt;Node5</title>
<g id="a_edge4_Node000004_Node000005"><a xlink:title=" ">
<path fill="none" stroke="#63b8ff" d="M444.33,-109.98C455.9,-101.92 473.5,-89.65 487.28,-80.03"/>
<polygon fill="#63b8ff" stroke="#63b8ff" points="489.49,-82.76 495.69,-74.17 485.49,-77.02 489.49,-82.76"/>
</a>
</g>
</g>
<!-- Node4&#45;&gt;Node6 -->
<g id="edge8_Node000004_Node000006" class="edge">
<title>Node4&#45;&gt;Node6</title>
<g id="a_edge8_Node000004_Node000006"><a xlink:title=" ">
<path fill="none" stroke="#63b8ff" d="M434.63,-109.8C438.22,-97.5 445.17,-74.36 452.12,-55 455.26,-46.27 459.07,-36.73 462.37,-28.72"/>
<polygon fill="#63b8ff" stroke="#63b8ff" points="465.69,-29.86 466.33,-19.29 459.23,-27.15 465.69,-29.86"/>
</a>
</g>
</g>
<!-- Node7 -->
<g id="Node000007" class="node">
<title>Node7</title>
<g id="a_Node000007"><a xlink:href="../../da/d16/vector_8hpp.html" target="_top" xlink:title=" ">
<polygon fill="white" stroke="#666666" points="762.12,-74 664.12,-74 664.12,-55 762.12,-55 762.12,-74"/>
<text text-anchor="middle" x="713.12" y="-62" font-family="Helvetica,sans-Serif" font-size="10.00">qugar/vector.hpp</text>
</a>
</g>
</g>
<!-- Node4&#45;&gt;Node7 -->
<g id="edge6_Node000004_Node000007" class="edge">
<title>Node4&#45;&gt;Node7</title>
<g id="a_edge6_Node000004_Node000007"><a xlink:title=" ">
<path fill="none" stroke="#63b8ff" d="M477.27,-109.98C526.39,-100.72 604.94,-85.9 657.75,-75.94"/>
<polygon fill="#63b8ff" stroke="#63b8ff" points="658.44,-79.37 667.62,-74.08 657.15,-72.5 658.44,-79.37"/>
</a>
</g>
</g>
<!-- Node4&#45;&gt;Node9 -->
<g id="edge9_Node000004_Node000009" class="edge">
<title>Node4&#45;&gt;Node9</title>
<g id="a_edge9_Node000004_Node000009"><a xlink:title=" ">
<path fill="none" stroke="#63b8ff" d="M420.07,-109.98C408.66,-101.92 391.29,-89.65 377.69,-80.03"/>
<polygon fill="#63b8ff" stroke="#63b8ff" points="379.58,-77.08 369.39,-74.17 375.54,-82.8 379.58,-77.08"/>
</a>
</g>
</g>
<!-- Node5&#45;&gt;Node6 -->
<g id="edge5_Node000005_Node000006" class="edge">
<title>Node5&#45;&gt;Node6</title>
<g id="a_edge5_Node000005_Node000006"><a xlink:title=" ">
<path fill="none" stroke="#63b8ff" d="M501.85,-54.75C496.54,-47.34 488.77,-36.5 482.25,-27.41"/>
<polygon fill="#63b8ff" stroke="#63b8ff" points="484.95,-25.18 476.28,-19.09 479.26,-29.26 484.95,-25.18"/>
</a>
</g>
</g>
<!-- Node8 -->
<g id="Node000008" class="node">
<title>Node8</title>
<g id="a_Node000008"><a xlink:title=" ">
<polygon fill="#e0e0e0" stroke="#999999" points="768.12,-19 658.12,-19 658.12,0 768.12,0 768.12,-19"/>
<text text-anchor="middle" x="713.12" y="-7" font-family="Helvetica,sans-Serif" font-size="10.00">algoim/uvector.hpp</text>
</a>
</g>
</g>
<!-- Node7&#45;&gt;Node8 -->
<g id="edge7_Node000007_Node000008" class="edge">
<title>Node7&#45;&gt;Node8</title>
<g id="a_edge7_Node000007_Node000008"><a xlink:title=" ">
<path fill="none" stroke="#63b8ff" d="M713.12,-54.75C713.12,-47.8 713.12,-37.85 713.12,-29.13"/>
<polygon fill="#63b8ff" stroke="#63b8ff" points="716.62,-29.09 713.12,-19.09 709.62,-29.09 716.62,-29.09"/>
</a>
</g>
</g>
<!-- Node12&#45;&gt;Node4 -->
<g id="edge16_Node000012_Node000004" class="edge">
<title>Node12&#45;&gt;Node4</title>
<g id="a_edge16_Node000012_Node000004"><a xlink:title=" ">
<path fill="none" stroke="#63b8ff" d="M656.03,-170.49C609.55,-160.12 530.95,-142.57 480.31,-131.26"/>
<polygon fill="#63b8ff" stroke="#63b8ff" points="480.79,-127.78 470.27,-129.02 479.26,-134.61 480.79,-127.78"/>
</a>
</g>
</g>
<!-- Node12&#45;&gt;Node5 -->
<g id="edge15_Node000012_Node000005" class="edge">
<title>Node12&#45;&gt;Node5</title>
<g id="a_edge15_Node000012_Node000005"><a xlink:title=" ">
<path fill="none" stroke="#63b8ff" d="M691.74,-170.4C687.24,-155.8 676.12,-126.16 656.12,-110 630.55,-89.33 595.54,-78.25 566,-72.32"/>
<polygon fill="#63b8ff" stroke="#63b8ff" points="566.27,-68.81 555.8,-70.43 564.99,-75.69 566.27,-68.81"/>
</a>
</g>
</g>
<!-- Node12&#45;&gt;Node7 -->
<g id="edge17_Node000012_Node000007" class="edge">
<title>Node12&#45;&gt;Node7</title>
<g id="a_edge17_Node000012_Node000007"><a xlink:title=" ">
<path fill="none" stroke="#63b8ff" d="M695.55,-170.47C698.6,-152.23 705.83,-109.07 710,-84.14"/>
<polygon fill="#63b8ff" stroke="#63b8ff" points="713.48,-84.57 711.68,-74.13 706.58,-83.41 713.48,-84.57"/>
</a>
</g>
</g>
<!-- Node13 -->
<g id="Node000013" class="node">
<title>Node13</title>
<g id="a_Node000013"><a xlink:title=" ">
<polygon fill="#e0e0e0" stroke="#999999" points="647.12,-129 535.12,-129 535.12,-110 647.12,-110 647.12,-129"/>
<text text-anchor="middle" x="591.12" y="-117" font-family="Helvetica,sans-Serif" font-size="10.00">algoim/interval.hpp</text>
</a>
</g>
</g>
<!-- Node12&#45;&gt;Node13 -->
<g id="edge18_Node000012_Node000013" class="edge">
<title>Node12&#45;&gt;Node13</title>
<g id="a_edge18_Node000012_Node000013"><a xlink:title=" ">
<path fill="none" stroke="#63b8ff" d="M678.93,-170.37C662.11,-160.82 634.8,-145.31 615.1,-134.12"/>
<polygon fill="#63b8ff" stroke="#63b8ff" points="616.81,-131.06 606.38,-129.17 613.35,-137.15 616.81,-131.06"/>
</a>
</g>
</g>
<!-- Node14 -->
<g id="Node000014" class="node">
<title>Node14</title>
<g id="a_Node000014"><a xlink:title=" ">
<polygon fill="#e0e0e0" stroke="#999999" points="939.12,-129 889.12,-129 889.12,-110 939.12,-110 939.12,-129"/>
<text text-anchor="middle" x="914.12" y="-117" font-family="Helvetica,sans-Serif" font-size="10.00">cstdint</text>
</a>
</g>
</g>
<!-- Node12&#45;&gt;Node14 -->
<g id="edge19_Node000012_Node000014" class="edge">
<title>Node12&#45;&gt;Node14</title>
<g id="a_edge19_Node000012_Node000014"><a xlink:title=" ">
<path fill="none" stroke="#63b8ff" d="M726.11,-170.49C766.85,-159.66 836.99,-141.01 879.12,-129.81"/>
<polygon fill="#63b8ff" stroke="#63b8ff" points="880.17,-133.15 888.94,-127.2 878.37,-126.39 880.17,-133.15"/>
</a>
</g>
</g>
<!-- Node15 -->
<g id="Node000015" class="node">
<title>Node15</title>
<g id="a_Node000015"><a xlink:title=" ">
<polygon fill="#e0e0e0" stroke="#999999" points="870.62,-129 801.62,-129 801.62,-110 870.62,-110 870.62,-129"/>
<text text-anchor="middle" x="836.12" y="-117" font-family="Helvetica,sans-Serif" font-size="10.00">type_traits</text>
</a>
</g>
</g>
<!-- Node12&#45;&gt;Node15 -->
<g id="edge20_Node000012_Node000015" class="edge">
<title>Node12&#45;&gt;Node15</title>
<g id="a_edge20_Node000012_Node000015"><a xlink:title=" ">
<path fill="none" stroke="#63b8ff" d="M714.77,-170.49C738.75,-160.62 778.51,-144.23 805.95,-132.93"/>
<polygon fill="#63b8ff" stroke="#63b8ff" points="807.54,-136.06 815.45,-129.02 804.87,-129.59 807.54,-136.06"/>
</a>
</g>
</g>
<!-- Node16&#45;&gt;Node2 -->
<g id="edge22_Node000016_Node000002" class="edge">
<title>Node16&#45;&gt;Node2</title>
<g id="a_edge22_Node000016_Node000002"><a xlink:title=" ">
<path fill="none" stroke="#63b8ff" d="M541.87,-230.96C490.75,-222.56 411.46,-208.99 343.12,-195 338.33,-194.02 333.34,-192.94 328.37,-191.83"/>
<polygon fill="#63b8ff" stroke="#63b8ff" points="328.8,-188.34 318.27,-189.54 327.25,-195.17 328.8,-188.34"/>
</a>
</g>
</g>
<!-- Node16&#45;&gt;Node4 -->
<g id="edge24_Node000016_Node000004" class="edge">
<title>Node16&#45;&gt;Node4</title>
<g id="a_edge24_Node000016_Node000004"><a xlink:title=" ">
<path fill="none" stroke="#63b8ff" d="M565.92,-230.89C544.4,-223.61 515.15,-211.68 493.12,-195 472.18,-179.14 453.96,-154.68 443.01,-138.15"/>
<polygon fill="#63b8ff" stroke="#63b8ff" points="445.79,-135.99 437.45,-129.46 439.9,-139.77 445.79,-135.99"/>
</a>
</g>
</g>
<!-- Node16&#45;&gt;Node5 -->
<g id="edge34_Node000016_Node000005" class="edge">
<title>Node16&#45;&gt;Node5</title>
<g id="a_edge34_Node000016_Node000005"><a xlink:title=" ">
<path fill="none" stroke="#63b8ff" d="M588.49,-230.81C574.99,-212.77 544.09,-169.53 526.12,-129 519.73,-114.58 515.01,-97.3 512.01,-84.41"/>
<polygon fill="#63b8ff" stroke="#63b8ff" points="515.37,-83.42 509.82,-74.4 508.54,-84.92 515.37,-83.42"/>
</a>
</g>
</g>
<!-- Node16&#45;&gt;Node9 -->
<g id="edge36_Node000016_Node000009" class="edge">
<title>Node16&#45;&gt;Node9</title>
<g id="a_edge36_Node000016_Node000009"><a xlink:title=" ">
<path fill="none" stroke="#63b8ff" d="M556.98,-230.97C528.86,-223.75 490.24,-211.88 459.12,-195 418,-172.7 403.5,-167.64 377.12,-129 367.96,-115.58 362.83,-97.74 360.06,-84.39"/>
<polygon fill="#63b8ff" stroke="#63b8ff" points="363.49,-83.64 358.26,-74.42 356.6,-84.89 363.49,-83.64"/>
</a>
</g>
</g>
<!-- Node16&#45;&gt;Node12 -->
<g id="edge23_Node000016_Node000012" class="edge">
<title>Node16&#45;&gt;Node12</title>
<g id="a_edge23_Node000016_Node000012"><a xlink:title=" ">
<path fill="none" stroke="#63b8ff" d="M609.73,-230.87C625.82,-221.36 651.9,-205.95 670.82,-194.77"/>
<polygon fill="#63b8ff" stroke="#63b8ff" points="672.63,-197.77 679.46,-189.67 669.07,-191.74 672.63,-197.77"/>
</a>
</g>
</g>
<!-- Node16&#45;&gt;Node17 -->
<g id="edge25_Node000016_Node000017" class="edge">
<title>Node16&#45;&gt;Node17</title>
<g id="a_edge25_Node000016_Node000017"><a xlink:title=" ">
<path fill="none" stroke="#63b8ff" d="M650.63,-230.96C706.6,-222.27 795.45,-208.22 872.12,-195 875.71,-194.38 879.38,-193.74 883.09,-193.08"/>
<polygon fill="#63b8ff" stroke="#63b8ff" points="883.72,-196.53 892.94,-191.32 882.48,-189.63 883.72,-196.53"/>
</a>
</g>
</g>
<!-- Node19 -->
<g id="Node000019" class="node">
<title>Node19</title>
<g id="a_Node000019"><a xlink:title=" ">
<polygon fill="#e0e0e0" stroke="#999999" points="1009.12,-129 957.12,-129 957.12,-110 1009.12,-110 1009.12,-129"/>
<text text-anchor="middle" x="983.12" y="-117" font-family="Helvetica,sans-Serif" font-size="10.00">cassert</text>
</a>
</g>
</g>
<!-- Node16&#45;&gt;Node19 -->
<g id="edge35_Node000016_Node000019" class="edge">
<title>Node16&#45;&gt;Node19</title>
<g id="a_edge35_Node000016_Node000019"><a xlink:title=" ">
<path fill="none" stroke="#63b8ff" d="M635.81,-230.95C673.12,-222.8 729.77,-209.62 778.12,-195 840.95,-176.01 912.66,-148.59 952.44,-132.85"/>
<polygon fill="#63b8ff" stroke="#63b8ff" points="953.84,-136.06 961.84,-129.12 951.25,-129.56 953.84,-136.06"/>
</a>
</g>
</g>
<!-- Node17&#45;&gt;Node6 -->
<g id="edge30_Node000017_Node000006" class="edge">
<title>Node17&#45;&gt;Node6</title>
<g id="a_edge30_Node000017_Node000006"><a xlink:title=" ">
<path fill="none" stroke="#63b8ff" d="M989.16,-164.89C1019.37,-152.28 1052.29,-132.36 1034.12,-110 1000.5,-68.61 627.17,-26.72 507.09,-14.23"/>
<polygon fill="#63b8ff" stroke="#63b8ff" points="507.23,-10.73 496.92,-13.18 506.51,-17.69 507.23,-10.73"/>
</a>
</g>
</g>
<!-- Node17&#45;&gt;Node7 -->
<g id="edge27_Node000017_Node000007" class="edge">
<title>Node17&#45;&gt;Node7</title>
<g id="a_edge27_Node000017_Node000007"><a xlink:title=" ">
<path fill="none" stroke="#63b8ff" d="M979.79,-164.86C1005.73,-151.35 1035.53,-130.14 1018.12,-110 987.05,-74.07 852.4,-66.57 772.77,-65.35"/>
<polygon fill="#63b8ff" stroke="#63b8ff" points="772.43,-61.85 762.39,-65.22 772.35,-68.85 772.43,-61.85"/>
</a>
</g>
</g>
<!-- Node17&#45;&gt;Node11 -->
<g id="edge28_Node000017_Node000011" class="edge">
<title>Node17&#45;&gt;Node11</title>
<g id="a_edge28_Node000017_Node000011"><a xlink:title=" ">
<path fill="none" stroke="#63b8ff" d="M903.57,-164.99C869.39,-154.24 823.09,-139.68 792.92,-130.19"/>
<polygon fill="#63b8ff" stroke="#63b8ff" points="793.94,-126.84 783.35,-127.18 791.84,-133.52 793.94,-126.84"/>
</a>
</g>
</g>
<!-- Node17&#45;&gt;Node14 -->
<g id="edge31_Node000017_Node000014" class="edge">
<title>Node17&#45;&gt;Node14</title>
<g id="a_edge31_Node000017_Node000014"><a xlink:title=" ">
<path fill="none" stroke="#63b8ff" d="M939.89,-164.84C935.21,-156.78 929.3,-146.62 924.33,-138.06"/>
<polygon fill="#63b8ff" stroke="#63b8ff" points="927.27,-136.15 919.22,-129.27 921.22,-139.67 927.27,-136.15"/>
</a>
</g>
</g>
<!-- Node17&#45;&gt;Node15 -->
<g id="edge33_Node000017_Node000015" class="edge">
<title>Node17&#45;&gt;Node15</title>
<g id="a_edge33_Node000017_Node000015"><a xlink:title=" ">
<path fill="none" stroke="#63b8ff" d="M921.3,-164.99C903.28,-155.58 879.67,-143.24 861.88,-133.95"/>
<polygon fill="#63b8ff" stroke="#63b8ff" points="863.15,-130.67 852.66,-129.14 859.91,-136.87 863.15,-130.67"/>
</a>
</g>
</g>
<!-- Node18 -->
<g id="Node000018" class="node">
<title>Node18</title>
<g id="a_Node000018"><a xlink:title=" ">
<polygon fill="#e0e0e0" stroke="#999999" points="1147.12,-129 1103.12,-129 1103.12,-110 1147.12,-110 1147.12,-129"/>
<text text-anchor="middle" x="1125.12" y="-117" font-family="Helvetica,sans-Serif" font-size="10.00">limits</text>
</a>
</g>
</g>
<!-- Node17&#45;&gt;Node18 -->
<g id="edge26_Node000017_Node000018" class="edge">
<title>Node17&#45;&gt;Node18</title>
<g id="a_edge26_Node000017_Node000018"><a xlink:title=" ">
<path fill="none" stroke="#63b8ff" d="M990.52,-164.99C1022.17,-154.53 1064.75,-140.46 1093.47,-130.96"/>
<polygon fill="#63b8ff" stroke="#63b8ff" points="1094.61,-134.27 1103.01,-127.81 1092.42,-127.62 1094.61,-134.27"/>
</a>
</g>
</g>
<!-- Node17&#45;&gt;Node19 -->
<g id="edge29_Node000017_Node000019" class="edge">
<title>Node17&#45;&gt;Node19</title>
<g id="a_edge29_Node000017_Node000019"><a xlink:title=" ">
<path fill="none" stroke="#63b8ff" d="M956.6,-164.84C961.42,-156.78 967.5,-146.62 972.62,-138.06"/>
<polygon fill="#63b8ff" stroke="#63b8ff" points="975.75,-139.64 977.88,-129.27 969.74,-136.05 975.75,-139.64"/>
</a>
</g>
</g>
<!-- Node20 -->
<g id="Node000020" class="node">
<title>Node20</title>
<g id="a_Node000020"><a xlink:title=" ">
<polygon fill="#e0e0e0" stroke="#999999" points="1230.62,-129 1165.62,-129 1165.62,-110 1230.62,-110 1230.62,-129"/>
<text text-anchor="middle" x="1198.12" y="-117" font-family="Helvetica,sans-Serif" font-size="10.00">functional</text>
</a>
</g>
</g>
<!-- Node17&#45;&gt;Node20 -->
<g id="edge32_Node000017_Node000020" class="edge">
<title>Node17&#45;&gt;Node20</title>
<g id="a_edge32_Node000017_Node000020"><a xlink:title=" ">
<path fill="none" stroke="#63b8ff" d="M1003.3,-166.09C1049.13,-155.37 1113.39,-140.33 1155.39,-130.5"/>
<polygon fill="#63b8ff" stroke="#63b8ff" points="1156.36,-133.87 1165.3,-128.18 1154.76,-127.05 1156.36,-133.87"/>
</a>
</g>
</g>
</g>
</svg>
