<?xml version="1.0" encoding="UTF-8" standalone="no"?>
<!DOCTYPE svg PUBLIC "-//W3C//DTD SVG 1.1//EN"
 "http://www.w3.org/Graphics/SVG/1.1/DTD/svg11.dtd">
<!-- Generated by graphviz version 2.43.0 (0)
 -->
<!-- Title: /__w/qugar/qugar/cpp/include/qugar/reparam_mesh.hpp Pages: 1 -->
<svg width="1729pt" height="456pt"
 viewBox="0.00 0.00 1729.00 456.00" xmlns="http://www.w3.org/2000/svg" xmlns:xlink="http://www.w3.org/1999/xlink">
<g id="graph0" class="graph" transform="scale(1 1) rotate(0) translate(4 452)">
<title>/__w/qugar/qugar/cpp/include/qugar/reparam_mesh.hpp</title>
<!-- Node1 -->
<g id="Node000001" class="node">
<title>Node1</title>
<g id="a_Node000001"><a xlink:title="Declaration of reparameterization class.">
<polygon fill="#999999" stroke="#666666" points="947,-448 817,-448 817,-407 947,-407 947,-448"/>
<text text-anchor="start" x="825" y="-436" font-family="Helvetica,sans-Serif" font-size="10.00">/__w/qugar/qugar/cpp</text>
<text text-anchor="start" x="825" y="-425" font-family="Helvetica,sans-Serif" font-size="10.00">/include/qugar/reparam</text>
<text text-anchor="middle" x="882" y="-414" font-family="Helvetica,sans-Serif" font-size="10.00">_mesh.hpp</text>
</a>
</g>
</g>
<!-- Node2 -->
<g id="Node000002" class="node">
<title>Node2</title>
<g id="a_Node000002"><a xlink:href="../../d5/d90/bbox_8hpp.html" target="_top" xlink:title="Definition of Cartesian bounding box class.">
<polygon fill="white" stroke="#666666" points="355,-189.5 263,-189.5 263,-170.5 355,-170.5 355,-189.5"/>
<text text-anchor="middle" x="309" y="-177.5" font-family="Helvetica,sans-Serif" font-size="10.00">qugar/bbox.hpp</text>
</a>
</g>
</g>
<!-- Node1&#45;&gt;Node2 -->
<g id="edge1_Node000001_Node000002" class="edge">
<title>Node1&#45;&gt;Node2</title>
<g id="a_edge1_Node000001_Node000002"><a xlink:title=" ">
<path fill="none" stroke="#63b8ff" d="M816.76,-423.39C686.35,-416.62 403,-398.85 369,-371 316.38,-327.89 309.2,-238.89 308.69,-199.95"/>
<polygon fill="#63b8ff" stroke="#63b8ff" points="312.19,-199.58 308.71,-189.57 305.19,-199.57 312.19,-199.58"/>
</a>
</g>
</g>
<!-- Node4 -->
<g id="Node000004" class="node">
<title>Node4</title>
<g id="a_Node000004"><a xlink:href="../../d0/de4/point_8hpp.html" target="_top" xlink:title="Definition and implementation of Point class.">
<polygon fill="white" stroke="#666666" points="465.5,-129 372.5,-129 372.5,-110 465.5,-110 465.5,-129"/>
<text text-anchor="middle" x="419" y="-117" font-family="Helvetica,sans-Serif" font-size="10.00">qugar/point.hpp</text>
</a>
</g>
</g>
<!-- Node1&#45;&gt;Node4 -->
<g id="edge38_Node000001_Node000004" class="edge">
<title>Node1&#45;&gt;Node4</title>
<g id="a_edge38_Node000001_Node000004"><a xlink:title=" ">
<path fill="none" stroke="#63b8ff" d="M816.76,-423.84C681.5,-416.53 383,-390.39 383,-302 383,-302 383,-302 383,-239.5 383,-202.25 399.36,-161.15 410.02,-138.31"/>
<polygon fill="#63b8ff" stroke="#63b8ff" points="413.23,-139.71 414.44,-129.18 406.93,-136.66 413.23,-139.71"/>
</a>
</g>
</g>
<!-- Node6 -->
<g id="Node000006" class="node">
<title>Node6</title>
<g id="a_Node000006"><a xlink:title=" ">
<polygon fill="#e0e0e0" stroke="#999999" points="958.5,-19 905.5,-19 905.5,0 958.5,0 958.5,-19"/>
<text text-anchor="middle" x="932" y="-7" font-family="Helvetica,sans-Serif" font-size="10.00">cstddef</text>
</a>
</g>
</g>
<!-- Node1&#45;&gt;Node6 -->
<g id="edge59_Node000001_Node000006" class="edge">
<title>Node1&#45;&gt;Node6</title>
<g id="a_edge59_Node000001_Node000006"><a xlink:title=" ">
<path fill="none" stroke="#63b8ff" d="M947.11,-421.89C1122.39,-408.61 1591,-367.03 1591,-302 1591,-302 1591,-302 1591,-118.5 1591,-54.94 1107.46,-21.03 968.77,-12.6"/>
<polygon fill="#63b8ff" stroke="#63b8ff" points="968.84,-9.1 958.65,-12 968.42,-16.09 968.84,-9.1"/>
</a>
</g>
</g>
<!-- Node9 -->
<g id="Node000009" class="node">
<title>Node9</title>
<g id="a_Node000009"><a xlink:title=" ">
<polygon fill="#e0e0e0" stroke="#999999" points="736.5,-74 689.5,-74 689.5,-55 736.5,-55 736.5,-74"/>
<text text-anchor="middle" x="713" y="-62" font-family="Helvetica,sans-Serif" font-size="10.00">vector</text>
</a>
</g>
</g>
<!-- Node1&#45;&gt;Node9 -->
<g id="edge63_Node000001_Node000009" class="edge">
<title>Node1&#45;&gt;Node9</title>
<g id="a_edge63_Node000001_Node000009"><a xlink:title=" ">
<path fill="none" stroke="#63b8ff" d="M816.69,-426.07C730.9,-421.67 591,-399.54 591,-302 591,-302 591,-302 591,-239.5 591,-169.44 658.14,-107.57 692.8,-80.3"/>
<polygon fill="#63b8ff" stroke="#63b8ff" points="695.05,-82.98 700.86,-74.12 690.79,-77.43 695.05,-82.98"/>
</a>
</g>
</g>
<!-- Node12 -->
<g id="Node000012" class="node">
<title>Node12</title>
<g id="a_Node000012"><a xlink:href="../../d6/d49/cart__grid__tp_8hpp.html" target="_top" xlink:title="Definition of Cartesian grid class.">
<polygon fill="white" stroke="#666666" points="768,-250 642,-250 642,-231 768,-231 768,-250"/>
<text text-anchor="middle" x="705" y="-238" font-family="Helvetica,sans-Serif" font-size="10.00">qugar/cart_grid_tp.hpp</text>
</a>
</g>
</g>
<!-- Node1&#45;&gt;Node12 -->
<g id="edge14_Node000001_Node000012" class="edge">
<title>Node1&#45;&gt;Node12</title>
<g id="a_edge14_Node000001_Node000012"><a xlink:title=" ">
<path fill="none" stroke="#63b8ff" d="M822.04,-406.95C780.76,-389.99 729.02,-360.98 704,-316 694.59,-299.08 696.52,-276.48 699.76,-260.62"/>
<polygon fill="#63b8ff" stroke="#63b8ff" points="703.27,-260.99 702.19,-250.45 696.46,-259.36 703.27,-260.99"/>
</a>
</g>
</g>
<!-- Node19 -->
<g id="Node000019" class="node">
<title>Node19</title>
<g id="a_Node000019"><a xlink:href="../../d0/d55/tolerance_8hpp.html" target="_top" xlink:title="Definition of tolerance related functionalities.">
<polygon fill="white" stroke="#666666" points="563,-189.5 449,-189.5 449,-170.5 563,-170.5 563,-189.5"/>
<text text-anchor="middle" x="506" y="-177.5" font-family="Helvetica,sans-Serif" font-size="10.00">qugar/tolerance.hpp</text>
</a>
</g>
</g>
<!-- Node1&#45;&gt;Node19 -->
<g id="edge39_Node000001_Node000019" class="edge">
<title>Node1&#45;&gt;Node19</title>
<g id="a_edge39_Node000001_Node000019"><a xlink:title=" ">
<path fill="none" stroke="#63b8ff" d="M816.85,-422.12C738.35,-415.59 612.55,-400.74 577,-371 524.13,-326.77 510.6,-239.09 507.16,-200.27"/>
<polygon fill="#63b8ff" stroke="#63b8ff" points="510.62,-199.6 506.39,-189.89 503.64,-200.13 510.62,-199.6"/>
</a>
</g>
</g>
<!-- Node21 -->
<g id="Node000021" class="node">
<title>Node21</title>
<g id="a_Node000021"><a xlink:title=" ">
<polygon fill="#e0e0e0" stroke="#999999" points="1411,-189.5 1353,-189.5 1353,-170.5 1411,-170.5 1411,-189.5"/>
<text text-anchor="middle" x="1382" y="-177.5" font-family="Helvetica,sans-Serif" font-size="10.00">memory</text>
</a>
</g>
</g>
<!-- Node1&#45;&gt;Node21 -->
<g id="edge60_Node000001_Node000021" class="edge">
<title>Node1&#45;&gt;Node21</title>
<g id="a_edge60_Node000001_Node000021"><a xlink:title=" ">
<path fill="none" stroke="#63b8ff" d="M947.35,-424.5C1038.98,-418.7 1207.25,-396.88 1322,-316 1353.68,-293.67 1364.7,-286.02 1379,-250 1385.35,-234 1385.52,-214.23 1384.45,-199.97"/>
<polygon fill="#63b8ff" stroke="#63b8ff" points="1387.91,-199.47 1383.41,-189.88 1380.95,-200.18 1387.91,-199.47"/>
</a>
</g>
</g>
<!-- Node23 -->
<g id="Node000023" class="node">
<title>Node23</title>
<g id="a_Node000023"><a xlink:href="../../d2/dfd/unfitted__domain_8hpp.html" target="_top" xlink:title="Declaration of of UnfittedDomain class.">
<polygon fill="white" stroke="#666666" points="1171,-371 1023,-371 1023,-352 1171,-352 1171,-371"/>
<text text-anchor="middle" x="1097" y="-359" font-family="Helvetica,sans-Serif" font-size="10.00">qugar/unfitted_domain.hpp</text>
</a>
</g>
</g>
<!-- Node1&#45;&gt;Node23 -->
<g id="edge40_Node000001_Node000023" class="edge">
<title>Node1&#45;&gt;Node23</title>
<g id="a_edge40_Node000001_Node000023"><a xlink:title=" ">
<path fill="none" stroke="#63b8ff" d="M947.09,-407.12C983.4,-396.32 1027.4,-383.22 1058.31,-374.02"/>
<polygon fill="#63b8ff" stroke="#63b8ff" points="1059.67,-377.26 1068.26,-371.06 1057.67,-370.55 1059.67,-377.26"/>
</a>
</g>
</g>
<!-- Node26 -->
<g id="Node000026" class="node">
<title>Node26</title>
<g id="a_Node000026"><a xlink:title=" ">
<polygon fill="#e0e0e0" stroke="#999999" points="1659,-371 1619,-371 1619,-352 1659,-352 1659,-371"/>
<text text-anchor="middle" x="1639" y="-359" font-family="Helvetica,sans-Serif" font-size="10.00">span</text>
</a>
</g>
</g>
<!-- Node1&#45;&gt;Node26 -->
<g id="edge61_Node000001_Node000026" class="edge">
<title>Node1&#45;&gt;Node26</title>
<g id="a_edge61_Node000001_Node000026"><a xlink:title=" ">
<path fill="none" stroke="#63b8ff" d="M947.24,-425.16C1074.52,-421.75 1364.54,-410 1605,-371 1606.28,-370.79 1607.59,-370.56 1608.91,-370.31"/>
<polygon fill="#63b8ff" stroke="#63b8ff" points="1609.96,-373.66 1618.98,-368.1 1608.46,-366.82 1609.96,-373.66"/>
</a>
</g>
</g>
<!-- Node27 -->
<g id="Node000027" class="node">
<title>Node27</title>
<g id="a_Node000027"><a xlink:title=" ">
<polygon fill="#e0e0e0" stroke="#999999" points="1721,-371 1677,-371 1677,-352 1721,-352 1721,-371"/>
<text text-anchor="middle" x="1699" y="-359" font-family="Helvetica,sans-Serif" font-size="10.00">string</text>
</a>
</g>
</g>
<!-- Node1&#45;&gt;Node27 -->
<g id="edge62_Node000001_Node000027" class="edge">
<title>Node1&#45;&gt;Node27</title>
<g id="a_edge62_Node000001_Node000027"><a xlink:title=" ">
<path fill="none" stroke="#63b8ff" d="M947.22,-426.22C1080.9,-424.72 1395.56,-416.38 1666.73,-370.86"/>
<polygon fill="#63b8ff" stroke="#63b8ff" points="1667.49,-374.29 1676.77,-369.16 1666.32,-367.38 1667.49,-374.29"/>
</a>
</g>
</g>
<!-- Node3 -->
<g id="Node000003" class="node">
<title>Node3</title>
<g id="a_Node000003"><a xlink:href="../../d7/dd8/concepts_8hpp.html" target="_top" xlink:title="Declaration of concepts.">
<polygon fill="white" stroke="#666666" points="112,-129 0,-129 0,-110 112,-110 112,-129"/>
<text text-anchor="middle" x="56" y="-117" font-family="Helvetica,sans-Serif" font-size="10.00">qugar/concepts.hpp</text>
</a>
</g>
</g>
<!-- Node2&#45;&gt;Node3 -->
<g id="edge2_Node000002_Node000003" class="edge">
<title>Node2&#45;&gt;Node3</title>
<g id="a_edge2_Node000002_Node000003"><a xlink:title=" ">
<path fill="none" stroke="#63b8ff" d="M272.21,-170.49C227.43,-160.14 151.74,-142.64 102.84,-131.33"/>
<polygon fill="#63b8ff" stroke="#63b8ff" points="103.36,-127.86 92.83,-129.02 101.79,-134.68 103.36,-127.86"/>
</a>
</g>
</g>
<!-- Node2&#45;&gt;Node4 -->
<g id="edge3_Node000002_Node000004" class="edge">
<title>Node2&#45;&gt;Node4</title>
<g id="a_edge3_Node000002_Node000004"><a xlink:title=" ">
<path fill="none" stroke="#63b8ff" d="M325.23,-170.37C343.27,-160.78 372.62,-145.17 393.68,-133.97"/>
<polygon fill="#63b8ff" stroke="#63b8ff" points="395.52,-136.95 402.7,-129.17 392.23,-130.77 395.52,-136.95"/>
</a>
</g>
</g>
<!-- Node5 -->
<g id="Node000005" class="node">
<title>Node5</title>
<g id="a_Node000005"><a xlink:href="../../dd/de3/types_8hpp.html" target="_top" xlink:title="Declaration of types.">
<polygon fill="white" stroke="#666666" points="554.5,-74 459.5,-74 459.5,-55 554.5,-55 554.5,-74"/>
<text text-anchor="middle" x="507" y="-62" font-family="Helvetica,sans-Serif" font-size="10.00">qugar/types.hpp</text>
</a>
</g>
</g>
<!-- Node2&#45;&gt;Node5 -->
<g id="edge10_Node000002_Node000005" class="edge">
<title>Node2&#45;&gt;Node5</title>
<g id="a_edge10_Node000002_Node000005"><a xlink:title=" ">
<path fill="none" stroke="#63b8ff" d="M313.55,-170.42C321.71,-155.85 340.23,-126.26 364,-110 389.42,-92.62 421.94,-81.79 449.53,-75.18"/>
<polygon fill="#63b8ff" stroke="#63b8ff" points="450.48,-78.55 459.46,-72.93 448.93,-71.73 450.48,-78.55"/>
</a>
</g>
</g>
<!-- Node2&#45;&gt;Node6 -->
<g id="edge13_Node000002_Node000006" class="edge">
<title>Node2&#45;&gt;Node6</title>
<g id="a_edge13_Node000002_Node000006"><a xlink:title=" ">
<path fill="none" stroke="#63b8ff" d="M311.21,-170.47C315.19,-156.47 324.7,-128.37 341,-110 371.86,-75.22 385.88,-69.67 430,-55 516.42,-26.27 794.22,-14.84 895.02,-11.57"/>
<polygon fill="#63b8ff" stroke="#63b8ff" points="895.43,-15.06 905.32,-11.25 895.21,-8.06 895.43,-15.06"/>
</a>
</g>
</g>
<!-- Node10 -->
<g id="Node000010" class="node">
<title>Node10</title>
<g id="a_Node000010"><a xlink:title=" ">
<polygon fill="#e0e0e0" stroke="#999999" points="278,-129 130,-129 130,-110 278,-110 278,-129"/>
<text text-anchor="middle" x="204" y="-117" font-family="Helvetica,sans-Serif" font-size="10.00">algoim/hyperrectangle.hpp</text>
</a>
</g>
</g>
<!-- Node2&#45;&gt;Node10 -->
<g id="edge11_Node000002_Node000010" class="edge">
<title>Node2&#45;&gt;Node10</title>
<g id="a_edge11_Node000002_Node000010"><a xlink:title=" ">
<path fill="none" stroke="#63b8ff" d="M293.51,-170.37C276.37,-160.82 248.53,-145.31 228.44,-134.12"/>
<polygon fill="#63b8ff" stroke="#63b8ff" points="230,-130.98 219.56,-129.17 226.59,-137.09 230,-130.98"/>
</a>
</g>
</g>
<!-- Node11 -->
<g id="Node000011" class="node">
<title>Node11</title>
<g id="a_Node000011"><a xlink:title=" ">
<polygon fill="#e0e0e0" stroke="#999999" points="859,-129 817,-129 817,-110 859,-110 859,-129"/>
<text text-anchor="middle" x="838" y="-117" font-family="Helvetica,sans-Serif" font-size="10.00">array</text>
</a>
</g>
</g>
<!-- Node2&#45;&gt;Node11 -->
<g id="edge12_Node000002_Node000011" class="edge">
<title>Node2&#45;&gt;Node11</title>
<g id="a_edge12_Node000002_Node000011"><a xlink:title=" ">
<path fill="none" stroke="#63b8ff" d="M355.02,-173.91C460.46,-162.25 717.29,-133.85 806.7,-123.96"/>
<polygon fill="#63b8ff" stroke="#63b8ff" points="807.19,-127.43 816.75,-122.85 806.42,-120.47 807.19,-127.43"/>
</a>
</g>
</g>
<!-- Node4&#45;&gt;Node5 -->
<g id="edge4_Node000004_Node000005" class="edge">
<title>Node4&#45;&gt;Node5</title>
<g id="a_edge4_Node000004_Node000005"><a xlink:title=" ">
<path fill="none" stroke="#63b8ff" d="M433.14,-109.98C446.79,-101.77 467.69,-89.18 483.78,-79.49"/>
<polygon fill="#63b8ff" stroke="#63b8ff" points="485.84,-82.33 492.6,-74.17 482.23,-76.33 485.84,-82.33"/>
</a>
</g>
</g>
<!-- Node4&#45;&gt;Node6 -->
<g id="edge8_Node000004_Node000006" class="edge">
<title>Node4&#45;&gt;Node6</title>
<g id="a_edge8_Node000004_Node000006"><a xlink:title=" ">
<path fill="none" stroke="#63b8ff" d="M420.61,-109.75C423.73,-95.59 432.02,-67.93 451,-55 487.43,-30.17 788.54,-16.11 894.94,-11.88"/>
<polygon fill="#63b8ff" stroke="#63b8ff" points="895.34,-15.36 905.19,-11.47 895.06,-8.37 895.34,-15.36"/>
</a>
</g>
</g>
<!-- Node7 -->
<g id="Node000007" class="node">
<title>Node7</title>
<g id="a_Node000007"><a xlink:href="../../da/d16/vector_8hpp.html" target="_top" xlink:title=" ">
<polygon fill="white" stroke="#666666" points="671,-74 573,-74 573,-55 671,-55 671,-74"/>
<text text-anchor="middle" x="622" y="-62" font-family="Helvetica,sans-Serif" font-size="10.00">qugar/vector.hpp</text>
</a>
</g>
</g>
<!-- Node4&#45;&gt;Node7 -->
<g id="edge6_Node000004_Node000007" class="edge">
<title>Node4&#45;&gt;Node7</title>
<g id="a_edge6_Node000004_Node000007"><a xlink:title=" ">
<path fill="none" stroke="#63b8ff" d="M451.62,-109.98C486.29,-100.93 541.26,-86.58 579.35,-76.64"/>
<polygon fill="#63b8ff" stroke="#63b8ff" points="580.34,-79.99 589.13,-74.08 578.57,-73.22 580.34,-79.99"/>
</a>
</g>
</g>
<!-- Node4&#45;&gt;Node9 -->
<g id="edge9_Node000004_Node000009" class="edge">
<title>Node4&#45;&gt;Node9</title>
<g id="a_edge9_Node000004_Node000009"><a xlink:title=" ">
<path fill="none" stroke="#63b8ff" d="M465.51,-111.05C525.15,-101.42 626.27,-84.81 679.32,-73.96"/>
<polygon fill="#63b8ff" stroke="#63b8ff" points="680.2,-77.35 689.26,-71.87 678.76,-70.5 680.2,-77.35"/>
</a>
</g>
</g>
<!-- Node5&#45;&gt;Node6 -->
<g id="edge5_Node000005_Node000006" class="edge">
<title>Node5&#45;&gt;Node6</title>
<g id="a_edge5_Node000005_Node000006"><a xlink:title=" ">
<path fill="none" stroke="#63b8ff" d="M554.57,-56.31C557.76,-55.85 560.93,-55.41 564,-55 685.07,-38.66 828.95,-22.08 895.23,-14.6"/>
<polygon fill="#63b8ff" stroke="#63b8ff" points="895.64,-18.08 905.19,-13.48 894.86,-11.12 895.64,-18.08"/>
</a>
</g>
</g>
<!-- Node8 -->
<g id="Node000008" class="node">
<title>Node8</title>
<g id="a_Node000008"><a xlink:title=" ">
<polygon fill="#e0e0e0" stroke="#999999" points="677,-19 567,-19 567,0 677,0 677,-19"/>
<text text-anchor="middle" x="622" y="-7" font-family="Helvetica,sans-Serif" font-size="10.00">algoim/uvector.hpp</text>
</a>
</g>
</g>
<!-- Node7&#45;&gt;Node8 -->
<g id="edge7_Node000007_Node000008" class="edge">
<title>Node7&#45;&gt;Node8</title>
<g id="a_edge7_Node000007_Node000008"><a xlink:title=" ">
<path fill="none" stroke="#63b8ff" d="M622,-54.75C622,-47.8 622,-37.85 622,-29.13"/>
<polygon fill="#63b8ff" stroke="#63b8ff" points="625.5,-29.09 622,-19.09 618.5,-29.09 625.5,-29.09"/>
</a>
</g>
</g>
<!-- Node12&#45;&gt;Node2 -->
<g id="edge15_Node000012_Node000002" class="edge">
<title>Node12&#45;&gt;Node2</title>
<g id="a_edge15_Node000012_Node000002"><a xlink:title=" ">
<path fill="none" stroke="#63b8ff" d="M647.42,-230.99C571.92,-219.84 440.31,-200.4 365.4,-189.33"/>
<polygon fill="#63b8ff" stroke="#63b8ff" points="365.63,-185.83 355.22,-187.83 364.6,-192.75 365.63,-185.83"/>
</a>
</g>
</g>
<!-- Node12&#45;&gt;Node4 -->
<g id="edge16_Node000012_Node000004" class="edge">
<title>Node12&#45;&gt;Node4</title>
<g id="a_edge16_Node000012_Node000004"><a xlink:title=" ">
<path fill="none" stroke="#63b8ff" d="M641.7,-236.54C572.93,-232.02 469,-221.01 440,-195 424.48,-181.07 420.06,-156.65 418.98,-139.58"/>
<polygon fill="#63b8ff" stroke="#63b8ff" points="422.47,-139.05 418.68,-129.15 415.47,-139.25 422.47,-139.05"/>
</a>
</g>
</g>
<!-- Node12&#45;&gt;Node5 -->
<g id="edge31_Node000012_Node000005" class="edge">
<title>Node12&#45;&gt;Node5</title>
<g id="a_edge31_Node000012_Node000005"><a xlink:title=" ">
<path fill="none" stroke="#63b8ff" d="M695.18,-230.87C663.71,-203.21 565.05,-116.52 524.59,-80.95"/>
<polygon fill="#63b8ff" stroke="#63b8ff" points="526.7,-78.15 516.88,-74.18 522.08,-83.41 526.7,-78.15"/>
</a>
</g>
</g>
<!-- Node12&#45;&gt;Node6 -->
<g id="edge33_Node000012_Node000006" class="edge">
<title>Node12&#45;&gt;Node6</title>
<g id="a_edge33_Node000012_Node000006"><a xlink:title=" ">
<path fill="none" stroke="#63b8ff" d="M705.35,-230.93C706.33,-216.25 710.02,-185.84 724,-165 770.46,-95.74 858.71,-45.77 903.86,-23.47"/>
<polygon fill="#63b8ff" stroke="#63b8ff" points="905.6,-26.52 913.07,-19.01 902.55,-20.22 905.6,-26.52"/>
</a>
</g>
</g>
<!-- Node12&#45;&gt;Node9 -->
<g id="edge37_Node000012_Node000009" class="edge">
<title>Node12&#45;&gt;Node9</title>
<g id="a_edge37_Node000012_Node000009"><a xlink:title=" ">
<path fill="none" stroke="#63b8ff" d="M701.4,-230.82C697.94,-221.99 692.97,-207.81 691,-195 684.91,-155.34 697.58,-109.02 706.11,-83.93"/>
<polygon fill="#63b8ff" stroke="#63b8ff" points="709.49,-84.87 709.54,-74.28 702.89,-82.52 709.49,-84.87"/>
</a>
</g>
</g>
<!-- Node12&#45;&gt;Node11 -->
<g id="edge32_Node000012_Node000011" class="edge">
<title>Node12&#45;&gt;Node11</title>
<g id="a_edge32_Node000012_Node000011"><a xlink:title=" ">
<path fill="none" stroke="#63b8ff" d="M734.24,-230.88C754.13,-223.82 780,-212.18 798,-195 814.38,-179.37 825.54,-155.53 831.82,-139.05"/>
<polygon fill="#63b8ff" stroke="#63b8ff" points="835.19,-140.04 835.26,-129.44 828.6,-137.68 835.19,-140.04"/>
</a>
</g>
</g>
<!-- Node13 -->
<g id="Node000013" class="node">
<title>Node13</title>
<g id="a_Node000013"><a xlink:href="../../d9/d43/tensor__index__tp_8hpp.html" target="_top" xlink:title="Declaration of tensor&#45;product index and size related classes.">
<polygon fill="white" stroke="#666666" points="1069,-195 959,-195 959,-165 1069,-165 1069,-195"/>
<text text-anchor="start" x="967" y="-183" font-family="Helvetica,sans-Serif" font-size="10.00">qugar/tensor_index</text>
<text text-anchor="middle" x="1014" y="-172" font-family="Helvetica,sans-Serif" font-size="10.00">_tp.hpp</text>
</a>
</g>
</g>
<!-- Node12&#45;&gt;Node13 -->
<g id="edge17_Node000012_Node000013" class="edge">
<title>Node12&#45;&gt;Node13</title>
<g id="a_edge17_Node000012_Node000013"><a xlink:title=" ">
<path fill="none" stroke="#63b8ff" d="M749.93,-230.99C802.23,-221.09 889.03,-204.66 948.75,-193.35"/>
<polygon fill="#63b8ff" stroke="#63b8ff" points="949.66,-196.74 958.83,-191.44 948.35,-189.87 949.66,-196.74"/>
</a>
</g>
</g>
<!-- Node16 -->
<g id="Node000016" class="node">
<title>Node16</title>
<g id="a_Node000016"><a xlink:title=" ">
<polygon fill="#e0e0e0" stroke="#999999" points="1153,-129 1103,-129 1103,-110 1153,-110 1153,-129"/>
<text text-anchor="middle" x="1128" y="-117" font-family="Helvetica,sans-Serif" font-size="10.00">cstdint</text>
</a>
</g>
</g>
<!-- Node12&#45;&gt;Node16 -->
<g id="edge34_Node000012_Node000016" class="edge">
<title>Node12&#45;&gt;Node16</title>
<g id="a_edge34_Node000012_Node000016"><a xlink:title=" ">
<path fill="none" stroke="#63b8ff" d="M768.17,-238.25C860.67,-235.38 1027.45,-225.94 1078,-195 1099.12,-182.07 1113.3,-156.46 1121,-138.91"/>
<polygon fill="#63b8ff" stroke="#63b8ff" points="1124.42,-139.79 1124.97,-129.21 1117.95,-137.14 1124.42,-139.79"/>
</a>
</g>
</g>
<!-- Node12&#45;&gt;Node19 -->
<g id="edge26_Node000012_Node000019" class="edge">
<title>Node12&#45;&gt;Node19</title>
<g id="a_edge26_Node000012_Node000019"><a xlink:title=" ">
<path fill="none" stroke="#63b8ff" d="M676.06,-230.99C641.43,-220.81 583.3,-203.72 544.79,-192.4"/>
<polygon fill="#63b8ff" stroke="#63b8ff" points="545.55,-188.98 534.97,-189.52 543.58,-195.7 545.55,-188.98"/>
</a>
</g>
</g>
<!-- Node12&#45;&gt;Node21 -->
<g id="edge35_Node000012_Node000021" class="edge">
<title>Node12&#45;&gt;Node21</title>
<g id="a_edge35_Node000012_Node000021"><a xlink:title=" ">
<path fill="none" stroke="#63b8ff" d="M768.08,-234.05C905.77,-222.15 1229.92,-194.14 1342.58,-184.41"/>
<polygon fill="#63b8ff" stroke="#63b8ff" points="1343.15,-187.87 1352.81,-183.52 1342.55,-180.9 1343.15,-187.87"/>
</a>
</g>
</g>
<!-- Node22 -->
<g id="Node000022" class="node">
<title>Node22</title>
<g id="a_Node000022"><a xlink:title=" ">
<polygon fill="#e0e0e0" stroke="#999999" points="789,-189.5 733,-189.5 733,-170.5 789,-170.5 789,-189.5"/>
<text text-anchor="middle" x="761" y="-177.5" font-family="Helvetica,sans-Serif" font-size="10.00">optional</text>
</a>
</g>
</g>
<!-- Node12&#45;&gt;Node22 -->
<g id="edge36_Node000012_Node000022" class="edge">
<title>Node12&#45;&gt;Node22</title>
<g id="a_edge36_Node000012_Node000022"><a xlink:title=" ">
<path fill="none" stroke="#63b8ff" d="M713.26,-230.87C721.78,-221.97 735.26,-207.89 745.73,-196.95"/>
<polygon fill="#63b8ff" stroke="#63b8ff" points="748.32,-199.31 752.7,-189.67 743.26,-194.47 748.32,-199.31"/>
</a>
</g>
</g>
<!-- Node13&#45;&gt;Node6 -->
<g id="edge22_Node000013_Node000006" class="edge">
<title>Node13&#45;&gt;Node6</title>
<g id="a_edge22_Node000013_Node000006"><a xlink:title=" ">
<path fill="none" stroke="#63b8ff" d="M1032.26,-164.93C1047.57,-151.31 1065.52,-129.85 1056,-110 1036.29,-68.91 990.41,-39.43 960.33,-23.68"/>
<polygon fill="#63b8ff" stroke="#63b8ff" points="961.67,-20.43 951.17,-19.05 958.52,-26.68 961.67,-20.43"/>
</a>
</g>
</g>
<!-- Node13&#45;&gt;Node7 -->
<g id="edge19_Node000013_Node000007" class="edge">
<title>Node13&#45;&gt;Node7</title>
<g id="a_edge19_Node000013_Node000007"><a xlink:title=" ">
<path fill="none" stroke="#63b8ff" d="M983.5,-164.91C962.06,-154.96 932.72,-141.27 907,-129 889.6,-120.7 886.33,-115.99 868,-110 834.1,-98.91 742.34,-83.72 680.98,-74.26"/>
<polygon fill="#63b8ff" stroke="#63b8ff" points="681.44,-70.79 671.03,-72.74 680.38,-77.71 681.44,-70.79"/>
</a>
</g>
</g>
<!-- Node13&#45;&gt;Node11 -->
<g id="edge20_Node000013_Node000011" class="edge">
<title>Node13&#45;&gt;Node11</title>
<g id="a_edge20_Node000013_Node000011"><a xlink:title=" ">
<path fill="none" stroke="#63b8ff" d="M971.84,-164.99C940.14,-154.45 897.43,-140.25 868.87,-130.76"/>
<polygon fill="#63b8ff" stroke="#63b8ff" points="869.62,-127.32 859.03,-127.49 867.41,-133.97 869.62,-127.32"/>
</a>
</g>
</g>
<!-- Node14 -->
<g id="Node000014" class="node">
<title>Node14</title>
<g id="a_Node000014"><a xlink:title=" ">
<polygon fill="#e0e0e0" stroke="#999999" points="1047,-129 1003,-129 1003,-110 1047,-110 1047,-129"/>
<text text-anchor="middle" x="1025" y="-117" font-family="Helvetica,sans-Serif" font-size="10.00">limits</text>
</a>
</g>
</g>
<!-- Node13&#45;&gt;Node14 -->
<g id="edge18_Node000013_Node000014" class="edge">
<title>Node13&#45;&gt;Node14</title>
<g id="a_edge18_Node000013_Node000014"><a xlink:title=" ">
<path fill="none" stroke="#63b8ff" d="M1016.66,-164.84C1018.11,-157.13 1019.93,-147.49 1021.49,-139.17"/>
<polygon fill="#63b8ff" stroke="#63b8ff" points="1024.94,-139.74 1023.35,-129.27 1018.06,-138.45 1024.94,-139.74"/>
</a>
</g>
</g>
<!-- Node15 -->
<g id="Node000015" class="node">
<title>Node15</title>
<g id="a_Node000015"><a xlink:title=" ">
<polygon fill="#e0e0e0" stroke="#999999" points="1345,-129 1293,-129 1293,-110 1345,-110 1345,-129"/>
<text text-anchor="middle" x="1319" y="-117" font-family="Helvetica,sans-Serif" font-size="10.00">cassert</text>
</a>
</g>
</g>
<!-- Node13&#45;&gt;Node15 -->
<g id="edge21_Node000013_Node000015" class="edge">
<title>Node13&#45;&gt;Node15</title>
<g id="a_edge21_Node000013_Node000015"><a xlink:title=" ">
<path fill="none" stroke="#63b8ff" d="M1069.25,-169.69C1121.7,-160.64 1202.99,-146.08 1282.48,-129.23"/>
<polygon fill="#63b8ff" stroke="#63b8ff" points="1283.61,-132.57 1292.66,-127.06 1282.15,-125.73 1283.61,-132.57"/>
</a>
</g>
</g>
<!-- Node13&#45;&gt;Node16 -->
<g id="edge23_Node000013_Node000016" class="edge">
<title>Node13&#45;&gt;Node16</title>
<g id="a_edge23_Node000013_Node000016"><a xlink:title=" ">
<path fill="none" stroke="#63b8ff" d="M1041.31,-164.99C1059.65,-155.58 1083.68,-143.24 1101.79,-133.95"/>
<polygon fill="#63b8ff" stroke="#63b8ff" points="1103.87,-136.82 1111.16,-129.14 1100.67,-130.59 1103.87,-136.82"/>
</a>
</g>
</g>
<!-- Node17 -->
<g id="Node000017" class="node">
<title>Node17</title>
<g id="a_Node000017"><a xlink:title=" ">
<polygon fill="#e0e0e0" stroke="#999999" points="1274.5,-129 1209.5,-129 1209.5,-110 1274.5,-110 1274.5,-129"/>
<text text-anchor="middle" x="1242" y="-117" font-family="Helvetica,sans-Serif" font-size="10.00">functional</text>
</a>
</g>
</g>
<!-- Node13&#45;&gt;Node17 -->
<g id="edge24_Node000013_Node000017" class="edge">
<title>Node13&#45;&gt;Node17</title>
<g id="a_edge24_Node000013_Node000017"><a xlink:title=" ">
<path fill="none" stroke="#63b8ff" d="M1068.61,-164.99C1108.71,-154.7 1162.41,-140.92 1199.37,-131.44"/>
<polygon fill="#63b8ff" stroke="#63b8ff" points="1200.51,-134.76 1209.33,-128.88 1198.77,-127.98 1200.51,-134.76"/>
</a>
</g>
</g>
<!-- Node18 -->
<g id="Node000018" class="node">
<title>Node18</title>
<g id="a_Node000018"><a xlink:title=" ">
<polygon fill="#e0e0e0" stroke="#999999" points="984.5,-129 915.5,-129 915.5,-110 984.5,-110 984.5,-129"/>
<text text-anchor="middle" x="950" y="-117" font-family="Helvetica,sans-Serif" font-size="10.00">type_traits</text>
</a>
</g>
</g>
<!-- Node13&#45;&gt;Node18 -->
<g id="edge25_Node000013_Node000018" class="edge">
<title>Node13&#45;&gt;Node18</title>
<g id="a_edge25_Node000013_Node000018"><a xlink:title=" ">
<path fill="none" stroke="#63b8ff" d="M998.51,-164.84C989.03,-156.17 976.89,-145.08 967.12,-136.15"/>
<polygon fill="#63b8ff" stroke="#63b8ff" points="969.33,-133.43 959.59,-129.27 964.61,-138.6 969.33,-133.43"/>
</a>
</g>
</g>
<!-- Node19&#45;&gt;Node4 -->
<g id="edge27_Node000019_Node000004" class="edge">
<title>Node19&#45;&gt;Node4</title>
<g id="a_edge27_Node000019_Node000004"><a xlink:title=" ">
<path fill="none" stroke="#63b8ff" d="M493.16,-170.37C479.28,-161.04 456.93,-146.01 440.39,-134.88"/>
<polygon fill="#63b8ff" stroke="#63b8ff" points="442.14,-131.84 431.89,-129.17 438.24,-137.65 442.14,-131.84"/>
</a>
</g>
</g>
<!-- Node19&#45;&gt;Node5 -->
<g id="edge28_Node000019_Node000005" class="edge">
<title>Node19&#45;&gt;Node5</title>
<g id="a_edge28_Node000019_Node000005"><a xlink:title=" ">
<path fill="none" stroke="#63b8ff" d="M514.85,-170.4C523.68,-161.13 536.68,-145.49 542,-129 544.59,-120.96 544.76,-117.98 542,-110 538.33,-99.38 530.96,-89.38 523.92,-81.55"/>
<polygon fill="#63b8ff" stroke="#63b8ff" points="526.34,-79.02 516.88,-74.25 521.3,-83.88 526.34,-79.02"/>
</a>
</g>
</g>
<!-- Node19&#45;&gt;Node9 -->
<g id="edge30_Node000019_Node000009" class="edge">
<title>Node19&#45;&gt;Node9</title>
<g id="a_edge30_Node000019_Node000009"><a xlink:title=" ">
<path fill="none" stroke="#63b8ff" d="M521.56,-170.47C557.22,-150.91 645.12,-102.72 688.28,-79.06"/>
<polygon fill="#63b8ff" stroke="#63b8ff" points="690.18,-82.01 697.26,-74.13 686.81,-75.87 690.18,-82.01"/>
</a>
</g>
</g>
<!-- Node20 -->
<g id="Node000020" class="node">
<title>Node20</title>
<g id="a_Node000020"><a xlink:title=" ">
<polygon fill="#e0e0e0" stroke="#999999" points="532.5,-129 483.5,-129 483.5,-110 532.5,-110 532.5,-129"/>
<text text-anchor="middle" x="508" y="-117" font-family="Helvetica,sans-Serif" font-size="10.00">cstdlib</text>
</a>
</g>
</g>
<!-- Node19&#45;&gt;Node20 -->
<g id="edge29_Node000019_Node000020" class="edge">
<title>Node19&#45;&gt;Node20</title>
<g id="a_edge29_Node000019_Node000020"><a xlink:title=" ">
<path fill="none" stroke="#63b8ff" d="M506.3,-170.37C506.57,-162.25 507,-149.81 507.35,-139.39"/>
<polygon fill="#63b8ff" stroke="#63b8ff" points="510.86,-139.28 507.7,-129.17 503.86,-139.04 510.86,-139.28"/>
</a>
</g>
</g>
<!-- Node23&#45;&gt;Node6 -->
<g id="edge53_Node000023_Node000006" class="edge">
<title>Node23&#45;&gt;Node6</title>
<g id="a_edge53_Node000023_Node000006"><a xlink:title=" ">
<path fill="none" stroke="#63b8ff" d="M1171.25,-354.65C1291.36,-343.11 1515,-312.14 1515,-241.5 1515,-241.5 1515,-241.5 1515,-118.5 1515,-62.68 1096.48,-23.92 968.64,-13.38"/>
<polygon fill="#63b8ff" stroke="#63b8ff" points="968.82,-9.88 958.57,-12.56 968.25,-16.86 968.82,-9.88"/>
</a>
</g>
</g>
<!-- Node23&#45;&gt;Node9 -->
<g id="edge58_Node000023_Node000009" class="edge">
<title>Node23&#45;&gt;Node9</title>
<g id="a_edge58_Node000023_Node000009"><a xlink:title=" ">
<path fill="none" stroke="#63b8ff" d="M1075.09,-351.96C1055.67,-343.94 1026.93,-330.97 1004,-316 888.64,-240.67 769.88,-123.7 728.4,-81.42"/>
<polygon fill="#63b8ff" stroke="#63b8ff" points="730.85,-78.92 721.36,-74.21 725.84,-83.81 730.85,-78.92"/>
</a>
</g>
</g>
<!-- Node23&#45;&gt;Node11 -->
<g id="edge51_Node000023_Node000011" class="edge">
<title>Node23&#45;&gt;Node11</title>
<g id="a_edge51_Node000023_Node000011"><a xlink:title=" ">
<path fill="none" stroke="#63b8ff" d="M1086.35,-351.91C1056.92,-328.01 972.31,-258.35 907,-195 887.14,-175.74 865.7,-152.09 852.08,-136.68"/>
<polygon fill="#63b8ff" stroke="#63b8ff" points="854.6,-134.25 845.38,-129.04 849.34,-138.87 854.6,-134.25"/>
</a>
</g>
</g>
<!-- Node23&#45;&gt;Node12 -->
<g id="edge41_Node000023_Node000012" class="edge">
<title>Node23&#45;&gt;Node12</title>
<g id="a_edge41_Node000023_Node000012"><a xlink:title=" ">
<path fill="none" stroke="#63b8ff" d="M1022.99,-361.15C927.42,-360.43 768.2,-353.42 725,-316 709.14,-302.26 705.2,-277.43 704.53,-260.24"/>
<polygon fill="#63b8ff" stroke="#63b8ff" points="708.03,-260.21 704.47,-250.23 701.03,-260.25 708.03,-260.21"/>
</a>
</g>
</g>
<!-- Node23&#45;&gt;Node15 -->
<g id="edge52_Node000023_Node000015" class="edge">
<title>Node23&#45;&gt;Node15</title>
<g id="a_edge52_Node000023_Node000015"><a xlink:title=" ">
<path fill="none" stroke="#63b8ff" d="M1171.07,-353.38C1236.38,-346.1 1325.87,-333.4 1357,-316 1391.09,-296.95 1394.83,-283.44 1415,-250 1435.1,-216.68 1458.09,-197.04 1436,-165 1417.95,-138.82 1382.32,-128.03 1355.09,-123.59"/>
<polygon fill="#63b8ff" stroke="#63b8ff" points="1355.52,-120.12 1345.12,-122.18 1354.54,-127.05 1355.52,-120.12"/>
</a>
</g>
</g>
<!-- Node23&#45;&gt;Node16 -->
<g id="edge54_Node000023_Node000016" class="edge">
<title>Node23&#45;&gt;Node16</title>
<g id="a_edge54_Node000023_Node000016"><a xlink:title=" ">
<path fill="none" stroke="#63b8ff" d="M1098.1,-351.96C1102.56,-317.48 1119.27,-188.08 1125.57,-139.28"/>
<polygon fill="#63b8ff" stroke="#63b8ff" points="1129.07,-139.56 1126.88,-129.19 1122.13,-138.66 1129.07,-139.56"/>
</a>
</g>
</g>
<!-- Node23&#45;&gt;Node17 -->
<g id="edge55_Node000023_Node000017" class="edge">
<title>Node23&#45;&gt;Node17</title>
<g id="a_edge55_Node000023_Node000017"><a xlink:title=" ">
<path fill="none" stroke="#63b8ff" d="M1171.21,-357.99C1217.28,-353.6 1276.22,-342.63 1322,-316 1381.82,-281.2 1398.21,-260.68 1420,-195 1424.2,-182.34 1428.21,-175.51 1420,-165 1415.76,-159.57 1335.99,-141.16 1284.69,-129.79"/>
<polygon fill="#63b8ff" stroke="#63b8ff" points="1285.36,-126.36 1274.84,-127.62 1283.85,-133.19 1285.36,-126.36"/>
</a>
</g>
</g>
<!-- Node23&#45;&gt;Node21 -->
<g id="edge56_Node000023_Node000021" class="edge">
<title>Node23&#45;&gt;Node21</title>
<g id="a_edge56_Node000023_Node000021"><a xlink:title=" ">
<path fill="none" stroke="#63b8ff" d="M1166.8,-351.95C1203.19,-345.54 1247.57,-334.56 1284,-316 1324.16,-295.54 1336.34,-287.73 1361,-250 1371.04,-234.63 1376.47,-214.23 1379.28,-199.61"/>
<polygon fill="#63b8ff" stroke="#63b8ff" points="1382.73,-200.17 1380.94,-189.73 1375.83,-199.01 1382.73,-200.17"/>
</a>
</g>
</g>
<!-- Node24 -->
<g id="Node000024" class="node">
<title>Node24</title>
<g id="a_Node000024"><a xlink:href="../../d8/daf/unfitted__domain__binary__part_8hpp.html" target="_top" xlink:title="Declaration of of UnfittedDomain class.">
<polygon fill="white" stroke="#666666" points="1274.5,-316 1147.5,-316 1147.5,-286 1274.5,-286 1274.5,-316"/>
<text text-anchor="start" x="1155.5" y="-304" font-family="Helvetica,sans-Serif" font-size="10.00">qugar/unfitted_domain</text>
<text text-anchor="middle" x="1211" y="-293" font-family="Helvetica,sans-Serif" font-size="10.00">_binary_part.hpp</text>
</a>
</g>
</g>
<!-- Node23&#45;&gt;Node24 -->
<g id="edge42_Node000023_Node000024" class="edge">
<title>Node23&#45;&gt;Node24</title>
<g id="a_edge42_Node000023_Node000024"><a xlink:title=" ">
<path fill="none" stroke="#63b8ff" d="M1113.82,-351.87C1129.72,-343.71 1154.1,-331.2 1174.47,-320.75"/>
<polygon fill="#63b8ff" stroke="#63b8ff" points="1176.2,-323.79 1183.49,-316.11 1173,-317.57 1176.2,-323.79"/>
</a>
</g>
</g>
<!-- Node25 -->
<g id="Node000025" class="node">
<title>Node25</title>
<g id="a_Node000025"><a xlink:title=" ">
<polygon fill="#e0e0e0" stroke="#999999" points="826.5,-310.5 733.5,-310.5 733.5,-291.5 826.5,-291.5 826.5,-310.5"/>
<text text-anchor="middle" x="780" y="-298.5" font-family="Helvetica,sans-Serif" font-size="10.00">unordered_map</text>
</a>
</g>
</g>
<!-- Node23&#45;&gt;Node25 -->
<g id="edge57_Node000023_Node000025" class="edge">
<title>Node23&#45;&gt;Node25</title>
<g id="a_edge57_Node000023_Node000025"><a xlink:title=" ">
<path fill="none" stroke="#63b8ff" d="M1042.91,-351.96C990.98,-343.56 910.43,-329.99 841,-316 836,-314.99 830.79,-313.88 825.6,-312.75"/>
<polygon fill="#63b8ff" stroke="#63b8ff" points="826.26,-309.31 815.73,-310.54 824.73,-316.14 826.26,-309.31"/>
</a>
</g>
</g>
<!-- Node24&#45;&gt;Node6 -->
<g id="edge46_Node000024_Node000006" class="edge">
<title>Node24&#45;&gt;Node6</title>
<g id="a_edge46_Node000024_Node000006"><a xlink:title=" ">
<path fill="none" stroke="#63b8ff" d="M1227.32,-285.74C1270.12,-247.55 1380.59,-143.58 1354,-110 1305.92,-49.27 1062.38,-21.87 968.75,-13.47"/>
<polygon fill="#63b8ff" stroke="#63b8ff" points="968.88,-9.97 958.61,-12.58 968.27,-16.94 968.88,-9.97"/>
</a>
</g>
</g>
<!-- Node24&#45;&gt;Node9 -->
<g id="edge50_Node000024_Node000009" class="edge">
<title>Node24&#45;&gt;Node9</title>
<g id="a_edge50_Node000024_Node000009"><a xlink:title=" ">
<path fill="none" stroke="#63b8ff" d="M1212.31,-285.96C1214.81,-250.1 1215.81,-154.78 1162,-110 1130.23,-83.56 845.65,-70.47 746.72,-66.69"/>
<polygon fill="#63b8ff" stroke="#63b8ff" points="746.79,-63.19 736.66,-66.31 746.52,-70.18 746.79,-63.19"/>
</a>
</g>
</g>
<!-- Node24&#45;&gt;Node11 -->
<g id="edge44_Node000024_Node000011" class="edge">
<title>Node24&#45;&gt;Node11</title>
<g id="a_edge44_Node000024_Node000011"><a xlink:title=" ">
<path fill="none" stroke="#63b8ff" d="M1167.62,-285.94C1114.7,-268.04 1023.25,-234.62 950,-195 929.5,-183.91 926.35,-177.98 907,-165 891.52,-154.61 873.84,-143.22 860.25,-134.56"/>
<polygon fill="#63b8ff" stroke="#63b8ff" points="861.9,-131.46 851.58,-129.05 858.15,-137.37 861.9,-131.46"/>
</a>
</g>
</g>
<!-- Node24&#45;&gt;Node12 -->
<g id="edge43_Node000024_Node000012" class="edge">
<title>Node24&#45;&gt;Node12</title>
<g id="a_edge43_Node000024_Node000012"><a xlink:title=" ">
<path fill="none" stroke="#63b8ff" d="M1147.43,-292.65C1053.38,-281.78 877.61,-261.46 778.27,-249.97"/>
<polygon fill="#63b8ff" stroke="#63b8ff" points="778.65,-246.49 768.31,-248.82 777.84,-253.45 778.65,-246.49"/>
</a>
</g>
</g>
<!-- Node24&#45;&gt;Node15 -->
<g id="edge45_Node000024_Node000015" class="edge">
<title>Node24&#45;&gt;Node15</title>
<g id="a_edge45_Node000024_Node000015"><a xlink:title=" ">
<path fill="none" stroke="#63b8ff" d="M1219.47,-285.91C1239.02,-253.43 1287.21,-173.34 1308.54,-137.88"/>
<polygon fill="#63b8ff" stroke="#63b8ff" points="1311.65,-139.51 1313.8,-129.13 1305.65,-135.9 1311.65,-139.51"/>
</a>
</g>
</g>
<!-- Node24&#45;&gt;Node16 -->
<g id="edge47_Node000024_Node000016" class="edge">
<title>Node24&#45;&gt;Node16</title>
<g id="a_edge47_Node000024_Node000016"><a xlink:title=" ">
<path fill="none" stroke="#63b8ff" d="M1204.53,-285.79C1193.31,-261.16 1169.46,-208.96 1149,-165 1144.89,-156.18 1140.28,-146.4 1136.43,-138.26"/>
<polygon fill="#63b8ff" stroke="#63b8ff" points="1139.5,-136.56 1132.05,-129.02 1133.17,-139.55 1139.5,-136.56"/>
</a>
</g>
</g>
<!-- Node24&#45;&gt;Node17 -->
<g id="edge48_Node000024_Node000017" class="edge">
<title>Node24&#45;&gt;Node17</title>
<g id="a_edge48_Node000024_Node000017"><a xlink:title=" ">
<path fill="none" stroke="#63b8ff" d="M1215.59,-285.69C1218.63,-275.76 1222.51,-262.19 1225,-250 1233,-210.89 1238.04,-164.33 1240.4,-139.06"/>
<polygon fill="#63b8ff" stroke="#63b8ff" points="1243.89,-139.33 1241.3,-129.05 1236.92,-138.7 1243.89,-139.33"/>
</a>
</g>
</g>
<!-- Node24&#45;&gt;Node21 -->
<g id="edge49_Node000024_Node000021" class="edge">
<title>Node24&#45;&gt;Node21</title>
<g id="a_edge49_Node000024_Node000021"><a xlink:title=" ">
<path fill="none" stroke="#63b8ff" d="M1269.35,-285.91C1292.82,-278.14 1318.99,-266.61 1339,-250 1355.41,-236.37 1367.43,-214.79 1374.53,-199.39"/>
<polygon fill="#63b8ff" stroke="#63b8ff" points="1377.88,-200.46 1378.64,-189.89 1371.45,-197.68 1377.88,-200.46"/>
</a>
</g>
</g>
</g>
</svg>
